  0
SECTION
  2
HEADER
  9
$ANGBASE
  50
0.0
  9
$ANGDIR
  70
1
  9
$MEASUREMENT
  70
1
  0
ENDSEC
  0
SECTION
  2
TABLES
  0
TABLE
  2
LTYPE
  70
4
  0
LTYPE
  5
40F
  2
CONTINUOUS
  70
0
  3
Solid line
  72
65
  73
0
  40
0.0
  0
LTYPE
  5
410
  2
DASHDOT
 70
0
  3
Dash Dot ____ _ ____ _
 72
65
 73
4
 40
2.0
 49
1.25
 49
-0.25
 49
0.25
 49
-0.25
  0
LTYPE
  5
411
  2
DASHED
 70
0
  3
Dashed __ __ __ __ __
 72
65
 73
2
 40
0.75
 49
0.5
 49
-0.25
  0
LTYPE
  5
43B
  2
DOTTED
 70
0
  3
Dotted .  .  .  .
 72
65
 73
2
 40
0.2
 49
0.0
 49
-0.2
  0
ENDTAB
  0
TABLE
  2
STYLE
  70
4
  0
STYLE
  2
KICAD
  70
0
  40
0
  41
1
  42
1
  50
0
  71
0
  3
isocp.shx
  0
STYLE
  2
KICADB
  70
0
  40
0
  41
1
  42
1
  50
0
  71
0
  3
isocp.shx
  0
STYLE
  2
KICADI
  70
0
  40
0
  41
1
  42
1
  50
15
  71
0
  3
isocp.shx
  0
STYLE
  2
KICADBI
  70
0
  40
0
  41
1
  42
1
  50
15
  71
0
  3
isocp.shx
  0
ENDTAB
  0
TABLE
  2
LAYER
  70
1
  0
LAYER
  2
BLACK
  70
0
  62
7
  6
CONTINUOUS
  0
ENDTAB
  0
ENDSEC
  0
SECTION
  2
ENTITIES
0
LINE
8
BLACK
6
CONTINUOUS
10
127.513
20
-36.2361
11
127.528
21
-36.2483
0
LINE
8
BLACK
6
CONTINUOUS
10
127.528
20
-36.2483
11
128.671
21
-37.6103
0
LINE
8
BLACK
6
CONTINUOUS
10
128.671
20
-37.6103
11
128.68
21
-37.6274
0
LINE
8
BLACK
6
CONTINUOUS
10
128.68
20
-37.6274
11
128.683
21
-37.6468
0
LINE
8
BLACK
6
CONTINUOUS
10
128.683
20
-37.6468
11
128.677
21
-37.6655
0
LINE
8
BLACK
6
CONTINUOUS
10
128.677
20
-37.6655
11
128.665
21
-37.6807
0
LINE
8
BLACK
6
CONTINUOUS
10
128.665
20
-37.6807
11
127.303
21
-38.8236
0
LINE
8
BLACK
6
CONTINUOUS
10
127.303
20
-38.8236
11
127.286
21
-38.833
0
LINE
8
BLACK
6
CONTINUOUS
10
127.286
20
-38.833
11
127.266
21
-38.8351
0
LINE
8
BLACK
6
CONTINUOUS
10
127.266
20
-38.8351
11
127.248
21
-38.8297
0
LINE
8
BLACK
6
CONTINUOUS
10
127.248
20
-38.8297
11
127.232
21
-38.8174
0
LINE
8
BLACK
6
CONTINUOUS
10
127.232
20
-38.8174
11
126.09
21
-37.4554
0
LINE
8
BLACK
6
CONTINUOUS
10
126.09
20
-37.4554
11
126.08
21
-37.4383
0
LINE
8
BLACK
6
CONTINUOUS
10
126.08
20
-37.4383
11
126.078
21
-37.4189
0
LINE
8
BLACK
6
CONTINUOUS
10
126.078
20
-37.4189
11
126.083
21
-37.4002
0
LINE
8
BLACK
6
CONTINUOUS
10
126.083
20
-37.4002
11
126.096
21
-37.385
0
LINE
8
BLACK
6
CONTINUOUS
10
126.096
20
-37.385
11
127.458
21
-36.2421
0
LINE
8
BLACK
6
CONTINUOUS
10
127.458
20
-36.2421
11
127.475
21
-36.2327
0
LINE
8
BLACK
6
CONTINUOUS
10
127.475
20
-36.2327
11
127.494
21
-36.2306
0
LINE
8
BLACK
6
CONTINUOUS
10
127.494
20
-36.2306
11
127.513
21
-36.2361
0
LINE
8
BLACK
6
CONTINUOUS
10
126.185
20
-35.1035
11
126.201
21
-35.1157
0
LINE
8
BLACK
6
CONTINUOUS
10
126.201
20
-35.1157
11
126.779
21
-35.8051
0
LINE
8
BLACK
6
CONTINUOUS
10
126.779
20
-35.8051
11
126.788
21
-35.8222
0
LINE
8
BLACK
6
CONTINUOUS
10
126.788
20
-35.8222
11
126.791
21
-35.8416
0
LINE
8
BLACK
6
CONTINUOUS
10
126.791
20
-35.8416
11
126.785
21
-35.8603
0
LINE
8
BLACK
6
CONTINUOUS
10
126.785
20
-35.8603
11
126.773
21
-35.8756
0
LINE
8
BLACK
6
CONTINUOUS
10
126.773
20
-35.8756
11
125.854
21
-36.6469
0
LINE
8
BLACK
6
CONTINUOUS
10
125.854
20
-36.6469
11
125.837
21
-36.6563
0
LINE
8
BLACK
6
CONTINUOUS
10
125.837
20
-36.6563
11
125.817
21
-36.6584
0
LINE
8
BLACK
6
CONTINUOUS
10
125.817
20
-36.6584
11
125.798
21
-36.6529
0
LINE
8
BLACK
6
CONTINUOUS
10
125.798
20
-36.6529
11
125.783
21
-36.6407
0
LINE
8
BLACK
6
CONTINUOUS
10
125.783
20
-36.6407
11
125.205
21
-35.9513
0
LINE
8
BLACK
6
CONTINUOUS
10
125.205
20
-35.9513
11
125.195
21
-35.9342
0
LINE
8
BLACK
6
CONTINUOUS
10
125.195
20
-35.9342
11
125.193
21
-35.9148
0
LINE
8
BLACK
6
CONTINUOUS
10
125.193
20
-35.9148
11
125.199
21
-35.8961
0
LINE
8
BLACK
6
CONTINUOUS
10
125.199
20
-35.8961
11
125.211
21
-35.8809
0
LINE
8
BLACK
6
CONTINUOUS
10
125.211
20
-35.8809
11
126.13
21
-35.1095
0
LINE
8
BLACK
6
CONTINUOUS
10
126.13
20
-35.1095
11
126.147
21
-35.1001
0
LINE
8
BLACK
6
CONTINUOUS
10
126.147
20
-35.1001
11
126.167
21
-35.098
0
LINE
8
BLACK
6
CONTINUOUS
10
126.167
20
-35.098
11
126.185
21
-35.1035
0
LINE
8
BLACK
6
CONTINUOUS
10
124.064
20
-32.5755
11
124.079
21
-32.5877
0
LINE
8
BLACK
6
CONTINUOUS
10
124.079
20
-32.5877
11
124.658
21
-33.2772
0
LINE
8
BLACK
6
CONTINUOUS
10
124.658
20
-33.2772
11
124.667
21
-33.2943
0
LINE
8
BLACK
6
CONTINUOUS
10
124.667
20
-33.2943
11
124.669
21
-33.3137
0
LINE
8
BLACK
6
CONTINUOUS
10
124.669
20
-33.3137
11
124.664
21
-33.3324
0
LINE
8
BLACK
6
CONTINUOUS
10
124.664
20
-33.3324
11
124.652
21
-33.3476
0
LINE
8
BLACK
6
CONTINUOUS
10
124.652
20
-33.3476
11
123.732
21
-34.119
0
LINE
8
BLACK
6
CONTINUOUS
10
123.732
20
-34.119
11
123.715
21
-34.1283
0
LINE
8
BLACK
6
CONTINUOUS
10
123.715
20
-34.1283
11
123.696
21
-34.1305
0
LINE
8
BLACK
6
CONTINUOUS
10
123.696
20
-34.1305
11
123.677
21
-34.125
0
LINE
8
BLACK
6
CONTINUOUS
10
123.677
20
-34.125
11
123.662
21
-34.1128
0
LINE
8
BLACK
6
CONTINUOUS
10
123.662
20
-34.1128
11
123.083
21
-33.4233
0
LINE
8
BLACK
6
CONTINUOUS
10
123.083
20
-33.4233
11
123.074
21
-33.4062
0
LINE
8
BLACK
6
CONTINUOUS
10
123.074
20
-33.4062
11
123.072
21
-33.3869
0
LINE
8
BLACK
6
CONTINUOUS
10
123.072
20
-33.3869
11
123.077
21
-33.3681
0
LINE
8
BLACK
6
CONTINUOUS
10
123.077
20
-33.3681
11
123.09
21
-33.3529
0
LINE
8
BLACK
6
CONTINUOUS
10
123.09
20
-33.3529
11
124.009
21
-32.5816
0
LINE
8
BLACK
6
CONTINUOUS
10
124.009
20
-32.5816
11
124.026
21
-32.5722
0
LINE
8
BLACK
6
CONTINUOUS
10
124.026
20
-32.5722
11
124.045
21
-32.5701
0
LINE
8
BLACK
6
CONTINUOUS
10
124.045
20
-32.5701
11
124.064
21
-32.5755
0
LINE
8
BLACK
6
CONTINUOUS
10
122.684
20
-30.7136
11
122.871
21
-30.7714
0
LINE
8
BLACK
6
CONTINUOUS
10
122.871
20
-30.7714
11
123.043
21
-30.8645
0
LINE
8
BLACK
6
CONTINUOUS
10
123.043
20
-30.8645
11
123.194
21
-30.9892
0
LINE
8
BLACK
6
CONTINUOUS
10
123.194
20
-30.9892
11
123.317
21
-31.1408
0
LINE
8
BLACK
6
CONTINUOUS
10
123.317
20
-31.1408
11
123.409
21
-31.3136
0
LINE
8
BLACK
6
CONTINUOUS
10
123.409
20
-31.3136
11
123.466
21
-31.5009
0
LINE
8
BLACK
6
CONTINUOUS
10
123.466
20
-31.5009
11
123.485
21
-31.6956
0
LINE
8
BLACK
6
CONTINUOUS
10
123.485
20
-31.6956
11
123.484
21
-31.7236
0
LINE
8
BLACK
6
CONTINUOUS
10
123.484
20
-31.7236
11
123.46
21
-31.9177
0
LINE
8
BLACK
6
CONTINUOUS
10
123.46
20
-31.9177
11
123.398
21
-32.1034
0
LINE
8
BLACK
6
CONTINUOUS
10
123.398
20
-32.1034
11
123.301
21
-32.2735
0
LINE
8
BLACK
6
CONTINUOUS
10
123.301
20
-32.2735
11
123.174
21
-32.4216
0
LINE
8
BLACK
6
CONTINUOUS
10
123.174
20
-32.4216
11
123.019
21
-32.542
0
LINE
8
BLACK
6
CONTINUOUS
10
123.019
20
-32.542
11
122.845
21
-32.6303
0
LINE
8
BLACK
6
CONTINUOUS
10
122.845
20
-32.6303
11
122.656
21
-32.6829
0
LINE
8
BLACK
6
CONTINUOUS
10
122.656
20
-32.6829
11
122.461
21
-32.6979
0
LINE
8
BLACK
6
CONTINUOUS
10
122.461
20
-32.6979
11
122.267
21
-32.6747
0
LINE
8
BLACK
6
CONTINUOUS
10
122.267
20
-32.6747
11
122.081
21
-32.6143
0
LINE
8
BLACK
6
CONTINUOUS
10
122.081
20
-32.6143
11
121.91
21
-32.5188
0
LINE
8
BLACK
6
CONTINUOUS
10
121.91
20
-32.5188
11
121.761
21
-32.392
0
LINE
8
BLACK
6
CONTINUOUS
10
121.761
20
-32.392
11
121.64
21
-32.2387
0
LINE
8
BLACK
6
CONTINUOUS
10
121.64
20
-32.2387
11
121.55
21
-32.0646
0
LINE
8
BLACK
6
CONTINUOUS
10
121.55
20
-32.0646
11
121.496
21
-31.8766
0
LINE
8
BLACK
6
CONTINUOUS
10
121.496
20
-31.8766
11
121.48
21
-31.6816
0
LINE
8
BLACK
6
CONTINUOUS
10
121.48
20
-31.6816
11
121.502
21
-31.4872
0
LINE
8
BLACK
6
CONTINUOUS
10
121.502
20
-31.4872
11
121.561
21
-31.3007
0
LINE
8
BLACK
6
CONTINUOUS
10
121.561
20
-31.3007
11
121.655
21
-31.1292
0
LINE
8
BLACK
6
CONTINUOUS
10
121.655
20
-31.1292
11
121.781
21
-30.9793
0
LINE
8
BLACK
6
CONTINUOUS
10
121.781
20
-30.9793
11
121.933
21
-30.8567
0
LINE
8
BLACK
6
CONTINUOUS
10
121.933
20
-30.8567
11
122.107
21
-30.7661
0
LINE
8
BLACK
6
CONTINUOUS
10
122.107
20
-30.7661
11
122.294
21
-30.7109
0
LINE
8
BLACK
6
CONTINUOUS
10
122.294
20
-30.7109
11
122.489
21
-30.6931
0
LINE
8
BLACK
6
CONTINUOUS
10
122.489
20
-30.6931
11
122.684
21
-30.7136
0
LINE
8
BLACK
6
CONTINUOUS
10
85.3916
20
-28.018
11
85.5785
21
-28.0758
0
LINE
8
BLACK
6
CONTINUOUS
10
85.5785
20
-28.0758
11
85.7506
21
-28.1689
0
LINE
8
BLACK
6
CONTINUOUS
10
85.7506
20
-28.1689
11
85.9013
21
-28.2936
0
LINE
8
BLACK
6
CONTINUOUS
10
85.9013
20
-28.2936
11
86.025
21
-28.4452
0
LINE
8
BLACK
6
CONTINUOUS
10
86.025
20
-28.4452
11
86.1169
21
-28.618
0
LINE
8
BLACK
6
CONTINUOUS
10
86.1169
20
-28.618
11
86.1734
21
-28.8053
0
LINE
8
BLACK
6
CONTINUOUS
10
86.1734
20
-28.8053
11
86.1925
21
-29
0
LINE
8
BLACK
6
CONTINUOUS
10
86.1925
20
-29
11
86.1921
21
-29.028
0
LINE
8
BLACK
6
CONTINUOUS
10
86.1921
20
-29.028
11
86.1676
21
-29.2221
0
LINE
8
BLACK
6
CONTINUOUS
10
86.1676
20
-29.2221
11
86.1058
21
-29.4078
0
LINE
8
BLACK
6
CONTINUOUS
10
86.1058
20
-29.4078
11
86.0092
21
-29.5779
0
LINE
8
BLACK
6
CONTINUOUS
10
86.0092
20
-29.5779
11
85.8813
21
-29.726
0
LINE
8
BLACK
6
CONTINUOUS
10
85.8813
20
-29.726
11
85.7272
21
-29.8464
0
LINE
8
BLACK
6
CONTINUOUS
10
85.7272
20
-29.8464
11
85.5525
21
-29.9347
0
LINE
8
BLACK
6
CONTINUOUS
10
85.5525
20
-29.9347
11
85.3641
21
-29.9873
0
LINE
8
BLACK
6
CONTINUOUS
10
85.3641
20
-29.9873
11
85.169
21
-30.0023
0
LINE
8
BLACK
6
CONTINUOUS
10
85.169
20
-30.0023
11
84.9747
21
-29.9791
0
LINE
8
BLACK
6
CONTINUOUS
10
84.9747
20
-29.9791
11
84.7886
21
-29.9187
0
LINE
8
BLACK
6
CONTINUOUS
10
84.7886
20
-29.9187
11
84.6179
21
-29.8232
0
LINE
8
BLACK
6
CONTINUOUS
10
84.6179
20
-29.8232
11
84.4689
21
-29.6964
0
LINE
8
BLACK
6
CONTINUOUS
10
84.4689
20
-29.6964
11
84.3473
21
-29.5431
0
LINE
8
BLACK
6
CONTINUOUS
10
84.3473
20
-29.5431
11
84.2579
21
-29.369
0
LINE
8
BLACK
6
CONTINUOUS
10
84.2579
20
-29.369
11
84.204
21
-29.181
0
LINE
8
BLACK
6
CONTINUOUS
10
84.204
20
-29.181
11
84.1876
21
-28.986
0
LINE
8
BLACK
6
CONTINUOUS
10
84.1876
20
-28.986
11
84.2094
21
-28.7916
0
LINE
8
BLACK
6
CONTINUOUS
10
84.2094
20
-28.7916
11
84.2686
21
-28.6051
0
LINE
8
BLACK
6
CONTINUOUS
10
84.2686
20
-28.6051
11
84.3628
21
-28.4336
0
LINE
8
BLACK
6
CONTINUOUS
10
84.3628
20
-28.4336
11
84.4886
21
-28.2837
0
LINE
8
BLACK
6
CONTINUOUS
10
84.4886
20
-28.2837
11
84.6411
21
-28.1611
0
LINE
8
BLACK
6
CONTINUOUS
10
84.6411
20
-28.1611
11
84.8145
21
-28.0705
0
LINE
8
BLACK
6
CONTINUOUS
10
84.8145
20
-28.0705
11
85.0022
21
-28.0153
0
LINE
8
BLACK
6
CONTINUOUS
10
85.0022
20
-28.0153
11
85.197
21
-27.9975
0
LINE
8
BLACK
6
CONTINUOUS
10
85.197
20
-27.9975
11
85.3916
21
-28.018
0
LINE
8
BLACK
6
CONTINUOUS
10
93.7181
20
-28.0648
11
93.7344
21
-28.0756
0
LINE
8
BLACK
6
CONTINUOUS
10
93.7344
20
-28.0756
11
93.7452
21
-28.0919
0
LINE
8
BLACK
6
CONTINUOUS
10
93.7452
20
-28.0919
11
93.749
21
-28.111
0
LINE
8
BLACK
6
CONTINUOUS
10
93.749
20
-28.111
11
93.749
21
-29.889
0
LINE
8
BLACK
6
CONTINUOUS
10
93.749
20
-29.889
11
93.7452
21
-29.9081
0
LINE
8
BLACK
6
CONTINUOUS
10
93.7452
20
-29.9081
11
93.7344
21
-29.9244
0
LINE
8
BLACK
6
CONTINUOUS
10
93.7344
20
-29.9244
11
93.7181
21
-29.9352
0
LINE
8
BLACK
6
CONTINUOUS
10
93.7181
20
-29.9352
11
93.699
21
-29.939
0
LINE
8
BLACK
6
CONTINUOUS
10
93.699
20
-29.939
11
91.921
21
-29.939
0
LINE
8
BLACK
6
CONTINUOUS
10
91.921
20
-29.939
11
91.9019
21
-29.9352
0
LINE
8
BLACK
6
CONTINUOUS
10
91.9019
20
-29.9352
11
91.8856
21
-29.9244
0
LINE
8
BLACK
6
CONTINUOUS
10
91.8856
20
-29.9244
11
91.8748
21
-29.9081
0
LINE
8
BLACK
6
CONTINUOUS
10
91.8748
20
-29.9081
11
91.871
21
-29.889
0
LINE
8
BLACK
6
CONTINUOUS
10
91.871
20
-29.889
11
91.871
21
-28.111
0
LINE
8
BLACK
6
CONTINUOUS
10
91.871
20
-28.111
11
91.8748
21
-28.0919
0
LINE
8
BLACK
6
CONTINUOUS
10
91.8748
20
-28.0919
11
91.8856
21
-28.0756
0
LINE
8
BLACK
6
CONTINUOUS
10
91.8856
20
-28.0756
11
91.9019
21
-28.0648
0
LINE
8
BLACK
6
CONTINUOUS
10
91.9019
20
-28.0648
11
91.921
21
-28.061
0
LINE
8
BLACK
6
CONTINUOUS
10
91.921
20
-28.061
11
93.699
21
-28.061
0
LINE
8
BLACK
6
CONTINUOUS
10
93.699
20
-28.061
11
93.7181
21
-28.0648
0
LINE
8
BLACK
6
CONTINUOUS
10
87.8191
20
-28.3538
11
87.8354
21
-28.3646
0
LINE
8
BLACK
6
CONTINUOUS
10
87.8354
20
-28.3646
11
87.8462
21
-28.3809
0
LINE
8
BLACK
6
CONTINUOUS
10
87.8462
20
-28.3809
11
87.85
21
-28.4
0
LINE
8
BLACK
6
CONTINUOUS
10
87.85
20
-28.4
11
87.85
21
-29.6
0
LINE
8
BLACK
6
CONTINUOUS
10
87.85
20
-29.6
11
87.8462
21
-29.6191
0
LINE
8
BLACK
6
CONTINUOUS
10
87.8462
20
-29.6191
11
87.8354
21
-29.6354
0
LINE
8
BLACK
6
CONTINUOUS
10
87.8354
20
-29.6354
11
87.8191
21
-29.6462
0
LINE
8
BLACK
6
CONTINUOUS
10
87.8191
20
-29.6462
11
87.8
21
-29.65
0
LINE
8
BLACK
6
CONTINUOUS
10
87.8
20
-29.65
11
86.9
21
-29.65
0
LINE
8
BLACK
6
CONTINUOUS
10
86.9
20
-29.65
11
86.8809
21
-29.6462
0
LINE
8
BLACK
6
CONTINUOUS
10
86.8809
20
-29.6462
11
86.8646
21
-29.6354
0
LINE
8
BLACK
6
CONTINUOUS
10
86.8646
20
-29.6354
11
86.8538
21
-29.6191
0
LINE
8
BLACK
6
CONTINUOUS
10
86.8538
20
-29.6191
11
86.85
21
-29.6
0
LINE
8
BLACK
6
CONTINUOUS
10
86.85
20
-29.6
11
86.85
21
-28.4
0
LINE
8
BLACK
6
CONTINUOUS
10
86.85
20
-28.4
11
86.8538
21
-28.3809
0
LINE
8
BLACK
6
CONTINUOUS
10
86.8538
20
-28.3809
11
86.8646
21
-28.3646
0
LINE
8
BLACK
6
CONTINUOUS
10
86.8646
20
-28.3646
11
86.8809
21
-28.3538
0
LINE
8
BLACK
6
CONTINUOUS
10
86.8809
20
-28.3538
11
86.9
21
-28.35
0
LINE
8
BLACK
6
CONTINUOUS
10
86.9
20
-28.35
11
87.8
21
-28.35
0
LINE
8
BLACK
6
CONTINUOUS
10
87.8
20
-28.35
11
87.8191
21
-28.3538
0
LINE
8
BLACK
6
CONTINUOUS
10
91.1191
20
-28.3538
11
91.1354
21
-28.3646
0
LINE
8
BLACK
6
CONTINUOUS
10
91.1354
20
-28.3646
11
91.1462
21
-28.3809
0
LINE
8
BLACK
6
CONTINUOUS
10
91.1462
20
-28.3809
11
91.15
21
-28.4
0
LINE
8
BLACK
6
CONTINUOUS
10
91.15
20
-28.4
11
91.15
21
-29.6
0
LINE
8
BLACK
6
CONTINUOUS
10
91.15
20
-29.6
11
91.1462
21
-29.6191
0
LINE
8
BLACK
6
CONTINUOUS
10
91.1462
20
-29.6191
11
91.1354
21
-29.6354
0
LINE
8
BLACK
6
CONTINUOUS
10
91.1354
20
-29.6354
11
91.1191
21
-29.6462
0
LINE
8
BLACK
6
CONTINUOUS
10
91.1191
20
-29.6462
11
91.1
21
-29.65
0
LINE
8
BLACK
6
CONTINUOUS
10
91.1
20
-29.65
11
90.2
21
-29.65
0
LINE
8
BLACK
6
CONTINUOUS
10
90.2
20
-29.65
11
90.1809
21
-29.6462
0
LINE
8
BLACK
6
CONTINUOUS
10
90.1809
20
-29.6462
11
90.1646
21
-29.6354
0
LINE
8
BLACK
6
CONTINUOUS
10
90.1646
20
-29.6354
11
90.1538
21
-29.6191
0
LINE
8
BLACK
6
CONTINUOUS
10
90.1538
20
-29.6191
11
90.15
21
-29.6
0
LINE
8
BLACK
6
CONTINUOUS
10
90.15
20
-29.6
11
90.15
21
-28.4
0
LINE
8
BLACK
6
CONTINUOUS
10
90.15
20
-28.4
11
90.1538
21
-28.3809
0
LINE
8
BLACK
6
CONTINUOUS
10
90.1538
20
-28.3809
11
90.1646
21
-28.3646
0
LINE
8
BLACK
6
CONTINUOUS
10
90.1646
20
-28.3646
11
90.1809
21
-28.3538
0
LINE
8
BLACK
6
CONTINUOUS
10
90.1809
20
-28.3538
11
90.2
21
-28.35
0
LINE
8
BLACK
6
CONTINUOUS
10
90.2
20
-28.35
11
91.1
21
-28.35
0
LINE
8
BLACK
6
CONTINUOUS
10
91.1
20
-28.35
11
91.1191
21
-28.3538
0
LINE
8
BLACK
6
CONTINUOUS
10
113.241
20
-23.5402
11
114.852
21
-24.2916
0
LINE
8
BLACK
6
CONTINUOUS
10
114.852
20
-24.2916
11
114.868
21
-24.3032
0
LINE
8
BLACK
6
CONTINUOUS
10
114.868
20
-24.3032
11
114.878
21
-24.3198
0
LINE
8
BLACK
6
CONTINUOUS
10
114.878
20
-24.3198
11
114.881
21
-24.3391
0
LINE
8
BLACK
6
CONTINUOUS
10
114.881
20
-24.3391
11
114.876
21
-24.3581
0
LINE
8
BLACK
6
CONTINUOUS
10
114.876
20
-24.3581
11
114.125
21
-25.9695
0
LINE
8
BLACK
6
CONTINUOUS
10
114.125
20
-25.9695
11
114.113
21
-25.9852
0
LINE
8
BLACK
6
CONTINUOUS
10
114.113
20
-25.9852
11
114.097
21
-25.9953
0
LINE
8
BLACK
6
CONTINUOUS
10
114.097
20
-25.9953
11
114.077
21
-25.9983
0
LINE
8
BLACK
6
CONTINUOUS
10
114.077
20
-25.9983
11
114.058
21
-25.9937
0
LINE
8
BLACK
6
CONTINUOUS
10
114.058
20
-25.9937
11
112.447
21
-25.2423
0
LINE
8
BLACK
6
CONTINUOUS
10
112.447
20
-25.2423
11
112.431
21
-25.2307
0
LINE
8
BLACK
6
CONTINUOUS
10
112.431
20
-25.2307
11
112.421
21
-25.214
0
LINE
8
BLACK
6
CONTINUOUS
10
112.421
20
-25.214
11
112.418
21
-25.1948
0
LINE
8
BLACK
6
CONTINUOUS
10
112.418
20
-25.1948
11
112.423
21
-25.1758
0
LINE
8
BLACK
6
CONTINUOUS
10
112.423
20
-25.1758
11
113.174
21
-23.5644
0
LINE
8
BLACK
6
CONTINUOUS
10
113.174
20
-23.5644
11
113.186
21
-23.5487
0
LINE
8
BLACK
6
CONTINUOUS
10
113.186
20
-23.5487
11
113.202
21
-23.5385
0
LINE
8
BLACK
6
CONTINUOUS
10
113.202
20
-23.5385
11
113.222
21
-23.5356
0
LINE
8
BLACK
6
CONTINUOUS
10
113.222
20
-23.5356
11
113.241
21
-23.5402
0
LINE
8
BLACK
6
CONTINUOUS
10
111.559
20
-23.0748
11
112.374
21
-23.4552
0
LINE
8
BLACK
6
CONTINUOUS
10
112.374
20
-23.4552
11
112.39
21
-23.4667
0
LINE
8
BLACK
6
CONTINUOUS
10
112.39
20
-23.4667
11
112.4
21
-23.4834
0
LINE
8
BLACK
6
CONTINUOUS
10
112.4
20
-23.4834
11
112.403
21
-23.5027
0
LINE
8
BLACK
6
CONTINUOUS
10
112.403
20
-23.5027
11
112.399
21
-23.5216
0
LINE
8
BLACK
6
CONTINUOUS
10
112.399
20
-23.5216
11
111.891
21
-24.6092
0
LINE
8
BLACK
6
CONTINUOUS
10
111.891
20
-24.6092
11
111.88
21
-24.6249
0
LINE
8
BLACK
6
CONTINUOUS
10
111.88
20
-24.6249
11
111.863
21
-24.635
0
LINE
8
BLACK
6
CONTINUOUS
10
111.863
20
-24.635
11
111.844
21
-24.638
0
LINE
8
BLACK
6
CONTINUOUS
10
111.844
20
-24.638
11
111.825
21
-24.6334
0
LINE
8
BLACK
6
CONTINUOUS
10
111.825
20
-24.6334
11
111.009
21
-24.253
0
LINE
8
BLACK
6
CONTINUOUS
10
111.009
20
-24.253
11
110.994
21
-24.2415
0
LINE
8
BLACK
6
CONTINUOUS
10
110.994
20
-24.2415
11
110.983
21
-24.2248
0
LINE
8
BLACK
6
CONTINUOUS
10
110.983
20
-24.2248
11
110.98
21
-24.2055
0
LINE
8
BLACK
6
CONTINUOUS
10
110.98
20
-24.2055
11
110.985
21
-24.1866
0
LINE
8
BLACK
6
CONTINUOUS
10
110.985
20
-24.1866
11
111.492
21
-23.099
0
LINE
8
BLACK
6
CONTINUOUS
10
111.492
20
-23.099
11
111.504
21
-23.0833
0
LINE
8
BLACK
6
CONTINUOUS
10
111.504
20
-23.0833
11
111.52
21
-23.0731
0
LINE
8
BLACK
6
CONTINUOUS
10
111.52
20
-23.0731
11
111.54
21
-23.0702
0
LINE
8
BLACK
6
CONTINUOUS
10
111.54
20
-23.0702
11
111.559
21
-23.0748
0
LINE
8
BLACK
6
CONTINUOUS
10
108.568
20
-21.6802
11
109.384
21
-22.0605
0
LINE
8
BLACK
6
CONTINUOUS
10
109.384
20
-22.0605
11
109.399
21
-22.0721
0
LINE
8
BLACK
6
CONTINUOUS
10
109.399
20
-22.0721
11
109.409
21
-22.0887
0
LINE
8
BLACK
6
CONTINUOUS
10
109.409
20
-22.0887
11
109.412
21
-22.108
0
LINE
8
BLACK
6
CONTINUOUS
10
109.412
20
-22.108
11
109.408
21
-22.127
0
LINE
8
BLACK
6
CONTINUOUS
10
109.408
20
-22.127
11
108.901
21
-23.2145
0
LINE
8
BLACK
6
CONTINUOUS
10
108.901
20
-23.2145
11
108.889
21
-23.2303
0
LINE
8
BLACK
6
CONTINUOUS
10
108.889
20
-23.2303
11
108.872
21
-23.2404
0
LINE
8
BLACK
6
CONTINUOUS
10
108.872
20
-23.2404
11
108.853
21
-23.2434
0
LINE
8
BLACK
6
CONTINUOUS
10
108.853
20
-23.2434
11
108.834
21
-23.2387
0
LINE
8
BLACK
6
CONTINUOUS
10
108.834
20
-23.2387
11
108.018
21
-22.8584
0
LINE
8
BLACK
6
CONTINUOUS
10
108.018
20
-22.8584
11
108.003
21
-22.8468
0
LINE
8
BLACK
6
CONTINUOUS
10
108.003
20
-22.8468
11
107.993
21
-22.8302
0
LINE
8
BLACK
6
CONTINUOUS
10
107.993
20
-22.8302
11
107.99
21
-22.8109
0
LINE
8
BLACK
6
CONTINUOUS
10
107.99
20
-22.8109
11
107.994
21
-22.7919
0
LINE
8
BLACK
6
CONTINUOUS
10
107.994
20
-22.7919
11
108.501
21
-21.7044
0
LINE
8
BLACK
6
CONTINUOUS
10
108.501
20
-21.7044
11
108.513
21
-21.6886
0
LINE
8
BLACK
6
CONTINUOUS
10
108.513
20
-21.6886
11
108.53
21
-21.6785
0
LINE
8
BLACK
6
CONTINUOUS
10
108.53
20
-21.6785
11
108.549
21
-21.6755
0
LINE
8
BLACK
6
CONTINUOUS
10
108.549
20
-21.6755
11
108.568
21
-21.6802
0
LINE
8
BLACK
6
CONTINUOUS
10
66.3916
20
-21.018
11
66.5785
21
-21.0758
0
LINE
8
BLACK
6
CONTINUOUS
10
66.5785
20
-21.0758
11
66.7506
21
-21.1689
0
LINE
8
BLACK
6
CONTINUOUS
10
66.7506
20
-21.1689
11
66.9013
21
-21.2936
0
LINE
8
BLACK
6
CONTINUOUS
10
66.9013
20
-21.2936
11
67.025
21
-21.4452
0
LINE
8
BLACK
6
CONTINUOUS
10
67.025
20
-21.4452
11
67.1169
21
-21.618
0
LINE
8
BLACK
6
CONTINUOUS
10
67.1169
20
-21.618
11
67.1734
21
-21.8053
0
LINE
8
BLACK
6
CONTINUOUS
10
67.1734
20
-21.8053
11
67.1925
21
-22
0
LINE
8
BLACK
6
CONTINUOUS
10
67.1925
20
-22
11
67.1921
21
-22.028
0
LINE
8
BLACK
6
CONTINUOUS
10
67.1921
20
-22.028
11
67.1676
21
-22.2221
0
LINE
8
BLACK
6
CONTINUOUS
10
67.1676
20
-22.2221
11
67.1058
21
-22.4078
0
LINE
8
BLACK
6
CONTINUOUS
10
67.1058
20
-22.4078
11
67.0092
21
-22.5779
0
LINE
8
BLACK
6
CONTINUOUS
10
67.0092
20
-22.5779
11
66.8813
21
-22.726
0
LINE
8
BLACK
6
CONTINUOUS
10
66.8813
20
-22.726
11
66.7272
21
-22.8464
0
LINE
8
BLACK
6
CONTINUOUS
10
66.7272
20
-22.8464
11
66.5525
21
-22.9347
0
LINE
8
BLACK
6
CONTINUOUS
10
66.5525
20
-22.9347
11
66.3641
21
-22.9873
0
LINE
8
BLACK
6
CONTINUOUS
10
66.3641
20
-22.9873
11
66.169
21
-23.0023
0
LINE
8
BLACK
6
CONTINUOUS
10
66.169
20
-23.0023
11
65.9747
21
-22.9791
0
LINE
8
BLACK
6
CONTINUOUS
10
65.9747
20
-22.9791
11
65.7887
21
-22.9187
0
LINE
8
BLACK
6
CONTINUOUS
10
65.7887
20
-22.9187
11
65.6179
21
-22.8232
0
LINE
8
BLACK
6
CONTINUOUS
10
65.6179
20
-22.8232
11
65.4689
21
-22.6964
0
LINE
8
BLACK
6
CONTINUOUS
10
65.4689
20
-22.6964
11
65.3473
21
-22.5431
0
LINE
8
BLACK
6
CONTINUOUS
10
65.3473
20
-22.5431
11
65.2579
21
-22.369
0
LINE
8
BLACK
6
CONTINUOUS
10
65.2579
20
-22.369
11
65.204
21
-22.181
0
LINE
8
BLACK
6
CONTINUOUS
10
65.204
20
-22.181
11
65.1876
21
-21.986
0
LINE
8
BLACK
6
CONTINUOUS
10
65.1876
20
-21.986
11
65.2094
21
-21.7916
0
LINE
8
BLACK
6
CONTINUOUS
10
65.2094
20
-21.7916
11
65.2686
21
-21.6051
0
LINE
8
BLACK
6
CONTINUOUS
10
65.2686
20
-21.6051
11
65.3628
21
-21.4336
0
LINE
8
BLACK
6
CONTINUOUS
10
65.3628
20
-21.4336
11
65.4886
21
-21.2837
0
LINE
8
BLACK
6
CONTINUOUS
10
65.4886
20
-21.2837
11
65.6411
21
-21.1611
0
LINE
8
BLACK
6
CONTINUOUS
10
65.6411
20
-21.1611
11
65.8145
21
-21.0705
0
LINE
8
BLACK
6
CONTINUOUS
10
65.8145
20
-21.0705
11
66.0022
21
-21.0153
0
LINE
8
BLACK
6
CONTINUOUS
10
66.0022
20
-21.0153
11
66.197
21
-20.9975
0
LINE
8
BLACK
6
CONTINUOUS
10
66.197
20
-20.9975
11
66.3916
21
-21.018
0
LINE
8
BLACK
6
CONTINUOUS
10
47.3916
20
-21.018
11
47.5785
21
-21.0758
0
LINE
8
BLACK
6
CONTINUOUS
10
47.5785
20
-21.0758
11
47.7506
21
-21.1689
0
LINE
8
BLACK
6
CONTINUOUS
10
47.7506
20
-21.1689
11
47.9013
21
-21.2936
0
LINE
8
BLACK
6
CONTINUOUS
10
47.9013
20
-21.2936
11
48.025
21
-21.4452
0
LINE
8
BLACK
6
CONTINUOUS
10
48.025
20
-21.4452
11
48.1169
21
-21.618
0
LINE
8
BLACK
6
CONTINUOUS
10
48.1169
20
-21.618
11
48.1734
21
-21.8053
0
LINE
8
BLACK
6
CONTINUOUS
10
48.1734
20
-21.8053
11
48.1925
21
-22
0
LINE
8
BLACK
6
CONTINUOUS
10
48.1925
20
-22
11
48.1921
21
-22.028
0
LINE
8
BLACK
6
CONTINUOUS
10
48.1921
20
-22.028
11
48.1676
21
-22.2221
0
LINE
8
BLACK
6
CONTINUOUS
10
48.1676
20
-22.2221
11
48.1058
21
-22.4078
0
LINE
8
BLACK
6
CONTINUOUS
10
48.1058
20
-22.4078
11
48.0092
21
-22.5779
0
LINE
8
BLACK
6
CONTINUOUS
10
48.0092
20
-22.5779
11
47.8813
21
-22.726
0
LINE
8
BLACK
6
CONTINUOUS
10
47.8813
20
-22.726
11
47.7272
21
-22.8464
0
LINE
8
BLACK
6
CONTINUOUS
10
47.7272
20
-22.8464
11
47.5525
21
-22.9347
0
LINE
8
BLACK
6
CONTINUOUS
10
47.5525
20
-22.9347
11
47.3641
21
-22.9873
0
LINE
8
BLACK
6
CONTINUOUS
10
47.3641
20
-22.9873
11
47.169
21
-23.0023
0
LINE
8
BLACK
6
CONTINUOUS
10
47.169
20
-23.0023
11
46.9747
21
-22.9791
0
LINE
8
BLACK
6
CONTINUOUS
10
46.9747
20
-22.9791
11
46.7886
21
-22.9187
0
LINE
8
BLACK
6
CONTINUOUS
10
46.7886
20
-22.9187
11
46.6179
21
-22.8232
0
LINE
8
BLACK
6
CONTINUOUS
10
46.6179
20
-22.8232
11
46.4689
21
-22.6964
0
LINE
8
BLACK
6
CONTINUOUS
10
46.4689
20
-22.6964
11
46.3473
21
-22.5431
0
LINE
8
BLACK
6
CONTINUOUS
10
46.3473
20
-22.5431
11
46.2579
21
-22.369
0
LINE
8
BLACK
6
CONTINUOUS
10
46.2579
20
-22.369
11
46.204
21
-22.181
0
LINE
8
BLACK
6
CONTINUOUS
10
46.204
20
-22.181
11
46.1876
21
-21.986
0
LINE
8
BLACK
6
CONTINUOUS
10
46.1876
20
-21.986
11
46.2094
21
-21.7916
0
LINE
8
BLACK
6
CONTINUOUS
10
46.2094
20
-21.7916
11
46.2686
21
-21.6051
0
LINE
8
BLACK
6
CONTINUOUS
10
46.2686
20
-21.6051
11
46.3628
21
-21.4336
0
LINE
8
BLACK
6
CONTINUOUS
10
46.3628
20
-21.4336
11
46.4886
21
-21.2837
0
LINE
8
BLACK
6
CONTINUOUS
10
46.4886
20
-21.2837
11
46.6411
21
-21.1611
0
LINE
8
BLACK
6
CONTINUOUS
10
46.6411
20
-21.1611
11
46.8145
21
-21.0705
0
LINE
8
BLACK
6
CONTINUOUS
10
46.8145
20
-21.0705
11
47.0022
21
-21.0153
0
LINE
8
BLACK
6
CONTINUOUS
10
47.0022
20
-21.0153
11
47.197
21
-20.9975
0
LINE
8
BLACK
6
CONTINUOUS
10
47.197
20
-20.9975
11
47.3916
21
-21.018
0
LINE
8
BLACK
6
CONTINUOUS
10
74.7181
20
-21.0648
11
74.7344
21
-21.0756
0
LINE
8
BLACK
6
CONTINUOUS
10
74.7344
20
-21.0756
11
74.7452
21
-21.0919
0
LINE
8
BLACK
6
CONTINUOUS
10
74.7452
20
-21.0919
11
74.749
21
-21.111
0
LINE
8
BLACK
6
CONTINUOUS
10
74.749
20
-21.111
11
74.749
21
-22.889
0
LINE
8
BLACK
6
CONTINUOUS
10
74.749
20
-22.889
11
74.7452
21
-22.9081
0
LINE
8
BLACK
6
CONTINUOUS
10
74.7452
20
-22.9081
11
74.7344
21
-22.9244
0
LINE
8
BLACK
6
CONTINUOUS
10
74.7344
20
-22.9244
11
74.7181
21
-22.9352
0
LINE
8
BLACK
6
CONTINUOUS
10
74.7181
20
-22.9352
11
74.699
21
-22.939
0
LINE
8
BLACK
6
CONTINUOUS
10
74.699
20
-22.939
11
72.921
21
-22.939
0
LINE
8
BLACK
6
CONTINUOUS
10
72.921
20
-22.939
11
72.9019
21
-22.9352
0
LINE
8
BLACK
6
CONTINUOUS
10
72.9019
20
-22.9352
11
72.8856
21
-22.9244
0
LINE
8
BLACK
6
CONTINUOUS
10
72.8856
20
-22.9244
11
72.8748
21
-22.9081
0
LINE
8
BLACK
6
CONTINUOUS
10
72.8748
20
-22.9081
11
72.871
21
-22.889
0
LINE
8
BLACK
6
CONTINUOUS
10
72.871
20
-22.889
11
72.871
21
-21.111
0
LINE
8
BLACK
6
CONTINUOUS
10
72.871
20
-21.111
11
72.8748
21
-21.0919
0
LINE
8
BLACK
6
CONTINUOUS
10
72.8748
20
-21.0919
11
72.8856
21
-21.0756
0
LINE
8
BLACK
6
CONTINUOUS
10
72.8856
20
-21.0756
11
72.9019
21
-21.0648
0
LINE
8
BLACK
6
CONTINUOUS
10
72.9019
20
-21.0648
11
72.921
21
-21.061
0
LINE
8
BLACK
6
CONTINUOUS
10
72.921
20
-21.061
11
74.699
21
-21.061
0
LINE
8
BLACK
6
CONTINUOUS
10
74.699
20
-21.061
11
74.7181
21
-21.0648
0
LINE
8
BLACK
6
CONTINUOUS
10
55.7181
20
-21.0648
11
55.7344
21
-21.0756
0
LINE
8
BLACK
6
CONTINUOUS
10
55.7344
20
-21.0756
11
55.7452
21
-21.0919
0
LINE
8
BLACK
6
CONTINUOUS
10
55.7452
20
-21.0919
11
55.749
21
-21.111
0
LINE
8
BLACK
6
CONTINUOUS
10
55.749
20
-21.111
11
55.749
21
-22.889
0
LINE
8
BLACK
6
CONTINUOUS
10
55.749
20
-22.889
11
55.7452
21
-22.9081
0
LINE
8
BLACK
6
CONTINUOUS
10
55.7452
20
-22.9081
11
55.7344
21
-22.9244
0
LINE
8
BLACK
6
CONTINUOUS
10
55.7344
20
-22.9244
11
55.7181
21
-22.9352
0
LINE
8
BLACK
6
CONTINUOUS
10
55.7181
20
-22.9352
11
55.699
21
-22.939
0
LINE
8
BLACK
6
CONTINUOUS
10
55.699
20
-22.939
11
53.921
21
-22.939
0
LINE
8
BLACK
6
CONTINUOUS
10
53.921
20
-22.939
11
53.9019
21
-22.9352
0
LINE
8
BLACK
6
CONTINUOUS
10
53.9019
20
-22.9352
11
53.8856
21
-22.9244
0
LINE
8
BLACK
6
CONTINUOUS
10
53.8856
20
-22.9244
11
53.8748
21
-22.9081
0
LINE
8
BLACK
6
CONTINUOUS
10
53.8748
20
-22.9081
11
53.871
21
-22.889
0
LINE
8
BLACK
6
CONTINUOUS
10
53.871
20
-22.889
11
53.871
21
-21.111
0
LINE
8
BLACK
6
CONTINUOUS
10
53.871
20
-21.111
11
53.8748
21
-21.0919
0
LINE
8
BLACK
6
CONTINUOUS
10
53.8748
20
-21.0919
11
53.8856
21
-21.0756
0
LINE
8
BLACK
6
CONTINUOUS
10
53.8856
20
-21.0756
11
53.9019
21
-21.0648
0
LINE
8
BLACK
6
CONTINUOUS
10
53.9019
20
-21.0648
11
53.921
21
-21.061
0
LINE
8
BLACK
6
CONTINUOUS
10
53.921
20
-21.061
11
55.699
21
-21.061
0
LINE
8
BLACK
6
CONTINUOUS
10
55.699
20
-21.061
11
55.7181
21
-21.0648
0
LINE
8
BLACK
6
CONTINUOUS
10
72.1191
20
-21.3538
11
72.1354
21
-21.3646
0
LINE
8
BLACK
6
CONTINUOUS
10
72.1354
20
-21.3646
11
72.1462
21
-21.3809
0
LINE
8
BLACK
6
CONTINUOUS
10
72.1462
20
-21.3809
11
72.15
21
-21.4
0
LINE
8
BLACK
6
CONTINUOUS
10
72.15
20
-21.4
11
72.15
21
-22.6
0
LINE
8
BLACK
6
CONTINUOUS
10
72.15
20
-22.6
11
72.1462
21
-22.6191
0
LINE
8
BLACK
6
CONTINUOUS
10
72.1462
20
-22.6191
11
72.1354
21
-22.6354
0
LINE
8
BLACK
6
CONTINUOUS
10
72.1354
20
-22.6354
11
72.1191
21
-22.6462
0
LINE
8
BLACK
6
CONTINUOUS
10
72.1191
20
-22.6462
11
72.1
21
-22.65
0
LINE
8
BLACK
6
CONTINUOUS
10
72.1
20
-22.65
11
71.2
21
-22.65
0
LINE
8
BLACK
6
CONTINUOUS
10
71.2
20
-22.65
11
71.1809
21
-22.6462
0
LINE
8
BLACK
6
CONTINUOUS
10
71.1809
20
-22.6462
11
71.1646
21
-22.6354
0
LINE
8
BLACK
6
CONTINUOUS
10
71.1646
20
-22.6354
11
71.1538
21
-22.6191
0
LINE
8
BLACK
6
CONTINUOUS
10
71.1538
20
-22.6191
11
71.15
21
-22.6
0
LINE
8
BLACK
6
CONTINUOUS
10
71.15
20
-22.6
11
71.15
21
-21.4
0
LINE
8
BLACK
6
CONTINUOUS
10
71.15
20
-21.4
11
71.1538
21
-21.3809
0
LINE
8
BLACK
6
CONTINUOUS
10
71.1538
20
-21.3809
11
71.1646
21
-21.3646
0
LINE
8
BLACK
6
CONTINUOUS
10
71.1646
20
-21.3646
11
71.1809
21
-21.3538
0
LINE
8
BLACK
6
CONTINUOUS
10
71.1809
20
-21.3538
11
71.2
21
-21.35
0
LINE
8
BLACK
6
CONTINUOUS
10
71.2
20
-21.35
11
72.1
21
-21.35
0
LINE
8
BLACK
6
CONTINUOUS
10
72.1
20
-21.35
11
72.1191
21
-21.3538
0
LINE
8
BLACK
6
CONTINUOUS
10
68.8191
20
-21.3538
11
68.8354
21
-21.3646
0
LINE
8
BLACK
6
CONTINUOUS
10
68.8354
20
-21.3646
11
68.8462
21
-21.3809
0
LINE
8
BLACK
6
CONTINUOUS
10
68.8462
20
-21.3809
11
68.85
21
-21.4
0
LINE
8
BLACK
6
CONTINUOUS
10
68.85
20
-21.4
11
68.85
21
-22.6
0
LINE
8
BLACK
6
CONTINUOUS
10
68.85
20
-22.6
11
68.8462
21
-22.6191
0
LINE
8
BLACK
6
CONTINUOUS
10
68.8462
20
-22.6191
11
68.8354
21
-22.6354
0
LINE
8
BLACK
6
CONTINUOUS
10
68.8354
20
-22.6354
11
68.8191
21
-22.6462
0
LINE
8
BLACK
6
CONTINUOUS
10
68.8191
20
-22.6462
11
68.8
21
-22.65
0
LINE
8
BLACK
6
CONTINUOUS
10
68.8
20
-22.65
11
67.9
21
-22.65
0
LINE
8
BLACK
6
CONTINUOUS
10
67.9
20
-22.65
11
67.8809
21
-22.6462
0
LINE
8
BLACK
6
CONTINUOUS
10
67.8809
20
-22.6462
11
67.8646
21
-22.6354
0
LINE
8
BLACK
6
CONTINUOUS
10
67.8646
20
-22.6354
11
67.8538
21
-22.6191
0
LINE
8
BLACK
6
CONTINUOUS
10
67.8538
20
-22.6191
11
67.85
21
-22.6
0
LINE
8
BLACK
6
CONTINUOUS
10
67.85
20
-22.6
11
67.85
21
-21.4
0
LINE
8
BLACK
6
CONTINUOUS
10
67.85
20
-21.4
11
67.8538
21
-21.3809
0
LINE
8
BLACK
6
CONTINUOUS
10
67.8538
20
-21.3809
11
67.8646
21
-21.3646
0
LINE
8
BLACK
6
CONTINUOUS
10
67.8646
20
-21.3646
11
67.8809
21
-21.3538
0
LINE
8
BLACK
6
CONTINUOUS
10
67.8809
20
-21.3538
11
67.9
21
-21.35
0
LINE
8
BLACK
6
CONTINUOUS
10
67.9
20
-21.35
11
68.8
21
-21.35
0
LINE
8
BLACK
6
CONTINUOUS
10
68.8
20
-21.35
11
68.8191
21
-21.3538
0
LINE
8
BLACK
6
CONTINUOUS
10
53.1191
20
-21.3538
11
53.1354
21
-21.3646
0
LINE
8
BLACK
6
CONTINUOUS
10
53.1354
20
-21.3646
11
53.1462
21
-21.3809
0
LINE
8
BLACK
6
CONTINUOUS
10
53.1462
20
-21.3809
11
53.15
21
-21.4
0
LINE
8
BLACK
6
CONTINUOUS
10
53.15
20
-21.4
11
53.15
21
-22.6
0
LINE
8
BLACK
6
CONTINUOUS
10
53.15
20
-22.6
11
53.1462
21
-22.6191
0
LINE
8
BLACK
6
CONTINUOUS
10
53.1462
20
-22.6191
11
53.1354
21
-22.6354
0
LINE
8
BLACK
6
CONTINUOUS
10
53.1354
20
-22.6354
11
53.1191
21
-22.6462
0
LINE
8
BLACK
6
CONTINUOUS
10
53.1191
20
-22.6462
11
53.1
21
-22.65
0
LINE
8
BLACK
6
CONTINUOUS
10
53.1
20
-22.65
11
52.2
21
-22.65
0
LINE
8
BLACK
6
CONTINUOUS
10
52.2
20
-22.65
11
52.1809
21
-22.6462
0
LINE
8
BLACK
6
CONTINUOUS
10
52.1809
20
-22.6462
11
52.1646
21
-22.6354
0
LINE
8
BLACK
6
CONTINUOUS
10
52.1646
20
-22.6354
11
52.1538
21
-22.6191
0
LINE
8
BLACK
6
CONTINUOUS
10
52.1538
20
-22.6191
11
52.15
21
-22.6
0
LINE
8
BLACK
6
CONTINUOUS
10
52.15
20
-22.6
11
52.15
21
-21.4
0
LINE
8
BLACK
6
CONTINUOUS
10
52.15
20
-21.4
11
52.1538
21
-21.3809
0
LINE
8
BLACK
6
CONTINUOUS
10
52.1538
20
-21.3809
11
52.1646
21
-21.3646
0
LINE
8
BLACK
6
CONTINUOUS
10
52.1646
20
-21.3646
11
52.1809
21
-21.3538
0
LINE
8
BLACK
6
CONTINUOUS
10
52.1809
20
-21.3538
11
52.2
21
-21.35
0
LINE
8
BLACK
6
CONTINUOUS
10
52.2
20
-21.35
11
53.1
21
-21.35
0
LINE
8
BLACK
6
CONTINUOUS
10
53.1
20
-21.35
11
53.1191
21
-21.3538
0
LINE
8
BLACK
6
CONTINUOUS
10
49.8191
20
-21.3538
11
49.8354
21
-21.3646
0
LINE
8
BLACK
6
CONTINUOUS
10
49.8354
20
-21.3646
11
49.8462
21
-21.3809
0
LINE
8
BLACK
6
CONTINUOUS
10
49.8462
20
-21.3809
11
49.85
21
-21.4
0
LINE
8
BLACK
6
CONTINUOUS
10
49.85
20
-21.4
11
49.85
21
-22.6
0
LINE
8
BLACK
6
CONTINUOUS
10
49.85
20
-22.6
11
49.8462
21
-22.6191
0
LINE
8
BLACK
6
CONTINUOUS
10
49.8462
20
-22.6191
11
49.8354
21
-22.6354
0
LINE
8
BLACK
6
CONTINUOUS
10
49.8354
20
-22.6354
11
49.8191
21
-22.6462
0
LINE
8
BLACK
6
CONTINUOUS
10
49.8191
20
-22.6462
11
49.8
21
-22.65
0
LINE
8
BLACK
6
CONTINUOUS
10
49.8
20
-22.65
11
48.9
21
-22.65
0
LINE
8
BLACK
6
CONTINUOUS
10
48.9
20
-22.65
11
48.8809
21
-22.6462
0
LINE
8
BLACK
6
CONTINUOUS
10
48.8809
20
-22.6462
11
48.8646
21
-22.6354
0
LINE
8
BLACK
6
CONTINUOUS
10
48.8646
20
-22.6354
11
48.8538
21
-22.6191
0
LINE
8
BLACK
6
CONTINUOUS
10
48.8538
20
-22.6191
11
48.85
21
-22.6
0
LINE
8
BLACK
6
CONTINUOUS
10
48.85
20
-22.6
11
48.85
21
-21.4
0
LINE
8
BLACK
6
CONTINUOUS
10
48.85
20
-21.4
11
48.8538
21
-21.3809
0
LINE
8
BLACK
6
CONTINUOUS
10
48.8538
20
-21.3809
11
48.8646
21
-21.3646
0
LINE
8
BLACK
6
CONTINUOUS
10
48.8646
20
-21.3646
11
48.8809
21
-21.3538
0
LINE
8
BLACK
6
CONTINUOUS
10
48.8809
20
-21.3538
11
48.9
21
-21.35
0
LINE
8
BLACK
6
CONTINUOUS
10
48.9
20
-21.35
11
49.8
21
-21.35
0
LINE
8
BLACK
6
CONTINUOUS
10
49.8
20
-21.35
11
49.8191
21
-21.3538
0
LINE
8
BLACK
6
CONTINUOUS
10
106.945
20
-20.5646
11
107.132
21
-20.6224
0
LINE
8
BLACK
6
CONTINUOUS
10
107.132
20
-20.6224
11
107.304
21
-20.7155
0
LINE
8
BLACK
6
CONTINUOUS
10
107.304
20
-20.7155
11
107.455
21
-20.8402
0
LINE
8
BLACK
6
CONTINUOUS
10
107.455
20
-20.8402
11
107.578
21
-20.9918
0
LINE
8
BLACK
6
CONTINUOUS
10
107.578
20
-20.9918
11
107.67
21
-21.1646
0
LINE
8
BLACK
6
CONTINUOUS
10
107.67
20
-21.1646
11
107.727
21
-21.3519
0
LINE
8
BLACK
6
CONTINUOUS
10
107.727
20
-21.3519
11
107.746
21
-21.5466
0
LINE
8
BLACK
6
CONTINUOUS
10
107.746
20
-21.5466
11
107.746
21
-21.5746
0
LINE
8
BLACK
6
CONTINUOUS
10
107.746
20
-21.5746
11
107.721
21
-21.7687
0
LINE
8
BLACK
6
CONTINUOUS
10
107.721
20
-21.7687
11
107.659
21
-21.9543
0
LINE
8
BLACK
6
CONTINUOUS
10
107.659
20
-21.9543
11
107.563
21
-22.1245
0
LINE
8
BLACK
6
CONTINUOUS
10
107.563
20
-22.1245
11
107.435
21
-22.2726
0
LINE
8
BLACK
6
CONTINUOUS
10
107.435
20
-22.2726
11
107.281
21
-22.393
0
LINE
8
BLACK
6
CONTINUOUS
10
107.281
20
-22.393
11
107.106
21
-22.4812
0
LINE
8
BLACK
6
CONTINUOUS
10
107.106
20
-22.4812
11
106.917
21
-22.5339
0
LINE
8
BLACK
6
CONTINUOUS
10
106.917
20
-22.5339
11
106.722
21
-22.5489
0
LINE
8
BLACK
6
CONTINUOUS
10
106.722
20
-22.5489
11
106.528
21
-22.5257
0
LINE
8
BLACK
6
CONTINUOUS
10
106.528
20
-22.5257
11
106.342
21
-22.4652
0
LINE
8
BLACK
6
CONTINUOUS
10
106.342
20
-22.4652
11
106.171
21
-22.3698
0
LINE
8
BLACK
6
CONTINUOUS
10
106.171
20
-22.3698
11
106.022
21
-22.243
0
LINE
8
BLACK
6
CONTINUOUS
10
106.022
20
-22.243
11
105.901
21
-22.0897
0
LINE
8
BLACK
6
CONTINUOUS
10
105.901
20
-22.0897
11
105.811
21
-21.9156
0
LINE
8
BLACK
6
CONTINUOUS
10
105.811
20
-21.9156
11
105.757
21
-21.7276
0
LINE
8
BLACK
6
CONTINUOUS
10
105.757
20
-21.7276
11
105.741
21
-21.5326
0
LINE
8
BLACK
6
CONTINUOUS
10
105.741
20
-21.5326
11
105.763
21
-21.3382
0
LINE
8
BLACK
6
CONTINUOUS
10
105.763
20
-21.3382
11
105.822
21
-21.1517
0
LINE
8
BLACK
6
CONTINUOUS
10
105.822
20
-21.1517
11
105.916
21
-20.9802
0
LINE
8
BLACK
6
CONTINUOUS
10
105.916
20
-20.9802
11
106.042
21
-20.8303
0
LINE
8
BLACK
6
CONTINUOUS
10
106.042
20
-20.8303
11
106.194
21
-20.7077
0
LINE
8
BLACK
6
CONTINUOUS
10
106.194
20
-20.7077
11
106.368
21
-20.6171
0
LINE
8
BLACK
6
CONTINUOUS
10
106.368
20
-20.6171
11
106.556
21
-20.5619
0
LINE
8
BLACK
6
CONTINUOUS
10
106.556
20
-20.5619
11
106.75
21
-20.5441
0
LINE
8
BLACK
6
CONTINUOUS
10
106.75
20
-20.5441
11
106.945
21
-20.5646
0
LINE
8
BLACK
6
CONTINUOUS
10
-3.60842
20
-8.01798
11
-3.42152
21
-8.07583
0
LINE
8
BLACK
6
CONTINUOUS
10
-3.42152
20
-8.07583
11
-3.24941
21
-8.16889
0
LINE
8
BLACK
6
CONTINUOUS
10
-3.24941
20
-8.16889
11
-3.09865
21
-8.2936
0
LINE
8
BLACK
6
CONTINUOUS
10
-3.09865
20
-8.2936
11
-2.975
21
-8.44522
0
LINE
8
BLACK
6
CONTINUOUS
10
-2.975
20
-8.44522
11
-2.88314
21
-8.61798
0
LINE
8
BLACK
6
CONTINUOUS
10
-2.88314
20
-8.61798
11
-2.82659
21
-8.80528
0
LINE
8
BLACK
6
CONTINUOUS
10
-2.82659
20
-8.80528
11
-2.8075
21
-9
0
LINE
8
BLACK
6
CONTINUOUS
10
-2.8075
20
-9
11
-2.80789
21
-9.02799
0
LINE
8
BLACK
6
CONTINUOUS
10
-2.80789
20
-9.02799
11
-2.83241
21
-9.2221
0
LINE
8
BLACK
6
CONTINUOUS
10
-2.83241
20
-9.2221
11
-2.89417
21
-9.40775
0
LINE
8
BLACK
6
CONTINUOUS
10
-2.89417
20
-9.40775
11
-2.99081
21
-9.57787
0
LINE
8
BLACK
6
CONTINUOUS
10
-2.99081
20
-9.57787
11
-3.11866
21
-9.72598
0
LINE
8
BLACK
6
CONTINUOUS
10
-3.11866
20
-9.72598
11
-3.27283
21
-9.84644
0
LINE
8
BLACK
6
CONTINUOUS
10
-3.27283
20
-9.84644
11
-3.44747
21
-9.93465
0
LINE
8
BLACK
6
CONTINUOUS
10
-3.44747
20
-9.93465
11
-3.63592
21
-9.98727
0
LINE
8
BLACK
6
CONTINUOUS
10
-3.63592
20
-9.98727
11
-3.83099
21
-10.0023
0
LINE
8
BLACK
6
CONTINUOUS
10
-3.83099
20
-10.0023
11
-4.02527
21
-9.97911
0
LINE
8
BLACK
6
CONTINUOUS
10
-4.02527
20
-9.97911
11
-4.21135
21
-9.91865
0
LINE
8
BLACK
6
CONTINUOUS
10
-4.21135
20
-9.91865
11
-4.38214
21
-9.8232
0
LINE
8
BLACK
6
CONTINUOUS
10
-4.38214
20
-9.8232
11
-4.53114
21
-9.69639
0
LINE
8
BLACK
6
CONTINUOUS
10
-4.53114
20
-9.69639
11
-4.65267
21
-9.54306
0
LINE
8
BLACK
6
CONTINUOUS
10
-4.65267
20
-9.54306
11
-4.7421
21
-9.36904
0
LINE
8
BLACK
6
CONTINUOUS
10
-4.7421
20
-9.36904
11
-4.79603
21
-9.18097
0
LINE
8
BLACK
6
CONTINUOUS
10
-4.79603
20
-9.18097
11
-4.8124
21
-8.986
0
LINE
8
BLACK
6
CONTINUOUS
10
-4.8124
20
-8.986
11
-4.79059
21
-8.79157
0
LINE
8
BLACK
6
CONTINUOUS
10
-4.79059
20
-8.79157
11
-4.73143
21
-8.60507
0
LINE
8
BLACK
6
CONTINUOUS
10
-4.73143
20
-8.60507
11
-4.63718
21
-8.43362
0
LINE
8
BLACK
6
CONTINUOUS
10
-4.63718
20
-8.43362
11
-4.51141
21
-8.28374
0
LINE
8
BLACK
6
CONTINUOUS
10
-4.51141
20
-8.28374
11
-4.35893
21
-8.16114
0
LINE
8
BLACK
6
CONTINUOUS
10
-4.35893
20
-8.16114
11
-4.18554
21
-8.0705
0
LINE
8
BLACK
6
CONTINUOUS
10
-4.18554
20
-8.0705
11
-3.99785
21
-8.01526
0
LINE
8
BLACK
6
CONTINUOUS
10
-3.99785
20
-8.01526
11
-3.803
21
-7.99752
0
LINE
8
BLACK
6
CONTINUOUS
10
-3.803
20
-7.99752
11
-3.60842
21
-8.01798
0
LINE
8
BLACK
6
CONTINUOUS
10
91.3916
20
-8.01798
11
91.5785
21
-8.07583
0
LINE
8
BLACK
6
CONTINUOUS
10
91.5785
20
-8.07583
11
91.7506
21
-8.16889
0
LINE
8
BLACK
6
CONTINUOUS
10
91.7506
20
-8.16889
11
91.9013
21
-8.2936
0
LINE
8
BLACK
6
CONTINUOUS
10
91.9013
20
-8.2936
11
92.025
21
-8.44522
0
LINE
8
BLACK
6
CONTINUOUS
10
92.025
20
-8.44522
11
92.1169
21
-8.61798
0
LINE
8
BLACK
6
CONTINUOUS
10
92.1169
20
-8.61798
11
92.1734
21
-8.80528
0
LINE
8
BLACK
6
CONTINUOUS
10
92.1734
20
-8.80528
11
92.1925
21
-9
0
LINE
8
BLACK
6
CONTINUOUS
10
92.1925
20
-9
11
92.1921
21
-9.02799
0
LINE
8
BLACK
6
CONTINUOUS
10
92.1921
20
-9.02799
11
92.1676
21
-9.2221
0
LINE
8
BLACK
6
CONTINUOUS
10
92.1676
20
-9.2221
11
92.1058
21
-9.40775
0
LINE
8
BLACK
6
CONTINUOUS
10
92.1058
20
-9.40775
11
92.0092
21
-9.57787
0
LINE
8
BLACK
6
CONTINUOUS
10
92.0092
20
-9.57787
11
91.8813
21
-9.72598
0
LINE
8
BLACK
6
CONTINUOUS
10
91.8813
20
-9.72598
11
91.7272
21
-9.84644
0
LINE
8
BLACK
6
CONTINUOUS
10
91.7272
20
-9.84644
11
91.5525
21
-9.93465
0
LINE
8
BLACK
6
CONTINUOUS
10
91.5525
20
-9.93465
11
91.3641
21
-9.98727
0
LINE
8
BLACK
6
CONTINUOUS
10
91.3641
20
-9.98727
11
91.169
21
-10.0023
0
LINE
8
BLACK
6
CONTINUOUS
10
91.169
20
-10.0023
11
90.9747
21
-9.97911
0
LINE
8
BLACK
6
CONTINUOUS
10
90.9747
20
-9.97911
11
90.7886
21
-9.91865
0
LINE
8
BLACK
6
CONTINUOUS
10
90.7886
20
-9.91865
11
90.6179
21
-9.8232
0
LINE
8
BLACK
6
CONTINUOUS
10
90.6179
20
-9.8232
11
90.4689
21
-9.69639
0
LINE
8
BLACK
6
CONTINUOUS
10
90.4689
20
-9.69639
11
90.3473
21
-9.54306
0
LINE
8
BLACK
6
CONTINUOUS
10
90.3473
20
-9.54306
11
90.2579
21
-9.36904
0
LINE
8
BLACK
6
CONTINUOUS
10
90.2579
20
-9.36904
11
90.204
21
-9.18097
0
LINE
8
BLACK
6
CONTINUOUS
10
90.204
20
-9.18097
11
90.1876
21
-8.986
0
LINE
8
BLACK
6
CONTINUOUS
10
90.1876
20
-8.986
11
90.2094
21
-8.79157
0
LINE
8
BLACK
6
CONTINUOUS
10
90.2094
20
-8.79157
11
90.2686
21
-8.60507
0
LINE
8
BLACK
6
CONTINUOUS
10
90.2686
20
-8.60507
11
90.3628
21
-8.43362
0
LINE
8
BLACK
6
CONTINUOUS
10
90.3628
20
-8.43362
11
90.4886
21
-8.28374
0
LINE
8
BLACK
6
CONTINUOUS
10
90.4886
20
-8.28374
11
90.6411
21
-8.16114
0
LINE
8
BLACK
6
CONTINUOUS
10
90.6411
20
-8.16114
11
90.8145
21
-8.0705
0
LINE
8
BLACK
6
CONTINUOUS
10
90.8145
20
-8.0705
11
91.0022
21
-8.01526
0
LINE
8
BLACK
6
CONTINUOUS
10
91.0022
20
-8.01526
11
91.197
21
-7.99752
0
LINE
8
BLACK
6
CONTINUOUS
10
91.197
20
-7.99752
11
91.3916
21
-8.01798
0
LINE
8
BLACK
6
CONTINUOUS
10
15.3916
20
-8.01798
11
15.5785
21
-8.07583
0
LINE
8
BLACK
6
CONTINUOUS
10
15.5785
20
-8.07583
11
15.7506
21
-8.16889
0
LINE
8
BLACK
6
CONTINUOUS
10
15.7506
20
-8.16889
11
15.9013
21
-8.2936
0
LINE
8
BLACK
6
CONTINUOUS
10
15.9013
20
-8.2936
11
16.025
21
-8.44522
0
LINE
8
BLACK
6
CONTINUOUS
10
16.025
20
-8.44522
11
16.1169
21
-8.61798
0
LINE
8
BLACK
6
CONTINUOUS
10
16.1169
20
-8.61798
11
16.1734
21
-8.80528
0
LINE
8
BLACK
6
CONTINUOUS
10
16.1734
20
-8.80528
11
16.1925
21
-9
0
LINE
8
BLACK
6
CONTINUOUS
10
16.1925
20
-9
11
16.1921
21
-9.02799
0
LINE
8
BLACK
6
CONTINUOUS
10
16.1921
20
-9.02799
11
16.1676
21
-9.2221
0
LINE
8
BLACK
6
CONTINUOUS
10
16.1676
20
-9.2221
11
16.1058
21
-9.40775
0
LINE
8
BLACK
6
CONTINUOUS
10
16.1058
20
-9.40775
11
16.0092
21
-9.57787
0
LINE
8
BLACK
6
CONTINUOUS
10
16.0092
20
-9.57787
11
15.8813
21
-9.72598
0
LINE
8
BLACK
6
CONTINUOUS
10
15.8813
20
-9.72598
11
15.7272
21
-9.84644
0
LINE
8
BLACK
6
CONTINUOUS
10
15.7272
20
-9.84644
11
15.5525
21
-9.93465
0
LINE
8
BLACK
6
CONTINUOUS
10
15.5525
20
-9.93465
11
15.3641
21
-9.98727
0
LINE
8
BLACK
6
CONTINUOUS
10
15.3641
20
-9.98727
11
15.169
21
-10.0023
0
LINE
8
BLACK
6
CONTINUOUS
10
15.169
20
-10.0023
11
14.9747
21
-9.97911
0
LINE
8
BLACK
6
CONTINUOUS
10
14.9747
20
-9.97911
11
14.7886
21
-9.91865
0
LINE
8
BLACK
6
CONTINUOUS
10
14.7886
20
-9.91865
11
14.6179
21
-9.8232
0
LINE
8
BLACK
6
CONTINUOUS
10
14.6179
20
-9.8232
11
14.4689
21
-9.69639
0
LINE
8
BLACK
6
CONTINUOUS
10
14.4689
20
-9.69639
11
14.3473
21
-9.54306
0
LINE
8
BLACK
6
CONTINUOUS
10
14.3473
20
-9.54306
11
14.2579
21
-9.36904
0
LINE
8
BLACK
6
CONTINUOUS
10
14.2579
20
-9.36904
11
14.204
21
-9.18097
0
LINE
8
BLACK
6
CONTINUOUS
10
14.204
20
-9.18097
11
14.1876
21
-8.986
0
LINE
8
BLACK
6
CONTINUOUS
10
14.1876
20
-8.986
11
14.2094
21
-8.79157
0
LINE
8
BLACK
6
CONTINUOUS
10
14.2094
20
-8.79157
11
14.2686
21
-8.60507
0
LINE
8
BLACK
6
CONTINUOUS
10
14.2686
20
-8.60507
11
14.3628
21
-8.43362
0
LINE
8
BLACK
6
CONTINUOUS
10
14.3628
20
-8.43362
11
14.4886
21
-8.28374
0
LINE
8
BLACK
6
CONTINUOUS
10
14.4886
20
-8.28374
11
14.6411
21
-8.16114
0
LINE
8
BLACK
6
CONTINUOUS
10
14.6411
20
-8.16114
11
14.8145
21
-8.0705
0
LINE
8
BLACK
6
CONTINUOUS
10
14.8145
20
-8.0705
11
15.0021
21
-8.01526
0
LINE
8
BLACK
6
CONTINUOUS
10
15.0021
20
-8.01526
11
15.197
21
-7.99752
0
LINE
8
BLACK
6
CONTINUOUS
10
15.197
20
-7.99752
11
15.3916
21
-8.01798
0
LINE
8
BLACK
6
CONTINUOUS
10
23.7181
20
-8.06481
11
23.7344
21
-8.07564
0
LINE
8
BLACK
6
CONTINUOUS
10
23.7344
20
-8.07564
11
23.7452
21
-8.09187
0
LINE
8
BLACK
6
CONTINUOUS
10
23.7452
20
-8.09187
11
23.749
21
-8.111
0
LINE
8
BLACK
6
CONTINUOUS
10
23.749
20
-8.111
11
23.749
21
-9.889
0
LINE
8
BLACK
6
CONTINUOUS
10
23.749
20
-9.889
11
23.7452
21
-9.90813
0
LINE
8
BLACK
6
CONTINUOUS
10
23.7452
20
-9.90813
11
23.7344
21
-9.92436
0
LINE
8
BLACK
6
CONTINUOUS
10
23.7344
20
-9.92436
11
23.7181
21
-9.93519
0
LINE
8
BLACK
6
CONTINUOUS
10
23.7181
20
-9.93519
11
23.699
21
-9.939
0
LINE
8
BLACK
6
CONTINUOUS
10
23.699
20
-9.939
11
21.921
21
-9.939
0
LINE
8
BLACK
6
CONTINUOUS
10
21.921
20
-9.939
11
21.9019
21
-9.93519
0
LINE
8
BLACK
6
CONTINUOUS
10
21.9019
20
-9.93519
11
21.8856
21
-9.92436
0
LINE
8
BLACK
6
CONTINUOUS
10
21.8856
20
-9.92436
11
21.8748
21
-9.90813
0
LINE
8
BLACK
6
CONTINUOUS
10
21.8748
20
-9.90813
11
21.871
21
-9.889
0
LINE
8
BLACK
6
CONTINUOUS
10
21.871
20
-9.889
11
21.871
21
-8.111
0
LINE
8
BLACK
6
CONTINUOUS
10
21.871
20
-8.111
11
21.8748
21
-8.09187
0
LINE
8
BLACK
6
CONTINUOUS
10
21.8748
20
-8.09187
11
21.8856
21
-8.07564
0
LINE
8
BLACK
6
CONTINUOUS
10
21.8856
20
-8.07564
11
21.9019
21
-8.06481
0
LINE
8
BLACK
6
CONTINUOUS
10
21.9019
20
-8.06481
11
21.921
21
-8.061
0
LINE
8
BLACK
6
CONTINUOUS
10
21.921
20
-8.061
11
23.699
21
-8.061
0
LINE
8
BLACK
6
CONTINUOUS
10
23.699
20
-8.061
11
23.7181
21
-8.06481
0
LINE
8
BLACK
6
CONTINUOUS
10
4.71813
20
-8.06481
11
4.73435
21
-8.07564
0
LINE
8
BLACK
6
CONTINUOUS
10
4.73435
20
-8.07564
11
4.74519
21
-8.09187
0
LINE
8
BLACK
6
CONTINUOUS
10
4.74519
20
-8.09187
11
4.749
21
-8.111
0
LINE
8
BLACK
6
CONTINUOUS
10
4.749
20
-8.111
11
4.749
21
-9.889
0
LINE
8
BLACK
6
CONTINUOUS
10
4.749
20
-9.889
11
4.74519
21
-9.90813
0
LINE
8
BLACK
6
CONTINUOUS
10
4.74519
20
-9.90813
11
4.73435
21
-9.92436
0
LINE
8
BLACK
6
CONTINUOUS
10
4.73435
20
-9.92436
11
4.71813
21
-9.93519
0
LINE
8
BLACK
6
CONTINUOUS
10
4.71813
20
-9.93519
11
4.699
21
-9.939
0
LINE
8
BLACK
6
CONTINUOUS
10
4.699
20
-9.939
11
2.921
21
-9.939
0
LINE
8
BLACK
6
CONTINUOUS
10
2.921
20
-9.939
11
2.90187
21
-9.93519
0
LINE
8
BLACK
6
CONTINUOUS
10
2.90187
20
-9.93519
11
2.88564
21
-9.92436
0
LINE
8
BLACK
6
CONTINUOUS
10
2.88564
20
-9.92436
11
2.87481
21
-9.90813
0
LINE
8
BLACK
6
CONTINUOUS
10
2.87481
20
-9.90813
11
2.871
21
-9.889
0
LINE
8
BLACK
6
CONTINUOUS
10
2.871
20
-9.889
11
2.871
21
-8.111
0
LINE
8
BLACK
6
CONTINUOUS
10
2.871
20
-8.111
11
2.87481
21
-8.09187
0
LINE
8
BLACK
6
CONTINUOUS
10
2.87481
20
-8.09187
11
2.88564
21
-8.07564
0
LINE
8
BLACK
6
CONTINUOUS
10
2.88564
20
-8.07564
11
2.90187
21
-8.06481
0
LINE
8
BLACK
6
CONTINUOUS
10
2.90187
20
-8.06481
11
2.921
21
-8.061
0
LINE
8
BLACK
6
CONTINUOUS
10
2.921
20
-8.061
11
4.699
21
-8.061
0
LINE
8
BLACK
6
CONTINUOUS
10
4.699
20
-8.061
11
4.71813
21
-8.06481
0
LINE
8
BLACK
6
CONTINUOUS
10
99.7181
20
-8.06481
11
99.7344
21
-8.07564
0
LINE
8
BLACK
6
CONTINUOUS
10
99.7344
20
-8.07564
11
99.7452
21
-8.09187
0
LINE
8
BLACK
6
CONTINUOUS
10
99.7452
20
-8.09187
11
99.749
21
-8.111
0
LINE
8
BLACK
6
CONTINUOUS
10
99.749
20
-8.111
11
99.749
21
-9.889
0
LINE
8
BLACK
6
CONTINUOUS
10
99.749
20
-9.889
11
99.7452
21
-9.90813
0
LINE
8
BLACK
6
CONTINUOUS
10
99.7452
20
-9.90813
11
99.7344
21
-9.92436
0
LINE
8
BLACK
6
CONTINUOUS
10
99.7344
20
-9.92436
11
99.7181
21
-9.93519
0
LINE
8
BLACK
6
CONTINUOUS
10
99.7181
20
-9.93519
11
99.699
21
-9.939
0
LINE
8
BLACK
6
CONTINUOUS
10
99.699
20
-9.939
11
97.921
21
-9.939
0
LINE
8
BLACK
6
CONTINUOUS
10
97.921
20
-9.939
11
97.9019
21
-9.93519
0
LINE
8
BLACK
6
CONTINUOUS
10
97.9019
20
-9.93519
11
97.8856
21
-9.92436
0
LINE
8
BLACK
6
CONTINUOUS
10
97.8856
20
-9.92436
11
97.8748
21
-9.90813
0
LINE
8
BLACK
6
CONTINUOUS
10
97.8748
20
-9.90813
11
97.871
21
-9.889
0
LINE
8
BLACK
6
CONTINUOUS
10
97.871
20
-9.889
11
97.871
21
-8.111
0
LINE
8
BLACK
6
CONTINUOUS
10
97.871
20
-8.111
11
97.8748
21
-8.09187
0
LINE
8
BLACK
6
CONTINUOUS
10
97.8748
20
-8.09187
11
97.8856
21
-8.07564
0
LINE
8
BLACK
6
CONTINUOUS
10
97.8856
20
-8.07564
11
97.9019
21
-8.06481
0
LINE
8
BLACK
6
CONTINUOUS
10
97.9019
20
-8.06481
11
97.921
21
-8.061
0
LINE
8
BLACK
6
CONTINUOUS
10
97.921
20
-8.061
11
99.699
21
-8.061
0
LINE
8
BLACK
6
CONTINUOUS
10
99.699
20
-8.061
11
99.7181
21
-8.06481
0
LINE
8
BLACK
6
CONTINUOUS
10
2.11913
20
-8.35381
11
2.13536
21
-8.36464
0
LINE
8
BLACK
6
CONTINUOUS
10
2.13536
20
-8.36464
11
2.14619
21
-8.38087
0
LINE
8
BLACK
6
CONTINUOUS
10
2.14619
20
-8.38087
11
2.15
21
-8.4
0
LINE
8
BLACK
6
CONTINUOUS
10
2.15
20
-8.4
11
2.15
21
-9.6
0
LINE
8
BLACK
6
CONTINUOUS
10
2.15
20
-9.6
11
2.14619
21
-9.61913
0
LINE
8
BLACK
6
CONTINUOUS
10
2.14619
20
-9.61913
11
2.13536
21
-9.63535
0
LINE
8
BLACK
6
CONTINUOUS
10
2.13536
20
-9.63535
11
2.11913
21
-9.64619
0
LINE
8
BLACK
6
CONTINUOUS
10
2.11913
20
-9.64619
11
2.1
21
-9.65
0
LINE
8
BLACK
6
CONTINUOUS
10
2.1
20
-9.65
11
1.2
21
-9.65
0
LINE
8
BLACK
6
CONTINUOUS
10
1.2
20
-9.65
11
1.18087
21
-9.64619
0
LINE
8
BLACK
6
CONTINUOUS
10
1.18087
20
-9.64619
11
1.16464
21
-9.63535
0
LINE
8
BLACK
6
CONTINUOUS
10
1.16464
20
-9.63535
11
1.15381
21
-9.61913
0
LINE
8
BLACK
6
CONTINUOUS
10
1.15381
20
-9.61913
11
1.15
21
-9.6
0
LINE
8
BLACK
6
CONTINUOUS
10
1.15
20
-9.6
11
1.15
21
-8.4
0
LINE
8
BLACK
6
CONTINUOUS
10
1.15
20
-8.4
11
1.15381
21
-8.38087
0
LINE
8
BLACK
6
CONTINUOUS
10
1.15381
20
-8.38087
11
1.16464
21
-8.36464
0
LINE
8
BLACK
6
CONTINUOUS
10
1.16464
20
-8.36464
11
1.18087
21
-8.35381
0
LINE
8
BLACK
6
CONTINUOUS
10
1.18087
20
-8.35381
11
1.2
21
-8.35
0
LINE
8
BLACK
6
CONTINUOUS
10
1.2
20
-8.35
11
2.1
21
-8.35
0
LINE
8
BLACK
6
CONTINUOUS
10
2.1
20
-8.35
11
2.11913
21
-8.35381
0
LINE
8
BLACK
6
CONTINUOUS
10
-1.18087
20
-8.35381
11
-1.16464
21
-8.36464
0
LINE
8
BLACK
6
CONTINUOUS
10
-1.16464
20
-8.36464
11
-1.15381
21
-8.38087
0
LINE
8
BLACK
6
CONTINUOUS
10
-1.15381
20
-8.38087
11
-1.15
21
-8.4
0
LINE
8
BLACK
6
CONTINUOUS
10
-1.15
20
-8.4
11
-1.15
21
-9.6
0
LINE
8
BLACK
6
CONTINUOUS
10
-1.15
20
-9.6
11
-1.15381
21
-9.61913
0
LINE
8
BLACK
6
CONTINUOUS
10
-1.15381
20
-9.61913
11
-1.16464
21
-9.63535
0
LINE
8
BLACK
6
CONTINUOUS
10
-1.16464
20
-9.63535
11
-1.18087
21
-9.64619
0
LINE
8
BLACK
6
CONTINUOUS
10
-1.18087
20
-9.64619
11
-1.2
21
-9.65
0
LINE
8
BLACK
6
CONTINUOUS
10
-1.2
20
-9.65
11
-2.1
21
-9.65
0
LINE
8
BLACK
6
CONTINUOUS
10
-2.1
20
-9.65
11
-2.11913
21
-9.64619
0
LINE
8
BLACK
6
CONTINUOUS
10
-2.11913
20
-9.64619
11
-2.13536
21
-9.63535
0
LINE
8
BLACK
6
CONTINUOUS
10
-2.13536
20
-9.63535
11
-2.14619
21
-9.61913
0
LINE
8
BLACK
6
CONTINUOUS
10
-2.14619
20
-9.61913
11
-2.15
21
-9.6
0
LINE
8
BLACK
6
CONTINUOUS
10
-2.15
20
-9.6
11
-2.15
21
-8.4
0
LINE
8
BLACK
6
CONTINUOUS
10
-2.15
20
-8.4
11
-2.14619
21
-8.38087
0
LINE
8
BLACK
6
CONTINUOUS
10
-2.14619
20
-8.38087
11
-2.13536
21
-8.36464
0
LINE
8
BLACK
6
CONTINUOUS
10
-2.13536
20
-8.36464
11
-2.11913
21
-8.35381
0
LINE
8
BLACK
6
CONTINUOUS
10
-2.11913
20
-8.35381
11
-2.1
21
-8.35
0
LINE
8
BLACK
6
CONTINUOUS
10
-2.1
20
-8.35
11
-1.2
21
-8.35
0
LINE
8
BLACK
6
CONTINUOUS
10
-1.2
20
-8.35
11
-1.18087
21
-8.35381
0
LINE
8
BLACK
6
CONTINUOUS
10
17.8191
20
-8.35381
11
17.8354
21
-8.36464
0
LINE
8
BLACK
6
CONTINUOUS
10
17.8354
20
-8.36464
11
17.8462
21
-8.38087
0
LINE
8
BLACK
6
CONTINUOUS
10
17.8462
20
-8.38087
11
17.85
21
-8.4
0
LINE
8
BLACK
6
CONTINUOUS
10
17.85
20
-8.4
11
17.85
21
-9.6
0
LINE
8
BLACK
6
CONTINUOUS
10
17.85
20
-9.6
11
17.8462
21
-9.61913
0
LINE
8
BLACK
6
CONTINUOUS
10
17.8462
20
-9.61913
11
17.8354
21
-9.63535
0
LINE
8
BLACK
6
CONTINUOUS
10
17.8354
20
-9.63535
11
17.8191
21
-9.64619
0
LINE
8
BLACK
6
CONTINUOUS
10
17.8191
20
-9.64619
11
17.8
21
-9.65
0
LINE
8
BLACK
6
CONTINUOUS
10
17.8
20
-9.65
11
16.9
21
-9.65
0
LINE
8
BLACK
6
CONTINUOUS
10
16.9
20
-9.65
11
16.8809
21
-9.64619
0
LINE
8
BLACK
6
CONTINUOUS
10
16.8809
20
-9.64619
11
16.8646
21
-9.63535
0
LINE
8
BLACK
6
CONTINUOUS
10
16.8646
20
-9.63535
11
16.8538
21
-9.61913
0
LINE
8
BLACK
6
CONTINUOUS
10
16.8538
20
-9.61913
11
16.85
21
-9.6
0
LINE
8
BLACK
6
CONTINUOUS
10
16.85
20
-9.6
11
16.85
21
-8.4
0
LINE
8
BLACK
6
CONTINUOUS
10
16.85
20
-8.4
11
16.8538
21
-8.38087
0
LINE
8
BLACK
6
CONTINUOUS
10
16.8538
20
-8.38087
11
16.8646
21
-8.36464
0
LINE
8
BLACK
6
CONTINUOUS
10
16.8646
20
-8.36464
11
16.8809
21
-8.35381
0
LINE
8
BLACK
6
CONTINUOUS
10
16.8809
20
-8.35381
11
16.9
21
-8.35
0
LINE
8
BLACK
6
CONTINUOUS
10
16.9
20
-8.35
11
17.8
21
-8.35
0
LINE
8
BLACK
6
CONTINUOUS
10
17.8
20
-8.35
11
17.8191
21
-8.35381
0
LINE
8
BLACK
6
CONTINUOUS
10
21.1191
20
-8.35381
11
21.1354
21
-8.36464
0
LINE
8
BLACK
6
CONTINUOUS
10
21.1354
20
-8.36464
11
21.1462
21
-8.38087
0
LINE
8
BLACK
6
CONTINUOUS
10
21.1462
20
-8.38087
11
21.15
21
-8.4
0
LINE
8
BLACK
6
CONTINUOUS
10
21.15
20
-8.4
11
21.15
21
-9.6
0
LINE
8
BLACK
6
CONTINUOUS
10
21.15
20
-9.6
11
21.1462
21
-9.61913
0
LINE
8
BLACK
6
CONTINUOUS
10
21.1462
20
-9.61913
11
21.1354
21
-9.63535
0
LINE
8
BLACK
6
CONTINUOUS
10
21.1354
20
-9.63535
11
21.1191
21
-9.64619
0
LINE
8
BLACK
6
CONTINUOUS
10
21.1191
20
-9.64619
11
21.1
21
-9.65
0
LINE
8
BLACK
6
CONTINUOUS
10
21.1
20
-9.65
11
20.2
21
-9.65
0
LINE
8
BLACK
6
CONTINUOUS
10
20.2
20
-9.65
11
20.1809
21
-9.64619
0
LINE
8
BLACK
6
CONTINUOUS
10
20.1809
20
-9.64619
11
20.1646
21
-9.63535
0
LINE
8
BLACK
6
CONTINUOUS
10
20.1646
20
-9.63535
11
20.1538
21
-9.61913
0
LINE
8
BLACK
6
CONTINUOUS
10
20.1538
20
-9.61913
11
20.15
21
-9.6
0
LINE
8
BLACK
6
CONTINUOUS
10
20.15
20
-9.6
11
20.15
21
-8.4
0
LINE
8
BLACK
6
CONTINUOUS
10
20.15
20
-8.4
11
20.1538
21
-8.38087
0
LINE
8
BLACK
6
CONTINUOUS
10
20.1538
20
-8.38087
11
20.1646
21
-8.36464
0
LINE
8
BLACK
6
CONTINUOUS
10
20.1646
20
-8.36464
11
20.1809
21
-8.35381
0
LINE
8
BLACK
6
CONTINUOUS
10
20.1809
20
-8.35381
11
20.2
21
-8.35
0
LINE
8
BLACK
6
CONTINUOUS
10
20.2
20
-8.35
11
21.1
21
-8.35
0
LINE
8
BLACK
6
CONTINUOUS
10
21.1
20
-8.35
11
21.1191
21
-8.35381
0
LINE
8
BLACK
6
CONTINUOUS
10
97.1191
20
-8.35381
11
97.1354
21
-8.36464
0
LINE
8
BLACK
6
CONTINUOUS
10
97.1354
20
-8.36464
11
97.1462
21
-8.38087
0
LINE
8
BLACK
6
CONTINUOUS
10
97.1462
20
-8.38087
11
97.15
21
-8.4
0
LINE
8
BLACK
6
CONTINUOUS
10
97.15
20
-8.4
11
97.15
21
-9.6
0
LINE
8
BLACK
6
CONTINUOUS
10
97.15
20
-9.6
11
97.1462
21
-9.61913
0
LINE
8
BLACK
6
CONTINUOUS
10
97.1462
20
-9.61913
11
97.1354
21
-9.63535
0
LINE
8
BLACK
6
CONTINUOUS
10
97.1354
20
-9.63535
11
97.1191
21
-9.64619
0
LINE
8
BLACK
6
CONTINUOUS
10
97.1191
20
-9.64619
11
97.1
21
-9.65
0
LINE
8
BLACK
6
CONTINUOUS
10
97.1
20
-9.65
11
96.2
21
-9.65
0
LINE
8
BLACK
6
CONTINUOUS
10
96.2
20
-9.65
11
96.1809
21
-9.64619
0
LINE
8
BLACK
6
CONTINUOUS
10
96.1809
20
-9.64619
11
96.1646
21
-9.63535
0
LINE
8
BLACK
6
CONTINUOUS
10
96.1646
20
-9.63535
11
96.1538
21
-9.61913
0
LINE
8
BLACK
6
CONTINUOUS
10
96.1538
20
-9.61913
11
96.15
21
-9.6
0
LINE
8
BLACK
6
CONTINUOUS
10
96.15
20
-9.6
11
96.15
21
-8.4
0
LINE
8
BLACK
6
CONTINUOUS
10
96.15
20
-8.4
11
96.1538
21
-8.38087
0
LINE
8
BLACK
6
CONTINUOUS
10
96.1538
20
-8.38087
11
96.1646
21
-8.36464
0
LINE
8
BLACK
6
CONTINUOUS
10
96.1646
20
-8.36464
11
96.1809
21
-8.35381
0
LINE
8
BLACK
6
CONTINUOUS
10
96.1809
20
-8.35381
11
96.2
21
-8.35
0
LINE
8
BLACK
6
CONTINUOUS
10
96.2
20
-8.35
11
97.1
21
-8.35
0
LINE
8
BLACK
6
CONTINUOUS
10
97.1
20
-8.35
11
97.1191
21
-8.35381
0
LINE
8
BLACK
6
CONTINUOUS
10
93.8191
20
-8.35381
11
93.8354
21
-8.36464
0
LINE
8
BLACK
6
CONTINUOUS
10
93.8354
20
-8.36464
11
93.8462
21
-8.38087
0
LINE
8
BLACK
6
CONTINUOUS
10
93.8462
20
-8.38087
11
93.85
21
-8.4
0
LINE
8
BLACK
6
CONTINUOUS
10
93.85
20
-8.4
11
93.85
21
-9.6
0
LINE
8
BLACK
6
CONTINUOUS
10
93.85
20
-9.6
11
93.8462
21
-9.61913
0
LINE
8
BLACK
6
CONTINUOUS
10
93.8462
20
-9.61913
11
93.8354
21
-9.63535
0
LINE
8
BLACK
6
CONTINUOUS
10
93.8354
20
-9.63535
11
93.8191
21
-9.64619
0
LINE
8
BLACK
6
CONTINUOUS
10
93.8191
20
-9.64619
11
93.8
21
-9.65
0
LINE
8
BLACK
6
CONTINUOUS
10
93.8
20
-9.65
11
92.9
21
-9.65
0
LINE
8
BLACK
6
CONTINUOUS
10
92.9
20
-9.65
11
92.8809
21
-9.64619
0
LINE
8
BLACK
6
CONTINUOUS
10
92.8809
20
-9.64619
11
92.8646
21
-9.63535
0
LINE
8
BLACK
6
CONTINUOUS
10
92.8646
20
-9.63535
11
92.8538
21
-9.61913
0
LINE
8
BLACK
6
CONTINUOUS
10
92.8538
20
-9.61913
11
92.85
21
-9.6
0
LINE
8
BLACK
6
CONTINUOUS
10
92.85
20
-9.6
11
92.85
21
-8.4
0
LINE
8
BLACK
6
CONTINUOUS
10
92.85
20
-8.4
11
92.8538
21
-8.38087
0
LINE
8
BLACK
6
CONTINUOUS
10
92.8538
20
-8.38087
11
92.8646
21
-8.36464
0
LINE
8
BLACK
6
CONTINUOUS
10
92.8646
20
-8.36464
11
92.8809
21
-8.35381
0
LINE
8
BLACK
6
CONTINUOUS
10
92.8809
20
-8.35381
11
92.9
21
-8.35
0
LINE
8
BLACK
6
CONTINUOUS
10
92.9
20
-8.35
11
93.8
21
-8.35
0
LINE
8
BLACK
6
CONTINUOUS
10
93.8
20
-8.35
11
93.8191
21
-8.35381
0
LINE
8
BLACK
6
CONTINUOUS
10
34.3916
20
-1.01798
11
34.5785
21
-1.07583
0
LINE
8
BLACK
6
CONTINUOUS
10
34.5785
20
-1.07583
11
34.7506
21
-1.16889
0
LINE
8
BLACK
6
CONTINUOUS
10
34.7506
20
-1.16889
11
34.9013
21
-1.2936
0
LINE
8
BLACK
6
CONTINUOUS
10
34.9013
20
-1.2936
11
35.025
21
-1.44522
0
LINE
8
BLACK
6
CONTINUOUS
10
35.025
20
-1.44522
11
35.1169
21
-1.61798
0
LINE
8
BLACK
6
CONTINUOUS
10
35.1169
20
-1.61798
11
35.1734
21
-1.80528
0
LINE
8
BLACK
6
CONTINUOUS
10
35.1734
20
-1.80528
11
35.1925
21
-2
0
LINE
8
BLACK
6
CONTINUOUS
10
35.1925
20
-2
11
35.1921
21
-2.02799
0
LINE
8
BLACK
6
CONTINUOUS
10
35.1921
20
-2.02799
11
35.1676
21
-2.2221
0
LINE
8
BLACK
6
CONTINUOUS
10
35.1676
20
-2.2221
11
35.1058
21
-2.40775
0
LINE
8
BLACK
6
CONTINUOUS
10
35.1058
20
-2.40775
11
35.0092
21
-2.57787
0
LINE
8
BLACK
6
CONTINUOUS
10
35.0092
20
-2.57787
11
34.8813
21
-2.72598
0
LINE
8
BLACK
6
CONTINUOUS
10
34.8813
20
-2.72598
11
34.7272
21
-2.84644
0
LINE
8
BLACK
6
CONTINUOUS
10
34.7272
20
-2.84644
11
34.5525
21
-2.93465
0
LINE
8
BLACK
6
CONTINUOUS
10
34.5525
20
-2.93465
11
34.3641
21
-2.98727
0
LINE
8
BLACK
6
CONTINUOUS
10
34.3641
20
-2.98727
11
34.169
21
-3.00228
0
LINE
8
BLACK
6
CONTINUOUS
10
34.169
20
-3.00228
11
33.9747
21
-2.97911
0
LINE
8
BLACK
6
CONTINUOUS
10
33.9747
20
-2.97911
11
33.7886
21
-2.91865
0
LINE
8
BLACK
6
CONTINUOUS
10
33.7886
20
-2.91865
11
33.6179
21
-2.8232
0
LINE
8
BLACK
6
CONTINUOUS
10
33.6179
20
-2.8232
11
33.4689
21
-2.69639
0
LINE
8
BLACK
6
CONTINUOUS
10
33.4689
20
-2.69639
11
33.3473
21
-2.54306
0
LINE
8
BLACK
6
CONTINUOUS
10
33.3473
20
-2.54306
11
33.2579
21
-2.36904
0
LINE
8
BLACK
6
CONTINUOUS
10
33.2579
20
-2.36904
11
33.204
21
-2.18097
0
LINE
8
BLACK
6
CONTINUOUS
10
33.204
20
-2.18097
11
33.1876
21
-1.986
0
LINE
8
BLACK
6
CONTINUOUS
10
33.1876
20
-1.986
11
33.2094
21
-1.79157
0
LINE
8
BLACK
6
CONTINUOUS
10
33.2094
20
-1.79157
11
33.2686
21
-1.60507
0
LINE
8
BLACK
6
CONTINUOUS
10
33.2686
20
-1.60507
11
33.3628
21
-1.43362
0
LINE
8
BLACK
6
CONTINUOUS
10
33.3628
20
-1.43362
11
33.4886
21
-1.28374
0
LINE
8
BLACK
6
CONTINUOUS
10
33.4886
20
-1.28374
11
33.6411
21
-1.16114
0
LINE
8
BLACK
6
CONTINUOUS
10
33.6411
20
-1.16114
11
33.8145
21
-1.0705
0
LINE
8
BLACK
6
CONTINUOUS
10
33.8145
20
-1.0705
11
34.0022
21
-1.01526
0
LINE
8
BLACK
6
CONTINUOUS
10
34.0022
20
-1.01526
11
34.197
21
-0.997524
0
LINE
8
BLACK
6
CONTINUOUS
10
34.197
20
-0.997524
11
34.3916
21
-1.01798
0
LINE
8
BLACK
6
CONTINUOUS
10
72.3916
20
-1.01798
11
72.5785
21
-1.07583
0
LINE
8
BLACK
6
CONTINUOUS
10
72.5785
20
-1.07583
11
72.7506
21
-1.16889
0
LINE
8
BLACK
6
CONTINUOUS
10
72.7506
20
-1.16889
11
72.9013
21
-1.2936
0
LINE
8
BLACK
6
CONTINUOUS
10
72.9013
20
-1.2936
11
73.025
21
-1.44522
0
LINE
8
BLACK
6
CONTINUOUS
10
73.025
20
-1.44522
11
73.1169
21
-1.61798
0
LINE
8
BLACK
6
CONTINUOUS
10
73.1169
20
-1.61798
11
73.1734
21
-1.80528
0
LINE
8
BLACK
6
CONTINUOUS
10
73.1734
20
-1.80528
11
73.1925
21
-2
0
LINE
8
BLACK
6
CONTINUOUS
10
73.1925
20
-2
11
73.1921
21
-2.02799
0
LINE
8
BLACK
6
CONTINUOUS
10
73.1921
20
-2.02799
11
73.1676
21
-2.2221
0
LINE
8
BLACK
6
CONTINUOUS
10
73.1676
20
-2.2221
11
73.1058
21
-2.40775
0
LINE
8
BLACK
6
CONTINUOUS
10
73.1058
20
-2.40775
11
73.0092
21
-2.57787
0
LINE
8
BLACK
6
CONTINUOUS
10
73.0092
20
-2.57787
11
72.8813
21
-2.72598
0
LINE
8
BLACK
6
CONTINUOUS
10
72.8813
20
-2.72598
11
72.7272
21
-2.84644
0
LINE
8
BLACK
6
CONTINUOUS
10
72.7272
20
-2.84644
11
72.5525
21
-2.93465
0
LINE
8
BLACK
6
CONTINUOUS
10
72.5525
20
-2.93465
11
72.3641
21
-2.98727
0
LINE
8
BLACK
6
CONTINUOUS
10
72.3641
20
-2.98727
11
72.169
21
-3.00228
0
LINE
8
BLACK
6
CONTINUOUS
10
72.169
20
-3.00228
11
71.9747
21
-2.97911
0
LINE
8
BLACK
6
CONTINUOUS
10
71.9747
20
-2.97911
11
71.7886
21
-2.91865
0
LINE
8
BLACK
6
CONTINUOUS
10
71.7886
20
-2.91865
11
71.6179
21
-2.8232
0
LINE
8
BLACK
6
CONTINUOUS
10
71.6179
20
-2.8232
11
71.4689
21
-2.69639
0
LINE
8
BLACK
6
CONTINUOUS
10
71.4689
20
-2.69639
11
71.3473
21
-2.54306
0
LINE
8
BLACK
6
CONTINUOUS
10
71.3473
20
-2.54306
11
71.2579
21
-2.36904
0
LINE
8
BLACK
6
CONTINUOUS
10
71.2579
20
-2.36904
11
71.204
21
-2.18097
0
LINE
8
BLACK
6
CONTINUOUS
10
71.204
20
-2.18097
11
71.1876
21
-1.986
0
LINE
8
BLACK
6
CONTINUOUS
10
71.1876
20
-1.986
11
71.2094
21
-1.79157
0
LINE
8
BLACK
6
CONTINUOUS
10
71.2094
20
-1.79157
11
71.2686
21
-1.60507
0
LINE
8
BLACK
6
CONTINUOUS
10
71.2686
20
-1.60507
11
71.3628
21
-1.43362
0
LINE
8
BLACK
6
CONTINUOUS
10
71.3628
20
-1.43362
11
71.4886
21
-1.28374
0
LINE
8
BLACK
6
CONTINUOUS
10
71.4886
20
-1.28374
11
71.6411
21
-1.16114
0
LINE
8
BLACK
6
CONTINUOUS
10
71.6411
20
-1.16114
11
71.8145
21
-1.0705
0
LINE
8
BLACK
6
CONTINUOUS
10
71.8145
20
-1.0705
11
72.0022
21
-1.01526
0
LINE
8
BLACK
6
CONTINUOUS
10
72.0022
20
-1.01526
11
72.197
21
-0.997524
0
LINE
8
BLACK
6
CONTINUOUS
10
72.197
20
-0.997524
11
72.3916
21
-1.01798
0
LINE
8
BLACK
6
CONTINUOUS
10
80.7181
20
-1.06481
11
80.7344
21
-1.07564
0
LINE
8
BLACK
6
CONTINUOUS
10
80.7344
20
-1.07564
11
80.7452
21
-1.09187
0
LINE
8
BLACK
6
CONTINUOUS
10
80.7452
20
-1.09187
11
80.749
21
-1.111
0
LINE
8
BLACK
6
CONTINUOUS
10
80.749
20
-1.111
11
80.749
21
-2.889
0
LINE
8
BLACK
6
CONTINUOUS
10
80.749
20
-2.889
11
80.7452
21
-2.90813
0
LINE
8
BLACK
6
CONTINUOUS
10
80.7452
20
-2.90813
11
80.7344
21
-2.92435
0
LINE
8
BLACK
6
CONTINUOUS
10
80.7344
20
-2.92435
11
80.7181
21
-2.93519
0
LINE
8
BLACK
6
CONTINUOUS
10
80.7181
20
-2.93519
11
80.699
21
-2.939
0
LINE
8
BLACK
6
CONTINUOUS
10
80.699
20
-2.939
11
78.921
21
-2.939
0
LINE
8
BLACK
6
CONTINUOUS
10
78.921
20
-2.939
11
78.9019
21
-2.93519
0
LINE
8
BLACK
6
CONTINUOUS
10
78.9019
20
-2.93519
11
78.8856
21
-2.92435
0
LINE
8
BLACK
6
CONTINUOUS
10
78.8856
20
-2.92435
11
78.8748
21
-2.90813
0
LINE
8
BLACK
6
CONTINUOUS
10
78.8748
20
-2.90813
11
78.871
21
-2.889
0
LINE
8
BLACK
6
CONTINUOUS
10
78.871
20
-2.889
11
78.871
21
-1.111
0
LINE
8
BLACK
6
CONTINUOUS
10
78.871
20
-1.111
11
78.8748
21
-1.09187
0
LINE
8
BLACK
6
CONTINUOUS
10
78.8748
20
-1.09187
11
78.8856
21
-1.07564
0
LINE
8
BLACK
6
CONTINUOUS
10
78.8856
20
-1.07564
11
78.9019
21
-1.06481
0
LINE
8
BLACK
6
CONTINUOUS
10
78.9019
20
-1.06481
11
78.921
21
-1.061
0
LINE
8
BLACK
6
CONTINUOUS
10
78.921
20
-1.061
11
80.699
21
-1.061
0
LINE
8
BLACK
6
CONTINUOUS
10
80.699
20
-1.061
11
80.7181
21
-1.06481
0
LINE
8
BLACK
6
CONTINUOUS
10
42.7181
20
-1.06481
11
42.7344
21
-1.07564
0
LINE
8
BLACK
6
CONTINUOUS
10
42.7344
20
-1.07564
11
42.7452
21
-1.09187
0
LINE
8
BLACK
6
CONTINUOUS
10
42.7452
20
-1.09187
11
42.749
21
-1.111
0
LINE
8
BLACK
6
CONTINUOUS
10
42.749
20
-1.111
11
42.749
21
-2.889
0
LINE
8
BLACK
6
CONTINUOUS
10
42.749
20
-2.889
11
42.7452
21
-2.90813
0
LINE
8
BLACK
6
CONTINUOUS
10
42.7452
20
-2.90813
11
42.7344
21
-2.92435
0
LINE
8
BLACK
6
CONTINUOUS
10
42.7344
20
-2.92435
11
42.7181
21
-2.93519
0
LINE
8
BLACK
6
CONTINUOUS
10
42.7181
20
-2.93519
11
42.699
21
-2.939
0
LINE
8
BLACK
6
CONTINUOUS
10
42.699
20
-2.939
11
40.921
21
-2.939
0
LINE
8
BLACK
6
CONTINUOUS
10
40.921
20
-2.939
11
40.9019
21
-2.93519
0
LINE
8
BLACK
6
CONTINUOUS
10
40.9019
20
-2.93519
11
40.8856
21
-2.92435
0
LINE
8
BLACK
6
CONTINUOUS
10
40.8856
20
-2.92435
11
40.8748
21
-2.90813
0
LINE
8
BLACK
6
CONTINUOUS
10
40.8748
20
-2.90813
11
40.871
21
-2.889
0
LINE
8
BLACK
6
CONTINUOUS
10
40.871
20
-2.889
11
40.871
21
-1.111
0
LINE
8
BLACK
6
CONTINUOUS
10
40.871
20
-1.111
11
40.8748
21
-1.09187
0
LINE
8
BLACK
6
CONTINUOUS
10
40.8748
20
-1.09187
11
40.8856
21
-1.07564
0
LINE
8
BLACK
6
CONTINUOUS
10
40.8856
20
-1.07564
11
40.9019
21
-1.06481
0
LINE
8
BLACK
6
CONTINUOUS
10
40.9019
20
-1.06481
11
40.921
21
-1.061
0
LINE
8
BLACK
6
CONTINUOUS
10
40.921
20
-1.061
11
42.699
21
-1.061
0
LINE
8
BLACK
6
CONTINUOUS
10
42.699
20
-1.061
11
42.7181
21
-1.06481
0
LINE
8
BLACK
6
CONTINUOUS
10
78.1191
20
-1.35381
11
78.1354
21
-1.36464
0
LINE
8
BLACK
6
CONTINUOUS
10
78.1354
20
-1.36464
11
78.1462
21
-1.38087
0
LINE
8
BLACK
6
CONTINUOUS
10
78.1462
20
-1.38087
11
78.15
21
-1.4
0
LINE
8
BLACK
6
CONTINUOUS
10
78.15
20
-1.4
11
78.15
21
-2.6
0
LINE
8
BLACK
6
CONTINUOUS
10
78.15
20
-2.6
11
78.1462
21
-2.61913
0
LINE
8
BLACK
6
CONTINUOUS
10
78.1462
20
-2.61913
11
78.1354
21
-2.63535
0
LINE
8
BLACK
6
CONTINUOUS
10
78.1354
20
-2.63535
11
78.1191
21
-2.64619
0
LINE
8
BLACK
6
CONTINUOUS
10
78.1191
20
-2.64619
11
78.1
21
-2.65
0
LINE
8
BLACK
6
CONTINUOUS
10
78.1
20
-2.65
11
77.2
21
-2.65
0
LINE
8
BLACK
6
CONTINUOUS
10
77.2
20
-2.65
11
77.1809
21
-2.64619
0
LINE
8
BLACK
6
CONTINUOUS
10
77.1809
20
-2.64619
11
77.1646
21
-2.63535
0
LINE
8
BLACK
6
CONTINUOUS
10
77.1646
20
-2.63535
11
77.1538
21
-2.61913
0
LINE
8
BLACK
6
CONTINUOUS
10
77.1538
20
-2.61913
11
77.15
21
-2.6
0
LINE
8
BLACK
6
CONTINUOUS
10
77.15
20
-2.6
11
77.15
21
-1.4
0
LINE
8
BLACK
6
CONTINUOUS
10
77.15
20
-1.4
11
77.1538
21
-1.38087
0
LINE
8
BLACK
6
CONTINUOUS
10
77.1538
20
-1.38087
11
77.1646
21
-1.36464
0
LINE
8
BLACK
6
CONTINUOUS
10
77.1646
20
-1.36464
11
77.1809
21
-1.35381
0
LINE
8
BLACK
6
CONTINUOUS
10
77.1809
20
-1.35381
11
77.2
21
-1.35
0
LINE
8
BLACK
6
CONTINUOUS
10
77.2
20
-1.35
11
78.1
21
-1.35
0
LINE
8
BLACK
6
CONTINUOUS
10
78.1
20
-1.35
11
78.1191
21
-1.35381
0
LINE
8
BLACK
6
CONTINUOUS
10
74.8191
20
-1.35381
11
74.8354
21
-1.36464
0
LINE
8
BLACK
6
CONTINUOUS
10
74.8354
20
-1.36464
11
74.8462
21
-1.38087
0
LINE
8
BLACK
6
CONTINUOUS
10
74.8462
20
-1.38087
11
74.85
21
-1.4
0
LINE
8
BLACK
6
CONTINUOUS
10
74.85
20
-1.4
11
74.85
21
-2.6
0
LINE
8
BLACK
6
CONTINUOUS
10
74.85
20
-2.6
11
74.8462
21
-2.61913
0
LINE
8
BLACK
6
CONTINUOUS
10
74.8462
20
-2.61913
11
74.8354
21
-2.63535
0
LINE
8
BLACK
6
CONTINUOUS
10
74.8354
20
-2.63535
11
74.8191
21
-2.64619
0
LINE
8
BLACK
6
CONTINUOUS
10
74.8191
20
-2.64619
11
74.8
21
-2.65
0
LINE
8
BLACK
6
CONTINUOUS
10
74.8
20
-2.65
11
73.9
21
-2.65
0
LINE
8
BLACK
6
CONTINUOUS
10
73.9
20
-2.65
11
73.8809
21
-2.64619
0
LINE
8
BLACK
6
CONTINUOUS
10
73.8809
20
-2.64619
11
73.8646
21
-2.63535
0
LINE
8
BLACK
6
CONTINUOUS
10
73.8646
20
-2.63535
11
73.8538
21
-2.61913
0
LINE
8
BLACK
6
CONTINUOUS
10
73.8538
20
-2.61913
11
73.85
21
-2.6
0
LINE
8
BLACK
6
CONTINUOUS
10
73.85
20
-2.6
11
73.85
21
-1.4
0
LINE
8
BLACK
6
CONTINUOUS
10
73.85
20
-1.4
11
73.8538
21
-1.38087
0
LINE
8
BLACK
6
CONTINUOUS
10
73.8538
20
-1.38087
11
73.8646
21
-1.36464
0
LINE
8
BLACK
6
CONTINUOUS
10
73.8646
20
-1.36464
11
73.8809
21
-1.35381
0
LINE
8
BLACK
6
CONTINUOUS
10
73.8809
20
-1.35381
11
73.9
21
-1.35
0
LINE
8
BLACK
6
CONTINUOUS
10
73.9
20
-1.35
11
74.8
21
-1.35
0
LINE
8
BLACK
6
CONTINUOUS
10
74.8
20
-1.35
11
74.8191
21
-1.35381
0
LINE
8
BLACK
6
CONTINUOUS
10
36.8191
20
-1.35381
11
36.8354
21
-1.36464
0
LINE
8
BLACK
6
CONTINUOUS
10
36.8354
20
-1.36464
11
36.8462
21
-1.38087
0
LINE
8
BLACK
6
CONTINUOUS
10
36.8462
20
-1.38087
11
36.85
21
-1.4
0
LINE
8
BLACK
6
CONTINUOUS
10
36.85
20
-1.4
11
36.85
21
-2.6
0
LINE
8
BLACK
6
CONTINUOUS
10
36.85
20
-2.6
11
36.8462
21
-2.61913
0
LINE
8
BLACK
6
CONTINUOUS
10
36.8462
20
-2.61913
11
36.8354
21
-2.63535
0
LINE
8
BLACK
6
CONTINUOUS
10
36.8354
20
-2.63535
11
36.8191
21
-2.64619
0
LINE
8
BLACK
6
CONTINUOUS
10
36.8191
20
-2.64619
11
36.8
21
-2.65
0
LINE
8
BLACK
6
CONTINUOUS
10
36.8
20
-2.65
11
35.9
21
-2.65
0
LINE
8
BLACK
6
CONTINUOUS
10
35.9
20
-2.65
11
35.8809
21
-2.64619
0
LINE
8
BLACK
6
CONTINUOUS
10
35.8809
20
-2.64619
11
35.8646
21
-2.63535
0
LINE
8
BLACK
6
CONTINUOUS
10
35.8646
20
-2.63535
11
35.8538
21
-2.61913
0
LINE
8
BLACK
6
CONTINUOUS
10
35.8538
20
-2.61913
11
35.85
21
-2.6
0
LINE
8
BLACK
6
CONTINUOUS
10
35.85
20
-2.6
11
35.85
21
-1.4
0
LINE
8
BLACK
6
CONTINUOUS
10
35.85
20
-1.4
11
35.8538
21
-1.38087
0
LINE
8
BLACK
6
CONTINUOUS
10
35.8538
20
-1.38087
11
35.8646
21
-1.36464
0
LINE
8
BLACK
6
CONTINUOUS
10
35.8646
20
-1.36464
11
35.8809
21
-1.35381
0
LINE
8
BLACK
6
CONTINUOUS
10
35.8809
20
-1.35381
11
35.9
21
-1.35
0
LINE
8
BLACK
6
CONTINUOUS
10
35.9
20
-1.35
11
36.8
21
-1.35
0
LINE
8
BLACK
6
CONTINUOUS
10
36.8
20
-1.35
11
36.8191
21
-1.35381
0
LINE
8
BLACK
6
CONTINUOUS
10
40.1191
20
-1.35381
11
40.1354
21
-1.36464
0
LINE
8
BLACK
6
CONTINUOUS
10
40.1354
20
-1.36464
11
40.1462
21
-1.38087
0
LINE
8
BLACK
6
CONTINUOUS
10
40.1462
20
-1.38087
11
40.15
21
-1.4
0
LINE
8
BLACK
6
CONTINUOUS
10
40.15
20
-1.4
11
40.15
21
-2.6
0
LINE
8
BLACK
6
CONTINUOUS
10
40.15
20
-2.6
11
40.1462
21
-2.61913
0
LINE
8
BLACK
6
CONTINUOUS
10
40.1462
20
-2.61913
11
40.1354
21
-2.63535
0
LINE
8
BLACK
6
CONTINUOUS
10
40.1354
20
-2.63535
11
40.1191
21
-2.64619
0
LINE
8
BLACK
6
CONTINUOUS
10
40.1191
20
-2.64619
11
40.1
21
-2.65
0
LINE
8
BLACK
6
CONTINUOUS
10
40.1
20
-2.65
11
39.2
21
-2.65
0
LINE
8
BLACK
6
CONTINUOUS
10
39.2
20
-2.65
11
39.1809
21
-2.64619
0
LINE
8
BLACK
6
CONTINUOUS
10
39.1809
20
-2.64619
11
39.1646
21
-2.63535
0
LINE
8
BLACK
6
CONTINUOUS
10
39.1646
20
-2.63535
11
39.1538
21
-2.61913
0
LINE
8
BLACK
6
CONTINUOUS
10
39.1538
20
-2.61913
11
39.15
21
-2.6
0
LINE
8
BLACK
6
CONTINUOUS
10
39.15
20
-2.6
11
39.15
21
-1.4
0
LINE
8
BLACK
6
CONTINUOUS
10
39.15
20
-1.4
11
39.1538
21
-1.38087
0
LINE
8
BLACK
6
CONTINUOUS
10
39.1538
20
-1.38087
11
39.1646
21
-1.36464
0
LINE
8
BLACK
6
CONTINUOUS
10
39.1646
20
-1.36464
11
39.1809
21
-1.35381
0
LINE
8
BLACK
6
CONTINUOUS
10
39.1809
20
-1.35381
11
39.2
21
-1.35
0
LINE
8
BLACK
6
CONTINUOUS
10
39.2
20
-1.35
11
40.1
21
-1.35
0
LINE
8
BLACK
6
CONTINUOUS
10
40.1
20
-1.35
11
40.1191
21
-1.35381
0
LINE
8
BLACK
6
CONTINUOUS
10
53.3916
20
5.98202
11
53.5785
21
5.92417
0
LINE
8
BLACK
6
CONTINUOUS
10
53.5785
20
5.92417
11
53.7506
21
5.83111
0
LINE
8
BLACK
6
CONTINUOUS
10
53.7506
20
5.83111
11
53.9013
21
5.7064
0
LINE
8
BLACK
6
CONTINUOUS
10
53.9013
20
5.7064
11
54.025
21
5.55477
0
LINE
8
BLACK
6
CONTINUOUS
10
54.025
20
5.55477
11
54.1169
21
5.38202
0
LINE
8
BLACK
6
CONTINUOUS
10
54.1169
20
5.38202
11
54.1734
21
5.19472
0
LINE
8
BLACK
6
CONTINUOUS
10
54.1734
20
5.19472
11
54.1925
21
5
0
LINE
8
BLACK
6
CONTINUOUS
10
54.1925
20
5
11
54.1921
21
4.97201
0
LINE
8
BLACK
6
CONTINUOUS
10
54.1921
20
4.97201
11
54.1676
21
4.7779
0
LINE
8
BLACK
6
CONTINUOUS
10
54.1676
20
4.7779
11
54.1058
21
4.59225
0
LINE
8
BLACK
6
CONTINUOUS
10
54.1058
20
4.59225
11
54.0092
21
4.42213
0
LINE
8
BLACK
6
CONTINUOUS
10
54.0092
20
4.42213
11
53.8813
21
4.27402
0
LINE
8
BLACK
6
CONTINUOUS
10
53.8813
20
4.27402
11
53.7272
21
4.15356
0
LINE
8
BLACK
6
CONTINUOUS
10
53.7272
20
4.15356
11
53.5525
21
4.06534
0
LINE
8
BLACK
6
CONTINUOUS
10
53.5525
20
4.06534
11
53.3641
21
4.01273
0
LINE
8
BLACK
6
CONTINUOUS
10
53.3641
20
4.01273
11
53.169
21
3.99772
0
LINE
8
BLACK
6
CONTINUOUS
10
53.169
20
3.99772
11
52.9747
21
4.02089
0
LINE
8
BLACK
6
CONTINUOUS
10
52.9747
20
4.02089
11
52.7886
21
4.08135
0
LINE
8
BLACK
6
CONTINUOUS
10
52.7886
20
4.08135
11
52.6179
21
4.1768
0
LINE
8
BLACK
6
CONTINUOUS
10
52.6179
20
4.1768
11
52.4689
21
4.30361
0
LINE
8
BLACK
6
CONTINUOUS
10
52.4689
20
4.30361
11
52.3473
21
4.45694
0
LINE
8
BLACK
6
CONTINUOUS
10
52.3473
20
4.45694
11
52.2579
21
4.63096
0
LINE
8
BLACK
6
CONTINUOUS
10
52.2579
20
4.63096
11
52.204
21
4.81903
0
LINE
8
BLACK
6
CONTINUOUS
10
52.204
20
4.81903
11
52.1876
21
5.014
0
LINE
8
BLACK
6
CONTINUOUS
10
52.1876
20
5.014
11
52.2094
21
5.20843
0
LINE
8
BLACK
6
CONTINUOUS
10
52.2094
20
5.20843
11
52.2686
21
5.39493
0
LINE
8
BLACK
6
CONTINUOUS
10
52.2686
20
5.39493
11
52.3628
21
5.56638
0
LINE
8
BLACK
6
CONTINUOUS
10
52.3628
20
5.56638
11
52.4886
21
5.71626
0
LINE
8
BLACK
6
CONTINUOUS
10
52.4886
20
5.71626
11
52.6411
21
5.83886
0
LINE
8
BLACK
6
CONTINUOUS
10
52.6411
20
5.83886
11
52.8145
21
5.9295
0
LINE
8
BLACK
6
CONTINUOUS
10
52.8145
20
5.9295
11
53.0022
21
5.98474
0
LINE
8
BLACK
6
CONTINUOUS
10
53.0022
20
5.98474
11
53.197
21
6.00248
0
LINE
8
BLACK
6
CONTINUOUS
10
53.197
20
6.00248
11
53.3916
21
5.98202
0
LINE
8
BLACK
6
CONTINUOUS
10
61.7181
20
5.93519
11
61.7344
21
5.92435
0
LINE
8
BLACK
6
CONTINUOUS
10
61.7344
20
5.92435
11
61.7452
21
5.90813
0
LINE
8
BLACK
6
CONTINUOUS
10
61.7452
20
5.90813
11
61.749
21
5.889
0
LINE
8
BLACK
6
CONTINUOUS
10
61.749
20
5.889
11
61.749
21
4.111
0
LINE
8
BLACK
6
CONTINUOUS
10
61.749
20
4.111
11
61.7452
21
4.09187
0
LINE
8
BLACK
6
CONTINUOUS
10
61.7452
20
4.09187
11
61.7344
21
4.07564
0
LINE
8
BLACK
6
CONTINUOUS
10
61.7344
20
4.07564
11
61.7181
21
4.06481
0
LINE
8
BLACK
6
CONTINUOUS
10
61.7181
20
4.06481
11
61.699
21
4.061
0
LINE
8
BLACK
6
CONTINUOUS
10
61.699
20
4.061
11
59.921
21
4.061
0
LINE
8
BLACK
6
CONTINUOUS
10
59.921
20
4.061
11
59.9019
21
4.06481
0
LINE
8
BLACK
6
CONTINUOUS
10
59.9019
20
4.06481
11
59.8856
21
4.07564
0
LINE
8
BLACK
6
CONTINUOUS
10
59.8856
20
4.07564
11
59.8748
21
4.09187
0
LINE
8
BLACK
6
CONTINUOUS
10
59.8748
20
4.09187
11
59.871
21
4.111
0
LINE
8
BLACK
6
CONTINUOUS
10
59.871
20
4.111
11
59.871
21
5.889
0
LINE
8
BLACK
6
CONTINUOUS
10
59.871
20
5.889
11
59.8748
21
5.90813
0
LINE
8
BLACK
6
CONTINUOUS
10
59.8748
20
5.90813
11
59.8856
21
5.92435
0
LINE
8
BLACK
6
CONTINUOUS
10
59.8856
20
5.92435
11
59.9019
21
5.93519
0
LINE
8
BLACK
6
CONTINUOUS
10
59.9019
20
5.93519
11
59.921
21
5.939
0
LINE
8
BLACK
6
CONTINUOUS
10
59.921
20
5.939
11
61.699
21
5.939
0
LINE
8
BLACK
6
CONTINUOUS
10
61.699
20
5.939
11
61.7181
21
5.93519
0
LINE
8
BLACK
6
CONTINUOUS
10
55.8191
20
5.64619
11
55.8354
21
5.63535
0
LINE
8
BLACK
6
CONTINUOUS
10
55.8354
20
5.63535
11
55.8462
21
5.61913
0
LINE
8
BLACK
6
CONTINUOUS
10
55.8462
20
5.61913
11
55.85
21
5.6
0
LINE
8
BLACK
6
CONTINUOUS
10
55.85
20
5.6
11
55.85
21
4.4
0
LINE
8
BLACK
6
CONTINUOUS
10
55.85
20
4.4
11
55.8462
21
4.38087
0
LINE
8
BLACK
6
CONTINUOUS
10
55.8462
20
4.38087
11
55.8354
21
4.36464
0
LINE
8
BLACK
6
CONTINUOUS
10
55.8354
20
4.36464
11
55.8191
21
4.35381
0
LINE
8
BLACK
6
CONTINUOUS
10
55.8191
20
4.35381
11
55.8
21
4.35
0
LINE
8
BLACK
6
CONTINUOUS
10
55.8
20
4.35
11
54.9
21
4.35
0
LINE
8
BLACK
6
CONTINUOUS
10
54.9
20
4.35
11
54.8809
21
4.35381
0
LINE
8
BLACK
6
CONTINUOUS
10
54.8809
20
4.35381
11
54.8646
21
4.36464
0
LINE
8
BLACK
6
CONTINUOUS
10
54.8646
20
4.36464
11
54.8538
21
4.38087
0
LINE
8
BLACK
6
CONTINUOUS
10
54.8538
20
4.38087
11
54.85
21
4.4
0
LINE
8
BLACK
6
CONTINUOUS
10
54.85
20
4.4
11
54.85
21
5.6
0
LINE
8
BLACK
6
CONTINUOUS
10
54.85
20
5.6
11
54.8538
21
5.61913
0
LINE
8
BLACK
6
CONTINUOUS
10
54.8538
20
5.61913
11
54.8646
21
5.63535
0
LINE
8
BLACK
6
CONTINUOUS
10
54.8646
20
5.63535
11
54.8809
21
5.64619
0
LINE
8
BLACK
6
CONTINUOUS
10
54.8809
20
5.64619
11
54.9
21
5.65
0
LINE
8
BLACK
6
CONTINUOUS
10
54.9
20
5.65
11
55.8
21
5.65
0
LINE
8
BLACK
6
CONTINUOUS
10
55.8
20
5.65
11
55.8191
21
5.64619
0
LINE
8
BLACK
6
CONTINUOUS
10
59.1191
20
5.64619
11
59.1354
21
5.63535
0
LINE
8
BLACK
6
CONTINUOUS
10
59.1354
20
5.63535
11
59.1462
21
5.61913
0
LINE
8
BLACK
6
CONTINUOUS
10
59.1462
20
5.61913
11
59.15
21
5.6
0
LINE
8
BLACK
6
CONTINUOUS
10
59.15
20
5.6
11
59.15
21
4.4
0
LINE
8
BLACK
6
CONTINUOUS
10
59.15
20
4.4
11
59.1462
21
4.38087
0
LINE
8
BLACK
6
CONTINUOUS
10
59.1462
20
4.38087
11
59.1354
21
4.36464
0
LINE
8
BLACK
6
CONTINUOUS
10
59.1354
20
4.36464
11
59.1191
21
4.35381
0
LINE
8
BLACK
6
CONTINUOUS
10
59.1191
20
4.35381
11
59.1
21
4.35
0
LINE
8
BLACK
6
CONTINUOUS
10
59.1
20
4.35
11
58.2
21
4.35
0
LINE
8
BLACK
6
CONTINUOUS
10
58.2
20
4.35
11
58.1809
21
4.35381
0
LINE
8
BLACK
6
CONTINUOUS
10
58.1809
20
4.35381
11
58.1646
21
4.36464
0
LINE
8
BLACK
6
CONTINUOUS
10
58.1646
20
4.36464
11
58.1538
21
4.38087
0
LINE
8
BLACK
6
CONTINUOUS
10
58.1538
20
4.38087
11
58.15
21
4.4
0
LINE
8
BLACK
6
CONTINUOUS
10
58.15
20
4.4
11
58.15
21
5.6
0
LINE
8
BLACK
6
CONTINUOUS
10
58.15
20
5.6
11
58.1538
21
5.61913
0
LINE
8
BLACK
6
CONTINUOUS
10
58.1538
20
5.61913
11
58.1646
21
5.63535
0
LINE
8
BLACK
6
CONTINUOUS
10
58.1646
20
5.63535
11
58.1809
21
5.64619
0
LINE
8
BLACK
6
CONTINUOUS
10
58.1809
20
5.64619
11
58.2
21
5.65
0
LINE
8
BLACK
6
CONTINUOUS
10
58.2
20
5.65
11
59.1
21
5.65
0
LINE
8
BLACK
6
CONTINUOUS
10
59.1
20
5.65
11
59.1191
21
5.64619
0
LINE
8
BLACK
6
CONTINUOUS
10
110.392
20
6.98202
11
110.578
21
6.92417
0
LINE
8
BLACK
6
CONTINUOUS
10
110.578
20
6.92417
11
110.751
21
6.83111
0
LINE
8
BLACK
6
CONTINUOUS
10
110.751
20
6.83111
11
110.901
21
6.7064
0
LINE
8
BLACK
6
CONTINUOUS
10
110.901
20
6.7064
11
111.025
21
6.55477
0
LINE
8
BLACK
6
CONTINUOUS
10
111.025
20
6.55477
11
111.117
21
6.38202
0
LINE
8
BLACK
6
CONTINUOUS
10
111.117
20
6.38202
11
111.173
21
6.19472
0
LINE
8
BLACK
6
CONTINUOUS
10
111.173
20
6.19472
11
111.192
21
6
0
LINE
8
BLACK
6
CONTINUOUS
10
111.192
20
6
11
111.192
21
5.97201
0
LINE
8
BLACK
6
CONTINUOUS
10
111.192
20
5.97201
11
111.168
21
5.7779
0
LINE
8
BLACK
6
CONTINUOUS
10
111.168
20
5.7779
11
111.106
21
5.59225
0
LINE
8
BLACK
6
CONTINUOUS
10
111.106
20
5.59225
11
111.009
21
5.42213
0
LINE
8
BLACK
6
CONTINUOUS
10
111.009
20
5.42213
11
110.881
21
5.27402
0
LINE
8
BLACK
6
CONTINUOUS
10
110.881
20
5.27402
11
110.727
21
5.15356
0
LINE
8
BLACK
6
CONTINUOUS
10
110.727
20
5.15356
11
110.553
21
5.06534
0
LINE
8
BLACK
6
CONTINUOUS
10
110.553
20
5.06534
11
110.364
21
5.01273
0
LINE
8
BLACK
6
CONTINUOUS
10
110.364
20
5.01273
11
110.169
21
4.99772
0
LINE
8
BLACK
6
CONTINUOUS
10
110.169
20
4.99772
11
109.975
21
5.02089
0
LINE
8
BLACK
6
CONTINUOUS
10
109.975
20
5.02089
11
109.789
21
5.08135
0
LINE
8
BLACK
6
CONTINUOUS
10
109.789
20
5.08135
11
109.618
21
5.1768
0
LINE
8
BLACK
6
CONTINUOUS
10
109.618
20
5.1768
11
109.469
21
5.30361
0
LINE
8
BLACK
6
CONTINUOUS
10
109.469
20
5.30361
11
109.347
21
5.45694
0
LINE
8
BLACK
6
CONTINUOUS
10
109.347
20
5.45694
11
109.258
21
5.63096
0
LINE
8
BLACK
6
CONTINUOUS
10
109.258
20
5.63096
11
109.204
21
5.81903
0
LINE
8
BLACK
6
CONTINUOUS
10
109.204
20
5.81903
11
109.188
21
6.014
0
LINE
8
BLACK
6
CONTINUOUS
10
109.188
20
6.014
11
109.209
21
6.20843
0
LINE
8
BLACK
6
CONTINUOUS
10
109.209
20
6.20843
11
109.269
21
6.39493
0
LINE
8
BLACK
6
CONTINUOUS
10
109.269
20
6.39493
11
109.363
21
6.56638
0
LINE
8
BLACK
6
CONTINUOUS
10
109.363
20
6.56638
11
109.489
21
6.71626
0
LINE
8
BLACK
6
CONTINUOUS
10
109.489
20
6.71626
11
109.641
21
6.83886
0
LINE
8
BLACK
6
CONTINUOUS
10
109.641
20
6.83886
11
109.814
21
6.9295
0
LINE
8
BLACK
6
CONTINUOUS
10
109.814
20
6.9295
11
110.002
21
6.98474
0
LINE
8
BLACK
6
CONTINUOUS
10
110.002
20
6.98474
11
110.197
21
7.00248
0
LINE
8
BLACK
6
CONTINUOUS
10
110.197
20
7.00248
11
110.392
21
6.98202
0
LINE
8
BLACK
6
CONTINUOUS
10
118.718
20
6.93519
11
118.734
21
6.92435
0
LINE
8
BLACK
6
CONTINUOUS
10
118.734
20
6.92435
11
118.745
21
6.90813
0
LINE
8
BLACK
6
CONTINUOUS
10
118.745
20
6.90813
11
118.749
21
6.889
0
LINE
8
BLACK
6
CONTINUOUS
10
118.749
20
6.889
11
118.749
21
5.111
0
LINE
8
BLACK
6
CONTINUOUS
10
118.749
20
5.111
11
118.745
21
5.09187
0
LINE
8
BLACK
6
CONTINUOUS
10
118.745
20
5.09187
11
118.734
21
5.07564
0
LINE
8
BLACK
6
CONTINUOUS
10
118.734
20
5.07564
11
118.718
21
5.06481
0
LINE
8
BLACK
6
CONTINUOUS
10
118.718
20
5.06481
11
118.699
21
5.061
0
LINE
8
BLACK
6
CONTINUOUS
10
118.699
20
5.061
11
116.921
21
5.061
0
LINE
8
BLACK
6
CONTINUOUS
10
116.921
20
5.061
11
116.902
21
5.06481
0
LINE
8
BLACK
6
CONTINUOUS
10
116.902
20
5.06481
11
116.886
21
5.07564
0
LINE
8
BLACK
6
CONTINUOUS
10
116.886
20
5.07564
11
116.875
21
5.09187
0
LINE
8
BLACK
6
CONTINUOUS
10
116.875
20
5.09187
11
116.871
21
5.111
0
LINE
8
BLACK
6
CONTINUOUS
10
116.871
20
5.111
11
116.871
21
6.889
0
LINE
8
BLACK
6
CONTINUOUS
10
116.871
20
6.889
11
116.875
21
6.90813
0
LINE
8
BLACK
6
CONTINUOUS
10
116.875
20
6.90813
11
116.886
21
6.92435
0
LINE
8
BLACK
6
CONTINUOUS
10
116.886
20
6.92435
11
116.902
21
6.93519
0
LINE
8
BLACK
6
CONTINUOUS
10
116.902
20
6.93519
11
116.921
21
6.939
0
LINE
8
BLACK
6
CONTINUOUS
10
116.921
20
6.939
11
118.699
21
6.939
0
LINE
8
BLACK
6
CONTINUOUS
10
118.699
20
6.939
11
118.718
21
6.93519
0
LINE
8
BLACK
6
CONTINUOUS
10
116.119
20
6.64619
11
116.135
21
6.63535
0
LINE
8
BLACK
6
CONTINUOUS
10
116.135
20
6.63535
11
116.146
21
6.61913
0
LINE
8
BLACK
6
CONTINUOUS
10
116.146
20
6.61913
11
116.15
21
6.6
0
LINE
8
BLACK
6
CONTINUOUS
10
116.15
20
6.6
11
116.15
21
5.4
0
LINE
8
BLACK
6
CONTINUOUS
10
116.15
20
5.4
11
116.146
21
5.38087
0
LINE
8
BLACK
6
CONTINUOUS
10
116.146
20
5.38087
11
116.135
21
5.36464
0
LINE
8
BLACK
6
CONTINUOUS
10
116.135
20
5.36464
11
116.119
21
5.35381
0
LINE
8
BLACK
6
CONTINUOUS
10
116.119
20
5.35381
11
116.1
21
5.35
0
LINE
8
BLACK
6
CONTINUOUS
10
116.1
20
5.35
11
115.2
21
5.35
0
LINE
8
BLACK
6
CONTINUOUS
10
115.2
20
5.35
11
115.181
21
5.35381
0
LINE
8
BLACK
6
CONTINUOUS
10
115.181
20
5.35381
11
115.165
21
5.36464
0
LINE
8
BLACK
6
CONTINUOUS
10
115.165
20
5.36464
11
115.154
21
5.38087
0
LINE
8
BLACK
6
CONTINUOUS
10
115.154
20
5.38087
11
115.15
21
5.4
0
LINE
8
BLACK
6
CONTINUOUS
10
115.15
20
5.4
11
115.15
21
6.6
0
LINE
8
BLACK
6
CONTINUOUS
10
115.15
20
6.6
11
115.154
21
6.61913
0
LINE
8
BLACK
6
CONTINUOUS
10
115.154
20
6.61913
11
115.165
21
6.63535
0
LINE
8
BLACK
6
CONTINUOUS
10
115.165
20
6.63535
11
115.181
21
6.64619
0
LINE
8
BLACK
6
CONTINUOUS
10
115.181
20
6.64619
11
115.2
21
6.65
0
LINE
8
BLACK
6
CONTINUOUS
10
115.2
20
6.65
11
116.1
21
6.65
0
LINE
8
BLACK
6
CONTINUOUS
10
116.1
20
6.65
11
116.119
21
6.64619
0
LINE
8
BLACK
6
CONTINUOUS
10
112.819
20
6.64619
11
112.835
21
6.63535
0
LINE
8
BLACK
6
CONTINUOUS
10
112.835
20
6.63535
11
112.846
21
6.61913
0
LINE
8
BLACK
6
CONTINUOUS
10
112.846
20
6.61913
11
112.85
21
6.6
0
LINE
8
BLACK
6
CONTINUOUS
10
112.85
20
6.6
11
112.85
21
5.4
0
LINE
8
BLACK
6
CONTINUOUS
10
112.85
20
5.4
11
112.846
21
5.38087
0
LINE
8
BLACK
6
CONTINUOUS
10
112.846
20
5.38087
11
112.835
21
5.36464
0
LINE
8
BLACK
6
CONTINUOUS
10
112.835
20
5.36464
11
112.819
21
5.35381
0
LINE
8
BLACK
6
CONTINUOUS
10
112.819
20
5.35381
11
112.8
21
5.35
0
LINE
8
BLACK
6
CONTINUOUS
10
112.8
20
5.35
11
111.9
21
5.35
0
LINE
8
BLACK
6
CONTINUOUS
10
111.9
20
5.35
11
111.881
21
5.35381
0
LINE
8
BLACK
6
CONTINUOUS
10
111.881
20
5.35381
11
111.865
21
5.36464
0
LINE
8
BLACK
6
CONTINUOUS
10
111.865
20
5.36464
11
111.854
21
5.38087
0
LINE
8
BLACK
6
CONTINUOUS
10
111.854
20
5.38087
11
111.85
21
5.4
0
LINE
8
BLACK
6
CONTINUOUS
10
111.85
20
5.4
11
111.85
21
6.6
0
LINE
8
BLACK
6
CONTINUOUS
10
111.85
20
6.6
11
111.854
21
6.61913
0
LINE
8
BLACK
6
CONTINUOUS
10
111.854
20
6.61913
11
111.865
21
6.63535
0
LINE
8
BLACK
6
CONTINUOUS
10
111.865
20
6.63535
11
111.881
21
6.64619
0
LINE
8
BLACK
6
CONTINUOUS
10
111.881
20
6.64619
11
111.9
21
6.65
0
LINE
8
BLACK
6
CONTINUOUS
10
111.9
20
6.65
11
112.8
21
6.65
0
LINE
8
BLACK
6
CONTINUOUS
10
112.8
20
6.65
11
112.819
21
6.64619
0
LINE
8
BLACK
6
CONTINUOUS
10
-3.60842
20
10.982
11
-3.42152
21
10.9242
0
LINE
8
BLACK
6
CONTINUOUS
10
-3.42152
20
10.9242
11
-3.24941
21
10.8311
0
LINE
8
BLACK
6
CONTINUOUS
10
-3.24941
20
10.8311
11
-3.09865
21
10.7064
0
LINE
8
BLACK
6
CONTINUOUS
10
-3.09865
20
10.7064
11
-2.975
21
10.5548
0
LINE
8
BLACK
6
CONTINUOUS
10
-2.975
20
10.5548
11
-2.88314
21
10.382
0
LINE
8
BLACK
6
CONTINUOUS
10
-2.88314
20
10.382
11
-2.82659
21
10.1947
0
LINE
8
BLACK
6
CONTINUOUS
10
-2.82659
20
10.1947
11
-2.8075
21
10
0
LINE
8
BLACK
6
CONTINUOUS
10
-2.8075
20
10
11
-2.80789
21
9.97201
0
LINE
8
BLACK
6
CONTINUOUS
10
-2.80789
20
9.97201
11
-2.83241
21
9.7779
0
LINE
8
BLACK
6
CONTINUOUS
10
-2.83241
20
9.7779
11
-2.89417
21
9.59225
0
LINE
8
BLACK
6
CONTINUOUS
10
-2.89417
20
9.59225
11
-2.99081
21
9.42213
0
LINE
8
BLACK
6
CONTINUOUS
10
-2.99081
20
9.42213
11
-3.11866
21
9.27402
0
LINE
8
BLACK
6
CONTINUOUS
10
-3.11866
20
9.27402
11
-3.27283
21
9.15356
0
LINE
8
BLACK
6
CONTINUOUS
10
-3.27283
20
9.15356
11
-3.44747
21
9.06534
0
LINE
8
BLACK
6
CONTINUOUS
10
-3.44747
20
9.06534
11
-3.63592
21
9.01273
0
LINE
8
BLACK
6
CONTINUOUS
10
-3.63592
20
9.01273
11
-3.83099
21
8.99772
0
LINE
8
BLACK
6
CONTINUOUS
10
-3.83099
20
8.99772
11
-4.02527
21
9.02089
0
LINE
8
BLACK
6
CONTINUOUS
10
-4.02527
20
9.02089
11
-4.21135
21
9.08135
0
LINE
8
BLACK
6
CONTINUOUS
10
-4.21135
20
9.08135
11
-4.38214
21
9.1768
0
LINE
8
BLACK
6
CONTINUOUS
10
-4.38214
20
9.1768
11
-4.53114
21
9.3036
0
LINE
8
BLACK
6
CONTINUOUS
10
-4.53114
20
9.3036
11
-4.65267
21
9.45694
0
LINE
8
BLACK
6
CONTINUOUS
10
-4.65267
20
9.45694
11
-4.7421
21
9.63096
0
LINE
8
BLACK
6
CONTINUOUS
10
-4.7421
20
9.63096
11
-4.79603
21
9.81903
0
LINE
8
BLACK
6
CONTINUOUS
10
-4.79603
20
9.81903
11
-4.8124
21
10.014
0
LINE
8
BLACK
6
CONTINUOUS
10
-4.8124
20
10.014
11
-4.79059
21
10.2084
0
LINE
8
BLACK
6
CONTINUOUS
10
-4.79059
20
10.2084
11
-4.73143
21
10.3949
0
LINE
8
BLACK
6
CONTINUOUS
10
-4.73143
20
10.3949
11
-4.63718
21
10.5664
0
LINE
8
BLACK
6
CONTINUOUS
10
-4.63718
20
10.5664
11
-4.51141
21
10.7163
0
LINE
8
BLACK
6
CONTINUOUS
10
-4.51141
20
10.7163
11
-4.35893
21
10.8389
0
LINE
8
BLACK
6
CONTINUOUS
10
-4.35893
20
10.8389
11
-4.18554
21
10.9295
0
LINE
8
BLACK
6
CONTINUOUS
10
-4.18554
20
10.9295
11
-3.99785
21
10.9847
0
LINE
8
BLACK
6
CONTINUOUS
10
-3.99785
20
10.9847
11
-3.803
21
11.0025
0
LINE
8
BLACK
6
CONTINUOUS
10
-3.803
20
11.0025
11
-3.60842
21
10.982
0
LINE
8
BLACK
6
CONTINUOUS
10
15.3916
20
10.982
11
15.5785
21
10.9242
0
LINE
8
BLACK
6
CONTINUOUS
10
15.5785
20
10.9242
11
15.7506
21
10.8311
0
LINE
8
BLACK
6
CONTINUOUS
10
15.7506
20
10.8311
11
15.9013
21
10.7064
0
LINE
8
BLACK
6
CONTINUOUS
10
15.9013
20
10.7064
11
16.025
21
10.5548
0
LINE
8
BLACK
6
CONTINUOUS
10
16.025
20
10.5548
11
16.1169
21
10.382
0
LINE
8
BLACK
6
CONTINUOUS
10
16.1169
20
10.382
11
16.1734
21
10.1947
0
LINE
8
BLACK
6
CONTINUOUS
10
16.1734
20
10.1947
11
16.1925
21
10
0
LINE
8
BLACK
6
CONTINUOUS
10
16.1925
20
10
11
16.1921
21
9.97201
0
LINE
8
BLACK
6
CONTINUOUS
10
16.1921
20
9.97201
11
16.1676
21
9.7779
0
LINE
8
BLACK
6
CONTINUOUS
10
16.1676
20
9.7779
11
16.1058
21
9.59225
0
LINE
8
BLACK
6
CONTINUOUS
10
16.1058
20
9.59225
11
16.0092
21
9.42213
0
LINE
8
BLACK
6
CONTINUOUS
10
16.0092
20
9.42213
11
15.8813
21
9.27402
0
LINE
8
BLACK
6
CONTINUOUS
10
15.8813
20
9.27402
11
15.7272
21
9.15356
0
LINE
8
BLACK
6
CONTINUOUS
10
15.7272
20
9.15356
11
15.5525
21
9.06534
0
LINE
8
BLACK
6
CONTINUOUS
10
15.5525
20
9.06534
11
15.3641
21
9.01273
0
LINE
8
BLACK
6
CONTINUOUS
10
15.3641
20
9.01273
11
15.169
21
8.99772
0
LINE
8
BLACK
6
CONTINUOUS
10
15.169
20
8.99772
11
14.9747
21
9.02089
0
LINE
8
BLACK
6
CONTINUOUS
10
14.9747
20
9.02089
11
14.7886
21
9.08135
0
LINE
8
BLACK
6
CONTINUOUS
10
14.7886
20
9.08135
11
14.6179
21
9.1768
0
LINE
8
BLACK
6
CONTINUOUS
10
14.6179
20
9.1768
11
14.4689
21
9.3036
0
LINE
8
BLACK
6
CONTINUOUS
10
14.4689
20
9.3036
11
14.3473
21
9.45694
0
LINE
8
BLACK
6
CONTINUOUS
10
14.3473
20
9.45694
11
14.2579
21
9.63096
0
LINE
8
BLACK
6
CONTINUOUS
10
14.2579
20
9.63096
11
14.204
21
9.81903
0
LINE
8
BLACK
6
CONTINUOUS
10
14.204
20
9.81903
11
14.1876
21
10.014
0
LINE
8
BLACK
6
CONTINUOUS
10
14.1876
20
10.014
11
14.2094
21
10.2084
0
LINE
8
BLACK
6
CONTINUOUS
10
14.2094
20
10.2084
11
14.2686
21
10.3949
0
LINE
8
BLACK
6
CONTINUOUS
10
14.2686
20
10.3949
11
14.3628
21
10.5664
0
LINE
8
BLACK
6
CONTINUOUS
10
14.3628
20
10.5664
11
14.4886
21
10.7163
0
LINE
8
BLACK
6
CONTINUOUS
10
14.4886
20
10.7163
11
14.6411
21
10.8389
0
LINE
8
BLACK
6
CONTINUOUS
10
14.6411
20
10.8389
11
14.8145
21
10.9295
0
LINE
8
BLACK
6
CONTINUOUS
10
14.8145
20
10.9295
11
15.0021
21
10.9847
0
LINE
8
BLACK
6
CONTINUOUS
10
15.0021
20
10.9847
11
15.197
21
11.0025
0
LINE
8
BLACK
6
CONTINUOUS
10
15.197
20
11.0025
11
15.3916
21
10.982
0
LINE
8
BLACK
6
CONTINUOUS
10
91.3916
20
10.982
11
91.5785
21
10.9242
0
LINE
8
BLACK
6
CONTINUOUS
10
91.5785
20
10.9242
11
91.7506
21
10.8311
0
LINE
8
BLACK
6
CONTINUOUS
10
91.7506
20
10.8311
11
91.9013
21
10.7064
0
LINE
8
BLACK
6
CONTINUOUS
10
91.9013
20
10.7064
11
92.025
21
10.5548
0
LINE
8
BLACK
6
CONTINUOUS
10
92.025
20
10.5548
11
92.1169
21
10.382
0
LINE
8
BLACK
6
CONTINUOUS
10
92.1169
20
10.382
11
92.1734
21
10.1947
0
LINE
8
BLACK
6
CONTINUOUS
10
92.1734
20
10.1947
11
92.1925
21
10
0
LINE
8
BLACK
6
CONTINUOUS
10
92.1925
20
10
11
92.1921
21
9.97201
0
LINE
8
BLACK
6
CONTINUOUS
10
92.1921
20
9.97201
11
92.1676
21
9.7779
0
LINE
8
BLACK
6
CONTINUOUS
10
92.1676
20
9.7779
11
92.1058
21
9.59225
0
LINE
8
BLACK
6
CONTINUOUS
10
92.1058
20
9.59225
11
92.0092
21
9.42213
0
LINE
8
BLACK
6
CONTINUOUS
10
92.0092
20
9.42213
11
91.8813
21
9.27402
0
LINE
8
BLACK
6
CONTINUOUS
10
91.8813
20
9.27402
11
91.7272
21
9.15356
0
LINE
8
BLACK
6
CONTINUOUS
10
91.7272
20
9.15356
11
91.5525
21
9.06534
0
LINE
8
BLACK
6
CONTINUOUS
10
91.5525
20
9.06534
11
91.3641
21
9.01273
0
LINE
8
BLACK
6
CONTINUOUS
10
91.3641
20
9.01273
11
91.169
21
8.99772
0
LINE
8
BLACK
6
CONTINUOUS
10
91.169
20
8.99772
11
90.9747
21
9.02089
0
LINE
8
BLACK
6
CONTINUOUS
10
90.9747
20
9.02089
11
90.7886
21
9.08135
0
LINE
8
BLACK
6
CONTINUOUS
10
90.7886
20
9.08135
11
90.6179
21
9.1768
0
LINE
8
BLACK
6
CONTINUOUS
10
90.6179
20
9.1768
11
90.4689
21
9.3036
0
LINE
8
BLACK
6
CONTINUOUS
10
90.4689
20
9.3036
11
90.3473
21
9.45694
0
LINE
8
BLACK
6
CONTINUOUS
10
90.3473
20
9.45694
11
90.2579
21
9.63096
0
LINE
8
BLACK
6
CONTINUOUS
10
90.2579
20
9.63096
11
90.204
21
9.81903
0
LINE
8
BLACK
6
CONTINUOUS
10
90.204
20
9.81903
11
90.1876
21
10.014
0
LINE
8
BLACK
6
CONTINUOUS
10
90.1876
20
10.014
11
90.2094
21
10.2084
0
LINE
8
BLACK
6
CONTINUOUS
10
90.2094
20
10.2084
11
90.2686
21
10.3949
0
LINE
8
BLACK
6
CONTINUOUS
10
90.2686
20
10.3949
11
90.3628
21
10.5664
0
LINE
8
BLACK
6
CONTINUOUS
10
90.3628
20
10.5664
11
90.4886
21
10.7163
0
LINE
8
BLACK
6
CONTINUOUS
10
90.4886
20
10.7163
11
90.6411
21
10.8389
0
LINE
8
BLACK
6
CONTINUOUS
10
90.6411
20
10.8389
11
90.8145
21
10.9295
0
LINE
8
BLACK
6
CONTINUOUS
10
90.8145
20
10.9295
11
91.0022
21
10.9847
0
LINE
8
BLACK
6
CONTINUOUS
10
91.0022
20
10.9847
11
91.197
21
11.0025
0
LINE
8
BLACK
6
CONTINUOUS
10
91.197
20
11.0025
11
91.3916
21
10.982
0
LINE
8
BLACK
6
CONTINUOUS
10
4.71813
20
10.9352
11
4.73435
21
10.9244
0
LINE
8
BLACK
6
CONTINUOUS
10
4.73435
20
10.9244
11
4.74519
21
10.9081
0
LINE
8
BLACK
6
CONTINUOUS
10
4.74519
20
10.9081
11
4.749
21
10.889
0
LINE
8
BLACK
6
CONTINUOUS
10
4.749
20
10.889
11
4.749
21
9.111
0
LINE
8
BLACK
6
CONTINUOUS
10
4.749
20
9.111
11
4.74519
21
9.09187
0
LINE
8
BLACK
6
CONTINUOUS
10
4.74519
20
9.09187
11
4.73435
21
9.07564
0
LINE
8
BLACK
6
CONTINUOUS
10
4.73435
20
9.07564
11
4.71813
21
9.06481
0
LINE
8
BLACK
6
CONTINUOUS
10
4.71813
20
9.06481
11
4.699
21
9.061
0
LINE
8
BLACK
6
CONTINUOUS
10
4.699
20
9.061
11
2.921
21
9.061
0
LINE
8
BLACK
6
CONTINUOUS
10
2.921
20
9.061
11
2.90187
21
9.06481
0
LINE
8
BLACK
6
CONTINUOUS
10
2.90187
20
9.06481
11
2.88564
21
9.07564
0
LINE
8
BLACK
6
CONTINUOUS
10
2.88564
20
9.07564
11
2.87481
21
9.09187
0
LINE
8
BLACK
6
CONTINUOUS
10
2.87481
20
9.09187
11
2.871
21
9.111
0
LINE
8
BLACK
6
CONTINUOUS
10
2.871
20
9.111
11
2.871
21
10.889
0
LINE
8
BLACK
6
CONTINUOUS
10
2.871
20
10.889
11
2.87481
21
10.9081
0
LINE
8
BLACK
6
CONTINUOUS
10
2.87481
20
10.9081
11
2.88564
21
10.9244
0
LINE
8
BLACK
6
CONTINUOUS
10
2.88564
20
10.9244
11
2.90187
21
10.9352
0
LINE
8
BLACK
6
CONTINUOUS
10
2.90187
20
10.9352
11
2.921
21
10.939
0
LINE
8
BLACK
6
CONTINUOUS
10
2.921
20
10.939
11
4.699
21
10.939
0
LINE
8
BLACK
6
CONTINUOUS
10
4.699
20
10.939
11
4.71813
21
10.9352
0
LINE
8
BLACK
6
CONTINUOUS
10
99.7181
20
10.9352
11
99.7344
21
10.9244
0
LINE
8
BLACK
6
CONTINUOUS
10
99.7344
20
10.9244
11
99.7452
21
10.9081
0
LINE
8
BLACK
6
CONTINUOUS
10
99.7452
20
10.9081
11
99.749
21
10.889
0
LINE
8
BLACK
6
CONTINUOUS
10
99.749
20
10.889
11
99.749
21
9.111
0
LINE
8
BLACK
6
CONTINUOUS
10
99.749
20
9.111
11
99.7452
21
9.09187
0
LINE
8
BLACK
6
CONTINUOUS
10
99.7452
20
9.09187
11
99.7344
21
9.07564
0
LINE
8
BLACK
6
CONTINUOUS
10
99.7344
20
9.07564
11
99.7181
21
9.06481
0
LINE
8
BLACK
6
CONTINUOUS
10
99.7181
20
9.06481
11
99.699
21
9.061
0
LINE
8
BLACK
6
CONTINUOUS
10
99.699
20
9.061
11
97.921
21
9.061
0
LINE
8
BLACK
6
CONTINUOUS
10
97.921
20
9.061
11
97.9019
21
9.06481
0
LINE
8
BLACK
6
CONTINUOUS
10
97.9019
20
9.06481
11
97.8856
21
9.07564
0
LINE
8
BLACK
6
CONTINUOUS
10
97.8856
20
9.07564
11
97.8748
21
9.09187
0
LINE
8
BLACK
6
CONTINUOUS
10
97.8748
20
9.09187
11
97.871
21
9.111
0
LINE
8
BLACK
6
CONTINUOUS
10
97.871
20
9.111
11
97.871
21
10.889
0
LINE
8
BLACK
6
CONTINUOUS
10
97.871
20
10.889
11
97.8748
21
10.9081
0
LINE
8
BLACK
6
CONTINUOUS
10
97.8748
20
10.9081
11
97.8856
21
10.9244
0
LINE
8
BLACK
6
CONTINUOUS
10
97.8856
20
10.9244
11
97.9019
21
10.9352
0
LINE
8
BLACK
6
CONTINUOUS
10
97.9019
20
10.9352
11
97.921
21
10.939
0
LINE
8
BLACK
6
CONTINUOUS
10
97.921
20
10.939
11
99.699
21
10.939
0
LINE
8
BLACK
6
CONTINUOUS
10
99.699
20
10.939
11
99.7181
21
10.9352
0
LINE
8
BLACK
6
CONTINUOUS
10
23.7181
20
10.9352
11
23.7344
21
10.9244
0
LINE
8
BLACK
6
CONTINUOUS
10
23.7344
20
10.9244
11
23.7452
21
10.9081
0
LINE
8
BLACK
6
CONTINUOUS
10
23.7452
20
10.9081
11
23.749
21
10.889
0
LINE
8
BLACK
6
CONTINUOUS
10
23.749
20
10.889
11
23.749
21
9.111
0
LINE
8
BLACK
6
CONTINUOUS
10
23.749
20
9.111
11
23.7452
21
9.09187
0
LINE
8
BLACK
6
CONTINUOUS
10
23.7452
20
9.09187
11
23.7344
21
9.07564
0
LINE
8
BLACK
6
CONTINUOUS
10
23.7344
20
9.07564
11
23.7181
21
9.06481
0
LINE
8
BLACK
6
CONTINUOUS
10
23.7181
20
9.06481
11
23.699
21
9.061
0
LINE
8
BLACK
6
CONTINUOUS
10
23.699
20
9.061
11
21.921
21
9.061
0
LINE
8
BLACK
6
CONTINUOUS
10
21.921
20
9.061
11
21.9019
21
9.06481
0
LINE
8
BLACK
6
CONTINUOUS
10
21.9019
20
9.06481
11
21.8856
21
9.07564
0
LINE
8
BLACK
6
CONTINUOUS
10
21.8856
20
9.07564
11
21.8748
21
9.09187
0
LINE
8
BLACK
6
CONTINUOUS
10
21.8748
20
9.09187
11
21.871
21
9.111
0
LINE
8
BLACK
6
CONTINUOUS
10
21.871
20
9.111
11
21.871
21
10.889
0
LINE
8
BLACK
6
CONTINUOUS
10
21.871
20
10.889
11
21.8748
21
10.9081
0
LINE
8
BLACK
6
CONTINUOUS
10
21.8748
20
10.9081
11
21.8856
21
10.9244
0
LINE
8
BLACK
6
CONTINUOUS
10
21.8856
20
10.9244
11
21.9019
21
10.9352
0
LINE
8
BLACK
6
CONTINUOUS
10
21.9019
20
10.9352
11
21.921
21
10.939
0
LINE
8
BLACK
6
CONTINUOUS
10
21.921
20
10.939
11
23.699
21
10.939
0
LINE
8
BLACK
6
CONTINUOUS
10
23.699
20
10.939
11
23.7181
21
10.9352
0
LINE
8
BLACK
6
CONTINUOUS
10
2.11913
20
10.6462
11
2.13536
21
10.6354
0
LINE
8
BLACK
6
CONTINUOUS
10
2.13536
20
10.6354
11
2.14619
21
10.6191
0
LINE
8
BLACK
6
CONTINUOUS
10
2.14619
20
10.6191
11
2.15
21
10.6
0
LINE
8
BLACK
6
CONTINUOUS
10
2.15
20
10.6
11
2.15
21
9.4
0
LINE
8
BLACK
6
CONTINUOUS
10
2.15
20
9.4
11
2.14619
21
9.38087
0
LINE
8
BLACK
6
CONTINUOUS
10
2.14619
20
9.38087
11
2.13536
21
9.36464
0
LINE
8
BLACK
6
CONTINUOUS
10
2.13536
20
9.36464
11
2.11913
21
9.35381
0
LINE
8
BLACK
6
CONTINUOUS
10
2.11913
20
9.35381
11
2.1
21
9.35
0
LINE
8
BLACK
6
CONTINUOUS
10
2.1
20
9.35
11
1.2
21
9.35
0
LINE
8
BLACK
6
CONTINUOUS
10
1.2
20
9.35
11
1.18087
21
9.35381
0
LINE
8
BLACK
6
CONTINUOUS
10
1.18087
20
9.35381
11
1.16464
21
9.36464
0
LINE
8
BLACK
6
CONTINUOUS
10
1.16464
20
9.36464
11
1.15381
21
9.38087
0
LINE
8
BLACK
6
CONTINUOUS
10
1.15381
20
9.38087
11
1.15
21
9.4
0
LINE
8
BLACK
6
CONTINUOUS
10
1.15
20
9.4
11
1.15
21
10.6
0
LINE
8
BLACK
6
CONTINUOUS
10
1.15
20
10.6
11
1.15381
21
10.6191
0
LINE
8
BLACK
6
CONTINUOUS
10
1.15381
20
10.6191
11
1.16464
21
10.6354
0
LINE
8
BLACK
6
CONTINUOUS
10
1.16464
20
10.6354
11
1.18087
21
10.6462
0
LINE
8
BLACK
6
CONTINUOUS
10
1.18087
20
10.6462
11
1.2
21
10.65
0
LINE
8
BLACK
6
CONTINUOUS
10
1.2
20
10.65
11
2.1
21
10.65
0
LINE
8
BLACK
6
CONTINUOUS
10
2.1
20
10.65
11
2.11913
21
10.6462
0
LINE
8
BLACK
6
CONTINUOUS
10
93.8191
20
10.6462
11
93.8354
21
10.6354
0
LINE
8
BLACK
6
CONTINUOUS
10
93.8354
20
10.6354
11
93.8462
21
10.6191
0
LINE
8
BLACK
6
CONTINUOUS
10
93.8462
20
10.6191
11
93.85
21
10.6
0
LINE
8
BLACK
6
CONTINUOUS
10
93.85
20
10.6
11
93.85
21
9.4
0
LINE
8
BLACK
6
CONTINUOUS
10
93.85
20
9.4
11
93.8462
21
9.38087
0
LINE
8
BLACK
6
CONTINUOUS
10
93.8462
20
9.38087
11
93.8354
21
9.36464
0
LINE
8
BLACK
6
CONTINUOUS
10
93.8354
20
9.36464
11
93.8191
21
9.35381
0
LINE
8
BLACK
6
CONTINUOUS
10
93.8191
20
9.35381
11
93.8
21
9.35
0
LINE
8
BLACK
6
CONTINUOUS
10
93.8
20
9.35
11
92.9
21
9.35
0
LINE
8
BLACK
6
CONTINUOUS
10
92.9
20
9.35
11
92.8809
21
9.35381
0
LINE
8
BLACK
6
CONTINUOUS
10
92.8809
20
9.35381
11
92.8646
21
9.36464
0
LINE
8
BLACK
6
CONTINUOUS
10
92.8646
20
9.36464
11
92.8538
21
9.38087
0
LINE
8
BLACK
6
CONTINUOUS
10
92.8538
20
9.38087
11
92.85
21
9.4
0
LINE
8
BLACK
6
CONTINUOUS
10
92.85
20
9.4
11
92.85
21
10.6
0
LINE
8
BLACK
6
CONTINUOUS
10
92.85
20
10.6
11
92.8538
21
10.6191
0
LINE
8
BLACK
6
CONTINUOUS
10
92.8538
20
10.6191
11
92.8646
21
10.6354
0
LINE
8
BLACK
6
CONTINUOUS
10
92.8646
20
10.6354
11
92.8809
21
10.6462
0
LINE
8
BLACK
6
CONTINUOUS
10
92.8809
20
10.6462
11
92.9
21
10.65
0
LINE
8
BLACK
6
CONTINUOUS
10
92.9
20
10.65
11
93.8
21
10.65
0
LINE
8
BLACK
6
CONTINUOUS
10
93.8
20
10.65
11
93.8191
21
10.6462
0
LINE
8
BLACK
6
CONTINUOUS
10
-1.18087
20
10.6462
11
-1.16464
21
10.6354
0
LINE
8
BLACK
6
CONTINUOUS
10
-1.16464
20
10.6354
11
-1.15381
21
10.6191
0
LINE
8
BLACK
6
CONTINUOUS
10
-1.15381
20
10.6191
11
-1.15
21
10.6
0
LINE
8
BLACK
6
CONTINUOUS
10
-1.15
20
10.6
11
-1.15
21
9.4
0
LINE
8
BLACK
6
CONTINUOUS
10
-1.15
20
9.4
11
-1.15381
21
9.38087
0
LINE
8
BLACK
6
CONTINUOUS
10
-1.15381
20
9.38087
11
-1.16464
21
9.36464
0
LINE
8
BLACK
6
CONTINUOUS
10
-1.16464
20
9.36464
11
-1.18087
21
9.35381
0
LINE
8
BLACK
6
CONTINUOUS
10
-1.18087
20
9.35381
11
-1.2
21
9.35
0
LINE
8
BLACK
6
CONTINUOUS
10
-1.2
20
9.35
11
-2.1
21
9.35
0
LINE
8
BLACK
6
CONTINUOUS
10
-2.1
20
9.35
11
-2.11913
21
9.35381
0
LINE
8
BLACK
6
CONTINUOUS
10
-2.11913
20
9.35381
11
-2.13536
21
9.36464
0
LINE
8
BLACK
6
CONTINUOUS
10
-2.13536
20
9.36464
11
-2.14619
21
9.38087
0
LINE
8
BLACK
6
CONTINUOUS
10
-2.14619
20
9.38087
11
-2.15
21
9.4
0
LINE
8
BLACK
6
CONTINUOUS
10
-2.15
20
9.4
11
-2.15
21
10.6
0
LINE
8
BLACK
6
CONTINUOUS
10
-2.15
20
10.6
11
-2.14619
21
10.6191
0
LINE
8
BLACK
6
CONTINUOUS
10
-2.14619
20
10.6191
11
-2.13536
21
10.6354
0
LINE
8
BLACK
6
CONTINUOUS
10
-2.13536
20
10.6354
11
-2.11913
21
10.6462
0
LINE
8
BLACK
6
CONTINUOUS
10
-2.11913
20
10.6462
11
-2.1
21
10.65
0
LINE
8
BLACK
6
CONTINUOUS
10
-2.1
20
10.65
11
-1.2
21
10.65
0
LINE
8
BLACK
6
CONTINUOUS
10
-1.2
20
10.65
11
-1.18087
21
10.6462
0
LINE
8
BLACK
6
CONTINUOUS
10
97.1191
20
10.6462
11
97.1354
21
10.6354
0
LINE
8
BLACK
6
CONTINUOUS
10
97.1354
20
10.6354
11
97.1462
21
10.6191
0
LINE
8
BLACK
6
CONTINUOUS
10
97.1462
20
10.6191
11
97.15
21
10.6
0
LINE
8
BLACK
6
CONTINUOUS
10
97.15
20
10.6
11
97.15
21
9.4
0
LINE
8
BLACK
6
CONTINUOUS
10
97.15
20
9.4
11
97.1462
21
9.38087
0
LINE
8
BLACK
6
CONTINUOUS
10
97.1462
20
9.38087
11
97.1354
21
9.36464
0
LINE
8
BLACK
6
CONTINUOUS
10
97.1354
20
9.36464
11
97.1191
21
9.35381
0
LINE
8
BLACK
6
CONTINUOUS
10
97.1191
20
9.35381
11
97.1
21
9.35
0
LINE
8
BLACK
6
CONTINUOUS
10
97.1
20
9.35
11
96.2
21
9.35
0
LINE
8
BLACK
6
CONTINUOUS
10
96.2
20
9.35
11
96.1809
21
9.35381
0
LINE
8
BLACK
6
CONTINUOUS
10
96.1809
20
9.35381
11
96.1646
21
9.36464
0
LINE
8
BLACK
6
CONTINUOUS
10
96.1646
20
9.36464
11
96.1538
21
9.38087
0
LINE
8
BLACK
6
CONTINUOUS
10
96.1538
20
9.38087
11
96.15
21
9.4
0
LINE
8
BLACK
6
CONTINUOUS
10
96.15
20
9.4
11
96.15
21
10.6
0
LINE
8
BLACK
6
CONTINUOUS
10
96.15
20
10.6
11
96.1538
21
10.6191
0
LINE
8
BLACK
6
CONTINUOUS
10
96.1538
20
10.6191
11
96.1646
21
10.6354
0
LINE
8
BLACK
6
CONTINUOUS
10
96.1646
20
10.6354
11
96.1809
21
10.6462
0
LINE
8
BLACK
6
CONTINUOUS
10
96.1809
20
10.6462
11
96.2
21
10.65
0
LINE
8
BLACK
6
CONTINUOUS
10
96.2
20
10.65
11
97.1
21
10.65
0
LINE
8
BLACK
6
CONTINUOUS
10
97.1
20
10.65
11
97.1191
21
10.6462
0
LINE
8
BLACK
6
CONTINUOUS
10
17.8191
20
10.6462
11
17.8354
21
10.6354
0
LINE
8
BLACK
6
CONTINUOUS
10
17.8354
20
10.6354
11
17.8462
21
10.6191
0
LINE
8
BLACK
6
CONTINUOUS
10
17.8462
20
10.6191
11
17.85
21
10.6
0
LINE
8
BLACK
6
CONTINUOUS
10
17.85
20
10.6
11
17.85
21
9.4
0
LINE
8
BLACK
6
CONTINUOUS
10
17.85
20
9.4
11
17.8462
21
9.38087
0
LINE
8
BLACK
6
CONTINUOUS
10
17.8462
20
9.38087
11
17.8354
21
9.36464
0
LINE
8
BLACK
6
CONTINUOUS
10
17.8354
20
9.36464
11
17.8191
21
9.35381
0
LINE
8
BLACK
6
CONTINUOUS
10
17.8191
20
9.35381
11
17.8
21
9.35
0
LINE
8
BLACK
6
CONTINUOUS
10
17.8
20
9.35
11
16.9
21
9.35
0
LINE
8
BLACK
6
CONTINUOUS
10
16.9
20
9.35
11
16.8809
21
9.35381
0
LINE
8
BLACK
6
CONTINUOUS
10
16.8809
20
9.35381
11
16.8646
21
9.36464
0
LINE
8
BLACK
6
CONTINUOUS
10
16.8646
20
9.36464
11
16.8538
21
9.38087
0
LINE
8
BLACK
6
CONTINUOUS
10
16.8538
20
9.38087
11
16.85
21
9.4
0
LINE
8
BLACK
6
CONTINUOUS
10
16.85
20
9.4
11
16.85
21
10.6
0
LINE
8
BLACK
6
CONTINUOUS
10
16.85
20
10.6
11
16.8538
21
10.6191
0
LINE
8
BLACK
6
CONTINUOUS
10
16.8538
20
10.6191
11
16.8646
21
10.6354
0
LINE
8
BLACK
6
CONTINUOUS
10
16.8646
20
10.6354
11
16.8809
21
10.6462
0
LINE
8
BLACK
6
CONTINUOUS
10
16.8809
20
10.6462
11
16.9
21
10.65
0
LINE
8
BLACK
6
CONTINUOUS
10
16.9
20
10.65
11
17.8
21
10.65
0
LINE
8
BLACK
6
CONTINUOUS
10
17.8
20
10.65
11
17.8191
21
10.6462
0
LINE
8
BLACK
6
CONTINUOUS
10
21.1191
20
10.6462
11
21.1354
21
10.6354
0
LINE
8
BLACK
6
CONTINUOUS
10
21.1354
20
10.6354
11
21.1462
21
10.6191
0
LINE
8
BLACK
6
CONTINUOUS
10
21.1462
20
10.6191
11
21.15
21
10.6
0
LINE
8
BLACK
6
CONTINUOUS
10
21.15
20
10.6
11
21.15
21
9.4
0
LINE
8
BLACK
6
CONTINUOUS
10
21.15
20
9.4
11
21.1462
21
9.38087
0
LINE
8
BLACK
6
CONTINUOUS
10
21.1462
20
9.38087
11
21.1354
21
9.36464
0
LINE
8
BLACK
6
CONTINUOUS
10
21.1354
20
9.36464
11
21.1191
21
9.35381
0
LINE
8
BLACK
6
CONTINUOUS
10
21.1191
20
9.35381
11
21.1
21
9.35
0
LINE
8
BLACK
6
CONTINUOUS
10
21.1
20
9.35
11
20.2
21
9.35
0
LINE
8
BLACK
6
CONTINUOUS
10
20.2
20
9.35
11
20.1809
21
9.35381
0
LINE
8
BLACK
6
CONTINUOUS
10
20.1809
20
9.35381
11
20.1646
21
9.36464
0
LINE
8
BLACK
6
CONTINUOUS
10
20.1646
20
9.36464
11
20.1538
21
9.38087
0
LINE
8
BLACK
6
CONTINUOUS
10
20.1538
20
9.38087
11
20.15
21
9.4
0
LINE
8
BLACK
6
CONTINUOUS
10
20.15
20
9.4
11
20.15
21
10.6
0
LINE
8
BLACK
6
CONTINUOUS
10
20.15
20
10.6
11
20.1538
21
10.6191
0
LINE
8
BLACK
6
CONTINUOUS
10
20.1538
20
10.6191
11
20.1646
21
10.6354
0
LINE
8
BLACK
6
CONTINUOUS
10
20.1646
20
10.6354
11
20.1809
21
10.6462
0
LINE
8
BLACK
6
CONTINUOUS
10
20.1809
20
10.6462
11
20.2
21
10.65
0
LINE
8
BLACK
6
CONTINUOUS
10
20.2
20
10.65
11
21.1
21
10.65
0
LINE
8
BLACK
6
CONTINUOUS
10
21.1
20
10.65
11
21.1191
21
10.6462
0
LINE
8
BLACK
6
CONTINUOUS
10
34.3916
20
17.982
11
34.5785
21
17.9242
0
LINE
8
BLACK
6
CONTINUOUS
10
34.5785
20
17.9242
11
34.7506
21
17.8311
0
LINE
8
BLACK
6
CONTINUOUS
10
34.7506
20
17.8311
11
34.9013
21
17.7064
0
LINE
8
BLACK
6
CONTINUOUS
10
34.9013
20
17.7064
11
35.025
21
17.5548
0
LINE
8
BLACK
6
CONTINUOUS
10
35.025
20
17.5548
11
35.1169
21
17.382
0
LINE
8
BLACK
6
CONTINUOUS
10
35.1169
20
17.382
11
35.1734
21
17.1947
0
LINE
8
BLACK
6
CONTINUOUS
10
35.1734
20
17.1947
11
35.1925
21
17
0
LINE
8
BLACK
6
CONTINUOUS
10
35.1925
20
17
11
35.1921
21
16.972
0
LINE
8
BLACK
6
CONTINUOUS
10
35.1921
20
16.972
11
35.1676
21
16.7779
0
LINE
8
BLACK
6
CONTINUOUS
10
35.1676
20
16.7779
11
35.1058
21
16.5922
0
LINE
8
BLACK
6
CONTINUOUS
10
35.1058
20
16.5922
11
35.0092
21
16.4221
0
LINE
8
BLACK
6
CONTINUOUS
10
35.0092
20
16.4221
11
34.8813
21
16.274
0
LINE
8
BLACK
6
CONTINUOUS
10
34.8813
20
16.274
11
34.7272
21
16.1536
0
LINE
8
BLACK
6
CONTINUOUS
10
34.7272
20
16.1536
11
34.5525
21
16.0653
0
LINE
8
BLACK
6
CONTINUOUS
10
34.5525
20
16.0653
11
34.3641
21
16.0127
0
LINE
8
BLACK
6
CONTINUOUS
10
34.3641
20
16.0127
11
34.169
21
15.9977
0
LINE
8
BLACK
6
CONTINUOUS
10
34.169
20
15.9977
11
33.9747
21
16.0209
0
LINE
8
BLACK
6
CONTINUOUS
10
33.9747
20
16.0209
11
33.7886
21
16.0813
0
LINE
8
BLACK
6
CONTINUOUS
10
33.7886
20
16.0813
11
33.6179
21
16.1768
0
LINE
8
BLACK
6
CONTINUOUS
10
33.6179
20
16.1768
11
33.4689
21
16.3036
0
LINE
8
BLACK
6
CONTINUOUS
10
33.4689
20
16.3036
11
33.3473
21
16.4569
0
LINE
8
BLACK
6
CONTINUOUS
10
33.3473
20
16.4569
11
33.2579
21
16.631
0
LINE
8
BLACK
6
CONTINUOUS
10
33.2579
20
16.631
11
33.204
21
16.819
0
LINE
8
BLACK
6
CONTINUOUS
10
33.204
20
16.819
11
33.1876
21
17.014
0
LINE
8
BLACK
6
CONTINUOUS
10
33.1876
20
17.014
11
33.2094
21
17.2084
0
LINE
8
BLACK
6
CONTINUOUS
10
33.2094
20
17.2084
11
33.2686
21
17.3949
0
LINE
8
BLACK
6
CONTINUOUS
10
33.2686
20
17.3949
11
33.3628
21
17.5664
0
LINE
8
BLACK
6
CONTINUOUS
10
33.3628
20
17.5664
11
33.4886
21
17.7163
0
LINE
8
BLACK
6
CONTINUOUS
10
33.4886
20
17.7163
11
33.6411
21
17.8389
0
LINE
8
BLACK
6
CONTINUOUS
10
33.6411
20
17.8389
11
33.8145
21
17.9295
0
LINE
8
BLACK
6
CONTINUOUS
10
33.8145
20
17.9295
11
34.0022
21
17.9847
0
LINE
8
BLACK
6
CONTINUOUS
10
34.0022
20
17.9847
11
34.197
21
18.0025
0
LINE
8
BLACK
6
CONTINUOUS
10
34.197
20
18.0025
11
34.3916
21
17.982
0
LINE
8
BLACK
6
CONTINUOUS
10
72.3916
20
17.982
11
72.5785
21
17.9242
0
LINE
8
BLACK
6
CONTINUOUS
10
72.5785
20
17.9242
11
72.7506
21
17.8311
0
LINE
8
BLACK
6
CONTINUOUS
10
72.7506
20
17.8311
11
72.9013
21
17.7064
0
LINE
8
BLACK
6
CONTINUOUS
10
72.9013
20
17.7064
11
73.025
21
17.5548
0
LINE
8
BLACK
6
CONTINUOUS
10
73.025
20
17.5548
11
73.1169
21
17.382
0
LINE
8
BLACK
6
CONTINUOUS
10
73.1169
20
17.382
11
73.1734
21
17.1947
0
LINE
8
BLACK
6
CONTINUOUS
10
73.1734
20
17.1947
11
73.1925
21
17
0
LINE
8
BLACK
6
CONTINUOUS
10
73.1925
20
17
11
73.1921
21
16.972
0
LINE
8
BLACK
6
CONTINUOUS
10
73.1921
20
16.972
11
73.1676
21
16.7779
0
LINE
8
BLACK
6
CONTINUOUS
10
73.1676
20
16.7779
11
73.1058
21
16.5922
0
LINE
8
BLACK
6
CONTINUOUS
10
73.1058
20
16.5922
11
73.0092
21
16.4221
0
LINE
8
BLACK
6
CONTINUOUS
10
73.0092
20
16.4221
11
72.8813
21
16.274
0
LINE
8
BLACK
6
CONTINUOUS
10
72.8813
20
16.274
11
72.7272
21
16.1536
0
LINE
8
BLACK
6
CONTINUOUS
10
72.7272
20
16.1536
11
72.5525
21
16.0653
0
LINE
8
BLACK
6
CONTINUOUS
10
72.5525
20
16.0653
11
72.3641
21
16.0127
0
LINE
8
BLACK
6
CONTINUOUS
10
72.3641
20
16.0127
11
72.169
21
15.9977
0
LINE
8
BLACK
6
CONTINUOUS
10
72.169
20
15.9977
11
71.9747
21
16.0209
0
LINE
8
BLACK
6
CONTINUOUS
10
71.9747
20
16.0209
11
71.7886
21
16.0813
0
LINE
8
BLACK
6
CONTINUOUS
10
71.7886
20
16.0813
11
71.6179
21
16.1768
0
LINE
8
BLACK
6
CONTINUOUS
10
71.6179
20
16.1768
11
71.4689
21
16.3036
0
LINE
8
BLACK
6
CONTINUOUS
10
71.4689
20
16.3036
11
71.3473
21
16.4569
0
LINE
8
BLACK
6
CONTINUOUS
10
71.3473
20
16.4569
11
71.2579
21
16.631
0
LINE
8
BLACK
6
CONTINUOUS
10
71.2579
20
16.631
11
71.204
21
16.819
0
LINE
8
BLACK
6
CONTINUOUS
10
71.204
20
16.819
11
71.1876
21
17.014
0
LINE
8
BLACK
6
CONTINUOUS
10
71.1876
20
17.014
11
71.2094
21
17.2084
0
LINE
8
BLACK
6
CONTINUOUS
10
71.2094
20
17.2084
11
71.2686
21
17.3949
0
LINE
8
BLACK
6
CONTINUOUS
10
71.2686
20
17.3949
11
71.3628
21
17.5664
0
LINE
8
BLACK
6
CONTINUOUS
10
71.3628
20
17.5664
11
71.4886
21
17.7163
0
LINE
8
BLACK
6
CONTINUOUS
10
71.4886
20
17.7163
11
71.6411
21
17.8389
0
LINE
8
BLACK
6
CONTINUOUS
10
71.6411
20
17.8389
11
71.8145
21
17.9295
0
LINE
8
BLACK
6
CONTINUOUS
10
71.8145
20
17.9295
11
72.0022
21
17.9847
0
LINE
8
BLACK
6
CONTINUOUS
10
72.0022
20
17.9847
11
72.197
21
18.0025
0
LINE
8
BLACK
6
CONTINUOUS
10
72.197
20
18.0025
11
72.3916
21
17.982
0
LINE
8
BLACK
6
CONTINUOUS
10
42.7181
20
17.9352
11
42.7344
21
17.9244
0
LINE
8
BLACK
6
CONTINUOUS
10
42.7344
20
17.9244
11
42.7452
21
17.9081
0
LINE
8
BLACK
6
CONTINUOUS
10
42.7452
20
17.9081
11
42.749
21
17.889
0
LINE
8
BLACK
6
CONTINUOUS
10
42.749
20
17.889
11
42.749
21
16.111
0
LINE
8
BLACK
6
CONTINUOUS
10
42.749
20
16.111
11
42.7452
21
16.0919
0
LINE
8
BLACK
6
CONTINUOUS
10
42.7452
20
16.0919
11
42.7344
21
16.0756
0
LINE
8
BLACK
6
CONTINUOUS
10
42.7344
20
16.0756
11
42.7181
21
16.0648
0
LINE
8
BLACK
6
CONTINUOUS
10
42.7181
20
16.0648
11
42.699
21
16.061
0
LINE
8
BLACK
6
CONTINUOUS
10
42.699
20
16.061
11
40.921
21
16.061
0
LINE
8
BLACK
6
CONTINUOUS
10
40.921
20
16.061
11
40.9019
21
16.0648
0
LINE
8
BLACK
6
CONTINUOUS
10
40.9019
20
16.0648
11
40.8856
21
16.0756
0
LINE
8
BLACK
6
CONTINUOUS
10
40.8856
20
16.0756
11
40.8748
21
16.0919
0
LINE
8
BLACK
6
CONTINUOUS
10
40.8748
20
16.0919
11
40.871
21
16.111
0
LINE
8
BLACK
6
CONTINUOUS
10
40.871
20
16.111
11
40.871
21
17.889
0
LINE
8
BLACK
6
CONTINUOUS
10
40.871
20
17.889
11
40.8748
21
17.9081
0
LINE
8
BLACK
6
CONTINUOUS
10
40.8748
20
17.9081
11
40.8856
21
17.9244
0
LINE
8
BLACK
6
CONTINUOUS
10
40.8856
20
17.9244
11
40.9019
21
17.9352
0
LINE
8
BLACK
6
CONTINUOUS
10
40.9019
20
17.9352
11
40.921
21
17.939
0
LINE
8
BLACK
6
CONTINUOUS
10
40.921
20
17.939
11
42.699
21
17.939
0
LINE
8
BLACK
6
CONTINUOUS
10
42.699
20
17.939
11
42.7181
21
17.9352
0
LINE
8
BLACK
6
CONTINUOUS
10
80.7181
20
17.9352
11
80.7344
21
17.9244
0
LINE
8
BLACK
6
CONTINUOUS
10
80.7344
20
17.9244
11
80.7452
21
17.9081
0
LINE
8
BLACK
6
CONTINUOUS
10
80.7452
20
17.9081
11
80.749
21
17.889
0
LINE
8
BLACK
6
CONTINUOUS
10
80.749
20
17.889
11
80.749
21
16.111
0
LINE
8
BLACK
6
CONTINUOUS
10
80.749
20
16.111
11
80.7452
21
16.0919
0
LINE
8
BLACK
6
CONTINUOUS
10
80.7452
20
16.0919
11
80.7344
21
16.0756
0
LINE
8
BLACK
6
CONTINUOUS
10
80.7344
20
16.0756
11
80.7181
21
16.0648
0
LINE
8
BLACK
6
CONTINUOUS
10
80.7181
20
16.0648
11
80.699
21
16.061
0
LINE
8
BLACK
6
CONTINUOUS
10
80.699
20
16.061
11
78.921
21
16.061
0
LINE
8
BLACK
6
CONTINUOUS
10
78.921
20
16.061
11
78.9019
21
16.0648
0
LINE
8
BLACK
6
CONTINUOUS
10
78.9019
20
16.0648
11
78.8856
21
16.0756
0
LINE
8
BLACK
6
CONTINUOUS
10
78.8856
20
16.0756
11
78.8748
21
16.0919
0
LINE
8
BLACK
6
CONTINUOUS
10
78.8748
20
16.0919
11
78.871
21
16.111
0
LINE
8
BLACK
6
CONTINUOUS
10
78.871
20
16.111
11
78.871
21
17.889
0
LINE
8
BLACK
6
CONTINUOUS
10
78.871
20
17.889
11
78.8748
21
17.9081
0
LINE
8
BLACK
6
CONTINUOUS
10
78.8748
20
17.9081
11
78.8856
21
17.9244
0
LINE
8
BLACK
6
CONTINUOUS
10
78.8856
20
17.9244
11
78.9019
21
17.9352
0
LINE
8
BLACK
6
CONTINUOUS
10
78.9019
20
17.9352
11
78.921
21
17.939
0
LINE
8
BLACK
6
CONTINUOUS
10
78.921
20
17.939
11
80.699
21
17.939
0
LINE
8
BLACK
6
CONTINUOUS
10
80.699
20
17.939
11
80.7181
21
17.9352
0
LINE
8
BLACK
6
CONTINUOUS
10
78.1191
20
17.6462
11
78.1354
21
17.6354
0
LINE
8
BLACK
6
CONTINUOUS
10
78.1354
20
17.6354
11
78.1462
21
17.6191
0
LINE
8
BLACK
6
CONTINUOUS
10
78.1462
20
17.6191
11
78.15
21
17.6
0
LINE
8
BLACK
6
CONTINUOUS
10
78.15
20
17.6
11
78.15
21
16.4
0
LINE
8
BLACK
6
CONTINUOUS
10
78.15
20
16.4
11
78.1462
21
16.3809
0
LINE
8
BLACK
6
CONTINUOUS
10
78.1462
20
16.3809
11
78.1354
21
16.3646
0
LINE
8
BLACK
6
CONTINUOUS
10
78.1354
20
16.3646
11
78.1191
21
16.3538
0
LINE
8
BLACK
6
CONTINUOUS
10
78.1191
20
16.3538
11
78.1
21
16.35
0
LINE
8
BLACK
6
CONTINUOUS
10
78.1
20
16.35
11
77.2
21
16.35
0
LINE
8
BLACK
6
CONTINUOUS
10
77.2
20
16.35
11
77.1809
21
16.3538
0
LINE
8
BLACK
6
CONTINUOUS
10
77.1809
20
16.3538
11
77.1646
21
16.3646
0
LINE
8
BLACK
6
CONTINUOUS
10
77.1646
20
16.3646
11
77.1538
21
16.3809
0
LINE
8
BLACK
6
CONTINUOUS
10
77.1538
20
16.3809
11
77.15
21
16.4
0
LINE
8
BLACK
6
CONTINUOUS
10
77.15
20
16.4
11
77.15
21
17.6
0
LINE
8
BLACK
6
CONTINUOUS
10
77.15
20
17.6
11
77.1538
21
17.6191
0
LINE
8
BLACK
6
CONTINUOUS
10
77.1538
20
17.6191
11
77.1646
21
17.6354
0
LINE
8
BLACK
6
CONTINUOUS
10
77.1646
20
17.6354
11
77.1809
21
17.6462
0
LINE
8
BLACK
6
CONTINUOUS
10
77.1809
20
17.6462
11
77.2
21
17.65
0
LINE
8
BLACK
6
CONTINUOUS
10
77.2
20
17.65
11
78.1
21
17.65
0
LINE
8
BLACK
6
CONTINUOUS
10
78.1
20
17.65
11
78.1191
21
17.6462
0
LINE
8
BLACK
6
CONTINUOUS
10
40.1191
20
17.6462
11
40.1354
21
17.6354
0
LINE
8
BLACK
6
CONTINUOUS
10
40.1354
20
17.6354
11
40.1462
21
17.6191
0
LINE
8
BLACK
6
CONTINUOUS
10
40.1462
20
17.6191
11
40.15
21
17.6
0
LINE
8
BLACK
6
CONTINUOUS
10
40.15
20
17.6
11
40.15
21
16.4
0
LINE
8
BLACK
6
CONTINUOUS
10
40.15
20
16.4
11
40.1462
21
16.3809
0
LINE
8
BLACK
6
CONTINUOUS
10
40.1462
20
16.3809
11
40.1354
21
16.3646
0
LINE
8
BLACK
6
CONTINUOUS
10
40.1354
20
16.3646
11
40.1191
21
16.3538
0
LINE
8
BLACK
6
CONTINUOUS
10
40.1191
20
16.3538
11
40.1
21
16.35
0
LINE
8
BLACK
6
CONTINUOUS
10
40.1
20
16.35
11
39.2
21
16.35
0
LINE
8
BLACK
6
CONTINUOUS
10
39.2
20
16.35
11
39.1809
21
16.3538
0
LINE
8
BLACK
6
CONTINUOUS
10
39.1809
20
16.3538
11
39.1646
21
16.3646
0
LINE
8
BLACK
6
CONTINUOUS
10
39.1646
20
16.3646
11
39.1538
21
16.3809
0
LINE
8
BLACK
6
CONTINUOUS
10
39.1538
20
16.3809
11
39.15
21
16.4
0
LINE
8
BLACK
6
CONTINUOUS
10
39.15
20
16.4
11
39.15
21
17.6
0
LINE
8
BLACK
6
CONTINUOUS
10
39.15
20
17.6
11
39.1538
21
17.6191
0
LINE
8
BLACK
6
CONTINUOUS
10
39.1538
20
17.6191
11
39.1646
21
17.6354
0
LINE
8
BLACK
6
CONTINUOUS
10
39.1646
20
17.6354
11
39.1809
21
17.6462
0
LINE
8
BLACK
6
CONTINUOUS
10
39.1809
20
17.6462
11
39.2
21
17.65
0
LINE
8
BLACK
6
CONTINUOUS
10
39.2
20
17.65
11
40.1
21
17.65
0
LINE
8
BLACK
6
CONTINUOUS
10
40.1
20
17.65
11
40.1191
21
17.6462
0
LINE
8
BLACK
6
CONTINUOUS
10
36.8191
20
17.6462
11
36.8354
21
17.6354
0
LINE
8
BLACK
6
CONTINUOUS
10
36.8354
20
17.6354
11
36.8462
21
17.6191
0
LINE
8
BLACK
6
CONTINUOUS
10
36.8462
20
17.6191
11
36.85
21
17.6
0
LINE
8
BLACK
6
CONTINUOUS
10
36.85
20
17.6
11
36.85
21
16.4
0
LINE
8
BLACK
6
CONTINUOUS
10
36.85
20
16.4
11
36.8462
21
16.3809
0
LINE
8
BLACK
6
CONTINUOUS
10
36.8462
20
16.3809
11
36.8354
21
16.3646
0
LINE
8
BLACK
6
CONTINUOUS
10
36.8354
20
16.3646
11
36.8191
21
16.3538
0
LINE
8
BLACK
6
CONTINUOUS
10
36.8191
20
16.3538
11
36.8
21
16.35
0
LINE
8
BLACK
6
CONTINUOUS
10
36.8
20
16.35
11
35.9
21
16.35
0
LINE
8
BLACK
6
CONTINUOUS
10
35.9
20
16.35
11
35.8809
21
16.3538
0
LINE
8
BLACK
6
CONTINUOUS
10
35.8809
20
16.3538
11
35.8646
21
16.3646
0
LINE
8
BLACK
6
CONTINUOUS
10
35.8646
20
16.3646
11
35.8538
21
16.3809
0
LINE
8
BLACK
6
CONTINUOUS
10
35.8538
20
16.3809
11
35.85
21
16.4
0
LINE
8
BLACK
6
CONTINUOUS
10
35.85
20
16.4
11
35.85
21
17.6
0
LINE
8
BLACK
6
CONTINUOUS
10
35.85
20
17.6
11
35.8538
21
17.6191
0
LINE
8
BLACK
6
CONTINUOUS
10
35.8538
20
17.6191
11
35.8646
21
17.6354
0
LINE
8
BLACK
6
CONTINUOUS
10
35.8646
20
17.6354
11
35.8809
21
17.6462
0
LINE
8
BLACK
6
CONTINUOUS
10
35.8809
20
17.6462
11
35.9
21
17.65
0
LINE
8
BLACK
6
CONTINUOUS
10
35.9
20
17.65
11
36.8
21
17.65
0
LINE
8
BLACK
6
CONTINUOUS
10
36.8
20
17.65
11
36.8191
21
17.6462
0
LINE
8
BLACK
6
CONTINUOUS
10
74.8191
20
17.6462
11
74.8354
21
17.6354
0
LINE
8
BLACK
6
CONTINUOUS
10
74.8354
20
17.6354
11
74.8462
21
17.6191
0
LINE
8
BLACK
6
CONTINUOUS
10
74.8462
20
17.6191
11
74.85
21
17.6
0
LINE
8
BLACK
6
CONTINUOUS
10
74.85
20
17.6
11
74.85
21
16.4
0
LINE
8
BLACK
6
CONTINUOUS
10
74.85
20
16.4
11
74.8462
21
16.3809
0
LINE
8
BLACK
6
CONTINUOUS
10
74.8462
20
16.3809
11
74.8354
21
16.3646
0
LINE
8
BLACK
6
CONTINUOUS
10
74.8354
20
16.3646
11
74.8191
21
16.3538
0
LINE
8
BLACK
6
CONTINUOUS
10
74.8191
20
16.3538
11
74.8
21
16.35
0
LINE
8
BLACK
6
CONTINUOUS
10
74.8
20
16.35
11
73.9
21
16.35
0
LINE
8
BLACK
6
CONTINUOUS
10
73.9
20
16.35
11
73.8809
21
16.3538
0
LINE
8
BLACK
6
CONTINUOUS
10
73.8809
20
16.3538
11
73.8646
21
16.3646
0
LINE
8
BLACK
6
CONTINUOUS
10
73.8646
20
16.3646
11
73.8538
21
16.3809
0
LINE
8
BLACK
6
CONTINUOUS
10
73.8538
20
16.3809
11
73.85
21
16.4
0
LINE
8
BLACK
6
CONTINUOUS
10
73.85
20
16.4
11
73.85
21
17.6
0
LINE
8
BLACK
6
CONTINUOUS
10
73.85
20
17.6
11
73.8538
21
17.6191
0
LINE
8
BLACK
6
CONTINUOUS
10
73.8538
20
17.6191
11
73.8646
21
17.6354
0
LINE
8
BLACK
6
CONTINUOUS
10
73.8646
20
17.6354
11
73.8809
21
17.6462
0
LINE
8
BLACK
6
CONTINUOUS
10
73.8809
20
17.6462
11
73.9
21
17.65
0
LINE
8
BLACK
6
CONTINUOUS
10
73.9
20
17.65
11
74.8
21
17.65
0
LINE
8
BLACK
6
CONTINUOUS
10
74.8
20
17.65
11
74.8191
21
17.6462
0
LINE
8
BLACK
6
CONTINUOUS
10
53.3916
20
24.982
11
53.5785
21
24.9242
0
LINE
8
BLACK
6
CONTINUOUS
10
53.5785
20
24.9242
11
53.7506
21
24.8311
0
LINE
8
BLACK
6
CONTINUOUS
10
53.7506
20
24.8311
11
53.9013
21
24.7064
0
LINE
8
BLACK
6
CONTINUOUS
10
53.9013
20
24.7064
11
54.025
21
24.5548
0
LINE
8
BLACK
6
CONTINUOUS
10
54.025
20
24.5548
11
54.1169
21
24.382
0
LINE
8
BLACK
6
CONTINUOUS
10
54.1169
20
24.382
11
54.1734
21
24.1947
0
LINE
8
BLACK
6
CONTINUOUS
10
54.1734
20
24.1947
11
54.1925
21
24
0
LINE
8
BLACK
6
CONTINUOUS
10
54.1925
20
24
11
54.1921
21
23.972
0
LINE
8
BLACK
6
CONTINUOUS
10
54.1921
20
23.972
11
54.1676
21
23.7779
0
LINE
8
BLACK
6
CONTINUOUS
10
54.1676
20
23.7779
11
54.1058
21
23.5922
0
LINE
8
BLACK
6
CONTINUOUS
10
54.1058
20
23.5922
11
54.0092
21
23.4221
0
LINE
8
BLACK
6
CONTINUOUS
10
54.0092
20
23.4221
11
53.8813
21
23.274
0
LINE
8
BLACK
6
CONTINUOUS
10
53.8813
20
23.274
11
53.7272
21
23.1536
0
LINE
8
BLACK
6
CONTINUOUS
10
53.7272
20
23.1536
11
53.5525
21
23.0653
0
LINE
8
BLACK
6
CONTINUOUS
10
53.5525
20
23.0653
11
53.3641
21
23.0127
0
LINE
8
BLACK
6
CONTINUOUS
10
53.3641
20
23.0127
11
53.169
21
22.9977
0
LINE
8
BLACK
6
CONTINUOUS
10
53.169
20
22.9977
11
52.9747
21
23.0209
0
LINE
8
BLACK
6
CONTINUOUS
10
52.9747
20
23.0209
11
52.7886
21
23.0813
0
LINE
8
BLACK
6
CONTINUOUS
10
52.7886
20
23.0813
11
52.6179
21
23.1768
0
LINE
8
BLACK
6
CONTINUOUS
10
52.6179
20
23.1768
11
52.4689
21
23.3036
0
LINE
8
BLACK
6
CONTINUOUS
10
52.4689
20
23.3036
11
52.3473
21
23.4569
0
LINE
8
BLACK
6
CONTINUOUS
10
52.3473
20
23.4569
11
52.2579
21
23.631
0
LINE
8
BLACK
6
CONTINUOUS
10
52.2579
20
23.631
11
52.204
21
23.819
0
LINE
8
BLACK
6
CONTINUOUS
10
52.204
20
23.819
11
52.1876
21
24.014
0
LINE
8
BLACK
6
CONTINUOUS
10
52.1876
20
24.014
11
52.2094
21
24.2084
0
LINE
8
BLACK
6
CONTINUOUS
10
52.2094
20
24.2084
11
52.2686
21
24.3949
0
LINE
8
BLACK
6
CONTINUOUS
10
52.2686
20
24.3949
11
52.3628
21
24.5664
0
LINE
8
BLACK
6
CONTINUOUS
10
52.3628
20
24.5664
11
52.4886
21
24.7163
0
LINE
8
BLACK
6
CONTINUOUS
10
52.4886
20
24.7163
11
52.6411
21
24.8389
0
LINE
8
BLACK
6
CONTINUOUS
10
52.6411
20
24.8389
11
52.8145
21
24.9295
0
LINE
8
BLACK
6
CONTINUOUS
10
52.8145
20
24.9295
11
53.0022
21
24.9847
0
LINE
8
BLACK
6
CONTINUOUS
10
53.0022
20
24.9847
11
53.197
21
25.0025
0
LINE
8
BLACK
6
CONTINUOUS
10
53.197
20
25.0025
11
53.3916
21
24.982
0
LINE
8
BLACK
6
CONTINUOUS
10
61.7181
20
24.9352
11
61.7344
21
24.9244
0
LINE
8
BLACK
6
CONTINUOUS
10
61.7344
20
24.9244
11
61.7452
21
24.9081
0
LINE
8
BLACK
6
CONTINUOUS
10
61.7452
20
24.9081
11
61.749
21
24.889
0
LINE
8
BLACK
6
CONTINUOUS
10
61.749
20
24.889
11
61.749
21
23.111
0
LINE
8
BLACK
6
CONTINUOUS
10
61.749
20
23.111
11
61.7452
21
23.0919
0
LINE
8
BLACK
6
CONTINUOUS
10
61.7452
20
23.0919
11
61.7344
21
23.0756
0
LINE
8
BLACK
6
CONTINUOUS
10
61.7344
20
23.0756
11
61.7181
21
23.0648
0
LINE
8
BLACK
6
CONTINUOUS
10
61.7181
20
23.0648
11
61.699
21
23.061
0
LINE
8
BLACK
6
CONTINUOUS
10
61.699
20
23.061
11
59.921
21
23.061
0
LINE
8
BLACK
6
CONTINUOUS
10
59.921
20
23.061
11
59.9019
21
23.0648
0
LINE
8
BLACK
6
CONTINUOUS
10
59.9019
20
23.0648
11
59.8856
21
23.0756
0
LINE
8
BLACK
6
CONTINUOUS
10
59.8856
20
23.0756
11
59.8748
21
23.0919
0
LINE
8
BLACK
6
CONTINUOUS
10
59.8748
20
23.0919
11
59.871
21
23.111
0
LINE
8
BLACK
6
CONTINUOUS
10
59.871
20
23.111
11
59.871
21
24.889
0
LINE
8
BLACK
6
CONTINUOUS
10
59.871
20
24.889
11
59.8748
21
24.9081
0
LINE
8
BLACK
6
CONTINUOUS
10
59.8748
20
24.9081
11
59.8856
21
24.9244
0
LINE
8
BLACK
6
CONTINUOUS
10
59.8856
20
24.9244
11
59.9019
21
24.9352
0
LINE
8
BLACK
6
CONTINUOUS
10
59.9019
20
24.9352
11
59.921
21
24.939
0
LINE
8
BLACK
6
CONTINUOUS
10
59.921
20
24.939
11
61.699
21
24.939
0
LINE
8
BLACK
6
CONTINUOUS
10
61.699
20
24.939
11
61.7181
21
24.9352
0
LINE
8
BLACK
6
CONTINUOUS
10
59.1191
20
24.6462
11
59.1354
21
24.6354
0
LINE
8
BLACK
6
CONTINUOUS
10
59.1354
20
24.6354
11
59.1462
21
24.6191
0
LINE
8
BLACK
6
CONTINUOUS
10
59.1462
20
24.6191
11
59.15
21
24.6
0
LINE
8
BLACK
6
CONTINUOUS
10
59.15
20
24.6
11
59.15
21
23.4
0
LINE
8
BLACK
6
CONTINUOUS
10
59.15
20
23.4
11
59.1462
21
23.3809
0
LINE
8
BLACK
6
CONTINUOUS
10
59.1462
20
23.3809
11
59.1354
21
23.3646
0
LINE
8
BLACK
6
CONTINUOUS
10
59.1354
20
23.3646
11
59.1191
21
23.3538
0
LINE
8
BLACK
6
CONTINUOUS
10
59.1191
20
23.3538
11
59.1
21
23.35
0
LINE
8
BLACK
6
CONTINUOUS
10
59.1
20
23.35
11
58.2
21
23.35
0
LINE
8
BLACK
6
CONTINUOUS
10
58.2
20
23.35
11
58.1809
21
23.3538
0
LINE
8
BLACK
6
CONTINUOUS
10
58.1809
20
23.3538
11
58.1646
21
23.3646
0
LINE
8
BLACK
6
CONTINUOUS
10
58.1646
20
23.3646
11
58.1538
21
23.3809
0
LINE
8
BLACK
6
CONTINUOUS
10
58.1538
20
23.3809
11
58.15
21
23.4
0
LINE
8
BLACK
6
CONTINUOUS
10
58.15
20
23.4
11
58.15
21
24.6
0
LINE
8
BLACK
6
CONTINUOUS
10
58.15
20
24.6
11
58.1538
21
24.6191
0
LINE
8
BLACK
6
CONTINUOUS
10
58.1538
20
24.6191
11
58.1646
21
24.6354
0
LINE
8
BLACK
6
CONTINUOUS
10
58.1646
20
24.6354
11
58.1809
21
24.6462
0
LINE
8
BLACK
6
CONTINUOUS
10
58.1809
20
24.6462
11
58.2
21
24.65
0
LINE
8
BLACK
6
CONTINUOUS
10
58.2
20
24.65
11
59.1
21
24.65
0
LINE
8
BLACK
6
CONTINUOUS
10
59.1
20
24.65
11
59.1191
21
24.6462
0
LINE
8
BLACK
6
CONTINUOUS
10
55.8191
20
24.6462
11
55.8354
21
24.6354
0
LINE
8
BLACK
6
CONTINUOUS
10
55.8354
20
24.6354
11
55.8462
21
24.6191
0
LINE
8
BLACK
6
CONTINUOUS
10
55.8462
20
24.6191
11
55.85
21
24.6
0
LINE
8
BLACK
6
CONTINUOUS
10
55.85
20
24.6
11
55.85
21
23.4
0
LINE
8
BLACK
6
CONTINUOUS
10
55.85
20
23.4
11
55.8462
21
23.3809
0
LINE
8
BLACK
6
CONTINUOUS
10
55.8462
20
23.3809
11
55.8354
21
23.3646
0
LINE
8
BLACK
6
CONTINUOUS
10
55.8354
20
23.3646
11
55.8191
21
23.3538
0
LINE
8
BLACK
6
CONTINUOUS
10
55.8191
20
23.3538
11
55.8
21
23.35
0
LINE
8
BLACK
6
CONTINUOUS
10
55.8
20
23.35
11
54.9
21
23.35
0
LINE
8
BLACK
6
CONTINUOUS
10
54.9
20
23.35
11
54.8809
21
23.3538
0
LINE
8
BLACK
6
CONTINUOUS
10
54.8809
20
23.3538
11
54.8646
21
23.3646
0
LINE
8
BLACK
6
CONTINUOUS
10
54.8646
20
23.3646
11
54.8538
21
23.3809
0
LINE
8
BLACK
6
CONTINUOUS
10
54.8538
20
23.3809
11
54.85
21
23.4
0
LINE
8
BLACK
6
CONTINUOUS
10
54.85
20
23.4
11
54.85
21
24.6
0
LINE
8
BLACK
6
CONTINUOUS
10
54.85
20
24.6
11
54.8538
21
24.6191
0
LINE
8
BLACK
6
CONTINUOUS
10
54.8538
20
24.6191
11
54.8646
21
24.6354
0
LINE
8
BLACK
6
CONTINUOUS
10
54.8646
20
24.6354
11
54.8809
21
24.6462
0
LINE
8
BLACK
6
CONTINUOUS
10
54.8809
20
24.6462
11
54.9
21
24.65
0
LINE
8
BLACK
6
CONTINUOUS
10
54.9
20
24.65
11
55.8
21
24.65
0
LINE
8
BLACK
6
CONTINUOUS
10
55.8
20
24.65
11
55.8191
21
24.6462
0
LINE
8
BLACK
6
CONTINUOUS
10
15.3916
20
29.982
11
15.5785
21
29.9242
0
LINE
8
BLACK
6
CONTINUOUS
10
15.5785
20
29.9242
11
15.7506
21
29.8311
0
LINE
8
BLACK
6
CONTINUOUS
10
15.7506
20
29.8311
11
15.9013
21
29.7064
0
LINE
8
BLACK
6
CONTINUOUS
10
15.9013
20
29.7064
11
16.025
21
29.5548
0
LINE
8
BLACK
6
CONTINUOUS
10
16.025
20
29.5548
11
16.1169
21
29.382
0
LINE
8
BLACK
6
CONTINUOUS
10
16.1169
20
29.382
11
16.1734
21
29.1947
0
LINE
8
BLACK
6
CONTINUOUS
10
16.1734
20
29.1947
11
16.1925
21
29
0
LINE
8
BLACK
6
CONTINUOUS
10
16.1925
20
29
11
16.1921
21
28.972
0
LINE
8
BLACK
6
CONTINUOUS
10
16.1921
20
28.972
11
16.1676
21
28.7779
0
LINE
8
BLACK
6
CONTINUOUS
10
16.1676
20
28.7779
11
16.1058
21
28.5922
0
LINE
8
BLACK
6
CONTINUOUS
10
16.1058
20
28.5922
11
16.0092
21
28.4221
0
LINE
8
BLACK
6
CONTINUOUS
10
16.0092
20
28.4221
11
15.8813
21
28.274
0
LINE
8
BLACK
6
CONTINUOUS
10
15.8813
20
28.274
11
15.7272
21
28.1536
0
LINE
8
BLACK
6
CONTINUOUS
10
15.7272
20
28.1536
11
15.5525
21
28.0653
0
LINE
8
BLACK
6
CONTINUOUS
10
15.5525
20
28.0653
11
15.3641
21
28.0127
0
LINE
8
BLACK
6
CONTINUOUS
10
15.3641
20
28.0127
11
15.169
21
27.9977
0
LINE
8
BLACK
6
CONTINUOUS
10
15.169
20
27.9977
11
14.9747
21
28.0209
0
LINE
8
BLACK
6
CONTINUOUS
10
14.9747
20
28.0209
11
14.7886
21
28.0813
0
LINE
8
BLACK
6
CONTINUOUS
10
14.7886
20
28.0813
11
14.6179
21
28.1768
0
LINE
8
BLACK
6
CONTINUOUS
10
14.6179
20
28.1768
11
14.4689
21
28.3036
0
LINE
8
BLACK
6
CONTINUOUS
10
14.4689
20
28.3036
11
14.3473
21
28.4569
0
LINE
8
BLACK
6
CONTINUOUS
10
14.3473
20
28.4569
11
14.2579
21
28.631
0
LINE
8
BLACK
6
CONTINUOUS
10
14.2579
20
28.631
11
14.204
21
28.819
0
LINE
8
BLACK
6
CONTINUOUS
10
14.204
20
28.819
11
14.1876
21
29.014
0
LINE
8
BLACK
6
CONTINUOUS
10
14.1876
20
29.014
11
14.2094
21
29.2084
0
LINE
8
BLACK
6
CONTINUOUS
10
14.2094
20
29.2084
11
14.2686
21
29.3949
0
LINE
8
BLACK
6
CONTINUOUS
10
14.2686
20
29.3949
11
14.3628
21
29.5664
0
LINE
8
BLACK
6
CONTINUOUS
10
14.3628
20
29.5664
11
14.4886
21
29.7163
0
LINE
8
BLACK
6
CONTINUOUS
10
14.4886
20
29.7163
11
14.6411
21
29.8389
0
LINE
8
BLACK
6
CONTINUOUS
10
14.6411
20
29.8389
11
14.8145
21
29.9295
0
LINE
8
BLACK
6
CONTINUOUS
10
14.8145
20
29.9295
11
15.0021
21
29.9847
0
LINE
8
BLACK
6
CONTINUOUS
10
15.0021
20
29.9847
11
15.197
21
30.0025
0
LINE
8
BLACK
6
CONTINUOUS
10
15.197
20
30.0025
11
15.3916
21
29.982
0
LINE
8
BLACK
6
CONTINUOUS
10
-3.60842
20
29.982
11
-3.42152
21
29.9242
0
LINE
8
BLACK
6
CONTINUOUS
10
-3.42152
20
29.9242
11
-3.24941
21
29.8311
0
LINE
8
BLACK
6
CONTINUOUS
10
-3.24941
20
29.8311
11
-3.09865
21
29.7064
0
LINE
8
BLACK
6
CONTINUOUS
10
-3.09865
20
29.7064
11
-2.975
21
29.5548
0
LINE
8
BLACK
6
CONTINUOUS
10
-2.975
20
29.5548
11
-2.88314
21
29.382
0
LINE
8
BLACK
6
CONTINUOUS
10
-2.88314
20
29.382
11
-2.82659
21
29.1947
0
LINE
8
BLACK
6
CONTINUOUS
10
-2.82659
20
29.1947
11
-2.8075
21
29
0
LINE
8
BLACK
6
CONTINUOUS
10
-2.8075
20
29
11
-2.80789
21
28.972
0
LINE
8
BLACK
6
CONTINUOUS
10
-2.80789
20
28.972
11
-2.83241
21
28.7779
0
LINE
8
BLACK
6
CONTINUOUS
10
-2.83241
20
28.7779
11
-2.89417
21
28.5922
0
LINE
8
BLACK
6
CONTINUOUS
10
-2.89417
20
28.5922
11
-2.99081
21
28.4221
0
LINE
8
BLACK
6
CONTINUOUS
10
-2.99081
20
28.4221
11
-3.11866
21
28.274
0
LINE
8
BLACK
6
CONTINUOUS
10
-3.11866
20
28.274
11
-3.27283
21
28.1536
0
LINE
8
BLACK
6
CONTINUOUS
10
-3.27283
20
28.1536
11
-3.44747
21
28.0653
0
LINE
8
BLACK
6
CONTINUOUS
10
-3.44747
20
28.0653
11
-3.63592
21
28.0127
0
LINE
8
BLACK
6
CONTINUOUS
10
-3.63592
20
28.0127
11
-3.83099
21
27.9977
0
LINE
8
BLACK
6
CONTINUOUS
10
-3.83099
20
27.9977
11
-4.02527
21
28.0209
0
LINE
8
BLACK
6
CONTINUOUS
10
-4.02527
20
28.0209
11
-4.21135
21
28.0813
0
LINE
8
BLACK
6
CONTINUOUS
10
-4.21135
20
28.0813
11
-4.38214
21
28.1768
0
LINE
8
BLACK
6
CONTINUOUS
10
-4.38214
20
28.1768
11
-4.53114
21
28.3036
0
LINE
8
BLACK
6
CONTINUOUS
10
-4.53114
20
28.3036
11
-4.65267
21
28.4569
0
LINE
8
BLACK
6
CONTINUOUS
10
-4.65267
20
28.4569
11
-4.7421
21
28.631
0
LINE
8
BLACK
6
CONTINUOUS
10
-4.7421
20
28.631
11
-4.79603
21
28.819
0
LINE
8
BLACK
6
CONTINUOUS
10
-4.79603
20
28.819
11
-4.8124
21
29.014
0
LINE
8
BLACK
6
CONTINUOUS
10
-4.8124
20
29.014
11
-4.79059
21
29.2084
0
LINE
8
BLACK
6
CONTINUOUS
10
-4.79059
20
29.2084
11
-4.73143
21
29.3949
0
LINE
8
BLACK
6
CONTINUOUS
10
-4.73143
20
29.3949
11
-4.63718
21
29.5664
0
LINE
8
BLACK
6
CONTINUOUS
10
-4.63718
20
29.5664
11
-4.51141
21
29.7163
0
LINE
8
BLACK
6
CONTINUOUS
10
-4.51141
20
29.7163
11
-4.35893
21
29.8389
0
LINE
8
BLACK
6
CONTINUOUS
10
-4.35893
20
29.8389
11
-4.18554
21
29.9295
0
LINE
8
BLACK
6
CONTINUOUS
10
-4.18554
20
29.9295
11
-3.99785
21
29.9847
0
LINE
8
BLACK
6
CONTINUOUS
10
-3.99785
20
29.9847
11
-3.803
21
30.0025
0
LINE
8
BLACK
6
CONTINUOUS
10
-3.803
20
30.0025
11
-3.60842
21
29.982
0
LINE
8
BLACK
6
CONTINUOUS
10
91.3916
20
29.982
11
91.5785
21
29.9242
0
LINE
8
BLACK
6
CONTINUOUS
10
91.5785
20
29.9242
11
91.7506
21
29.8311
0
LINE
8
BLACK
6
CONTINUOUS
10
91.7506
20
29.8311
11
91.9013
21
29.7064
0
LINE
8
BLACK
6
CONTINUOUS
10
91.9013
20
29.7064
11
92.025
21
29.5548
0
LINE
8
BLACK
6
CONTINUOUS
10
92.025
20
29.5548
11
92.1169
21
29.382
0
LINE
8
BLACK
6
CONTINUOUS
10
92.1169
20
29.382
11
92.1734
21
29.1947
0
LINE
8
BLACK
6
CONTINUOUS
10
92.1734
20
29.1947
11
92.1925
21
29
0
LINE
8
BLACK
6
CONTINUOUS
10
92.1925
20
29
11
92.1921
21
28.972
0
LINE
8
BLACK
6
CONTINUOUS
10
92.1921
20
28.972
11
92.1676
21
28.7779
0
LINE
8
BLACK
6
CONTINUOUS
10
92.1676
20
28.7779
11
92.1058
21
28.5922
0
LINE
8
BLACK
6
CONTINUOUS
10
92.1058
20
28.5922
11
92.0092
21
28.4221
0
LINE
8
BLACK
6
CONTINUOUS
10
92.0092
20
28.4221
11
91.8813
21
28.274
0
LINE
8
BLACK
6
CONTINUOUS
10
91.8813
20
28.274
11
91.7272
21
28.1536
0
LINE
8
BLACK
6
CONTINUOUS
10
91.7272
20
28.1536
11
91.5525
21
28.0653
0
LINE
8
BLACK
6
CONTINUOUS
10
91.5525
20
28.0653
11
91.3641
21
28.0127
0
LINE
8
BLACK
6
CONTINUOUS
10
91.3641
20
28.0127
11
91.169
21
27.9977
0
LINE
8
BLACK
6
CONTINUOUS
10
91.169
20
27.9977
11
90.9747
21
28.0209
0
LINE
8
BLACK
6
CONTINUOUS
10
90.9747
20
28.0209
11
90.7886
21
28.0813
0
LINE
8
BLACK
6
CONTINUOUS
10
90.7886
20
28.0813
11
90.6179
21
28.1768
0
LINE
8
BLACK
6
CONTINUOUS
10
90.6179
20
28.1768
11
90.4689
21
28.3036
0
LINE
8
BLACK
6
CONTINUOUS
10
90.4689
20
28.3036
11
90.3473
21
28.4569
0
LINE
8
BLACK
6
CONTINUOUS
10
90.3473
20
28.4569
11
90.2579
21
28.631
0
LINE
8
BLACK
6
CONTINUOUS
10
90.2579
20
28.631
11
90.204
21
28.819
0
LINE
8
BLACK
6
CONTINUOUS
10
90.204
20
28.819
11
90.1876
21
29.014
0
LINE
8
BLACK
6
CONTINUOUS
10
90.1876
20
29.014
11
90.2094
21
29.2084
0
LINE
8
BLACK
6
CONTINUOUS
10
90.2094
20
29.2084
11
90.2686
21
29.3949
0
LINE
8
BLACK
6
CONTINUOUS
10
90.2686
20
29.3949
11
90.3628
21
29.5664
0
LINE
8
BLACK
6
CONTINUOUS
10
90.3628
20
29.5664
11
90.4886
21
29.7163
0
LINE
8
BLACK
6
CONTINUOUS
10
90.4886
20
29.7163
11
90.6411
21
29.8389
0
LINE
8
BLACK
6
CONTINUOUS
10
90.6411
20
29.8389
11
90.8145
21
29.9295
0
LINE
8
BLACK
6
CONTINUOUS
10
90.8145
20
29.9295
11
91.0022
21
29.9847
0
LINE
8
BLACK
6
CONTINUOUS
10
91.0022
20
29.9847
11
91.197
21
30.0025
0
LINE
8
BLACK
6
CONTINUOUS
10
91.197
20
30.0025
11
91.3916
21
29.982
0
LINE
8
BLACK
6
CONTINUOUS
10
99.7181
20
29.9352
11
99.7344
21
29.9244
0
LINE
8
BLACK
6
CONTINUOUS
10
99.7344
20
29.9244
11
99.7452
21
29.9081
0
LINE
8
BLACK
6
CONTINUOUS
10
99.7452
20
29.9081
11
99.749
21
29.889
0
LINE
8
BLACK
6
CONTINUOUS
10
99.749
20
29.889
11
99.749
21
28.111
0
LINE
8
BLACK
6
CONTINUOUS
10
99.749
20
28.111
11
99.7452
21
28.0919
0
LINE
8
BLACK
6
CONTINUOUS
10
99.7452
20
28.0919
11
99.7344
21
28.0756
0
LINE
8
BLACK
6
CONTINUOUS
10
99.7344
20
28.0756
11
99.7181
21
28.0648
0
LINE
8
BLACK
6
CONTINUOUS
10
99.7181
20
28.0648
11
99.699
21
28.061
0
LINE
8
BLACK
6
CONTINUOUS
10
99.699
20
28.061
11
97.921
21
28.061
0
LINE
8
BLACK
6
CONTINUOUS
10
97.921
20
28.061
11
97.9019
21
28.0648
0
LINE
8
BLACK
6
CONTINUOUS
10
97.9019
20
28.0648
11
97.8856
21
28.0756
0
LINE
8
BLACK
6
CONTINUOUS
10
97.8856
20
28.0756
11
97.8748
21
28.0919
0
LINE
8
BLACK
6
CONTINUOUS
10
97.8748
20
28.0919
11
97.871
21
28.111
0
LINE
8
BLACK
6
CONTINUOUS
10
97.871
20
28.111
11
97.871
21
29.889
0
LINE
8
BLACK
6
CONTINUOUS
10
97.871
20
29.889
11
97.8748
21
29.9081
0
LINE
8
BLACK
6
CONTINUOUS
10
97.8748
20
29.9081
11
97.8856
21
29.9244
0
LINE
8
BLACK
6
CONTINUOUS
10
97.8856
20
29.9244
11
97.9019
21
29.9352
0
LINE
8
BLACK
6
CONTINUOUS
10
97.9019
20
29.9352
11
97.921
21
29.939
0
LINE
8
BLACK
6
CONTINUOUS
10
97.921
20
29.939
11
99.699
21
29.939
0
LINE
8
BLACK
6
CONTINUOUS
10
99.699
20
29.939
11
99.7181
21
29.9352
0
LINE
8
BLACK
6
CONTINUOUS
10
4.71813
20
29.9352
11
4.73435
21
29.9244
0
LINE
8
BLACK
6
CONTINUOUS
10
4.73435
20
29.9244
11
4.74519
21
29.9081
0
LINE
8
BLACK
6
CONTINUOUS
10
4.74519
20
29.9081
11
4.749
21
29.889
0
LINE
8
BLACK
6
CONTINUOUS
10
4.749
20
29.889
11
4.749
21
28.111
0
LINE
8
BLACK
6
CONTINUOUS
10
4.749
20
28.111
11
4.74519
21
28.0919
0
LINE
8
BLACK
6
CONTINUOUS
10
4.74519
20
28.0919
11
4.73435
21
28.0756
0
LINE
8
BLACK
6
CONTINUOUS
10
4.73435
20
28.0756
11
4.71813
21
28.0648
0
LINE
8
BLACK
6
CONTINUOUS
10
4.71813
20
28.0648
11
4.699
21
28.061
0
LINE
8
BLACK
6
CONTINUOUS
10
4.699
20
28.061
11
2.921
21
28.061
0
LINE
8
BLACK
6
CONTINUOUS
10
2.921
20
28.061
11
2.90187
21
28.0648
0
LINE
8
BLACK
6
CONTINUOUS
10
2.90187
20
28.0648
11
2.88564
21
28.0756
0
LINE
8
BLACK
6
CONTINUOUS
10
2.88564
20
28.0756
11
2.87481
21
28.0919
0
LINE
8
BLACK
6
CONTINUOUS
10
2.87481
20
28.0919
11
2.871
21
28.111
0
LINE
8
BLACK
6
CONTINUOUS
10
2.871
20
28.111
11
2.871
21
29.889
0
LINE
8
BLACK
6
CONTINUOUS
10
2.871
20
29.889
11
2.87481
21
29.9081
0
LINE
8
BLACK
6
CONTINUOUS
10
2.87481
20
29.9081
11
2.88564
21
29.9244
0
LINE
8
BLACK
6
CONTINUOUS
10
2.88564
20
29.9244
11
2.90187
21
29.9352
0
LINE
8
BLACK
6
CONTINUOUS
10
2.90187
20
29.9352
11
2.921
21
29.939
0
LINE
8
BLACK
6
CONTINUOUS
10
2.921
20
29.939
11
4.699
21
29.939
0
LINE
8
BLACK
6
CONTINUOUS
10
4.699
20
29.939
11
4.71813
21
29.9352
0
LINE
8
BLACK
6
CONTINUOUS
10
23.7181
20
29.9352
11
23.7344
21
29.9244
0
LINE
8
BLACK
6
CONTINUOUS
10
23.7344
20
29.9244
11
23.7452
21
29.9081
0
LINE
8
BLACK
6
CONTINUOUS
10
23.7452
20
29.9081
11
23.749
21
29.889
0
LINE
8
BLACK
6
CONTINUOUS
10
23.749
20
29.889
11
23.749
21
28.111
0
LINE
8
BLACK
6
CONTINUOUS
10
23.749
20
28.111
11
23.7452
21
28.0919
0
LINE
8
BLACK
6
CONTINUOUS
10
23.7452
20
28.0919
11
23.7344
21
28.0756
0
LINE
8
BLACK
6
CONTINUOUS
10
23.7344
20
28.0756
11
23.7181
21
28.0648
0
LINE
8
BLACK
6
CONTINUOUS
10
23.7181
20
28.0648
11
23.699
21
28.061
0
LINE
8
BLACK
6
CONTINUOUS
10
23.699
20
28.061
11
21.921
21
28.061
0
LINE
8
BLACK
6
CONTINUOUS
10
21.921
20
28.061
11
21.9019
21
28.0648
0
LINE
8
BLACK
6
CONTINUOUS
10
21.9019
20
28.0648
11
21.8856
21
28.0756
0
LINE
8
BLACK
6
CONTINUOUS
10
21.8856
20
28.0756
11
21.8748
21
28.0919
0
LINE
8
BLACK
6
CONTINUOUS
10
21.8748
20
28.0919
11
21.871
21
28.111
0
LINE
8
BLACK
6
CONTINUOUS
10
21.871
20
28.111
11
21.871
21
29.889
0
LINE
8
BLACK
6
CONTINUOUS
10
21.871
20
29.889
11
21.8748
21
29.9081
0
LINE
8
BLACK
6
CONTINUOUS
10
21.8748
20
29.9081
11
21.8856
21
29.9244
0
LINE
8
BLACK
6
CONTINUOUS
10
21.8856
20
29.9244
11
21.9019
21
29.9352
0
LINE
8
BLACK
6
CONTINUOUS
10
21.9019
20
29.9352
11
21.921
21
29.939
0
LINE
8
BLACK
6
CONTINUOUS
10
21.921
20
29.939
11
23.699
21
29.939
0
LINE
8
BLACK
6
CONTINUOUS
10
23.699
20
29.939
11
23.7181
21
29.9352
0
LINE
8
BLACK
6
CONTINUOUS
10
2.11913
20
29.6462
11
2.13536
21
29.6354
0
LINE
8
BLACK
6
CONTINUOUS
10
2.13536
20
29.6354
11
2.14619
21
29.6191
0
LINE
8
BLACK
6
CONTINUOUS
10
2.14619
20
29.6191
11
2.15
21
29.6
0
LINE
8
BLACK
6
CONTINUOUS
10
2.15
20
29.6
11
2.15
21
28.4
0
LINE
8
BLACK
6
CONTINUOUS
10
2.15
20
28.4
11
2.14619
21
28.3809
0
LINE
8
BLACK
6
CONTINUOUS
10
2.14619
20
28.3809
11
2.13536
21
28.3646
0
LINE
8
BLACK
6
CONTINUOUS
10
2.13536
20
28.3646
11
2.11913
21
28.3538
0
LINE
8
BLACK
6
CONTINUOUS
10
2.11913
20
28.3538
11
2.1
21
28.35
0
LINE
8
BLACK
6
CONTINUOUS
10
2.1
20
28.35
11
1.2
21
28.35
0
LINE
8
BLACK
6
CONTINUOUS
10
1.2
20
28.35
11
1.18087
21
28.3538
0
LINE
8
BLACK
6
CONTINUOUS
10
1.18087
20
28.3538
11
1.16464
21
28.3646
0
LINE
8
BLACK
6
CONTINUOUS
10
1.16464
20
28.3646
11
1.15381
21
28.3809
0
LINE
8
BLACK
6
CONTINUOUS
10
1.15381
20
28.3809
11
1.15
21
28.4
0
LINE
8
BLACK
6
CONTINUOUS
10
1.15
20
28.4
11
1.15
21
29.6
0
LINE
8
BLACK
6
CONTINUOUS
10
1.15
20
29.6
11
1.15381
21
29.6191
0
LINE
8
BLACK
6
CONTINUOUS
10
1.15381
20
29.6191
11
1.16464
21
29.6354
0
LINE
8
BLACK
6
CONTINUOUS
10
1.16464
20
29.6354
11
1.18087
21
29.6462
0
LINE
8
BLACK
6
CONTINUOUS
10
1.18087
20
29.6462
11
1.2
21
29.65
0
LINE
8
BLACK
6
CONTINUOUS
10
1.2
20
29.65
11
2.1
21
29.65
0
LINE
8
BLACK
6
CONTINUOUS
10
2.1
20
29.65
11
2.11913
21
29.6462
0
LINE
8
BLACK
6
CONTINUOUS
10
-1.18087
20
29.6462
11
-1.16464
21
29.6354
0
LINE
8
BLACK
6
CONTINUOUS
10
-1.16464
20
29.6354
11
-1.15381
21
29.6191
0
LINE
8
BLACK
6
CONTINUOUS
10
-1.15381
20
29.6191
11
-1.15
21
29.6
0
LINE
8
BLACK
6
CONTINUOUS
10
-1.15
20
29.6
11
-1.15
21
28.4
0
LINE
8
BLACK
6
CONTINUOUS
10
-1.15
20
28.4
11
-1.15381
21
28.3809
0
LINE
8
BLACK
6
CONTINUOUS
10
-1.15381
20
28.3809
11
-1.16464
21
28.3646
0
LINE
8
BLACK
6
CONTINUOUS
10
-1.16464
20
28.3646
11
-1.18087
21
28.3538
0
LINE
8
BLACK
6
CONTINUOUS
10
-1.18087
20
28.3538
11
-1.2
21
28.35
0
LINE
8
BLACK
6
CONTINUOUS
10
-1.2
20
28.35
11
-2.1
21
28.35
0
LINE
8
BLACK
6
CONTINUOUS
10
-2.1
20
28.35
11
-2.11913
21
28.3538
0
LINE
8
BLACK
6
CONTINUOUS
10
-2.11913
20
28.3538
11
-2.13536
21
28.3646
0
LINE
8
BLACK
6
CONTINUOUS
10
-2.13536
20
28.3646
11
-2.14619
21
28.3809
0
LINE
8
BLACK
6
CONTINUOUS
10
-2.14619
20
28.3809
11
-2.15
21
28.4
0
LINE
8
BLACK
6
CONTINUOUS
10
-2.15
20
28.4
11
-2.15
21
29.6
0
LINE
8
BLACK
6
CONTINUOUS
10
-2.15
20
29.6
11
-2.14619
21
29.6191
0
LINE
8
BLACK
6
CONTINUOUS
10
-2.14619
20
29.6191
11
-2.13536
21
29.6354
0
LINE
8
BLACK
6
CONTINUOUS
10
-2.13536
20
29.6354
11
-2.11913
21
29.6462
0
LINE
8
BLACK
6
CONTINUOUS
10
-2.11913
20
29.6462
11
-2.1
21
29.65
0
LINE
8
BLACK
6
CONTINUOUS
10
-2.1
20
29.65
11
-1.2
21
29.65
0
LINE
8
BLACK
6
CONTINUOUS
10
-1.2
20
29.65
11
-1.18087
21
29.6462
0
LINE
8
BLACK
6
CONTINUOUS
10
17.8191
20
29.6462
11
17.8354
21
29.6354
0
LINE
8
BLACK
6
CONTINUOUS
10
17.8354
20
29.6354
11
17.8462
21
29.6191
0
LINE
8
BLACK
6
CONTINUOUS
10
17.8462
20
29.6191
11
17.85
21
29.6
0
LINE
8
BLACK
6
CONTINUOUS
10
17.85
20
29.6
11
17.85
21
28.4
0
LINE
8
BLACK
6
CONTINUOUS
10
17.85
20
28.4
11
17.8462
21
28.3809
0
LINE
8
BLACK
6
CONTINUOUS
10
17.8462
20
28.3809
11
17.8354
21
28.3646
0
LINE
8
BLACK
6
CONTINUOUS
10
17.8354
20
28.3646
11
17.8191
21
28.3538
0
LINE
8
BLACK
6
CONTINUOUS
10
17.8191
20
28.3538
11
17.8
21
28.35
0
LINE
8
BLACK
6
CONTINUOUS
10
17.8
20
28.35
11
16.9
21
28.35
0
LINE
8
BLACK
6
CONTINUOUS
10
16.9
20
28.35
11
16.8809
21
28.3538
0
LINE
8
BLACK
6
CONTINUOUS
10
16.8809
20
28.3538
11
16.8646
21
28.3646
0
LINE
8
BLACK
6
CONTINUOUS
10
16.8646
20
28.3646
11
16.8538
21
28.3809
0
LINE
8
BLACK
6
CONTINUOUS
10
16.8538
20
28.3809
11
16.85
21
28.4
0
LINE
8
BLACK
6
CONTINUOUS
10
16.85
20
28.4
11
16.85
21
29.6
0
LINE
8
BLACK
6
CONTINUOUS
10
16.85
20
29.6
11
16.8538
21
29.6191
0
LINE
8
BLACK
6
CONTINUOUS
10
16.8538
20
29.6191
11
16.8646
21
29.6354
0
LINE
8
BLACK
6
CONTINUOUS
10
16.8646
20
29.6354
11
16.8809
21
29.6462
0
LINE
8
BLACK
6
CONTINUOUS
10
16.8809
20
29.6462
11
16.9
21
29.65
0
LINE
8
BLACK
6
CONTINUOUS
10
16.9
20
29.65
11
17.8
21
29.65
0
LINE
8
BLACK
6
CONTINUOUS
10
17.8
20
29.65
11
17.8191
21
29.6462
0
LINE
8
BLACK
6
CONTINUOUS
10
93.8191
20
29.6462
11
93.8354
21
29.6354
0
LINE
8
BLACK
6
CONTINUOUS
10
93.8354
20
29.6354
11
93.8462
21
29.6191
0
LINE
8
BLACK
6
CONTINUOUS
10
93.8462
20
29.6191
11
93.85
21
29.6
0
LINE
8
BLACK
6
CONTINUOUS
10
93.85
20
29.6
11
93.85
21
28.4
0
LINE
8
BLACK
6
CONTINUOUS
10
93.85
20
28.4
11
93.8462
21
28.3809
0
LINE
8
BLACK
6
CONTINUOUS
10
93.8462
20
28.3809
11
93.8354
21
28.3646
0
LINE
8
BLACK
6
CONTINUOUS
10
93.8354
20
28.3646
11
93.8191
21
28.3538
0
LINE
8
BLACK
6
CONTINUOUS
10
93.8191
20
28.3538
11
93.8
21
28.35
0
LINE
8
BLACK
6
CONTINUOUS
10
93.8
20
28.35
11
92.9
21
28.35
0
LINE
8
BLACK
6
CONTINUOUS
10
92.9
20
28.35
11
92.8809
21
28.3538
0
LINE
8
BLACK
6
CONTINUOUS
10
92.8809
20
28.3538
11
92.8646
21
28.3646
0
LINE
8
BLACK
6
CONTINUOUS
10
92.8646
20
28.3646
11
92.8538
21
28.3809
0
LINE
8
BLACK
6
CONTINUOUS
10
92.8538
20
28.3809
11
92.85
21
28.4
0
LINE
8
BLACK
6
CONTINUOUS
10
92.85
20
28.4
11
92.85
21
29.6
0
LINE
8
BLACK
6
CONTINUOUS
10
92.85
20
29.6
11
92.8538
21
29.6191
0
LINE
8
BLACK
6
CONTINUOUS
10
92.8538
20
29.6191
11
92.8646
21
29.6354
0
LINE
8
BLACK
6
CONTINUOUS
10
92.8646
20
29.6354
11
92.8809
21
29.6462
0
LINE
8
BLACK
6
CONTINUOUS
10
92.8809
20
29.6462
11
92.9
21
29.65
0
LINE
8
BLACK
6
CONTINUOUS
10
92.9
20
29.65
11
93.8
21
29.65
0
LINE
8
BLACK
6
CONTINUOUS
10
93.8
20
29.65
11
93.8191
21
29.6462
0
LINE
8
BLACK
6
CONTINUOUS
10
21.1191
20
29.6462
11
21.1354
21
29.6354
0
LINE
8
BLACK
6
CONTINUOUS
10
21.1354
20
29.6354
11
21.1462
21
29.6191
0
LINE
8
BLACK
6
CONTINUOUS
10
21.1462
20
29.6191
11
21.15
21
29.6
0
LINE
8
BLACK
6
CONTINUOUS
10
21.15
20
29.6
11
21.15
21
28.4
0
LINE
8
BLACK
6
CONTINUOUS
10
21.15
20
28.4
11
21.1462
21
28.3809
0
LINE
8
BLACK
6
CONTINUOUS
10
21.1462
20
28.3809
11
21.1354
21
28.3646
0
LINE
8
BLACK
6
CONTINUOUS
10
21.1354
20
28.3646
11
21.1191
21
28.3538
0
LINE
8
BLACK
6
CONTINUOUS
10
21.1191
20
28.3538
11
21.1
21
28.35
0
LINE
8
BLACK
6
CONTINUOUS
10
21.1
20
28.35
11
20.2
21
28.35
0
LINE
8
BLACK
6
CONTINUOUS
10
20.2
20
28.35
11
20.1809
21
28.3538
0
LINE
8
BLACK
6
CONTINUOUS
10
20.1809
20
28.3538
11
20.1646
21
28.3646
0
LINE
8
BLACK
6
CONTINUOUS
10
20.1646
20
28.3646
11
20.1538
21
28.3809
0
LINE
8
BLACK
6
CONTINUOUS
10
20.1538
20
28.3809
11
20.15
21
28.4
0
LINE
8
BLACK
6
CONTINUOUS
10
20.15
20
28.4
11
20.15
21
29.6
0
LINE
8
BLACK
6
CONTINUOUS
10
20.15
20
29.6
11
20.1538
21
29.6191
0
LINE
8
BLACK
6
CONTINUOUS
10
20.1538
20
29.6191
11
20.1646
21
29.6354
0
LINE
8
BLACK
6
CONTINUOUS
10
20.1646
20
29.6354
11
20.1809
21
29.6462
0
LINE
8
BLACK
6
CONTINUOUS
10
20.1809
20
29.6462
11
20.2
21
29.65
0
LINE
8
BLACK
6
CONTINUOUS
10
20.2
20
29.65
11
21.1
21
29.65
0
LINE
8
BLACK
6
CONTINUOUS
10
21.1
20
29.65
11
21.1191
21
29.6462
0
LINE
8
BLACK
6
CONTINUOUS
10
97.1191
20
29.6462
11
97.1354
21
29.6354
0
LINE
8
BLACK
6
CONTINUOUS
10
97.1354
20
29.6354
11
97.1462
21
29.6191
0
LINE
8
BLACK
6
CONTINUOUS
10
97.1462
20
29.6191
11
97.15
21
29.6
0
LINE
8
BLACK
6
CONTINUOUS
10
97.15
20
29.6
11
97.15
21
28.4
0
LINE
8
BLACK
6
CONTINUOUS
10
97.15
20
28.4
11
97.1462
21
28.3809
0
LINE
8
BLACK
6
CONTINUOUS
10
97.1462
20
28.3809
11
97.1354
21
28.3646
0
LINE
8
BLACK
6
CONTINUOUS
10
97.1354
20
28.3646
11
97.1191
21
28.3538
0
LINE
8
BLACK
6
CONTINUOUS
10
97.1191
20
28.3538
11
97.1
21
28.35
0
LINE
8
BLACK
6
CONTINUOUS
10
97.1
20
28.35
11
96.2
21
28.35
0
LINE
8
BLACK
6
CONTINUOUS
10
96.2
20
28.35
11
96.1809
21
28.3538
0
LINE
8
BLACK
6
CONTINUOUS
10
96.1809
20
28.3538
11
96.1646
21
28.3646
0
LINE
8
BLACK
6
CONTINUOUS
10
96.1646
20
28.3646
11
96.1538
21
28.3809
0
LINE
8
BLACK
6
CONTINUOUS
10
96.1538
20
28.3809
11
96.15
21
28.4
0
LINE
8
BLACK
6
CONTINUOUS
10
96.15
20
28.4
11
96.15
21
29.6
0
LINE
8
BLACK
6
CONTINUOUS
10
96.15
20
29.6
11
96.1538
21
29.6191
0
LINE
8
BLACK
6
CONTINUOUS
10
96.1538
20
29.6191
11
96.1646
21
29.6354
0
LINE
8
BLACK
6
CONTINUOUS
10
96.1646
20
29.6354
11
96.1809
21
29.6462
0
LINE
8
BLACK
6
CONTINUOUS
10
96.1809
20
29.6462
11
96.2
21
29.65
0
LINE
8
BLACK
6
CONTINUOUS
10
96.2
20
29.65
11
97.1
21
29.65
0
LINE
8
BLACK
6
CONTINUOUS
10
97.1
20
29.65
11
97.1191
21
29.6462
0
LINE
8
BLACK
6
CONTINUOUS
10
72.3916
20
36.982
11
72.5785
21
36.9242
0
LINE
8
BLACK
6
CONTINUOUS
10
72.5785
20
36.9242
11
72.7506
21
36.8311
0
LINE
8
BLACK
6
CONTINUOUS
10
72.7506
20
36.8311
11
72.9013
21
36.7064
0
LINE
8
BLACK
6
CONTINUOUS
10
72.9013
20
36.7064
11
73.025
21
36.5548
0
LINE
8
BLACK
6
CONTINUOUS
10
73.025
20
36.5548
11
73.1169
21
36.382
0
LINE
8
BLACK
6
CONTINUOUS
10
73.1169
20
36.382
11
73.1734
21
36.1947
0
LINE
8
BLACK
6
CONTINUOUS
10
73.1734
20
36.1947
11
73.1925
21
36
0
LINE
8
BLACK
6
CONTINUOUS
10
73.1925
20
36
11
73.1921
21
35.972
0
LINE
8
BLACK
6
CONTINUOUS
10
73.1921
20
35.972
11
73.1676
21
35.7779
0
LINE
8
BLACK
6
CONTINUOUS
10
73.1676
20
35.7779
11
73.1058
21
35.5922
0
LINE
8
BLACK
6
CONTINUOUS
10
73.1058
20
35.5922
11
73.0092
21
35.4221
0
LINE
8
BLACK
6
CONTINUOUS
10
73.0092
20
35.4221
11
72.8813
21
35.274
0
LINE
8
BLACK
6
CONTINUOUS
10
72.8813
20
35.274
11
72.7272
21
35.1536
0
LINE
8
BLACK
6
CONTINUOUS
10
72.7272
20
35.1536
11
72.5525
21
35.0653
0
LINE
8
BLACK
6
CONTINUOUS
10
72.5525
20
35.0653
11
72.3641
21
35.0127
0
LINE
8
BLACK
6
CONTINUOUS
10
72.3641
20
35.0127
11
72.169
21
34.9977
0
LINE
8
BLACK
6
CONTINUOUS
10
72.169
20
34.9977
11
71.9747
21
35.0209
0
LINE
8
BLACK
6
CONTINUOUS
10
71.9747
20
35.0209
11
71.7886
21
35.0813
0
LINE
8
BLACK
6
CONTINUOUS
10
71.7886
20
35.0813
11
71.6179
21
35.1768
0
LINE
8
BLACK
6
CONTINUOUS
10
71.6179
20
35.1768
11
71.4689
21
35.3036
0
LINE
8
BLACK
6
CONTINUOUS
10
71.4689
20
35.3036
11
71.3473
21
35.4569
0
LINE
8
BLACK
6
CONTINUOUS
10
71.3473
20
35.4569
11
71.2579
21
35.631
0
LINE
8
BLACK
6
CONTINUOUS
10
71.2579
20
35.631
11
71.204
21
35.819
0
LINE
8
BLACK
6
CONTINUOUS
10
71.204
20
35.819
11
71.1876
21
36.014
0
LINE
8
BLACK
6
CONTINUOUS
10
71.1876
20
36.014
11
71.2094
21
36.2084
0
LINE
8
BLACK
6
CONTINUOUS
10
71.2094
20
36.2084
11
71.2686
21
36.3949
0
LINE
8
BLACK
6
CONTINUOUS
10
71.2686
20
36.3949
11
71.3628
21
36.5664
0
LINE
8
BLACK
6
CONTINUOUS
10
71.3628
20
36.5664
11
71.4886
21
36.7163
0
LINE
8
BLACK
6
CONTINUOUS
10
71.4886
20
36.7163
11
71.6411
21
36.8389
0
LINE
8
BLACK
6
CONTINUOUS
10
71.6411
20
36.8389
11
71.8145
21
36.9295
0
LINE
8
BLACK
6
CONTINUOUS
10
71.8145
20
36.9295
11
72.0022
21
36.9847
0
LINE
8
BLACK
6
CONTINUOUS
10
72.0022
20
36.9847
11
72.197
21
37.0025
0
LINE
8
BLACK
6
CONTINUOUS
10
72.197
20
37.0025
11
72.3916
21
36.982
0
LINE
8
BLACK
6
CONTINUOUS
10
34.3916
20
36.982
11
34.5785
21
36.9242
0
LINE
8
BLACK
6
CONTINUOUS
10
34.5785
20
36.9242
11
34.7506
21
36.8311
0
LINE
8
BLACK
6
CONTINUOUS
10
34.7506
20
36.8311
11
34.9013
21
36.7064
0
LINE
8
BLACK
6
CONTINUOUS
10
34.9013
20
36.7064
11
35.025
21
36.5548
0
LINE
8
BLACK
6
CONTINUOUS
10
35.025
20
36.5548
11
35.1169
21
36.382
0
LINE
8
BLACK
6
CONTINUOUS
10
35.1169
20
36.382
11
35.1734
21
36.1947
0
LINE
8
BLACK
6
CONTINUOUS
10
35.1734
20
36.1947
11
35.1925
21
36
0
LINE
8
BLACK
6
CONTINUOUS
10
35.1925
20
36
11
35.1921
21
35.972
0
LINE
8
BLACK
6
CONTINUOUS
10
35.1921
20
35.972
11
35.1676
21
35.7779
0
LINE
8
BLACK
6
CONTINUOUS
10
35.1676
20
35.7779
11
35.1058
21
35.5922
0
LINE
8
BLACK
6
CONTINUOUS
10
35.1058
20
35.5922
11
35.0092
21
35.4221
0
LINE
8
BLACK
6
CONTINUOUS
10
35.0092
20
35.4221
11
34.8813
21
35.274
0
LINE
8
BLACK
6
CONTINUOUS
10
34.8813
20
35.274
11
34.7272
21
35.1536
0
LINE
8
BLACK
6
CONTINUOUS
10
34.7272
20
35.1536
11
34.5525
21
35.0653
0
LINE
8
BLACK
6
CONTINUOUS
10
34.5525
20
35.0653
11
34.3641
21
35.0127
0
LINE
8
BLACK
6
CONTINUOUS
10
34.3641
20
35.0127
11
34.169
21
34.9977
0
LINE
8
BLACK
6
CONTINUOUS
10
34.169
20
34.9977
11
33.9747
21
35.0209
0
LINE
8
BLACK
6
CONTINUOUS
10
33.9747
20
35.0209
11
33.7886
21
35.0813
0
LINE
8
BLACK
6
CONTINUOUS
10
33.7886
20
35.0813
11
33.6179
21
35.1768
0
LINE
8
BLACK
6
CONTINUOUS
10
33.6179
20
35.1768
11
33.4689
21
35.3036
0
LINE
8
BLACK
6
CONTINUOUS
10
33.4689
20
35.3036
11
33.3473
21
35.4569
0
LINE
8
BLACK
6
CONTINUOUS
10
33.3473
20
35.4569
11
33.2579
21
35.631
0
LINE
8
BLACK
6
CONTINUOUS
10
33.2579
20
35.631
11
33.204
21
35.819
0
LINE
8
BLACK
6
CONTINUOUS
10
33.204
20
35.819
11
33.1876
21
36.014
0
LINE
8
BLACK
6
CONTINUOUS
10
33.1876
20
36.014
11
33.2094
21
36.2084
0
LINE
8
BLACK
6
CONTINUOUS
10
33.2094
20
36.2084
11
33.2686
21
36.3949
0
LINE
8
BLACK
6
CONTINUOUS
10
33.2686
20
36.3949
11
33.3628
21
36.5664
0
LINE
8
BLACK
6
CONTINUOUS
10
33.3628
20
36.5664
11
33.4886
21
36.7163
0
LINE
8
BLACK
6
CONTINUOUS
10
33.4886
20
36.7163
11
33.6411
21
36.8389
0
LINE
8
BLACK
6
CONTINUOUS
10
33.6411
20
36.8389
11
33.8145
21
36.9295
0
LINE
8
BLACK
6
CONTINUOUS
10
33.8145
20
36.9295
11
34.0022
21
36.9847
0
LINE
8
BLACK
6
CONTINUOUS
10
34.0022
20
36.9847
11
34.197
21
37.0025
0
LINE
8
BLACK
6
CONTINUOUS
10
34.197
20
37.0025
11
34.3916
21
36.982
0
LINE
8
BLACK
6
CONTINUOUS
10
42.7181
20
36.9352
11
42.7344
21
36.9244
0
LINE
8
BLACK
6
CONTINUOUS
10
42.7344
20
36.9244
11
42.7452
21
36.9081
0
LINE
8
BLACK
6
CONTINUOUS
10
42.7452
20
36.9081
11
42.749
21
36.889
0
LINE
8
BLACK
6
CONTINUOUS
10
42.749
20
36.889
11
42.749
21
35.111
0
LINE
8
BLACK
6
CONTINUOUS
10
42.749
20
35.111
11
42.7452
21
35.0919
0
LINE
8
BLACK
6
CONTINUOUS
10
42.7452
20
35.0919
11
42.7344
21
35.0756
0
LINE
8
BLACK
6
CONTINUOUS
10
42.7344
20
35.0756
11
42.7181
21
35.0648
0
LINE
8
BLACK
6
CONTINUOUS
10
42.7181
20
35.0648
11
42.699
21
35.061
0
LINE
8
BLACK
6
CONTINUOUS
10
42.699
20
35.061
11
40.921
21
35.061
0
LINE
8
BLACK
6
CONTINUOUS
10
40.921
20
35.061
11
40.9019
21
35.0648
0
LINE
8
BLACK
6
CONTINUOUS
10
40.9019
20
35.0648
11
40.8856
21
35.0756
0
LINE
8
BLACK
6
CONTINUOUS
10
40.8856
20
35.0756
11
40.8748
21
35.0919
0
LINE
8
BLACK
6
CONTINUOUS
10
40.8748
20
35.0919
11
40.871
21
35.111
0
LINE
8
BLACK
6
CONTINUOUS
10
40.871
20
35.111
11
40.871
21
36.889
0
LINE
8
BLACK
6
CONTINUOUS
10
40.871
20
36.889
11
40.8748
21
36.9081
0
LINE
8
BLACK
6
CONTINUOUS
10
40.8748
20
36.9081
11
40.8856
21
36.9244
0
LINE
8
BLACK
6
CONTINUOUS
10
40.8856
20
36.9244
11
40.9019
21
36.9352
0
LINE
8
BLACK
6
CONTINUOUS
10
40.9019
20
36.9352
11
40.921
21
36.939
0
LINE
8
BLACK
6
CONTINUOUS
10
40.921
20
36.939
11
42.699
21
36.939
0
LINE
8
BLACK
6
CONTINUOUS
10
42.699
20
36.939
11
42.7181
21
36.9352
0
LINE
8
BLACK
6
CONTINUOUS
10
80.7181
20
36.9352
11
80.7344
21
36.9244
0
LINE
8
BLACK
6
CONTINUOUS
10
80.7344
20
36.9244
11
80.7452
21
36.9081
0
LINE
8
BLACK
6
CONTINUOUS
10
80.7452
20
36.9081
11
80.749
21
36.889
0
LINE
8
BLACK
6
CONTINUOUS
10
80.749
20
36.889
11
80.749
21
35.111
0
LINE
8
BLACK
6
CONTINUOUS
10
80.749
20
35.111
11
80.7452
21
35.0919
0
LINE
8
BLACK
6
CONTINUOUS
10
80.7452
20
35.0919
11
80.7344
21
35.0756
0
LINE
8
BLACK
6
CONTINUOUS
10
80.7344
20
35.0756
11
80.7181
21
35.0648
0
LINE
8
BLACK
6
CONTINUOUS
10
80.7181
20
35.0648
11
80.699
21
35.061
0
LINE
8
BLACK
6
CONTINUOUS
10
80.699
20
35.061
11
78.921
21
35.061
0
LINE
8
BLACK
6
CONTINUOUS
10
78.921
20
35.061
11
78.9019
21
35.0648
0
LINE
8
BLACK
6
CONTINUOUS
10
78.9019
20
35.0648
11
78.8856
21
35.0756
0
LINE
8
BLACK
6
CONTINUOUS
10
78.8856
20
35.0756
11
78.8748
21
35.0919
0
LINE
8
BLACK
6
CONTINUOUS
10
78.8748
20
35.0919
11
78.871
21
35.111
0
LINE
8
BLACK
6
CONTINUOUS
10
78.871
20
35.111
11
78.871
21
36.889
0
LINE
8
BLACK
6
CONTINUOUS
10
78.871
20
36.889
11
78.8748
21
36.9081
0
LINE
8
BLACK
6
CONTINUOUS
10
78.8748
20
36.9081
11
78.8856
21
36.9244
0
LINE
8
BLACK
6
CONTINUOUS
10
78.8856
20
36.9244
11
78.9019
21
36.9352
0
LINE
8
BLACK
6
CONTINUOUS
10
78.9019
20
36.9352
11
78.921
21
36.939
0
LINE
8
BLACK
6
CONTINUOUS
10
78.921
20
36.939
11
80.699
21
36.939
0
LINE
8
BLACK
6
CONTINUOUS
10
80.699
20
36.939
11
80.7181
21
36.9352
0
LINE
8
BLACK
6
CONTINUOUS
10
40.1191
20
36.6462
11
40.1354
21
36.6354
0
LINE
8
BLACK
6
CONTINUOUS
10
40.1354
20
36.6354
11
40.1462
21
36.6191
0
LINE
8
BLACK
6
CONTINUOUS
10
40.1462
20
36.6191
11
40.15
21
36.6
0
LINE
8
BLACK
6
CONTINUOUS
10
40.15
20
36.6
11
40.15
21
35.4
0
LINE
8
BLACK
6
CONTINUOUS
10
40.15
20
35.4
11
40.1462
21
35.3809
0
LINE
8
BLACK
6
CONTINUOUS
10
40.1462
20
35.3809
11
40.1354
21
35.3646
0
LINE
8
BLACK
6
CONTINUOUS
10
40.1354
20
35.3646
11
40.1191
21
35.3538
0
LINE
8
BLACK
6
CONTINUOUS
10
40.1191
20
35.3538
11
40.1
21
35.35
0
LINE
8
BLACK
6
CONTINUOUS
10
40.1
20
35.35
11
39.2
21
35.35
0
LINE
8
BLACK
6
CONTINUOUS
10
39.2
20
35.35
11
39.1809
21
35.3538
0
LINE
8
BLACK
6
CONTINUOUS
10
39.1809
20
35.3538
11
39.1646
21
35.3646
0
LINE
8
BLACK
6
CONTINUOUS
10
39.1646
20
35.3646
11
39.1538
21
35.3809
0
LINE
8
BLACK
6
CONTINUOUS
10
39.1538
20
35.3809
11
39.15
21
35.4
0
LINE
8
BLACK
6
CONTINUOUS
10
39.15
20
35.4
11
39.15
21
36.6
0
LINE
8
BLACK
6
CONTINUOUS
10
39.15
20
36.6
11
39.1538
21
36.6191
0
LINE
8
BLACK
6
CONTINUOUS
10
39.1538
20
36.6191
11
39.1646
21
36.6354
0
LINE
8
BLACK
6
CONTINUOUS
10
39.1646
20
36.6354
11
39.1809
21
36.6462
0
LINE
8
BLACK
6
CONTINUOUS
10
39.1809
20
36.6462
11
39.2
21
36.65
0
LINE
8
BLACK
6
CONTINUOUS
10
39.2
20
36.65
11
40.1
21
36.65
0
LINE
8
BLACK
6
CONTINUOUS
10
40.1
20
36.65
11
40.1191
21
36.6462
0
LINE
8
BLACK
6
CONTINUOUS
10
36.8191
20
36.6462
11
36.8354
21
36.6354
0
LINE
8
BLACK
6
CONTINUOUS
10
36.8354
20
36.6354
11
36.8462
21
36.6191
0
LINE
8
BLACK
6
CONTINUOUS
10
36.8462
20
36.6191
11
36.85
21
36.6
0
LINE
8
BLACK
6
CONTINUOUS
10
36.85
20
36.6
11
36.85
21
35.4
0
LINE
8
BLACK
6
CONTINUOUS
10
36.85
20
35.4
11
36.8462
21
35.3809
0
LINE
8
BLACK
6
CONTINUOUS
10
36.8462
20
35.3809
11
36.8354
21
35.3646
0
LINE
8
BLACK
6
CONTINUOUS
10
36.8354
20
35.3646
11
36.8191
21
35.3538
0
LINE
8
BLACK
6
CONTINUOUS
10
36.8191
20
35.3538
11
36.8
21
35.35
0
LINE
8
BLACK
6
CONTINUOUS
10
36.8
20
35.35
11
35.9
21
35.35
0
LINE
8
BLACK
6
CONTINUOUS
10
35.9
20
35.35
11
35.8809
21
35.3538
0
LINE
8
BLACK
6
CONTINUOUS
10
35.8809
20
35.3538
11
35.8646
21
35.3646
0
LINE
8
BLACK
6
CONTINUOUS
10
35.8646
20
35.3646
11
35.8538
21
35.3809
0
LINE
8
BLACK
6
CONTINUOUS
10
35.8538
20
35.3809
11
35.85
21
35.4
0
LINE
8
BLACK
6
CONTINUOUS
10
35.85
20
35.4
11
35.85
21
36.6
0
LINE
8
BLACK
6
CONTINUOUS
10
35.85
20
36.6
11
35.8538
21
36.6191
0
LINE
8
BLACK
6
CONTINUOUS
10
35.8538
20
36.6191
11
35.8646
21
36.6354
0
LINE
8
BLACK
6
CONTINUOUS
10
35.8646
20
36.6354
11
35.8809
21
36.6462
0
LINE
8
BLACK
6
CONTINUOUS
10
35.8809
20
36.6462
11
35.9
21
36.65
0
LINE
8
BLACK
6
CONTINUOUS
10
35.9
20
36.65
11
36.8
21
36.65
0
LINE
8
BLACK
6
CONTINUOUS
10
36.8
20
36.65
11
36.8191
21
36.6462
0
LINE
8
BLACK
6
CONTINUOUS
10
78.1191
20
36.6462
11
78.1354
21
36.6354
0
LINE
8
BLACK
6
CONTINUOUS
10
78.1354
20
36.6354
11
78.1462
21
36.6191
0
LINE
8
BLACK
6
CONTINUOUS
10
78.1462
20
36.6191
11
78.15
21
36.6
0
LINE
8
BLACK
6
CONTINUOUS
10
78.15
20
36.6
11
78.15
21
35.4
0
LINE
8
BLACK
6
CONTINUOUS
10
78.15
20
35.4
11
78.1462
21
35.3809
0
LINE
8
BLACK
6
CONTINUOUS
10
78.1462
20
35.3809
11
78.1354
21
35.3646
0
LINE
8
BLACK
6
CONTINUOUS
10
78.1354
20
35.3646
11
78.1191
21
35.3538
0
LINE
8
BLACK
6
CONTINUOUS
10
78.1191
20
35.3538
11
78.1
21
35.35
0
LINE
8
BLACK
6
CONTINUOUS
10
78.1
20
35.35
11
77.2
21
35.35
0
LINE
8
BLACK
6
CONTINUOUS
10
77.2
20
35.35
11
77.1809
21
35.3538
0
LINE
8
BLACK
6
CONTINUOUS
10
77.1809
20
35.3538
11
77.1646
21
35.3646
0
LINE
8
BLACK
6
CONTINUOUS
10
77.1646
20
35.3646
11
77.1538
21
35.3809
0
LINE
8
BLACK
6
CONTINUOUS
10
77.1538
20
35.3809
11
77.15
21
35.4
0
LINE
8
BLACK
6
CONTINUOUS
10
77.15
20
35.4
11
77.15
21
36.6
0
LINE
8
BLACK
6
CONTINUOUS
10
77.15
20
36.6
11
77.1538
21
36.6191
0
LINE
8
BLACK
6
CONTINUOUS
10
77.1538
20
36.6191
11
77.1646
21
36.6354
0
LINE
8
BLACK
6
CONTINUOUS
10
77.1646
20
36.6354
11
77.1809
21
36.6462
0
LINE
8
BLACK
6
CONTINUOUS
10
77.1809
20
36.6462
11
77.2
21
36.65
0
LINE
8
BLACK
6
CONTINUOUS
10
77.2
20
36.65
11
78.1
21
36.65
0
LINE
8
BLACK
6
CONTINUOUS
10
78.1
20
36.65
11
78.1191
21
36.6462
0
LINE
8
BLACK
6
CONTINUOUS
10
74.8191
20
36.6462
11
74.8354
21
36.6354
0
LINE
8
BLACK
6
CONTINUOUS
10
74.8354
20
36.6354
11
74.8462
21
36.6191
0
LINE
8
BLACK
6
CONTINUOUS
10
74.8462
20
36.6191
11
74.85
21
36.6
0
LINE
8
BLACK
6
CONTINUOUS
10
74.85
20
36.6
11
74.85
21
35.4
0
LINE
8
BLACK
6
CONTINUOUS
10
74.85
20
35.4
11
74.8462
21
35.3809
0
LINE
8
BLACK
6
CONTINUOUS
10
74.8462
20
35.3809
11
74.8354
21
35.3646
0
LINE
8
BLACK
6
CONTINUOUS
10
74.8354
20
35.3646
11
74.8191
21
35.3538
0
LINE
8
BLACK
6
CONTINUOUS
10
74.8191
20
35.3538
11
74.8
21
35.35
0
LINE
8
BLACK
6
CONTINUOUS
10
74.8
20
35.35
11
73.9
21
35.35
0
LINE
8
BLACK
6
CONTINUOUS
10
73.9
20
35.35
11
73.8809
21
35.3538
0
LINE
8
BLACK
6
CONTINUOUS
10
73.8809
20
35.3538
11
73.8646
21
35.3646
0
LINE
8
BLACK
6
CONTINUOUS
10
73.8646
20
35.3646
11
73.8538
21
35.3809
0
LINE
8
BLACK
6
CONTINUOUS
10
73.8538
20
35.3809
11
73.85
21
35.4
0
LINE
8
BLACK
6
CONTINUOUS
10
73.85
20
35.4
11
73.85
21
36.6
0
LINE
8
BLACK
6
CONTINUOUS
10
73.85
20
36.6
11
73.8538
21
36.6191
0
LINE
8
BLACK
6
CONTINUOUS
10
73.8538
20
36.6191
11
73.8646
21
36.6354
0
LINE
8
BLACK
6
CONTINUOUS
10
73.8646
20
36.6354
11
73.8809
21
36.6462
0
LINE
8
BLACK
6
CONTINUOUS
10
73.8809
20
36.6462
11
73.9
21
36.65
0
LINE
8
BLACK
6
CONTINUOUS
10
73.9
20
36.65
11
74.8
21
36.65
0
LINE
8
BLACK
6
CONTINUOUS
10
74.8
20
36.65
11
74.8191
21
36.6462
0
LINE
8
BLACK
6
CONTINUOUS
10
53.3916
20
43.982
11
53.5785
21
43.9242
0
LINE
8
BLACK
6
CONTINUOUS
10
53.5785
20
43.9242
11
53.7506
21
43.8311
0
LINE
8
BLACK
6
CONTINUOUS
10
53.7506
20
43.8311
11
53.9013
21
43.7064
0
LINE
8
BLACK
6
CONTINUOUS
10
53.9013
20
43.7064
11
54.025
21
43.5548
0
LINE
8
BLACK
6
CONTINUOUS
10
54.025
20
43.5548
11
54.1169
21
43.382
0
LINE
8
BLACK
6
CONTINUOUS
10
54.1169
20
43.382
11
54.1734
21
43.1947
0
LINE
8
BLACK
6
CONTINUOUS
10
54.1734
20
43.1947
11
54.1925
21
43
0
LINE
8
BLACK
6
CONTINUOUS
10
54.1925
20
43
11
54.1921
21
42.972
0
LINE
8
BLACK
6
CONTINUOUS
10
54.1921
20
42.972
11
54.1676
21
42.7779
0
LINE
8
BLACK
6
CONTINUOUS
10
54.1676
20
42.7779
11
54.1058
21
42.5922
0
LINE
8
BLACK
6
CONTINUOUS
10
54.1058
20
42.5922
11
54.0092
21
42.4221
0
LINE
8
BLACK
6
CONTINUOUS
10
54.0092
20
42.4221
11
53.8813
21
42.274
0
LINE
8
BLACK
6
CONTINUOUS
10
53.8813
20
42.274
11
53.7272
21
42.1536
0
LINE
8
BLACK
6
CONTINUOUS
10
53.7272
20
42.1536
11
53.5525
21
42.0653
0
LINE
8
BLACK
6
CONTINUOUS
10
53.5525
20
42.0653
11
53.3641
21
42.0127
0
LINE
8
BLACK
6
CONTINUOUS
10
53.3641
20
42.0127
11
53.169
21
41.9977
0
LINE
8
BLACK
6
CONTINUOUS
10
53.169
20
41.9977
11
52.9747
21
42.0209
0
LINE
8
BLACK
6
CONTINUOUS
10
52.9747
20
42.0209
11
52.7886
21
42.0813
0
LINE
8
BLACK
6
CONTINUOUS
10
52.7886
20
42.0813
11
52.6179
21
42.1768
0
LINE
8
BLACK
6
CONTINUOUS
10
52.6179
20
42.1768
11
52.4689
21
42.3036
0
LINE
8
BLACK
6
CONTINUOUS
10
52.4689
20
42.3036
11
52.3473
21
42.4569
0
LINE
8
BLACK
6
CONTINUOUS
10
52.3473
20
42.4569
11
52.2579
21
42.631
0
LINE
8
BLACK
6
CONTINUOUS
10
52.2579
20
42.631
11
52.204
21
42.819
0
LINE
8
BLACK
6
CONTINUOUS
10
52.204
20
42.819
11
52.1876
21
43.014
0
LINE
8
BLACK
6
CONTINUOUS
10
52.1876
20
43.014
11
52.2094
21
43.2084
0
LINE
8
BLACK
6
CONTINUOUS
10
52.2094
20
43.2084
11
52.2686
21
43.3949
0
LINE
8
BLACK
6
CONTINUOUS
10
52.2686
20
43.3949
11
52.3628
21
43.5664
0
LINE
8
BLACK
6
CONTINUOUS
10
52.3628
20
43.5664
11
52.4886
21
43.7163
0
LINE
8
BLACK
6
CONTINUOUS
10
52.4886
20
43.7163
11
52.6411
21
43.8389
0
LINE
8
BLACK
6
CONTINUOUS
10
52.6411
20
43.8389
11
52.8145
21
43.9295
0
LINE
8
BLACK
6
CONTINUOUS
10
52.8145
20
43.9295
11
53.0022
21
43.9847
0
LINE
8
BLACK
6
CONTINUOUS
10
53.0022
20
43.9847
11
53.197
21
44.0025
0
LINE
8
BLACK
6
CONTINUOUS
10
53.197
20
44.0025
11
53.3916
21
43.982
0
LINE
8
BLACK
6
CONTINUOUS
10
61.7181
20
43.9352
11
61.7344
21
43.9244
0
LINE
8
BLACK
6
CONTINUOUS
10
61.7344
20
43.9244
11
61.7452
21
43.9081
0
LINE
8
BLACK
6
CONTINUOUS
10
61.7452
20
43.9081
11
61.749
21
43.889
0
LINE
8
BLACK
6
CONTINUOUS
10
61.749
20
43.889
11
61.749
21
42.111
0
LINE
8
BLACK
6
CONTINUOUS
10
61.749
20
42.111
11
61.7452
21
42.0919
0
LINE
8
BLACK
6
CONTINUOUS
10
61.7452
20
42.0919
11
61.7344
21
42.0756
0
LINE
8
BLACK
6
CONTINUOUS
10
61.7344
20
42.0756
11
61.7181
21
42.0648
0
LINE
8
BLACK
6
CONTINUOUS
10
61.7181
20
42.0648
11
61.699
21
42.061
0
LINE
8
BLACK
6
CONTINUOUS
10
61.699
20
42.061
11
59.921
21
42.061
0
LINE
8
BLACK
6
CONTINUOUS
10
59.921
20
42.061
11
59.9019
21
42.0648
0
LINE
8
BLACK
6
CONTINUOUS
10
59.9019
20
42.0648
11
59.8856
21
42.0756
0
LINE
8
BLACK
6
CONTINUOUS
10
59.8856
20
42.0756
11
59.8748
21
42.0919
0
LINE
8
BLACK
6
CONTINUOUS
10
59.8748
20
42.0919
11
59.871
21
42.111
0
LINE
8
BLACK
6
CONTINUOUS
10
59.871
20
42.111
11
59.871
21
43.889
0
LINE
8
BLACK
6
CONTINUOUS
10
59.871
20
43.889
11
59.8748
21
43.9081
0
LINE
8
BLACK
6
CONTINUOUS
10
59.8748
20
43.9081
11
59.8856
21
43.9244
0
LINE
8
BLACK
6
CONTINUOUS
10
59.8856
20
43.9244
11
59.9019
21
43.9352
0
LINE
8
BLACK
6
CONTINUOUS
10
59.9019
20
43.9352
11
59.921
21
43.939
0
LINE
8
BLACK
6
CONTINUOUS
10
59.921
20
43.939
11
61.699
21
43.939
0
LINE
8
BLACK
6
CONTINUOUS
10
61.699
20
43.939
11
61.7181
21
43.9352
0
LINE
8
BLACK
6
CONTINUOUS
10
55.8191
20
43.6462
11
55.8354
21
43.6354
0
LINE
8
BLACK
6
CONTINUOUS
10
55.8354
20
43.6354
11
55.8462
21
43.6191
0
LINE
8
BLACK
6
CONTINUOUS
10
55.8462
20
43.6191
11
55.85
21
43.6
0
LINE
8
BLACK
6
CONTINUOUS
10
55.85
20
43.6
11
55.85
21
42.4
0
LINE
8
BLACK
6
CONTINUOUS
10
55.85
20
42.4
11
55.8462
21
42.3809
0
LINE
8
BLACK
6
CONTINUOUS
10
55.8462
20
42.3809
11
55.8354
21
42.3646
0
LINE
8
BLACK
6
CONTINUOUS
10
55.8354
20
42.3646
11
55.8191
21
42.3538
0
LINE
8
BLACK
6
CONTINUOUS
10
55.8191
20
42.3538
11
55.8
21
42.35
0
LINE
8
BLACK
6
CONTINUOUS
10
55.8
20
42.35
11
54.9
21
42.35
0
LINE
8
BLACK
6
CONTINUOUS
10
54.9
20
42.35
11
54.8809
21
42.3538
0
LINE
8
BLACK
6
CONTINUOUS
10
54.8809
20
42.3538
11
54.8646
21
42.3646
0
LINE
8
BLACK
6
CONTINUOUS
10
54.8646
20
42.3646
11
54.8538
21
42.3809
0
LINE
8
BLACK
6
CONTINUOUS
10
54.8538
20
42.3809
11
54.85
21
42.4
0
LINE
8
BLACK
6
CONTINUOUS
10
54.85
20
42.4
11
54.85
21
43.6
0
LINE
8
BLACK
6
CONTINUOUS
10
54.85
20
43.6
11
54.8538
21
43.6191
0
LINE
8
BLACK
6
CONTINUOUS
10
54.8538
20
43.6191
11
54.8646
21
43.6354
0
LINE
8
BLACK
6
CONTINUOUS
10
54.8646
20
43.6354
11
54.8809
21
43.6462
0
LINE
8
BLACK
6
CONTINUOUS
10
54.8809
20
43.6462
11
54.9
21
43.65
0
LINE
8
BLACK
6
CONTINUOUS
10
54.9
20
43.65
11
55.8
21
43.65
0
LINE
8
BLACK
6
CONTINUOUS
10
55.8
20
43.65
11
55.8191
21
43.6462
0
LINE
8
BLACK
6
CONTINUOUS
10
59.1191
20
43.6462
11
59.1354
21
43.6354
0
LINE
8
BLACK
6
CONTINUOUS
10
59.1354
20
43.6354
11
59.1462
21
43.6191
0
LINE
8
BLACK
6
CONTINUOUS
10
59.1462
20
43.6191
11
59.15
21
43.6
0
LINE
8
BLACK
6
CONTINUOUS
10
59.15
20
43.6
11
59.15
21
42.4
0
LINE
8
BLACK
6
CONTINUOUS
10
59.15
20
42.4
11
59.1462
21
42.3809
0
LINE
8
BLACK
6
CONTINUOUS
10
59.1462
20
42.3809
11
59.1354
21
42.3646
0
LINE
8
BLACK
6
CONTINUOUS
10
59.1354
20
42.3646
11
59.1191
21
42.3538
0
LINE
8
BLACK
6
CONTINUOUS
10
59.1191
20
42.3538
11
59.1
21
42.35
0
LINE
8
BLACK
6
CONTINUOUS
10
59.1
20
42.35
11
58.2
21
42.35
0
LINE
8
BLACK
6
CONTINUOUS
10
58.2
20
42.35
11
58.1809
21
42.3538
0
LINE
8
BLACK
6
CONTINUOUS
10
58.1809
20
42.3538
11
58.1646
21
42.3646
0
LINE
8
BLACK
6
CONTINUOUS
10
58.1646
20
42.3646
11
58.1538
21
42.3809
0
LINE
8
BLACK
6
CONTINUOUS
10
58.1538
20
42.3809
11
58.15
21
42.4
0
LINE
8
BLACK
6
CONTINUOUS
10
58.15
20
42.4
11
58.15
21
43.6
0
LINE
8
BLACK
6
CONTINUOUS
10
58.15
20
43.6
11
58.1538
21
43.6191
0
LINE
8
BLACK
6
CONTINUOUS
10
58.1538
20
43.6191
11
58.1646
21
43.6354
0
LINE
8
BLACK
6
CONTINUOUS
10
58.1646
20
43.6354
11
58.1809
21
43.6462
0
LINE
8
BLACK
6
CONTINUOUS
10
58.1809
20
43.6462
11
58.2
21
43.65
0
LINE
8
BLACK
6
CONTINUOUS
10
58.2
20
43.65
11
59.1
21
43.65
0
LINE
8
BLACK
6
CONTINUOUS
10
59.1
20
43.65
11
59.1191
21
43.6462
0
LINE
8
BLACK
6
CONTINUOUS
10
91.3916
20
48.982
11
91.5785
21
48.9242
0
LINE
8
BLACK
6
CONTINUOUS
10
91.5785
20
48.9242
11
91.7506
21
48.8311
0
LINE
8
BLACK
6
CONTINUOUS
10
91.7506
20
48.8311
11
91.9013
21
48.7064
0
LINE
8
BLACK
6
CONTINUOUS
10
91.9013
20
48.7064
11
92.025
21
48.5548
0
LINE
8
BLACK
6
CONTINUOUS
10
92.025
20
48.5548
11
92.1169
21
48.382
0
LINE
8
BLACK
6
CONTINUOUS
10
92.1169
20
48.382
11
92.1734
21
48.1947
0
LINE
8
BLACK
6
CONTINUOUS
10
92.1734
20
48.1947
11
92.1925
21
48
0
LINE
8
BLACK
6
CONTINUOUS
10
92.1925
20
48
11
92.1921
21
47.972
0
LINE
8
BLACK
6
CONTINUOUS
10
92.1921
20
47.972
11
92.1676
21
47.7779
0
LINE
8
BLACK
6
CONTINUOUS
10
92.1676
20
47.7779
11
92.1058
21
47.5922
0
LINE
8
BLACK
6
CONTINUOUS
10
92.1058
20
47.5922
11
92.0092
21
47.4221
0
LINE
8
BLACK
6
CONTINUOUS
10
92.0092
20
47.4221
11
91.8813
21
47.274
0
LINE
8
BLACK
6
CONTINUOUS
10
91.8813
20
47.274
11
91.7272
21
47.1536
0
LINE
8
BLACK
6
CONTINUOUS
10
91.7272
20
47.1536
11
91.5525
21
47.0653
0
LINE
8
BLACK
6
CONTINUOUS
10
91.5525
20
47.0653
11
91.3641
21
47.0127
0
LINE
8
BLACK
6
CONTINUOUS
10
91.3641
20
47.0127
11
91.169
21
46.9977
0
LINE
8
BLACK
6
CONTINUOUS
10
91.169
20
46.9977
11
90.9747
21
47.0209
0
LINE
8
BLACK
6
CONTINUOUS
10
90.9747
20
47.0209
11
90.7886
21
47.0813
0
LINE
8
BLACK
6
CONTINUOUS
10
90.7886
20
47.0813
11
90.6179
21
47.1768
0
LINE
8
BLACK
6
CONTINUOUS
10
90.6179
20
47.1768
11
90.4689
21
47.3036
0
LINE
8
BLACK
6
CONTINUOUS
10
90.4689
20
47.3036
11
90.3473
21
47.4569
0
LINE
8
BLACK
6
CONTINUOUS
10
90.3473
20
47.4569
11
90.2579
21
47.631
0
LINE
8
BLACK
6
CONTINUOUS
10
90.2579
20
47.631
11
90.204
21
47.819
0
LINE
8
BLACK
6
CONTINUOUS
10
90.204
20
47.819
11
90.1876
21
48.014
0
LINE
8
BLACK
6
CONTINUOUS
10
90.1876
20
48.014
11
90.2094
21
48.2084
0
LINE
8
BLACK
6
CONTINUOUS
10
90.2094
20
48.2084
11
90.2686
21
48.3949
0
LINE
8
BLACK
6
CONTINUOUS
10
90.2686
20
48.3949
11
90.3628
21
48.5664
0
LINE
8
BLACK
6
CONTINUOUS
10
90.3628
20
48.5664
11
90.4886
21
48.7163
0
LINE
8
BLACK
6
CONTINUOUS
10
90.4886
20
48.7163
11
90.6411
21
48.8389
0
LINE
8
BLACK
6
CONTINUOUS
10
90.6411
20
48.8389
11
90.8145
21
48.9295
0
LINE
8
BLACK
6
CONTINUOUS
10
90.8145
20
48.9295
11
91.0022
21
48.9847
0
LINE
8
BLACK
6
CONTINUOUS
10
91.0022
20
48.9847
11
91.197
21
49.0025
0
LINE
8
BLACK
6
CONTINUOUS
10
91.197
20
49.0025
11
91.3916
21
48.982
0
LINE
8
BLACK
6
CONTINUOUS
10
15.3916
20
48.982
11
15.5785
21
48.9242
0
LINE
8
BLACK
6
CONTINUOUS
10
15.5785
20
48.9242
11
15.7506
21
48.8311
0
LINE
8
BLACK
6
CONTINUOUS
10
15.7506
20
48.8311
11
15.9013
21
48.7064
0
LINE
8
BLACK
6
CONTINUOUS
10
15.9013
20
48.7064
11
16.025
21
48.5548
0
LINE
8
BLACK
6
CONTINUOUS
10
16.025
20
48.5548
11
16.1169
21
48.382
0
LINE
8
BLACK
6
CONTINUOUS
10
16.1169
20
48.382
11
16.1734
21
48.1947
0
LINE
8
BLACK
6
CONTINUOUS
10
16.1734
20
48.1947
11
16.1925
21
48
0
LINE
8
BLACK
6
CONTINUOUS
10
16.1925
20
48
11
16.1921
21
47.972
0
LINE
8
BLACK
6
CONTINUOUS
10
16.1921
20
47.972
11
16.1676
21
47.7779
0
LINE
8
BLACK
6
CONTINUOUS
10
16.1676
20
47.7779
11
16.1058
21
47.5922
0
LINE
8
BLACK
6
CONTINUOUS
10
16.1058
20
47.5922
11
16.0092
21
47.4221
0
LINE
8
BLACK
6
CONTINUOUS
10
16.0092
20
47.4221
11
15.8813
21
47.274
0
LINE
8
BLACK
6
CONTINUOUS
10
15.8813
20
47.274
11
15.7272
21
47.1536
0
LINE
8
BLACK
6
CONTINUOUS
10
15.7272
20
47.1536
11
15.5525
21
47.0653
0
LINE
8
BLACK
6
CONTINUOUS
10
15.5525
20
47.0653
11
15.3641
21
47.0127
0
LINE
8
BLACK
6
CONTINUOUS
10
15.3641
20
47.0127
11
15.169
21
46.9977
0
LINE
8
BLACK
6
CONTINUOUS
10
15.169
20
46.9977
11
14.9747
21
47.0209
0
LINE
8
BLACK
6
CONTINUOUS
10
14.9747
20
47.0209
11
14.7886
21
47.0813
0
LINE
8
BLACK
6
CONTINUOUS
10
14.7886
20
47.0813
11
14.6179
21
47.1768
0
LINE
8
BLACK
6
CONTINUOUS
10
14.6179
20
47.1768
11
14.4689
21
47.3036
0
LINE
8
BLACK
6
CONTINUOUS
10
14.4689
20
47.3036
11
14.3473
21
47.4569
0
LINE
8
BLACK
6
CONTINUOUS
10
14.3473
20
47.4569
11
14.2579
21
47.631
0
LINE
8
BLACK
6
CONTINUOUS
10
14.2579
20
47.631
11
14.204
21
47.819
0
LINE
8
BLACK
6
CONTINUOUS
10
14.204
20
47.819
11
14.1876
21
48.014
0
LINE
8
BLACK
6
CONTINUOUS
10
14.1876
20
48.014
11
14.2094
21
48.2084
0
LINE
8
BLACK
6
CONTINUOUS
10
14.2094
20
48.2084
11
14.2686
21
48.3949
0
LINE
8
BLACK
6
CONTINUOUS
10
14.2686
20
48.3949
11
14.3628
21
48.5664
0
LINE
8
BLACK
6
CONTINUOUS
10
14.3628
20
48.5664
11
14.4886
21
48.7163
0
LINE
8
BLACK
6
CONTINUOUS
10
14.4886
20
48.7163
11
14.6411
21
48.8389
0
LINE
8
BLACK
6
CONTINUOUS
10
14.6411
20
48.8389
11
14.8145
21
48.9295
0
LINE
8
BLACK
6
CONTINUOUS
10
14.8145
20
48.9295
11
15.0021
21
48.9847
0
LINE
8
BLACK
6
CONTINUOUS
10
15.0021
20
48.9847
11
15.197
21
49.0025
0
LINE
8
BLACK
6
CONTINUOUS
10
15.197
20
49.0025
11
15.3916
21
48.982
0
LINE
8
BLACK
6
CONTINUOUS
10
-3.60842
20
48.982
11
-3.42152
21
48.9242
0
LINE
8
BLACK
6
CONTINUOUS
10
-3.42152
20
48.9242
11
-3.24941
21
48.8311
0
LINE
8
BLACK
6
CONTINUOUS
10
-3.24941
20
48.8311
11
-3.09865
21
48.7064
0
LINE
8
BLACK
6
CONTINUOUS
10
-3.09865
20
48.7064
11
-2.975
21
48.5548
0
LINE
8
BLACK
6
CONTINUOUS
10
-2.975
20
48.5548
11
-2.88314
21
48.382
0
LINE
8
BLACK
6
CONTINUOUS
10
-2.88314
20
48.382
11
-2.82659
21
48.1947
0
LINE
8
BLACK
6
CONTINUOUS
10
-2.82659
20
48.1947
11
-2.8075
21
48
0
LINE
8
BLACK
6
CONTINUOUS
10
-2.8075
20
48
11
-2.80789
21
47.972
0
LINE
8
BLACK
6
CONTINUOUS
10
-2.80789
20
47.972
11
-2.83241
21
47.7779
0
LINE
8
BLACK
6
CONTINUOUS
10
-2.83241
20
47.7779
11
-2.89417
21
47.5922
0
LINE
8
BLACK
6
CONTINUOUS
10
-2.89417
20
47.5922
11
-2.99081
21
47.4221
0
LINE
8
BLACK
6
CONTINUOUS
10
-2.99081
20
47.4221
11
-3.11866
21
47.274
0
LINE
8
BLACK
6
CONTINUOUS
10
-3.11866
20
47.274
11
-3.27283
21
47.1536
0
LINE
8
BLACK
6
CONTINUOUS
10
-3.27283
20
47.1536
11
-3.44747
21
47.0653
0
LINE
8
BLACK
6
CONTINUOUS
10
-3.44747
20
47.0653
11
-3.63592
21
47.0127
0
LINE
8
BLACK
6
CONTINUOUS
10
-3.63592
20
47.0127
11
-3.83099
21
46.9977
0
LINE
8
BLACK
6
CONTINUOUS
10
-3.83099
20
46.9977
11
-4.02527
21
47.0209
0
LINE
8
BLACK
6
CONTINUOUS
10
-4.02527
20
47.0209
11
-4.21135
21
47.0813
0
LINE
8
BLACK
6
CONTINUOUS
10
-4.21135
20
47.0813
11
-4.38214
21
47.1768
0
LINE
8
BLACK
6
CONTINUOUS
10
-4.38214
20
47.1768
11
-4.53114
21
47.3036
0
LINE
8
BLACK
6
CONTINUOUS
10
-4.53114
20
47.3036
11
-4.65267
21
47.4569
0
LINE
8
BLACK
6
CONTINUOUS
10
-4.65267
20
47.4569
11
-4.7421
21
47.631
0
LINE
8
BLACK
6
CONTINUOUS
10
-4.7421
20
47.631
11
-4.79603
21
47.819
0
LINE
8
BLACK
6
CONTINUOUS
10
-4.79603
20
47.819
11
-4.8124
21
48.014
0
LINE
8
BLACK
6
CONTINUOUS
10
-4.8124
20
48.014
11
-4.79059
21
48.2084
0
LINE
8
BLACK
6
CONTINUOUS
10
-4.79059
20
48.2084
11
-4.73143
21
48.3949
0
LINE
8
BLACK
6
CONTINUOUS
10
-4.73143
20
48.3949
11
-4.63718
21
48.5664
0
LINE
8
BLACK
6
CONTINUOUS
10
-4.63718
20
48.5664
11
-4.51141
21
48.7163
0
LINE
8
BLACK
6
CONTINUOUS
10
-4.51141
20
48.7163
11
-4.35893
21
48.8389
0
LINE
8
BLACK
6
CONTINUOUS
10
-4.35893
20
48.8389
11
-4.18554
21
48.9295
0
LINE
8
BLACK
6
CONTINUOUS
10
-4.18554
20
48.9295
11
-3.99785
21
48.9847
0
LINE
8
BLACK
6
CONTINUOUS
10
-3.99785
20
48.9847
11
-3.803
21
49.0025
0
LINE
8
BLACK
6
CONTINUOUS
10
-3.803
20
49.0025
11
-3.60842
21
48.982
0
LINE
8
BLACK
6
CONTINUOUS
10
23.7181
20
48.9352
11
23.7344
21
48.9244
0
LINE
8
BLACK
6
CONTINUOUS
10
23.7344
20
48.9244
11
23.7452
21
48.9081
0
LINE
8
BLACK
6
CONTINUOUS
10
23.7452
20
48.9081
11
23.749
21
48.889
0
LINE
8
BLACK
6
CONTINUOUS
10
23.749
20
48.889
11
23.749
21
47.111
0
LINE
8
BLACK
6
CONTINUOUS
10
23.749
20
47.111
11
23.7452
21
47.0919
0
LINE
8
BLACK
6
CONTINUOUS
10
23.7452
20
47.0919
11
23.7344
21
47.0756
0
LINE
8
BLACK
6
CONTINUOUS
10
23.7344
20
47.0756
11
23.7181
21
47.0648
0
LINE
8
BLACK
6
CONTINUOUS
10
23.7181
20
47.0648
11
23.699
21
47.061
0
LINE
8
BLACK
6
CONTINUOUS
10
23.699
20
47.061
11
21.921
21
47.061
0
LINE
8
BLACK
6
CONTINUOUS
10
21.921
20
47.061
11
21.9019
21
47.0648
0
LINE
8
BLACK
6
CONTINUOUS
10
21.9019
20
47.0648
11
21.8856
21
47.0756
0
LINE
8
BLACK
6
CONTINUOUS
10
21.8856
20
47.0756
11
21.8748
21
47.0919
0
LINE
8
BLACK
6
CONTINUOUS
10
21.8748
20
47.0919
11
21.871
21
47.111
0
LINE
8
BLACK
6
CONTINUOUS
10
21.871
20
47.111
11
21.871
21
48.889
0
LINE
8
BLACK
6
CONTINUOUS
10
21.871
20
48.889
11
21.8748
21
48.9081
0
LINE
8
BLACK
6
CONTINUOUS
10
21.8748
20
48.9081
11
21.8856
21
48.9244
0
LINE
8
BLACK
6
CONTINUOUS
10
21.8856
20
48.9244
11
21.9019
21
48.9352
0
LINE
8
BLACK
6
CONTINUOUS
10
21.9019
20
48.9352
11
21.921
21
48.939
0
LINE
8
BLACK
6
CONTINUOUS
10
21.921
20
48.939
11
23.699
21
48.939
0
LINE
8
BLACK
6
CONTINUOUS
10
23.699
20
48.939
11
23.7181
21
48.9352
0
LINE
8
BLACK
6
CONTINUOUS
10
4.71813
20
48.9352
11
4.73435
21
48.9244
0
LINE
8
BLACK
6
CONTINUOUS
10
4.73435
20
48.9244
11
4.74519
21
48.9081
0
LINE
8
BLACK
6
CONTINUOUS
10
4.74519
20
48.9081
11
4.749
21
48.889
0
LINE
8
BLACK
6
CONTINUOUS
10
4.749
20
48.889
11
4.749
21
47.111
0
LINE
8
BLACK
6
CONTINUOUS
10
4.749
20
47.111
11
4.74519
21
47.0919
0
LINE
8
BLACK
6
CONTINUOUS
10
4.74519
20
47.0919
11
4.73435
21
47.0756
0
LINE
8
BLACK
6
CONTINUOUS
10
4.73435
20
47.0756
11
4.71813
21
47.0648
0
LINE
8
BLACK
6
CONTINUOUS
10
4.71813
20
47.0648
11
4.699
21
47.061
0
LINE
8
BLACK
6
CONTINUOUS
10
4.699
20
47.061
11
2.921
21
47.061
0
LINE
8
BLACK
6
CONTINUOUS
10
2.921
20
47.061
11
2.90187
21
47.0648
0
LINE
8
BLACK
6
CONTINUOUS
10
2.90187
20
47.0648
11
2.88564
21
47.0756
0
LINE
8
BLACK
6
CONTINUOUS
10
2.88564
20
47.0756
11
2.87481
21
47.0919
0
LINE
8
BLACK
6
CONTINUOUS
10
2.87481
20
47.0919
11
2.871
21
47.111
0
LINE
8
BLACK
6
CONTINUOUS
10
2.871
20
47.111
11
2.871
21
48.889
0
LINE
8
BLACK
6
CONTINUOUS
10
2.871
20
48.889
11
2.87481
21
48.9081
0
LINE
8
BLACK
6
CONTINUOUS
10
2.87481
20
48.9081
11
2.88564
21
48.9244
0
LINE
8
BLACK
6
CONTINUOUS
10
2.88564
20
48.9244
11
2.90187
21
48.9352
0
LINE
8
BLACK
6
CONTINUOUS
10
2.90187
20
48.9352
11
2.921
21
48.939
0
LINE
8
BLACK
6
CONTINUOUS
10
2.921
20
48.939
11
4.699
21
48.939
0
LINE
8
BLACK
6
CONTINUOUS
10
4.699
20
48.939
11
4.71813
21
48.9352
0
LINE
8
BLACK
6
CONTINUOUS
10
99.7181
20
48.9352
11
99.7344
21
48.9244
0
LINE
8
BLACK
6
CONTINUOUS
10
99.7344
20
48.9244
11
99.7452
21
48.9081
0
LINE
8
BLACK
6
CONTINUOUS
10
99.7452
20
48.9081
11
99.749
21
48.889
0
LINE
8
BLACK
6
CONTINUOUS
10
99.749
20
48.889
11
99.749
21
47.111
0
LINE
8
BLACK
6
CONTINUOUS
10
99.749
20
47.111
11
99.7452
21
47.0919
0
LINE
8
BLACK
6
CONTINUOUS
10
99.7452
20
47.0919
11
99.7344
21
47.0756
0
LINE
8
BLACK
6
CONTINUOUS
10
99.7344
20
47.0756
11
99.7181
21
47.0648
0
LINE
8
BLACK
6
CONTINUOUS
10
99.7181
20
47.0648
11
99.699
21
47.061
0
LINE
8
BLACK
6
CONTINUOUS
10
99.699
20
47.061
11
97.921
21
47.061
0
LINE
8
BLACK
6
CONTINUOUS
10
97.921
20
47.061
11
97.9019
21
47.0648
0
LINE
8
BLACK
6
CONTINUOUS
10
97.9019
20
47.0648
11
97.8856
21
47.0756
0
LINE
8
BLACK
6
CONTINUOUS
10
97.8856
20
47.0756
11
97.8748
21
47.0919
0
LINE
8
BLACK
6
CONTINUOUS
10
97.8748
20
47.0919
11
97.871
21
47.111
0
LINE
8
BLACK
6
CONTINUOUS
10
97.871
20
47.111
11
97.871
21
48.889
0
LINE
8
BLACK
6
CONTINUOUS
10
97.871
20
48.889
11
97.8748
21
48.9081
0
LINE
8
BLACK
6
CONTINUOUS
10
97.8748
20
48.9081
11
97.8856
21
48.9244
0
LINE
8
BLACK
6
CONTINUOUS
10
97.8856
20
48.9244
11
97.9019
21
48.9352
0
LINE
8
BLACK
6
CONTINUOUS
10
97.9019
20
48.9352
11
97.921
21
48.939
0
LINE
8
BLACK
6
CONTINUOUS
10
97.921
20
48.939
11
99.699
21
48.939
0
LINE
8
BLACK
6
CONTINUOUS
10
99.699
20
48.939
11
99.7181
21
48.9352
0
LINE
8
BLACK
6
CONTINUOUS
10
21.1191
20
48.6462
11
21.1354
21
48.6354
0
LINE
8
BLACK
6
CONTINUOUS
10
21.1354
20
48.6354
11
21.1462
21
48.6191
0
LINE
8
BLACK
6
CONTINUOUS
10
21.1462
20
48.6191
11
21.15
21
48.6
0
LINE
8
BLACK
6
CONTINUOUS
10
21.15
20
48.6
11
21.15
21
47.4
0
LINE
8
BLACK
6
CONTINUOUS
10
21.15
20
47.4
11
21.1462
21
47.3809
0
LINE
8
BLACK
6
CONTINUOUS
10
21.1462
20
47.3809
11
21.1354
21
47.3646
0
LINE
8
BLACK
6
CONTINUOUS
10
21.1354
20
47.3646
11
21.1191
21
47.3538
0
LINE
8
BLACK
6
CONTINUOUS
10
21.1191
20
47.3538
11
21.1
21
47.35
0
LINE
8
BLACK
6
CONTINUOUS
10
21.1
20
47.35
11
20.2
21
47.35
0
LINE
8
BLACK
6
CONTINUOUS
10
20.2
20
47.35
11
20.1809
21
47.3538
0
LINE
8
BLACK
6
CONTINUOUS
10
20.1809
20
47.3538
11
20.1646
21
47.3646
0
LINE
8
BLACK
6
CONTINUOUS
10
20.1646
20
47.3646
11
20.1538
21
47.3809
0
LINE
8
BLACK
6
CONTINUOUS
10
20.1538
20
47.3809
11
20.15
21
47.4
0
LINE
8
BLACK
6
CONTINUOUS
10
20.15
20
47.4
11
20.15
21
48.6
0
LINE
8
BLACK
6
CONTINUOUS
10
20.15
20
48.6
11
20.1538
21
48.6191
0
LINE
8
BLACK
6
CONTINUOUS
10
20.1538
20
48.6191
11
20.1646
21
48.6354
0
LINE
8
BLACK
6
CONTINUOUS
10
20.1646
20
48.6354
11
20.1809
21
48.6462
0
LINE
8
BLACK
6
CONTINUOUS
10
20.1809
20
48.6462
11
20.2
21
48.65
0
LINE
8
BLACK
6
CONTINUOUS
10
20.2
20
48.65
11
21.1
21
48.65
0
LINE
8
BLACK
6
CONTINUOUS
10
21.1
20
48.65
11
21.1191
21
48.6462
0
LINE
8
BLACK
6
CONTINUOUS
10
17.8191
20
48.6462
11
17.8354
21
48.6354
0
LINE
8
BLACK
6
CONTINUOUS
10
17.8354
20
48.6354
11
17.8462
21
48.6191
0
LINE
8
BLACK
6
CONTINUOUS
10
17.8462
20
48.6191
11
17.85
21
48.6
0
LINE
8
BLACK
6
CONTINUOUS
10
17.85
20
48.6
11
17.85
21
47.4
0
LINE
8
BLACK
6
CONTINUOUS
10
17.85
20
47.4
11
17.8462
21
47.3809
0
LINE
8
BLACK
6
CONTINUOUS
10
17.8462
20
47.3809
11
17.8354
21
47.3646
0
LINE
8
BLACK
6
CONTINUOUS
10
17.8354
20
47.3646
11
17.8191
21
47.3538
0
LINE
8
BLACK
6
CONTINUOUS
10
17.8191
20
47.3538
11
17.8
21
47.35
0
LINE
8
BLACK
6
CONTINUOUS
10
17.8
20
47.35
11
16.9
21
47.35
0
LINE
8
BLACK
6
CONTINUOUS
10
16.9
20
47.35
11
16.8809
21
47.3538
0
LINE
8
BLACK
6
CONTINUOUS
10
16.8809
20
47.3538
11
16.8646
21
47.3646
0
LINE
8
BLACK
6
CONTINUOUS
10
16.8646
20
47.3646
11
16.8538
21
47.3809
0
LINE
8
BLACK
6
CONTINUOUS
10
16.8538
20
47.3809
11
16.85
21
47.4
0
LINE
8
BLACK
6
CONTINUOUS
10
16.85
20
47.4
11
16.85
21
48.6
0
LINE
8
BLACK
6
CONTINUOUS
10
16.85
20
48.6
11
16.8538
21
48.6191
0
LINE
8
BLACK
6
CONTINUOUS
10
16.8538
20
48.6191
11
16.8646
21
48.6354
0
LINE
8
BLACK
6
CONTINUOUS
10
16.8646
20
48.6354
11
16.8809
21
48.6462
0
LINE
8
BLACK
6
CONTINUOUS
10
16.8809
20
48.6462
11
16.9
21
48.65
0
LINE
8
BLACK
6
CONTINUOUS
10
16.9
20
48.65
11
17.8
21
48.65
0
LINE
8
BLACK
6
CONTINUOUS
10
17.8
20
48.65
11
17.8191
21
48.6462
0
LINE
8
BLACK
6
CONTINUOUS
10
2.11913
20
48.6462
11
2.13536
21
48.6354
0
LINE
8
BLACK
6
CONTINUOUS
10
2.13536
20
48.6354
11
2.14619
21
48.6191
0
LINE
8
BLACK
6
CONTINUOUS
10
2.14619
20
48.6191
11
2.15
21
48.6
0
LINE
8
BLACK
6
CONTINUOUS
10
2.15
20
48.6
11
2.15
21
47.4
0
LINE
8
BLACK
6
CONTINUOUS
10
2.15
20
47.4
11
2.14619
21
47.3809
0
LINE
8
BLACK
6
CONTINUOUS
10
2.14619
20
47.3809
11
2.13536
21
47.3646
0
LINE
8
BLACK
6
CONTINUOUS
10
2.13536
20
47.3646
11
2.11913
21
47.3538
0
LINE
8
BLACK
6
CONTINUOUS
10
2.11913
20
47.3538
11
2.1
21
47.35
0
LINE
8
BLACK
6
CONTINUOUS
10
2.1
20
47.35
11
1.2
21
47.35
0
LINE
8
BLACK
6
CONTINUOUS
10
1.2
20
47.35
11
1.18087
21
47.3538
0
LINE
8
BLACK
6
CONTINUOUS
10
1.18087
20
47.3538
11
1.16464
21
47.3646
0
LINE
8
BLACK
6
CONTINUOUS
10
1.16464
20
47.3646
11
1.15381
21
47.3809
0
LINE
8
BLACK
6
CONTINUOUS
10
1.15381
20
47.3809
11
1.15
21
47.4
0
LINE
8
BLACK
6
CONTINUOUS
10
1.15
20
47.4
11
1.15
21
48.6
0
LINE
8
BLACK
6
CONTINUOUS
10
1.15
20
48.6
11
1.15381
21
48.6191
0
LINE
8
BLACK
6
CONTINUOUS
10
1.15381
20
48.6191
11
1.16464
21
48.6354
0
LINE
8
BLACK
6
CONTINUOUS
10
1.16464
20
48.6354
11
1.18087
21
48.6462
0
LINE
8
BLACK
6
CONTINUOUS
10
1.18087
20
48.6462
11
1.2
21
48.65
0
LINE
8
BLACK
6
CONTINUOUS
10
1.2
20
48.65
11
2.1
21
48.65
0
LINE
8
BLACK
6
CONTINUOUS
10
2.1
20
48.65
11
2.11913
21
48.6462
0
LINE
8
BLACK
6
CONTINUOUS
10
-1.18087
20
48.6462
11
-1.16464
21
48.6354
0
LINE
8
BLACK
6
CONTINUOUS
10
-1.16464
20
48.6354
11
-1.15381
21
48.6191
0
LINE
8
BLACK
6
CONTINUOUS
10
-1.15381
20
48.6191
11
-1.15
21
48.6
0
LINE
8
BLACK
6
CONTINUOUS
10
-1.15
20
48.6
11
-1.15
21
47.4
0
LINE
8
BLACK
6
CONTINUOUS
10
-1.15
20
47.4
11
-1.15381
21
47.3809
0
LINE
8
BLACK
6
CONTINUOUS
10
-1.15381
20
47.3809
11
-1.16464
21
47.3646
0
LINE
8
BLACK
6
CONTINUOUS
10
-1.16464
20
47.3646
11
-1.18087
21
47.3538
0
LINE
8
BLACK
6
CONTINUOUS
10
-1.18087
20
47.3538
11
-1.2
21
47.35
0
LINE
8
BLACK
6
CONTINUOUS
10
-1.2
20
47.35
11
-2.1
21
47.35
0
LINE
8
BLACK
6
CONTINUOUS
10
-2.1
20
47.35
11
-2.11913
21
47.3538
0
LINE
8
BLACK
6
CONTINUOUS
10
-2.11913
20
47.3538
11
-2.13536
21
47.3646
0
LINE
8
BLACK
6
CONTINUOUS
10
-2.13536
20
47.3646
11
-2.14619
21
47.3809
0
LINE
8
BLACK
6
CONTINUOUS
10
-2.14619
20
47.3809
11
-2.15
21
47.4
0
LINE
8
BLACK
6
CONTINUOUS
10
-2.15
20
47.4
11
-2.15
21
48.6
0
LINE
8
BLACK
6
CONTINUOUS
10
-2.15
20
48.6
11
-2.14619
21
48.6191
0
LINE
8
BLACK
6
CONTINUOUS
10
-2.14619
20
48.6191
11
-2.13536
21
48.6354
0
LINE
8
BLACK
6
CONTINUOUS
10
-2.13536
20
48.6354
11
-2.11913
21
48.6462
0
LINE
8
BLACK
6
CONTINUOUS
10
-2.11913
20
48.6462
11
-2.1
21
48.65
0
LINE
8
BLACK
6
CONTINUOUS
10
-2.1
20
48.65
11
-1.2
21
48.65
0
LINE
8
BLACK
6
CONTINUOUS
10
-1.2
20
48.65
11
-1.18087
21
48.6462
0
LINE
8
BLACK
6
CONTINUOUS
10
93.8191
20
48.6462
11
93.8354
21
48.6354
0
LINE
8
BLACK
6
CONTINUOUS
10
93.8354
20
48.6354
11
93.8462
21
48.6191
0
LINE
8
BLACK
6
CONTINUOUS
10
93.8462
20
48.6191
11
93.85
21
48.6
0
LINE
8
BLACK
6
CONTINUOUS
10
93.85
20
48.6
11
93.85
21
47.4
0
LINE
8
BLACK
6
CONTINUOUS
10
93.85
20
47.4
11
93.8462
21
47.3809
0
LINE
8
BLACK
6
CONTINUOUS
10
93.8462
20
47.3809
11
93.8354
21
47.3646
0
LINE
8
BLACK
6
CONTINUOUS
10
93.8354
20
47.3646
11
93.8191
21
47.3538
0
LINE
8
BLACK
6
CONTINUOUS
10
93.8191
20
47.3538
11
93.8
21
47.35
0
LINE
8
BLACK
6
CONTINUOUS
10
93.8
20
47.35
11
92.9
21
47.35
0
LINE
8
BLACK
6
CONTINUOUS
10
92.9
20
47.35
11
92.8809
21
47.3538
0
LINE
8
BLACK
6
CONTINUOUS
10
92.8809
20
47.3538
11
92.8646
21
47.3646
0
LINE
8
BLACK
6
CONTINUOUS
10
92.8646
20
47.3646
11
92.8538
21
47.3809
0
LINE
8
BLACK
6
CONTINUOUS
10
92.8538
20
47.3809
11
92.85
21
47.4
0
LINE
8
BLACK
6
CONTINUOUS
10
92.85
20
47.4
11
92.85
21
48.6
0
LINE
8
BLACK
6
CONTINUOUS
10
92.85
20
48.6
11
92.8538
21
48.6191
0
LINE
8
BLACK
6
CONTINUOUS
10
92.8538
20
48.6191
11
92.8646
21
48.6354
0
LINE
8
BLACK
6
CONTINUOUS
10
92.8646
20
48.6354
11
92.8809
21
48.6462
0
LINE
8
BLACK
6
CONTINUOUS
10
92.8809
20
48.6462
11
92.9
21
48.65
0
LINE
8
BLACK
6
CONTINUOUS
10
92.9
20
48.65
11
93.8
21
48.65
0
LINE
8
BLACK
6
CONTINUOUS
10
93.8
20
48.65
11
93.8191
21
48.6462
0
LINE
8
BLACK
6
CONTINUOUS
10
97.1191
20
48.6462
11
97.1354
21
48.6354
0
LINE
8
BLACK
6
CONTINUOUS
10
97.1354
20
48.6354
11
97.1462
21
48.6191
0
LINE
8
BLACK
6
CONTINUOUS
10
97.1462
20
48.6191
11
97.15
21
48.6
0
LINE
8
BLACK
6
CONTINUOUS
10
97.15
20
48.6
11
97.15
21
47.4
0
LINE
8
BLACK
6
CONTINUOUS
10
97.15
20
47.4
11
97.1462
21
47.3809
0
LINE
8
BLACK
6
CONTINUOUS
10
97.1462
20
47.3809
11
97.1354
21
47.3646
0
LINE
8
BLACK
6
CONTINUOUS
10
97.1354
20
47.3646
11
97.1191
21
47.3538
0
LINE
8
BLACK
6
CONTINUOUS
10
97.1191
20
47.3538
11
97.1
21
47.35
0
LINE
8
BLACK
6
CONTINUOUS
10
97.1
20
47.35
11
96.2
21
47.35
0
LINE
8
BLACK
6
CONTINUOUS
10
96.2
20
47.35
11
96.1809
21
47.3538
0
LINE
8
BLACK
6
CONTINUOUS
10
96.1809
20
47.3538
11
96.1646
21
47.3646
0
LINE
8
BLACK
6
CONTINUOUS
10
96.1646
20
47.3646
11
96.1538
21
47.3809
0
LINE
8
BLACK
6
CONTINUOUS
10
96.1538
20
47.3809
11
96.15
21
47.4
0
LINE
8
BLACK
6
CONTINUOUS
10
96.15
20
47.4
11
96.15
21
48.6
0
LINE
8
BLACK
6
CONTINUOUS
10
96.15
20
48.6
11
96.1538
21
48.6191
0
LINE
8
BLACK
6
CONTINUOUS
10
96.1538
20
48.6191
11
96.1646
21
48.6354
0
LINE
8
BLACK
6
CONTINUOUS
10
96.1646
20
48.6354
11
96.1809
21
48.6462
0
LINE
8
BLACK
6
CONTINUOUS
10
96.1809
20
48.6462
11
96.2
21
48.65
0
LINE
8
BLACK
6
CONTINUOUS
10
96.2
20
48.65
11
97.1
21
48.65
0
LINE
8
BLACK
6
CONTINUOUS
10
97.1
20
48.65
11
97.1191
21
48.6462
0
LINE
8
BLACK
6
CONTINUOUS
10
72.3916
20
55.982
11
72.5785
21
55.9242
0
LINE
8
BLACK
6
CONTINUOUS
10
72.5785
20
55.9242
11
72.7506
21
55.8311
0
LINE
8
BLACK
6
CONTINUOUS
10
72.7506
20
55.8311
11
72.9013
21
55.7064
0
LINE
8
BLACK
6
CONTINUOUS
10
72.9013
20
55.7064
11
73.025
21
55.5548
0
LINE
8
BLACK
6
CONTINUOUS
10
73.025
20
55.5548
11
73.1169
21
55.382
0
LINE
8
BLACK
6
CONTINUOUS
10
73.1169
20
55.382
11
73.1734
21
55.1947
0
LINE
8
BLACK
6
CONTINUOUS
10
73.1734
20
55.1947
11
73.1925
21
55
0
LINE
8
BLACK
6
CONTINUOUS
10
73.1925
20
55
11
73.1921
21
54.972
0
LINE
8
BLACK
6
CONTINUOUS
10
73.1921
20
54.972
11
73.1676
21
54.7779
0
LINE
8
BLACK
6
CONTINUOUS
10
73.1676
20
54.7779
11
73.1058
21
54.5922
0
LINE
8
BLACK
6
CONTINUOUS
10
73.1058
20
54.5922
11
73.0092
21
54.4221
0
LINE
8
BLACK
6
CONTINUOUS
10
73.0092
20
54.4221
11
72.8813
21
54.274
0
LINE
8
BLACK
6
CONTINUOUS
10
72.8813
20
54.274
11
72.7272
21
54.1536
0
LINE
8
BLACK
6
CONTINUOUS
10
72.7272
20
54.1536
11
72.5525
21
54.0653
0
LINE
8
BLACK
6
CONTINUOUS
10
72.5525
20
54.0653
11
72.3641
21
54.0127
0
LINE
8
BLACK
6
CONTINUOUS
10
72.3641
20
54.0127
11
72.169
21
53.9977
0
LINE
8
BLACK
6
CONTINUOUS
10
72.169
20
53.9977
11
71.9747
21
54.0209
0
LINE
8
BLACK
6
CONTINUOUS
10
71.9747
20
54.0209
11
71.7886
21
54.0813
0
LINE
8
BLACK
6
CONTINUOUS
10
71.7886
20
54.0813
11
71.6179
21
54.1768
0
LINE
8
BLACK
6
CONTINUOUS
10
71.6179
20
54.1768
11
71.4689
21
54.3036
0
LINE
8
BLACK
6
CONTINUOUS
10
71.4689
20
54.3036
11
71.3473
21
54.4569
0
LINE
8
BLACK
6
CONTINUOUS
10
71.3473
20
54.4569
11
71.2579
21
54.631
0
LINE
8
BLACK
6
CONTINUOUS
10
71.2579
20
54.631
11
71.204
21
54.819
0
LINE
8
BLACK
6
CONTINUOUS
10
71.204
20
54.819
11
71.1876
21
55.014
0
LINE
8
BLACK
6
CONTINUOUS
10
71.1876
20
55.014
11
71.2094
21
55.2084
0
LINE
8
BLACK
6
CONTINUOUS
10
71.2094
20
55.2084
11
71.2686
21
55.3949
0
LINE
8
BLACK
6
CONTINUOUS
10
71.2686
20
55.3949
11
71.3628
21
55.5664
0
LINE
8
BLACK
6
CONTINUOUS
10
71.3628
20
55.5664
11
71.4886
21
55.7163
0
LINE
8
BLACK
6
CONTINUOUS
10
71.4886
20
55.7163
11
71.6411
21
55.8389
0
LINE
8
BLACK
6
CONTINUOUS
10
71.6411
20
55.8389
11
71.8145
21
55.9295
0
LINE
8
BLACK
6
CONTINUOUS
10
71.8145
20
55.9295
11
72.0022
21
55.9847
0
LINE
8
BLACK
6
CONTINUOUS
10
72.0022
20
55.9847
11
72.197
21
56.0025
0
LINE
8
BLACK
6
CONTINUOUS
10
72.197
20
56.0025
11
72.3916
21
55.982
0
LINE
8
BLACK
6
CONTINUOUS
10
34.3916
20
55.982
11
34.5785
21
55.9242
0
LINE
8
BLACK
6
CONTINUOUS
10
34.5785
20
55.9242
11
34.7506
21
55.8311
0
LINE
8
BLACK
6
CONTINUOUS
10
34.7506
20
55.8311
11
34.9013
21
55.7064
0
LINE
8
BLACK
6
CONTINUOUS
10
34.9013
20
55.7064
11
35.025
21
55.5548
0
LINE
8
BLACK
6
CONTINUOUS
10
35.025
20
55.5548
11
35.1169
21
55.382
0
LINE
8
BLACK
6
CONTINUOUS
10
35.1169
20
55.382
11
35.1734
21
55.1947
0
LINE
8
BLACK
6
CONTINUOUS
10
35.1734
20
55.1947
11
35.1925
21
55
0
LINE
8
BLACK
6
CONTINUOUS
10
35.1925
20
55
11
35.1921
21
54.972
0
LINE
8
BLACK
6
CONTINUOUS
10
35.1921
20
54.972
11
35.1676
21
54.7779
0
LINE
8
BLACK
6
CONTINUOUS
10
35.1676
20
54.7779
11
35.1058
21
54.5922
0
LINE
8
BLACK
6
CONTINUOUS
10
35.1058
20
54.5922
11
35.0092
21
54.4221
0
LINE
8
BLACK
6
CONTINUOUS
10
35.0092
20
54.4221
11
34.8813
21
54.274
0
LINE
8
BLACK
6
CONTINUOUS
10
34.8813
20
54.274
11
34.7272
21
54.1536
0
LINE
8
BLACK
6
CONTINUOUS
10
34.7272
20
54.1536
11
34.5525
21
54.0653
0
LINE
8
BLACK
6
CONTINUOUS
10
34.5525
20
54.0653
11
34.3641
21
54.0127
0
LINE
8
BLACK
6
CONTINUOUS
10
34.3641
20
54.0127
11
34.169
21
53.9977
0
LINE
8
BLACK
6
CONTINUOUS
10
34.169
20
53.9977
11
33.9747
21
54.0209
0
LINE
8
BLACK
6
CONTINUOUS
10
33.9747
20
54.0209
11
33.7886
21
54.0813
0
LINE
8
BLACK
6
CONTINUOUS
10
33.7886
20
54.0813
11
33.6179
21
54.1768
0
LINE
8
BLACK
6
CONTINUOUS
10
33.6179
20
54.1768
11
33.4689
21
54.3036
0
LINE
8
BLACK
6
CONTINUOUS
10
33.4689
20
54.3036
11
33.3473
21
54.4569
0
LINE
8
BLACK
6
CONTINUOUS
10
33.3473
20
54.4569
11
33.2579
21
54.631
0
LINE
8
BLACK
6
CONTINUOUS
10
33.2579
20
54.631
11
33.204
21
54.819
0
LINE
8
BLACK
6
CONTINUOUS
10
33.204
20
54.819
11
33.1876
21
55.014
0
LINE
8
BLACK
6
CONTINUOUS
10
33.1876
20
55.014
11
33.2094
21
55.2084
0
LINE
8
BLACK
6
CONTINUOUS
10
33.2094
20
55.2084
11
33.2686
21
55.3949
0
LINE
8
BLACK
6
CONTINUOUS
10
33.2686
20
55.3949
11
33.3628
21
55.5664
0
LINE
8
BLACK
6
CONTINUOUS
10
33.3628
20
55.5664
11
33.4886
21
55.7163
0
LINE
8
BLACK
6
CONTINUOUS
10
33.4886
20
55.7163
11
33.6411
21
55.8389
0
LINE
8
BLACK
6
CONTINUOUS
10
33.6411
20
55.8389
11
33.8145
21
55.9295
0
LINE
8
BLACK
6
CONTINUOUS
10
33.8145
20
55.9295
11
34.0022
21
55.9847
0
LINE
8
BLACK
6
CONTINUOUS
10
34.0022
20
55.9847
11
34.197
21
56.0025
0
LINE
8
BLACK
6
CONTINUOUS
10
34.197
20
56.0025
11
34.3916
21
55.982
0
LINE
8
BLACK
6
CONTINUOUS
10
42.7181
20
55.9352
11
42.7344
21
55.9244
0
LINE
8
BLACK
6
CONTINUOUS
10
42.7344
20
55.9244
11
42.7452
21
55.9081
0
LINE
8
BLACK
6
CONTINUOUS
10
42.7452
20
55.9081
11
42.749
21
55.889
0
LINE
8
BLACK
6
CONTINUOUS
10
42.749
20
55.889
11
42.749
21
54.111
0
LINE
8
BLACK
6
CONTINUOUS
10
42.749
20
54.111
11
42.7452
21
54.0919
0
LINE
8
BLACK
6
CONTINUOUS
10
42.7452
20
54.0919
11
42.7344
21
54.0756
0
LINE
8
BLACK
6
CONTINUOUS
10
42.7344
20
54.0756
11
42.7181
21
54.0648
0
LINE
8
BLACK
6
CONTINUOUS
10
42.7181
20
54.0648
11
42.699
21
54.061
0
LINE
8
BLACK
6
CONTINUOUS
10
42.699
20
54.061
11
40.921
21
54.061
0
LINE
8
BLACK
6
CONTINUOUS
10
40.921
20
54.061
11
40.9019
21
54.0648
0
LINE
8
BLACK
6
CONTINUOUS
10
40.9019
20
54.0648
11
40.8856
21
54.0756
0
LINE
8
BLACK
6
CONTINUOUS
10
40.8856
20
54.0756
11
40.8748
21
54.0919
0
LINE
8
BLACK
6
CONTINUOUS
10
40.8748
20
54.0919
11
40.871
21
54.111
0
LINE
8
BLACK
6
CONTINUOUS
10
40.871
20
54.111
11
40.871
21
55.889
0
LINE
8
BLACK
6
CONTINUOUS
10
40.871
20
55.889
11
40.8748
21
55.9081
0
LINE
8
BLACK
6
CONTINUOUS
10
40.8748
20
55.9081
11
40.8856
21
55.9244
0
LINE
8
BLACK
6
CONTINUOUS
10
40.8856
20
55.9244
11
40.9019
21
55.9352
0
LINE
8
BLACK
6
CONTINUOUS
10
40.9019
20
55.9352
11
40.921
21
55.939
0
LINE
8
BLACK
6
CONTINUOUS
10
40.921
20
55.939
11
42.699
21
55.939
0
LINE
8
BLACK
6
CONTINUOUS
10
42.699
20
55.939
11
42.7181
21
55.9352
0
LINE
8
BLACK
6
CONTINUOUS
10
80.7181
20
55.9352
11
80.7344
21
55.9244
0
LINE
8
BLACK
6
CONTINUOUS
10
80.7344
20
55.9244
11
80.7452
21
55.9081
0
LINE
8
BLACK
6
CONTINUOUS
10
80.7452
20
55.9081
11
80.749
21
55.889
0
LINE
8
BLACK
6
CONTINUOUS
10
80.749
20
55.889
11
80.749
21
54.111
0
LINE
8
BLACK
6
CONTINUOUS
10
80.749
20
54.111
11
80.7452
21
54.0919
0
LINE
8
BLACK
6
CONTINUOUS
10
80.7452
20
54.0919
11
80.7344
21
54.0756
0
LINE
8
BLACK
6
CONTINUOUS
10
80.7344
20
54.0756
11
80.7181
21
54.0648
0
LINE
8
BLACK
6
CONTINUOUS
10
80.7181
20
54.0648
11
80.699
21
54.061
0
LINE
8
BLACK
6
CONTINUOUS
10
80.699
20
54.061
11
78.921
21
54.061
0
LINE
8
BLACK
6
CONTINUOUS
10
78.921
20
54.061
11
78.9019
21
54.0648
0
LINE
8
BLACK
6
CONTINUOUS
10
78.9019
20
54.0648
11
78.8856
21
54.0756
0
LINE
8
BLACK
6
CONTINUOUS
10
78.8856
20
54.0756
11
78.8748
21
54.0919
0
LINE
8
BLACK
6
CONTINUOUS
10
78.8748
20
54.0919
11
78.871
21
54.111
0
LINE
8
BLACK
6
CONTINUOUS
10
78.871
20
54.111
11
78.871
21
55.889
0
LINE
8
BLACK
6
CONTINUOUS
10
78.871
20
55.889
11
78.8748
21
55.9081
0
LINE
8
BLACK
6
CONTINUOUS
10
78.8748
20
55.9081
11
78.8856
21
55.9244
0
LINE
8
BLACK
6
CONTINUOUS
10
78.8856
20
55.9244
11
78.9019
21
55.9352
0
LINE
8
BLACK
6
CONTINUOUS
10
78.9019
20
55.9352
11
78.921
21
55.939
0
LINE
8
BLACK
6
CONTINUOUS
10
78.921
20
55.939
11
80.699
21
55.939
0
LINE
8
BLACK
6
CONTINUOUS
10
80.699
20
55.939
11
80.7181
21
55.9352
0
LINE
8
BLACK
6
CONTINUOUS
10
36.8191
20
55.6462
11
36.8354
21
55.6354
0
LINE
8
BLACK
6
CONTINUOUS
10
36.8354
20
55.6354
11
36.8462
21
55.6191
0
LINE
8
BLACK
6
CONTINUOUS
10
36.8462
20
55.6191
11
36.85
21
55.6
0
LINE
8
BLACK
6
CONTINUOUS
10
36.85
20
55.6
11
36.85
21
54.4
0
LINE
8
BLACK
6
CONTINUOUS
10
36.85
20
54.4
11
36.8462
21
54.3809
0
LINE
8
BLACK
6
CONTINUOUS
10
36.8462
20
54.3809
11
36.8354
21
54.3646
0
LINE
8
BLACK
6
CONTINUOUS
10
36.8354
20
54.3646
11
36.8191
21
54.3538
0
LINE
8
BLACK
6
CONTINUOUS
10
36.8191
20
54.3538
11
36.8
21
54.35
0
LINE
8
BLACK
6
CONTINUOUS
10
36.8
20
54.35
11
35.9
21
54.35
0
LINE
8
BLACK
6
CONTINUOUS
10
35.9
20
54.35
11
35.8809
21
54.3538
0
LINE
8
BLACK
6
CONTINUOUS
10
35.8809
20
54.3538
11
35.8646
21
54.3646
0
LINE
8
BLACK
6
CONTINUOUS
10
35.8646
20
54.3646
11
35.8538
21
54.3809
0
LINE
8
BLACK
6
CONTINUOUS
10
35.8538
20
54.3809
11
35.85
21
54.4
0
LINE
8
BLACK
6
CONTINUOUS
10
35.85
20
54.4
11
35.85
21
55.6
0
LINE
8
BLACK
6
CONTINUOUS
10
35.85
20
55.6
11
35.8538
21
55.6191
0
LINE
8
BLACK
6
CONTINUOUS
10
35.8538
20
55.6191
11
35.8646
21
55.6354
0
LINE
8
BLACK
6
CONTINUOUS
10
35.8646
20
55.6354
11
35.8809
21
55.6462
0
LINE
8
BLACK
6
CONTINUOUS
10
35.8809
20
55.6462
11
35.9
21
55.65
0
LINE
8
BLACK
6
CONTINUOUS
10
35.9
20
55.65
11
36.8
21
55.65
0
LINE
8
BLACK
6
CONTINUOUS
10
36.8
20
55.65
11
36.8191
21
55.6462
0
LINE
8
BLACK
6
CONTINUOUS
10
40.1191
20
55.6462
11
40.1354
21
55.6354
0
LINE
8
BLACK
6
CONTINUOUS
10
40.1354
20
55.6354
11
40.1462
21
55.6191
0
LINE
8
BLACK
6
CONTINUOUS
10
40.1462
20
55.6191
11
40.15
21
55.6
0
LINE
8
BLACK
6
CONTINUOUS
10
40.15
20
55.6
11
40.15
21
54.4
0
LINE
8
BLACK
6
CONTINUOUS
10
40.15
20
54.4
11
40.1462
21
54.3809
0
LINE
8
BLACK
6
CONTINUOUS
10
40.1462
20
54.3809
11
40.1354
21
54.3646
0
LINE
8
BLACK
6
CONTINUOUS
10
40.1354
20
54.3646
11
40.1191
21
54.3538
0
LINE
8
BLACK
6
CONTINUOUS
10
40.1191
20
54.3538
11
40.1
21
54.35
0
LINE
8
BLACK
6
CONTINUOUS
10
40.1
20
54.35
11
39.2
21
54.35
0
LINE
8
BLACK
6
CONTINUOUS
10
39.2
20
54.35
11
39.1809
21
54.3538
0
LINE
8
BLACK
6
CONTINUOUS
10
39.1809
20
54.3538
11
39.1646
21
54.3646
0
LINE
8
BLACK
6
CONTINUOUS
10
39.1646
20
54.3646
11
39.1538
21
54.3809
0
LINE
8
BLACK
6
CONTINUOUS
10
39.1538
20
54.3809
11
39.15
21
54.4
0
LINE
8
BLACK
6
CONTINUOUS
10
39.15
20
54.4
11
39.15
21
55.6
0
LINE
8
BLACK
6
CONTINUOUS
10
39.15
20
55.6
11
39.1538
21
55.6191
0
LINE
8
BLACK
6
CONTINUOUS
10
39.1538
20
55.6191
11
39.1646
21
55.6354
0
LINE
8
BLACK
6
CONTINUOUS
10
39.1646
20
55.6354
11
39.1809
21
55.6462
0
LINE
8
BLACK
6
CONTINUOUS
10
39.1809
20
55.6462
11
39.2
21
55.65
0
LINE
8
BLACK
6
CONTINUOUS
10
39.2
20
55.65
11
40.1
21
55.65
0
LINE
8
BLACK
6
CONTINUOUS
10
40.1
20
55.65
11
40.1191
21
55.6462
0
LINE
8
BLACK
6
CONTINUOUS
10
74.8191
20
55.6462
11
74.8354
21
55.6354
0
LINE
8
BLACK
6
CONTINUOUS
10
74.8354
20
55.6354
11
74.8462
21
55.6191
0
LINE
8
BLACK
6
CONTINUOUS
10
74.8462
20
55.6191
11
74.85
21
55.6
0
LINE
8
BLACK
6
CONTINUOUS
10
74.85
20
55.6
11
74.85
21
54.4
0
LINE
8
BLACK
6
CONTINUOUS
10
74.85
20
54.4
11
74.8462
21
54.3809
0
LINE
8
BLACK
6
CONTINUOUS
10
74.8462
20
54.3809
11
74.8354
21
54.3646
0
LINE
8
BLACK
6
CONTINUOUS
10
74.8354
20
54.3646
11
74.8191
21
54.3538
0
LINE
8
BLACK
6
CONTINUOUS
10
74.8191
20
54.3538
11
74.8
21
54.35
0
LINE
8
BLACK
6
CONTINUOUS
10
74.8
20
54.35
11
73.9
21
54.35
0
LINE
8
BLACK
6
CONTINUOUS
10
73.9
20
54.35
11
73.8809
21
54.3538
0
LINE
8
BLACK
6
CONTINUOUS
10
73.8809
20
54.3538
11
73.8646
21
54.3646
0
LINE
8
BLACK
6
CONTINUOUS
10
73.8646
20
54.3646
11
73.8538
21
54.3809
0
LINE
8
BLACK
6
CONTINUOUS
10
73.8538
20
54.3809
11
73.85
21
54.4
0
LINE
8
BLACK
6
CONTINUOUS
10
73.85
20
54.4
11
73.85
21
55.6
0
LINE
8
BLACK
6
CONTINUOUS
10
73.85
20
55.6
11
73.8538
21
55.6191
0
LINE
8
BLACK
6
CONTINUOUS
10
73.8538
20
55.6191
11
73.8646
21
55.6354
0
LINE
8
BLACK
6
CONTINUOUS
10
73.8646
20
55.6354
11
73.8809
21
55.6462
0
LINE
8
BLACK
6
CONTINUOUS
10
73.8809
20
55.6462
11
73.9
21
55.65
0
LINE
8
BLACK
6
CONTINUOUS
10
73.9
20
55.65
11
74.8
21
55.65
0
LINE
8
BLACK
6
CONTINUOUS
10
74.8
20
55.65
11
74.8191
21
55.6462
0
LINE
8
BLACK
6
CONTINUOUS
10
78.1191
20
55.6462
11
78.1354
21
55.6354
0
LINE
8
BLACK
6
CONTINUOUS
10
78.1354
20
55.6354
11
78.1462
21
55.6191
0
LINE
8
BLACK
6
CONTINUOUS
10
78.1462
20
55.6191
11
78.15
21
55.6
0
LINE
8
BLACK
6
CONTINUOUS
10
78.15
20
55.6
11
78.15
21
54.4
0
LINE
8
BLACK
6
CONTINUOUS
10
78.15
20
54.4
11
78.1462
21
54.3809
0
LINE
8
BLACK
6
CONTINUOUS
10
78.1462
20
54.3809
11
78.1354
21
54.3646
0
LINE
8
BLACK
6
CONTINUOUS
10
78.1354
20
54.3646
11
78.1191
21
54.3538
0
LINE
8
BLACK
6
CONTINUOUS
10
78.1191
20
54.3538
11
78.1
21
54.35
0
LINE
8
BLACK
6
CONTINUOUS
10
78.1
20
54.35
11
77.2
21
54.35
0
LINE
8
BLACK
6
CONTINUOUS
10
77.2
20
54.35
11
77.1809
21
54.3538
0
LINE
8
BLACK
6
CONTINUOUS
10
77.1809
20
54.3538
11
77.1646
21
54.3646
0
LINE
8
BLACK
6
CONTINUOUS
10
77.1646
20
54.3646
11
77.1538
21
54.3809
0
LINE
8
BLACK
6
CONTINUOUS
10
77.1538
20
54.3809
11
77.15
21
54.4
0
LINE
8
BLACK
6
CONTINUOUS
10
77.15
20
54.4
11
77.15
21
55.6
0
LINE
8
BLACK
6
CONTINUOUS
10
77.15
20
55.6
11
77.1538
21
55.6191
0
LINE
8
BLACK
6
CONTINUOUS
10
77.1538
20
55.6191
11
77.1646
21
55.6354
0
LINE
8
BLACK
6
CONTINUOUS
10
77.1646
20
55.6354
11
77.1809
21
55.6462
0
LINE
8
BLACK
6
CONTINUOUS
10
77.1809
20
55.6462
11
77.2
21
55.65
0
LINE
8
BLACK
6
CONTINUOUS
10
77.2
20
55.65
11
78.1
21
55.65
0
LINE
8
BLACK
6
CONTINUOUS
10
78.1
20
55.65
11
78.1191
21
55.6462
0
LINE
8
BLACK
6
CONTINUOUS
10
53.3916
20
62.982
11
53.5785
21
62.9242
0
LINE
8
BLACK
6
CONTINUOUS
10
53.5785
20
62.9242
11
53.7506
21
62.8311
0
LINE
8
BLACK
6
CONTINUOUS
10
53.7506
20
62.8311
11
53.9013
21
62.7064
0
LINE
8
BLACK
6
CONTINUOUS
10
53.9013
20
62.7064
11
54.025
21
62.5548
0
LINE
8
BLACK
6
CONTINUOUS
10
54.025
20
62.5548
11
54.1169
21
62.382
0
LINE
8
BLACK
6
CONTINUOUS
10
54.1169
20
62.382
11
54.1734
21
62.1947
0
LINE
8
BLACK
6
CONTINUOUS
10
54.1734
20
62.1947
11
54.1925
21
62
0
LINE
8
BLACK
6
CONTINUOUS
10
54.1925
20
62
11
54.1921
21
61.972
0
LINE
8
BLACK
6
CONTINUOUS
10
54.1921
20
61.972
11
54.1676
21
61.7779
0
LINE
8
BLACK
6
CONTINUOUS
10
54.1676
20
61.7779
11
54.1058
21
61.5922
0
LINE
8
BLACK
6
CONTINUOUS
10
54.1058
20
61.5922
11
54.0092
21
61.4221
0
LINE
8
BLACK
6
CONTINUOUS
10
54.0092
20
61.4221
11
53.8813
21
61.274
0
LINE
8
BLACK
6
CONTINUOUS
10
53.8813
20
61.274
11
53.7272
21
61.1536
0
LINE
8
BLACK
6
CONTINUOUS
10
53.7272
20
61.1536
11
53.5525
21
61.0653
0
LINE
8
BLACK
6
CONTINUOUS
10
53.5525
20
61.0653
11
53.3641
21
61.0127
0
LINE
8
BLACK
6
CONTINUOUS
10
53.3641
20
61.0127
11
53.169
21
60.9977
0
LINE
8
BLACK
6
CONTINUOUS
10
53.169
20
60.9977
11
52.9747
21
61.0209
0
LINE
8
BLACK
6
CONTINUOUS
10
52.9747
20
61.0209
11
52.7886
21
61.0813
0
LINE
8
BLACK
6
CONTINUOUS
10
52.7886
20
61.0813
11
52.6179
21
61.1768
0
LINE
8
BLACK
6
CONTINUOUS
10
52.6179
20
61.1768
11
52.4689
21
61.3036
0
LINE
8
BLACK
6
CONTINUOUS
10
52.4689
20
61.3036
11
52.3473
21
61.4569
0
LINE
8
BLACK
6
CONTINUOUS
10
52.3473
20
61.4569
11
52.2579
21
61.631
0
LINE
8
BLACK
6
CONTINUOUS
10
52.2579
20
61.631
11
52.204
21
61.819
0
LINE
8
BLACK
6
CONTINUOUS
10
52.204
20
61.819
11
52.1876
21
62.014
0
LINE
8
BLACK
6
CONTINUOUS
10
52.1876
20
62.014
11
52.2094
21
62.2084
0
LINE
8
BLACK
6
CONTINUOUS
10
52.2094
20
62.2084
11
52.2686
21
62.3949
0
LINE
8
BLACK
6
CONTINUOUS
10
52.2686
20
62.3949
11
52.3628
21
62.5664
0
LINE
8
BLACK
6
CONTINUOUS
10
52.3628
20
62.5664
11
52.4886
21
62.7163
0
LINE
8
BLACK
6
CONTINUOUS
10
52.4886
20
62.7163
11
52.6411
21
62.8389
0
LINE
8
BLACK
6
CONTINUOUS
10
52.6411
20
62.8389
11
52.8145
21
62.9295
0
LINE
8
BLACK
6
CONTINUOUS
10
52.8145
20
62.9295
11
53.0022
21
62.9847
0
LINE
8
BLACK
6
CONTINUOUS
10
53.0022
20
62.9847
11
53.197
21
63.0025
0
LINE
8
BLACK
6
CONTINUOUS
10
53.197
20
63.0025
11
53.3916
21
62.982
0
LINE
8
BLACK
6
CONTINUOUS
10
61.7181
20
62.9352
11
61.7344
21
62.9244
0
LINE
8
BLACK
6
CONTINUOUS
10
61.7344
20
62.9244
11
61.7452
21
62.9081
0
LINE
8
BLACK
6
CONTINUOUS
10
61.7452
20
62.9081
11
61.749
21
62.889
0
LINE
8
BLACK
6
CONTINUOUS
10
61.749
20
62.889
11
61.749
21
61.111
0
LINE
8
BLACK
6
CONTINUOUS
10
61.749
20
61.111
11
61.7452
21
61.0919
0
LINE
8
BLACK
6
CONTINUOUS
10
61.7452
20
61.0919
11
61.7344
21
61.0756
0
LINE
8
BLACK
6
CONTINUOUS
10
61.7344
20
61.0756
11
61.7181
21
61.0648
0
LINE
8
BLACK
6
CONTINUOUS
10
61.7181
20
61.0648
11
61.699
21
61.061
0
LINE
8
BLACK
6
CONTINUOUS
10
61.699
20
61.061
11
59.921
21
61.061
0
LINE
8
BLACK
6
CONTINUOUS
10
59.921
20
61.061
11
59.9019
21
61.0648
0
LINE
8
BLACK
6
CONTINUOUS
10
59.9019
20
61.0648
11
59.8856
21
61.0756
0
LINE
8
BLACK
6
CONTINUOUS
10
59.8856
20
61.0756
11
59.8748
21
61.0919
0
LINE
8
BLACK
6
CONTINUOUS
10
59.8748
20
61.0919
11
59.871
21
61.111
0
LINE
8
BLACK
6
CONTINUOUS
10
59.871
20
61.111
11
59.871
21
62.889
0
LINE
8
BLACK
6
CONTINUOUS
10
59.871
20
62.889
11
59.8748
21
62.9081
0
LINE
8
BLACK
6
CONTINUOUS
10
59.8748
20
62.9081
11
59.8856
21
62.9244
0
LINE
8
BLACK
6
CONTINUOUS
10
59.8856
20
62.9244
11
59.9019
21
62.9352
0
LINE
8
BLACK
6
CONTINUOUS
10
59.9019
20
62.9352
11
59.921
21
62.939
0
LINE
8
BLACK
6
CONTINUOUS
10
59.921
20
62.939
11
61.699
21
62.939
0
LINE
8
BLACK
6
CONTINUOUS
10
61.699
20
62.939
11
61.7181
21
62.9352
0
LINE
8
BLACK
6
CONTINUOUS
10
59.1191
20
62.6462
11
59.1354
21
62.6354
0
LINE
8
BLACK
6
CONTINUOUS
10
59.1354
20
62.6354
11
59.1462
21
62.6191
0
LINE
8
BLACK
6
CONTINUOUS
10
59.1462
20
62.6191
11
59.15
21
62.6
0
LINE
8
BLACK
6
CONTINUOUS
10
59.15
20
62.6
11
59.15
21
61.4
0
LINE
8
BLACK
6
CONTINUOUS
10
59.15
20
61.4
11
59.1462
21
61.3809
0
LINE
8
BLACK
6
CONTINUOUS
10
59.1462
20
61.3809
11
59.1354
21
61.3646
0
LINE
8
BLACK
6
CONTINUOUS
10
59.1354
20
61.3646
11
59.1191
21
61.3538
0
LINE
8
BLACK
6
CONTINUOUS
10
59.1191
20
61.3538
11
59.1
21
61.35
0
LINE
8
BLACK
6
CONTINUOUS
10
59.1
20
61.35
11
58.2
21
61.35
0
LINE
8
BLACK
6
CONTINUOUS
10
58.2
20
61.35
11
58.1809
21
61.3538
0
LINE
8
BLACK
6
CONTINUOUS
10
58.1809
20
61.3538
11
58.1646
21
61.3646
0
LINE
8
BLACK
6
CONTINUOUS
10
58.1646
20
61.3646
11
58.1538
21
61.3809
0
LINE
8
BLACK
6
CONTINUOUS
10
58.1538
20
61.3809
11
58.15
21
61.4
0
LINE
8
BLACK
6
CONTINUOUS
10
58.15
20
61.4
11
58.15
21
62.6
0
LINE
8
BLACK
6
CONTINUOUS
10
58.15
20
62.6
11
58.1538
21
62.6191
0
LINE
8
BLACK
6
CONTINUOUS
10
58.1538
20
62.6191
11
58.1646
21
62.6354
0
LINE
8
BLACK
6
CONTINUOUS
10
58.1646
20
62.6354
11
58.1809
21
62.6462
0
LINE
8
BLACK
6
CONTINUOUS
10
58.1809
20
62.6462
11
58.2
21
62.65
0
LINE
8
BLACK
6
CONTINUOUS
10
58.2
20
62.65
11
59.1
21
62.65
0
LINE
8
BLACK
6
CONTINUOUS
10
59.1
20
62.65
11
59.1191
21
62.6462
0
LINE
8
BLACK
6
CONTINUOUS
10
55.8191
20
62.6462
11
55.8354
21
62.6354
0
LINE
8
BLACK
6
CONTINUOUS
10
55.8354
20
62.6354
11
55.8462
21
62.6191
0
LINE
8
BLACK
6
CONTINUOUS
10
55.8462
20
62.6191
11
55.85
21
62.6
0
LINE
8
BLACK
6
CONTINUOUS
10
55.85
20
62.6
11
55.85
21
61.4
0
LINE
8
BLACK
6
CONTINUOUS
10
55.85
20
61.4
11
55.8462
21
61.3809
0
LINE
8
BLACK
6
CONTINUOUS
10
55.8462
20
61.3809
11
55.8354
21
61.3646
0
LINE
8
BLACK
6
CONTINUOUS
10
55.8354
20
61.3646
11
55.8191
21
61.3538
0
LINE
8
BLACK
6
CONTINUOUS
10
55.8191
20
61.3538
11
55.8
21
61.35
0
LINE
8
BLACK
6
CONTINUOUS
10
55.8
20
61.35
11
54.9
21
61.35
0
LINE
8
BLACK
6
CONTINUOUS
10
54.9
20
61.35
11
54.8809
21
61.3538
0
LINE
8
BLACK
6
CONTINUOUS
10
54.8809
20
61.3538
11
54.8646
21
61.3646
0
LINE
8
BLACK
6
CONTINUOUS
10
54.8646
20
61.3646
11
54.8538
21
61.3809
0
LINE
8
BLACK
6
CONTINUOUS
10
54.8538
20
61.3809
11
54.85
21
61.4
0
LINE
8
BLACK
6
CONTINUOUS
10
54.85
20
61.4
11
54.85
21
62.6
0
LINE
8
BLACK
6
CONTINUOUS
10
54.85
20
62.6
11
54.8538
21
62.6191
0
LINE
8
BLACK
6
CONTINUOUS
10
54.8538
20
62.6191
11
54.8646
21
62.6354
0
LINE
8
BLACK
6
CONTINUOUS
10
54.8646
20
62.6354
11
54.8809
21
62.6462
0
LINE
8
BLACK
6
CONTINUOUS
10
54.8809
20
62.6462
11
54.9
21
62.65
0
LINE
8
BLACK
6
CONTINUOUS
10
54.9
20
62.65
11
55.8
21
62.65
0
LINE
8
BLACK
6
CONTINUOUS
10
55.8
20
62.65
11
55.8191
21
62.6462
  0
ENDSEC
  0
EOF
