  0
SECTION
  2
HEADER
  9
$ANGBASE
  50
0.0
  9
$ANGDIR
  70
1
  9
$MEASUREMENT
  70
1
  0
ENDSEC
  0
SECTION
  2
TABLES
  0
TABLE
  2
LTYPE
  70
4
  0
LTYPE
  5
40F
  2
CONTINUOUS
  70
0
  3
Solid line
  72
65
  73
0
  40
0.0
  0
LTYPE
  5
410
  2
DASHDOT
 70
0
  3
Dash Dot ____ _ ____ _
 72
65
 73
4
 40
2.0
 49
1.25
 49
-0.25
 49
0.25
 49
-0.25
  0
LTYPE
  5
411
  2
DASHED
 70
0
  3
Dashed __ __ __ __ __
 72
65
 73
2
 40
0.75
 49
0.5
 49
-0.25
  0
LTYPE
  5
43B
  2
DOTTED
 70
0
  3
Dotted .  .  .  .
 72
65
 73
2
 40
0.2
 49
0.0
 49
-0.2
  0
ENDTAB
  0
TABLE
  2
STYLE
  70
4
  0
STYLE
  2
KICAD
  70
0
  40
0
  41
1
  42
1
  50
0
  71
0
  3
isocp.shx
  0
STYLE
  2
KICADB
  70
0
  40
0
  41
1
  42
1
  50
0
  71
0
  3
isocp.shx
  0
STYLE
  2
KICADI
  70
0
  40
0
  41
1
  42
1
  50
15
  71
0
  3
isocp.shx
  0
STYLE
  2
KICADBI
  70
0
  40
0
  41
1
  42
1
  50
15
  71
0
  3
isocp.shx
  0
ENDTAB
  0
TABLE
  2
LAYER
  70
1
  0
LAYER
  2
BLACK
  70
0
  62
7
  6
CONTINUOUS
  0
ENDTAB
  0
ENDSEC
  0
SECTION
  2
ENTITIES
0
LINE
8
BLACK
6
CONTINUOUS
10
128.633
20
-37.6424
11
127.271
21
-38.7853
0
LINE
8
BLACK
6
CONTINUOUS
10
127.271
20
-38.7853
11
126.128
21
-37.4233
0
LINE
8
BLACK
6
CONTINUOUS
10
126.128
20
-37.4233
11
127.49
21
-36.2804
0
LINE
8
BLACK
6
CONTINUOUS
10
127.49
20
-36.2804
11
128.633
21
-37.6424
0
LINE
8
BLACK
6
CONTINUOUS
10
126.741
20
-35.8372
11
125.822
21
-36.6086
0
LINE
8
BLACK
6
CONTINUOUS
10
125.822
20
-36.6086
11
125.243
21
-35.9192
0
LINE
8
BLACK
6
CONTINUOUS
10
125.243
20
-35.9192
11
126.162
21
-35.1478
0
LINE
8
BLACK
6
CONTINUOUS
10
126.162
20
-35.1478
11
126.741
21
-35.8372
0
LINE
8
BLACK
6
CONTINUOUS
10
124.62
20
-33.3093
11
123.7
21
-34.0806
0
LINE
8
BLACK
6
CONTINUOUS
10
123.7
20
-34.0806
11
123.122
21
-33.3912
0
LINE
8
BLACK
6
CONTINUOUS
10
123.122
20
-33.3912
11
124.041
21
-32.6199
0
LINE
8
BLACK
6
CONTINUOUS
10
124.041
20
-32.6199
11
124.62
21
-33.3093
0
LINE
8
BLACK
6
CONTINUOUS
10
122.674
20
-30.7626
11
122.851
21
-30.8175
0
LINE
8
BLACK
6
CONTINUOUS
10
122.851
20
-30.8175
11
123.015
21
-30.9059
0
LINE
8
BLACK
6
CONTINUOUS
10
123.015
20
-30.9059
11
123.158
21
-31.0244
0
LINE
8
BLACK
6
CONTINUOUS
10
123.158
20
-31.0244
11
123.276
21
-31.1685
0
LINE
8
BLACK
6
CONTINUOUS
10
123.276
20
-31.1685
11
123.363
21
-31.3326
0
LINE
8
BLACK
6
CONTINUOUS
10
123.363
20
-31.3326
11
123.417
21
-31.5106
0
LINE
8
BLACK
6
CONTINUOUS
10
123.417
20
-31.5106
11
123.435
21
-31.6956
0
LINE
8
BLACK
6
CONTINUOUS
10
123.435
20
-31.6956
11
123.434
21
-31.7222
0
LINE
8
BLACK
6
CONTINUOUS
10
123.434
20
-31.7222
11
123.411
21
-31.9066
0
LINE
8
BLACK
6
CONTINUOUS
10
123.411
20
-31.9066
11
123.352
21
-32.083
0
LINE
8
BLACK
6
CONTINUOUS
10
123.352
20
-32.083
11
123.261
21
-32.2447
0
LINE
8
BLACK
6
CONTINUOUS
10
123.261
20
-32.2447
11
123.139
21
-32.3854
0
LINE
8
BLACK
6
CONTINUOUS
10
123.139
20
-32.3854
11
122.993
21
-32.4998
0
LINE
8
BLACK
6
CONTINUOUS
10
122.993
20
-32.4998
11
122.827
21
-32.5836
0
LINE
8
BLACK
6
CONTINUOUS
10
122.827
20
-32.5836
11
122.648
21
-32.6336
0
LINE
8
BLACK
6
CONTINUOUS
10
122.648
20
-32.6336
11
122.462
21
-32.6479
0
LINE
8
BLACK
6
CONTINUOUS
10
122.462
20
-32.6479
11
122.278
21
-32.6259
0
LINE
8
BLACK
6
CONTINUOUS
10
122.278
20
-32.6259
11
122.101
21
-32.5684
0
LINE
8
BLACK
6
CONTINUOUS
10
122.101
20
-32.5684
11
121.939
21
-32.4777
0
LINE
8
BLACK
6
CONTINUOUS
10
121.939
20
-32.4777
11
121.797
21
-32.3573
0
LINE
8
BLACK
6
CONTINUOUS
10
121.797
20
-32.3573
11
121.682
21
-32.2116
0
LINE
8
BLACK
6
CONTINUOUS
10
121.682
20
-32.2116
11
121.597
21
-32.0462
0
LINE
8
BLACK
6
CONTINUOUS
10
121.597
20
-32.0462
11
121.545
21
-31.8675
0
LINE
8
BLACK
6
CONTINUOUS
10
121.545
20
-31.8675
11
121.53
21
-31.6823
0
LINE
8
BLACK
6
CONTINUOUS
10
121.53
20
-31.6823
11
121.551
21
-31.4976
0
LINE
8
BLACK
6
CONTINUOUS
10
121.551
20
-31.4976
11
121.607
21
-31.3204
0
LINE
8
BLACK
6
CONTINUOUS
10
121.607
20
-31.3204
11
121.696
21
-31.1575
0
LINE
8
BLACK
6
CONTINUOUS
10
121.696
20
-31.1575
11
121.816
21
-31.0151
0
LINE
8
BLACK
6
CONTINUOUS
10
121.816
20
-31.0151
11
121.961
21
-30.8986
0
LINE
8
BLACK
6
CONTINUOUS
10
121.961
20
-30.8986
11
122.125
21
-30.8125
0
LINE
8
BLACK
6
CONTINUOUS
10
122.125
20
-30.8125
11
122.304
21
-30.76
0
LINE
8
BLACK
6
CONTINUOUS
10
122.304
20
-30.76
11
122.489
21
-30.7431
0
LINE
8
BLACK
6
CONTINUOUS
10
122.489
20
-30.7431
11
122.674
21
-30.7626
0
LINE
8
BLACK
6
CONTINUOUS
10
85.3815
20
-28.067
11
85.5591
21
-28.1219
0
LINE
8
BLACK
6
CONTINUOUS
10
85.5591
20
-28.1219
11
85.7226
21
-28.2103
0
LINE
8
BLACK
6
CONTINUOUS
10
85.7226
20
-28.2103
11
85.8659
21
-28.3288
0
LINE
8
BLACK
6
CONTINUOUS
10
85.8659
20
-28.3288
11
85.9834
21
-28.4729
0
LINE
8
BLACK
6
CONTINUOUS
10
85.9834
20
-28.4729
11
86.0706
21
-28.637
0
LINE
8
BLACK
6
CONTINUOUS
10
86.0706
20
-28.637
11
86.1244
21
-28.815
0
LINE
8
BLACK
6
CONTINUOUS
10
86.1244
20
-28.815
11
86.1425
21
-29
0
LINE
8
BLACK
6
CONTINUOUS
10
86.1425
20
-29
11
86.1421
21
-29.0266
0
LINE
8
BLACK
6
CONTINUOUS
10
86.1421
20
-29.0266
11
86.1188
21
-29.211
0
LINE
8
BLACK
6
CONTINUOUS
10
86.1188
20
-29.211
11
86.0602
21
-29.3874
0
LINE
8
BLACK
6
CONTINUOUS
10
86.0602
20
-29.3874
11
85.9683
21
-29.5491
0
LINE
8
BLACK
6
CONTINUOUS
10
85.9683
20
-29.5491
11
85.8469
21
-29.6898
0
LINE
8
BLACK
6
CONTINUOUS
10
85.8469
20
-29.6898
11
85.7004
21
-29.8042
0
LINE
8
BLACK
6
CONTINUOUS
10
85.7004
20
-29.8042
11
85.5344
21
-29.888
0
LINE
8
BLACK
6
CONTINUOUS
10
85.5344
20
-29.888
11
85.3554
21
-29.938
0
LINE
8
BLACK
6
CONTINUOUS
10
85.3554
20
-29.938
11
85.1701
21
-29.9523
0
LINE
8
BLACK
6
CONTINUOUS
10
85.1701
20
-29.9523
11
84.9855
21
-29.9303
0
LINE
8
BLACK
6
CONTINUOUS
10
84.9855
20
-29.9303
11
84.8087
21
-29.8728
0
LINE
8
BLACK
6
CONTINUOUS
10
84.8087
20
-29.8728
11
84.6464
21
-29.7821
0
LINE
8
BLACK
6
CONTINUOUS
10
84.6464
20
-29.7821
11
84.5048
21
-29.6617
0
LINE
8
BLACK
6
CONTINUOUS
10
84.5048
20
-29.6617
11
84.3894
21
-29.516
0
LINE
8
BLACK
6
CONTINUOUS
10
84.3894
20
-29.516
11
84.3044
21
-29.3506
0
LINE
8
BLACK
6
CONTINUOUS
10
84.3044
20
-29.3506
11
84.2531
21
-29.1719
0
LINE
8
BLACK
6
CONTINUOUS
10
84.2531
20
-29.1719
11
84.2376
21
-28.9867
0
LINE
8
BLACK
6
CONTINUOUS
10
84.2376
20
-28.9867
11
84.2583
21
-28.802
0
LINE
8
BLACK
6
CONTINUOUS
10
84.2583
20
-28.802
11
84.3145
21
-28.6248
0
LINE
8
BLACK
6
CONTINUOUS
10
84.3145
20
-28.6248
11
84.4041
21
-28.4619
0
LINE
8
BLACK
6
CONTINUOUS
10
84.4041
20
-28.4619
11
84.5236
21
-28.3195
0
LINE
8
BLACK
6
CONTINUOUS
10
84.5236
20
-28.3195
11
84.6684
21
-28.203
0
LINE
8
BLACK
6
CONTINUOUS
10
84.6684
20
-28.203
11
84.8332
21
-28.1169
0
LINE
8
BLACK
6
CONTINUOUS
10
84.8332
20
-28.1169
11
85.0115
21
-28.0644
0
LINE
8
BLACK
6
CONTINUOUS
10
85.0115
20
-28.0644
11
85.1966
21
-28.0475
0
LINE
8
BLACK
6
CONTINUOUS
10
85.1966
20
-28.0475
11
85.3815
21
-28.067
0
LINE
8
BLACK
6
CONTINUOUS
10
93.699
20
-29.889
11
91.921
21
-29.889
0
LINE
8
BLACK
6
CONTINUOUS
10
91.921
20
-29.889
11
91.921
21
-28.111
0
LINE
8
BLACK
6
CONTINUOUS
10
91.921
20
-28.111
11
93.699
21
-28.111
0
LINE
8
BLACK
6
CONTINUOUS
10
93.699
20
-28.111
11
93.699
21
-29.889
0
LINE
8
BLACK
6
CONTINUOUS
10
87.8
20
-29.6
11
86.9
21
-29.6
0
LINE
8
BLACK
6
CONTINUOUS
10
86.9
20
-29.6
11
86.9
21
-28.4
0
LINE
8
BLACK
6
CONTINUOUS
10
86.9
20
-28.4
11
87.8
21
-28.4
0
LINE
8
BLACK
6
CONTINUOUS
10
87.8
20
-28.4
11
87.8
21
-29.6
0
LINE
8
BLACK
6
CONTINUOUS
10
91.1
20
-29.6
11
90.2
21
-29.6
0
LINE
8
BLACK
6
CONTINUOUS
10
90.2
20
-29.6
11
90.2
21
-28.4
0
LINE
8
BLACK
6
CONTINUOUS
10
90.2
20
-28.4
11
91.1
21
-28.4
0
LINE
8
BLACK
6
CONTINUOUS
10
91.1
20
-28.4
11
91.1
21
-29.6
0
LINE
8
BLACK
6
CONTINUOUS
10
114.831
20
-24.3369
11
114.079
21
-25.9484
0
LINE
8
BLACK
6
CONTINUOUS
10
114.079
20
-25.9484
11
112.468
21
-25.1969
0
LINE
8
BLACK
6
CONTINUOUS
10
112.468
20
-25.1969
11
113.219
21
-23.5855
0
LINE
8
BLACK
6
CONTINUOUS
10
113.219
20
-23.5855
11
114.831
21
-24.3369
0
LINE
8
BLACK
6
CONTINUOUS
10
112.353
20
-23.5005
11
111.846
21
-24.5881
0
LINE
8
BLACK
6
CONTINUOUS
10
111.846
20
-24.5881
11
111.03
21
-24.2077
0
LINE
8
BLACK
6
CONTINUOUS
10
111.03
20
-24.2077
11
111.538
21
-23.1201
0
LINE
8
BLACK
6
CONTINUOUS
10
111.538
20
-23.1201
11
112.353
21
-23.5005
0
LINE
8
BLACK
6
CONTINUOUS
10
109.362
20
-22.1058
11
108.855
21
-23.1934
0
LINE
8
BLACK
6
CONTINUOUS
10
108.855
20
-23.1934
11
108.04
21
-22.8131
0
LINE
8
BLACK
6
CONTINUOUS
10
108.04
20
-22.8131
11
108.547
21
-21.7255
0
LINE
8
BLACK
6
CONTINUOUS
10
108.547
20
-21.7255
11
109.362
21
-22.1058
0
LINE
8
BLACK
6
CONTINUOUS
10
66.3815
20
-21.067
11
66.5591
21
-21.1219
0
LINE
8
BLACK
6
CONTINUOUS
10
66.5591
20
-21.1219
11
66.7226
21
-21.2103
0
LINE
8
BLACK
6
CONTINUOUS
10
66.7226
20
-21.2103
11
66.8659
21
-21.3288
0
LINE
8
BLACK
6
CONTINUOUS
10
66.8659
20
-21.3288
11
66.9834
21
-21.4729
0
LINE
8
BLACK
6
CONTINUOUS
10
66.9834
20
-21.4729
11
67.0706
21
-21.637
0
LINE
8
BLACK
6
CONTINUOUS
10
67.0706
20
-21.637
11
67.1244
21
-21.815
0
LINE
8
BLACK
6
CONTINUOUS
10
67.1244
20
-21.815
11
67.1425
21
-22
0
LINE
8
BLACK
6
CONTINUOUS
10
67.1425
20
-22
11
67.1421
21
-22.0266
0
LINE
8
BLACK
6
CONTINUOUS
10
67.1421
20
-22.0266
11
67.1188
21
-22.211
0
LINE
8
BLACK
6
CONTINUOUS
10
67.1188
20
-22.211
11
67.0602
21
-22.3874
0
LINE
8
BLACK
6
CONTINUOUS
10
67.0602
20
-22.3874
11
66.9683
21
-22.5491
0
LINE
8
BLACK
6
CONTINUOUS
10
66.9683
20
-22.5491
11
66.8469
21
-22.6898
0
LINE
8
BLACK
6
CONTINUOUS
10
66.8469
20
-22.6898
11
66.7004
21
-22.8042
0
LINE
8
BLACK
6
CONTINUOUS
10
66.7004
20
-22.8042
11
66.5344
21
-22.888
0
LINE
8
BLACK
6
CONTINUOUS
10
66.5344
20
-22.888
11
66.3554
21
-22.938
0
LINE
8
BLACK
6
CONTINUOUS
10
66.3554
20
-22.938
11
66.1701
21
-22.9523
0
LINE
8
BLACK
6
CONTINUOUS
10
66.1701
20
-22.9523
11
65.9855
21
-22.9303
0
LINE
8
BLACK
6
CONTINUOUS
10
65.9855
20
-22.9303
11
65.8087
21
-22.8728
0
LINE
8
BLACK
6
CONTINUOUS
10
65.8087
20
-22.8728
11
65.6464
21
-22.7821
0
LINE
8
BLACK
6
CONTINUOUS
10
65.6464
20
-22.7821
11
65.5048
21
-22.6617
0
LINE
8
BLACK
6
CONTINUOUS
10
65.5048
20
-22.6617
11
65.3894
21
-22.516
0
LINE
8
BLACK
6
CONTINUOUS
10
65.3894
20
-22.516
11
65.3044
21
-22.3506
0
LINE
8
BLACK
6
CONTINUOUS
10
65.3044
20
-22.3506
11
65.2531
21
-22.1719
0
LINE
8
BLACK
6
CONTINUOUS
10
65.2531
20
-22.1719
11
65.2376
21
-21.9867
0
LINE
8
BLACK
6
CONTINUOUS
10
65.2376
20
-21.9867
11
65.2583
21
-21.802
0
LINE
8
BLACK
6
CONTINUOUS
10
65.2583
20
-21.802
11
65.3145
21
-21.6248
0
LINE
8
BLACK
6
CONTINUOUS
10
65.3145
20
-21.6248
11
65.4041
21
-21.4619
0
LINE
8
BLACK
6
CONTINUOUS
10
65.4041
20
-21.4619
11
65.5236
21
-21.3195
0
LINE
8
BLACK
6
CONTINUOUS
10
65.5236
20
-21.3195
11
65.6684
21
-21.203
0
LINE
8
BLACK
6
CONTINUOUS
10
65.6684
20
-21.203
11
65.8332
21
-21.1169
0
LINE
8
BLACK
6
CONTINUOUS
10
65.8332
20
-21.1169
11
66.0115
21
-21.0644
0
LINE
8
BLACK
6
CONTINUOUS
10
66.0115
20
-21.0644
11
66.1966
21
-21.0475
0
LINE
8
BLACK
6
CONTINUOUS
10
66.1966
20
-21.0475
11
66.3815
21
-21.067
0
LINE
8
BLACK
6
CONTINUOUS
10
47.3815
20
-21.067
11
47.5591
21
-21.1219
0
LINE
8
BLACK
6
CONTINUOUS
10
47.5591
20
-21.1219
11
47.7226
21
-21.2103
0
LINE
8
BLACK
6
CONTINUOUS
10
47.7226
20
-21.2103
11
47.8659
21
-21.3288
0
LINE
8
BLACK
6
CONTINUOUS
10
47.8659
20
-21.3288
11
47.9834
21
-21.4729
0
LINE
8
BLACK
6
CONTINUOUS
10
47.9834
20
-21.4729
11
48.0706
21
-21.637
0
LINE
8
BLACK
6
CONTINUOUS
10
48.0706
20
-21.637
11
48.1244
21
-21.815
0
LINE
8
BLACK
6
CONTINUOUS
10
48.1244
20
-21.815
11
48.1425
21
-22
0
LINE
8
BLACK
6
CONTINUOUS
10
48.1425
20
-22
11
48.1421
21
-22.0266
0
LINE
8
BLACK
6
CONTINUOUS
10
48.1421
20
-22.0266
11
48.1188
21
-22.211
0
LINE
8
BLACK
6
CONTINUOUS
10
48.1188
20
-22.211
11
48.0602
21
-22.3874
0
LINE
8
BLACK
6
CONTINUOUS
10
48.0602
20
-22.3874
11
47.9683
21
-22.5491
0
LINE
8
BLACK
6
CONTINUOUS
10
47.9683
20
-22.5491
11
47.8469
21
-22.6898
0
LINE
8
BLACK
6
CONTINUOUS
10
47.8469
20
-22.6898
11
47.7004
21
-22.8042
0
LINE
8
BLACK
6
CONTINUOUS
10
47.7004
20
-22.8042
11
47.5344
21
-22.888
0
LINE
8
BLACK
6
CONTINUOUS
10
47.5344
20
-22.888
11
47.3554
21
-22.938
0
LINE
8
BLACK
6
CONTINUOUS
10
47.3554
20
-22.938
11
47.1701
21
-22.9523
0
LINE
8
BLACK
6
CONTINUOUS
10
47.1701
20
-22.9523
11
46.9855
21
-22.9303
0
LINE
8
BLACK
6
CONTINUOUS
10
46.9855
20
-22.9303
11
46.8087
21
-22.8728
0
LINE
8
BLACK
6
CONTINUOUS
10
46.8087
20
-22.8728
11
46.6464
21
-22.7821
0
LINE
8
BLACK
6
CONTINUOUS
10
46.6464
20
-22.7821
11
46.5048
21
-22.6617
0
LINE
8
BLACK
6
CONTINUOUS
10
46.5048
20
-22.6617
11
46.3894
21
-22.516
0
LINE
8
BLACK
6
CONTINUOUS
10
46.3894
20
-22.516
11
46.3044
21
-22.3506
0
LINE
8
BLACK
6
CONTINUOUS
10
46.3044
20
-22.3506
11
46.2531
21
-22.1719
0
LINE
8
BLACK
6
CONTINUOUS
10
46.2531
20
-22.1719
11
46.2376
21
-21.9867
0
LINE
8
BLACK
6
CONTINUOUS
10
46.2376
20
-21.9867
11
46.2583
21
-21.802
0
LINE
8
BLACK
6
CONTINUOUS
10
46.2583
20
-21.802
11
46.3145
21
-21.6248
0
LINE
8
BLACK
6
CONTINUOUS
10
46.3145
20
-21.6248
11
46.4041
21
-21.4619
0
LINE
8
BLACK
6
CONTINUOUS
10
46.4041
20
-21.4619
11
46.5236
21
-21.3195
0
LINE
8
BLACK
6
CONTINUOUS
10
46.5236
20
-21.3195
11
46.6684
21
-21.203
0
LINE
8
BLACK
6
CONTINUOUS
10
46.6684
20
-21.203
11
46.8332
21
-21.1169
0
LINE
8
BLACK
6
CONTINUOUS
10
46.8332
20
-21.1169
11
47.0115
21
-21.0644
0
LINE
8
BLACK
6
CONTINUOUS
10
47.0115
20
-21.0644
11
47.1966
21
-21.0475
0
LINE
8
BLACK
6
CONTINUOUS
10
47.1966
20
-21.0475
11
47.3815
21
-21.067
0
LINE
8
BLACK
6
CONTINUOUS
10
74.699
20
-22.889
11
72.921
21
-22.889
0
LINE
8
BLACK
6
CONTINUOUS
10
72.921
20
-22.889
11
72.921
21
-21.111
0
LINE
8
BLACK
6
CONTINUOUS
10
72.921
20
-21.111
11
74.699
21
-21.111
0
LINE
8
BLACK
6
CONTINUOUS
10
74.699
20
-21.111
11
74.699
21
-22.889
0
LINE
8
BLACK
6
CONTINUOUS
10
55.699
20
-22.889
11
53.921
21
-22.889
0
LINE
8
BLACK
6
CONTINUOUS
10
53.921
20
-22.889
11
53.921
21
-21.111
0
LINE
8
BLACK
6
CONTINUOUS
10
53.921
20
-21.111
11
55.699
21
-21.111
0
LINE
8
BLACK
6
CONTINUOUS
10
55.699
20
-21.111
11
55.699
21
-22.889
0
LINE
8
BLACK
6
CONTINUOUS
10
72.1
20
-22.6
11
71.2
21
-22.6
0
LINE
8
BLACK
6
CONTINUOUS
10
71.2
20
-22.6
11
71.2
21
-21.4
0
LINE
8
BLACK
6
CONTINUOUS
10
71.2
20
-21.4
11
72.1
21
-21.4
0
LINE
8
BLACK
6
CONTINUOUS
10
72.1
20
-21.4
11
72.1
21
-22.6
0
LINE
8
BLACK
6
CONTINUOUS
10
68.8
20
-22.6
11
67.9
21
-22.6
0
LINE
8
BLACK
6
CONTINUOUS
10
67.9
20
-22.6
11
67.9
21
-21.4
0
LINE
8
BLACK
6
CONTINUOUS
10
67.9
20
-21.4
11
68.8
21
-21.4
0
LINE
8
BLACK
6
CONTINUOUS
10
68.8
20
-21.4
11
68.8
21
-22.6
0
LINE
8
BLACK
6
CONTINUOUS
10
53.1
20
-22.6
11
52.2
21
-22.6
0
LINE
8
BLACK
6
CONTINUOUS
10
52.2
20
-22.6
11
52.2
21
-21.4
0
LINE
8
BLACK
6
CONTINUOUS
10
52.2
20
-21.4
11
53.1
21
-21.4
0
LINE
8
BLACK
6
CONTINUOUS
10
53.1
20
-21.4
11
53.1
21
-22.6
0
LINE
8
BLACK
6
CONTINUOUS
10
49.8
20
-22.6
11
48.9
21
-22.6
0
LINE
8
BLACK
6
CONTINUOUS
10
48.9
20
-22.6
11
48.9
21
-21.4
0
LINE
8
BLACK
6
CONTINUOUS
10
48.9
20
-21.4
11
49.8
21
-21.4
0
LINE
8
BLACK
6
CONTINUOUS
10
49.8
20
-21.4
11
49.8
21
-22.6
0
LINE
8
BLACK
6
CONTINUOUS
10
106.935
20
-20.6135
11
107.113
21
-20.6685
0
LINE
8
BLACK
6
CONTINUOUS
10
107.113
20
-20.6685
11
107.276
21
-20.7569
0
LINE
8
BLACK
6
CONTINUOUS
10
107.276
20
-20.7569
11
107.419
21
-20.8754
0
LINE
8
BLACK
6
CONTINUOUS
10
107.419
20
-20.8754
11
107.537
21
-21.0195
0
LINE
8
BLACK
6
CONTINUOUS
10
107.537
20
-21.0195
11
107.624
21
-21.1836
0
LINE
8
BLACK
6
CONTINUOUS
10
107.624
20
-21.1836
11
107.678
21
-21.3616
0
LINE
8
BLACK
6
CONTINUOUS
10
107.678
20
-21.3616
11
107.696
21
-21.5466
0
LINE
8
BLACK
6
CONTINUOUS
10
107.696
20
-21.5466
11
107.696
21
-21.5732
0
LINE
8
BLACK
6
CONTINUOUS
10
107.696
20
-21.5732
11
107.672
21
-21.7576
0
LINE
8
BLACK
6
CONTINUOUS
10
107.672
20
-21.7576
11
107.614
21
-21.934
0
LINE
8
BLACK
6
CONTINUOUS
10
107.614
20
-21.934
11
107.522
21
-22.0956
0
LINE
8
BLACK
6
CONTINUOUS
10
107.522
20
-22.0956
11
107.4
21
-22.2364
0
LINE
8
BLACK
6
CONTINUOUS
10
107.4
20
-22.2364
11
107.254
21
-22.3508
0
LINE
8
BLACK
6
CONTINUOUS
10
107.254
20
-22.3508
11
107.088
21
-22.4346
0
LINE
8
BLACK
6
CONTINUOUS
10
107.088
20
-22.4346
11
106.909
21
-22.4846
0
LINE
8
BLACK
6
CONTINUOUS
10
106.909
20
-22.4846
11
106.723
21
-22.4989
0
LINE
8
BLACK
6
CONTINUOUS
10
106.723
20
-22.4989
11
106.539
21
-22.4769
0
LINE
8
BLACK
6
CONTINUOUS
10
106.539
20
-22.4769
11
106.362
21
-22.4194
0
LINE
8
BLACK
6
CONTINUOUS
10
106.362
20
-22.4194
11
106.2
21
-22.3287
0
LINE
8
BLACK
6
CONTINUOUS
10
106.2
20
-22.3287
11
106.058
21
-22.2083
0
LINE
8
BLACK
6
CONTINUOUS
10
106.058
20
-22.2083
11
105.943
21
-22.0626
0
LINE
8
BLACK
6
CONTINUOUS
10
105.943
20
-22.0626
11
105.858
21
-21.8972
0
LINE
8
BLACK
6
CONTINUOUS
10
105.858
20
-21.8972
11
105.807
21
-21.7185
0
LINE
8
BLACK
6
CONTINUOUS
10
105.807
20
-21.7185
11
105.791
21
-21.5333
0
LINE
8
BLACK
6
CONTINUOUS
10
105.791
20
-21.5333
11
105.812
21
-21.3486
0
LINE
8
BLACK
6
CONTINUOUS
10
105.812
20
-21.3486
11
105.868
21
-21.1714
0
LINE
8
BLACK
6
CONTINUOUS
10
105.868
20
-21.1714
11
105.957
21
-21.0085
0
LINE
8
BLACK
6
CONTINUOUS
10
105.957
20
-21.0085
11
106.077
21
-20.8661
0
LINE
8
BLACK
6
CONTINUOUS
10
106.077
20
-20.8661
11
106.222
21
-20.7496
0
LINE
8
BLACK
6
CONTINUOUS
10
106.222
20
-20.7496
11
106.387
21
-20.6635
0
LINE
8
BLACK
6
CONTINUOUS
10
106.387
20
-20.6635
11
106.565
21
-20.611
0
LINE
8
BLACK
6
CONTINUOUS
10
106.565
20
-20.611
11
106.75
21
-20.5941
0
LINE
8
BLACK
6
CONTINUOUS
10
106.75
20
-20.5941
11
106.935
21
-20.6135
0
LINE
8
BLACK
6
CONTINUOUS
10
-3.61847
20
-8.06696
11
-3.44089
21
-8.12192
0
LINE
8
BLACK
6
CONTINUOUS
10
-3.44089
20
-8.12192
11
-3.27737
21
-8.21034
0
LINE
8
BLACK
6
CONTINUOUS
10
-3.27737
20
-8.21034
11
-3.13413
21
-8.32884
0
LINE
8
BLACK
6
CONTINUOUS
10
-3.13413
20
-8.32884
11
-3.01664
21
-8.47289
0
LINE
8
BLACK
6
CONTINUOUS
10
-3.01664
20
-8.47289
11
-2.92937
21
-8.63703
0
LINE
8
BLACK
6
CONTINUOUS
10
-2.92937
20
-8.63703
11
-2.87564
21
-8.81499
0
LINE
8
BLACK
6
CONTINUOUS
10
-2.87564
20
-8.81499
11
-2.8575
21
-9
0
LINE
8
BLACK
6
CONTINUOUS
10
-2.8575
20
-9
11
-2.85787
21
-9.0266
0
LINE
8
BLACK
6
CONTINUOUS
10
-2.85787
20
-9.0266
11
-2.88117
21
-9.21102
0
LINE
8
BLACK
6
CONTINUOUS
10
-2.88117
20
-9.21102
11
-2.93985
21
-9.38742
0
LINE
8
BLACK
6
CONTINUOUS
10
-2.93985
20
-9.38742
11
-3.03167
21
-9.54905
0
LINE
8
BLACK
6
CONTINUOUS
10
-3.03167
20
-9.54905
11
-3.15314
21
-9.68977
0
LINE
8
BLACK
6
CONTINUOUS
10
-3.15314
20
-9.68977
11
-3.29962
21
-9.80422
0
LINE
8
BLACK
6
CONTINUOUS
10
-3.29962
20
-9.80422
11
-3.46555
21
-9.88804
0
LINE
8
BLACK
6
CONTINUOUS
10
-3.46555
20
-9.88804
11
-3.6446
21
-9.93803
0
LINE
8
BLACK
6
CONTINUOUS
10
-3.6446
20
-9.93803
11
-3.82995
21
-9.95229
0
LINE
8
BLACK
6
CONTINUOUS
10
-3.82995
20
-9.95229
11
-4.01453
21
-9.93028
0
LINE
8
BLACK
6
CONTINUOUS
10
-4.01453
20
-9.93028
11
-4.19133
21
-9.87284
0
LINE
8
BLACK
6
CONTINUOUS
10
-4.19133
20
-9.87284
11
-4.3536
21
-9.78214
0
LINE
8
BLACK
6
CONTINUOUS
10
-4.3536
20
-9.78214
11
-4.49517
21
-9.66166
0
LINE
8
BLACK
6
CONTINUOUS
10
-4.49517
20
-9.66166
11
-4.61064
21
-9.51598
0
LINE
8
BLACK
6
CONTINUOUS
10
-4.61064
20
-9.51598
11
-4.69561
21
-9.35064
0
LINE
8
BLACK
6
CONTINUOUS
10
-4.69561
20
-9.35064
11
-4.74685
21
-9.17194
0
LINE
8
BLACK
6
CONTINUOUS
10
-4.74685
20
-9.17194
11
-4.76241
21
-8.9867
0
LINE
8
BLACK
6
CONTINUOUS
10
-4.76241
20
-8.9867
11
-4.74169
21
-8.80196
0
LINE
8
BLACK
6
CONTINUOUS
10
-4.74169
20
-8.80196
11
-4.68548
21
-8.62477
0
LINE
8
BLACK
6
CONTINUOUS
10
-4.68548
20
-8.62477
11
-4.59592
21
-8.46187
0
LINE
8
BLACK
6
CONTINUOUS
10
-4.59592
20
-8.46187
11
-4.47643
21
-8.31946
0
LINE
8
BLACK
6
CONTINUOUS
10
-4.47643
20
-8.31946
11
-4.33155
21
-8.20298
0
LINE
8
BLACK
6
CONTINUOUS
10
-4.33155
20
-8.20298
11
-4.16681
21
-8.11686
0
LINE
8
BLACK
6
CONTINUOUS
10
-4.16681
20
-8.11686
11
-3.98848
21
-8.06437
0
LINE
8
BLACK
6
CONTINUOUS
10
-3.98848
20
-8.06437
11
-3.80335
21
-8.04752
0
LINE
8
BLACK
6
CONTINUOUS
10
-3.80335
20
-8.04752
11
-3.61847
21
-8.06696
0
LINE
8
BLACK
6
CONTINUOUS
10
91.3815
20
-8.06696
11
91.5591
21
-8.12192
0
LINE
8
BLACK
6
CONTINUOUS
10
91.5591
20
-8.12192
11
91.7226
21
-8.21034
0
LINE
8
BLACK
6
CONTINUOUS
10
91.7226
20
-8.21034
11
91.8659
21
-8.32884
0
LINE
8
BLACK
6
CONTINUOUS
10
91.8659
20
-8.32884
11
91.9834
21
-8.47289
0
LINE
8
BLACK
6
CONTINUOUS
10
91.9834
20
-8.47289
11
92.0706
21
-8.63703
0
LINE
8
BLACK
6
CONTINUOUS
10
92.0706
20
-8.63703
11
92.1244
21
-8.81499
0
LINE
8
BLACK
6
CONTINUOUS
10
92.1244
20
-8.81499
11
92.1425
21
-9
0
LINE
8
BLACK
6
CONTINUOUS
10
92.1425
20
-9
11
92.1421
21
-9.0266
0
LINE
8
BLACK
6
CONTINUOUS
10
92.1421
20
-9.0266
11
92.1188
21
-9.21102
0
LINE
8
BLACK
6
CONTINUOUS
10
92.1188
20
-9.21102
11
92.0602
21
-9.38742
0
LINE
8
BLACK
6
CONTINUOUS
10
92.0602
20
-9.38742
11
91.9683
21
-9.54905
0
LINE
8
BLACK
6
CONTINUOUS
10
91.9683
20
-9.54905
11
91.8469
21
-9.68977
0
LINE
8
BLACK
6
CONTINUOUS
10
91.8469
20
-9.68977
11
91.7004
21
-9.80422
0
LINE
8
BLACK
6
CONTINUOUS
10
91.7004
20
-9.80422
11
91.5344
21
-9.88804
0
LINE
8
BLACK
6
CONTINUOUS
10
91.5344
20
-9.88804
11
91.3554
21
-9.93803
0
LINE
8
BLACK
6
CONTINUOUS
10
91.3554
20
-9.93803
11
91.1701
21
-9.95229
0
LINE
8
BLACK
6
CONTINUOUS
10
91.1701
20
-9.95229
11
90.9855
21
-9.93028
0
LINE
8
BLACK
6
CONTINUOUS
10
90.9855
20
-9.93028
11
90.8087
21
-9.87284
0
LINE
8
BLACK
6
CONTINUOUS
10
90.8087
20
-9.87284
11
90.6464
21
-9.78214
0
LINE
8
BLACK
6
CONTINUOUS
10
90.6464
20
-9.78214
11
90.5048
21
-9.66166
0
LINE
8
BLACK
6
CONTINUOUS
10
90.5048
20
-9.66166
11
90.3894
21
-9.51598
0
LINE
8
BLACK
6
CONTINUOUS
10
90.3894
20
-9.51598
11
90.3044
21
-9.35064
0
LINE
8
BLACK
6
CONTINUOUS
10
90.3044
20
-9.35064
11
90.2531
21
-9.17194
0
LINE
8
BLACK
6
CONTINUOUS
10
90.2531
20
-9.17194
11
90.2376
21
-8.9867
0
LINE
8
BLACK
6
CONTINUOUS
10
90.2376
20
-8.9867
11
90.2583
21
-8.80196
0
LINE
8
BLACK
6
CONTINUOUS
10
90.2583
20
-8.80196
11
90.3145
21
-8.62477
0
LINE
8
BLACK
6
CONTINUOUS
10
90.3145
20
-8.62477
11
90.4041
21
-8.46187
0
LINE
8
BLACK
6
CONTINUOUS
10
90.4041
20
-8.46187
11
90.5236
21
-8.31946
0
LINE
8
BLACK
6
CONTINUOUS
10
90.5236
20
-8.31946
11
90.6684
21
-8.20298
0
LINE
8
BLACK
6
CONTINUOUS
10
90.6684
20
-8.20298
11
90.8332
21
-8.11686
0
LINE
8
BLACK
6
CONTINUOUS
10
90.8332
20
-8.11686
11
91.0115
21
-8.06437
0
LINE
8
BLACK
6
CONTINUOUS
10
91.0115
20
-8.06437
11
91.1966
21
-8.04752
0
LINE
8
BLACK
6
CONTINUOUS
10
91.1966
20
-8.04752
11
91.3815
21
-8.06696
0
LINE
8
BLACK
6
CONTINUOUS
10
15.3815
20
-8.06696
11
15.5591
21
-8.12192
0
LINE
8
BLACK
6
CONTINUOUS
10
15.5591
20
-8.12192
11
15.7226
21
-8.21034
0
LINE
8
BLACK
6
CONTINUOUS
10
15.7226
20
-8.21034
11
15.8659
21
-8.32884
0
LINE
8
BLACK
6
CONTINUOUS
10
15.8659
20
-8.32884
11
15.9834
21
-8.47289
0
LINE
8
BLACK
6
CONTINUOUS
10
15.9834
20
-8.47289
11
16.0706
21
-8.63703
0
LINE
8
BLACK
6
CONTINUOUS
10
16.0706
20
-8.63703
11
16.1244
21
-8.81499
0
LINE
8
BLACK
6
CONTINUOUS
10
16.1244
20
-8.81499
11
16.1425
21
-9
0
LINE
8
BLACK
6
CONTINUOUS
10
16.1425
20
-9
11
16.1421
21
-9.0266
0
LINE
8
BLACK
6
CONTINUOUS
10
16.1421
20
-9.0266
11
16.1188
21
-9.21102
0
LINE
8
BLACK
6
CONTINUOUS
10
16.1188
20
-9.21102
11
16.0602
21
-9.38742
0
LINE
8
BLACK
6
CONTINUOUS
10
16.0602
20
-9.38742
11
15.9683
21
-9.54905
0
LINE
8
BLACK
6
CONTINUOUS
10
15.9683
20
-9.54905
11
15.8469
21
-9.68977
0
LINE
8
BLACK
6
CONTINUOUS
10
15.8469
20
-9.68977
11
15.7004
21
-9.80422
0
LINE
8
BLACK
6
CONTINUOUS
10
15.7004
20
-9.80422
11
15.5344
21
-9.88804
0
LINE
8
BLACK
6
CONTINUOUS
10
15.5344
20
-9.88804
11
15.3554
21
-9.93803
0
LINE
8
BLACK
6
CONTINUOUS
10
15.3554
20
-9.93803
11
15.1701
21
-9.95229
0
LINE
8
BLACK
6
CONTINUOUS
10
15.1701
20
-9.95229
11
14.9855
21
-9.93028
0
LINE
8
BLACK
6
CONTINUOUS
10
14.9855
20
-9.93028
11
14.8087
21
-9.87284
0
LINE
8
BLACK
6
CONTINUOUS
10
14.8087
20
-9.87284
11
14.6464
21
-9.78214
0
LINE
8
BLACK
6
CONTINUOUS
10
14.6464
20
-9.78214
11
14.5048
21
-9.66166
0
LINE
8
BLACK
6
CONTINUOUS
10
14.5048
20
-9.66166
11
14.3894
21
-9.51598
0
LINE
8
BLACK
6
CONTINUOUS
10
14.3894
20
-9.51598
11
14.3044
21
-9.35064
0
LINE
8
BLACK
6
CONTINUOUS
10
14.3044
20
-9.35064
11
14.2531
21
-9.17194
0
LINE
8
BLACK
6
CONTINUOUS
10
14.2531
20
-9.17194
11
14.2376
21
-8.9867
0
LINE
8
BLACK
6
CONTINUOUS
10
14.2376
20
-8.9867
11
14.2583
21
-8.80196
0
LINE
8
BLACK
6
CONTINUOUS
10
14.2583
20
-8.80196
11
14.3145
21
-8.62477
0
LINE
8
BLACK
6
CONTINUOUS
10
14.3145
20
-8.62477
11
14.4041
21
-8.46187
0
LINE
8
BLACK
6
CONTINUOUS
10
14.4041
20
-8.46187
11
14.5236
21
-8.31946
0
LINE
8
BLACK
6
CONTINUOUS
10
14.5236
20
-8.31946
11
14.6684
21
-8.20298
0
LINE
8
BLACK
6
CONTINUOUS
10
14.6684
20
-8.20298
11
14.8332
21
-8.11686
0
LINE
8
BLACK
6
CONTINUOUS
10
14.8332
20
-8.11686
11
15.0115
21
-8.06437
0
LINE
8
BLACK
6
CONTINUOUS
10
15.0115
20
-8.06437
11
15.1966
21
-8.04752
0
LINE
8
BLACK
6
CONTINUOUS
10
15.1966
20
-8.04752
11
15.3815
21
-8.06696
0
LINE
8
BLACK
6
CONTINUOUS
10
23.699
20
-9.889
11
21.921
21
-9.889
0
LINE
8
BLACK
6
CONTINUOUS
10
21.921
20
-9.889
11
21.921
21
-8.111
0
LINE
8
BLACK
6
CONTINUOUS
10
21.921
20
-8.111
11
23.699
21
-8.111
0
LINE
8
BLACK
6
CONTINUOUS
10
23.699
20
-8.111
11
23.699
21
-9.889
0
LINE
8
BLACK
6
CONTINUOUS
10
4.699
20
-9.889
11
2.921
21
-9.889
0
LINE
8
BLACK
6
CONTINUOUS
10
2.921
20
-9.889
11
2.921
21
-8.111
0
LINE
8
BLACK
6
CONTINUOUS
10
2.921
20
-8.111
11
4.699
21
-8.111
0
LINE
8
BLACK
6
CONTINUOUS
10
4.699
20
-8.111
11
4.699
21
-9.889
0
LINE
8
BLACK
6
CONTINUOUS
10
99.699
20
-9.889
11
97.921
21
-9.889
0
LINE
8
BLACK
6
CONTINUOUS
10
97.921
20
-9.889
11
97.921
21
-8.111
0
LINE
8
BLACK
6
CONTINUOUS
10
97.921
20
-8.111
11
99.699
21
-8.111
0
LINE
8
BLACK
6
CONTINUOUS
10
99.699
20
-8.111
11
99.699
21
-9.889
0
LINE
8
BLACK
6
CONTINUOUS
10
2.1
20
-9.6
11
1.2
21
-9.6
0
LINE
8
BLACK
6
CONTINUOUS
10
1.2
20
-9.6
11
1.2
21
-8.4
0
LINE
8
BLACK
6
CONTINUOUS
10
1.2
20
-8.4
11
2.1
21
-8.4
0
LINE
8
BLACK
6
CONTINUOUS
10
2.1
20
-8.4
11
2.1
21
-9.6
0
LINE
8
BLACK
6
CONTINUOUS
10
-1.2
20
-9.6
11
-2.1
21
-9.6
0
LINE
8
BLACK
6
CONTINUOUS
10
-2.1
20
-9.6
11
-2.1
21
-8.4
0
LINE
8
BLACK
6
CONTINUOUS
10
-2.1
20
-8.4
11
-1.2
21
-8.4
0
LINE
8
BLACK
6
CONTINUOUS
10
-1.2
20
-8.4
11
-1.2
21
-9.6
0
LINE
8
BLACK
6
CONTINUOUS
10
17.8
20
-9.6
11
16.9
21
-9.6
0
LINE
8
BLACK
6
CONTINUOUS
10
16.9
20
-9.6
11
16.9
21
-8.4
0
LINE
8
BLACK
6
CONTINUOUS
10
16.9
20
-8.4
11
17.8
21
-8.4
0
LINE
8
BLACK
6
CONTINUOUS
10
17.8
20
-8.4
11
17.8
21
-9.6
0
LINE
8
BLACK
6
CONTINUOUS
10
21.1
20
-9.6
11
20.2
21
-9.6
0
LINE
8
BLACK
6
CONTINUOUS
10
20.2
20
-9.6
11
20.2
21
-8.4
0
LINE
8
BLACK
6
CONTINUOUS
10
20.2
20
-8.4
11
21.1
21
-8.4
0
LINE
8
BLACK
6
CONTINUOUS
10
21.1
20
-8.4
11
21.1
21
-9.6
0
LINE
8
BLACK
6
CONTINUOUS
10
97.1
20
-9.6
11
96.2
21
-9.6
0
LINE
8
BLACK
6
CONTINUOUS
10
96.2
20
-9.6
11
96.2
21
-8.4
0
LINE
8
BLACK
6
CONTINUOUS
10
96.2
20
-8.4
11
97.1
21
-8.4
0
LINE
8
BLACK
6
CONTINUOUS
10
97.1
20
-8.4
11
97.1
21
-9.6
0
LINE
8
BLACK
6
CONTINUOUS
10
93.8
20
-9.6
11
92.9
21
-9.6
0
LINE
8
BLACK
6
CONTINUOUS
10
92.9
20
-9.6
11
92.9
21
-8.4
0
LINE
8
BLACK
6
CONTINUOUS
10
92.9
20
-8.4
11
93.8
21
-8.4
0
LINE
8
BLACK
6
CONTINUOUS
10
93.8
20
-8.4
11
93.8
21
-9.6
0
LINE
8
BLACK
6
CONTINUOUS
10
34.3815
20
-1.06695
11
34.5591
21
-1.12192
0
LINE
8
BLACK
6
CONTINUOUS
10
34.5591
20
-1.12192
11
34.7226
21
-1.21034
0
LINE
8
BLACK
6
CONTINUOUS
10
34.7226
20
-1.21034
11
34.8659
21
-1.32884
0
LINE
8
BLACK
6
CONTINUOUS
10
34.8659
20
-1.32884
11
34.9834
21
-1.47289
0
LINE
8
BLACK
6
CONTINUOUS
10
34.9834
20
-1.47289
11
35.0706
21
-1.63703
0
LINE
8
BLACK
6
CONTINUOUS
10
35.0706
20
-1.63703
11
35.1244
21
-1.81499
0
LINE
8
BLACK
6
CONTINUOUS
10
35.1244
20
-1.81499
11
35.1425
21
-2
0
LINE
8
BLACK
6
CONTINUOUS
10
35.1425
20
-2
11
35.1421
21
-2.02659
0
LINE
8
BLACK
6
CONTINUOUS
10
35.1421
20
-2.02659
11
35.1188
21
-2.21102
0
LINE
8
BLACK
6
CONTINUOUS
10
35.1188
20
-2.21102
11
35.0602
21
-2.38742
0
LINE
8
BLACK
6
CONTINUOUS
10
35.0602
20
-2.38742
11
34.9683
21
-2.54905
0
LINE
8
BLACK
6
CONTINUOUS
10
34.9683
20
-2.54905
11
34.8469
21
-2.68977
0
LINE
8
BLACK
6
CONTINUOUS
10
34.8469
20
-2.68977
11
34.7004
21
-2.80422
0
LINE
8
BLACK
6
CONTINUOUS
10
34.7004
20
-2.80422
11
34.5344
21
-2.88804
0
LINE
8
BLACK
6
CONTINUOUS
10
34.5344
20
-2.88804
11
34.3554
21
-2.93803
0
LINE
8
BLACK
6
CONTINUOUS
10
34.3554
20
-2.93803
11
34.1701
21
-2.95229
0
LINE
8
BLACK
6
CONTINUOUS
10
34.1701
20
-2.95229
11
33.9855
21
-2.93028
0
LINE
8
BLACK
6
CONTINUOUS
10
33.9855
20
-2.93028
11
33.8087
21
-2.87283
0
LINE
8
BLACK
6
CONTINUOUS
10
33.8087
20
-2.87283
11
33.6464
21
-2.78214
0
LINE
8
BLACK
6
CONTINUOUS
10
33.6464
20
-2.78214
11
33.5048
21
-2.66166
0
LINE
8
BLACK
6
CONTINUOUS
10
33.5048
20
-2.66166
11
33.3894
21
-2.51598
0
LINE
8
BLACK
6
CONTINUOUS
10
33.3894
20
-2.51598
11
33.3044
21
-2.35064
0
LINE
8
BLACK
6
CONTINUOUS
10
33.3044
20
-2.35064
11
33.2531
21
-2.17194
0
LINE
8
BLACK
6
CONTINUOUS
10
33.2531
20
-2.17194
11
33.2376
21
-1.9867
0
LINE
8
BLACK
6
CONTINUOUS
10
33.2376
20
-1.9867
11
33.2583
21
-1.80196
0
LINE
8
BLACK
6
CONTINUOUS
10
33.2583
20
-1.80196
11
33.3145
21
-1.62477
0
LINE
8
BLACK
6
CONTINUOUS
10
33.3145
20
-1.62477
11
33.4041
21
-1.46187
0
LINE
8
BLACK
6
CONTINUOUS
10
33.4041
20
-1.46187
11
33.5236
21
-1.31946
0
LINE
8
BLACK
6
CONTINUOUS
10
33.5236
20
-1.31946
11
33.6684
21
-1.20298
0
LINE
8
BLACK
6
CONTINUOUS
10
33.6684
20
-1.20298
11
33.8332
21
-1.11686
0
LINE
8
BLACK
6
CONTINUOUS
10
33.8332
20
-1.11686
11
34.0115
21
-1.06437
0
LINE
8
BLACK
6
CONTINUOUS
10
34.0115
20
-1.06437
11
34.1966
21
-1.04752
0
LINE
8
BLACK
6
CONTINUOUS
10
34.1966
20
-1.04752
11
34.3815
21
-1.06695
0
LINE
8
BLACK
6
CONTINUOUS
10
72.3815
20
-1.06695
11
72.5591
21
-1.12192
0
LINE
8
BLACK
6
CONTINUOUS
10
72.5591
20
-1.12192
11
72.7226
21
-1.21034
0
LINE
8
BLACK
6
CONTINUOUS
10
72.7226
20
-1.21034
11
72.8659
21
-1.32884
0
LINE
8
BLACK
6
CONTINUOUS
10
72.8659
20
-1.32884
11
72.9834
21
-1.47289
0
LINE
8
BLACK
6
CONTINUOUS
10
72.9834
20
-1.47289
11
73.0706
21
-1.63703
0
LINE
8
BLACK
6
CONTINUOUS
10
73.0706
20
-1.63703
11
73.1244
21
-1.81499
0
LINE
8
BLACK
6
CONTINUOUS
10
73.1244
20
-1.81499
11
73.1425
21
-2
0
LINE
8
BLACK
6
CONTINUOUS
10
73.1425
20
-2
11
73.1421
21
-2.02659
0
LINE
8
BLACK
6
CONTINUOUS
10
73.1421
20
-2.02659
11
73.1188
21
-2.21102
0
LINE
8
BLACK
6
CONTINUOUS
10
73.1188
20
-2.21102
11
73.0602
21
-2.38742
0
LINE
8
BLACK
6
CONTINUOUS
10
73.0602
20
-2.38742
11
72.9683
21
-2.54905
0
LINE
8
BLACK
6
CONTINUOUS
10
72.9683
20
-2.54905
11
72.8469
21
-2.68977
0
LINE
8
BLACK
6
CONTINUOUS
10
72.8469
20
-2.68977
11
72.7004
21
-2.80422
0
LINE
8
BLACK
6
CONTINUOUS
10
72.7004
20
-2.80422
11
72.5344
21
-2.88804
0
LINE
8
BLACK
6
CONTINUOUS
10
72.5344
20
-2.88804
11
72.3554
21
-2.93803
0
LINE
8
BLACK
6
CONTINUOUS
10
72.3554
20
-2.93803
11
72.1701
21
-2.95229
0
LINE
8
BLACK
6
CONTINUOUS
10
72.1701
20
-2.95229
11
71.9855
21
-2.93028
0
LINE
8
BLACK
6
CONTINUOUS
10
71.9855
20
-2.93028
11
71.8087
21
-2.87283
0
LINE
8
BLACK
6
CONTINUOUS
10
71.8087
20
-2.87283
11
71.6464
21
-2.78214
0
LINE
8
BLACK
6
CONTINUOUS
10
71.6464
20
-2.78214
11
71.5048
21
-2.66166
0
LINE
8
BLACK
6
CONTINUOUS
10
71.5048
20
-2.66166
11
71.3894
21
-2.51598
0
LINE
8
BLACK
6
CONTINUOUS
10
71.3894
20
-2.51598
11
71.3044
21
-2.35064
0
LINE
8
BLACK
6
CONTINUOUS
10
71.3044
20
-2.35064
11
71.2531
21
-2.17194
0
LINE
8
BLACK
6
CONTINUOUS
10
71.2531
20
-2.17194
11
71.2376
21
-1.9867
0
LINE
8
BLACK
6
CONTINUOUS
10
71.2376
20
-1.9867
11
71.2583
21
-1.80196
0
LINE
8
BLACK
6
CONTINUOUS
10
71.2583
20
-1.80196
11
71.3145
21
-1.62477
0
LINE
8
BLACK
6
CONTINUOUS
10
71.3145
20
-1.62477
11
71.4041
21
-1.46187
0
LINE
8
BLACK
6
CONTINUOUS
10
71.4041
20
-1.46187
11
71.5236
21
-1.31946
0
LINE
8
BLACK
6
CONTINUOUS
10
71.5236
20
-1.31946
11
71.6684
21
-1.20298
0
LINE
8
BLACK
6
CONTINUOUS
10
71.6684
20
-1.20298
11
71.8332
21
-1.11686
0
LINE
8
BLACK
6
CONTINUOUS
10
71.8332
20
-1.11686
11
72.0115
21
-1.06437
0
LINE
8
BLACK
6
CONTINUOUS
10
72.0115
20
-1.06437
11
72.1966
21
-1.04752
0
LINE
8
BLACK
6
CONTINUOUS
10
72.1966
20
-1.04752
11
72.3815
21
-1.06695
0
LINE
8
BLACK
6
CONTINUOUS
10
80.699
20
-2.889
11
78.921
21
-2.889
0
LINE
8
BLACK
6
CONTINUOUS
10
78.921
20
-2.889
11
78.921
21
-1.111
0
LINE
8
BLACK
6
CONTINUOUS
10
78.921
20
-1.111
11
80.699
21
-1.111
0
LINE
8
BLACK
6
CONTINUOUS
10
80.699
20
-1.111
11
80.699
21
-2.889
0
LINE
8
BLACK
6
CONTINUOUS
10
42.699
20
-2.889
11
40.921
21
-2.889
0
LINE
8
BLACK
6
CONTINUOUS
10
40.921
20
-2.889
11
40.921
21
-1.111
0
LINE
8
BLACK
6
CONTINUOUS
10
40.921
20
-1.111
11
42.699
21
-1.111
0
LINE
8
BLACK
6
CONTINUOUS
10
42.699
20
-1.111
11
42.699
21
-2.889
0
LINE
8
BLACK
6
CONTINUOUS
10
78.1
20
-2.6
11
77.2
21
-2.6
0
LINE
8
BLACK
6
CONTINUOUS
10
77.2
20
-2.6
11
77.2
21
-1.4
0
LINE
8
BLACK
6
CONTINUOUS
10
77.2
20
-1.4
11
78.1
21
-1.4
0
LINE
8
BLACK
6
CONTINUOUS
10
78.1
20
-1.4
11
78.1
21
-2.6
0
LINE
8
BLACK
6
CONTINUOUS
10
74.8
20
-2.6
11
73.9
21
-2.6
0
LINE
8
BLACK
6
CONTINUOUS
10
73.9
20
-2.6
11
73.9
21
-1.4
0
LINE
8
BLACK
6
CONTINUOUS
10
73.9
20
-1.4
11
74.8
21
-1.4
0
LINE
8
BLACK
6
CONTINUOUS
10
74.8
20
-1.4
11
74.8
21
-2.6
0
LINE
8
BLACK
6
CONTINUOUS
10
36.8
20
-2.6
11
35.9
21
-2.6
0
LINE
8
BLACK
6
CONTINUOUS
10
35.9
20
-2.6
11
35.9
21
-1.4
0
LINE
8
BLACK
6
CONTINUOUS
10
35.9
20
-1.4
11
36.8
21
-1.4
0
LINE
8
BLACK
6
CONTINUOUS
10
36.8
20
-1.4
11
36.8
21
-2.6
0
LINE
8
BLACK
6
CONTINUOUS
10
40.1
20
-2.6
11
39.2
21
-2.6
0
LINE
8
BLACK
6
CONTINUOUS
10
39.2
20
-2.6
11
39.2
21
-1.4
0
LINE
8
BLACK
6
CONTINUOUS
10
39.2
20
-1.4
11
40.1
21
-1.4
0
LINE
8
BLACK
6
CONTINUOUS
10
40.1
20
-1.4
11
40.1
21
-2.6
0
LINE
8
BLACK
6
CONTINUOUS
10
53.3815
20
5.93304
11
53.5591
21
5.87807
0
LINE
8
BLACK
6
CONTINUOUS
10
53.5591
20
5.87807
11
53.7226
21
5.78966
0
LINE
8
BLACK
6
CONTINUOUS
10
53.7226
20
5.78966
11
53.8659
21
5.67116
0
LINE
8
BLACK
6
CONTINUOUS
10
53.8659
20
5.67116
11
53.9834
21
5.5271
0
LINE
8
BLACK
6
CONTINUOUS
10
53.9834
20
5.5271
11
54.0706
21
5.36297
0
LINE
8
BLACK
6
CONTINUOUS
10
54.0706
20
5.36297
11
54.1244
21
5.18501
0
LINE
8
BLACK
6
CONTINUOUS
10
54.1244
20
5.18501
11
54.1425
21
5
0
LINE
8
BLACK
6
CONTINUOUS
10
54.1425
20
5
11
54.1421
21
4.9734
0
LINE
8
BLACK
6
CONTINUOUS
10
54.1421
20
4.9734
11
54.1188
21
4.78897
0
LINE
8
BLACK
6
CONTINUOUS
10
54.1188
20
4.78897
11
54.0602
21
4.61258
0
LINE
8
BLACK
6
CONTINUOUS
10
54.0602
20
4.61258
11
53.9683
21
4.45095
0
LINE
8
BLACK
6
CONTINUOUS
10
53.9683
20
4.45095
11
53.8469
21
4.31023
0
LINE
8
BLACK
6
CONTINUOUS
10
53.8469
20
4.31023
11
53.7004
21
4.19578
0
LINE
8
BLACK
6
CONTINUOUS
10
53.7004
20
4.19578
11
53.5344
21
4.11196
0
LINE
8
BLACK
6
CONTINUOUS
10
53.5344
20
4.11196
11
53.3554
21
4.06197
0
LINE
8
BLACK
6
CONTINUOUS
10
53.3554
20
4.06197
11
53.1701
21
4.04771
0
LINE
8
BLACK
6
CONTINUOUS
10
53.1701
20
4.04771
11
52.9855
21
4.06972
0
LINE
8
BLACK
6
CONTINUOUS
10
52.9855
20
4.06972
11
52.8087
21
4.12716
0
LINE
8
BLACK
6
CONTINUOUS
10
52.8087
20
4.12716
11
52.6464
21
4.21786
0
LINE
8
BLACK
6
CONTINUOUS
10
52.6464
20
4.21786
11
52.5048
21
4.33834
0
LINE
8
BLACK
6
CONTINUOUS
10
52.5048
20
4.33834
11
52.3894
21
4.48402
0
LINE
8
BLACK
6
CONTINUOUS
10
52.3894
20
4.48402
11
52.3044
21
4.64936
0
LINE
8
BLACK
6
CONTINUOUS
10
52.3044
20
4.64936
11
52.2531
21
4.82806
0
LINE
8
BLACK
6
CONTINUOUS
10
52.2531
20
4.82806
11
52.2376
21
5.0133
0
LINE
8
BLACK
6
CONTINUOUS
10
52.2376
20
5.0133
11
52.2583
21
5.19804
0
LINE
8
BLACK
6
CONTINUOUS
10
52.2583
20
5.19804
11
52.3145
21
5.37523
0
LINE
8
BLACK
6
CONTINUOUS
10
52.3145
20
5.37523
11
52.4041
21
5.53813
0
LINE
8
BLACK
6
CONTINUOUS
10
52.4041
20
5.53813
11
52.5236
21
5.68053
0
LINE
8
BLACK
6
CONTINUOUS
10
52.5236
20
5.68053
11
52.6684
21
5.79702
0
LINE
8
BLACK
6
CONTINUOUS
10
52.6684
20
5.79702
11
52.8332
21
5.88314
0
LINE
8
BLACK
6
CONTINUOUS
10
52.8332
20
5.88314
11
53.0115
21
5.93563
0
LINE
8
BLACK
6
CONTINUOUS
10
53.0115
20
5.93563
11
53.1966
21
5.95248
0
LINE
8
BLACK
6
CONTINUOUS
10
53.1966
20
5.95248
11
53.3815
21
5.93304
0
LINE
8
BLACK
6
CONTINUOUS
10
61.699
20
4.111
11
59.921
21
4.111
0
LINE
8
BLACK
6
CONTINUOUS
10
59.921
20
4.111
11
59.921
21
5.889
0
LINE
8
BLACK
6
CONTINUOUS
10
59.921
20
5.889
11
61.699
21
5.889
0
LINE
8
BLACK
6
CONTINUOUS
10
61.699
20
5.889
11
61.699
21
4.111
0
LINE
8
BLACK
6
CONTINUOUS
10
55.8
20
4.4
11
54.9
21
4.4
0
LINE
8
BLACK
6
CONTINUOUS
10
54.9
20
4.4
11
54.9
21
5.6
0
LINE
8
BLACK
6
CONTINUOUS
10
54.9
20
5.6
11
55.8
21
5.6
0
LINE
8
BLACK
6
CONTINUOUS
10
55.8
20
5.6
11
55.8
21
4.4
0
LINE
8
BLACK
6
CONTINUOUS
10
59.1
20
4.4
11
58.2
21
4.4
0
LINE
8
BLACK
6
CONTINUOUS
10
58.2
20
4.4
11
58.2
21
5.6
0
LINE
8
BLACK
6
CONTINUOUS
10
58.2
20
5.6
11
59.1
21
5.6
0
LINE
8
BLACK
6
CONTINUOUS
10
59.1
20
5.6
11
59.1
21
4.4
0
LINE
8
BLACK
6
CONTINUOUS
10
110.382
20
6.93304
11
110.559
21
6.87807
0
LINE
8
BLACK
6
CONTINUOUS
10
110.559
20
6.87807
11
110.723
21
6.78966
0
LINE
8
BLACK
6
CONTINUOUS
10
110.723
20
6.78966
11
110.866
21
6.67116
0
LINE
8
BLACK
6
CONTINUOUS
10
110.866
20
6.67116
11
110.983
21
6.5271
0
LINE
8
BLACK
6
CONTINUOUS
10
110.983
20
6.5271
11
111.071
21
6.36297
0
LINE
8
BLACK
6
CONTINUOUS
10
111.071
20
6.36297
11
111.124
21
6.18501
0
LINE
8
BLACK
6
CONTINUOUS
10
111.124
20
6.18501
11
111.142
21
6
0
LINE
8
BLACK
6
CONTINUOUS
10
111.142
20
6
11
111.142
21
5.9734
0
LINE
8
BLACK
6
CONTINUOUS
10
111.142
20
5.9734
11
111.119
21
5.78897
0
LINE
8
BLACK
6
CONTINUOUS
10
111.119
20
5.78897
11
111.06
21
5.61258
0
LINE
8
BLACK
6
CONTINUOUS
10
111.06
20
5.61258
11
110.968
21
5.45095
0
LINE
8
BLACK
6
CONTINUOUS
10
110.968
20
5.45095
11
110.847
21
5.31023
0
LINE
8
BLACK
6
CONTINUOUS
10
110.847
20
5.31023
11
110.7
21
5.19578
0
LINE
8
BLACK
6
CONTINUOUS
10
110.7
20
5.19578
11
110.534
21
5.11196
0
LINE
8
BLACK
6
CONTINUOUS
10
110.534
20
5.11196
11
110.355
21
5.06197
0
LINE
8
BLACK
6
CONTINUOUS
10
110.355
20
5.06197
11
110.17
21
5.04771
0
LINE
8
BLACK
6
CONTINUOUS
10
110.17
20
5.04771
11
109.985
21
5.06972
0
LINE
8
BLACK
6
CONTINUOUS
10
109.985
20
5.06972
11
109.809
21
5.12716
0
LINE
8
BLACK
6
CONTINUOUS
10
109.809
20
5.12716
11
109.646
21
5.21786
0
LINE
8
BLACK
6
CONTINUOUS
10
109.646
20
5.21786
11
109.505
21
5.33834
0
LINE
8
BLACK
6
CONTINUOUS
10
109.505
20
5.33834
11
109.389
21
5.48402
0
LINE
8
BLACK
6
CONTINUOUS
10
109.389
20
5.48402
11
109.304
21
5.64936
0
LINE
8
BLACK
6
CONTINUOUS
10
109.304
20
5.64936
11
109.253
21
5.82806
0
LINE
8
BLACK
6
CONTINUOUS
10
109.253
20
5.82806
11
109.238
21
6.0133
0
LINE
8
BLACK
6
CONTINUOUS
10
109.238
20
6.0133
11
109.258
21
6.19804
0
LINE
8
BLACK
6
CONTINUOUS
10
109.258
20
6.19804
11
109.315
21
6.37523
0
LINE
8
BLACK
6
CONTINUOUS
10
109.315
20
6.37523
11
109.404
21
6.53813
0
LINE
8
BLACK
6
CONTINUOUS
10
109.404
20
6.53813
11
109.524
21
6.68053
0
LINE
8
BLACK
6
CONTINUOUS
10
109.524
20
6.68053
11
109.668
21
6.79702
0
LINE
8
BLACK
6
CONTINUOUS
10
109.668
20
6.79702
11
109.833
21
6.88314
0
LINE
8
BLACK
6
CONTINUOUS
10
109.833
20
6.88314
11
110.012
21
6.93563
0
LINE
8
BLACK
6
CONTINUOUS
10
110.012
20
6.93563
11
110.197
21
6.95248
0
LINE
8
BLACK
6
CONTINUOUS
10
110.197
20
6.95248
11
110.382
21
6.93304
0
LINE
8
BLACK
6
CONTINUOUS
10
118.699
20
5.111
11
116.921
21
5.111
0
LINE
8
BLACK
6
CONTINUOUS
10
116.921
20
5.111
11
116.921
21
6.889
0
LINE
8
BLACK
6
CONTINUOUS
10
116.921
20
6.889
11
118.699
21
6.889
0
LINE
8
BLACK
6
CONTINUOUS
10
118.699
20
6.889
11
118.699
21
5.111
0
LINE
8
BLACK
6
CONTINUOUS
10
116.1
20
5.4
11
115.2
21
5.4
0
LINE
8
BLACK
6
CONTINUOUS
10
115.2
20
5.4
11
115.2
21
6.6
0
LINE
8
BLACK
6
CONTINUOUS
10
115.2
20
6.6
11
116.1
21
6.6
0
LINE
8
BLACK
6
CONTINUOUS
10
116.1
20
6.6
11
116.1
21
5.4
0
LINE
8
BLACK
6
CONTINUOUS
10
112.8
20
5.4
11
111.9
21
5.4
0
LINE
8
BLACK
6
CONTINUOUS
10
111.9
20
5.4
11
111.9
21
6.6
0
LINE
8
BLACK
6
CONTINUOUS
10
111.9
20
6.6
11
112.8
21
6.6
0
LINE
8
BLACK
6
CONTINUOUS
10
112.8
20
6.6
11
112.8
21
5.4
0
LINE
8
BLACK
6
CONTINUOUS
10
-3.61847
20
10.933
11
-3.44089
21
10.8781
0
LINE
8
BLACK
6
CONTINUOUS
10
-3.44089
20
10.8781
11
-3.27737
21
10.7897
0
LINE
8
BLACK
6
CONTINUOUS
10
-3.27737
20
10.7897
11
-3.13413
21
10.6712
0
LINE
8
BLACK
6
CONTINUOUS
10
-3.13413
20
10.6712
11
-3.01664
21
10.5271
0
LINE
8
BLACK
6
CONTINUOUS
10
-3.01664
20
10.5271
11
-2.92937
21
10.363
0
LINE
8
BLACK
6
CONTINUOUS
10
-2.92937
20
10.363
11
-2.87564
21
10.185
0
LINE
8
BLACK
6
CONTINUOUS
10
-2.87564
20
10.185
11
-2.8575
21
10
0
LINE
8
BLACK
6
CONTINUOUS
10
-2.8575
20
10
11
-2.85787
21
9.9734
0
LINE
8
BLACK
6
CONTINUOUS
10
-2.85787
20
9.9734
11
-2.88117
21
9.78897
0
LINE
8
BLACK
6
CONTINUOUS
10
-2.88117
20
9.78897
11
-2.93985
21
9.61258
0
LINE
8
BLACK
6
CONTINUOUS
10
-2.93985
20
9.61258
11
-3.03167
21
9.45095
0
LINE
8
BLACK
6
CONTINUOUS
10
-3.03167
20
9.45095
11
-3.15314
21
9.31023
0
LINE
8
BLACK
6
CONTINUOUS
10
-3.15314
20
9.31023
11
-3.29962
21
9.19578
0
LINE
8
BLACK
6
CONTINUOUS
10
-3.29962
20
9.19578
11
-3.46555
21
9.11196
0
LINE
8
BLACK
6
CONTINUOUS
10
-3.46555
20
9.11196
11
-3.6446
21
9.06197
0
LINE
8
BLACK
6
CONTINUOUS
10
-3.6446
20
9.06197
11
-3.82995
21
9.04771
0
LINE
8
BLACK
6
CONTINUOUS
10
-3.82995
20
9.04771
11
-4.01453
21
9.06972
0
LINE
8
BLACK
6
CONTINUOUS
10
-4.01453
20
9.06972
11
-4.19133
21
9.12716
0
LINE
8
BLACK
6
CONTINUOUS
10
-4.19133
20
9.12716
11
-4.3536
21
9.21786
0
LINE
8
BLACK
6
CONTINUOUS
10
-4.3536
20
9.21786
11
-4.49517
21
9.33834
0
LINE
8
BLACK
6
CONTINUOUS
10
-4.49517
20
9.33834
11
-4.61064
21
9.48402
0
LINE
8
BLACK
6
CONTINUOUS
10
-4.61064
20
9.48402
11
-4.69561
21
9.64936
0
LINE
8
BLACK
6
CONTINUOUS
10
-4.69561
20
9.64936
11
-4.74685
21
9.82806
0
LINE
8
BLACK
6
CONTINUOUS
10
-4.74685
20
9.82806
11
-4.76241
21
10.0133
0
LINE
8
BLACK
6
CONTINUOUS
10
-4.76241
20
10.0133
11
-4.74169
21
10.198
0
LINE
8
BLACK
6
CONTINUOUS
10
-4.74169
20
10.198
11
-4.68548
21
10.3752
0
LINE
8
BLACK
6
CONTINUOUS
10
-4.68548
20
10.3752
11
-4.59592
21
10.5381
0
LINE
8
BLACK
6
CONTINUOUS
10
-4.59592
20
10.5381
11
-4.47643
21
10.6805
0
LINE
8
BLACK
6
CONTINUOUS
10
-4.47643
20
10.6805
11
-4.33155
21
10.797
0
LINE
8
BLACK
6
CONTINUOUS
10
-4.33155
20
10.797
11
-4.16681
21
10.8831
0
LINE
8
BLACK
6
CONTINUOUS
10
-4.16681
20
10.8831
11
-3.98848
21
10.9356
0
LINE
8
BLACK
6
CONTINUOUS
10
-3.98848
20
10.9356
11
-3.80335
21
10.9525
0
LINE
8
BLACK
6
CONTINUOUS
10
-3.80335
20
10.9525
11
-3.61847
21
10.933
0
LINE
8
BLACK
6
CONTINUOUS
10
15.3815
20
10.933
11
15.5591
21
10.8781
0
LINE
8
BLACK
6
CONTINUOUS
10
15.5591
20
10.8781
11
15.7226
21
10.7897
0
LINE
8
BLACK
6
CONTINUOUS
10
15.7226
20
10.7897
11
15.8659
21
10.6712
0
LINE
8
BLACK
6
CONTINUOUS
10
15.8659
20
10.6712
11
15.9834
21
10.5271
0
LINE
8
BLACK
6
CONTINUOUS
10
15.9834
20
10.5271
11
16.0706
21
10.363
0
LINE
8
BLACK
6
CONTINUOUS
10
16.0706
20
10.363
11
16.1244
21
10.185
0
LINE
8
BLACK
6
CONTINUOUS
10
16.1244
20
10.185
11
16.1425
21
10
0
LINE
8
BLACK
6
CONTINUOUS
10
16.1425
20
10
11
16.1421
21
9.9734
0
LINE
8
BLACK
6
CONTINUOUS
10
16.1421
20
9.9734
11
16.1188
21
9.78897
0
LINE
8
BLACK
6
CONTINUOUS
10
16.1188
20
9.78897
11
16.0602
21
9.61258
0
LINE
8
BLACK
6
CONTINUOUS
10
16.0602
20
9.61258
11
15.9683
21
9.45095
0
LINE
8
BLACK
6
CONTINUOUS
10
15.9683
20
9.45095
11
15.8469
21
9.31023
0
LINE
8
BLACK
6
CONTINUOUS
10
15.8469
20
9.31023
11
15.7004
21
9.19578
0
LINE
8
BLACK
6
CONTINUOUS
10
15.7004
20
9.19578
11
15.5344
21
9.11196
0
LINE
8
BLACK
6
CONTINUOUS
10
15.5344
20
9.11196
11
15.3554
21
9.06197
0
LINE
8
BLACK
6
CONTINUOUS
10
15.3554
20
9.06197
11
15.1701
21
9.04771
0
LINE
8
BLACK
6
CONTINUOUS
10
15.1701
20
9.04771
11
14.9855
21
9.06972
0
LINE
8
BLACK
6
CONTINUOUS
10
14.9855
20
9.06972
11
14.8087
21
9.12716
0
LINE
8
BLACK
6
CONTINUOUS
10
14.8087
20
9.12716
11
14.6464
21
9.21786
0
LINE
8
BLACK
6
CONTINUOUS
10
14.6464
20
9.21786
11
14.5048
21
9.33834
0
LINE
8
BLACK
6
CONTINUOUS
10
14.5048
20
9.33834
11
14.3894
21
9.48402
0
LINE
8
BLACK
6
CONTINUOUS
10
14.3894
20
9.48402
11
14.3044
21
9.64936
0
LINE
8
BLACK
6
CONTINUOUS
10
14.3044
20
9.64936
11
14.2531
21
9.82806
0
LINE
8
BLACK
6
CONTINUOUS
10
14.2531
20
9.82806
11
14.2376
21
10.0133
0
LINE
8
BLACK
6
CONTINUOUS
10
14.2376
20
10.0133
11
14.2583
21
10.198
0
LINE
8
BLACK
6
CONTINUOUS
10
14.2583
20
10.198
11
14.3145
21
10.3752
0
LINE
8
BLACK
6
CONTINUOUS
10
14.3145
20
10.3752
11
14.4041
21
10.5381
0
LINE
8
BLACK
6
CONTINUOUS
10
14.4041
20
10.5381
11
14.5236
21
10.6805
0
LINE
8
BLACK
6
CONTINUOUS
10
14.5236
20
10.6805
11
14.6684
21
10.797
0
LINE
8
BLACK
6
CONTINUOUS
10
14.6684
20
10.797
11
14.8332
21
10.8831
0
LINE
8
BLACK
6
CONTINUOUS
10
14.8332
20
10.8831
11
15.0115
21
10.9356
0
LINE
8
BLACK
6
CONTINUOUS
10
15.0115
20
10.9356
11
15.1966
21
10.9525
0
LINE
8
BLACK
6
CONTINUOUS
10
15.1966
20
10.9525
11
15.3815
21
10.933
0
LINE
8
BLACK
6
CONTINUOUS
10
91.3815
20
10.933
11
91.5591
21
10.8781
0
LINE
8
BLACK
6
CONTINUOUS
10
91.5591
20
10.8781
11
91.7226
21
10.7897
0
LINE
8
BLACK
6
CONTINUOUS
10
91.7226
20
10.7897
11
91.8659
21
10.6712
0
LINE
8
BLACK
6
CONTINUOUS
10
91.8659
20
10.6712
11
91.9834
21
10.5271
0
LINE
8
BLACK
6
CONTINUOUS
10
91.9834
20
10.5271
11
92.0706
21
10.363
0
LINE
8
BLACK
6
CONTINUOUS
10
92.0706
20
10.363
11
92.1244
21
10.185
0
LINE
8
BLACK
6
CONTINUOUS
10
92.1244
20
10.185
11
92.1425
21
10
0
LINE
8
BLACK
6
CONTINUOUS
10
92.1425
20
10
11
92.1421
21
9.9734
0
LINE
8
BLACK
6
CONTINUOUS
10
92.1421
20
9.9734
11
92.1188
21
9.78897
0
LINE
8
BLACK
6
CONTINUOUS
10
92.1188
20
9.78897
11
92.0602
21
9.61258
0
LINE
8
BLACK
6
CONTINUOUS
10
92.0602
20
9.61258
11
91.9683
21
9.45095
0
LINE
8
BLACK
6
CONTINUOUS
10
91.9683
20
9.45095
11
91.8469
21
9.31023
0
LINE
8
BLACK
6
CONTINUOUS
10
91.8469
20
9.31023
11
91.7004
21
9.19578
0
LINE
8
BLACK
6
CONTINUOUS
10
91.7004
20
9.19578
11
91.5344
21
9.11196
0
LINE
8
BLACK
6
CONTINUOUS
10
91.5344
20
9.11196
11
91.3554
21
9.06197
0
LINE
8
BLACK
6
CONTINUOUS
10
91.3554
20
9.06197
11
91.1701
21
9.04771
0
LINE
8
BLACK
6
CONTINUOUS
10
91.1701
20
9.04771
11
90.9855
21
9.06972
0
LINE
8
BLACK
6
CONTINUOUS
10
90.9855
20
9.06972
11
90.8087
21
9.12716
0
LINE
8
BLACK
6
CONTINUOUS
10
90.8087
20
9.12716
11
90.6464
21
9.21786
0
LINE
8
BLACK
6
CONTINUOUS
10
90.6464
20
9.21786
11
90.5048
21
9.33834
0
LINE
8
BLACK
6
CONTINUOUS
10
90.5048
20
9.33834
11
90.3894
21
9.48402
0
LINE
8
BLACK
6
CONTINUOUS
10
90.3894
20
9.48402
11
90.3044
21
9.64936
0
LINE
8
BLACK
6
CONTINUOUS
10
90.3044
20
9.64936
11
90.2531
21
9.82806
0
LINE
8
BLACK
6
CONTINUOUS
10
90.2531
20
9.82806
11
90.2376
21
10.0133
0
LINE
8
BLACK
6
CONTINUOUS
10
90.2376
20
10.0133
11
90.2583
21
10.198
0
LINE
8
BLACK
6
CONTINUOUS
10
90.2583
20
10.198
11
90.3145
21
10.3752
0
LINE
8
BLACK
6
CONTINUOUS
10
90.3145
20
10.3752
11
90.4041
21
10.5381
0
LINE
8
BLACK
6
CONTINUOUS
10
90.4041
20
10.5381
11
90.5236
21
10.6805
0
LINE
8
BLACK
6
CONTINUOUS
10
90.5236
20
10.6805
11
90.6684
21
10.797
0
LINE
8
BLACK
6
CONTINUOUS
10
90.6684
20
10.797
11
90.8332
21
10.8831
0
LINE
8
BLACK
6
CONTINUOUS
10
90.8332
20
10.8831
11
91.0115
21
10.9356
0
LINE
8
BLACK
6
CONTINUOUS
10
91.0115
20
10.9356
11
91.1966
21
10.9525
0
LINE
8
BLACK
6
CONTINUOUS
10
91.1966
20
10.9525
11
91.3815
21
10.933
0
LINE
8
BLACK
6
CONTINUOUS
10
4.699
20
9.111
11
2.921
21
9.111
0
LINE
8
BLACK
6
CONTINUOUS
10
2.921
20
9.111
11
2.921
21
10.889
0
LINE
8
BLACK
6
CONTINUOUS
10
2.921
20
10.889
11
4.699
21
10.889
0
LINE
8
BLACK
6
CONTINUOUS
10
4.699
20
10.889
11
4.699
21
9.111
0
LINE
8
BLACK
6
CONTINUOUS
10
99.699
20
9.111
11
97.921
21
9.111
0
LINE
8
BLACK
6
CONTINUOUS
10
97.921
20
9.111
11
97.921
21
10.889
0
LINE
8
BLACK
6
CONTINUOUS
10
97.921
20
10.889
11
99.699
21
10.889
0
LINE
8
BLACK
6
CONTINUOUS
10
99.699
20
10.889
11
99.699
21
9.111
0
LINE
8
BLACK
6
CONTINUOUS
10
23.699
20
9.111
11
21.921
21
9.111
0
LINE
8
BLACK
6
CONTINUOUS
10
21.921
20
9.111
11
21.921
21
10.889
0
LINE
8
BLACK
6
CONTINUOUS
10
21.921
20
10.889
11
23.699
21
10.889
0
LINE
8
BLACK
6
CONTINUOUS
10
23.699
20
10.889
11
23.699
21
9.111
0
LINE
8
BLACK
6
CONTINUOUS
10
2.1
20
9.4
11
1.2
21
9.4
0
LINE
8
BLACK
6
CONTINUOUS
10
1.2
20
9.4
11
1.2
21
10.6
0
LINE
8
BLACK
6
CONTINUOUS
10
1.2
20
10.6
11
2.1
21
10.6
0
LINE
8
BLACK
6
CONTINUOUS
10
2.1
20
10.6
11
2.1
21
9.4
0
LINE
8
BLACK
6
CONTINUOUS
10
93.8
20
9.4
11
92.9
21
9.4
0
LINE
8
BLACK
6
CONTINUOUS
10
92.9
20
9.4
11
92.9
21
10.6
0
LINE
8
BLACK
6
CONTINUOUS
10
92.9
20
10.6
11
93.8
21
10.6
0
LINE
8
BLACK
6
CONTINUOUS
10
93.8
20
10.6
11
93.8
21
9.4
0
LINE
8
BLACK
6
CONTINUOUS
10
-1.2
20
9.4
11
-2.1
21
9.4
0
LINE
8
BLACK
6
CONTINUOUS
10
-2.1
20
9.4
11
-2.1
21
10.6
0
LINE
8
BLACK
6
CONTINUOUS
10
-2.1
20
10.6
11
-1.2
21
10.6
0
LINE
8
BLACK
6
CONTINUOUS
10
-1.2
20
10.6
11
-1.2
21
9.4
0
LINE
8
BLACK
6
CONTINUOUS
10
97.1
20
9.4
11
96.2
21
9.4
0
LINE
8
BLACK
6
CONTINUOUS
10
96.2
20
9.4
11
96.2
21
10.6
0
LINE
8
BLACK
6
CONTINUOUS
10
96.2
20
10.6
11
97.1
21
10.6
0
LINE
8
BLACK
6
CONTINUOUS
10
97.1
20
10.6
11
97.1
21
9.4
0
LINE
8
BLACK
6
CONTINUOUS
10
17.8
20
9.4
11
16.9
21
9.4
0
LINE
8
BLACK
6
CONTINUOUS
10
16.9
20
9.4
11
16.9
21
10.6
0
LINE
8
BLACK
6
CONTINUOUS
10
16.9
20
10.6
11
17.8
21
10.6
0
LINE
8
BLACK
6
CONTINUOUS
10
17.8
20
10.6
11
17.8
21
9.4
0
LINE
8
BLACK
6
CONTINUOUS
10
21.1
20
9.4
11
20.2
21
9.4
0
LINE
8
BLACK
6
CONTINUOUS
10
20.2
20
9.4
11
20.2
21
10.6
0
LINE
8
BLACK
6
CONTINUOUS
10
20.2
20
10.6
11
21.1
21
10.6
0
LINE
8
BLACK
6
CONTINUOUS
10
21.1
20
10.6
11
21.1
21
9.4
0
LINE
8
BLACK
6
CONTINUOUS
10
34.3815
20
17.933
11
34.5591
21
17.8781
0
LINE
8
BLACK
6
CONTINUOUS
10
34.5591
20
17.8781
11
34.7226
21
17.7897
0
LINE
8
BLACK
6
CONTINUOUS
10
34.7226
20
17.7897
11
34.8659
21
17.6712
0
LINE
8
BLACK
6
CONTINUOUS
10
34.8659
20
17.6712
11
34.9834
21
17.5271
0
LINE
8
BLACK
6
CONTINUOUS
10
34.9834
20
17.5271
11
35.0706
21
17.363
0
LINE
8
BLACK
6
CONTINUOUS
10
35.0706
20
17.363
11
35.1244
21
17.185
0
LINE
8
BLACK
6
CONTINUOUS
10
35.1244
20
17.185
11
35.1425
21
17
0
LINE
8
BLACK
6
CONTINUOUS
10
35.1425
20
17
11
35.1421
21
16.9734
0
LINE
8
BLACK
6
CONTINUOUS
10
35.1421
20
16.9734
11
35.1188
21
16.789
0
LINE
8
BLACK
6
CONTINUOUS
10
35.1188
20
16.789
11
35.0602
21
16.6126
0
LINE
8
BLACK
6
CONTINUOUS
10
35.0602
20
16.6126
11
34.9683
21
16.4509
0
LINE
8
BLACK
6
CONTINUOUS
10
34.9683
20
16.4509
11
34.8469
21
16.3102
0
LINE
8
BLACK
6
CONTINUOUS
10
34.8469
20
16.3102
11
34.7004
21
16.1958
0
LINE
8
BLACK
6
CONTINUOUS
10
34.7004
20
16.1958
11
34.5344
21
16.112
0
LINE
8
BLACK
6
CONTINUOUS
10
34.5344
20
16.112
11
34.3554
21
16.062
0
LINE
8
BLACK
6
CONTINUOUS
10
34.3554
20
16.062
11
34.1701
21
16.0477
0
LINE
8
BLACK
6
CONTINUOUS
10
34.1701
20
16.0477
11
33.9855
21
16.0697
0
LINE
8
BLACK
6
CONTINUOUS
10
33.9855
20
16.0697
11
33.8087
21
16.1272
0
LINE
8
BLACK
6
CONTINUOUS
10
33.8087
20
16.1272
11
33.6464
21
16.2179
0
LINE
8
BLACK
6
CONTINUOUS
10
33.6464
20
16.2179
11
33.5048
21
16.3383
0
LINE
8
BLACK
6
CONTINUOUS
10
33.5048
20
16.3383
11
33.3894
21
16.484
0
LINE
8
BLACK
6
CONTINUOUS
10
33.3894
20
16.484
11
33.3044
21
16.6494
0
LINE
8
BLACK
6
CONTINUOUS
10
33.3044
20
16.6494
11
33.2531
21
16.8281
0
LINE
8
BLACK
6
CONTINUOUS
10
33.2531
20
16.8281
11
33.2376
21
17.0133
0
LINE
8
BLACK
6
CONTINUOUS
10
33.2376
20
17.0133
11
33.2583
21
17.198
0
LINE
8
BLACK
6
CONTINUOUS
10
33.2583
20
17.198
11
33.3145
21
17.3752
0
LINE
8
BLACK
6
CONTINUOUS
10
33.3145
20
17.3752
11
33.4041
21
17.5381
0
LINE
8
BLACK
6
CONTINUOUS
10
33.4041
20
17.5381
11
33.5236
21
17.6805
0
LINE
8
BLACK
6
CONTINUOUS
10
33.5236
20
17.6805
11
33.6684
21
17.797
0
LINE
8
BLACK
6
CONTINUOUS
10
33.6684
20
17.797
11
33.8332
21
17.8831
0
LINE
8
BLACK
6
CONTINUOUS
10
33.8332
20
17.8831
11
34.0115
21
17.9356
0
LINE
8
BLACK
6
CONTINUOUS
10
34.0115
20
17.9356
11
34.1966
21
17.9525
0
LINE
8
BLACK
6
CONTINUOUS
10
34.1966
20
17.9525
11
34.3815
21
17.933
0
LINE
8
BLACK
6
CONTINUOUS
10
72.3815
20
17.933
11
72.5591
21
17.8781
0
LINE
8
BLACK
6
CONTINUOUS
10
72.5591
20
17.8781
11
72.7226
21
17.7897
0
LINE
8
BLACK
6
CONTINUOUS
10
72.7226
20
17.7897
11
72.8659
21
17.6712
0
LINE
8
BLACK
6
CONTINUOUS
10
72.8659
20
17.6712
11
72.9834
21
17.5271
0
LINE
8
BLACK
6
CONTINUOUS
10
72.9834
20
17.5271
11
73.0706
21
17.363
0
LINE
8
BLACK
6
CONTINUOUS
10
73.0706
20
17.363
11
73.1244
21
17.185
0
LINE
8
BLACK
6
CONTINUOUS
10
73.1244
20
17.185
11
73.1425
21
17
0
LINE
8
BLACK
6
CONTINUOUS
10
73.1425
20
17
11
73.1421
21
16.9734
0
LINE
8
BLACK
6
CONTINUOUS
10
73.1421
20
16.9734
11
73.1188
21
16.789
0
LINE
8
BLACK
6
CONTINUOUS
10
73.1188
20
16.789
11
73.0602
21
16.6126
0
LINE
8
BLACK
6
CONTINUOUS
10
73.0602
20
16.6126
11
72.9683
21
16.4509
0
LINE
8
BLACK
6
CONTINUOUS
10
72.9683
20
16.4509
11
72.8469
21
16.3102
0
LINE
8
BLACK
6
CONTINUOUS
10
72.8469
20
16.3102
11
72.7004
21
16.1958
0
LINE
8
BLACK
6
CONTINUOUS
10
72.7004
20
16.1958
11
72.5344
21
16.112
0
LINE
8
BLACK
6
CONTINUOUS
10
72.5344
20
16.112
11
72.3554
21
16.062
0
LINE
8
BLACK
6
CONTINUOUS
10
72.3554
20
16.062
11
72.1701
21
16.0477
0
LINE
8
BLACK
6
CONTINUOUS
10
72.1701
20
16.0477
11
71.9855
21
16.0697
0
LINE
8
BLACK
6
CONTINUOUS
10
71.9855
20
16.0697
11
71.8087
21
16.1272
0
LINE
8
BLACK
6
CONTINUOUS
10
71.8087
20
16.1272
11
71.6464
21
16.2179
0
LINE
8
BLACK
6
CONTINUOUS
10
71.6464
20
16.2179
11
71.5048
21
16.3383
0
LINE
8
BLACK
6
CONTINUOUS
10
71.5048
20
16.3383
11
71.3894
21
16.484
0
LINE
8
BLACK
6
CONTINUOUS
10
71.3894
20
16.484
11
71.3044
21
16.6494
0
LINE
8
BLACK
6
CONTINUOUS
10
71.3044
20
16.6494
11
71.2531
21
16.8281
0
LINE
8
BLACK
6
CONTINUOUS
10
71.2531
20
16.8281
11
71.2376
21
17.0133
0
LINE
8
BLACK
6
CONTINUOUS
10
71.2376
20
17.0133
11
71.2583
21
17.198
0
LINE
8
BLACK
6
CONTINUOUS
10
71.2583
20
17.198
11
71.3145
21
17.3752
0
LINE
8
BLACK
6
CONTINUOUS
10
71.3145
20
17.3752
11
71.4041
21
17.5381
0
LINE
8
BLACK
6
CONTINUOUS
10
71.4041
20
17.5381
11
71.5236
21
17.6805
0
LINE
8
BLACK
6
CONTINUOUS
10
71.5236
20
17.6805
11
71.6684
21
17.797
0
LINE
8
BLACK
6
CONTINUOUS
10
71.6684
20
17.797
11
71.8332
21
17.8831
0
LINE
8
BLACK
6
CONTINUOUS
10
71.8332
20
17.8831
11
72.0115
21
17.9356
0
LINE
8
BLACK
6
CONTINUOUS
10
72.0115
20
17.9356
11
72.1966
21
17.9525
0
LINE
8
BLACK
6
CONTINUOUS
10
72.1966
20
17.9525
11
72.3815
21
17.933
0
LINE
8
BLACK
6
CONTINUOUS
10
42.699
20
16.111
11
40.921
21
16.111
0
LINE
8
BLACK
6
CONTINUOUS
10
40.921
20
16.111
11
40.921
21
17.889
0
LINE
8
BLACK
6
CONTINUOUS
10
40.921
20
17.889
11
42.699
21
17.889
0
LINE
8
BLACK
6
CONTINUOUS
10
42.699
20
17.889
11
42.699
21
16.111
0
LINE
8
BLACK
6
CONTINUOUS
10
80.699
20
16.111
11
78.921
21
16.111
0
LINE
8
BLACK
6
CONTINUOUS
10
78.921
20
16.111
11
78.921
21
17.889
0
LINE
8
BLACK
6
CONTINUOUS
10
78.921
20
17.889
11
80.699
21
17.889
0
LINE
8
BLACK
6
CONTINUOUS
10
80.699
20
17.889
11
80.699
21
16.111
0
LINE
8
BLACK
6
CONTINUOUS
10
78.1
20
16.4
11
77.2
21
16.4
0
LINE
8
BLACK
6
CONTINUOUS
10
77.2
20
16.4
11
77.2
21
17.6
0
LINE
8
BLACK
6
CONTINUOUS
10
77.2
20
17.6
11
78.1
21
17.6
0
LINE
8
BLACK
6
CONTINUOUS
10
78.1
20
17.6
11
78.1
21
16.4
0
LINE
8
BLACK
6
CONTINUOUS
10
40.1
20
16.4
11
39.2
21
16.4
0
LINE
8
BLACK
6
CONTINUOUS
10
39.2
20
16.4
11
39.2
21
17.6
0
LINE
8
BLACK
6
CONTINUOUS
10
39.2
20
17.6
11
40.1
21
17.6
0
LINE
8
BLACK
6
CONTINUOUS
10
40.1
20
17.6
11
40.1
21
16.4
0
LINE
8
BLACK
6
CONTINUOUS
10
36.8
20
16.4
11
35.9
21
16.4
0
LINE
8
BLACK
6
CONTINUOUS
10
35.9
20
16.4
11
35.9
21
17.6
0
LINE
8
BLACK
6
CONTINUOUS
10
35.9
20
17.6
11
36.8
21
17.6
0
LINE
8
BLACK
6
CONTINUOUS
10
36.8
20
17.6
11
36.8
21
16.4
0
LINE
8
BLACK
6
CONTINUOUS
10
74.8
20
16.4
11
73.9
21
16.4
0
LINE
8
BLACK
6
CONTINUOUS
10
73.9
20
16.4
11
73.9
21
17.6
0
LINE
8
BLACK
6
CONTINUOUS
10
73.9
20
17.6
11
74.8
21
17.6
0
LINE
8
BLACK
6
CONTINUOUS
10
74.8
20
17.6
11
74.8
21
16.4
0
LINE
8
BLACK
6
CONTINUOUS
10
53.3815
20
24.933
11
53.5591
21
24.8781
0
LINE
8
BLACK
6
CONTINUOUS
10
53.5591
20
24.8781
11
53.7226
21
24.7897
0
LINE
8
BLACK
6
CONTINUOUS
10
53.7226
20
24.7897
11
53.8659
21
24.6712
0
LINE
8
BLACK
6
CONTINUOUS
10
53.8659
20
24.6712
11
53.9834
21
24.5271
0
LINE
8
BLACK
6
CONTINUOUS
10
53.9834
20
24.5271
11
54.0706
21
24.363
0
LINE
8
BLACK
6
CONTINUOUS
10
54.0706
20
24.363
11
54.1244
21
24.185
0
LINE
8
BLACK
6
CONTINUOUS
10
54.1244
20
24.185
11
54.1425
21
24
0
LINE
8
BLACK
6
CONTINUOUS
10
54.1425
20
24
11
54.1421
21
23.9734
0
LINE
8
BLACK
6
CONTINUOUS
10
54.1421
20
23.9734
11
54.1188
21
23.789
0
LINE
8
BLACK
6
CONTINUOUS
10
54.1188
20
23.789
11
54.0602
21
23.6126
0
LINE
8
BLACK
6
CONTINUOUS
10
54.0602
20
23.6126
11
53.9683
21
23.4509
0
LINE
8
BLACK
6
CONTINUOUS
10
53.9683
20
23.4509
11
53.8469
21
23.3102
0
LINE
8
BLACK
6
CONTINUOUS
10
53.8469
20
23.3102
11
53.7004
21
23.1958
0
LINE
8
BLACK
6
CONTINUOUS
10
53.7004
20
23.1958
11
53.5344
21
23.112
0
LINE
8
BLACK
6
CONTINUOUS
10
53.5344
20
23.112
11
53.3554
21
23.062
0
LINE
8
BLACK
6
CONTINUOUS
10
53.3554
20
23.062
11
53.1701
21
23.0477
0
LINE
8
BLACK
6
CONTINUOUS
10
53.1701
20
23.0477
11
52.9855
21
23.0697
0
LINE
8
BLACK
6
CONTINUOUS
10
52.9855
20
23.0697
11
52.8087
21
23.1272
0
LINE
8
BLACK
6
CONTINUOUS
10
52.8087
20
23.1272
11
52.6464
21
23.2179
0
LINE
8
BLACK
6
CONTINUOUS
10
52.6464
20
23.2179
11
52.5048
21
23.3383
0
LINE
8
BLACK
6
CONTINUOUS
10
52.5048
20
23.3383
11
52.3894
21
23.484
0
LINE
8
BLACK
6
CONTINUOUS
10
52.3894
20
23.484
11
52.3044
21
23.6494
0
LINE
8
BLACK
6
CONTINUOUS
10
52.3044
20
23.6494
11
52.2531
21
23.8281
0
LINE
8
BLACK
6
CONTINUOUS
10
52.2531
20
23.8281
11
52.2376
21
24.0133
0
LINE
8
BLACK
6
CONTINUOUS
10
52.2376
20
24.0133
11
52.2583
21
24.198
0
LINE
8
BLACK
6
CONTINUOUS
10
52.2583
20
24.198
11
52.3145
21
24.3752
0
LINE
8
BLACK
6
CONTINUOUS
10
52.3145
20
24.3752
11
52.4041
21
24.5381
0
LINE
8
BLACK
6
CONTINUOUS
10
52.4041
20
24.5381
11
52.5236
21
24.6805
0
LINE
8
BLACK
6
CONTINUOUS
10
52.5236
20
24.6805
11
52.6684
21
24.797
0
LINE
8
BLACK
6
CONTINUOUS
10
52.6684
20
24.797
11
52.8332
21
24.8831
0
LINE
8
BLACK
6
CONTINUOUS
10
52.8332
20
24.8831
11
53.0115
21
24.9356
0
LINE
8
BLACK
6
CONTINUOUS
10
53.0115
20
24.9356
11
53.1966
21
24.9525
0
LINE
8
BLACK
6
CONTINUOUS
10
53.1966
20
24.9525
11
53.3815
21
24.933
0
LINE
8
BLACK
6
CONTINUOUS
10
61.699
20
23.111
11
59.921
21
23.111
0
LINE
8
BLACK
6
CONTINUOUS
10
59.921
20
23.111
11
59.921
21
24.889
0
LINE
8
BLACK
6
CONTINUOUS
10
59.921
20
24.889
11
61.699
21
24.889
0
LINE
8
BLACK
6
CONTINUOUS
10
61.699
20
24.889
11
61.699
21
23.111
0
LINE
8
BLACK
6
CONTINUOUS
10
59.1
20
23.4
11
58.2
21
23.4
0
LINE
8
BLACK
6
CONTINUOUS
10
58.2
20
23.4
11
58.2
21
24.6
0
LINE
8
BLACK
6
CONTINUOUS
10
58.2
20
24.6
11
59.1
21
24.6
0
LINE
8
BLACK
6
CONTINUOUS
10
59.1
20
24.6
11
59.1
21
23.4
0
LINE
8
BLACK
6
CONTINUOUS
10
55.8
20
23.4
11
54.9
21
23.4
0
LINE
8
BLACK
6
CONTINUOUS
10
54.9
20
23.4
11
54.9
21
24.6
0
LINE
8
BLACK
6
CONTINUOUS
10
54.9
20
24.6
11
55.8
21
24.6
0
LINE
8
BLACK
6
CONTINUOUS
10
55.8
20
24.6
11
55.8
21
23.4
0
LINE
8
BLACK
6
CONTINUOUS
10
15.3815
20
29.933
11
15.5591
21
29.8781
0
LINE
8
BLACK
6
CONTINUOUS
10
15.5591
20
29.8781
11
15.7226
21
29.7897
0
LINE
8
BLACK
6
CONTINUOUS
10
15.7226
20
29.7897
11
15.8659
21
29.6712
0
LINE
8
BLACK
6
CONTINUOUS
10
15.8659
20
29.6712
11
15.9834
21
29.5271
0
LINE
8
BLACK
6
CONTINUOUS
10
15.9834
20
29.5271
11
16.0706
21
29.363
0
LINE
8
BLACK
6
CONTINUOUS
10
16.0706
20
29.363
11
16.1244
21
29.185
0
LINE
8
BLACK
6
CONTINUOUS
10
16.1244
20
29.185
11
16.1425
21
29
0
LINE
8
BLACK
6
CONTINUOUS
10
16.1425
20
29
11
16.1421
21
28.9734
0
LINE
8
BLACK
6
CONTINUOUS
10
16.1421
20
28.9734
11
16.1188
21
28.789
0
LINE
8
BLACK
6
CONTINUOUS
10
16.1188
20
28.789
11
16.0602
21
28.6126
0
LINE
8
BLACK
6
CONTINUOUS
10
16.0602
20
28.6126
11
15.9683
21
28.4509
0
LINE
8
BLACK
6
CONTINUOUS
10
15.9683
20
28.4509
11
15.8469
21
28.3102
0
LINE
8
BLACK
6
CONTINUOUS
10
15.8469
20
28.3102
11
15.7004
21
28.1958
0
LINE
8
BLACK
6
CONTINUOUS
10
15.7004
20
28.1958
11
15.5344
21
28.112
0
LINE
8
BLACK
6
CONTINUOUS
10
15.5344
20
28.112
11
15.3554
21
28.062
0
LINE
8
BLACK
6
CONTINUOUS
10
15.3554
20
28.062
11
15.1701
21
28.0477
0
LINE
8
BLACK
6
CONTINUOUS
10
15.1701
20
28.0477
11
14.9855
21
28.0697
0
LINE
8
BLACK
6
CONTINUOUS
10
14.9855
20
28.0697
11
14.8087
21
28.1272
0
LINE
8
BLACK
6
CONTINUOUS
10
14.8087
20
28.1272
11
14.6464
21
28.2179
0
LINE
8
BLACK
6
CONTINUOUS
10
14.6464
20
28.2179
11
14.5048
21
28.3383
0
LINE
8
BLACK
6
CONTINUOUS
10
14.5048
20
28.3383
11
14.3894
21
28.484
0
LINE
8
BLACK
6
CONTINUOUS
10
14.3894
20
28.484
11
14.3044
21
28.6494
0
LINE
8
BLACK
6
CONTINUOUS
10
14.3044
20
28.6494
11
14.2531
21
28.8281
0
LINE
8
BLACK
6
CONTINUOUS
10
14.2531
20
28.8281
11
14.2376
21
29.0133
0
LINE
8
BLACK
6
CONTINUOUS
10
14.2376
20
29.0133
11
14.2583
21
29.198
0
LINE
8
BLACK
6
CONTINUOUS
10
14.2583
20
29.198
11
14.3145
21
29.3752
0
LINE
8
BLACK
6
CONTINUOUS
10
14.3145
20
29.3752
11
14.4041
21
29.5381
0
LINE
8
BLACK
6
CONTINUOUS
10
14.4041
20
29.5381
11
14.5236
21
29.6805
0
LINE
8
BLACK
6
CONTINUOUS
10
14.5236
20
29.6805
11
14.6684
21
29.797
0
LINE
8
BLACK
6
CONTINUOUS
10
14.6684
20
29.797
11
14.8332
21
29.8831
0
LINE
8
BLACK
6
CONTINUOUS
10
14.8332
20
29.8831
11
15.0115
21
29.9356
0
LINE
8
BLACK
6
CONTINUOUS
10
15.0115
20
29.9356
11
15.1966
21
29.9525
0
LINE
8
BLACK
6
CONTINUOUS
10
15.1966
20
29.9525
11
15.3815
21
29.933
0
LINE
8
BLACK
6
CONTINUOUS
10
-3.61847
20
29.933
11
-3.44089
21
29.8781
0
LINE
8
BLACK
6
CONTINUOUS
10
-3.44089
20
29.8781
11
-3.27737
21
29.7897
0
LINE
8
BLACK
6
CONTINUOUS
10
-3.27737
20
29.7897
11
-3.13413
21
29.6712
0
LINE
8
BLACK
6
CONTINUOUS
10
-3.13413
20
29.6712
11
-3.01664
21
29.5271
0
LINE
8
BLACK
6
CONTINUOUS
10
-3.01664
20
29.5271
11
-2.92937
21
29.363
0
LINE
8
BLACK
6
CONTINUOUS
10
-2.92937
20
29.363
11
-2.87564
21
29.185
0
LINE
8
BLACK
6
CONTINUOUS
10
-2.87564
20
29.185
11
-2.8575
21
29
0
LINE
8
BLACK
6
CONTINUOUS
10
-2.8575
20
29
11
-2.85787
21
28.9734
0
LINE
8
BLACK
6
CONTINUOUS
10
-2.85787
20
28.9734
11
-2.88117
21
28.789
0
LINE
8
BLACK
6
CONTINUOUS
10
-2.88117
20
28.789
11
-2.93985
21
28.6126
0
LINE
8
BLACK
6
CONTINUOUS
10
-2.93985
20
28.6126
11
-3.03167
21
28.4509
0
LINE
8
BLACK
6
CONTINUOUS
10
-3.03167
20
28.4509
11
-3.15314
21
28.3102
0
LINE
8
BLACK
6
CONTINUOUS
10
-3.15314
20
28.3102
11
-3.29962
21
28.1958
0
LINE
8
BLACK
6
CONTINUOUS
10
-3.29962
20
28.1958
11
-3.46555
21
28.112
0
LINE
8
BLACK
6
CONTINUOUS
10
-3.46555
20
28.112
11
-3.6446
21
28.062
0
LINE
8
BLACK
6
CONTINUOUS
10
-3.6446
20
28.062
11
-3.82995
21
28.0477
0
LINE
8
BLACK
6
CONTINUOUS
10
-3.82995
20
28.0477
11
-4.01453
21
28.0697
0
LINE
8
BLACK
6
CONTINUOUS
10
-4.01453
20
28.0697
11
-4.19133
21
28.1272
0
LINE
8
BLACK
6
CONTINUOUS
10
-4.19133
20
28.1272
11
-4.3536
21
28.2179
0
LINE
8
BLACK
6
CONTINUOUS
10
-4.3536
20
28.2179
11
-4.49517
21
28.3383
0
LINE
8
BLACK
6
CONTINUOUS
10
-4.49517
20
28.3383
11
-4.61064
21
28.484
0
LINE
8
BLACK
6
CONTINUOUS
10
-4.61064
20
28.484
11
-4.69561
21
28.6494
0
LINE
8
BLACK
6
CONTINUOUS
10
-4.69561
20
28.6494
11
-4.74685
21
28.8281
0
LINE
8
BLACK
6
CONTINUOUS
10
-4.74685
20
28.8281
11
-4.76241
21
29.0133
0
LINE
8
BLACK
6
CONTINUOUS
10
-4.76241
20
29.0133
11
-4.74169
21
29.198
0
LINE
8
BLACK
6
CONTINUOUS
10
-4.74169
20
29.198
11
-4.68548
21
29.3752
0
LINE
8
BLACK
6
CONTINUOUS
10
-4.68548
20
29.3752
11
-4.59592
21
29.5381
0
LINE
8
BLACK
6
CONTINUOUS
10
-4.59592
20
29.5381
11
-4.47643
21
29.6805
0
LINE
8
BLACK
6
CONTINUOUS
10
-4.47643
20
29.6805
11
-4.33155
21
29.797
0
LINE
8
BLACK
6
CONTINUOUS
10
-4.33155
20
29.797
11
-4.16681
21
29.8831
0
LINE
8
BLACK
6
CONTINUOUS
10
-4.16681
20
29.8831
11
-3.98848
21
29.9356
0
LINE
8
BLACK
6
CONTINUOUS
10
-3.98848
20
29.9356
11
-3.80335
21
29.9525
0
LINE
8
BLACK
6
CONTINUOUS
10
-3.80335
20
29.9525
11
-3.61847
21
29.933
0
LINE
8
BLACK
6
CONTINUOUS
10
91.3815
20
29.933
11
91.5591
21
29.8781
0
LINE
8
BLACK
6
CONTINUOUS
10
91.5591
20
29.8781
11
91.7226
21
29.7897
0
LINE
8
BLACK
6
CONTINUOUS
10
91.7226
20
29.7897
11
91.8659
21
29.6712
0
LINE
8
BLACK
6
CONTINUOUS
10
91.8659
20
29.6712
11
91.9834
21
29.5271
0
LINE
8
BLACK
6
CONTINUOUS
10
91.9834
20
29.5271
11
92.0706
21
29.363
0
LINE
8
BLACK
6
CONTINUOUS
10
92.0706
20
29.363
11
92.1244
21
29.185
0
LINE
8
BLACK
6
CONTINUOUS
10
92.1244
20
29.185
11
92.1425
21
29
0
LINE
8
BLACK
6
CONTINUOUS
10
92.1425
20
29
11
92.1421
21
28.9734
0
LINE
8
BLACK
6
CONTINUOUS
10
92.1421
20
28.9734
11
92.1188
21
28.789
0
LINE
8
BLACK
6
CONTINUOUS
10
92.1188
20
28.789
11
92.0602
21
28.6126
0
LINE
8
BLACK
6
CONTINUOUS
10
92.0602
20
28.6126
11
91.9683
21
28.4509
0
LINE
8
BLACK
6
CONTINUOUS
10
91.9683
20
28.4509
11
91.8469
21
28.3102
0
LINE
8
BLACK
6
CONTINUOUS
10
91.8469
20
28.3102
11
91.7004
21
28.1958
0
LINE
8
BLACK
6
CONTINUOUS
10
91.7004
20
28.1958
11
91.5344
21
28.112
0
LINE
8
BLACK
6
CONTINUOUS
10
91.5344
20
28.112
11
91.3554
21
28.062
0
LINE
8
BLACK
6
CONTINUOUS
10
91.3554
20
28.062
11
91.1701
21
28.0477
0
LINE
8
BLACK
6
CONTINUOUS
10
91.1701
20
28.0477
11
90.9855
21
28.0697
0
LINE
8
BLACK
6
CONTINUOUS
10
90.9855
20
28.0697
11
90.8087
21
28.1272
0
LINE
8
BLACK
6
CONTINUOUS
10
90.8087
20
28.1272
11
90.6464
21
28.2179
0
LINE
8
BLACK
6
CONTINUOUS
10
90.6464
20
28.2179
11
90.5048
21
28.3383
0
LINE
8
BLACK
6
CONTINUOUS
10
90.5048
20
28.3383
11
90.3894
21
28.484
0
LINE
8
BLACK
6
CONTINUOUS
10
90.3894
20
28.484
11
90.3044
21
28.6494
0
LINE
8
BLACK
6
CONTINUOUS
10
90.3044
20
28.6494
11
90.2531
21
28.8281
0
LINE
8
BLACK
6
CONTINUOUS
10
90.2531
20
28.8281
11
90.2376
21
29.0133
0
LINE
8
BLACK
6
CONTINUOUS
10
90.2376
20
29.0133
11
90.2583
21
29.198
0
LINE
8
BLACK
6
CONTINUOUS
10
90.2583
20
29.198
11
90.3145
21
29.3752
0
LINE
8
BLACK
6
CONTINUOUS
10
90.3145
20
29.3752
11
90.4041
21
29.5381
0
LINE
8
BLACK
6
CONTINUOUS
10
90.4041
20
29.5381
11
90.5236
21
29.6805
0
LINE
8
BLACK
6
CONTINUOUS
10
90.5236
20
29.6805
11
90.6684
21
29.797
0
LINE
8
BLACK
6
CONTINUOUS
10
90.6684
20
29.797
11
90.8332
21
29.8831
0
LINE
8
BLACK
6
CONTINUOUS
10
90.8332
20
29.8831
11
91.0115
21
29.9356
0
LINE
8
BLACK
6
CONTINUOUS
10
91.0115
20
29.9356
11
91.1966
21
29.9525
0
LINE
8
BLACK
6
CONTINUOUS
10
91.1966
20
29.9525
11
91.3815
21
29.933
0
LINE
8
BLACK
6
CONTINUOUS
10
99.699
20
28.111
11
97.921
21
28.111
0
LINE
8
BLACK
6
CONTINUOUS
10
97.921
20
28.111
11
97.921
21
29.889
0
LINE
8
BLACK
6
CONTINUOUS
10
97.921
20
29.889
11
99.699
21
29.889
0
LINE
8
BLACK
6
CONTINUOUS
10
99.699
20
29.889
11
99.699
21
28.111
0
LINE
8
BLACK
6
CONTINUOUS
10
4.699
20
28.111
11
2.921
21
28.111
0
LINE
8
BLACK
6
CONTINUOUS
10
2.921
20
28.111
11
2.921
21
29.889
0
LINE
8
BLACK
6
CONTINUOUS
10
2.921
20
29.889
11
4.699
21
29.889
0
LINE
8
BLACK
6
CONTINUOUS
10
4.699
20
29.889
11
4.699
21
28.111
0
LINE
8
BLACK
6
CONTINUOUS
10
23.699
20
28.111
11
21.921
21
28.111
0
LINE
8
BLACK
6
CONTINUOUS
10
21.921
20
28.111
11
21.921
21
29.889
0
LINE
8
BLACK
6
CONTINUOUS
10
21.921
20
29.889
11
23.699
21
29.889
0
LINE
8
BLACK
6
CONTINUOUS
10
23.699
20
29.889
11
23.699
21
28.111
0
LINE
8
BLACK
6
CONTINUOUS
10
2.1
20
28.4
11
1.2
21
28.4
0
LINE
8
BLACK
6
CONTINUOUS
10
1.2
20
28.4
11
1.2
21
29.6
0
LINE
8
BLACK
6
CONTINUOUS
10
1.2
20
29.6
11
2.1
21
29.6
0
LINE
8
BLACK
6
CONTINUOUS
10
2.1
20
29.6
11
2.1
21
28.4
0
LINE
8
BLACK
6
CONTINUOUS
10
-1.2
20
28.4
11
-2.1
21
28.4
0
LINE
8
BLACK
6
CONTINUOUS
10
-2.1
20
28.4
11
-2.1
21
29.6
0
LINE
8
BLACK
6
CONTINUOUS
10
-2.1
20
29.6
11
-1.2
21
29.6
0
LINE
8
BLACK
6
CONTINUOUS
10
-1.2
20
29.6
11
-1.2
21
28.4
0
LINE
8
BLACK
6
CONTINUOUS
10
17.8
20
28.4
11
16.9
21
28.4
0
LINE
8
BLACK
6
CONTINUOUS
10
16.9
20
28.4
11
16.9
21
29.6
0
LINE
8
BLACK
6
CONTINUOUS
10
16.9
20
29.6
11
17.8
21
29.6
0
LINE
8
BLACK
6
CONTINUOUS
10
17.8
20
29.6
11
17.8
21
28.4
0
LINE
8
BLACK
6
CONTINUOUS
10
93.8
20
28.4
11
92.9
21
28.4
0
LINE
8
BLACK
6
CONTINUOUS
10
92.9
20
28.4
11
92.9
21
29.6
0
LINE
8
BLACK
6
CONTINUOUS
10
92.9
20
29.6
11
93.8
21
29.6
0
LINE
8
BLACK
6
CONTINUOUS
10
93.8
20
29.6
11
93.8
21
28.4
0
LINE
8
BLACK
6
CONTINUOUS
10
21.1
20
28.4
11
20.2
21
28.4
0
LINE
8
BLACK
6
CONTINUOUS
10
20.2
20
28.4
11
20.2
21
29.6
0
LINE
8
BLACK
6
CONTINUOUS
10
20.2
20
29.6
11
21.1
21
29.6
0
LINE
8
BLACK
6
CONTINUOUS
10
21.1
20
29.6
11
21.1
21
28.4
0
LINE
8
BLACK
6
CONTINUOUS
10
97.1
20
28.4
11
96.2
21
28.4
0
LINE
8
BLACK
6
CONTINUOUS
10
96.2
20
28.4
11
96.2
21
29.6
0
LINE
8
BLACK
6
CONTINUOUS
10
96.2
20
29.6
11
97.1
21
29.6
0
LINE
8
BLACK
6
CONTINUOUS
10
97.1
20
29.6
11
97.1
21
28.4
0
LINE
8
BLACK
6
CONTINUOUS
10
72.3815
20
36.933
11
72.5591
21
36.8781
0
LINE
8
BLACK
6
CONTINUOUS
10
72.5591
20
36.8781
11
72.7226
21
36.7897
0
LINE
8
BLACK
6
CONTINUOUS
10
72.7226
20
36.7897
11
72.8659
21
36.6712
0
LINE
8
BLACK
6
CONTINUOUS
10
72.8659
20
36.6712
11
72.9834
21
36.5271
0
LINE
8
BLACK
6
CONTINUOUS
10
72.9834
20
36.5271
11
73.0706
21
36.363
0
LINE
8
BLACK
6
CONTINUOUS
10
73.0706
20
36.363
11
73.1244
21
36.185
0
LINE
8
BLACK
6
CONTINUOUS
10
73.1244
20
36.185
11
73.1425
21
36
0
LINE
8
BLACK
6
CONTINUOUS
10
73.1425
20
36
11
73.1421
21
35.9734
0
LINE
8
BLACK
6
CONTINUOUS
10
73.1421
20
35.9734
11
73.1188
21
35.789
0
LINE
8
BLACK
6
CONTINUOUS
10
73.1188
20
35.789
11
73.0602
21
35.6126
0
LINE
8
BLACK
6
CONTINUOUS
10
73.0602
20
35.6126
11
72.9683
21
35.4509
0
LINE
8
BLACK
6
CONTINUOUS
10
72.9683
20
35.4509
11
72.8469
21
35.3102
0
LINE
8
BLACK
6
CONTINUOUS
10
72.8469
20
35.3102
11
72.7004
21
35.1958
0
LINE
8
BLACK
6
CONTINUOUS
10
72.7004
20
35.1958
11
72.5344
21
35.112
0
LINE
8
BLACK
6
CONTINUOUS
10
72.5344
20
35.112
11
72.3554
21
35.062
0
LINE
8
BLACK
6
CONTINUOUS
10
72.3554
20
35.062
11
72.1701
21
35.0477
0
LINE
8
BLACK
6
CONTINUOUS
10
72.1701
20
35.0477
11
71.9855
21
35.0697
0
LINE
8
BLACK
6
CONTINUOUS
10
71.9855
20
35.0697
11
71.8087
21
35.1272
0
LINE
8
BLACK
6
CONTINUOUS
10
71.8087
20
35.1272
11
71.6464
21
35.2179
0
LINE
8
BLACK
6
CONTINUOUS
10
71.6464
20
35.2179
11
71.5048
21
35.3383
0
LINE
8
BLACK
6
CONTINUOUS
10
71.5048
20
35.3383
11
71.3894
21
35.484
0
LINE
8
BLACK
6
CONTINUOUS
10
71.3894
20
35.484
11
71.3044
21
35.6494
0
LINE
8
BLACK
6
CONTINUOUS
10
71.3044
20
35.6494
11
71.2531
21
35.8281
0
LINE
8
BLACK
6
CONTINUOUS
10
71.2531
20
35.8281
11
71.2376
21
36.0133
0
LINE
8
BLACK
6
CONTINUOUS
10
71.2376
20
36.0133
11
71.2583
21
36.198
0
LINE
8
BLACK
6
CONTINUOUS
10
71.2583
20
36.198
11
71.3145
21
36.3752
0
LINE
8
BLACK
6
CONTINUOUS
10
71.3145
20
36.3752
11
71.4041
21
36.5381
0
LINE
8
BLACK
6
CONTINUOUS
10
71.4041
20
36.5381
11
71.5236
21
36.6805
0
LINE
8
BLACK
6
CONTINUOUS
10
71.5236
20
36.6805
11
71.6684
21
36.797
0
LINE
8
BLACK
6
CONTINUOUS
10
71.6684
20
36.797
11
71.8332
21
36.8831
0
LINE
8
BLACK
6
CONTINUOUS
10
71.8332
20
36.8831
11
72.0115
21
36.9356
0
LINE
8
BLACK
6
CONTINUOUS
10
72.0115
20
36.9356
11
72.1966
21
36.9525
0
LINE
8
BLACK
6
CONTINUOUS
10
72.1966
20
36.9525
11
72.3815
21
36.933
0
LINE
8
BLACK
6
CONTINUOUS
10
34.3815
20
36.933
11
34.5591
21
36.8781
0
LINE
8
BLACK
6
CONTINUOUS
10
34.5591
20
36.8781
11
34.7226
21
36.7897
0
LINE
8
BLACK
6
CONTINUOUS
10
34.7226
20
36.7897
11
34.8659
21
36.6712
0
LINE
8
BLACK
6
CONTINUOUS
10
34.8659
20
36.6712
11
34.9834
21
36.5271
0
LINE
8
BLACK
6
CONTINUOUS
10
34.9834
20
36.5271
11
35.0706
21
36.363
0
LINE
8
BLACK
6
CONTINUOUS
10
35.0706
20
36.363
11
35.1244
21
36.185
0
LINE
8
BLACK
6
CONTINUOUS
10
35.1244
20
36.185
11
35.1425
21
36
0
LINE
8
BLACK
6
CONTINUOUS
10
35.1425
20
36
11
35.1421
21
35.9734
0
LINE
8
BLACK
6
CONTINUOUS
10
35.1421
20
35.9734
11
35.1188
21
35.789
0
LINE
8
BLACK
6
CONTINUOUS
10
35.1188
20
35.789
11
35.0602
21
35.6126
0
LINE
8
BLACK
6
CONTINUOUS
10
35.0602
20
35.6126
11
34.9683
21
35.4509
0
LINE
8
BLACK
6
CONTINUOUS
10
34.9683
20
35.4509
11
34.8469
21
35.3102
0
LINE
8
BLACK
6
CONTINUOUS
10
34.8469
20
35.3102
11
34.7004
21
35.1958
0
LINE
8
BLACK
6
CONTINUOUS
10
34.7004
20
35.1958
11
34.5344
21
35.112
0
LINE
8
BLACK
6
CONTINUOUS
10
34.5344
20
35.112
11
34.3554
21
35.062
0
LINE
8
BLACK
6
CONTINUOUS
10
34.3554
20
35.062
11
34.1701
21
35.0477
0
LINE
8
BLACK
6
CONTINUOUS
10
34.1701
20
35.0477
11
33.9855
21
35.0697
0
LINE
8
BLACK
6
CONTINUOUS
10
33.9855
20
35.0697
11
33.8087
21
35.1272
0
LINE
8
BLACK
6
CONTINUOUS
10
33.8087
20
35.1272
11
33.6464
21
35.2179
0
LINE
8
BLACK
6
CONTINUOUS
10
33.6464
20
35.2179
11
33.5048
21
35.3383
0
LINE
8
BLACK
6
CONTINUOUS
10
33.5048
20
35.3383
11
33.3894
21
35.484
0
LINE
8
BLACK
6
CONTINUOUS
10
33.3894
20
35.484
11
33.3044
21
35.6494
0
LINE
8
BLACK
6
CONTINUOUS
10
33.3044
20
35.6494
11
33.2531
21
35.8281
0
LINE
8
BLACK
6
CONTINUOUS
10
33.2531
20
35.8281
11
33.2376
21
36.0133
0
LINE
8
BLACK
6
CONTINUOUS
10
33.2376
20
36.0133
11
33.2583
21
36.198
0
LINE
8
BLACK
6
CONTINUOUS
10
33.2583
20
36.198
11
33.3145
21
36.3752
0
LINE
8
BLACK
6
CONTINUOUS
10
33.3145
20
36.3752
11
33.4041
21
36.5381
0
LINE
8
BLACK
6
CONTINUOUS
10
33.4041
20
36.5381
11
33.5236
21
36.6805
0
LINE
8
BLACK
6
CONTINUOUS
10
33.5236
20
36.6805
11
33.6684
21
36.797
0
LINE
8
BLACK
6
CONTINUOUS
10
33.6684
20
36.797
11
33.8332
21
36.8831
0
LINE
8
BLACK
6
CONTINUOUS
10
33.8332
20
36.8831
11
34.0115
21
36.9356
0
LINE
8
BLACK
6
CONTINUOUS
10
34.0115
20
36.9356
11
34.1966
21
36.9525
0
LINE
8
BLACK
6
CONTINUOUS
10
34.1966
20
36.9525
11
34.3815
21
36.933
0
LINE
8
BLACK
6
CONTINUOUS
10
42.699
20
35.111
11
40.921
21
35.111
0
LINE
8
BLACK
6
CONTINUOUS
10
40.921
20
35.111
11
40.921
21
36.889
0
LINE
8
BLACK
6
CONTINUOUS
10
40.921
20
36.889
11
42.699
21
36.889
0
LINE
8
BLACK
6
CONTINUOUS
10
42.699
20
36.889
11
42.699
21
35.111
0
LINE
8
BLACK
6
CONTINUOUS
10
80.699
20
35.111
11
78.921
21
35.111
0
LINE
8
BLACK
6
CONTINUOUS
10
78.921
20
35.111
11
78.921
21
36.889
0
LINE
8
BLACK
6
CONTINUOUS
10
78.921
20
36.889
11
80.699
21
36.889
0
LINE
8
BLACK
6
CONTINUOUS
10
80.699
20
36.889
11
80.699
21
35.111
0
LINE
8
BLACK
6
CONTINUOUS
10
40.1
20
35.4
11
39.2
21
35.4
0
LINE
8
BLACK
6
CONTINUOUS
10
39.2
20
35.4
11
39.2
21
36.6
0
LINE
8
BLACK
6
CONTINUOUS
10
39.2
20
36.6
11
40.1
21
36.6
0
LINE
8
BLACK
6
CONTINUOUS
10
40.1
20
36.6
11
40.1
21
35.4
0
LINE
8
BLACK
6
CONTINUOUS
10
36.8
20
35.4
11
35.9
21
35.4
0
LINE
8
BLACK
6
CONTINUOUS
10
35.9
20
35.4
11
35.9
21
36.6
0
LINE
8
BLACK
6
CONTINUOUS
10
35.9
20
36.6
11
36.8
21
36.6
0
LINE
8
BLACK
6
CONTINUOUS
10
36.8
20
36.6
11
36.8
21
35.4
0
LINE
8
BLACK
6
CONTINUOUS
10
78.1
20
35.4
11
77.2
21
35.4
0
LINE
8
BLACK
6
CONTINUOUS
10
77.2
20
35.4
11
77.2
21
36.6
0
LINE
8
BLACK
6
CONTINUOUS
10
77.2
20
36.6
11
78.1
21
36.6
0
LINE
8
BLACK
6
CONTINUOUS
10
78.1
20
36.6
11
78.1
21
35.4
0
LINE
8
BLACK
6
CONTINUOUS
10
74.8
20
35.4
11
73.9
21
35.4
0
LINE
8
BLACK
6
CONTINUOUS
10
73.9
20
35.4
11
73.9
21
36.6
0
LINE
8
BLACK
6
CONTINUOUS
10
73.9
20
36.6
11
74.8
21
36.6
0
LINE
8
BLACK
6
CONTINUOUS
10
74.8
20
36.6
11
74.8
21
35.4
0
LINE
8
BLACK
6
CONTINUOUS
10
53.3815
20
43.933
11
53.5591
21
43.8781
0
LINE
8
BLACK
6
CONTINUOUS
10
53.5591
20
43.8781
11
53.7226
21
43.7897
0
LINE
8
BLACK
6
CONTINUOUS
10
53.7226
20
43.7897
11
53.8659
21
43.6712
0
LINE
8
BLACK
6
CONTINUOUS
10
53.8659
20
43.6712
11
53.9834
21
43.5271
0
LINE
8
BLACK
6
CONTINUOUS
10
53.9834
20
43.5271
11
54.0706
21
43.363
0
LINE
8
BLACK
6
CONTINUOUS
10
54.0706
20
43.363
11
54.1244
21
43.185
0
LINE
8
BLACK
6
CONTINUOUS
10
54.1244
20
43.185
11
54.1425
21
43
0
LINE
8
BLACK
6
CONTINUOUS
10
54.1425
20
43
11
54.1421
21
42.9734
0
LINE
8
BLACK
6
CONTINUOUS
10
54.1421
20
42.9734
11
54.1188
21
42.789
0
LINE
8
BLACK
6
CONTINUOUS
10
54.1188
20
42.789
11
54.0602
21
42.6126
0
LINE
8
BLACK
6
CONTINUOUS
10
54.0602
20
42.6126
11
53.9683
21
42.4509
0
LINE
8
BLACK
6
CONTINUOUS
10
53.9683
20
42.4509
11
53.8469
21
42.3102
0
LINE
8
BLACK
6
CONTINUOUS
10
53.8469
20
42.3102
11
53.7004
21
42.1958
0
LINE
8
BLACK
6
CONTINUOUS
10
53.7004
20
42.1958
11
53.5344
21
42.112
0
LINE
8
BLACK
6
CONTINUOUS
10
53.5344
20
42.112
11
53.3554
21
42.062
0
LINE
8
BLACK
6
CONTINUOUS
10
53.3554
20
42.062
11
53.1701
21
42.0477
0
LINE
8
BLACK
6
CONTINUOUS
10
53.1701
20
42.0477
11
52.9855
21
42.0697
0
LINE
8
BLACK
6
CONTINUOUS
10
52.9855
20
42.0697
11
52.8087
21
42.1272
0
LINE
8
BLACK
6
CONTINUOUS
10
52.8087
20
42.1272
11
52.6464
21
42.2179
0
LINE
8
BLACK
6
CONTINUOUS
10
52.6464
20
42.2179
11
52.5048
21
42.3383
0
LINE
8
BLACK
6
CONTINUOUS
10
52.5048
20
42.3383
11
52.3894
21
42.484
0
LINE
8
BLACK
6
CONTINUOUS
10
52.3894
20
42.484
11
52.3044
21
42.6494
0
LINE
8
BLACK
6
CONTINUOUS
10
52.3044
20
42.6494
11
52.2531
21
42.8281
0
LINE
8
BLACK
6
CONTINUOUS
10
52.2531
20
42.8281
11
52.2376
21
43.0133
0
LINE
8
BLACK
6
CONTINUOUS
10
52.2376
20
43.0133
11
52.2583
21
43.198
0
LINE
8
BLACK
6
CONTINUOUS
10
52.2583
20
43.198
11
52.3145
21
43.3752
0
LINE
8
BLACK
6
CONTINUOUS
10
52.3145
20
43.3752
11
52.4041
21
43.5381
0
LINE
8
BLACK
6
CONTINUOUS
10
52.4041
20
43.5381
11
52.5236
21
43.6805
0
LINE
8
BLACK
6
CONTINUOUS
10
52.5236
20
43.6805
11
52.6684
21
43.797
0
LINE
8
BLACK
6
CONTINUOUS
10
52.6684
20
43.797
11
52.8332
21
43.8831
0
LINE
8
BLACK
6
CONTINUOUS
10
52.8332
20
43.8831
11
53.0115
21
43.9356
0
LINE
8
BLACK
6
CONTINUOUS
10
53.0115
20
43.9356
11
53.1966
21
43.9525
0
LINE
8
BLACK
6
CONTINUOUS
10
53.1966
20
43.9525
11
53.3815
21
43.933
0
LINE
8
BLACK
6
CONTINUOUS
10
61.699
20
42.111
11
59.921
21
42.111
0
LINE
8
BLACK
6
CONTINUOUS
10
59.921
20
42.111
11
59.921
21
43.889
0
LINE
8
BLACK
6
CONTINUOUS
10
59.921
20
43.889
11
61.699
21
43.889
0
LINE
8
BLACK
6
CONTINUOUS
10
61.699
20
43.889
11
61.699
21
42.111
0
LINE
8
BLACK
6
CONTINUOUS
10
55.8
20
42.4
11
54.9
21
42.4
0
LINE
8
BLACK
6
CONTINUOUS
10
54.9
20
42.4
11
54.9
21
43.6
0
LINE
8
BLACK
6
CONTINUOUS
10
54.9
20
43.6
11
55.8
21
43.6
0
LINE
8
BLACK
6
CONTINUOUS
10
55.8
20
43.6
11
55.8
21
42.4
0
LINE
8
BLACK
6
CONTINUOUS
10
59.1
20
42.4
11
58.2
21
42.4
0
LINE
8
BLACK
6
CONTINUOUS
10
58.2
20
42.4
11
58.2
21
43.6
0
LINE
8
BLACK
6
CONTINUOUS
10
58.2
20
43.6
11
59.1
21
43.6
0
LINE
8
BLACK
6
CONTINUOUS
10
59.1
20
43.6
11
59.1
21
42.4
0
LINE
8
BLACK
6
CONTINUOUS
10
91.3815
20
48.933
11
91.5591
21
48.8781
0
LINE
8
BLACK
6
CONTINUOUS
10
91.5591
20
48.8781
11
91.7226
21
48.7897
0
LINE
8
BLACK
6
CONTINUOUS
10
91.7226
20
48.7897
11
91.8659
21
48.6712
0
LINE
8
BLACK
6
CONTINUOUS
10
91.8659
20
48.6712
11
91.9834
21
48.5271
0
LINE
8
BLACK
6
CONTINUOUS
10
91.9834
20
48.5271
11
92.0706
21
48.363
0
LINE
8
BLACK
6
CONTINUOUS
10
92.0706
20
48.363
11
92.1244
21
48.185
0
LINE
8
BLACK
6
CONTINUOUS
10
92.1244
20
48.185
11
92.1425
21
48
0
LINE
8
BLACK
6
CONTINUOUS
10
92.1425
20
48
11
92.1421
21
47.9734
0
LINE
8
BLACK
6
CONTINUOUS
10
92.1421
20
47.9734
11
92.1188
21
47.789
0
LINE
8
BLACK
6
CONTINUOUS
10
92.1188
20
47.789
11
92.0602
21
47.6126
0
LINE
8
BLACK
6
CONTINUOUS
10
92.0602
20
47.6126
11
91.9683
21
47.4509
0
LINE
8
BLACK
6
CONTINUOUS
10
91.9683
20
47.4509
11
91.8469
21
47.3102
0
LINE
8
BLACK
6
CONTINUOUS
10
91.8469
20
47.3102
11
91.7004
21
47.1958
0
LINE
8
BLACK
6
CONTINUOUS
10
91.7004
20
47.1958
11
91.5344
21
47.112
0
LINE
8
BLACK
6
CONTINUOUS
10
91.5344
20
47.112
11
91.3554
21
47.062
0
LINE
8
BLACK
6
CONTINUOUS
10
91.3554
20
47.062
11
91.1701
21
47.0477
0
LINE
8
BLACK
6
CONTINUOUS
10
91.1701
20
47.0477
11
90.9855
21
47.0697
0
LINE
8
BLACK
6
CONTINUOUS
10
90.9855
20
47.0697
11
90.8087
21
47.1272
0
LINE
8
BLACK
6
CONTINUOUS
10
90.8087
20
47.1272
11
90.6464
21
47.2179
0
LINE
8
BLACK
6
CONTINUOUS
10
90.6464
20
47.2179
11
90.5048
21
47.3383
0
LINE
8
BLACK
6
CONTINUOUS
10
90.5048
20
47.3383
11
90.3894
21
47.484
0
LINE
8
BLACK
6
CONTINUOUS
10
90.3894
20
47.484
11
90.3044
21
47.6494
0
LINE
8
BLACK
6
CONTINUOUS
10
90.3044
20
47.6494
11
90.2531
21
47.8281
0
LINE
8
BLACK
6
CONTINUOUS
10
90.2531
20
47.8281
11
90.2376
21
48.0133
0
LINE
8
BLACK
6
CONTINUOUS
10
90.2376
20
48.0133
11
90.2583
21
48.198
0
LINE
8
BLACK
6
CONTINUOUS
10
90.2583
20
48.198
11
90.3145
21
48.3752
0
LINE
8
BLACK
6
CONTINUOUS
10
90.3145
20
48.3752
11
90.4041
21
48.5381
0
LINE
8
BLACK
6
CONTINUOUS
10
90.4041
20
48.5381
11
90.5236
21
48.6805
0
LINE
8
BLACK
6
CONTINUOUS
10
90.5236
20
48.6805
11
90.6684
21
48.797
0
LINE
8
BLACK
6
CONTINUOUS
10
90.6684
20
48.797
11
90.8332
21
48.8831
0
LINE
8
BLACK
6
CONTINUOUS
10
90.8332
20
48.8831
11
91.0115
21
48.9356
0
LINE
8
BLACK
6
CONTINUOUS
10
91.0115
20
48.9356
11
91.1966
21
48.9525
0
LINE
8
BLACK
6
CONTINUOUS
10
91.1966
20
48.9525
11
91.3815
21
48.933
0
LINE
8
BLACK
6
CONTINUOUS
10
15.3815
20
48.933
11
15.5591
21
48.8781
0
LINE
8
BLACK
6
CONTINUOUS
10
15.5591
20
48.8781
11
15.7226
21
48.7897
0
LINE
8
BLACK
6
CONTINUOUS
10
15.7226
20
48.7897
11
15.8659
21
48.6712
0
LINE
8
BLACK
6
CONTINUOUS
10
15.8659
20
48.6712
11
15.9834
21
48.5271
0
LINE
8
BLACK
6
CONTINUOUS
10
15.9834
20
48.5271
11
16.0706
21
48.363
0
LINE
8
BLACK
6
CONTINUOUS
10
16.0706
20
48.363
11
16.1244
21
48.185
0
LINE
8
BLACK
6
CONTINUOUS
10
16.1244
20
48.185
11
16.1425
21
48
0
LINE
8
BLACK
6
CONTINUOUS
10
16.1425
20
48
11
16.1421
21
47.9734
0
LINE
8
BLACK
6
CONTINUOUS
10
16.1421
20
47.9734
11
16.1188
21
47.789
0
LINE
8
BLACK
6
CONTINUOUS
10
16.1188
20
47.789
11
16.0602
21
47.6126
0
LINE
8
BLACK
6
CONTINUOUS
10
16.0602
20
47.6126
11
15.9683
21
47.4509
0
LINE
8
BLACK
6
CONTINUOUS
10
15.9683
20
47.4509
11
15.8469
21
47.3102
0
LINE
8
BLACK
6
CONTINUOUS
10
15.8469
20
47.3102
11
15.7004
21
47.1958
0
LINE
8
BLACK
6
CONTINUOUS
10
15.7004
20
47.1958
11
15.5344
21
47.112
0
LINE
8
BLACK
6
CONTINUOUS
10
15.5344
20
47.112
11
15.3554
21
47.062
0
LINE
8
BLACK
6
CONTINUOUS
10
15.3554
20
47.062
11
15.1701
21
47.0477
0
LINE
8
BLACK
6
CONTINUOUS
10
15.1701
20
47.0477
11
14.9855
21
47.0697
0
LINE
8
BLACK
6
CONTINUOUS
10
14.9855
20
47.0697
11
14.8087
21
47.1272
0
LINE
8
BLACK
6
CONTINUOUS
10
14.8087
20
47.1272
11
14.6464
21
47.2179
0
LINE
8
BLACK
6
CONTINUOUS
10
14.6464
20
47.2179
11
14.5048
21
47.3383
0
LINE
8
BLACK
6
CONTINUOUS
10
14.5048
20
47.3383
11
14.3894
21
47.484
0
LINE
8
BLACK
6
CONTINUOUS
10
14.3894
20
47.484
11
14.3044
21
47.6494
0
LINE
8
BLACK
6
CONTINUOUS
10
14.3044
20
47.6494
11
14.2531
21
47.8281
0
LINE
8
BLACK
6
CONTINUOUS
10
14.2531
20
47.8281
11
14.2376
21
48.0133
0
LINE
8
BLACK
6
CONTINUOUS
10
14.2376
20
48.0133
11
14.2583
21
48.198
0
LINE
8
BLACK
6
CONTINUOUS
10
14.2583
20
48.198
11
14.3145
21
48.3752
0
LINE
8
BLACK
6
CONTINUOUS
10
14.3145
20
48.3752
11
14.4041
21
48.5381
0
LINE
8
BLACK
6
CONTINUOUS
10
14.4041
20
48.5381
11
14.5236
21
48.6805
0
LINE
8
BLACK
6
CONTINUOUS
10
14.5236
20
48.6805
11
14.6684
21
48.797
0
LINE
8
BLACK
6
CONTINUOUS
10
14.6684
20
48.797
11
14.8332
21
48.8831
0
LINE
8
BLACK
6
CONTINUOUS
10
14.8332
20
48.8831
11
15.0115
21
48.9356
0
LINE
8
BLACK
6
CONTINUOUS
10
15.0115
20
48.9356
11
15.1966
21
48.9525
0
LINE
8
BLACK
6
CONTINUOUS
10
15.1966
20
48.9525
11
15.3815
21
48.933
0
LINE
8
BLACK
6
CONTINUOUS
10
-3.61847
20
48.933
11
-3.44089
21
48.8781
0
LINE
8
BLACK
6
CONTINUOUS
10
-3.44089
20
48.8781
11
-3.27737
21
48.7897
0
LINE
8
BLACK
6
CONTINUOUS
10
-3.27737
20
48.7897
11
-3.13413
21
48.6712
0
LINE
8
BLACK
6
CONTINUOUS
10
-3.13413
20
48.6712
11
-3.01664
21
48.5271
0
LINE
8
BLACK
6
CONTINUOUS
10
-3.01664
20
48.5271
11
-2.92937
21
48.363
0
LINE
8
BLACK
6
CONTINUOUS
10
-2.92937
20
48.363
11
-2.87564
21
48.185
0
LINE
8
BLACK
6
CONTINUOUS
10
-2.87564
20
48.185
11
-2.8575
21
48
0
LINE
8
BLACK
6
CONTINUOUS
10
-2.8575
20
48
11
-2.85787
21
47.9734
0
LINE
8
BLACK
6
CONTINUOUS
10
-2.85787
20
47.9734
11
-2.88117
21
47.789
0
LINE
8
BLACK
6
CONTINUOUS
10
-2.88117
20
47.789
11
-2.93985
21
47.6126
0
LINE
8
BLACK
6
CONTINUOUS
10
-2.93985
20
47.6126
11
-3.03167
21
47.4509
0
LINE
8
BLACK
6
CONTINUOUS
10
-3.03167
20
47.4509
11
-3.15314
21
47.3102
0
LINE
8
BLACK
6
CONTINUOUS
10
-3.15314
20
47.3102
11
-3.29962
21
47.1958
0
LINE
8
BLACK
6
CONTINUOUS
10
-3.29962
20
47.1958
11
-3.46555
21
47.112
0
LINE
8
BLACK
6
CONTINUOUS
10
-3.46555
20
47.112
11
-3.6446
21
47.062
0
LINE
8
BLACK
6
CONTINUOUS
10
-3.6446
20
47.062
11
-3.82995
21
47.0477
0
LINE
8
BLACK
6
CONTINUOUS
10
-3.82995
20
47.0477
11
-4.01453
21
47.0697
0
LINE
8
BLACK
6
CONTINUOUS
10
-4.01453
20
47.0697
11
-4.19133
21
47.1272
0
LINE
8
BLACK
6
CONTINUOUS
10
-4.19133
20
47.1272
11
-4.3536
21
47.2179
0
LINE
8
BLACK
6
CONTINUOUS
10
-4.3536
20
47.2179
11
-4.49517
21
47.3383
0
LINE
8
BLACK
6
CONTINUOUS
10
-4.49517
20
47.3383
11
-4.61064
21
47.484
0
LINE
8
BLACK
6
CONTINUOUS
10
-4.61064
20
47.484
11
-4.69561
21
47.6494
0
LINE
8
BLACK
6
CONTINUOUS
10
-4.69561
20
47.6494
11
-4.74685
21
47.8281
0
LINE
8
BLACK
6
CONTINUOUS
10
-4.74685
20
47.8281
11
-4.76241
21
48.0133
0
LINE
8
BLACK
6
CONTINUOUS
10
-4.76241
20
48.0133
11
-4.74169
21
48.198
0
LINE
8
BLACK
6
CONTINUOUS
10
-4.74169
20
48.198
11
-4.68548
21
48.3752
0
LINE
8
BLACK
6
CONTINUOUS
10
-4.68548
20
48.3752
11
-4.59592
21
48.5381
0
LINE
8
BLACK
6
CONTINUOUS
10
-4.59592
20
48.5381
11
-4.47643
21
48.6805
0
LINE
8
BLACK
6
CONTINUOUS
10
-4.47643
20
48.6805
11
-4.33155
21
48.797
0
LINE
8
BLACK
6
CONTINUOUS
10
-4.33155
20
48.797
11
-4.16681
21
48.8831
0
LINE
8
BLACK
6
CONTINUOUS
10
-4.16681
20
48.8831
11
-3.98848
21
48.9356
0
LINE
8
BLACK
6
CONTINUOUS
10
-3.98848
20
48.9356
11
-3.80335
21
48.9525
0
LINE
8
BLACK
6
CONTINUOUS
10
-3.80335
20
48.9525
11
-3.61847
21
48.933
0
LINE
8
BLACK
6
CONTINUOUS
10
23.699
20
47.111
11
21.921
21
47.111
0
LINE
8
BLACK
6
CONTINUOUS
10
21.921
20
47.111
11
21.921
21
48.889
0
LINE
8
BLACK
6
CONTINUOUS
10
21.921
20
48.889
11
23.699
21
48.889
0
LINE
8
BLACK
6
CONTINUOUS
10
23.699
20
48.889
11
23.699
21
47.111
0
LINE
8
BLACK
6
CONTINUOUS
10
4.699
20
47.111
11
2.921
21
47.111
0
LINE
8
BLACK
6
CONTINUOUS
10
2.921
20
47.111
11
2.921
21
48.889
0
LINE
8
BLACK
6
CONTINUOUS
10
2.921
20
48.889
11
4.699
21
48.889
0
LINE
8
BLACK
6
CONTINUOUS
10
4.699
20
48.889
11
4.699
21
47.111
0
LINE
8
BLACK
6
CONTINUOUS
10
99.699
20
47.111
11
97.921
21
47.111
0
LINE
8
BLACK
6
CONTINUOUS
10
97.921
20
47.111
11
97.921
21
48.889
0
LINE
8
BLACK
6
CONTINUOUS
10
97.921
20
48.889
11
99.699
21
48.889
0
LINE
8
BLACK
6
CONTINUOUS
10
99.699
20
48.889
11
99.699
21
47.111
0
LINE
8
BLACK
6
CONTINUOUS
10
21.1
20
47.4
11
20.2
21
47.4
0
LINE
8
BLACK
6
CONTINUOUS
10
20.2
20
47.4
11
20.2
21
48.6
0
LINE
8
BLACK
6
CONTINUOUS
10
20.2
20
48.6
11
21.1
21
48.6
0
LINE
8
BLACK
6
CONTINUOUS
10
21.1
20
48.6
11
21.1
21
47.4
0
LINE
8
BLACK
6
CONTINUOUS
10
17.8
20
47.4
11
16.9
21
47.4
0
LINE
8
BLACK
6
CONTINUOUS
10
16.9
20
47.4
11
16.9
21
48.6
0
LINE
8
BLACK
6
CONTINUOUS
10
16.9
20
48.6
11
17.8
21
48.6
0
LINE
8
BLACK
6
CONTINUOUS
10
17.8
20
48.6
11
17.8
21
47.4
0
LINE
8
BLACK
6
CONTINUOUS
10
2.1
20
47.4
11
1.2
21
47.4
0
LINE
8
BLACK
6
CONTINUOUS
10
1.2
20
47.4
11
1.2
21
48.6
0
LINE
8
BLACK
6
CONTINUOUS
10
1.2
20
48.6
11
2.1
21
48.6
0
LINE
8
BLACK
6
CONTINUOUS
10
2.1
20
48.6
11
2.1
21
47.4
0
LINE
8
BLACK
6
CONTINUOUS
10
-1.2
20
47.4
11
-2.1
21
47.4
0
LINE
8
BLACK
6
CONTINUOUS
10
-2.1
20
47.4
11
-2.1
21
48.6
0
LINE
8
BLACK
6
CONTINUOUS
10
-2.1
20
48.6
11
-1.2
21
48.6
0
LINE
8
BLACK
6
CONTINUOUS
10
-1.2
20
48.6
11
-1.2
21
47.4
0
LINE
8
BLACK
6
CONTINUOUS
10
93.8
20
47.4
11
92.9
21
47.4
0
LINE
8
BLACK
6
CONTINUOUS
10
92.9
20
47.4
11
92.9
21
48.6
0
LINE
8
BLACK
6
CONTINUOUS
10
92.9
20
48.6
11
93.8
21
48.6
0
LINE
8
BLACK
6
CONTINUOUS
10
93.8
20
48.6
11
93.8
21
47.4
0
LINE
8
BLACK
6
CONTINUOUS
10
97.1
20
47.4
11
96.2
21
47.4
0
LINE
8
BLACK
6
CONTINUOUS
10
96.2
20
47.4
11
96.2
21
48.6
0
LINE
8
BLACK
6
CONTINUOUS
10
96.2
20
48.6
11
97.1
21
48.6
0
LINE
8
BLACK
6
CONTINUOUS
10
97.1
20
48.6
11
97.1
21
47.4
0
LINE
8
BLACK
6
CONTINUOUS
10
72.3815
20
55.933
11
72.5591
21
55.8781
0
LINE
8
BLACK
6
CONTINUOUS
10
72.5591
20
55.8781
11
72.7226
21
55.7897
0
LINE
8
BLACK
6
CONTINUOUS
10
72.7226
20
55.7897
11
72.8659
21
55.6712
0
LINE
8
BLACK
6
CONTINUOUS
10
72.8659
20
55.6712
11
72.9834
21
55.5271
0
LINE
8
BLACK
6
CONTINUOUS
10
72.9834
20
55.5271
11
73.0706
21
55.363
0
LINE
8
BLACK
6
CONTINUOUS
10
73.0706
20
55.363
11
73.1244
21
55.185
0
LINE
8
BLACK
6
CONTINUOUS
10
73.1244
20
55.185
11
73.1425
21
55
0
LINE
8
BLACK
6
CONTINUOUS
10
73.1425
20
55
11
73.1421
21
54.9734
0
LINE
8
BLACK
6
CONTINUOUS
10
73.1421
20
54.9734
11
73.1188
21
54.789
0
LINE
8
BLACK
6
CONTINUOUS
10
73.1188
20
54.789
11
73.0602
21
54.6126
0
LINE
8
BLACK
6
CONTINUOUS
10
73.0602
20
54.6126
11
72.9683
21
54.4509
0
LINE
8
BLACK
6
CONTINUOUS
10
72.9683
20
54.4509
11
72.8469
21
54.3102
0
LINE
8
BLACK
6
CONTINUOUS
10
72.8469
20
54.3102
11
72.7004
21
54.1958
0
LINE
8
BLACK
6
CONTINUOUS
10
72.7004
20
54.1958
11
72.5344
21
54.112
0
LINE
8
BLACK
6
CONTINUOUS
10
72.5344
20
54.112
11
72.3554
21
54.062
0
LINE
8
BLACK
6
CONTINUOUS
10
72.3554
20
54.062
11
72.1701
21
54.0477
0
LINE
8
BLACK
6
CONTINUOUS
10
72.1701
20
54.0477
11
71.9855
21
54.0697
0
LINE
8
BLACK
6
CONTINUOUS
10
71.9855
20
54.0697
11
71.8087
21
54.1272
0
LINE
8
BLACK
6
CONTINUOUS
10
71.8087
20
54.1272
11
71.6464
21
54.2179
0
LINE
8
BLACK
6
CONTINUOUS
10
71.6464
20
54.2179
11
71.5048
21
54.3383
0
LINE
8
BLACK
6
CONTINUOUS
10
71.5048
20
54.3383
11
71.3894
21
54.484
0
LINE
8
BLACK
6
CONTINUOUS
10
71.3894
20
54.484
11
71.3044
21
54.6494
0
LINE
8
BLACK
6
CONTINUOUS
10
71.3044
20
54.6494
11
71.2531
21
54.8281
0
LINE
8
BLACK
6
CONTINUOUS
10
71.2531
20
54.8281
11
71.2376
21
55.0133
0
LINE
8
BLACK
6
CONTINUOUS
10
71.2376
20
55.0133
11
71.2583
21
55.198
0
LINE
8
BLACK
6
CONTINUOUS
10
71.2583
20
55.198
11
71.3145
21
55.3752
0
LINE
8
BLACK
6
CONTINUOUS
10
71.3145
20
55.3752
11
71.4041
21
55.5381
0
LINE
8
BLACK
6
CONTINUOUS
10
71.4041
20
55.5381
11
71.5236
21
55.6805
0
LINE
8
BLACK
6
CONTINUOUS
10
71.5236
20
55.6805
11
71.6684
21
55.797
0
LINE
8
BLACK
6
CONTINUOUS
10
71.6684
20
55.797
11
71.8332
21
55.8831
0
LINE
8
BLACK
6
CONTINUOUS
10
71.8332
20
55.8831
11
72.0115
21
55.9356
0
LINE
8
BLACK
6
CONTINUOUS
10
72.0115
20
55.9356
11
72.1966
21
55.9525
0
LINE
8
BLACK
6
CONTINUOUS
10
72.1966
20
55.9525
11
72.3815
21
55.933
0
LINE
8
BLACK
6
CONTINUOUS
10
34.3815
20
55.933
11
34.5591
21
55.8781
0
LINE
8
BLACK
6
CONTINUOUS
10
34.5591
20
55.8781
11
34.7226
21
55.7897
0
LINE
8
BLACK
6
CONTINUOUS
10
34.7226
20
55.7897
11
34.8659
21
55.6712
0
LINE
8
BLACK
6
CONTINUOUS
10
34.8659
20
55.6712
11
34.9834
21
55.5271
0
LINE
8
BLACK
6
CONTINUOUS
10
34.9834
20
55.5271
11
35.0706
21
55.363
0
LINE
8
BLACK
6
CONTINUOUS
10
35.0706
20
55.363
11
35.1244
21
55.185
0
LINE
8
BLACK
6
CONTINUOUS
10
35.1244
20
55.185
11
35.1425
21
55
0
LINE
8
BLACK
6
CONTINUOUS
10
35.1425
20
55
11
35.1421
21
54.9734
0
LINE
8
BLACK
6
CONTINUOUS
10
35.1421
20
54.9734
11
35.1188
21
54.789
0
LINE
8
BLACK
6
CONTINUOUS
10
35.1188
20
54.789
11
35.0602
21
54.6126
0
LINE
8
BLACK
6
CONTINUOUS
10
35.0602
20
54.6126
11
34.9683
21
54.4509
0
LINE
8
BLACK
6
CONTINUOUS
10
34.9683
20
54.4509
11
34.8469
21
54.3102
0
LINE
8
BLACK
6
CONTINUOUS
10
34.8469
20
54.3102
11
34.7004
21
54.1958
0
LINE
8
BLACK
6
CONTINUOUS
10
34.7004
20
54.1958
11
34.5344
21
54.112
0
LINE
8
BLACK
6
CONTINUOUS
10
34.5344
20
54.112
11
34.3554
21
54.062
0
LINE
8
BLACK
6
CONTINUOUS
10
34.3554
20
54.062
11
34.1701
21
54.0477
0
LINE
8
BLACK
6
CONTINUOUS
10
34.1701
20
54.0477
11
33.9855
21
54.0697
0
LINE
8
BLACK
6
CONTINUOUS
10
33.9855
20
54.0697
11
33.8087
21
54.1272
0
LINE
8
BLACK
6
CONTINUOUS
10
33.8087
20
54.1272
11
33.6464
21
54.2179
0
LINE
8
BLACK
6
CONTINUOUS
10
33.6464
20
54.2179
11
33.5048
21
54.3383
0
LINE
8
BLACK
6
CONTINUOUS
10
33.5048
20
54.3383
11
33.3894
21
54.484
0
LINE
8
BLACK
6
CONTINUOUS
10
33.3894
20
54.484
11
33.3044
21
54.6494
0
LINE
8
BLACK
6
CONTINUOUS
10
33.3044
20
54.6494
11
33.2531
21
54.8281
0
LINE
8
BLACK
6
CONTINUOUS
10
33.2531
20
54.8281
11
33.2376
21
55.0133
0
LINE
8
BLACK
6
CONTINUOUS
10
33.2376
20
55.0133
11
33.2583
21
55.198
0
LINE
8
BLACK
6
CONTINUOUS
10
33.2583
20
55.198
11
33.3145
21
55.3752
0
LINE
8
BLACK
6
CONTINUOUS
10
33.3145
20
55.3752
11
33.4041
21
55.5381
0
LINE
8
BLACK
6
CONTINUOUS
10
33.4041
20
55.5381
11
33.5236
21
55.6805
0
LINE
8
BLACK
6
CONTINUOUS
10
33.5236
20
55.6805
11
33.6684
21
55.797
0
LINE
8
BLACK
6
CONTINUOUS
10
33.6684
20
55.797
11
33.8332
21
55.8831
0
LINE
8
BLACK
6
CONTINUOUS
10
33.8332
20
55.8831
11
34.0115
21
55.9356
0
LINE
8
BLACK
6
CONTINUOUS
10
34.0115
20
55.9356
11
34.1966
21
55.9525
0
LINE
8
BLACK
6
CONTINUOUS
10
34.1966
20
55.9525
11
34.3815
21
55.933
0
LINE
8
BLACK
6
CONTINUOUS
10
42.699
20
54.111
11
40.921
21
54.111
0
LINE
8
BLACK
6
CONTINUOUS
10
40.921
20
54.111
11
40.921
21
55.889
0
LINE
8
BLACK
6
CONTINUOUS
10
40.921
20
55.889
11
42.699
21
55.889
0
LINE
8
BLACK
6
CONTINUOUS
10
42.699
20
55.889
11
42.699
21
54.111
0
LINE
8
BLACK
6
CONTINUOUS
10
80.699
20
54.111
11
78.921
21
54.111
0
LINE
8
BLACK
6
CONTINUOUS
10
78.921
20
54.111
11
78.921
21
55.889
0
LINE
8
BLACK
6
CONTINUOUS
10
78.921
20
55.889
11
80.699
21
55.889
0
LINE
8
BLACK
6
CONTINUOUS
10
80.699
20
55.889
11
80.699
21
54.111
0
LINE
8
BLACK
6
CONTINUOUS
10
36.8
20
54.4
11
35.9
21
54.4
0
LINE
8
BLACK
6
CONTINUOUS
10
35.9
20
54.4
11
35.9
21
55.6
0
LINE
8
BLACK
6
CONTINUOUS
10
35.9
20
55.6
11
36.8
21
55.6
0
LINE
8
BLACK
6
CONTINUOUS
10
36.8
20
55.6
11
36.8
21
54.4
0
LINE
8
BLACK
6
CONTINUOUS
10
40.1
20
54.4
11
39.2
21
54.4
0
LINE
8
BLACK
6
CONTINUOUS
10
39.2
20
54.4
11
39.2
21
55.6
0
LINE
8
BLACK
6
CONTINUOUS
10
39.2
20
55.6
11
40.1
21
55.6
0
LINE
8
BLACK
6
CONTINUOUS
10
40.1
20
55.6
11
40.1
21
54.4
0
LINE
8
BLACK
6
CONTINUOUS
10
74.8
20
54.4
11
73.9
21
54.4
0
LINE
8
BLACK
6
CONTINUOUS
10
73.9
20
54.4
11
73.9
21
55.6
0
LINE
8
BLACK
6
CONTINUOUS
10
73.9
20
55.6
11
74.8
21
55.6
0
LINE
8
BLACK
6
CONTINUOUS
10
74.8
20
55.6
11
74.8
21
54.4
0
LINE
8
BLACK
6
CONTINUOUS
10
78.1
20
54.4
11
77.2
21
54.4
0
LINE
8
BLACK
6
CONTINUOUS
10
77.2
20
54.4
11
77.2
21
55.6
0
LINE
8
BLACK
6
CONTINUOUS
10
77.2
20
55.6
11
78.1
21
55.6
0
LINE
8
BLACK
6
CONTINUOUS
10
78.1
20
55.6
11
78.1
21
54.4
0
LINE
8
BLACK
6
CONTINUOUS
10
53.3815
20
62.933
11
53.5591
21
62.8781
0
LINE
8
BLACK
6
CONTINUOUS
10
53.5591
20
62.8781
11
53.7226
21
62.7897
0
LINE
8
BLACK
6
CONTINUOUS
10
53.7226
20
62.7897
11
53.8659
21
62.6712
0
LINE
8
BLACK
6
CONTINUOUS
10
53.8659
20
62.6712
11
53.9834
21
62.5271
0
LINE
8
BLACK
6
CONTINUOUS
10
53.9834
20
62.5271
11
54.0706
21
62.363
0
LINE
8
BLACK
6
CONTINUOUS
10
54.0706
20
62.363
11
54.1244
21
62.185
0
LINE
8
BLACK
6
CONTINUOUS
10
54.1244
20
62.185
11
54.1425
21
62
0
LINE
8
BLACK
6
CONTINUOUS
10
54.1425
20
62
11
54.1421
21
61.9734
0
LINE
8
BLACK
6
CONTINUOUS
10
54.1421
20
61.9734
11
54.1188
21
61.789
0
LINE
8
BLACK
6
CONTINUOUS
10
54.1188
20
61.789
11
54.0602
21
61.6126
0
LINE
8
BLACK
6
CONTINUOUS
10
54.0602
20
61.6126
11
53.9683
21
61.4509
0
LINE
8
BLACK
6
CONTINUOUS
10
53.9683
20
61.4509
11
53.8469
21
61.3102
0
LINE
8
BLACK
6
CONTINUOUS
10
53.8469
20
61.3102
11
53.7004
21
61.1958
0
LINE
8
BLACK
6
CONTINUOUS
10
53.7004
20
61.1958
11
53.5344
21
61.112
0
LINE
8
BLACK
6
CONTINUOUS
10
53.5344
20
61.112
11
53.3554
21
61.062
0
LINE
8
BLACK
6
CONTINUOUS
10
53.3554
20
61.062
11
53.1701
21
61.0477
0
LINE
8
BLACK
6
CONTINUOUS
10
53.1701
20
61.0477
11
52.9855
21
61.0697
0
LINE
8
BLACK
6
CONTINUOUS
10
52.9855
20
61.0697
11
52.8087
21
61.1272
0
LINE
8
BLACK
6
CONTINUOUS
10
52.8087
20
61.1272
11
52.6464
21
61.2179
0
LINE
8
BLACK
6
CONTINUOUS
10
52.6464
20
61.2179
11
52.5048
21
61.3383
0
LINE
8
BLACK
6
CONTINUOUS
10
52.5048
20
61.3383
11
52.3894
21
61.484
0
LINE
8
BLACK
6
CONTINUOUS
10
52.3894
20
61.484
11
52.3044
21
61.6494
0
LINE
8
BLACK
6
CONTINUOUS
10
52.3044
20
61.6494
11
52.2531
21
61.8281
0
LINE
8
BLACK
6
CONTINUOUS
10
52.2531
20
61.8281
11
52.2376
21
62.0133
0
LINE
8
BLACK
6
CONTINUOUS
10
52.2376
20
62.0133
11
52.2583
21
62.198
0
LINE
8
BLACK
6
CONTINUOUS
10
52.2583
20
62.198
11
52.3145
21
62.3752
0
LINE
8
BLACK
6
CONTINUOUS
10
52.3145
20
62.3752
11
52.4041
21
62.5381
0
LINE
8
BLACK
6
CONTINUOUS
10
52.4041
20
62.5381
11
52.5236
21
62.6805
0
LINE
8
BLACK
6
CONTINUOUS
10
52.5236
20
62.6805
11
52.6684
21
62.797
0
LINE
8
BLACK
6
CONTINUOUS
10
52.6684
20
62.797
11
52.8332
21
62.8831
0
LINE
8
BLACK
6
CONTINUOUS
10
52.8332
20
62.8831
11
53.0115
21
62.9356
0
LINE
8
BLACK
6
CONTINUOUS
10
53.0115
20
62.9356
11
53.1966
21
62.9525
0
LINE
8
BLACK
6
CONTINUOUS
10
53.1966
20
62.9525
11
53.3815
21
62.933
0
LINE
8
BLACK
6
CONTINUOUS
10
61.699
20
61.111
11
59.921
21
61.111
0
LINE
8
BLACK
6
CONTINUOUS
10
59.921
20
61.111
11
59.921
21
62.889
0
LINE
8
BLACK
6
CONTINUOUS
10
59.921
20
62.889
11
61.699
21
62.889
0
LINE
8
BLACK
6
CONTINUOUS
10
61.699
20
62.889
11
61.699
21
61.111
0
LINE
8
BLACK
6
CONTINUOUS
10
59.1
20
61.4
11
58.2
21
61.4
0
LINE
8
BLACK
6
CONTINUOUS
10
58.2
20
61.4
11
58.2
21
62.6
0
LINE
8
BLACK
6
CONTINUOUS
10
58.2
20
62.6
11
59.1
21
62.6
0
LINE
8
BLACK
6
CONTINUOUS
10
59.1
20
62.6
11
59.1
21
61.4
0
LINE
8
BLACK
6
CONTINUOUS
10
55.8
20
61.4
11
54.9
21
61.4
0
LINE
8
BLACK
6
CONTINUOUS
10
54.9
20
61.4
11
54.9
21
62.6
0
LINE
8
BLACK
6
CONTINUOUS
10
54.9
20
62.6
11
55.8
21
62.6
0
LINE
8
BLACK
6
CONTINUOUS
10
55.8
20
62.6
11
55.8
21
61.4
  0
ENDSEC
  0
EOF
