  0
SECTION
  2
HEADER
  9
$ANGBASE
  50
0.0
  9
$ANGDIR
  70
1
  9
$MEASUREMENT
  70
1
  0
ENDSEC
  0
SECTION
  2
TABLES
  0
TABLE
  2
LTYPE
  70
4
  0
LTYPE
  5
40F
  2
CONTINUOUS
  70
0
  3
Solid line
  72
65
  73
0
  40
0.0
  0
LTYPE
  5
410
  2
DASHDOT
 70
0
  3
Dash Dot ____ _ ____ _
 72
65
 73
4
 40
2.0
 49
1.25
 49
-0.25
 49
0.25
 49
-0.25
  0
LTYPE
  5
411
  2
DASHED
 70
0
  3
Dashed __ __ __ __ __
 72
65
 73
2
 40
0.75
 49
0.5
 49
-0.25
  0
LTYPE
  5
43B
  2
DOTTED
 70
0
  3
Dotted .  .  .  .
 72
65
 73
2
 40
0.2
 49
0.0
 49
-0.2
  0
ENDTAB
  0
TABLE
  2
STYLE
  70
4
  0
STYLE
  2
KICAD
  70
0
  40
0
  41
1
  42
1
  50
0
  71
0
  3
isocp.shx
  0
STYLE
  2
KICADB
  70
0
  40
0
  41
1
  42
1
  50
0
  71
0
  3
isocp.shx
  0
STYLE
  2
KICADI
  70
0
  40
0
  41
1
  42
1
  50
15
  71
0
  3
isocp.shx
  0
STYLE
  2
KICADBI
  70
0
  40
0
  41
1
  42
1
  50
15
  71
0
  3
isocp.shx
  0
ENDTAB
  0
TABLE
  2
LAYER
  70
1
  0
LAYER
  2
BLACK
  70
0
  62
7
  6
CONTINUOUS
  0
ENDTAB
  0
ENDSEC
  0
SECTION
  2
ENTITIES
0
LINE
8
BLACK
6
CONTINUOUS
10
135.607
20
-37.5357
11
134.075
21
-38.8212
0
LINE
8
BLACK
6
CONTINUOUS
10
134.075
20
-38.8212
11
132.789
21
-37.2892
0
LINE
8
BLACK
6
CONTINUOUS
10
132.789
20
-37.2892
11
134.321
21
-36.0036
0
LINE
8
BLACK
6
CONTINUOUS
10
134.321
20
-36.0036
11
135.607
21
-37.5357
0
LINE
8
BLACK
6
CONTINUOUS
10
140.004
20
-33.5196
11
138.855
21
-34.4838
0
LINE
8
BLACK
6
CONTINUOUS
10
138.855
20
-34.4838
11
138.405
21
-33.9475
0
LINE
8
BLACK
6
CONTINUOUS
10
138.405
20
-33.9475
11
139.554
21
-32.9833
0
LINE
8
BLACK
6
CONTINUOUS
10
139.554
20
-32.9833
11
140.004
21
-33.5196
0
LINE
8
BLACK
6
CONTINUOUS
10
139.968
20
-32.6362
11
138.053
21
-34.2432
0
LINE
8
BLACK
6
CONTINUOUS
10
138.053
20
-34.2432
11
136.446
21
-32.3281
0
LINE
8
BLACK
6
CONTINUOUS
10
136.446
20
-32.3281
11
138.361
21
-30.7211
0
LINE
8
BLACK
6
CONTINUOUS
10
138.361
20
-30.7211
11
139.968
21
-32.6362
0
LINE
8
BLACK
6
CONTINUOUS
10
126.851
20
-30.5233
11
125.319
21
-31.8089
0
LINE
8
BLACK
6
CONTINUOUS
10
125.319
20
-31.8089
11
124.162
21
-30.43
0
LINE
8
BLACK
6
CONTINUOUS
10
124.162
20
-30.43
11
125.694
21
-29.1444
0
LINE
8
BLACK
6
CONTINUOUS
10
125.694
20
-29.1444
11
126.851
21
-30.5233
0
LINE
8
BLACK
6
CONTINUOUS
10
87.1
20
-26.9
11
85.3
21
-26.9
0
LINE
8
BLACK
6
CONTINUOUS
10
85.3
20
-26.9
11
85.3
21
-24.9
0
LINE
8
BLACK
6
CONTINUOUS
10
85.3
20
-24.9
11
87.1
21
-24.9
0
LINE
8
BLACK
6
CONTINUOUS
10
87.1
20
-24.9
11
87.1
21
-26.9
0
LINE
8
BLACK
6
CONTINUOUS
10
98.1
20
-24.7
11
96.1
21
-24.7
0
LINE
8
BLACK
6
CONTINUOUS
10
96.1
20
-24.7
11
96.1
21
-22.7
0
LINE
8
BLACK
6
CONTINUOUS
10
96.1
20
-22.7
11
98.1
21
-22.7
0
LINE
8
BLACK
6
CONTINUOUS
10
98.1
20
-22.7
11
98.1
21
-24.7
0
LINE
8
BLACK
6
CONTINUOUS
10
121.106
20
-21.2929
11
120.261
21
-23.1055
0
LINE
8
BLACK
6
CONTINUOUS
10
120.261
20
-23.1055
11
118.448
21
-22.2602
0
LINE
8
BLACK
6
CONTINUOUS
10
118.448
20
-22.2602
11
119.294
21
-20.4476
0
LINE
8
BLACK
6
CONTINUOUS
10
119.294
20
-20.4476
11
121.106
21
-21.2929
0
LINE
8
BLACK
6
CONTINUOUS
10
131.872
20
-19.7831
11
132.201
21
-19.5067
0
LINE
8
BLACK
6
CONTINUOUS
10
132.201
20
-19.5067
11
133.744
21
-21.3452
0
LINE
8
BLACK
6
CONTINUOUS
10
133.744
20
-21.3452
11
131.905
21
-22.8879
0
LINE
8
BLACK
6
CONTINUOUS
10
131.905
20
-22.8879
11
130.363
21
-21.0494
0
LINE
8
BLACK
6
CONTINUOUS
10
130.363
20
-21.0494
11
130.723
21
-20.7473
0
LINE
8
BLACK
6
CONTINUOUS
10
130.723
20
-20.7473
11
130.305
21
-20.2494
0
LINE
8
BLACK
6
CONTINUOUS
10
130.305
20
-20.2494
11
131.454
21
-19.2852
0
LINE
8
BLACK
6
CONTINUOUS
10
131.454
20
-19.2852
11
131.872
21
-19.7831
0
LINE
8
BLACK
6
CONTINUOUS
10
110.207
20
-18.6379
11
109.362
21
-20.4505
0
LINE
8
BLACK
6
CONTINUOUS
10
109.362
20
-20.4505
11
107.731
21
-19.6898
0
LINE
8
BLACK
6
CONTINUOUS
10
107.731
20
-19.6898
11
108.576
21
-17.8772
0
LINE
8
BLACK
6
CONTINUOUS
10
108.576
20
-17.8772
11
110.207
21
-18.6379
0
LINE
8
BLACK
6
CONTINUOUS
10
49.1
20
-19.9
11
47.3
21
-19.9
0
LINE
8
BLACK
6
CONTINUOUS
10
47.3
20
-19.9
11
47.3
21
-17.9
0
LINE
8
BLACK
6
CONTINUOUS
10
47.3
20
-17.9
11
49.1
21
-17.9
0
LINE
8
BLACK
6
CONTINUOUS
10
49.1
20
-17.9
11
49.1
21
-19.9
0
LINE
8
BLACK
6
CONTINUOUS
10
68.1
20
-19.9
11
66.3
21
-19.9
0
LINE
8
BLACK
6
CONTINUOUS
10
66.3
20
-19.9
11
66.3
21
-17.9
0
LINE
8
BLACK
6
CONTINUOUS
10
66.3
20
-17.9
11
68.1
21
-17.9
0
LINE
8
BLACK
6
CONTINUOUS
10
68.1
20
-17.9
11
68.1
21
-19.9
0
LINE
8
BLACK
6
CONTINUOUS
10
94.65
20
-18.71
11
94.65
21
-16.21
0
LINE
8
BLACK
6
CONTINUOUS
10
94.65
20
-16.21
11
97.15
21
-16.21
0
LINE
8
BLACK
6
CONTINUOUS
10
97.15
20
-16.21
11
97.15
21
-16.75
0
LINE
8
BLACK
6
CONTINUOUS
10
97.15
20
-16.75
11
97.85
21
-16.75
0
LINE
8
BLACK
6
CONTINUOUS
10
97.85
20
-16.75
11
97.85
21
-18.25
0
LINE
8
BLACK
6
CONTINUOUS
10
97.85
20
-18.25
11
97.15
21
-18.25
0
LINE
8
BLACK
6
CONTINUOUS
10
97.15
20
-18.25
11
97.15
21
-18.71
0
LINE
8
BLACK
6
CONTINUOUS
10
97.15
20
-18.71
11
94.65
21
-18.71
0
LINE
8
BLACK
6
CONTINUOUS
10
60.1
20
-17.7
11
58.1
21
-17.7
0
LINE
8
BLACK
6
CONTINUOUS
10
58.1
20
-17.7
11
58.1
21
-15.7
0
LINE
8
BLACK
6
CONTINUOUS
10
58.1
20
-15.7
11
60.1
21
-15.7
0
LINE
8
BLACK
6
CONTINUOUS
10
60.1
20
-15.7
11
60.1
21
-17.7
0
LINE
8
BLACK
6
CONTINUOUS
10
79.1
20
-17.7
11
77.1
21
-17.7
0
LINE
8
BLACK
6
CONTINUOUS
10
77.1
20
-17.7
11
77.1
21
-15.7
0
LINE
8
BLACK
6
CONTINUOUS
10
77.1
20
-15.7
11
79.1
21
-15.7
0
LINE
8
BLACK
6
CONTINUOUS
10
79.1
20
-15.7
11
79.1
21
-17.7
0
LINE
8
BLACK
6
CONTINUOUS
10
122.988
20
-15.0094
11
122.76
21
-15.4988
0
LINE
8
BLACK
6
CONTINUOUS
10
122.76
20
-15.4988
11
123.394
21
-15.7947
0
LINE
8
BLACK
6
CONTINUOUS
10
123.394
20
-15.7947
11
122.76
21
-17.1541
0
LINE
8
BLACK
6
CONTINUOUS
10
122.76
20
-17.1541
11
122.126
21
-16.8583
0
LINE
8
BLACK
6
CONTINUOUS
10
122.126
20
-16.8583
11
122.176
21
-16.75
0
LINE
8
BLACK
6
CONTINUOUS
10
122.176
20
-16.75
11
121.932
21
-17.2752
0
LINE
8
BLACK
6
CONTINUOUS
10
121.932
20
-17.2752
11
119.666
21
-16.2187
0
LINE
8
BLACK
6
CONTINUOUS
10
119.666
20
-16.2187
11
120.722
21
-13.9529
0
LINE
8
BLACK
6
CONTINUOUS
10
120.722
20
-13.9529
11
122.988
21
-15.0094
0
LINE
8
BLACK
6
CONTINUOUS
10
84.5
20
-16.12
11
82.1
21
-16.12
0
LINE
8
BLACK
6
CONTINUOUS
10
82.1
20
-16.12
11
82.1
21
-15.65
0
LINE
8
BLACK
6
CONTINUOUS
10
82.1
20
-15.65
11
81.45
21
-15.65
0
LINE
8
BLACK
6
CONTINUOUS
10
81.45
20
-15.65
11
81.45
21
-14.15
0
LINE
8
BLACK
6
CONTINUOUS
10
81.45
20
-14.15
11
82.1
21
-14.15
0
LINE
8
BLACK
6
CONTINUOUS
10
82.1
20
-14.15
11
82.1
21
-13.72
0
LINE
8
BLACK
6
CONTINUOUS
10
82.1
20
-13.72
11
84.5
21
-13.72
0
LINE
8
BLACK
6
CONTINUOUS
10
84.5
20
-13.72
11
84.5
21
-16.12
0
LINE
8
BLACK
6
CONTINUOUS
10
56.65
20
-11.71
11
56.65
21
-9.21
0
LINE
8
BLACK
6
CONTINUOUS
10
56.65
20
-9.21
11
59.15
21
-9.21
0
LINE
8
BLACK
6
CONTINUOUS
10
59.15
20
-9.21
11
59.15
21
-9.75
0
LINE
8
BLACK
6
CONTINUOUS
10
59.15
20
-9.75
11
59.85
21
-9.75
0
LINE
8
BLACK
6
CONTINUOUS
10
59.85
20
-9.75
11
59.85
21
-11.25
0
LINE
8
BLACK
6
CONTINUOUS
10
59.85
20
-11.25
11
59.15
21
-11.25
0
LINE
8
BLACK
6
CONTINUOUS
10
59.15
20
-11.25
11
59.15
21
-11.71
0
LINE
8
BLACK
6
CONTINUOUS
10
59.15
20
-11.71
11
56.65
21
-11.71
0
LINE
8
BLACK
6
CONTINUOUS
10
75.65
20
-11.71
11
75.65
21
-9.21
0
LINE
8
BLACK
6
CONTINUOUS
10
75.65
20
-9.21
11
78.15
21
-9.21
0
LINE
8
BLACK
6
CONTINUOUS
10
78.15
20
-9.21
11
78.15
21
-9.75
0
LINE
8
BLACK
6
CONTINUOUS
10
78.15
20
-9.75
11
78.85
21
-9.75
0
LINE
8
BLACK
6
CONTINUOUS
10
78.85
20
-9.75
11
78.85
21
-11.25
0
LINE
8
BLACK
6
CONTINUOUS
10
78.85
20
-11.25
11
78.15
21
-11.25
0
LINE
8
BLACK
6
CONTINUOUS
10
78.15
20
-11.25
11
78.15
21
-11.71
0
LINE
8
BLACK
6
CONTINUOUS
10
78.15
20
-11.71
11
75.65
21
-11.71
0
LINE
8
BLACK
6
CONTINUOUS
10
112.576
20
-7.4066
11
111.561
21
-9.58174
0
LINE
8
BLACK
6
CONTINUOUS
10
111.561
20
-9.58174
11
109.386
21
-8.56746
0
LINE
8
BLACK
6
CONTINUOUS
10
109.386
20
-8.56746
11
109.585
21
-8.14149
0
LINE
8
BLACK
6
CONTINUOUS
10
109.585
20
-8.14149
11
108.996
21
-7.86679
0
LINE
8
BLACK
6
CONTINUOUS
10
108.996
20
-7.86679
11
109.63
21
-6.50733
0
LINE
8
BLACK
6
CONTINUOUS
10
109.63
20
-6.50733
11
110.219
21
-6.78203
0
LINE
8
BLACK
6
CONTINUOUS
10
110.219
20
-6.78203
11
110.401
21
-6.39232
0
LINE
8
BLACK
6
CONTINUOUS
10
110.401
20
-6.39232
11
112.576
21
-7.4066
0
LINE
8
BLACK
6
CONTINUOUS
10
46.5
20
-9.12
11
44.1
21
-9.12
0
LINE
8
BLACK
6
CONTINUOUS
10
44.1
20
-9.12
11
44.1
21
-8.65
0
LINE
8
BLACK
6
CONTINUOUS
10
44.1
20
-8.65
11
43.45
21
-8.65
0
LINE
8
BLACK
6
CONTINUOUS
10
43.45
20
-8.65
11
43.45
21
-7.15
0
LINE
8
BLACK
6
CONTINUOUS
10
43.45
20
-7.15
11
44.1
21
-7.15
0
LINE
8
BLACK
6
CONTINUOUS
10
44.1
20
-7.15
11
44.1
21
-6.72
0
LINE
8
BLACK
6
CONTINUOUS
10
44.1
20
-6.72
11
46.5
21
-6.72
0
LINE
8
BLACK
6
CONTINUOUS
10
46.5
20
-6.72
11
46.5
21
-9.12
0
LINE
8
BLACK
6
CONTINUOUS
10
65.5
20
-9.12
11
63.1
21
-9.12
0
LINE
8
BLACK
6
CONTINUOUS
10
63.1
20
-9.12
11
63.1
21
-8.65
0
LINE
8
BLACK
6
CONTINUOUS
10
63.1
20
-8.65
11
62.45
21
-8.65
0
LINE
8
BLACK
6
CONTINUOUS
10
62.45
20
-8.65
11
62.45
21
-7.15
0
LINE
8
BLACK
6
CONTINUOUS
10
62.45
20
-7.15
11
63.1
21
-7.15
0
LINE
8
BLACK
6
CONTINUOUS
10
63.1
20
-7.15
11
63.1
21
-6.72
0
LINE
8
BLACK
6
CONTINUOUS
10
63.1
20
-6.72
11
65.5
21
-6.72
0
LINE
8
BLACK
6
CONTINUOUS
10
65.5
20
-6.72
11
65.5
21
-9.12
0
LINE
8
BLACK
6
CONTINUOUS
10
17.1
20
-6.9
11
15.3
21
-6.9
0
LINE
8
BLACK
6
CONTINUOUS
10
15.3
20
-6.9
11
15.3
21
-4.9
0
LINE
8
BLACK
6
CONTINUOUS
10
15.3
20
-4.9
11
17.1
21
-4.9
0
LINE
8
BLACK
6
CONTINUOUS
10
17.1
20
-4.9
11
17.1
21
-6.9
0
LINE
8
BLACK
6
CONTINUOUS
10
93.1
20
-6.9
11
91.3
21
-6.9
0
LINE
8
BLACK
6
CONTINUOUS
10
91.3
20
-6.9
11
91.3
21
-4.9
0
LINE
8
BLACK
6
CONTINUOUS
10
91.3
20
-4.9
11
93.1
21
-4.9
0
LINE
8
BLACK
6
CONTINUOUS
10
93.1
20
-4.9
11
93.1
21
-6.9
0
LINE
8
BLACK
6
CONTINUOUS
10
-1.9
20
-6.9
11
-3.7
21
-6.9
0
LINE
8
BLACK
6
CONTINUOUS
10
-3.7
20
-6.9
11
-3.7
21
-4.9
0
LINE
8
BLACK
6
CONTINUOUS
10
-3.7
20
-4.9
11
-1.9
21
-4.9
0
LINE
8
BLACK
6
CONTINUOUS
10
-1.9
20
-4.9
11
-1.9
21
-6.9
0
LINE
8
BLACK
6
CONTINUOUS
10
104.1
20
-4.7
11
102.1
21
-4.7
0
LINE
8
BLACK
6
CONTINUOUS
10
102.1
20
-4.7
11
102.1
21
-2.7
0
LINE
8
BLACK
6
CONTINUOUS
10
102.1
20
-2.7
11
104.1
21
-2.7
0
LINE
8
BLACK
6
CONTINUOUS
10
104.1
20
-2.7
11
104.1
21
-4.7
0
LINE
8
BLACK
6
CONTINUOUS
10
9.1
20
-4.7
11
7.1
21
-4.7
0
LINE
8
BLACK
6
CONTINUOUS
10
7.1
20
-4.7
11
7.1
21
-2.7
0
LINE
8
BLACK
6
CONTINUOUS
10
7.1
20
-2.7
11
9.1
21
-2.7
0
LINE
8
BLACK
6
CONTINUOUS
10
9.1
20
-2.7
11
9.1
21
-4.7
0
LINE
8
BLACK
6
CONTINUOUS
10
28.1
20
-4.7
11
26.1
21
-4.7
0
LINE
8
BLACK
6
CONTINUOUS
10
26.1
20
-4.7
11
26.1
21
-2.7
0
LINE
8
BLACK
6
CONTINUOUS
10
26.1
20
-2.7
11
28.1
21
-2.7
0
LINE
8
BLACK
6
CONTINUOUS
10
28.1
20
-2.7
11
28.1
21
-4.7
0
LINE
8
BLACK
6
CONTINUOUS
10
36.1
20
0.1
11
34.3
21
0.1
0
LINE
8
BLACK
6
CONTINUOUS
10
34.3
20
0.1
11
34.3
21
2.1
0
LINE
8
BLACK
6
CONTINUOUS
10
34.3
20
2.1
11
36.1
21
2.1
0
LINE
8
BLACK
6
CONTINUOUS
10
36.1
20
2.1
11
36.1
21
0.1
0
LINE
8
BLACK
6
CONTINUOUS
10
74.1
20
0.1
11
72.3
21
0.1
0
LINE
8
BLACK
6
CONTINUOUS
10
72.3
20
0.1
11
72.3
21
2.1
0
LINE
8
BLACK
6
CONTINUOUS
10
72.3
20
2.1
11
74.1
21
2.1
0
LINE
8
BLACK
6
CONTINUOUS
10
74.1
20
2.1
11
74.1
21
0.1
0
LINE
8
BLACK
6
CONTINUOUS
10
24.65
20
1.29
11
24.65
21
3.79
0
LINE
8
BLACK
6
CONTINUOUS
10
24.65
20
3.79
11
27.15
21
3.79
0
LINE
8
BLACK
6
CONTINUOUS
10
27.15
20
3.79
11
27.15
21
3.25
0
LINE
8
BLACK
6
CONTINUOUS
10
27.15
20
3.25
11
27.85
21
3.25
0
LINE
8
BLACK
6
CONTINUOUS
10
27.85
20
3.25
11
27.85
21
1.75
0
LINE
8
BLACK
6
CONTINUOUS
10
27.85
20
1.75
11
27.15
21
1.75
0
LINE
8
BLACK
6
CONTINUOUS
10
27.15
20
1.75
11
27.15
21
1.29
0
LINE
8
BLACK
6
CONTINUOUS
10
27.15
20
1.29
11
24.65
21
1.29
0
LINE
8
BLACK
6
CONTINUOUS
10
100.65
20
1.29
11
100.65
21
3.79
0
LINE
8
BLACK
6
CONTINUOUS
10
100.65
20
3.79
11
103.15
21
3.79
0
LINE
8
BLACK
6
CONTINUOUS
10
103.15
20
3.79
11
103.15
21
3.25
0
LINE
8
BLACK
6
CONTINUOUS
10
103.15
20
3.25
11
103.85
21
3.25
0
LINE
8
BLACK
6
CONTINUOUS
10
103.85
20
3.25
11
103.85
21
1.75
0
LINE
8
BLACK
6
CONTINUOUS
10
103.85
20
1.75
11
103.15
21
1.75
0
LINE
8
BLACK
6
CONTINUOUS
10
103.15
20
1.75
11
103.15
21
1.29
0
LINE
8
BLACK
6
CONTINUOUS
10
103.15
20
1.29
11
100.65
21
1.29
0
LINE
8
BLACK
6
CONTINUOUS
10
5.65
20
1.29
11
5.65
21
3.79
0
LINE
8
BLACK
6
CONTINUOUS
10
5.65
20
3.79
11
8.15
21
3.79
0
LINE
8
BLACK
6
CONTINUOUS
10
8.15
20
3.79
11
8.15
21
3.25
0
LINE
8
BLACK
6
CONTINUOUS
10
8.15
20
3.25
11
8.85
21
3.25
0
LINE
8
BLACK
6
CONTINUOUS
10
8.85
20
3.25
11
8.85
21
1.75
0
LINE
8
BLACK
6
CONTINUOUS
10
8.85
20
1.75
11
8.15
21
1.75
0
LINE
8
BLACK
6
CONTINUOUS
10
8.15
20
1.75
11
8.15
21
1.29
0
LINE
8
BLACK
6
CONTINUOUS
10
8.15
20
1.29
11
5.65
21
1.29
0
LINE
8
BLACK
6
CONTINUOUS
10
47.1
20
2.3
11
45.1
21
2.3
0
LINE
8
BLACK
6
CONTINUOUS
10
45.1
20
2.3
11
45.1
21
4.3
0
LINE
8
BLACK
6
CONTINUOUS
10
45.1
20
4.3
11
47.1
21
4.3
0
LINE
8
BLACK
6
CONTINUOUS
10
47.1
20
4.3
11
47.1
21
2.3
0
LINE
8
BLACK
6
CONTINUOUS
10
85.1
20
2.3
11
83.1
21
2.3
0
LINE
8
BLACK
6
CONTINUOUS
10
83.1
20
2.3
11
83.1
21
4.3
0
LINE
8
BLACK
6
CONTINUOUS
10
83.1
20
4.3
11
85.1
21
4.3
0
LINE
8
BLACK
6
CONTINUOUS
10
85.1
20
4.3
11
85.1
21
2.3
0
LINE
8
BLACK
6
CONTINUOUS
10
14.5
20
3.88
11
12.1
21
3.88
0
LINE
8
BLACK
6
CONTINUOUS
10
12.1
20
3.88
11
12.1
21
4.35
0
LINE
8
BLACK
6
CONTINUOUS
10
12.1
20
4.35
11
11.45
21
4.35
0
LINE
8
BLACK
6
CONTINUOUS
10
11.45
20
4.35
11
11.45
21
5.85
0
LINE
8
BLACK
6
CONTINUOUS
10
11.45
20
5.85
11
12.1
21
5.85
0
LINE
8
BLACK
6
CONTINUOUS
10
12.1
20
5.85
11
12.1
21
6.28
0
LINE
8
BLACK
6
CONTINUOUS
10
12.1
20
6.28
11
14.5
21
6.28
0
LINE
8
BLACK
6
CONTINUOUS
10
14.5
20
6.28
11
14.5
21
3.88
0
LINE
8
BLACK
6
CONTINUOUS
10
-4.5
20
3.88
11
-6.9
21
3.88
0
LINE
8
BLACK
6
CONTINUOUS
10
-6.9
20
3.88
11
-6.9
21
4.35
0
LINE
8
BLACK
6
CONTINUOUS
10
-6.9
20
4.35
11
-7.55
21
4.35
0
LINE
8
BLACK
6
CONTINUOUS
10
-7.55
20
4.35
11
-7.55
21
5.85
0
LINE
8
BLACK
6
CONTINUOUS
10
-7.55
20
5.85
11
-6.9
21
5.85
0
LINE
8
BLACK
6
CONTINUOUS
10
-6.9
20
5.85
11
-6.9
21
6.28
0
LINE
8
BLACK
6
CONTINUOUS
10
-6.9
20
6.28
11
-4.5
21
6.28
0
LINE
8
BLACK
6
CONTINUOUS
10
-4.5
20
6.28
11
-4.5
21
3.88
0
LINE
8
BLACK
6
CONTINUOUS
10
90.5
20
3.88
11
88.1
21
3.88
0
LINE
8
BLACK
6
CONTINUOUS
10
88.1
20
3.88
11
88.1
21
4.35
0
LINE
8
BLACK
6
CONTINUOUS
10
88.1
20
4.35
11
87.45
21
4.35
0
LINE
8
BLACK
6
CONTINUOUS
10
87.45
20
4.35
11
87.45
21
5.85
0
LINE
8
BLACK
6
CONTINUOUS
10
87.45
20
5.85
11
88.1
21
5.85
0
LINE
8
BLACK
6
CONTINUOUS
10
88.1
20
5.85
11
88.1
21
6.28
0
LINE
8
BLACK
6
CONTINUOUS
10
88.1
20
6.28
11
90.5
21
6.28
0
LINE
8
BLACK
6
CONTINUOUS
10
90.5
20
6.28
11
90.5
21
3.88
0
LINE
8
BLACK
6
CONTINUOUS
10
55.1
20
7.1
11
53.3
21
7.1
0
LINE
8
BLACK
6
CONTINUOUS
10
53.3
20
7.1
11
53.3
21
9.1
0
LINE
8
BLACK
6
CONTINUOUS
10
53.3
20
9.1
11
55.1
21
9.1
0
LINE
8
BLACK
6
CONTINUOUS
10
55.1
20
9.1
11
55.1
21
7.1
0
LINE
8
BLACK
6
CONTINUOUS
10
112.1
20
8.1
11
110.3
21
8.1
0
LINE
8
BLACK
6
CONTINUOUS
10
110.3
20
8.1
11
110.3
21
10.1
0
LINE
8
BLACK
6
CONTINUOUS
10
110.3
20
10.1
11
112.1
21
10.1
0
LINE
8
BLACK
6
CONTINUOUS
10
112.1
20
10.1
11
112.1
21
8.1
0
LINE
8
BLACK
6
CONTINUOUS
10
43.65
20
8.29
11
43.65
21
10.79
0
LINE
8
BLACK
6
CONTINUOUS
10
43.65
20
10.79
11
46.15
21
10.79
0
LINE
8
BLACK
6
CONTINUOUS
10
46.15
20
10.79
11
46.15
21
10.25
0
LINE
8
BLACK
6
CONTINUOUS
10
46.15
20
10.25
11
46.85
21
10.25
0
LINE
8
BLACK
6
CONTINUOUS
10
46.85
20
10.25
11
46.85
21
8.75
0
LINE
8
BLACK
6
CONTINUOUS
10
46.85
20
8.75
11
46.15
21
8.75
0
LINE
8
BLACK
6
CONTINUOUS
10
46.15
20
8.75
11
46.15
21
8.29
0
LINE
8
BLACK
6
CONTINUOUS
10
46.15
20
8.29
11
43.65
21
8.29
0
LINE
8
BLACK
6
CONTINUOUS
10
81.65
20
8.29
11
81.65
21
10.79
0
LINE
8
BLACK
6
CONTINUOUS
10
81.65
20
10.79
11
84.15
21
10.79
0
LINE
8
BLACK
6
CONTINUOUS
10
84.15
20
10.79
11
84.15
21
10.25
0
LINE
8
BLACK
6
CONTINUOUS
10
84.15
20
10.25
11
84.85
21
10.25
0
LINE
8
BLACK
6
CONTINUOUS
10
84.85
20
10.25
11
84.85
21
8.75
0
LINE
8
BLACK
6
CONTINUOUS
10
84.85
20
8.75
11
84.15
21
8.75
0
LINE
8
BLACK
6
CONTINUOUS
10
84.15
20
8.75
11
84.15
21
8.29
0
LINE
8
BLACK
6
CONTINUOUS
10
84.15
20
8.29
11
81.65
21
8.29
0
LINE
8
BLACK
6
CONTINUOUS
10
66.1
20
9.3
11
64.1
21
9.3
0
LINE
8
BLACK
6
CONTINUOUS
10
64.1
20
9.3
11
64.1
21
11.3
0
LINE
8
BLACK
6
CONTINUOUS
10
64.1
20
11.3
11
66.1
21
11.3
0
LINE
8
BLACK
6
CONTINUOUS
10
66.1
20
11.3
11
66.1
21
9.3
0
LINE
8
BLACK
6
CONTINUOUS
10
123.1
20
10.3
11
121.1
21
10.3
0
LINE
8
BLACK
6
CONTINUOUS
10
121.1
20
10.3
11
121.1
21
12.3
0
LINE
8
BLACK
6
CONTINUOUS
10
121.1
20
12.3
11
123.1
21
12.3
0
LINE
8
BLACK
6
CONTINUOUS
10
123.1
20
12.3
11
123.1
21
10.3
0
LINE
8
BLACK
6
CONTINUOUS
10
33.5
20
10.88
11
31.1
21
10.88
0
LINE
8
BLACK
6
CONTINUOUS
10
31.1
20
10.88
11
31.1
21
11.35
0
LINE
8
BLACK
6
CONTINUOUS
10
31.1
20
11.35
11
30.45
21
11.35
0
LINE
8
BLACK
6
CONTINUOUS
10
30.45
20
11.35
11
30.45
21
12.85
0
LINE
8
BLACK
6
CONTINUOUS
10
30.45
20
12.85
11
31.1
21
12.85
0
LINE
8
BLACK
6
CONTINUOUS
10
31.1
20
12.85
11
31.1
21
13.28
0
LINE
8
BLACK
6
CONTINUOUS
10
31.1
20
13.28
11
33.5
21
13.28
0
LINE
8
BLACK
6
CONTINUOUS
10
33.5
20
13.28
11
33.5
21
10.88
0
LINE
8
BLACK
6
CONTINUOUS
10
71.5
20
10.88
11
69.1
21
10.88
0
LINE
8
BLACK
6
CONTINUOUS
10
69.1
20
10.88
11
69.1
21
11.35
0
LINE
8
BLACK
6
CONTINUOUS
10
69.1
20
11.35
11
68.45
21
11.35
0
LINE
8
BLACK
6
CONTINUOUS
10
68.45
20
11.35
11
68.45
21
12.85
0
LINE
8
BLACK
6
CONTINUOUS
10
68.45
20
12.85
11
69.1
21
12.85
0
LINE
8
BLACK
6
CONTINUOUS
10
69.1
20
12.85
11
69.1
21
13.28
0
LINE
8
BLACK
6
CONTINUOUS
10
69.1
20
13.28
11
71.5
21
13.28
0
LINE
8
BLACK
6
CONTINUOUS
10
71.5
20
13.28
11
71.5
21
10.88
0
LINE
8
BLACK
6
CONTINUOUS
10
-1.9
20
12.1
11
-3.7
21
12.1
0
LINE
8
BLACK
6
CONTINUOUS
10
-3.7
20
12.1
11
-3.7
21
14.1
0
LINE
8
BLACK
6
CONTINUOUS
10
-3.7
20
14.1
11
-1.9
21
14.1
0
LINE
8
BLACK
6
CONTINUOUS
10
-1.9
20
14.1
11
-1.9
21
12.1
0
LINE
8
BLACK
6
CONTINUOUS
10
93.1
20
12.1
11
91.3
21
12.1
0
LINE
8
BLACK
6
CONTINUOUS
10
91.3
20
12.1
11
91.3
21
14.1
0
LINE
8
BLACK
6
CONTINUOUS
10
91.3
20
14.1
11
93.1
21
14.1
0
LINE
8
BLACK
6
CONTINUOUS
10
93.1
20
14.1
11
93.1
21
12.1
0
LINE
8
BLACK
6
CONTINUOUS
10
17.1
20
12.1
11
15.3
21
12.1
0
LINE
8
BLACK
6
CONTINUOUS
10
15.3
20
12.1
11
15.3
21
14.1
0
LINE
8
BLACK
6
CONTINUOUS
10
15.3
20
14.1
11
17.1
21
14.1
0
LINE
8
BLACK
6
CONTINUOUS
10
17.1
20
14.1
11
17.1
21
12.1
0
LINE
8
BLACK
6
CONTINUOUS
10
104.1
20
14.3
11
102.1
21
14.3
0
LINE
8
BLACK
6
CONTINUOUS
10
102.1
20
14.3
11
102.1
21
16.3
0
LINE
8
BLACK
6
CONTINUOUS
10
102.1
20
16.3
11
104.1
21
16.3
0
LINE
8
BLACK
6
CONTINUOUS
10
104.1
20
16.3
11
104.1
21
14.3
0
LINE
8
BLACK
6
CONTINUOUS
10
9.1
20
14.3
11
7.1
21
14.3
0
LINE
8
BLACK
6
CONTINUOUS
10
7.1
20
14.3
11
7.1
21
16.3
0
LINE
8
BLACK
6
CONTINUOUS
10
7.1
20
16.3
11
9.1
21
16.3
0
LINE
8
BLACK
6
CONTINUOUS
10
9.1
20
16.3
11
9.1
21
14.3
0
LINE
8
BLACK
6
CONTINUOUS
10
28.1
20
14.3
11
26.1
21
14.3
0
LINE
8
BLACK
6
CONTINUOUS
10
26.1
20
14.3
11
26.1
21
16.3
0
LINE
8
BLACK
6
CONTINUOUS
10
26.1
20
16.3
11
28.1
21
16.3
0
LINE
8
BLACK
6
CONTINUOUS
10
28.1
20
16.3
11
28.1
21
14.3
0
LINE
8
BLACK
6
CONTINUOUS
10
62.65
20
15.29
11
62.65
21
17.79
0
LINE
8
BLACK
6
CONTINUOUS
10
62.65
20
17.79
11
65.15
21
17.79
0
LINE
8
BLACK
6
CONTINUOUS
10
65.15
20
17.79
11
65.15
21
17.25
0
LINE
8
BLACK
6
CONTINUOUS
10
65.15
20
17.25
11
65.85
21
17.25
0
LINE
8
BLACK
6
CONTINUOUS
10
65.85
20
17.25
11
65.85
21
15.75
0
LINE
8
BLACK
6
CONTINUOUS
10
65.85
20
15.75
11
65.15
21
15.75
0
LINE
8
BLACK
6
CONTINUOUS
10
65.15
20
15.75
11
65.15
21
15.29
0
LINE
8
BLACK
6
CONTINUOUS
10
65.15
20
15.29
11
62.65
21
15.29
0
LINE
8
BLACK
6
CONTINUOUS
10
119.65
20
16.29
11
119.65
21
18.79
0
LINE
8
BLACK
6
CONTINUOUS
10
119.65
20
18.79
11
122.15
21
18.79
0
LINE
8
BLACK
6
CONTINUOUS
10
122.15
20
18.79
11
122.15
21
18.25
0
LINE
8
BLACK
6
CONTINUOUS
10
122.15
20
18.25
11
122.85
21
18.25
0
LINE
8
BLACK
6
CONTINUOUS
10
122.85
20
18.25
11
122.85
21
16.75
0
LINE
8
BLACK
6
CONTINUOUS
10
122.85
20
16.75
11
122.15
21
16.75
0
LINE
8
BLACK
6
CONTINUOUS
10
122.15
20
16.75
11
122.15
21
16.29
0
LINE
8
BLACK
6
CONTINUOUS
10
122.15
20
16.29
11
119.65
21
16.29
0
LINE
8
BLACK
6
CONTINUOUS
10
52.5
20
17.88
11
50.1
21
17.88
0
LINE
8
BLACK
6
CONTINUOUS
10
50.1
20
17.88
11
50.1
21
18.35
0
LINE
8
BLACK
6
CONTINUOUS
10
50.1
20
18.35
11
49.45
21
18.35
0
LINE
8
BLACK
6
CONTINUOUS
10
49.45
20
18.35
11
49.45
21
19.85
0
LINE
8
BLACK
6
CONTINUOUS
10
49.45
20
19.85
11
50.1
21
19.85
0
LINE
8
BLACK
6
CONTINUOUS
10
50.1
20
19.85
11
50.1
21
20.28
0
LINE
8
BLACK
6
CONTINUOUS
10
50.1
20
20.28
11
52.5
21
20.28
0
LINE
8
BLACK
6
CONTINUOUS
10
52.5
20
20.28
11
52.5
21
17.88
0
LINE
8
BLACK
6
CONTINUOUS
10
109.5
20
18.88
11
107.1
21
18.88
0
LINE
8
BLACK
6
CONTINUOUS
10
107.1
20
18.88
11
107.1
21
19.35
0
LINE
8
BLACK
6
CONTINUOUS
10
107.1
20
19.35
11
106.45
21
19.35
0
LINE
8
BLACK
6
CONTINUOUS
10
106.45
20
19.35
11
106.45
21
20.85
0
LINE
8
BLACK
6
CONTINUOUS
10
106.45
20
20.85
11
107.1
21
20.85
0
LINE
8
BLACK
6
CONTINUOUS
10
107.1
20
20.85
11
107.1
21
21.28
0
LINE
8
BLACK
6
CONTINUOUS
10
107.1
20
21.28
11
109.5
21
21.28
0
LINE
8
BLACK
6
CONTINUOUS
10
109.5
20
21.28
11
109.5
21
18.88
0
LINE
8
BLACK
6
CONTINUOUS
10
36.1
20
19.1
11
34.3
21
19.1
0
LINE
8
BLACK
6
CONTINUOUS
10
34.3
20
19.1
11
34.3
21
21.1
0
LINE
8
BLACK
6
CONTINUOUS
10
34.3
20
21.1
11
36.1
21
21.1
0
LINE
8
BLACK
6
CONTINUOUS
10
36.1
20
21.1
11
36.1
21
19.1
0
LINE
8
BLACK
6
CONTINUOUS
10
74.1
20
19.1
11
72.3
21
19.1
0
LINE
8
BLACK
6
CONTINUOUS
10
72.3
20
19.1
11
72.3
21
21.1
0
LINE
8
BLACK
6
CONTINUOUS
10
72.3
20
21.1
11
74.1
21
21.1
0
LINE
8
BLACK
6
CONTINUOUS
10
74.1
20
21.1
11
74.1
21
19.1
0
LINE
8
BLACK
6
CONTINUOUS
10
5.65
20
20.29
11
5.65
21
22.79
0
LINE
8
BLACK
6
CONTINUOUS
10
5.65
20
22.79
11
8.15
21
22.79
0
LINE
8
BLACK
6
CONTINUOUS
10
8.15
20
22.79
11
8.15
21
22.25
0
LINE
8
BLACK
6
CONTINUOUS
10
8.15
20
22.25
11
8.85
21
22.25
0
LINE
8
BLACK
6
CONTINUOUS
10
8.85
20
22.25
11
8.85
21
20.75
0
LINE
8
BLACK
6
CONTINUOUS
10
8.85
20
20.75
11
8.15
21
20.75
0
LINE
8
BLACK
6
CONTINUOUS
10
8.15
20
20.75
11
8.15
21
20.29
0
LINE
8
BLACK
6
CONTINUOUS
10
8.15
20
20.29
11
5.65
21
20.29
0
LINE
8
BLACK
6
CONTINUOUS
10
24.65
20
20.29
11
24.65
21
22.79
0
LINE
8
BLACK
6
CONTINUOUS
10
24.65
20
22.79
11
27.15
21
22.79
0
LINE
8
BLACK
6
CONTINUOUS
10
27.15
20
22.79
11
27.15
21
22.25
0
LINE
8
BLACK
6
CONTINUOUS
10
27.15
20
22.25
11
27.85
21
22.25
0
LINE
8
BLACK
6
CONTINUOUS
10
27.85
20
22.25
11
27.85
21
20.75
0
LINE
8
BLACK
6
CONTINUOUS
10
27.85
20
20.75
11
27.15
21
20.75
0
LINE
8
BLACK
6
CONTINUOUS
10
27.15
20
20.75
11
27.15
21
20.29
0
LINE
8
BLACK
6
CONTINUOUS
10
27.15
20
20.29
11
24.65
21
20.29
0
LINE
8
BLACK
6
CONTINUOUS
10
100.65
20
20.29
11
100.65
21
22.79
0
LINE
8
BLACK
6
CONTINUOUS
10
100.65
20
22.79
11
103.15
21
22.79
0
LINE
8
BLACK
6
CONTINUOUS
10
103.15
20
22.79
11
103.15
21
22.25
0
LINE
8
BLACK
6
CONTINUOUS
10
103.15
20
22.25
11
103.85
21
22.25
0
LINE
8
BLACK
6
CONTINUOUS
10
103.85
20
22.25
11
103.85
21
20.75
0
LINE
8
BLACK
6
CONTINUOUS
10
103.85
20
20.75
11
103.15
21
20.75
0
LINE
8
BLACK
6
CONTINUOUS
10
103.15
20
20.75
11
103.15
21
20.29
0
LINE
8
BLACK
6
CONTINUOUS
10
103.15
20
20.29
11
100.65
21
20.29
0
LINE
8
BLACK
6
CONTINUOUS
10
85.1
20
21.3
11
83.1
21
21.3
0
LINE
8
BLACK
6
CONTINUOUS
10
83.1
20
21.3
11
83.1
21
23.3
0
LINE
8
BLACK
6
CONTINUOUS
10
83.1
20
23.3
11
85.1
21
23.3
0
LINE
8
BLACK
6
CONTINUOUS
10
85.1
20
23.3
11
85.1
21
21.3
0
LINE
8
BLACK
6
CONTINUOUS
10
47.1
20
21.3
11
45.1
21
21.3
0
LINE
8
BLACK
6
CONTINUOUS
10
45.1
20
21.3
11
45.1
21
23.3
0
LINE
8
BLACK
6
CONTINUOUS
10
45.1
20
23.3
11
47.1
21
23.3
0
LINE
8
BLACK
6
CONTINUOUS
10
47.1
20
23.3
11
47.1
21
21.3
0
LINE
8
BLACK
6
CONTINUOUS
10
-4.5
20
22.88
11
-6.9
21
22.88
0
LINE
8
BLACK
6
CONTINUOUS
10
-6.9
20
22.88
11
-6.9
21
23.35
0
LINE
8
BLACK
6
CONTINUOUS
10
-6.9
20
23.35
11
-7.55
21
23.35
0
LINE
8
BLACK
6
CONTINUOUS
10
-7.55
20
23.35
11
-7.55
21
24.85
0
LINE
8
BLACK
6
CONTINUOUS
10
-7.55
20
24.85
11
-6.9
21
24.85
0
LINE
8
BLACK
6
CONTINUOUS
10
-6.9
20
24.85
11
-6.9
21
25.28
0
LINE
8
BLACK
6
CONTINUOUS
10
-6.9
20
25.28
11
-4.5
21
25.28
0
LINE
8
BLACK
6
CONTINUOUS
10
-4.5
20
25.28
11
-4.5
21
22.88
0
LINE
8
BLACK
6
CONTINUOUS
10
90.5
20
22.88
11
88.1
21
22.88
0
LINE
8
BLACK
6
CONTINUOUS
10
88.1
20
22.88
11
88.1
21
23.35
0
LINE
8
BLACK
6
CONTINUOUS
10
88.1
20
23.35
11
87.45
21
23.35
0
LINE
8
BLACK
6
CONTINUOUS
10
87.45
20
23.35
11
87.45
21
24.85
0
LINE
8
BLACK
6
CONTINUOUS
10
87.45
20
24.85
11
88.1
21
24.85
0
LINE
8
BLACK
6
CONTINUOUS
10
88.1
20
24.85
11
88.1
21
25.28
0
LINE
8
BLACK
6
CONTINUOUS
10
88.1
20
25.28
11
90.5
21
25.28
0
LINE
8
BLACK
6
CONTINUOUS
10
90.5
20
25.28
11
90.5
21
22.88
0
LINE
8
BLACK
6
CONTINUOUS
10
14.5
20
22.88
11
12.1
21
22.88
0
LINE
8
BLACK
6
CONTINUOUS
10
12.1
20
22.88
11
12.1
21
23.35
0
LINE
8
BLACK
6
CONTINUOUS
10
12.1
20
23.35
11
11.45
21
23.35
0
LINE
8
BLACK
6
CONTINUOUS
10
11.45
20
23.35
11
11.45
21
24.85
0
LINE
8
BLACK
6
CONTINUOUS
10
11.45
20
24.85
11
12.1
21
24.85
0
LINE
8
BLACK
6
CONTINUOUS
10
12.1
20
24.85
11
12.1
21
25.28
0
LINE
8
BLACK
6
CONTINUOUS
10
12.1
20
25.28
11
14.5
21
25.28
0
LINE
8
BLACK
6
CONTINUOUS
10
14.5
20
25.28
11
14.5
21
22.88
0
LINE
8
BLACK
6
CONTINUOUS
10
55.1
20
26.1
11
53.3
21
26.1
0
LINE
8
BLACK
6
CONTINUOUS
10
53.3
20
26.1
11
53.3
21
28.1
0
LINE
8
BLACK
6
CONTINUOUS
10
53.3
20
28.1
11
55.1
21
28.1
0
LINE
8
BLACK
6
CONTINUOUS
10
55.1
20
28.1
11
55.1
21
26.1
0
LINE
8
BLACK
6
CONTINUOUS
10
43.65
20
27.29
11
43.65
21
29.79
0
LINE
8
BLACK
6
CONTINUOUS
10
43.65
20
29.79
11
46.15
21
29.79
0
LINE
8
BLACK
6
CONTINUOUS
10
46.15
20
29.79
11
46.15
21
29.25
0
LINE
8
BLACK
6
CONTINUOUS
10
46.15
20
29.25
11
46.85
21
29.25
0
LINE
8
BLACK
6
CONTINUOUS
10
46.85
20
29.25
11
46.85
21
27.75
0
LINE
8
BLACK
6
CONTINUOUS
10
46.85
20
27.75
11
46.15
21
27.75
0
LINE
8
BLACK
6
CONTINUOUS
10
46.15
20
27.75
11
46.15
21
27.29
0
LINE
8
BLACK
6
CONTINUOUS
10
46.15
20
27.29
11
43.65
21
27.29
0
LINE
8
BLACK
6
CONTINUOUS
10
81.65
20
27.29
11
81.65
21
29.79
0
LINE
8
BLACK
6
CONTINUOUS
10
81.65
20
29.79
11
84.15
21
29.79
0
LINE
8
BLACK
6
CONTINUOUS
10
84.15
20
29.79
11
84.15
21
29.25
0
LINE
8
BLACK
6
CONTINUOUS
10
84.15
20
29.25
11
84.85
21
29.25
0
LINE
8
BLACK
6
CONTINUOUS
10
84.85
20
29.25
11
84.85
21
27.75
0
LINE
8
BLACK
6
CONTINUOUS
10
84.85
20
27.75
11
84.15
21
27.75
0
LINE
8
BLACK
6
CONTINUOUS
10
84.15
20
27.75
11
84.15
21
27.29
0
LINE
8
BLACK
6
CONTINUOUS
10
84.15
20
27.29
11
81.65
21
27.29
0
LINE
8
BLACK
6
CONTINUOUS
10
66.1
20
28.3
11
64.1
21
28.3
0
LINE
8
BLACK
6
CONTINUOUS
10
64.1
20
28.3
11
64.1
21
30.3
0
LINE
8
BLACK
6
CONTINUOUS
10
64.1
20
30.3
11
66.1
21
30.3
0
LINE
8
BLACK
6
CONTINUOUS
10
66.1
20
30.3
11
66.1
21
28.3
0
LINE
8
BLACK
6
CONTINUOUS
10
33.5
20
29.88
11
31.1
21
29.88
0
LINE
8
BLACK
6
CONTINUOUS
10
31.1
20
29.88
11
31.1
21
30.35
0
LINE
8
BLACK
6
CONTINUOUS
10
31.1
20
30.35
11
30.45
21
30.35
0
LINE
8
BLACK
6
CONTINUOUS
10
30.45
20
30.35
11
30.45
21
31.85
0
LINE
8
BLACK
6
CONTINUOUS
10
30.45
20
31.85
11
31.1
21
31.85
0
LINE
8
BLACK
6
CONTINUOUS
10
31.1
20
31.85
11
31.1
21
32.28
0
LINE
8
BLACK
6
CONTINUOUS
10
31.1
20
32.28
11
33.5
21
32.28
0
LINE
8
BLACK
6
CONTINUOUS
10
33.5
20
32.28
11
33.5
21
29.88
0
LINE
8
BLACK
6
CONTINUOUS
10
71.5
20
29.88
11
69.1
21
29.88
0
LINE
8
BLACK
6
CONTINUOUS
10
69.1
20
29.88
11
69.1
21
30.35
0
LINE
8
BLACK
6
CONTINUOUS
10
69.1
20
30.35
11
68.45
21
30.35
0
LINE
8
BLACK
6
CONTINUOUS
10
68.45
20
30.35
11
68.45
21
31.85
0
LINE
8
BLACK
6
CONTINUOUS
10
68.45
20
31.85
11
69.1
21
31.85
0
LINE
8
BLACK
6
CONTINUOUS
10
69.1
20
31.85
11
69.1
21
32.28
0
LINE
8
BLACK
6
CONTINUOUS
10
69.1
20
32.28
11
71.5
21
32.28
0
LINE
8
BLACK
6
CONTINUOUS
10
71.5
20
32.28
11
71.5
21
29.88
0
LINE
8
BLACK
6
CONTINUOUS
10
93.1
20
31.1
11
91.3
21
31.1
0
LINE
8
BLACK
6
CONTINUOUS
10
91.3
20
31.1
11
91.3
21
33.1
0
LINE
8
BLACK
6
CONTINUOUS
10
91.3
20
33.1
11
93.1
21
33.1
0
LINE
8
BLACK
6
CONTINUOUS
10
93.1
20
33.1
11
93.1
21
31.1
0
LINE
8
BLACK
6
CONTINUOUS
10
17.1
20
31.1
11
15.3
21
31.1
0
LINE
8
BLACK
6
CONTINUOUS
10
15.3
20
31.1
11
15.3
21
33.1
0
LINE
8
BLACK
6
CONTINUOUS
10
15.3
20
33.1
11
17.1
21
33.1
0
LINE
8
BLACK
6
CONTINUOUS
10
17.1
20
33.1
11
17.1
21
31.1
0
LINE
8
BLACK
6
CONTINUOUS
10
-1.9
20
31.1
11
-3.7
21
31.1
0
LINE
8
BLACK
6
CONTINUOUS
10
-3.7
20
31.1
11
-3.7
21
33.1
0
LINE
8
BLACK
6
CONTINUOUS
10
-3.7
20
33.1
11
-1.9
21
33.1
0
LINE
8
BLACK
6
CONTINUOUS
10
-1.9
20
33.1
11
-1.9
21
31.1
0
LINE
8
BLACK
6
CONTINUOUS
10
9.1
20
33.3
11
7.1
21
33.3
0
LINE
8
BLACK
6
CONTINUOUS
10
7.1
20
33.3
11
7.1
21
35.3
0
LINE
8
BLACK
6
CONTINUOUS
10
7.1
20
35.3
11
9.1
21
35.3
0
LINE
8
BLACK
6
CONTINUOUS
10
9.1
20
35.3
11
9.1
21
33.3
0
LINE
8
BLACK
6
CONTINUOUS
10
28.1
20
33.3
11
26.1
21
33.3
0
LINE
8
BLACK
6
CONTINUOUS
10
26.1
20
33.3
11
26.1
21
35.3
0
LINE
8
BLACK
6
CONTINUOUS
10
26.1
20
35.3
11
28.1
21
35.3
0
LINE
8
BLACK
6
CONTINUOUS
10
28.1
20
35.3
11
28.1
21
33.3
0
LINE
8
BLACK
6
CONTINUOUS
10
104.1
20
33.3
11
102.1
21
33.3
0
LINE
8
BLACK
6
CONTINUOUS
10
102.1
20
33.3
11
102.1
21
35.3
0
LINE
8
BLACK
6
CONTINUOUS
10
102.1
20
35.3
11
104.1
21
35.3
0
LINE
8
BLACK
6
CONTINUOUS
10
104.1
20
35.3
11
104.1
21
33.3
0
LINE
8
BLACK
6
CONTINUOUS
10
62.65
20
34.29
11
62.65
21
36.79
0
LINE
8
BLACK
6
CONTINUOUS
10
62.65
20
36.79
11
65.15
21
36.79
0
LINE
8
BLACK
6
CONTINUOUS
10
65.15
20
36.79
11
65.15
21
36.25
0
LINE
8
BLACK
6
CONTINUOUS
10
65.15
20
36.25
11
65.85
21
36.25
0
LINE
8
BLACK
6
CONTINUOUS
10
65.85
20
36.25
11
65.85
21
34.75
0
LINE
8
BLACK
6
CONTINUOUS
10
65.85
20
34.75
11
65.15
21
34.75
0
LINE
8
BLACK
6
CONTINUOUS
10
65.15
20
34.75
11
65.15
21
34.29
0
LINE
8
BLACK
6
CONTINUOUS
10
65.15
20
34.29
11
62.65
21
34.29
0
LINE
8
BLACK
6
CONTINUOUS
10
52.5
20
36.88
11
50.1
21
36.88
0
LINE
8
BLACK
6
CONTINUOUS
10
50.1
20
36.88
11
50.1
21
37.35
0
LINE
8
BLACK
6
CONTINUOUS
10
50.1
20
37.35
11
49.45
21
37.35
0
LINE
8
BLACK
6
CONTINUOUS
10
49.45
20
37.35
11
49.45
21
38.85
0
LINE
8
BLACK
6
CONTINUOUS
10
49.45
20
38.85
11
50.1
21
38.85
0
LINE
8
BLACK
6
CONTINUOUS
10
50.1
20
38.85
11
50.1
21
39.28
0
LINE
8
BLACK
6
CONTINUOUS
10
50.1
20
39.28
11
52.5
21
39.28
0
LINE
8
BLACK
6
CONTINUOUS
10
52.5
20
39.28
11
52.5
21
36.88
0
LINE
8
BLACK
6
CONTINUOUS
10
74.1
20
38.1
11
72.3
21
38.1
0
LINE
8
BLACK
6
CONTINUOUS
10
72.3
20
38.1
11
72.3
21
40.1
0
LINE
8
BLACK
6
CONTINUOUS
10
72.3
20
40.1
11
74.1
21
40.1
0
LINE
8
BLACK
6
CONTINUOUS
10
74.1
20
40.1
11
74.1
21
38.1
0
LINE
8
BLACK
6
CONTINUOUS
10
36.1
20
38.1
11
34.3
21
38.1
0
LINE
8
BLACK
6
CONTINUOUS
10
34.3
20
38.1
11
34.3
21
40.1
0
LINE
8
BLACK
6
CONTINUOUS
10
34.3
20
40.1
11
36.1
21
40.1
0
LINE
8
BLACK
6
CONTINUOUS
10
36.1
20
40.1
11
36.1
21
38.1
0
LINE
8
BLACK
6
CONTINUOUS
10
5.65
20
39.29
11
5.65
21
41.79
0
LINE
8
BLACK
6
CONTINUOUS
10
5.65
20
41.79
11
8.15
21
41.79
0
LINE
8
BLACK
6
CONTINUOUS
10
8.15
20
41.79
11
8.15
21
41.25
0
LINE
8
BLACK
6
CONTINUOUS
10
8.15
20
41.25
11
8.85
21
41.25
0
LINE
8
BLACK
6
CONTINUOUS
10
8.85
20
41.25
11
8.85
21
39.75
0
LINE
8
BLACK
6
CONTINUOUS
10
8.85
20
39.75
11
8.15
21
39.75
0
LINE
8
BLACK
6
CONTINUOUS
10
8.15
20
39.75
11
8.15
21
39.29
0
LINE
8
BLACK
6
CONTINUOUS
10
8.15
20
39.29
11
5.65
21
39.29
0
LINE
8
BLACK
6
CONTINUOUS
10
24.65
20
39.29
11
24.65
21
41.79
0
LINE
8
BLACK
6
CONTINUOUS
10
24.65
20
41.79
11
27.15
21
41.79
0
LINE
8
BLACK
6
CONTINUOUS
10
27.15
20
41.79
11
27.15
21
41.25
0
LINE
8
BLACK
6
CONTINUOUS
10
27.15
20
41.25
11
27.85
21
41.25
0
LINE
8
BLACK
6
CONTINUOUS
10
27.85
20
41.25
11
27.85
21
39.75
0
LINE
8
BLACK
6
CONTINUOUS
10
27.85
20
39.75
11
27.15
21
39.75
0
LINE
8
BLACK
6
CONTINUOUS
10
27.15
20
39.75
11
27.15
21
39.29
0
LINE
8
BLACK
6
CONTINUOUS
10
27.15
20
39.29
11
24.65
21
39.29
0
LINE
8
BLACK
6
CONTINUOUS
10
100.65
20
39.29
11
100.65
21
41.79
0
LINE
8
BLACK
6
CONTINUOUS
10
100.65
20
41.79
11
103.15
21
41.79
0
LINE
8
BLACK
6
CONTINUOUS
10
103.15
20
41.79
11
103.15
21
41.25
0
LINE
8
BLACK
6
CONTINUOUS
10
103.15
20
41.25
11
103.85
21
41.25
0
LINE
8
BLACK
6
CONTINUOUS
10
103.85
20
41.25
11
103.85
21
39.75
0
LINE
8
BLACK
6
CONTINUOUS
10
103.85
20
39.75
11
103.15
21
39.75
0
LINE
8
BLACK
6
CONTINUOUS
10
103.15
20
39.75
11
103.15
21
39.29
0
LINE
8
BLACK
6
CONTINUOUS
10
103.15
20
39.29
11
100.65
21
39.29
0
LINE
8
BLACK
6
CONTINUOUS
10
47.1
20
40.3
11
45.1
21
40.3
0
LINE
8
BLACK
6
CONTINUOUS
10
45.1
20
40.3
11
45.1
21
42.3
0
LINE
8
BLACK
6
CONTINUOUS
10
45.1
20
42.3
11
47.1
21
42.3
0
LINE
8
BLACK
6
CONTINUOUS
10
47.1
20
42.3
11
47.1
21
40.3
0
LINE
8
BLACK
6
CONTINUOUS
10
85.1
20
40.3
11
83.1
21
40.3
0
LINE
8
BLACK
6
CONTINUOUS
10
83.1
20
40.3
11
83.1
21
42.3
0
LINE
8
BLACK
6
CONTINUOUS
10
83.1
20
42.3
11
85.1
21
42.3
0
LINE
8
BLACK
6
CONTINUOUS
10
85.1
20
42.3
11
85.1
21
40.3
0
LINE
8
BLACK
6
CONTINUOUS
10
90.5
20
41.88
11
88.1
21
41.88
0
LINE
8
BLACK
6
CONTINUOUS
10
88.1
20
41.88
11
88.1
21
42.35
0
LINE
8
BLACK
6
CONTINUOUS
10
88.1
20
42.35
11
87.45
21
42.35
0
LINE
8
BLACK
6
CONTINUOUS
10
87.45
20
42.35
11
87.45
21
43.85
0
LINE
8
BLACK
6
CONTINUOUS
10
87.45
20
43.85
11
88.1
21
43.85
0
LINE
8
BLACK
6
CONTINUOUS
10
88.1
20
43.85
11
88.1
21
44.28
0
LINE
8
BLACK
6
CONTINUOUS
10
88.1
20
44.28
11
90.5
21
44.28
0
LINE
8
BLACK
6
CONTINUOUS
10
90.5
20
44.28
11
90.5
21
41.88
0
LINE
8
BLACK
6
CONTINUOUS
10
-4.5
20
41.88
11
-6.9
21
41.88
0
LINE
8
BLACK
6
CONTINUOUS
10
-6.9
20
41.88
11
-6.9
21
42.35
0
LINE
8
BLACK
6
CONTINUOUS
10
-6.9
20
42.35
11
-7.55
21
42.35
0
LINE
8
BLACK
6
CONTINUOUS
10
-7.55
20
42.35
11
-7.55
21
43.85
0
LINE
8
BLACK
6
CONTINUOUS
10
-7.55
20
43.85
11
-6.9
21
43.85
0
LINE
8
BLACK
6
CONTINUOUS
10
-6.9
20
43.85
11
-6.9
21
44.28
0
LINE
8
BLACK
6
CONTINUOUS
10
-6.9
20
44.28
11
-4.5
21
44.28
0
LINE
8
BLACK
6
CONTINUOUS
10
-4.5
20
44.28
11
-4.5
21
41.88
0
LINE
8
BLACK
6
CONTINUOUS
10
14.5
20
41.88
11
12.1
21
41.88
0
LINE
8
BLACK
6
CONTINUOUS
10
12.1
20
41.88
11
12.1
21
42.35
0
LINE
8
BLACK
6
CONTINUOUS
10
12.1
20
42.35
11
11.45
21
42.35
0
LINE
8
BLACK
6
CONTINUOUS
10
11.45
20
42.35
11
11.45
21
43.85
0
LINE
8
BLACK
6
CONTINUOUS
10
11.45
20
43.85
11
12.1
21
43.85
0
LINE
8
BLACK
6
CONTINUOUS
10
12.1
20
43.85
11
12.1
21
44.28
0
LINE
8
BLACK
6
CONTINUOUS
10
12.1
20
44.28
11
14.5
21
44.28
0
LINE
8
BLACK
6
CONTINUOUS
10
14.5
20
44.28
11
14.5
21
41.88
0
LINE
8
BLACK
6
CONTINUOUS
10
55.1
20
45.1
11
53.3
21
45.1
0
LINE
8
BLACK
6
CONTINUOUS
10
53.3
20
45.1
11
53.3
21
47.1
0
LINE
8
BLACK
6
CONTINUOUS
10
53.3
20
47.1
11
55.1
21
47.1
0
LINE
8
BLACK
6
CONTINUOUS
10
55.1
20
47.1
11
55.1
21
45.1
0
LINE
8
BLACK
6
CONTINUOUS
10
81.65
20
46.29
11
81.65
21
48.79
0
LINE
8
BLACK
6
CONTINUOUS
10
81.65
20
48.79
11
84.15
21
48.79
0
LINE
8
BLACK
6
CONTINUOUS
10
84.15
20
48.79
11
84.15
21
48.25
0
LINE
8
BLACK
6
CONTINUOUS
10
84.15
20
48.25
11
84.85
21
48.25
0
LINE
8
BLACK
6
CONTINUOUS
10
84.85
20
48.25
11
84.85
21
46.75
0
LINE
8
BLACK
6
CONTINUOUS
10
84.85
20
46.75
11
84.15
21
46.75
0
LINE
8
BLACK
6
CONTINUOUS
10
84.15
20
46.75
11
84.15
21
46.29
0
LINE
8
BLACK
6
CONTINUOUS
10
84.15
20
46.29
11
81.65
21
46.29
0
LINE
8
BLACK
6
CONTINUOUS
10
43.65
20
46.29
11
43.65
21
48.79
0
LINE
8
BLACK
6
CONTINUOUS
10
43.65
20
48.79
11
46.15
21
48.79
0
LINE
8
BLACK
6
CONTINUOUS
10
46.15
20
48.79
11
46.15
21
48.25
0
LINE
8
BLACK
6
CONTINUOUS
10
46.15
20
48.25
11
46.85
21
48.25
0
LINE
8
BLACK
6
CONTINUOUS
10
46.85
20
48.25
11
46.85
21
46.75
0
LINE
8
BLACK
6
CONTINUOUS
10
46.85
20
46.75
11
46.15
21
46.75
0
LINE
8
BLACK
6
CONTINUOUS
10
46.15
20
46.75
11
46.15
21
46.29
0
LINE
8
BLACK
6
CONTINUOUS
10
46.15
20
46.29
11
43.65
21
46.29
0
LINE
8
BLACK
6
CONTINUOUS
10
66.1
20
47.3
11
64.1
21
47.3
0
LINE
8
BLACK
6
CONTINUOUS
10
64.1
20
47.3
11
64.1
21
49.3
0
LINE
8
BLACK
6
CONTINUOUS
10
64.1
20
49.3
11
66.1
21
49.3
0
LINE
8
BLACK
6
CONTINUOUS
10
66.1
20
49.3
11
66.1
21
47.3
0
LINE
8
BLACK
6
CONTINUOUS
10
33.5
20
48.88
11
31.1
21
48.88
0
LINE
8
BLACK
6
CONTINUOUS
10
31.1
20
48.88
11
31.1
21
49.35
0
LINE
8
BLACK
6
CONTINUOUS
10
31.1
20
49.35
11
30.45
21
49.35
0
LINE
8
BLACK
6
CONTINUOUS
10
30.45
20
49.35
11
30.45
21
50.85
0
LINE
8
BLACK
6
CONTINUOUS
10
30.45
20
50.85
11
31.1
21
50.85
0
LINE
8
BLACK
6
CONTINUOUS
10
31.1
20
50.85
11
31.1
21
51.28
0
LINE
8
BLACK
6
CONTINUOUS
10
31.1
20
51.28
11
33.5
21
51.28
0
LINE
8
BLACK
6
CONTINUOUS
10
33.5
20
51.28
11
33.5
21
48.88
0
LINE
8
BLACK
6
CONTINUOUS
10
71.5
20
48.88
11
69.1
21
48.88
0
LINE
8
BLACK
6
CONTINUOUS
10
69.1
20
48.88
11
69.1
21
49.35
0
LINE
8
BLACK
6
CONTINUOUS
10
69.1
20
49.35
11
68.45
21
49.35
0
LINE
8
BLACK
6
CONTINUOUS
10
68.45
20
49.35
11
68.45
21
50.85
0
LINE
8
BLACK
6
CONTINUOUS
10
68.45
20
50.85
11
69.1
21
50.85
0
LINE
8
BLACK
6
CONTINUOUS
10
69.1
20
50.85
11
69.1
21
51.28
0
LINE
8
BLACK
6
CONTINUOUS
10
69.1
20
51.28
11
71.5
21
51.28
0
LINE
8
BLACK
6
CONTINUOUS
10
71.5
20
51.28
11
71.5
21
48.88
0
LINE
8
BLACK
6
CONTINUOUS
10
17.1
20
50.1
11
15.3
21
50.1
0
LINE
8
BLACK
6
CONTINUOUS
10
15.3
20
50.1
11
15.3
21
52.1
0
LINE
8
BLACK
6
CONTINUOUS
10
15.3
20
52.1
11
17.1
21
52.1
0
LINE
8
BLACK
6
CONTINUOUS
10
17.1
20
52.1
11
17.1
21
50.1
0
LINE
8
BLACK
6
CONTINUOUS
10
93.1
20
50.1
11
91.3
21
50.1
0
LINE
8
BLACK
6
CONTINUOUS
10
91.3
20
50.1
11
91.3
21
52.1
0
LINE
8
BLACK
6
CONTINUOUS
10
91.3
20
52.1
11
93.1
21
52.1
0
LINE
8
BLACK
6
CONTINUOUS
10
93.1
20
52.1
11
93.1
21
50.1
0
LINE
8
BLACK
6
CONTINUOUS
10
-1.9
20
50.1
11
-3.7
21
50.1
0
LINE
8
BLACK
6
CONTINUOUS
10
-3.7
20
50.1
11
-3.7
21
52.1
0
LINE
8
BLACK
6
CONTINUOUS
10
-3.7
20
52.1
11
-1.9
21
52.1
0
LINE
8
BLACK
6
CONTINUOUS
10
-1.9
20
52.1
11
-1.9
21
50.1
0
LINE
8
BLACK
6
CONTINUOUS
10
28.1
20
52.3
11
26.1
21
52.3
0
LINE
8
BLACK
6
CONTINUOUS
10
26.1
20
52.3
11
26.1
21
54.3
0
LINE
8
BLACK
6
CONTINUOUS
10
26.1
20
54.3
11
28.1
21
54.3
0
LINE
8
BLACK
6
CONTINUOUS
10
28.1
20
54.3
11
28.1
21
52.3
0
LINE
8
BLACK
6
CONTINUOUS
10
104.1
20
52.3
11
102.1
21
52.3
0
LINE
8
BLACK
6
CONTINUOUS
10
102.1
20
52.3
11
102.1
21
54.3
0
LINE
8
BLACK
6
CONTINUOUS
10
102.1
20
54.3
11
104.1
21
54.3
0
LINE
8
BLACK
6
CONTINUOUS
10
104.1
20
54.3
11
104.1
21
52.3
0
LINE
8
BLACK
6
CONTINUOUS
10
9.1
20
52.3
11
7.1
21
52.3
0
LINE
8
BLACK
6
CONTINUOUS
10
7.1
20
52.3
11
7.1
21
54.3
0
LINE
8
BLACK
6
CONTINUOUS
10
7.1
20
54.3
11
9.1
21
54.3
0
LINE
8
BLACK
6
CONTINUOUS
10
9.1
20
54.3
11
9.1
21
52.3
0
LINE
8
BLACK
6
CONTINUOUS
10
62.65
20
53.29
11
62.65
21
55.79
0
LINE
8
BLACK
6
CONTINUOUS
10
62.65
20
55.79
11
65.15
21
55.79
0
LINE
8
BLACK
6
CONTINUOUS
10
65.15
20
55.79
11
65.15
21
55.25
0
LINE
8
BLACK
6
CONTINUOUS
10
65.15
20
55.25
11
65.85
21
55.25
0
LINE
8
BLACK
6
CONTINUOUS
10
65.85
20
55.25
11
65.85
21
53.75
0
LINE
8
BLACK
6
CONTINUOUS
10
65.85
20
53.75
11
65.15
21
53.75
0
LINE
8
BLACK
6
CONTINUOUS
10
65.15
20
53.75
11
65.15
21
53.29
0
LINE
8
BLACK
6
CONTINUOUS
10
65.15
20
53.29
11
62.65
21
53.29
0
LINE
8
BLACK
6
CONTINUOUS
10
52.5
20
55.88
11
50.1
21
55.88
0
LINE
8
BLACK
6
CONTINUOUS
10
50.1
20
55.88
11
50.1
21
56.35
0
LINE
8
BLACK
6
CONTINUOUS
10
50.1
20
56.35
11
49.45
21
56.35
0
LINE
8
BLACK
6
CONTINUOUS
10
49.45
20
56.35
11
49.45
21
57.85
0
LINE
8
BLACK
6
CONTINUOUS
10
49.45
20
57.85
11
50.1
21
57.85
0
LINE
8
BLACK
6
CONTINUOUS
10
50.1
20
57.85
11
50.1
21
58.28
0
LINE
8
BLACK
6
CONTINUOUS
10
50.1
20
58.28
11
52.5
21
58.28
0
LINE
8
BLACK
6
CONTINUOUS
10
52.5
20
58.28
11
52.5
21
55.88
0
LINE
8
BLACK
6
CONTINUOUS
10
36.1
20
57.1
11
34.3
21
57.1
0
LINE
8
BLACK
6
CONTINUOUS
10
34.3
20
57.1
11
34.3
21
59.1
0
LINE
8
BLACK
6
CONTINUOUS
10
34.3
20
59.1
11
36.1
21
59.1
0
LINE
8
BLACK
6
CONTINUOUS
10
36.1
20
59.1
11
36.1
21
57.1
0
LINE
8
BLACK
6
CONTINUOUS
10
74.1
20
57.1
11
72.3
21
57.1
0
LINE
8
BLACK
6
CONTINUOUS
10
72.3
20
57.1
11
72.3
21
59.1
0
LINE
8
BLACK
6
CONTINUOUS
10
72.3
20
59.1
11
74.1
21
59.1
0
LINE
8
BLACK
6
CONTINUOUS
10
74.1
20
59.1
11
74.1
21
57.1
0
LINE
8
BLACK
6
CONTINUOUS
10
24.65
20
58.29
11
24.65
21
60.79
0
LINE
8
BLACK
6
CONTINUOUS
10
24.65
20
60.79
11
27.15
21
60.79
0
LINE
8
BLACK
6
CONTINUOUS
10
27.15
20
60.79
11
27.15
21
60.25
0
LINE
8
BLACK
6
CONTINUOUS
10
27.15
20
60.25
11
27.85
21
60.25
0
LINE
8
BLACK
6
CONTINUOUS
10
27.85
20
60.25
11
27.85
21
58.75
0
LINE
8
BLACK
6
CONTINUOUS
10
27.85
20
58.75
11
27.15
21
58.75
0
LINE
8
BLACK
6
CONTINUOUS
10
27.15
20
58.75
11
27.15
21
58.29
0
LINE
8
BLACK
6
CONTINUOUS
10
27.15
20
58.29
11
24.65
21
58.29
0
LINE
8
BLACK
6
CONTINUOUS
10
100.65
20
58.29
11
100.65
21
60.79
0
LINE
8
BLACK
6
CONTINUOUS
10
100.65
20
60.79
11
103.15
21
60.79
0
LINE
8
BLACK
6
CONTINUOUS
10
103.15
20
60.79
11
103.15
21
60.25
0
LINE
8
BLACK
6
CONTINUOUS
10
103.15
20
60.25
11
103.85
21
60.25
0
LINE
8
BLACK
6
CONTINUOUS
10
103.85
20
60.25
11
103.85
21
58.75
0
LINE
8
BLACK
6
CONTINUOUS
10
103.85
20
58.75
11
103.15
21
58.75
0
LINE
8
BLACK
6
CONTINUOUS
10
103.15
20
58.75
11
103.15
21
58.29
0
LINE
8
BLACK
6
CONTINUOUS
10
103.15
20
58.29
11
100.65
21
58.29
0
LINE
8
BLACK
6
CONTINUOUS
10
5.65
20
58.29
11
5.65
21
60.79
0
LINE
8
BLACK
6
CONTINUOUS
10
5.65
20
60.79
11
8.15
21
60.79
0
LINE
8
BLACK
6
CONTINUOUS
10
8.15
20
60.79
11
8.15
21
60.25
0
LINE
8
BLACK
6
CONTINUOUS
10
8.15
20
60.25
11
8.85
21
60.25
0
LINE
8
BLACK
6
CONTINUOUS
10
8.85
20
60.25
11
8.85
21
58.75
0
LINE
8
BLACK
6
CONTINUOUS
10
8.85
20
58.75
11
8.15
21
58.75
0
LINE
8
BLACK
6
CONTINUOUS
10
8.15
20
58.75
11
8.15
21
58.29
0
LINE
8
BLACK
6
CONTINUOUS
10
8.15
20
58.29
11
5.65
21
58.29
0
LINE
8
BLACK
6
CONTINUOUS
10
47.1
20
59.3
11
45.1
21
59.3
0
LINE
8
BLACK
6
CONTINUOUS
10
45.1
20
59.3
11
45.1
21
61.3
0
LINE
8
BLACK
6
CONTINUOUS
10
45.1
20
61.3
11
47.1
21
61.3
0
LINE
8
BLACK
6
CONTINUOUS
10
47.1
20
61.3
11
47.1
21
59.3
0
LINE
8
BLACK
6
CONTINUOUS
10
85.1
20
59.3
11
83.1
21
59.3
0
LINE
8
BLACK
6
CONTINUOUS
10
83.1
20
59.3
11
83.1
21
61.3
0
LINE
8
BLACK
6
CONTINUOUS
10
83.1
20
61.3
11
85.1
21
61.3
0
LINE
8
BLACK
6
CONTINUOUS
10
85.1
20
61.3
11
85.1
21
59.3
0
LINE
8
BLACK
6
CONTINUOUS
10
-4.5
20
60.88
11
-6.9
21
60.88
0
LINE
8
BLACK
6
CONTINUOUS
10
-6.9
20
60.88
11
-6.9
21
61.35
0
LINE
8
BLACK
6
CONTINUOUS
10
-6.9
20
61.35
11
-7.55
21
61.35
0
LINE
8
BLACK
6
CONTINUOUS
10
-7.55
20
61.35
11
-7.55
21
62.85
0
LINE
8
BLACK
6
CONTINUOUS
10
-7.55
20
62.85
11
-6.9
21
62.85
0
LINE
8
BLACK
6
CONTINUOUS
10
-6.9
20
62.85
11
-6.9
21
63.28
0
LINE
8
BLACK
6
CONTINUOUS
10
-6.9
20
63.28
11
-4.5
21
63.28
0
LINE
8
BLACK
6
CONTINUOUS
10
-4.5
20
63.28
11
-4.5
21
60.88
0
LINE
8
BLACK
6
CONTINUOUS
10
14.5
20
60.88
11
12.1
21
60.88
0
LINE
8
BLACK
6
CONTINUOUS
10
12.1
20
60.88
11
12.1
21
61.35
0
LINE
8
BLACK
6
CONTINUOUS
10
12.1
20
61.35
11
11.45
21
61.35
0
LINE
8
BLACK
6
CONTINUOUS
10
11.45
20
61.35
11
11.45
21
62.85
0
LINE
8
BLACK
6
CONTINUOUS
10
11.45
20
62.85
11
12.1
21
62.85
0
LINE
8
BLACK
6
CONTINUOUS
10
12.1
20
62.85
11
12.1
21
63.28
0
LINE
8
BLACK
6
CONTINUOUS
10
12.1
20
63.28
11
14.5
21
63.28
0
LINE
8
BLACK
6
CONTINUOUS
10
14.5
20
63.28
11
14.5
21
60.88
0
LINE
8
BLACK
6
CONTINUOUS
10
90.5
20
60.88
11
88.1
21
60.88
0
LINE
8
BLACK
6
CONTINUOUS
10
88.1
20
60.88
11
88.1
21
61.35
0
LINE
8
BLACK
6
CONTINUOUS
10
88.1
20
61.35
11
87.45
21
61.35
0
LINE
8
BLACK
6
CONTINUOUS
10
87.45
20
61.35
11
87.45
21
62.85
0
LINE
8
BLACK
6
CONTINUOUS
10
87.45
20
62.85
11
88.1
21
62.85
0
LINE
8
BLACK
6
CONTINUOUS
10
88.1
20
62.85
11
88.1
21
63.28
0
LINE
8
BLACK
6
CONTINUOUS
10
88.1
20
63.28
11
90.5
21
63.28
0
LINE
8
BLACK
6
CONTINUOUS
10
90.5
20
63.28
11
90.5
21
60.88
0
LINE
8
BLACK
6
CONTINUOUS
10
55.1
20
64.1
11
53.3
21
64.1
0
LINE
8
BLACK
6
CONTINUOUS
10
53.3
20
64.1
11
53.3
21
66.1
0
LINE
8
BLACK
6
CONTINUOUS
10
53.3
20
66.1
11
55.1
21
66.1
0
LINE
8
BLACK
6
CONTINUOUS
10
55.1
20
66.1
11
55.1
21
64.1
0
LINE
8
BLACK
6
CONTINUOUS
10
43.65
20
65.29
11
43.65
21
67.79
0
LINE
8
BLACK
6
CONTINUOUS
10
43.65
20
67.79
11
46.15
21
67.79
0
LINE
8
BLACK
6
CONTINUOUS
10
46.15
20
67.79
11
46.15
21
67.25
0
LINE
8
BLACK
6
CONTINUOUS
10
46.15
20
67.25
11
46.85
21
67.25
0
LINE
8
BLACK
6
CONTINUOUS
10
46.85
20
67.25
11
46.85
21
65.75
0
LINE
8
BLACK
6
CONTINUOUS
10
46.85
20
65.75
11
46.15
21
65.75
0
LINE
8
BLACK
6
CONTINUOUS
10
46.15
20
65.75
11
46.15
21
65.29
0
LINE
8
BLACK
6
CONTINUOUS
10
46.15
20
65.29
11
43.65
21
65.29
0
LINE
8
BLACK
6
CONTINUOUS
10
81.65
20
65.29
11
81.65
21
67.79
0
LINE
8
BLACK
6
CONTINUOUS
10
81.65
20
67.79
11
84.15
21
67.79
0
LINE
8
BLACK
6
CONTINUOUS
10
84.15
20
67.79
11
84.15
21
67.25
0
LINE
8
BLACK
6
CONTINUOUS
10
84.15
20
67.25
11
84.85
21
67.25
0
LINE
8
BLACK
6
CONTINUOUS
10
84.85
20
67.25
11
84.85
21
65.75
0
LINE
8
BLACK
6
CONTINUOUS
10
84.85
20
65.75
11
84.15
21
65.75
0
LINE
8
BLACK
6
CONTINUOUS
10
84.15
20
65.75
11
84.15
21
65.29
0
LINE
8
BLACK
6
CONTINUOUS
10
84.15
20
65.29
11
81.65
21
65.29
0
LINE
8
BLACK
6
CONTINUOUS
10
66.1
20
66.3
11
64.1
21
66.3
0
LINE
8
BLACK
6
CONTINUOUS
10
64.1
20
66.3
11
64.1
21
68.3
0
LINE
8
BLACK
6
CONTINUOUS
10
64.1
20
68.3
11
66.1
21
68.3
0
LINE
8
BLACK
6
CONTINUOUS
10
66.1
20
68.3
11
66.1
21
66.3
0
LINE
8
BLACK
6
CONTINUOUS
10
71.5
20
67.88
11
69.1
21
67.88
0
LINE
8
BLACK
6
CONTINUOUS
10
69.1
20
67.88
11
69.1
21
68.35
0
LINE
8
BLACK
6
CONTINUOUS
10
69.1
20
68.35
11
68.45
21
68.35
0
LINE
8
BLACK
6
CONTINUOUS
10
68.45
20
68.35
11
68.45
21
69.85
0
LINE
8
BLACK
6
CONTINUOUS
10
68.45
20
69.85
11
69.1
21
69.85
0
LINE
8
BLACK
6
CONTINUOUS
10
69.1
20
69.85
11
69.1
21
70.28
0
LINE
8
BLACK
6
CONTINUOUS
10
69.1
20
70.28
11
71.5
21
70.28
0
LINE
8
BLACK
6
CONTINUOUS
10
71.5
20
70.28
11
71.5
21
67.88
0
LINE
8
BLACK
6
CONTINUOUS
10
33.5
20
67.88
11
31.1
21
67.88
0
LINE
8
BLACK
6
CONTINUOUS
10
31.1
20
67.88
11
31.1
21
68.35
0
LINE
8
BLACK
6
CONTINUOUS
10
31.1
20
68.35
11
30.45
21
68.35
0
LINE
8
BLACK
6
CONTINUOUS
10
30.45
20
68.35
11
30.45
21
69.85
0
LINE
8
BLACK
6
CONTINUOUS
10
30.45
20
69.85
11
31.1
21
69.85
0
LINE
8
BLACK
6
CONTINUOUS
10
31.1
20
69.85
11
31.1
21
70.28
0
LINE
8
BLACK
6
CONTINUOUS
10
31.1
20
70.28
11
33.5
21
70.28
0
LINE
8
BLACK
6
CONTINUOUS
10
33.5
20
70.28
11
33.5
21
67.88
0
LINE
8
BLACK
6
CONTINUOUS
10
62.65
20
72.29
11
62.65
21
74.79
0
LINE
8
BLACK
6
CONTINUOUS
10
62.65
20
74.79
11
65.15
21
74.79
0
LINE
8
BLACK
6
CONTINUOUS
10
65.15
20
74.79
11
65.15
21
74.25
0
LINE
8
BLACK
6
CONTINUOUS
10
65.15
20
74.25
11
65.85
21
74.25
0
LINE
8
BLACK
6
CONTINUOUS
10
65.85
20
74.25
11
65.85
21
72.75
0
LINE
8
BLACK
6
CONTINUOUS
10
65.85
20
72.75
11
65.15
21
72.75
0
LINE
8
BLACK
6
CONTINUOUS
10
65.15
20
72.75
11
65.15
21
72.29
0
LINE
8
BLACK
6
CONTINUOUS
10
65.15
20
72.29
11
62.65
21
72.29
0
LINE
8
BLACK
6
CONTINUOUS
10
52.5
20
74.88
11
50.1
21
74.88
0
LINE
8
BLACK
6
CONTINUOUS
10
50.1
20
74.88
11
50.1
21
75.35
0
LINE
8
BLACK
6
CONTINUOUS
10
50.1
20
75.35
11
49.45
21
75.35
0
LINE
8
BLACK
6
CONTINUOUS
10
49.45
20
75.35
11
49.45
21
76.85
0
LINE
8
BLACK
6
CONTINUOUS
10
49.45
20
76.85
11
50.1
21
76.85
0
LINE
8
BLACK
6
CONTINUOUS
10
50.1
20
76.85
11
50.1
21
77.28
0
LINE
8
BLACK
6
CONTINUOUS
10
50.1
20
77.28
11
52.5
21
77.28
0
LINE
8
BLACK
6
CONTINUOUS
10
52.5
20
77.28
11
52.5
21
74.88
  0
ENDSEC
  0
EOF
