  0
SECTION
  2
HEADER
  9
$ANGBASE
  50
0.0
  9
$ANGDIR
  70
1
  9
$MEASUREMENT
  70
1
  0
ENDSEC
  0
SECTION
  2
TABLES
  0
TABLE
  2
LTYPE
  70
4
  0
LTYPE
  5
40F
  2
CONTINUOUS
  70
0
  3
Solid line
  72
65
  73
0
  40
0.0
  0
LTYPE
  5
410
  2
DASHDOT
 70
0
  3
Dash Dot ____ _ ____ _
 72
65
 73
4
 40
2.0
 49
1.25
 49
-0.25
 49
0.25
 49
-0.25
  0
LTYPE
  5
411
  2
DASHED
 70
0
  3
Dashed __ __ __ __ __
 72
65
 73
2
 40
0.75
 49
0.5
 49
-0.25
  0
LTYPE
  5
43B
  2
DOTTED
 70
0
  3
Dotted .  .  .  .
 72
65
 73
2
 40
0.2
 49
0.0
 49
-0.2
  0
ENDTAB
  0
TABLE
  2
STYLE
  70
4
  0
STYLE
  2
KICAD
  70
0
  40
0
  41
1
  42
1
  50
0
  71
0
  3
isocp.shx
  0
STYLE
  2
KICADB
  70
0
  40
0
  41
1
  42
1
  50
0
  71
0
  3
isocp.shx
  0
STYLE
  2
KICADI
  70
0
  40
0
  41
1
  42
1
  50
15
  71
0
  3
isocp.shx
  0
STYLE
  2
KICADBI
  70
0
  40
0
  41
1
  42
1
  50
15
  71
0
  3
isocp.shx
  0
ENDTAB
  0
TABLE
  2
LAYER
  70
1
  0
LAYER
  2
BLACK
  70
0
  62
7
  6
CONTINUOUS
  0
ENDTAB
  0
ENDSEC
  0
SECTION
  2
ENTITIES
0
LINE
8
BLACK
6
CONTINUOUS
10
130.483
20
-34.8515
11
128.95
21
-36.137
0
LINE
8
BLACK
6
CONTINUOUS
10
128.95
20
-36.137
11
127.729
21
-34.6816
0
LINE
8
BLACK
6
CONTINUOUS
10
127.729
20
-34.6816
11
129.261
21
-33.396
0
LINE
8
BLACK
6
CONTINUOUS
10
129.261
20
-33.396
11
130.483
21
-34.8515
0
LINE
8
BLACK
6
CONTINUOUS
10
141.072
20
-30.0781
11
140.742
21
-30.3545
0
LINE
8
BLACK
6
CONTINUOUS
10
140.742
20
-30.3545
11
141.16
21
-30.8525
0
LINE
8
BLACK
6
CONTINUOUS
10
141.16
20
-30.8525
11
140.011
21
-31.8166
0
LINE
8
BLACK
6
CONTINUOUS
10
140.011
20
-31.8166
11
139.593
21
-31.3187
0
LINE
8
BLACK
6
CONTINUOUS
10
139.593
20
-31.3187
11
139.233
21
-31.6208
0
LINE
8
BLACK
6
CONTINUOUS
10
139.233
20
-31.6208
11
137.69
21
-29.7823
0
LINE
8
BLACK
6
CONTINUOUS
10
137.69
20
-29.7823
11
139.529
21
-28.2396
0
LINE
8
BLACK
6
CONTINUOUS
10
139.529
20
-28.2396
11
141.072
21
-30.0781
0
LINE
8
BLACK
6
CONTINUOUS
10
92.75
20
-26.9
11
90.85
21
-26.9
0
LINE
8
BLACK
6
CONTINUOUS
10
90.85
20
-26.9
11
90.85
21
-24.9
0
LINE
8
BLACK
6
CONTINUOUS
10
90.85
20
-24.9
11
92.75
21
-24.9
0
LINE
8
BLACK
6
CONTINUOUS
10
92.75
20
-24.9
11
92.75
21
-26.9
0
LINE
8
BLACK
6
CONTINUOUS
10
125.194
20
-25.1258
11
123.661
21
-26.4113
0
LINE
8
BLACK
6
CONTINUOUS
10
123.661
20
-26.4113
11
122.376
21
-24.8792
0
LINE
8
BLACK
6
CONTINUOUS
10
122.376
20
-24.8792
11
123.908
21
-23.5937
0
LINE
8
BLACK
6
CONTINUOUS
10
123.908
20
-23.5937
11
125.194
21
-25.1258
0
LINE
8
BLACK
6
CONTINUOUS
10
81.9
20
-24.7
11
79.9
21
-24.7
0
LINE
8
BLACK
6
CONTINUOUS
10
79.9
20
-24.7
11
79.9
21
-22.7
0
LINE
8
BLACK
6
CONTINUOUS
10
79.9
20
-22.7
11
81.9
21
-22.7
0
LINE
8
BLACK
6
CONTINUOUS
10
81.9
20
-22.7
11
81.9
21
-24.7
0
LINE
8
BLACK
6
CONTINUOUS
10
131.097
20
-22.0648
11
129.182
21
-23.6718
0
LINE
8
BLACK
6
CONTINUOUS
10
129.182
20
-23.6718
11
127.575
21
-21.7567
0
LINE
8
BLACK
6
CONTINUOUS
10
127.575
20
-21.7567
11
129.49
21
-20.1497
0
LINE
8
BLACK
6
CONTINUOUS
10
129.49
20
-20.1497
11
131.097
21
-22.0648
0
LINE
8
BLACK
6
CONTINUOUS
10
115.328
20
-21.0257
11
114.483
21
-22.8383
0
LINE
8
BLACK
6
CONTINUOUS
10
114.483
20
-22.8383
11
112.761
21
-22.0354
0
LINE
8
BLACK
6
CONTINUOUS
10
112.761
20
-22.0354
11
113.606
21
-20.2228
0
LINE
8
BLACK
6
CONTINUOUS
10
113.606
20
-20.2228
11
115.328
21
-21.0257
0
LINE
8
BLACK
6
CONTINUOUS
10
129.077
20
-20.4968
11
127.928
21
-21.461
0
LINE
8
BLACK
6
CONTINUOUS
10
127.928
20
-21.461
11
127.478
21
-20.9248
0
LINE
8
BLACK
6
CONTINUOUS
10
127.478
20
-20.9248
11
128.627
21
-19.9606
0
LINE
8
BLACK
6
CONTINUOUS
10
128.627
20
-19.9606
11
129.077
21
-20.4968
0
LINE
8
BLACK
6
CONTINUOUS
10
73.75
20
-19.9
11
71.85
21
-19.9
0
LINE
8
BLACK
6
CONTINUOUS
10
71.85
20
-19.9
11
71.85
21
-17.9
0
LINE
8
BLACK
6
CONTINUOUS
10
71.85
20
-17.9
11
73.75
21
-17.9
0
LINE
8
BLACK
6
CONTINUOUS
10
73.75
20
-17.9
11
73.75
21
-19.9
0
LINE
8
BLACK
6
CONTINUOUS
10
54.75
20
-19.9
11
52.85
21
-19.9
0
LINE
8
BLACK
6
CONTINUOUS
10
52.85
20
-19.9
11
52.85
21
-17.9
0
LINE
8
BLACK
6
CONTINUOUS
10
52.85
20
-17.9
11
54.75
21
-17.9
0
LINE
8
BLACK
6
CONTINUOUS
10
54.75
20
-17.9
11
54.75
21
-19.9
0
LINE
8
BLACK
6
CONTINUOUS
10
83.35
20
-18.71
11
80.85
21
-18.71
0
LINE
8
BLACK
6
CONTINUOUS
10
80.85
20
-18.71
11
80.85
21
-18.25
0
LINE
8
BLACK
6
CONTINUOUS
10
80.85
20
-18.25
11
80.15
21
-18.25
0
LINE
8
BLACK
6
CONTINUOUS
10
80.15
20
-18.25
11
80.15
21
-16.75
0
LINE
8
BLACK
6
CONTINUOUS
10
80.15
20
-16.75
11
80.85
21
-16.75
0
LINE
8
BLACK
6
CONTINUOUS
10
80.85
20
-16.75
11
80.85
21
-16.21
0
LINE
8
BLACK
6
CONTINUOUS
10
80.85
20
-16.21
11
83.35
21
-16.21
0
LINE
8
BLACK
6
CONTINUOUS
10
83.35
20
-16.21
11
83.35
21
-18.71
0
LINE
8
BLACK
6
CONTINUOUS
10
43.9
20
-17.7
11
41.9
21
-17.7
0
LINE
8
BLACK
6
CONTINUOUS
10
41.9
20
-17.7
11
41.9
21
-15.7
0
LINE
8
BLACK
6
CONTINUOUS
10
41.9
20
-15.7
11
43.9
21
-15.7
0
LINE
8
BLACK
6
CONTINUOUS
10
43.9
20
-15.7
11
43.9
21
-17.7
0
LINE
8
BLACK
6
CONTINUOUS
10
62.9
20
-17.7
11
60.9
21
-17.7
0
LINE
8
BLACK
6
CONTINUOUS
10
60.9
20
-17.7
11
60.9
21
-15.7
0
LINE
8
BLACK
6
CONTINUOUS
10
60.9
20
-15.7
11
62.9
21
-15.7
0
LINE
8
BLACK
6
CONTINUOUS
10
62.9
20
-15.7
11
62.9
21
-17.7
0
LINE
8
BLACK
6
CONTINUOUS
10
106.424
20
-14.4464
11
105.579
21
-16.2591
0
LINE
8
BLACK
6
CONTINUOUS
10
105.579
20
-16.2591
11
103.766
21
-15.4138
0
LINE
8
BLACK
6
CONTINUOUS
10
103.766
20
-15.4138
11
104.612
21
-13.6012
0
LINE
8
BLACK
6
CONTINUOUS
10
104.612
20
-13.6012
11
106.424
21
-14.4464
0
LINE
8
BLACK
6
CONTINUOUS
10
95.9
20
-14.15
11
96.55
21
-14.15
0
LINE
8
BLACK
6
CONTINUOUS
10
96.55
20
-14.15
11
96.55
21
-15.65
0
LINE
8
BLACK
6
CONTINUOUS
10
96.55
20
-15.65
11
95.9
21
-15.65
0
LINE
8
BLACK
6
CONTINUOUS
10
95.9
20
-15.65
11
95.9
21
-16.12
0
LINE
8
BLACK
6
CONTINUOUS
10
95.9
20
-16.12
11
93.5
21
-16.12
0
LINE
8
BLACK
6
CONTINUOUS
10
93.5
20
-16.12
11
93.5
21
-13.72
0
LINE
8
BLACK
6
CONTINUOUS
10
93.5
20
-13.72
11
95.9
21
-13.72
0
LINE
8
BLACK
6
CONTINUOUS
10
95.9
20
-13.72
11
95.9
21
-14.15
0
LINE
8
BLACK
6
CONTINUOUS
10
122.908
20
-12.2245
11
122.726
21
-12.6142
0
LINE
8
BLACK
6
CONTINUOUS
10
122.726
20
-12.6142
11
123.315
21
-12.8889
0
LINE
8
BLACK
6
CONTINUOUS
10
123.315
20
-12.8889
11
122.681
21
-14.2483
0
LINE
8
BLACK
6
CONTINUOUS
10
122.681
20
-14.2483
11
122.092
21
-13.9736
0
LINE
8
BLACK
6
CONTINUOUS
10
122.092
20
-13.9736
11
121.893
21
-14.3996
0
LINE
8
BLACK
6
CONTINUOUS
10
121.893
20
-14.3996
11
119.718
21
-13.3853
0
LINE
8
BLACK
6
CONTINUOUS
10
119.718
20
-13.3853
11
120.732
21
-11.2102
0
LINE
8
BLACK
6
CONTINUOUS
10
120.732
20
-11.2102
11
122.908
21
-12.2245
0
LINE
8
BLACK
6
CONTINUOUS
10
45.35
20
-11.71
11
42.85
21
-11.71
0
LINE
8
BLACK
6
CONTINUOUS
10
42.85
20
-11.71
11
42.85
21
-11.25
0
LINE
8
BLACK
6
CONTINUOUS
10
42.85
20
-11.25
11
42.15
21
-11.25
0
LINE
8
BLACK
6
CONTINUOUS
10
42.15
20
-11.25
11
42.15
21
-9.75
0
LINE
8
BLACK
6
CONTINUOUS
10
42.15
20
-9.75
11
42.85
21
-9.75
0
LINE
8
BLACK
6
CONTINUOUS
10
42.85
20
-9.75
11
42.85
21
-9.21
0
LINE
8
BLACK
6
CONTINUOUS
10
42.85
20
-9.21
11
45.35
21
-9.21
0
LINE
8
BLACK
6
CONTINUOUS
10
45.35
20
-9.21
11
45.35
21
-11.71
0
LINE
8
BLACK
6
CONTINUOUS
10
64.35
20
-11.71
11
61.85
21
-11.71
0
LINE
8
BLACK
6
CONTINUOUS
10
61.85
20
-11.71
11
61.85
21
-11.25
0
LINE
8
BLACK
6
CONTINUOUS
10
61.85
20
-11.25
11
61.15
21
-11.25
0
LINE
8
BLACK
6
CONTINUOUS
10
61.15
20
-11.25
11
61.15
21
-9.75
0
LINE
8
BLACK
6
CONTINUOUS
10
61.15
20
-9.75
11
61.85
21
-9.75
0
LINE
8
BLACK
6
CONTINUOUS
10
61.85
20
-9.75
11
61.85
21
-9.21
0
LINE
8
BLACK
6
CONTINUOUS
10
61.85
20
-9.21
11
64.35
21
-9.21
0
LINE
8
BLACK
6
CONTINUOUS
10
64.35
20
-9.21
11
64.35
21
-11.71
0
LINE
8
BLACK
6
CONTINUOUS
10
110.481
20
-9.1773
11
109.425
21
-11.4431
0
LINE
8
BLACK
6
CONTINUOUS
10
109.425
20
-11.4431
11
107.159
21
-10.3865
0
LINE
8
BLACK
6
CONTINUOUS
10
107.159
20
-10.3865
11
108.215
21
-8.12075
0
LINE
8
BLACK
6
CONTINUOUS
10
108.215
20
-8.12075
11
110.481
21
-9.1773
0
LINE
8
BLACK
6
CONTINUOUS
10
107.987
20
-8.61016
11
107.353
21
-9.96962
0
LINE
8
BLACK
6
CONTINUOUS
10
107.353
20
-9.96962
11
106.719
21
-9.67379
0
LINE
8
BLACK
6
CONTINUOUS
10
106.719
20
-9.67379
11
107.353
21
-8.31433
0
LINE
8
BLACK
6
CONTINUOUS
10
107.353
20
-8.31433
11
107.987
21
-8.61016
0
LINE
8
BLACK
6
CONTINUOUS
10
76.9
20
-7.15
11
77.55
21
-7.15
0
LINE
8
BLACK
6
CONTINUOUS
10
77.55
20
-7.15
11
77.55
21
-8.65
0
LINE
8
BLACK
6
CONTINUOUS
10
77.55
20
-8.65
11
76.9
21
-8.65
0
LINE
8
BLACK
6
CONTINUOUS
10
76.9
20
-8.65
11
76.9
21
-9.12
0
LINE
8
BLACK
6
CONTINUOUS
10
76.9
20
-9.12
11
74.5
21
-9.12
0
LINE
8
BLACK
6
CONTINUOUS
10
74.5
20
-9.12
11
74.5
21
-6.72
0
LINE
8
BLACK
6
CONTINUOUS
10
74.5
20
-6.72
11
76.9
21
-6.72
0
LINE
8
BLACK
6
CONTINUOUS
10
76.9
20
-6.72
11
76.9
21
-7.15
0
LINE
8
BLACK
6
CONTINUOUS
10
57.9
20
-7.15
11
58.55
21
-7.15
0
LINE
8
BLACK
6
CONTINUOUS
10
58.55
20
-7.15
11
58.55
21
-8.65
0
LINE
8
BLACK
6
CONTINUOUS
10
58.55
20
-8.65
11
57.9
21
-8.65
0
LINE
8
BLACK
6
CONTINUOUS
10
57.9
20
-8.65
11
57.9
21
-9.12
0
LINE
8
BLACK
6
CONTINUOUS
10
57.9
20
-9.12
11
55.5
21
-9.12
0
LINE
8
BLACK
6
CONTINUOUS
10
55.5
20
-9.12
11
55.5
21
-6.72
0
LINE
8
BLACK
6
CONTINUOUS
10
55.5
20
-6.72
11
57.9
21
-6.72
0
LINE
8
BLACK
6
CONTINUOUS
10
57.9
20
-6.72
11
57.9
21
-7.15
0
LINE
8
BLACK
6
CONTINUOUS
10
98.75
20
-6.9
11
96.85
21
-6.9
0
LINE
8
BLACK
6
CONTINUOUS
10
96.85
20
-6.9
11
96.85
21
-4.9
0
LINE
8
BLACK
6
CONTINUOUS
10
96.85
20
-4.9
11
98.75
21
-4.9
0
LINE
8
BLACK
6
CONTINUOUS
10
98.75
20
-4.9
11
98.75
21
-6.9
0
LINE
8
BLACK
6
CONTINUOUS
10
22.75
20
-6.9
11
20.85
21
-6.9
0
LINE
8
BLACK
6
CONTINUOUS
10
20.85
20
-6.9
11
20.85
21
-4.9
0
LINE
8
BLACK
6
CONTINUOUS
10
20.85
20
-4.9
11
22.75
21
-4.9
0
LINE
8
BLACK
6
CONTINUOUS
10
22.75
20
-4.9
11
22.75
21
-6.9
0
LINE
8
BLACK
6
CONTINUOUS
10
3.75
20
-6.9
11
1.85
21
-6.9
0
LINE
8
BLACK
6
CONTINUOUS
10
1.85
20
-6.9
11
1.85
21
-4.9
0
LINE
8
BLACK
6
CONTINUOUS
10
1.85
20
-4.9
11
3.75
21
-4.9
0
LINE
8
BLACK
6
CONTINUOUS
10
3.75
20
-4.9
11
3.75
21
-6.9
0
LINE
8
BLACK
6
CONTINUOUS
10
87.9
20
-4.7
11
85.9
21
-4.7
0
LINE
8
BLACK
6
CONTINUOUS
10
85.9
20
-4.7
11
85.9
21
-2.7
0
LINE
8
BLACK
6
CONTINUOUS
10
85.9
20
-2.7
11
87.9
21
-2.7
0
LINE
8
BLACK
6
CONTINUOUS
10
87.9
20
-2.7
11
87.9
21
-4.7
0
LINE
8
BLACK
6
CONTINUOUS
10
11.9
20
-4.7
11
9.9
21
-4.7
0
LINE
8
BLACK
6
CONTINUOUS
10
9.9
20
-4.7
11
9.9
21
-2.7
0
LINE
8
BLACK
6
CONTINUOUS
10
9.9
20
-2.7
11
11.9
21
-2.7
0
LINE
8
BLACK
6
CONTINUOUS
10
11.9
20
-2.7
11
11.9
21
-4.7
0
LINE
8
BLACK
6
CONTINUOUS
10
-7.1
20
-4.7
11
-9.1
21
-4.7
0
LINE
8
BLACK
6
CONTINUOUS
10
-9.1
20
-4.7
11
-9.1
21
-2.7
0
LINE
8
BLACK
6
CONTINUOUS
10
-9.1
20
-2.7
11
-7.1
21
-2.7
0
LINE
8
BLACK
6
CONTINUOUS
10
-7.1
20
-2.7
11
-7.1
21
-4.7
0
LINE
8
BLACK
6
CONTINUOUS
10
79.75
20
0.1
11
77.85
21
0.1
0
LINE
8
BLACK
6
CONTINUOUS
10
77.85
20
0.1
11
77.85
21
2.1
0
LINE
8
BLACK
6
CONTINUOUS
10
77.85
20
2.1
11
79.75
21
2.1
0
LINE
8
BLACK
6
CONTINUOUS
10
79.75
20
2.1
11
79.75
21
0.1
0
LINE
8
BLACK
6
CONTINUOUS
10
41.75
20
0.1
11
39.85
21
0.1
0
LINE
8
BLACK
6
CONTINUOUS
10
39.85
20
0.1
11
39.85
21
2.1
0
LINE
8
BLACK
6
CONTINUOUS
10
39.85
20
2.1
11
41.75
21
2.1
0
LINE
8
BLACK
6
CONTINUOUS
10
41.75
20
2.1
11
41.75
21
0.1
0
LINE
8
BLACK
6
CONTINUOUS
10
-5.65
20
1.29
11
-8.15
21
1.29
0
LINE
8
BLACK
6
CONTINUOUS
10
-8.15
20
1.29
11
-8.15
21
1.75
0
LINE
8
BLACK
6
CONTINUOUS
10
-8.15
20
1.75
11
-8.85
21
1.75
0
LINE
8
BLACK
6
CONTINUOUS
10
-8.85
20
1.75
11
-8.85
21
3.25
0
LINE
8
BLACK
6
CONTINUOUS
10
-8.85
20
3.25
11
-8.15
21
3.25
0
LINE
8
BLACK
6
CONTINUOUS
10
-8.15
20
3.25
11
-8.15
21
3.79
0
LINE
8
BLACK
6
CONTINUOUS
10
-8.15
20
3.79
11
-5.65
21
3.79
0
LINE
8
BLACK
6
CONTINUOUS
10
-5.65
20
3.79
11
-5.65
21
1.29
0
LINE
8
BLACK
6
CONTINUOUS
10
89.35
20
1.29
11
86.85
21
1.29
0
LINE
8
BLACK
6
CONTINUOUS
10
86.85
20
1.29
11
86.85
21
1.75
0
LINE
8
BLACK
6
CONTINUOUS
10
86.85
20
1.75
11
86.15
21
1.75
0
LINE
8
BLACK
6
CONTINUOUS
10
86.15
20
1.75
11
86.15
21
3.25
0
LINE
8
BLACK
6
CONTINUOUS
10
86.15
20
3.25
11
86.85
21
3.25
0
LINE
8
BLACK
6
CONTINUOUS
10
86.85
20
3.25
11
86.85
21
3.79
0
LINE
8
BLACK
6
CONTINUOUS
10
86.85
20
3.79
11
89.35
21
3.79
0
LINE
8
BLACK
6
CONTINUOUS
10
89.35
20
3.79
11
89.35
21
1.29
0
LINE
8
BLACK
6
CONTINUOUS
10
13.35
20
1.29
11
10.85
21
1.29
0
LINE
8
BLACK
6
CONTINUOUS
10
10.85
20
1.29
11
10.85
21
1.75
0
LINE
8
BLACK
6
CONTINUOUS
10
10.85
20
1.75
11
10.15
21
1.75
0
LINE
8
BLACK
6
CONTINUOUS
10
10.15
20
1.75
11
10.15
21
3.25
0
LINE
8
BLACK
6
CONTINUOUS
10
10.15
20
3.25
11
10.85
21
3.25
0
LINE
8
BLACK
6
CONTINUOUS
10
10.85
20
3.25
11
10.85
21
3.79
0
LINE
8
BLACK
6
CONTINUOUS
10
10.85
20
3.79
11
13.35
21
3.79
0
LINE
8
BLACK
6
CONTINUOUS
10
13.35
20
3.79
11
13.35
21
1.29
0
LINE
8
BLACK
6
CONTINUOUS
10
68.9
20
2.3
11
66.9
21
2.3
0
LINE
8
BLACK
6
CONTINUOUS
10
66.9
20
2.3
11
66.9
21
4.3
0
LINE
8
BLACK
6
CONTINUOUS
10
66.9
20
4.3
11
68.9
21
4.3
0
LINE
8
BLACK
6
CONTINUOUS
10
68.9
20
4.3
11
68.9
21
2.3
0
LINE
8
BLACK
6
CONTINUOUS
10
30.9
20
2.3
11
28.9
21
2.3
0
LINE
8
BLACK
6
CONTINUOUS
10
28.9
20
2.3
11
28.9
21
4.3
0
LINE
8
BLACK
6
CONTINUOUS
10
28.9
20
4.3
11
30.9
21
4.3
0
LINE
8
BLACK
6
CONTINUOUS
10
30.9
20
4.3
11
30.9
21
2.3
0
LINE
8
BLACK
6
CONTINUOUS
10
25.9
20
5.85
11
26.55
21
5.85
0
LINE
8
BLACK
6
CONTINUOUS
10
26.55
20
5.85
11
26.55
21
4.35
0
LINE
8
BLACK
6
CONTINUOUS
10
26.55
20
4.35
11
25.9
21
4.35
0
LINE
8
BLACK
6
CONTINUOUS
10
25.9
20
4.35
11
25.9
21
3.88
0
LINE
8
BLACK
6
CONTINUOUS
10
25.9
20
3.88
11
23.5
21
3.88
0
LINE
8
BLACK
6
CONTINUOUS
10
23.5
20
3.88
11
23.5
21
6.28
0
LINE
8
BLACK
6
CONTINUOUS
10
23.5
20
6.28
11
25.9
21
6.28
0
LINE
8
BLACK
6
CONTINUOUS
10
25.9
20
6.28
11
25.9
21
5.85
0
LINE
8
BLACK
6
CONTINUOUS
10
6.9
20
5.85
11
7.55
21
5.85
0
LINE
8
BLACK
6
CONTINUOUS
10
7.55
20
5.85
11
7.55
21
4.35
0
LINE
8
BLACK
6
CONTINUOUS
10
7.55
20
4.35
11
6.9
21
4.35
0
LINE
8
BLACK
6
CONTINUOUS
10
6.9
20
4.35
11
6.9
21
3.88
0
LINE
8
BLACK
6
CONTINUOUS
10
6.9
20
3.88
11
4.5
21
3.88
0
LINE
8
BLACK
6
CONTINUOUS
10
4.5
20
3.88
11
4.5
21
6.28
0
LINE
8
BLACK
6
CONTINUOUS
10
4.5
20
6.28
11
6.9
21
6.28
0
LINE
8
BLACK
6
CONTINUOUS
10
6.9
20
6.28
11
6.9
21
5.85
0
LINE
8
BLACK
6
CONTINUOUS
10
101.9
20
5.85
11
102.55
21
5.85
0
LINE
8
BLACK
6
CONTINUOUS
10
102.55
20
5.85
11
102.55
21
4.35
0
LINE
8
BLACK
6
CONTINUOUS
10
102.55
20
4.35
11
101.9
21
4.35
0
LINE
8
BLACK
6
CONTINUOUS
10
101.9
20
4.35
11
101.9
21
3.88
0
LINE
8
BLACK
6
CONTINUOUS
10
101.9
20
3.88
11
99.5
21
3.88
0
LINE
8
BLACK
6
CONTINUOUS
10
99.5
20
3.88
11
99.5
21
6.28
0
LINE
8
BLACK
6
CONTINUOUS
10
99.5
20
6.28
11
101.9
21
6.28
0
LINE
8
BLACK
6
CONTINUOUS
10
101.9
20
6.28
11
101.9
21
5.85
0
LINE
8
BLACK
6
CONTINUOUS
10
60.75
20
7.1
11
58.85
21
7.1
0
LINE
8
BLACK
6
CONTINUOUS
10
58.85
20
7.1
11
58.85
21
9.1
0
LINE
8
BLACK
6
CONTINUOUS
10
58.85
20
9.1
11
60.75
21
9.1
0
LINE
8
BLACK
6
CONTINUOUS
10
60.75
20
9.1
11
60.75
21
7.1
0
LINE
8
BLACK
6
CONTINUOUS
10
117.75
20
8.1
11
115.85
21
8.1
0
LINE
8
BLACK
6
CONTINUOUS
10
115.85
20
8.1
11
115.85
21
10.1
0
LINE
8
BLACK
6
CONTINUOUS
10
115.85
20
10.1
11
117.75
21
10.1
0
LINE
8
BLACK
6
CONTINUOUS
10
117.75
20
10.1
11
117.75
21
8.1
0
LINE
8
BLACK
6
CONTINUOUS
10
70.35
20
8.29
11
67.85
21
8.29
0
LINE
8
BLACK
6
CONTINUOUS
10
67.85
20
8.29
11
67.85
21
8.75
0
LINE
8
BLACK
6
CONTINUOUS
10
67.85
20
8.75
11
67.15
21
8.75
0
LINE
8
BLACK
6
CONTINUOUS
10
67.15
20
8.75
11
67.15
21
10.25
0
LINE
8
BLACK
6
CONTINUOUS
10
67.15
20
10.25
11
67.85
21
10.25
0
LINE
8
BLACK
6
CONTINUOUS
10
67.85
20
10.25
11
67.85
21
10.79
0
LINE
8
BLACK
6
CONTINUOUS
10
67.85
20
10.79
11
70.35
21
10.79
0
LINE
8
BLACK
6
CONTINUOUS
10
70.35
20
10.79
11
70.35
21
8.29
0
LINE
8
BLACK
6
CONTINUOUS
10
32.35
20
8.29
11
29.85
21
8.29
0
LINE
8
BLACK
6
CONTINUOUS
10
29.85
20
8.29
11
29.85
21
8.75
0
LINE
8
BLACK
6
CONTINUOUS
10
29.85
20
8.75
11
29.15
21
8.75
0
LINE
8
BLACK
6
CONTINUOUS
10
29.15
20
8.75
11
29.15
21
10.25
0
LINE
8
BLACK
6
CONTINUOUS
10
29.15
20
10.25
11
29.85
21
10.25
0
LINE
8
BLACK
6
CONTINUOUS
10
29.85
20
10.25
11
29.85
21
10.79
0
LINE
8
BLACK
6
CONTINUOUS
10
29.85
20
10.79
11
32.35
21
10.79
0
LINE
8
BLACK
6
CONTINUOUS
10
32.35
20
10.79
11
32.35
21
8.29
0
LINE
8
BLACK
6
CONTINUOUS
10
49.9
20
9.3
11
47.9
21
9.3
0
LINE
8
BLACK
6
CONTINUOUS
10
47.9
20
9.3
11
47.9
21
11.3
0
LINE
8
BLACK
6
CONTINUOUS
10
47.9
20
11.3
11
49.9
21
11.3
0
LINE
8
BLACK
6
CONTINUOUS
10
49.9
20
11.3
11
49.9
21
9.3
0
LINE
8
BLACK
6
CONTINUOUS
10
106.9
20
10.3
11
104.9
21
10.3
0
LINE
8
BLACK
6
CONTINUOUS
10
104.9
20
10.3
11
104.9
21
12.3
0
LINE
8
BLACK
6
CONTINUOUS
10
104.9
20
12.3
11
106.9
21
12.3
0
LINE
8
BLACK
6
CONTINUOUS
10
106.9
20
12.3
11
106.9
21
10.3
0
LINE
8
BLACK
6
CONTINUOUS
10
44.9
20
12.85
11
45.55
21
12.85
0
LINE
8
BLACK
6
CONTINUOUS
10
45.55
20
12.85
11
45.55
21
11.35
0
LINE
8
BLACK
6
CONTINUOUS
10
45.55
20
11.35
11
44.9
21
11.35
0
LINE
8
BLACK
6
CONTINUOUS
10
44.9
20
11.35
11
44.9
21
10.88
0
LINE
8
BLACK
6
CONTINUOUS
10
44.9
20
10.88
11
42.5
21
10.88
0
LINE
8
BLACK
6
CONTINUOUS
10
42.5
20
10.88
11
42.5
21
13.28
0
LINE
8
BLACK
6
CONTINUOUS
10
42.5
20
13.28
11
44.9
21
13.28
0
LINE
8
BLACK
6
CONTINUOUS
10
44.9
20
13.28
11
44.9
21
12.85
0
LINE
8
BLACK
6
CONTINUOUS
10
82.9
20
12.85
11
83.55
21
12.85
0
LINE
8
BLACK
6
CONTINUOUS
10
83.55
20
12.85
11
83.55
21
11.35
0
LINE
8
BLACK
6
CONTINUOUS
10
83.55
20
11.35
11
82.9
21
11.35
0
LINE
8
BLACK
6
CONTINUOUS
10
82.9
20
11.35
11
82.9
21
10.88
0
LINE
8
BLACK
6
CONTINUOUS
10
82.9
20
10.88
11
80.5
21
10.88
0
LINE
8
BLACK
6
CONTINUOUS
10
80.5
20
10.88
11
80.5
21
13.28
0
LINE
8
BLACK
6
CONTINUOUS
10
80.5
20
13.28
11
82.9
21
13.28
0
LINE
8
BLACK
6
CONTINUOUS
10
82.9
20
13.28
11
82.9
21
12.85
0
LINE
8
BLACK
6
CONTINUOUS
10
98.75
20
12.1
11
96.85
21
12.1
0
LINE
8
BLACK
6
CONTINUOUS
10
96.85
20
12.1
11
96.85
21
14.1
0
LINE
8
BLACK
6
CONTINUOUS
10
96.85
20
14.1
11
98.75
21
14.1
0
LINE
8
BLACK
6
CONTINUOUS
10
98.75
20
14.1
11
98.75
21
12.1
0
LINE
8
BLACK
6
CONTINUOUS
10
3.75
20
12.1
11
1.85
21
12.1
0
LINE
8
BLACK
6
CONTINUOUS
10
1.85
20
12.1
11
1.85
21
14.1
0
LINE
8
BLACK
6
CONTINUOUS
10
1.85
20
14.1
11
3.75
21
14.1
0
LINE
8
BLACK
6
CONTINUOUS
10
3.75
20
14.1
11
3.75
21
12.1
0
LINE
8
BLACK
6
CONTINUOUS
10
22.75
20
12.1
11
20.85
21
12.1
0
LINE
8
BLACK
6
CONTINUOUS
10
20.85
20
12.1
11
20.85
21
14.1
0
LINE
8
BLACK
6
CONTINUOUS
10
20.85
20
14.1
11
22.75
21
14.1
0
LINE
8
BLACK
6
CONTINUOUS
10
22.75
20
14.1
11
22.75
21
12.1
0
LINE
8
BLACK
6
CONTINUOUS
10
87.9
20
14.3
11
85.9
21
14.3
0
LINE
8
BLACK
6
CONTINUOUS
10
85.9
20
14.3
11
85.9
21
16.3
0
LINE
8
BLACK
6
CONTINUOUS
10
85.9
20
16.3
11
87.9
21
16.3
0
LINE
8
BLACK
6
CONTINUOUS
10
87.9
20
16.3
11
87.9
21
14.3
0
LINE
8
BLACK
6
CONTINUOUS
10
11.9
20
14.3
11
9.9
21
14.3
0
LINE
8
BLACK
6
CONTINUOUS
10
9.9
20
14.3
11
9.9
21
16.3
0
LINE
8
BLACK
6
CONTINUOUS
10
9.9
20
16.3
11
11.9
21
16.3
0
LINE
8
BLACK
6
CONTINUOUS
10
11.9
20
16.3
11
11.9
21
14.3
0
LINE
8
BLACK
6
CONTINUOUS
10
-7.1
20
14.3
11
-9.1
21
14.3
0
LINE
8
BLACK
6
CONTINUOUS
10
-9.1
20
14.3
11
-9.1
21
16.3
0
LINE
8
BLACK
6
CONTINUOUS
10
-9.1
20
16.3
11
-7.1
21
16.3
0
LINE
8
BLACK
6
CONTINUOUS
10
-7.1
20
16.3
11
-7.1
21
14.3
0
LINE
8
BLACK
6
CONTINUOUS
10
51.35
20
15.29
11
48.85
21
15.29
0
LINE
8
BLACK
6
CONTINUOUS
10
48.85
20
15.29
11
48.85
21
15.75
0
LINE
8
BLACK
6
CONTINUOUS
10
48.85
20
15.75
11
48.15
21
15.75
0
LINE
8
BLACK
6
CONTINUOUS
10
48.15
20
15.75
11
48.15
21
17.25
0
LINE
8
BLACK
6
CONTINUOUS
10
48.15
20
17.25
11
48.85
21
17.25
0
LINE
8
BLACK
6
CONTINUOUS
10
48.85
20
17.25
11
48.85
21
17.79
0
LINE
8
BLACK
6
CONTINUOUS
10
48.85
20
17.79
11
51.35
21
17.79
0
LINE
8
BLACK
6
CONTINUOUS
10
51.35
20
17.79
11
51.35
21
15.29
0
LINE
8
BLACK
6
CONTINUOUS
10
108.35
20
16.29
11
105.85
21
16.29
0
LINE
8
BLACK
6
CONTINUOUS
10
105.85
20
16.29
11
105.85
21
16.75
0
LINE
8
BLACK
6
CONTINUOUS
10
105.85
20
16.75
11
105.15
21
16.75
0
LINE
8
BLACK
6
CONTINUOUS
10
105.15
20
16.75
11
105.15
21
18.25
0
LINE
8
BLACK
6
CONTINUOUS
10
105.15
20
18.25
11
105.85
21
18.25
0
LINE
8
BLACK
6
CONTINUOUS
10
105.85
20
18.25
11
105.85
21
18.79
0
LINE
8
BLACK
6
CONTINUOUS
10
105.85
20
18.79
11
108.35
21
18.79
0
LINE
8
BLACK
6
CONTINUOUS
10
108.35
20
18.79
11
108.35
21
16.29
0
LINE
8
BLACK
6
CONTINUOUS
10
63.9
20
19.85
11
64.55
21
19.85
0
LINE
8
BLACK
6
CONTINUOUS
10
64.55
20
19.85
11
64.55
21
18.35
0
LINE
8
BLACK
6
CONTINUOUS
10
64.55
20
18.35
11
63.9
21
18.35
0
LINE
8
BLACK
6
CONTINUOUS
10
63.9
20
18.35
11
63.9
21
17.88
0
LINE
8
BLACK
6
CONTINUOUS
10
63.9
20
17.88
11
61.5
21
17.88
0
LINE
8
BLACK
6
CONTINUOUS
10
61.5
20
17.88
11
61.5
21
20.28
0
LINE
8
BLACK
6
CONTINUOUS
10
61.5
20
20.28
11
63.9
21
20.28
0
LINE
8
BLACK
6
CONTINUOUS
10
63.9
20
20.28
11
63.9
21
19.85
0
LINE
8
BLACK
6
CONTINUOUS
10
120.9
20
20.85
11
121.55
21
20.85
0
LINE
8
BLACK
6
CONTINUOUS
10
121.55
20
20.85
11
121.55
21
19.35
0
LINE
8
BLACK
6
CONTINUOUS
10
121.55
20
19.35
11
120.9
21
19.35
0
LINE
8
BLACK
6
CONTINUOUS
10
120.9
20
19.35
11
120.9
21
18.88
0
LINE
8
BLACK
6
CONTINUOUS
10
120.9
20
18.88
11
118.5
21
18.88
0
LINE
8
BLACK
6
CONTINUOUS
10
118.5
20
18.88
11
118.5
21
21.28
0
LINE
8
BLACK
6
CONTINUOUS
10
118.5
20
21.28
11
120.9
21
21.28
0
LINE
8
BLACK
6
CONTINUOUS
10
120.9
20
21.28
11
120.9
21
20.85
0
LINE
8
BLACK
6
CONTINUOUS
10
79.75
20
19.1
11
77.85
21
19.1
0
LINE
8
BLACK
6
CONTINUOUS
10
77.85
20
19.1
11
77.85
21
21.1
0
LINE
8
BLACK
6
CONTINUOUS
10
77.85
20
21.1
11
79.75
21
21.1
0
LINE
8
BLACK
6
CONTINUOUS
10
79.75
20
21.1
11
79.75
21
19.1
0
LINE
8
BLACK
6
CONTINUOUS
10
41.75
20
19.1
11
39.85
21
19.1
0
LINE
8
BLACK
6
CONTINUOUS
10
39.85
20
19.1
11
39.85
21
21.1
0
LINE
8
BLACK
6
CONTINUOUS
10
39.85
20
21.1
11
41.75
21
21.1
0
LINE
8
BLACK
6
CONTINUOUS
10
41.75
20
21.1
11
41.75
21
19.1
0
LINE
8
BLACK
6
CONTINUOUS
10
89.35
20
20.29
11
86.85
21
20.29
0
LINE
8
BLACK
6
CONTINUOUS
10
86.85
20
20.29
11
86.85
21
20.75
0
LINE
8
BLACK
6
CONTINUOUS
10
86.85
20
20.75
11
86.15
21
20.75
0
LINE
8
BLACK
6
CONTINUOUS
10
86.15
20
20.75
11
86.15
21
22.25
0
LINE
8
BLACK
6
CONTINUOUS
10
86.15
20
22.25
11
86.85
21
22.25
0
LINE
8
BLACK
6
CONTINUOUS
10
86.85
20
22.25
11
86.85
21
22.79
0
LINE
8
BLACK
6
CONTINUOUS
10
86.85
20
22.79
11
89.35
21
22.79
0
LINE
8
BLACK
6
CONTINUOUS
10
89.35
20
22.79
11
89.35
21
20.29
0
LINE
8
BLACK
6
CONTINUOUS
10
13.35
20
20.29
11
10.85
21
20.29
0
LINE
8
BLACK
6
CONTINUOUS
10
10.85
20
20.29
11
10.85
21
20.75
0
LINE
8
BLACK
6
CONTINUOUS
10
10.85
20
20.75
11
10.15
21
20.75
0
LINE
8
BLACK
6
CONTINUOUS
10
10.15
20
20.75
11
10.15
21
22.25
0
LINE
8
BLACK
6
CONTINUOUS
10
10.15
20
22.25
11
10.85
21
22.25
0
LINE
8
BLACK
6
CONTINUOUS
10
10.85
20
22.25
11
10.85
21
22.79
0
LINE
8
BLACK
6
CONTINUOUS
10
10.85
20
22.79
11
13.35
21
22.79
0
LINE
8
BLACK
6
CONTINUOUS
10
13.35
20
22.79
11
13.35
21
20.29
0
LINE
8
BLACK
6
CONTINUOUS
10
-5.65
20
20.29
11
-8.15
21
20.29
0
LINE
8
BLACK
6
CONTINUOUS
10
-8.15
20
20.29
11
-8.15
21
20.75
0
LINE
8
BLACK
6
CONTINUOUS
10
-8.15
20
20.75
11
-8.85
21
20.75
0
LINE
8
BLACK
6
CONTINUOUS
10
-8.85
20
20.75
11
-8.85
21
22.25
0
LINE
8
BLACK
6
CONTINUOUS
10
-8.85
20
22.25
11
-8.15
21
22.25
0
LINE
8
BLACK
6
CONTINUOUS
10
-8.15
20
22.25
11
-8.15
21
22.79
0
LINE
8
BLACK
6
CONTINUOUS
10
-8.15
20
22.79
11
-5.65
21
22.79
0
LINE
8
BLACK
6
CONTINUOUS
10
-5.65
20
22.79
11
-5.65
21
20.29
0
LINE
8
BLACK
6
CONTINUOUS
10
30.9
20
21.3
11
28.9
21
21.3
0
LINE
8
BLACK
6
CONTINUOUS
10
28.9
20
21.3
11
28.9
21
23.3
0
LINE
8
BLACK
6
CONTINUOUS
10
28.9
20
23.3
11
30.9
21
23.3
0
LINE
8
BLACK
6
CONTINUOUS
10
30.9
20
23.3
11
30.9
21
21.3
0
LINE
8
BLACK
6
CONTINUOUS
10
68.9
20
21.3
11
66.9
21
21.3
0
LINE
8
BLACK
6
CONTINUOUS
10
66.9
20
21.3
11
66.9
21
23.3
0
LINE
8
BLACK
6
CONTINUOUS
10
66.9
20
23.3
11
68.9
21
23.3
0
LINE
8
BLACK
6
CONTINUOUS
10
68.9
20
23.3
11
68.9
21
21.3
0
LINE
8
BLACK
6
CONTINUOUS
10
101.9
20
24.85
11
102.55
21
24.85
0
LINE
8
BLACK
6
CONTINUOUS
10
102.55
20
24.85
11
102.55
21
23.35
0
LINE
8
BLACK
6
CONTINUOUS
10
102.55
20
23.35
11
101.9
21
23.35
0
LINE
8
BLACK
6
CONTINUOUS
10
101.9
20
23.35
11
101.9
21
22.88
0
LINE
8
BLACK
6
CONTINUOUS
10
101.9
20
22.88
11
99.5
21
22.88
0
LINE
8
BLACK
6
CONTINUOUS
10
99.5
20
22.88
11
99.5
21
25.28
0
LINE
8
BLACK
6
CONTINUOUS
10
99.5
20
25.28
11
101.9
21
25.28
0
LINE
8
BLACK
6
CONTINUOUS
10
101.9
20
25.28
11
101.9
21
24.85
0
LINE
8
BLACK
6
CONTINUOUS
10
25.9
20
24.85
11
26.55
21
24.85
0
LINE
8
BLACK
6
CONTINUOUS
10
26.55
20
24.85
11
26.55
21
23.35
0
LINE
8
BLACK
6
CONTINUOUS
10
26.55
20
23.35
11
25.9
21
23.35
0
LINE
8
BLACK
6
CONTINUOUS
10
25.9
20
23.35
11
25.9
21
22.88
0
LINE
8
BLACK
6
CONTINUOUS
10
25.9
20
22.88
11
23.5
21
22.88
0
LINE
8
BLACK
6
CONTINUOUS
10
23.5
20
22.88
11
23.5
21
25.28
0
LINE
8
BLACK
6
CONTINUOUS
10
23.5
20
25.28
11
25.9
21
25.28
0
LINE
8
BLACK
6
CONTINUOUS
10
25.9
20
25.28
11
25.9
21
24.85
0
LINE
8
BLACK
6
CONTINUOUS
10
6.9
20
24.85
11
7.55
21
24.85
0
LINE
8
BLACK
6
CONTINUOUS
10
7.55
20
24.85
11
7.55
21
23.35
0
LINE
8
BLACK
6
CONTINUOUS
10
7.55
20
23.35
11
6.9
21
23.35
0
LINE
8
BLACK
6
CONTINUOUS
10
6.9
20
23.35
11
6.9
21
22.88
0
LINE
8
BLACK
6
CONTINUOUS
10
6.9
20
22.88
11
4.5
21
22.88
0
LINE
8
BLACK
6
CONTINUOUS
10
4.5
20
22.88
11
4.5
21
25.28
0
LINE
8
BLACK
6
CONTINUOUS
10
4.5
20
25.28
11
6.9
21
25.28
0
LINE
8
BLACK
6
CONTINUOUS
10
6.9
20
25.28
11
6.9
21
24.85
0
LINE
8
BLACK
6
CONTINUOUS
10
60.75
20
26.1
11
58.85
21
26.1
0
LINE
8
BLACK
6
CONTINUOUS
10
58.85
20
26.1
11
58.85
21
28.1
0
LINE
8
BLACK
6
CONTINUOUS
10
58.85
20
28.1
11
60.75
21
28.1
0
LINE
8
BLACK
6
CONTINUOUS
10
60.75
20
28.1
11
60.75
21
26.1
0
LINE
8
BLACK
6
CONTINUOUS
10
32.35
20
27.29
11
29.85
21
27.29
0
LINE
8
BLACK
6
CONTINUOUS
10
29.85
20
27.29
11
29.85
21
27.75
0
LINE
8
BLACK
6
CONTINUOUS
10
29.85
20
27.75
11
29.15
21
27.75
0
LINE
8
BLACK
6
CONTINUOUS
10
29.15
20
27.75
11
29.15
21
29.25
0
LINE
8
BLACK
6
CONTINUOUS
10
29.15
20
29.25
11
29.85
21
29.25
0
LINE
8
BLACK
6
CONTINUOUS
10
29.85
20
29.25
11
29.85
21
29.79
0
LINE
8
BLACK
6
CONTINUOUS
10
29.85
20
29.79
11
32.35
21
29.79
0
LINE
8
BLACK
6
CONTINUOUS
10
32.35
20
29.79
11
32.35
21
27.29
0
LINE
8
BLACK
6
CONTINUOUS
10
70.35
20
27.29
11
67.85
21
27.29
0
LINE
8
BLACK
6
CONTINUOUS
10
67.85
20
27.29
11
67.85
21
27.75
0
LINE
8
BLACK
6
CONTINUOUS
10
67.85
20
27.75
11
67.15
21
27.75
0
LINE
8
BLACK
6
CONTINUOUS
10
67.15
20
27.75
11
67.15
21
29.25
0
LINE
8
BLACK
6
CONTINUOUS
10
67.15
20
29.25
11
67.85
21
29.25
0
LINE
8
BLACK
6
CONTINUOUS
10
67.85
20
29.25
11
67.85
21
29.79
0
LINE
8
BLACK
6
CONTINUOUS
10
67.85
20
29.79
11
70.35
21
29.79
0
LINE
8
BLACK
6
CONTINUOUS
10
70.35
20
29.79
11
70.35
21
27.29
0
LINE
8
BLACK
6
CONTINUOUS
10
49.9
20
28.3
11
47.9
21
28.3
0
LINE
8
BLACK
6
CONTINUOUS
10
47.9
20
28.3
11
47.9
21
30.3
0
LINE
8
BLACK
6
CONTINUOUS
10
47.9
20
30.3
11
49.9
21
30.3
0
LINE
8
BLACK
6
CONTINUOUS
10
49.9
20
30.3
11
49.9
21
28.3
0
LINE
8
BLACK
6
CONTINUOUS
10
44.9
20
31.85
11
45.55
21
31.85
0
LINE
8
BLACK
6
CONTINUOUS
10
45.55
20
31.85
11
45.55
21
30.35
0
LINE
8
BLACK
6
CONTINUOUS
10
45.55
20
30.35
11
44.9
21
30.35
0
LINE
8
BLACK
6
CONTINUOUS
10
44.9
20
30.35
11
44.9
21
29.88
0
LINE
8
BLACK
6
CONTINUOUS
10
44.9
20
29.88
11
42.5
21
29.88
0
LINE
8
BLACK
6
CONTINUOUS
10
42.5
20
29.88
11
42.5
21
32.28
0
LINE
8
BLACK
6
CONTINUOUS
10
42.5
20
32.28
11
44.9
21
32.28
0
LINE
8
BLACK
6
CONTINUOUS
10
44.9
20
32.28
11
44.9
21
31.85
0
LINE
8
BLACK
6
CONTINUOUS
10
82.9
20
31.85
11
83.55
21
31.85
0
LINE
8
BLACK
6
CONTINUOUS
10
83.55
20
31.85
11
83.55
21
30.35
0
LINE
8
BLACK
6
CONTINUOUS
10
83.55
20
30.35
11
82.9
21
30.35
0
LINE
8
BLACK
6
CONTINUOUS
10
82.9
20
30.35
11
82.9
21
29.88
0
LINE
8
BLACK
6
CONTINUOUS
10
82.9
20
29.88
11
80.5
21
29.88
0
LINE
8
BLACK
6
CONTINUOUS
10
80.5
20
29.88
11
80.5
21
32.28
0
LINE
8
BLACK
6
CONTINUOUS
10
80.5
20
32.28
11
82.9
21
32.28
0
LINE
8
BLACK
6
CONTINUOUS
10
82.9
20
32.28
11
82.9
21
31.85
0
LINE
8
BLACK
6
CONTINUOUS
10
98.75
20
31.1
11
96.85
21
31.1
0
LINE
8
BLACK
6
CONTINUOUS
10
96.85
20
31.1
11
96.85
21
33.1
0
LINE
8
BLACK
6
CONTINUOUS
10
96.85
20
33.1
11
98.75
21
33.1
0
LINE
8
BLACK
6
CONTINUOUS
10
98.75
20
33.1
11
98.75
21
31.1
0
LINE
8
BLACK
6
CONTINUOUS
10
22.75
20
31.1
11
20.85
21
31.1
0
LINE
8
BLACK
6
CONTINUOUS
10
20.85
20
31.1
11
20.85
21
33.1
0
LINE
8
BLACK
6
CONTINUOUS
10
20.85
20
33.1
11
22.75
21
33.1
0
LINE
8
BLACK
6
CONTINUOUS
10
22.75
20
33.1
11
22.75
21
31.1
0
LINE
8
BLACK
6
CONTINUOUS
10
3.75
20
31.1
11
1.85
21
31.1
0
LINE
8
BLACK
6
CONTINUOUS
10
1.85
20
31.1
11
1.85
21
33.1
0
LINE
8
BLACK
6
CONTINUOUS
10
1.85
20
33.1
11
3.75
21
33.1
0
LINE
8
BLACK
6
CONTINUOUS
10
3.75
20
33.1
11
3.75
21
31.1
0
LINE
8
BLACK
6
CONTINUOUS
10
87.9
20
33.3
11
85.9
21
33.3
0
LINE
8
BLACK
6
CONTINUOUS
10
85.9
20
33.3
11
85.9
21
35.3
0
LINE
8
BLACK
6
CONTINUOUS
10
85.9
20
35.3
11
87.9
21
35.3
0
LINE
8
BLACK
6
CONTINUOUS
10
87.9
20
35.3
11
87.9
21
33.3
0
LINE
8
BLACK
6
CONTINUOUS
10
-7.1
20
33.3
11
-9.1
21
33.3
0
LINE
8
BLACK
6
CONTINUOUS
10
-9.1
20
33.3
11
-9.1
21
35.3
0
LINE
8
BLACK
6
CONTINUOUS
10
-9.1
20
35.3
11
-7.1
21
35.3
0
LINE
8
BLACK
6
CONTINUOUS
10
-7.1
20
35.3
11
-7.1
21
33.3
0
LINE
8
BLACK
6
CONTINUOUS
10
11.9
20
33.3
11
9.9
21
33.3
0
LINE
8
BLACK
6
CONTINUOUS
10
9.9
20
33.3
11
9.9
21
35.3
0
LINE
8
BLACK
6
CONTINUOUS
10
9.9
20
35.3
11
11.9
21
35.3
0
LINE
8
BLACK
6
CONTINUOUS
10
11.9
20
35.3
11
11.9
21
33.3
0
LINE
8
BLACK
6
CONTINUOUS
10
51.35
20
34.29
11
48.85
21
34.29
0
LINE
8
BLACK
6
CONTINUOUS
10
48.85
20
34.29
11
48.85
21
34.75
0
LINE
8
BLACK
6
CONTINUOUS
10
48.85
20
34.75
11
48.15
21
34.75
0
LINE
8
BLACK
6
CONTINUOUS
10
48.15
20
34.75
11
48.15
21
36.25
0
LINE
8
BLACK
6
CONTINUOUS
10
48.15
20
36.25
11
48.85
21
36.25
0
LINE
8
BLACK
6
CONTINUOUS
10
48.85
20
36.25
11
48.85
21
36.79
0
LINE
8
BLACK
6
CONTINUOUS
10
48.85
20
36.79
11
51.35
21
36.79
0
LINE
8
BLACK
6
CONTINUOUS
10
51.35
20
36.79
11
51.35
21
34.29
0
LINE
8
BLACK
6
CONTINUOUS
10
63.9
20
38.85
11
64.55
21
38.85
0
LINE
8
BLACK
6
CONTINUOUS
10
64.55
20
38.85
11
64.55
21
37.35
0
LINE
8
BLACK
6
CONTINUOUS
10
64.55
20
37.35
11
63.9
21
37.35
0
LINE
8
BLACK
6
CONTINUOUS
10
63.9
20
37.35
11
63.9
21
36.88
0
LINE
8
BLACK
6
CONTINUOUS
10
63.9
20
36.88
11
61.5
21
36.88
0
LINE
8
BLACK
6
CONTINUOUS
10
61.5
20
36.88
11
61.5
21
39.28
0
LINE
8
BLACK
6
CONTINUOUS
10
61.5
20
39.28
11
63.9
21
39.28
0
LINE
8
BLACK
6
CONTINUOUS
10
63.9
20
39.28
11
63.9
21
38.85
0
LINE
8
BLACK
6
CONTINUOUS
10
41.75
20
38.1
11
39.85
21
38.1
0
LINE
8
BLACK
6
CONTINUOUS
10
39.85
20
38.1
11
39.85
21
40.1
0
LINE
8
BLACK
6
CONTINUOUS
10
39.85
20
40.1
11
41.75
21
40.1
0
LINE
8
BLACK
6
CONTINUOUS
10
41.75
20
40.1
11
41.75
21
38.1
0
LINE
8
BLACK
6
CONTINUOUS
10
79.75
20
38.1
11
77.85
21
38.1
0
LINE
8
BLACK
6
CONTINUOUS
10
77.85
20
38.1
11
77.85
21
40.1
0
LINE
8
BLACK
6
CONTINUOUS
10
77.85
20
40.1
11
79.75
21
40.1
0
LINE
8
BLACK
6
CONTINUOUS
10
79.75
20
40.1
11
79.75
21
38.1
0
LINE
8
BLACK
6
CONTINUOUS
10
13.35
20
39.29
11
10.85
21
39.29
0
LINE
8
BLACK
6
CONTINUOUS
10
10.85
20
39.29
11
10.85
21
39.75
0
LINE
8
BLACK
6
CONTINUOUS
10
10.85
20
39.75
11
10.15
21
39.75
0
LINE
8
BLACK
6
CONTINUOUS
10
10.15
20
39.75
11
10.15
21
41.25
0
LINE
8
BLACK
6
CONTINUOUS
10
10.15
20
41.25
11
10.85
21
41.25
0
LINE
8
BLACK
6
CONTINUOUS
10
10.85
20
41.25
11
10.85
21
41.79
0
LINE
8
BLACK
6
CONTINUOUS
10
10.85
20
41.79
11
13.35
21
41.79
0
LINE
8
BLACK
6
CONTINUOUS
10
13.35
20
41.79
11
13.35
21
39.29
0
LINE
8
BLACK
6
CONTINUOUS
10
-5.65
20
39.29
11
-8.15
21
39.29
0
LINE
8
BLACK
6
CONTINUOUS
10
-8.15
20
39.29
11
-8.15
21
39.75
0
LINE
8
BLACK
6
CONTINUOUS
10
-8.15
20
39.75
11
-8.85
21
39.75
0
LINE
8
BLACK
6
CONTINUOUS
10
-8.85
20
39.75
11
-8.85
21
41.25
0
LINE
8
BLACK
6
CONTINUOUS
10
-8.85
20
41.25
11
-8.15
21
41.25
0
LINE
8
BLACK
6
CONTINUOUS
10
-8.15
20
41.25
11
-8.15
21
41.79
0
LINE
8
BLACK
6
CONTINUOUS
10
-8.15
20
41.79
11
-5.65
21
41.79
0
LINE
8
BLACK
6
CONTINUOUS
10
-5.65
20
41.79
11
-5.65
21
39.29
0
LINE
8
BLACK
6
CONTINUOUS
10
89.35
20
39.29
11
86.85
21
39.29
0
LINE
8
BLACK
6
CONTINUOUS
10
86.85
20
39.29
11
86.85
21
39.75
0
LINE
8
BLACK
6
CONTINUOUS
10
86.85
20
39.75
11
86.15
21
39.75
0
LINE
8
BLACK
6
CONTINUOUS
10
86.15
20
39.75
11
86.15
21
41.25
0
LINE
8
BLACK
6
CONTINUOUS
10
86.15
20
41.25
11
86.85
21
41.25
0
LINE
8
BLACK
6
CONTINUOUS
10
86.85
20
41.25
11
86.85
21
41.79
0
LINE
8
BLACK
6
CONTINUOUS
10
86.85
20
41.79
11
89.35
21
41.79
0
LINE
8
BLACK
6
CONTINUOUS
10
89.35
20
41.79
11
89.35
21
39.29
0
LINE
8
BLACK
6
CONTINUOUS
10
30.9
20
40.3
11
28.9
21
40.3
0
LINE
8
BLACK
6
CONTINUOUS
10
28.9
20
40.3
11
28.9
21
42.3
0
LINE
8
BLACK
6
CONTINUOUS
10
28.9
20
42.3
11
30.9
21
42.3
0
LINE
8
BLACK
6
CONTINUOUS
10
30.9
20
42.3
11
30.9
21
40.3
0
LINE
8
BLACK
6
CONTINUOUS
10
68.9
20
40.3
11
66.9
21
40.3
0
LINE
8
BLACK
6
CONTINUOUS
10
66.9
20
40.3
11
66.9
21
42.3
0
LINE
8
BLACK
6
CONTINUOUS
10
66.9
20
42.3
11
68.9
21
42.3
0
LINE
8
BLACK
6
CONTINUOUS
10
68.9
20
42.3
11
68.9
21
40.3
0
LINE
8
BLACK
6
CONTINUOUS
10
101.9
20
43.85
11
102.55
21
43.85
0
LINE
8
BLACK
6
CONTINUOUS
10
102.55
20
43.85
11
102.55
21
42.35
0
LINE
8
BLACK
6
CONTINUOUS
10
102.55
20
42.35
11
101.9
21
42.35
0
LINE
8
BLACK
6
CONTINUOUS
10
101.9
20
42.35
11
101.9
21
41.88
0
LINE
8
BLACK
6
CONTINUOUS
10
101.9
20
41.88
11
99.5
21
41.88
0
LINE
8
BLACK
6
CONTINUOUS
10
99.5
20
41.88
11
99.5
21
44.28
0
LINE
8
BLACK
6
CONTINUOUS
10
99.5
20
44.28
11
101.9
21
44.28
0
LINE
8
BLACK
6
CONTINUOUS
10
101.9
20
44.28
11
101.9
21
43.85
0
LINE
8
BLACK
6
CONTINUOUS
10
6.9
20
43.85
11
7.55
21
43.85
0
LINE
8
BLACK
6
CONTINUOUS
10
7.55
20
43.85
11
7.55
21
42.35
0
LINE
8
BLACK
6
CONTINUOUS
10
7.55
20
42.35
11
6.9
21
42.35
0
LINE
8
BLACK
6
CONTINUOUS
10
6.9
20
42.35
11
6.9
21
41.88
0
LINE
8
BLACK
6
CONTINUOUS
10
6.9
20
41.88
11
4.5
21
41.88
0
LINE
8
BLACK
6
CONTINUOUS
10
4.5
20
41.88
11
4.5
21
44.28
0
LINE
8
BLACK
6
CONTINUOUS
10
4.5
20
44.28
11
6.9
21
44.28
0
LINE
8
BLACK
6
CONTINUOUS
10
6.9
20
44.28
11
6.9
21
43.85
0
LINE
8
BLACK
6
CONTINUOUS
10
25.9
20
43.85
11
26.55
21
43.85
0
LINE
8
BLACK
6
CONTINUOUS
10
26.55
20
43.85
11
26.55
21
42.35
0
LINE
8
BLACK
6
CONTINUOUS
10
26.55
20
42.35
11
25.9
21
42.35
0
LINE
8
BLACK
6
CONTINUOUS
10
25.9
20
42.35
11
25.9
21
41.88
0
LINE
8
BLACK
6
CONTINUOUS
10
25.9
20
41.88
11
23.5
21
41.88
0
LINE
8
BLACK
6
CONTINUOUS
10
23.5
20
41.88
11
23.5
21
44.28
0
LINE
8
BLACK
6
CONTINUOUS
10
23.5
20
44.28
11
25.9
21
44.28
0
LINE
8
BLACK
6
CONTINUOUS
10
25.9
20
44.28
11
25.9
21
43.85
0
LINE
8
BLACK
6
CONTINUOUS
10
60.75
20
45.1
11
58.85
21
45.1
0
LINE
8
BLACK
6
CONTINUOUS
10
58.85
20
45.1
11
58.85
21
47.1
0
LINE
8
BLACK
6
CONTINUOUS
10
58.85
20
47.1
11
60.75
21
47.1
0
LINE
8
BLACK
6
CONTINUOUS
10
60.75
20
47.1
11
60.75
21
45.1
0
LINE
8
BLACK
6
CONTINUOUS
10
32.35
20
46.29
11
29.85
21
46.29
0
LINE
8
BLACK
6
CONTINUOUS
10
29.85
20
46.29
11
29.85
21
46.75
0
LINE
8
BLACK
6
CONTINUOUS
10
29.85
20
46.75
11
29.15
21
46.75
0
LINE
8
BLACK
6
CONTINUOUS
10
29.15
20
46.75
11
29.15
21
48.25
0
LINE
8
BLACK
6
CONTINUOUS
10
29.15
20
48.25
11
29.85
21
48.25
0
LINE
8
BLACK
6
CONTINUOUS
10
29.85
20
48.25
11
29.85
21
48.79
0
LINE
8
BLACK
6
CONTINUOUS
10
29.85
20
48.79
11
32.35
21
48.79
0
LINE
8
BLACK
6
CONTINUOUS
10
32.35
20
48.79
11
32.35
21
46.29
0
LINE
8
BLACK
6
CONTINUOUS
10
70.35
20
46.29
11
67.85
21
46.29
0
LINE
8
BLACK
6
CONTINUOUS
10
67.85
20
46.29
11
67.85
21
46.75
0
LINE
8
BLACK
6
CONTINUOUS
10
67.85
20
46.75
11
67.15
21
46.75
0
LINE
8
BLACK
6
CONTINUOUS
10
67.15
20
46.75
11
67.15
21
48.25
0
LINE
8
BLACK
6
CONTINUOUS
10
67.15
20
48.25
11
67.85
21
48.25
0
LINE
8
BLACK
6
CONTINUOUS
10
67.85
20
48.25
11
67.85
21
48.79
0
LINE
8
BLACK
6
CONTINUOUS
10
67.85
20
48.79
11
70.35
21
48.79
0
LINE
8
BLACK
6
CONTINUOUS
10
70.35
20
48.79
11
70.35
21
46.29
0
LINE
8
BLACK
6
CONTINUOUS
10
49.9
20
47.3
11
47.9
21
47.3
0
LINE
8
BLACK
6
CONTINUOUS
10
47.9
20
47.3
11
47.9
21
49.3
0
LINE
8
BLACK
6
CONTINUOUS
10
47.9
20
49.3
11
49.9
21
49.3
0
LINE
8
BLACK
6
CONTINUOUS
10
49.9
20
49.3
11
49.9
21
47.3
0
LINE
8
BLACK
6
CONTINUOUS
10
82.9
20
50.85
11
83.55
21
50.85
0
LINE
8
BLACK
6
CONTINUOUS
10
83.55
20
50.85
11
83.55
21
49.35
0
LINE
8
BLACK
6
CONTINUOUS
10
83.55
20
49.35
11
82.9
21
49.35
0
LINE
8
BLACK
6
CONTINUOUS
10
82.9
20
49.35
11
82.9
21
48.88
0
LINE
8
BLACK
6
CONTINUOUS
10
82.9
20
48.88
11
80.5
21
48.88
0
LINE
8
BLACK
6
CONTINUOUS
10
80.5
20
48.88
11
80.5
21
51.28
0
LINE
8
BLACK
6
CONTINUOUS
10
80.5
20
51.28
11
82.9
21
51.28
0
LINE
8
BLACK
6
CONTINUOUS
10
82.9
20
51.28
11
82.9
21
50.85
0
LINE
8
BLACK
6
CONTINUOUS
10
44.9
20
50.85
11
45.55
21
50.85
0
LINE
8
BLACK
6
CONTINUOUS
10
45.55
20
50.85
11
45.55
21
49.35
0
LINE
8
BLACK
6
CONTINUOUS
10
45.55
20
49.35
11
44.9
21
49.35
0
LINE
8
BLACK
6
CONTINUOUS
10
44.9
20
49.35
11
44.9
21
48.88
0
LINE
8
BLACK
6
CONTINUOUS
10
44.9
20
48.88
11
42.5
21
48.88
0
LINE
8
BLACK
6
CONTINUOUS
10
42.5
20
48.88
11
42.5
21
51.28
0
LINE
8
BLACK
6
CONTINUOUS
10
42.5
20
51.28
11
44.9
21
51.28
0
LINE
8
BLACK
6
CONTINUOUS
10
44.9
20
51.28
11
44.9
21
50.85
0
LINE
8
BLACK
6
CONTINUOUS
10
3.75
20
50.1
11
1.85
21
50.1
0
LINE
8
BLACK
6
CONTINUOUS
10
1.85
20
50.1
11
1.85
21
52.1
0
LINE
8
BLACK
6
CONTINUOUS
10
1.85
20
52.1
11
3.75
21
52.1
0
LINE
8
BLACK
6
CONTINUOUS
10
3.75
20
52.1
11
3.75
21
50.1
0
LINE
8
BLACK
6
CONTINUOUS
10
22.75
20
50.1
11
20.85
21
50.1
0
LINE
8
BLACK
6
CONTINUOUS
10
20.85
20
50.1
11
20.85
21
52.1
0
LINE
8
BLACK
6
CONTINUOUS
10
20.85
20
52.1
11
22.75
21
52.1
0
LINE
8
BLACK
6
CONTINUOUS
10
22.75
20
52.1
11
22.75
21
50.1
0
LINE
8
BLACK
6
CONTINUOUS
10
98.75
20
50.1
11
96.85
21
50.1
0
LINE
8
BLACK
6
CONTINUOUS
10
96.85
20
50.1
11
96.85
21
52.1
0
LINE
8
BLACK
6
CONTINUOUS
10
96.85
20
52.1
11
98.75
21
52.1
0
LINE
8
BLACK
6
CONTINUOUS
10
98.75
20
52.1
11
98.75
21
50.1
0
LINE
8
BLACK
6
CONTINUOUS
10
-7.1
20
52.3
11
-9.1
21
52.3
0
LINE
8
BLACK
6
CONTINUOUS
10
-9.1
20
52.3
11
-9.1
21
54.3
0
LINE
8
BLACK
6
CONTINUOUS
10
-9.1
20
54.3
11
-7.1
21
54.3
0
LINE
8
BLACK
6
CONTINUOUS
10
-7.1
20
54.3
11
-7.1
21
52.3
0
LINE
8
BLACK
6
CONTINUOUS
10
11.9
20
52.3
11
9.9
21
52.3
0
LINE
8
BLACK
6
CONTINUOUS
10
9.9
20
52.3
11
9.9
21
54.3
0
LINE
8
BLACK
6
CONTINUOUS
10
9.9
20
54.3
11
11.9
21
54.3
0
LINE
8
BLACK
6
CONTINUOUS
10
11.9
20
54.3
11
11.9
21
52.3
0
LINE
8
BLACK
6
CONTINUOUS
10
87.9
20
52.3
11
85.9
21
52.3
0
LINE
8
BLACK
6
CONTINUOUS
10
85.9
20
52.3
11
85.9
21
54.3
0
LINE
8
BLACK
6
CONTINUOUS
10
85.9
20
54.3
11
87.9
21
54.3
0
LINE
8
BLACK
6
CONTINUOUS
10
87.9
20
54.3
11
87.9
21
52.3
0
LINE
8
BLACK
6
CONTINUOUS
10
51.35
20
53.29
11
48.85
21
53.29
0
LINE
8
BLACK
6
CONTINUOUS
10
48.85
20
53.29
11
48.85
21
53.75
0
LINE
8
BLACK
6
CONTINUOUS
10
48.85
20
53.75
11
48.15
21
53.75
0
LINE
8
BLACK
6
CONTINUOUS
10
48.15
20
53.75
11
48.15
21
55.25
0
LINE
8
BLACK
6
CONTINUOUS
10
48.15
20
55.25
11
48.85
21
55.25
0
LINE
8
BLACK
6
CONTINUOUS
10
48.85
20
55.25
11
48.85
21
55.79
0
LINE
8
BLACK
6
CONTINUOUS
10
48.85
20
55.79
11
51.35
21
55.79
0
LINE
8
BLACK
6
CONTINUOUS
10
51.35
20
55.79
11
51.35
21
53.29
0
LINE
8
BLACK
6
CONTINUOUS
10
63.9
20
57.85
11
64.55
21
57.85
0
LINE
8
BLACK
6
CONTINUOUS
10
64.55
20
57.85
11
64.55
21
56.35
0
LINE
8
BLACK
6
CONTINUOUS
10
64.55
20
56.35
11
63.9
21
56.35
0
LINE
8
BLACK
6
CONTINUOUS
10
63.9
20
56.35
11
63.9
21
55.88
0
LINE
8
BLACK
6
CONTINUOUS
10
63.9
20
55.88
11
61.5
21
55.88
0
LINE
8
BLACK
6
CONTINUOUS
10
61.5
20
55.88
11
61.5
21
58.28
0
LINE
8
BLACK
6
CONTINUOUS
10
61.5
20
58.28
11
63.9
21
58.28
0
LINE
8
BLACK
6
CONTINUOUS
10
63.9
20
58.28
11
63.9
21
57.85
0
LINE
8
BLACK
6
CONTINUOUS
10
79.75
20
57.1
11
77.85
21
57.1
0
LINE
8
BLACK
6
CONTINUOUS
10
77.85
20
57.1
11
77.85
21
59.1
0
LINE
8
BLACK
6
CONTINUOUS
10
77.85
20
59.1
11
79.75
21
59.1
0
LINE
8
BLACK
6
CONTINUOUS
10
79.75
20
59.1
11
79.75
21
57.1
0
LINE
8
BLACK
6
CONTINUOUS
10
41.75
20
57.1
11
39.85
21
57.1
0
LINE
8
BLACK
6
CONTINUOUS
10
39.85
20
57.1
11
39.85
21
59.1
0
LINE
8
BLACK
6
CONTINUOUS
10
39.85
20
59.1
11
41.75
21
59.1
0
LINE
8
BLACK
6
CONTINUOUS
10
41.75
20
59.1
11
41.75
21
57.1
0
LINE
8
BLACK
6
CONTINUOUS
10
89.35
20
58.29
11
86.85
21
58.29
0
LINE
8
BLACK
6
CONTINUOUS
10
86.85
20
58.29
11
86.85
21
58.75
0
LINE
8
BLACK
6
CONTINUOUS
10
86.85
20
58.75
11
86.15
21
58.75
0
LINE
8
BLACK
6
CONTINUOUS
10
86.15
20
58.75
11
86.15
21
60.25
0
LINE
8
BLACK
6
CONTINUOUS
10
86.15
20
60.25
11
86.85
21
60.25
0
LINE
8
BLACK
6
CONTINUOUS
10
86.85
20
60.25
11
86.85
21
60.79
0
LINE
8
BLACK
6
CONTINUOUS
10
86.85
20
60.79
11
89.35
21
60.79
0
LINE
8
BLACK
6
CONTINUOUS
10
89.35
20
60.79
11
89.35
21
58.29
0
LINE
8
BLACK
6
CONTINUOUS
10
-5.65
20
58.29
11
-8.15
21
58.29
0
LINE
8
BLACK
6
CONTINUOUS
10
-8.15
20
58.29
11
-8.15
21
58.75
0
LINE
8
BLACK
6
CONTINUOUS
10
-8.15
20
58.75
11
-8.85
21
58.75
0
LINE
8
BLACK
6
CONTINUOUS
10
-8.85
20
58.75
11
-8.85
21
60.25
0
LINE
8
BLACK
6
CONTINUOUS
10
-8.85
20
60.25
11
-8.15
21
60.25
0
LINE
8
BLACK
6
CONTINUOUS
10
-8.15
20
60.25
11
-8.15
21
60.79
0
LINE
8
BLACK
6
CONTINUOUS
10
-8.15
20
60.79
11
-5.65
21
60.79
0
LINE
8
BLACK
6
CONTINUOUS
10
-5.65
20
60.79
11
-5.65
21
58.29
0
LINE
8
BLACK
6
CONTINUOUS
10
13.35
20
58.29
11
10.85
21
58.29
0
LINE
8
BLACK
6
CONTINUOUS
10
10.85
20
58.29
11
10.85
21
58.75
0
LINE
8
BLACK
6
CONTINUOUS
10
10.85
20
58.75
11
10.15
21
58.75
0
LINE
8
BLACK
6
CONTINUOUS
10
10.15
20
58.75
11
10.15
21
60.25
0
LINE
8
BLACK
6
CONTINUOUS
10
10.15
20
60.25
11
10.85
21
60.25
0
LINE
8
BLACK
6
CONTINUOUS
10
10.85
20
60.25
11
10.85
21
60.79
0
LINE
8
BLACK
6
CONTINUOUS
10
10.85
20
60.79
11
13.35
21
60.79
0
LINE
8
BLACK
6
CONTINUOUS
10
13.35
20
60.79
11
13.35
21
58.29
0
LINE
8
BLACK
6
CONTINUOUS
10
30.9
20
59.3
11
28.9
21
59.3
0
LINE
8
BLACK
6
CONTINUOUS
10
28.9
20
59.3
11
28.9
21
61.3
0
LINE
8
BLACK
6
CONTINUOUS
10
28.9
20
61.3
11
30.9
21
61.3
0
LINE
8
BLACK
6
CONTINUOUS
10
30.9
20
61.3
11
30.9
21
59.3
0
LINE
8
BLACK
6
CONTINUOUS
10
68.9
20
59.3
11
66.9
21
59.3
0
LINE
8
BLACK
6
CONTINUOUS
10
66.9
20
59.3
11
66.9
21
61.3
0
LINE
8
BLACK
6
CONTINUOUS
10
66.9
20
61.3
11
68.9
21
61.3
0
LINE
8
BLACK
6
CONTINUOUS
10
68.9
20
61.3
11
68.9
21
59.3
0
LINE
8
BLACK
6
CONTINUOUS
10
101.9
20
62.85
11
102.55
21
62.85
0
LINE
8
BLACK
6
CONTINUOUS
10
102.55
20
62.85
11
102.55
21
61.35
0
LINE
8
BLACK
6
CONTINUOUS
10
102.55
20
61.35
11
101.9
21
61.35
0
LINE
8
BLACK
6
CONTINUOUS
10
101.9
20
61.35
11
101.9
21
60.88
0
LINE
8
BLACK
6
CONTINUOUS
10
101.9
20
60.88
11
99.5
21
60.88
0
LINE
8
BLACK
6
CONTINUOUS
10
99.5
20
60.88
11
99.5
21
63.28
0
LINE
8
BLACK
6
CONTINUOUS
10
99.5
20
63.28
11
101.9
21
63.28
0
LINE
8
BLACK
6
CONTINUOUS
10
101.9
20
63.28
11
101.9
21
62.85
0
LINE
8
BLACK
6
CONTINUOUS
10
25.9
20
62.85
11
26.55
21
62.85
0
LINE
8
BLACK
6
CONTINUOUS
10
26.55
20
62.85
11
26.55
21
61.35
0
LINE
8
BLACK
6
CONTINUOUS
10
26.55
20
61.35
11
25.9
21
61.35
0
LINE
8
BLACK
6
CONTINUOUS
10
25.9
20
61.35
11
25.9
21
60.88
0
LINE
8
BLACK
6
CONTINUOUS
10
25.9
20
60.88
11
23.5
21
60.88
0
LINE
8
BLACK
6
CONTINUOUS
10
23.5
20
60.88
11
23.5
21
63.28
0
LINE
8
BLACK
6
CONTINUOUS
10
23.5
20
63.28
11
25.9
21
63.28
0
LINE
8
BLACK
6
CONTINUOUS
10
25.9
20
63.28
11
25.9
21
62.85
0
LINE
8
BLACK
6
CONTINUOUS
10
6.9
20
62.85
11
7.55
21
62.85
0
LINE
8
BLACK
6
CONTINUOUS
10
7.55
20
62.85
11
7.55
21
61.35
0
LINE
8
BLACK
6
CONTINUOUS
10
7.55
20
61.35
11
6.9
21
61.35
0
LINE
8
BLACK
6
CONTINUOUS
10
6.9
20
61.35
11
6.9
21
60.88
0
LINE
8
BLACK
6
CONTINUOUS
10
6.9
20
60.88
11
4.5
21
60.88
0
LINE
8
BLACK
6
CONTINUOUS
10
4.5
20
60.88
11
4.5
21
63.28
0
LINE
8
BLACK
6
CONTINUOUS
10
4.5
20
63.28
11
6.9
21
63.28
0
LINE
8
BLACK
6
CONTINUOUS
10
6.9
20
63.28
11
6.9
21
62.85
0
LINE
8
BLACK
6
CONTINUOUS
10
60.75
20
64.1
11
58.85
21
64.1
0
LINE
8
BLACK
6
CONTINUOUS
10
58.85
20
64.1
11
58.85
21
66.1
0
LINE
8
BLACK
6
CONTINUOUS
10
58.85
20
66.1
11
60.75
21
66.1
0
LINE
8
BLACK
6
CONTINUOUS
10
60.75
20
66.1
11
60.75
21
64.1
0
LINE
8
BLACK
6
CONTINUOUS
10
32.35
20
65.29
11
29.85
21
65.29
0
LINE
8
BLACK
6
CONTINUOUS
10
29.85
20
65.29
11
29.85
21
65.75
0
LINE
8
BLACK
6
CONTINUOUS
10
29.85
20
65.75
11
29.15
21
65.75
0
LINE
8
BLACK
6
CONTINUOUS
10
29.15
20
65.75
11
29.15
21
67.25
0
LINE
8
BLACK
6
CONTINUOUS
10
29.15
20
67.25
11
29.85
21
67.25
0
LINE
8
BLACK
6
CONTINUOUS
10
29.85
20
67.25
11
29.85
21
67.79
0
LINE
8
BLACK
6
CONTINUOUS
10
29.85
20
67.79
11
32.35
21
67.79
0
LINE
8
BLACK
6
CONTINUOUS
10
32.35
20
67.79
11
32.35
21
65.29
0
LINE
8
BLACK
6
CONTINUOUS
10
70.35
20
65.29
11
67.85
21
65.29
0
LINE
8
BLACK
6
CONTINUOUS
10
67.85
20
65.29
11
67.85
21
65.75
0
LINE
8
BLACK
6
CONTINUOUS
10
67.85
20
65.75
11
67.15
21
65.75
0
LINE
8
BLACK
6
CONTINUOUS
10
67.15
20
65.75
11
67.15
21
67.25
0
LINE
8
BLACK
6
CONTINUOUS
10
67.15
20
67.25
11
67.85
21
67.25
0
LINE
8
BLACK
6
CONTINUOUS
10
67.85
20
67.25
11
67.85
21
67.79
0
LINE
8
BLACK
6
CONTINUOUS
10
67.85
20
67.79
11
70.35
21
67.79
0
LINE
8
BLACK
6
CONTINUOUS
10
70.35
20
67.79
11
70.35
21
65.29
0
LINE
8
BLACK
6
CONTINUOUS
10
49.9
20
66.3
11
47.9
21
66.3
0
LINE
8
BLACK
6
CONTINUOUS
10
47.9
20
66.3
11
47.9
21
68.3
0
LINE
8
BLACK
6
CONTINUOUS
10
47.9
20
68.3
11
49.9
21
68.3
0
LINE
8
BLACK
6
CONTINUOUS
10
49.9
20
68.3
11
49.9
21
66.3
0
LINE
8
BLACK
6
CONTINUOUS
10
44.9
20
69.85
11
45.55
21
69.85
0
LINE
8
BLACK
6
CONTINUOUS
10
45.55
20
69.85
11
45.55
21
68.35
0
LINE
8
BLACK
6
CONTINUOUS
10
45.55
20
68.35
11
44.9
21
68.35
0
LINE
8
BLACK
6
CONTINUOUS
10
44.9
20
68.35
11
44.9
21
67.88
0
LINE
8
BLACK
6
CONTINUOUS
10
44.9
20
67.88
11
42.5
21
67.88
0
LINE
8
BLACK
6
CONTINUOUS
10
42.5
20
67.88
11
42.5
21
70.28
0
LINE
8
BLACK
6
CONTINUOUS
10
42.5
20
70.28
11
44.9
21
70.28
0
LINE
8
BLACK
6
CONTINUOUS
10
44.9
20
70.28
11
44.9
21
69.85
0
LINE
8
BLACK
6
CONTINUOUS
10
82.9
20
69.85
11
83.55
21
69.85
0
LINE
8
BLACK
6
CONTINUOUS
10
83.55
20
69.85
11
83.55
21
68.35
0
LINE
8
BLACK
6
CONTINUOUS
10
83.55
20
68.35
11
82.9
21
68.35
0
LINE
8
BLACK
6
CONTINUOUS
10
82.9
20
68.35
11
82.9
21
67.88
0
LINE
8
BLACK
6
CONTINUOUS
10
82.9
20
67.88
11
80.5
21
67.88
0
LINE
8
BLACK
6
CONTINUOUS
10
80.5
20
67.88
11
80.5
21
70.28
0
LINE
8
BLACK
6
CONTINUOUS
10
80.5
20
70.28
11
82.9
21
70.28
0
LINE
8
BLACK
6
CONTINUOUS
10
82.9
20
70.28
11
82.9
21
69.85
0
LINE
8
BLACK
6
CONTINUOUS
10
51.35
20
72.29
11
48.85
21
72.29
0
LINE
8
BLACK
6
CONTINUOUS
10
48.85
20
72.29
11
48.85
21
72.75
0
LINE
8
BLACK
6
CONTINUOUS
10
48.85
20
72.75
11
48.15
21
72.75
0
LINE
8
BLACK
6
CONTINUOUS
10
48.15
20
72.75
11
48.15
21
74.25
0
LINE
8
BLACK
6
CONTINUOUS
10
48.15
20
74.25
11
48.85
21
74.25
0
LINE
8
BLACK
6
CONTINUOUS
10
48.85
20
74.25
11
48.85
21
74.79
0
LINE
8
BLACK
6
CONTINUOUS
10
48.85
20
74.79
11
51.35
21
74.79
0
LINE
8
BLACK
6
CONTINUOUS
10
51.35
20
74.79
11
51.35
21
72.29
0
LINE
8
BLACK
6
CONTINUOUS
10
63.9
20
76.85
11
64.55
21
76.85
0
LINE
8
BLACK
6
CONTINUOUS
10
64.55
20
76.85
11
64.55
21
75.35
0
LINE
8
BLACK
6
CONTINUOUS
10
64.55
20
75.35
11
63.9
21
75.35
0
LINE
8
BLACK
6
CONTINUOUS
10
63.9
20
75.35
11
63.9
21
74.88
0
LINE
8
BLACK
6
CONTINUOUS
10
63.9
20
74.88
11
61.5
21
74.88
0
LINE
8
BLACK
6
CONTINUOUS
10
61.5
20
74.88
11
61.5
21
77.28
0
LINE
8
BLACK
6
CONTINUOUS
10
61.5
20
77.28
11
63.9
21
77.28
0
LINE
8
BLACK
6
CONTINUOUS
10
63.9
20
77.28
11
63.9
21
76.85
  0
ENDSEC
  0
EOF
