0
SECTION
2
HEADER
9
$INSUNITS
70
4
0
ENDSEC
0
SECTION
2
TABLES
0
TABLE
2
LTYPE
0
LTYPE
72
65
70
64
2
CONTINUOUS
3
______
73
0
40
0
0
ENDTAB
0
TABLE
2
LAYER
0
ENDTAB
0
ENDSEC
0
SECTION
2
ENTITIES
0
LINE
8
0
10
-8.75
20
-8.25
11
8.75
21
-8.25
0
LINE
8
0
10
8.75
20
-8.25
11
8.75
21
8.25
0
LINE
8
0
10
8.75
20
8.25
11
-8.75
21
8.25
0
LINE
8
0
10
-8.75
20
8.25
11
-8.75
21
-8.25
0
LINE
8
0
10
-8.75
20
10.75
11
8.75
21
10.75
0
LINE
8
0
10
8.75
20
10.75
11
8.75
21
27.25
0
LINE
8
0
10
8.75
20
27.25
11
-8.75
21
27.25
0
LINE
8
0
10
-8.75
20
27.25
11
-8.75
21
10.75
0
LINE
8
0
10
-8.75
20
29.75
11
8.75
21
29.75
0
LINE
8
0
10
8.75
20
29.75
11
8.75
21
46.25
0
LINE
8
0
10
8.75
20
46.25
11
-8.75
21
46.25
0
LINE
8
0
10
-8.75
20
46.25
11
-8.75
21
29.75
0
LINE
8
0
10
-8.75
20
48.75
11
8.75
21
48.75
0
LINE
8
0
10
8.75
20
48.75
11
8.75
21
65.25
0
LINE
8
0
10
8.75
20
65.25
11
-8.75
21
65.25
0
LINE
8
0
10
-8.75
20
65.25
11
-8.75
21
48.75
0
LINE
8
0
10
10.25
20
-8.25
11
27.75
21
-8.25
0
LINE
8
0
10
27.75
20
-8.25
11
27.75
21
8.25
0
LINE
8
0
10
27.75
20
8.25
11
10.25
21
8.25
0
LINE
8
0
10
10.25
20
8.25
11
10.25
21
-8.25
0
LINE
8
0
10
10.25
20
10.75
11
27.75
21
10.75
0
LINE
8
0
10
27.75
20
10.75
11
27.75
21
27.25
0
LINE
8
0
10
27.75
20
27.25
11
10.25
21
27.25
0
LINE
8
0
10
10.25
20
27.25
11
10.25
21
10.75
0
LINE
8
0
10
10.25
20
29.75
11
27.75
21
29.75
0
LINE
8
0
10
27.75
20
29.75
11
27.75
21
46.25
0
LINE
8
0
10
27.75
20
46.25
11
10.25
21
46.25
0
LINE
8
0
10
10.25
20
46.25
11
10.25
21
29.75
0
LINE
8
0
10
10.25
20
48.75
11
27.75
21
48.75
0
LINE
8
0
10
27.75
20
48.75
11
27.75
21
65.25
0
LINE
8
0
10
27.75
20
65.25
11
10.25
21
65.25
0
LINE
8
0
10
10.25
20
65.25
11
10.25
21
48.75
0
LINE
8
0
10
29.25
20
-1.25
11
46.75
21
-1.25
0
LINE
8
0
10
46.75
20
-1.25
11
46.75
21
15.25
0
LINE
8
0
10
46.75
20
15.25
11
29.25
21
15.25
0
LINE
8
0
10
29.25
20
15.25
11
29.25
21
-1.25
0
LINE
8
0
10
29.25
20
17.75
11
46.75
21
17.75
0
LINE
8
0
10
46.75
20
17.75
11
46.75
21
34.25
0
LINE
8
0
10
46.75
20
34.25
11
29.25
21
34.25
0
LINE
8
0
10
29.25
20
34.25
11
29.25
21
17.75
0
LINE
8
0
10
29.25
20
36.75
11
46.75
21
36.75
0
LINE
8
0
10
46.75
20
36.75
11
46.75
21
53.25
0
LINE
8
0
10
46.75
20
53.25
11
29.25
21
53.25
0
LINE
8
0
10
29.25
20
53.25
11
29.25
21
36.75
0
LINE
8
0
10
29.25
20
55.75
11
46.75
21
55.75
0
LINE
8
0
10
46.75
20
55.75
11
46.75
21
72.25
0
LINE
8
0
10
46.75
20
72.25
11
29.25
21
72.25
0
LINE
8
0
10
29.25
20
72.25
11
29.25
21
55.75
0
LINE
8
0
10
48.25
20
5.75
11
65.75
21
5.75
0
LINE
8
0
10
65.75
20
5.75
11
65.75
21
22.25
0
LINE
8
0
10
65.75
20
22.25
11
48.25
21
22.25
0
LINE
8
0
10
48.25
20
22.25
11
48.25
21
5.75
0
LINE
8
0
10
48.25
20
24.75
11
65.75
21
24.75
0
LINE
8
0
10
65.75
20
24.75
11
65.75
21
41.25
0
LINE
8
0
10
65.75
20
41.25
11
48.25
21
41.25
0
LINE
8
0
10
48.25
20
41.25
11
48.25
21
24.75
0
LINE
8
0
10
48.25
20
43.75
11
65.75
21
43.75
0
LINE
8
0
10
65.75
20
43.75
11
65.75
21
60.25
0
LINE
8
0
10
65.75
20
60.25
11
48.25
21
60.25
0
LINE
8
0
10
48.25
20
60.25
11
48.25
21
43.75
0
LINE
8
0
10
48.25
20
62.75
11
65.75
21
62.75
0
LINE
8
0
10
65.75
20
62.75
11
65.75
21
79.25
0
LINE
8
0
10
65.75
20
79.25
11
48.25
21
79.25
0
LINE
8
0
10
48.25
20
79.25
11
48.25
21
62.75
0
LINE
8
0
10
67.25
20
-1.25
11
84.75
21
-1.25
0
LINE
8
0
10
84.75
20
-1.25
11
84.75
21
15.25
0
LINE
8
0
10
84.75
20
15.25
11
67.25
21
15.25
0
LINE
8
0
10
67.25
20
15.25
11
67.25
21
-1.25
0
LINE
8
0
10
67.25
20
17.75
11
84.75
21
17.75
0
LINE
8
0
10
84.75
20
17.75
11
84.75
21
34.25
0
LINE
8
0
10
84.75
20
34.25
11
67.25
21
34.25
0
LINE
8
0
10
67.25
20
34.25
11
67.25
21
17.75
0
LINE
8
0
10
67.25
20
36.75
11
84.75
21
36.75
0
LINE
8
0
10
84.75
20
36.75
11
84.75
21
53.25
0
LINE
8
0
10
84.75
20
53.25
11
67.25
21
53.25
0
LINE
8
0
10
67.25
20
53.25
11
67.25
21
36.75
0
LINE
8
0
10
67.25
20
55.75
11
84.75
21
55.75
0
LINE
8
0
10
84.75
20
55.75
11
84.75
21
72.25
0
LINE
8
0
10
84.75
20
72.25
11
67.25
21
72.25
0
LINE
8
0
10
67.25
20
72.25
11
67.25
21
55.75
0
LINE
8
0
10
86.25
20
-8.25
11
103.75
21
-8.25
0
LINE
8
0
10
103.75
20
-8.25
11
103.75
21
8.25
0
LINE
8
0
10
103.75
20
8.25
11
86.25
21
8.25
0
LINE
8
0
10
86.25
20
8.25
11
86.25
21
-8.25
0
LINE
8
0
10
86.25
20
10.75
11
103.75
21
10.75
0
LINE
8
0
10
103.75
20
10.75
11
103.75
21
27.25
0
LINE
8
0
10
103.75
20
27.25
11
86.25
21
27.25
0
LINE
8
0
10
86.25
20
27.25
11
86.25
21
10.75
0
LINE
8
0
10
86.25
20
29.75
11
103.75
21
29.75
0
LINE
8
0
10
103.75
20
29.75
11
103.75
21
46.25
0
LINE
8
0
10
103.75
20
46.25
11
86.25
21
46.25
0
LINE
8
0
10
86.25
20
46.25
11
86.25
21
29.75
0
LINE
8
0
10
86.25
20
48.75
11
103.75
21
48.75
0
LINE
8
0
10
103.75
20
48.75
11
103.75
21
65.25
0
LINE
8
0
10
103.75
20
65.25
11
86.25
21
65.25
0
LINE
8
0
10
86.25
20
65.25
11
86.25
21
48.75
0
LINE
8
0
10
42.25
20
-21.25
11
59.75
21
-21.25
0
LINE
8
0
10
59.75
20
-21.25
11
59.75
21
-4.75
0
LINE
8
0
10
59.75
20
-4.75
11
42.25
21
-4.75
0
LINE
8
0
10
42.25
20
-4.75
11
42.25
21
-21.25
0
LINE
8
0
10
61.25
20
-21.25
11
78.75
21
-21.25
0
LINE
8
0
10
78.75
20
-21.25
11
78.75
21
-4.75
0
LINE
8
0
10
78.75
20
-4.75
11
61.25
21
-4.75
0
LINE
8
0
10
61.25
20
-4.75
11
61.25
21
-21.25
0
LINE
8
0
10
80.25
20
-28.25
11
97.75
21
-28.25
0
LINE
8
0
10
97.75
20
-28.25
11
97.75
21
-11.75
0
LINE
8
0
10
97.75
20
-11.75
11
80.25
21
-11.75
0
LINE
8
0
10
80.25
20
-11.75
11
80.25
21
-28.25
0
LINE
8
0
10
105.25
20
6.75
11
122.75
21
6.75
0
LINE
8
0
10
122.75
20
6.75
11
122.75
21
23.25
0
LINE
8
0
10
122.75
20
23.25
11
105.25
21
23.25
0
LINE
8
0
10
105.25
20
23.25
11
105.25
21
6.75
0
LINE
8
0
10
102.5832062
20
-18.7791295
11
118.4435925
21
-26.174949
0
LINE
8
0
10
118.4435925
20
-26.174949
11
125.4167938
21
-11.2208705
0
LINE
8
0
10
125.4167938
20
-11.2208705
11
109.5564075
21
-3.825051
0
LINE
8
0
10
109.5564075
20
-3.825051
11
102.5832062
21
-18.7791295
0
LINE
8
0
10
119.8814218
20
-27.4292496
11
131.1302049
21
-40.8350274
0
LINE
8
0
10
131.1302049
20
-40.8350274
11
143.7699382
21
-30.2290318
0
LINE
8
0
10
143.7699382
20
-30.2290318
11
132.5211551
21
-16.823254
0
LINE
8
0
10
132.5211551
20
-16.823254
11
119.8814218
21
-27.4292496
0
ENDSEC
0
EOF