0
SECTION
2
HEADER
9
$INSUNITS
70
4
0
ENDSEC
0
SECTION
2
TABLES
0
TABLE
2
LTYPE
0
LTYPE
72
65
70
64
2
CONTINUOUS
3
______
73
0
40
0
0
ENDTAB
0
TABLE
2
LAYER
0
ENDTAB
0
ENDSEC
0
SECTION
2
ENTITIES
0
LINE
8
0
10
141
20
-8.433987
11
141
21
25.5
0
LINE
8
0
10
-16.9740616
20
69
11
-17
21
69
0
LINE
8
0
10
-17
20
-10
11
-17
21
69
0
LINE
8
0
10
-10
20
-17
11
16.9249195
21
-17
0
LINE
8
0
10
20.7398383
20
-18.1308949
11
37.2601617
21
-28.8691051
0
LINE
8
0
10
41.0750805
20
-30
11
65.3698541
21
-30
0
LINE
8
0
10
69.9793863
20
-31.7319631
11
74.0206137
21
-35.2680369
0
LINE
8
0
10
78.6301459
20
-37
11
111.9203602
21
-37
0
LINE
8
0
10
117.2826712
20
-39.5004866
11
126.393119
21
-50.3578955
0
LINE
8
0
10
136.2549434
20
-51.2206931
11
153.4909434
21
-36.7579719
0
LINE
8
0
10
154.353741
20
-26.8961475
11
142.637689
21
-12.9335004
0
ARC
8
0
10
-10
20
-10
40
7
50
180
51
270
0
ARC
8
0
10
16.9249195
20
-24
40
7
50
56.9761296
51
90
0
ARC
8
0
10
41.0750805
20
-23
40
7
50
236.9761296
51
270
0
ARC
8
0
10
65.3698541
20
-37
40
7
50
48.8140754
51
90
0
ARC
8
0
10
78.6301459
20
-30
40
7
50
228.8140754
51
270
0
ARC
8
0
10
111.9203602
20
-44
40
7
50
40.0000012
51
90
0
ARC
8
0
10
131.75543
20
-45.8583821
40
7
50
220.0000012
51
310.0000012
0
ARC
8
0
10
148.99143
20
-31.3956609
40
7
50
310.0000012
51
40.0000012
0
ARC
8
0
10
148
20
-8.433987
40
7
50
180
51
220.0000012
0
ARC
8
0
10
62
20
-64
40
154.68
50
73.6666247
51
120.7014143
0
LINE
8
0
10
-7.05
20
-7.05
11
7.05
21
-7.05
0
LINE
8
0
10
7.05
20
-7.05
11
7.05
21
7.05
0
LINE
8
0
10
7.05
20
7.05
11
-7.05
21
7.05
0
LINE
8
0
10
-7.05
20
7.05
11
-7.05
21
-7.05
0
LINE
8
0
10
-7.05
20
11.95
11
7.05
21
11.95
0
LINE
8
0
10
7.05
20
11.95
11
7.05
21
26.05
0
LINE
8
0
10
7.05
20
26.05
11
-7.05
21
26.05
0
LINE
8
0
10
-7.05
20
26.05
11
-7.05
21
11.95
0
LINE
8
0
10
-7.05
20
30.95
11
7.05
21
30.95
0
LINE
8
0
10
7.05
20
30.95
11
7.05
21
45.05
0
LINE
8
0
10
7.05
20
45.05
11
-7.05
21
45.05
0
LINE
8
0
10
-7.05
20
45.05
11
-7.05
21
30.95
0
LINE
8
0
10
-7.05
20
49.95
11
7.05
21
49.95
0
LINE
8
0
10
7.05
20
49.95
11
7.05
21
64.05
0
LINE
8
0
10
7.05
20
64.05
11
-7.05
21
64.05
0
LINE
8
0
10
-7.05
20
64.05
11
-7.05
21
49.95
0
LINE
8
0
10
11.95
20
-7.05
11
26.05
21
-7.05
0
LINE
8
0
10
26.05
20
-7.05
11
26.05
21
7.05
0
LINE
8
0
10
26.05
20
7.05
11
11.95
21
7.05
0
LINE
8
0
10
11.95
20
7.05
11
11.95
21
-7.05
0
LINE
8
0
10
11.95
20
11.95
11
26.05
21
11.95
0
LINE
8
0
10
26.05
20
11.95
11
26.05
21
26.05
0
LINE
8
0
10
26.05
20
26.05
11
11.95
21
26.05
0
LINE
8
0
10
11.95
20
26.05
11
11.95
21
11.95
0
LINE
8
0
10
11.95
20
30.95
11
26.05
21
30.95
0
LINE
8
0
10
26.05
20
30.95
11
26.05
21
45.05
0
LINE
8
0
10
26.05
20
45.05
11
11.95
21
45.05
0
LINE
8
0
10
11.95
20
45.05
11
11.95
21
30.95
0
LINE
8
0
10
11.95
20
49.95
11
26.05
21
49.95
0
LINE
8
0
10
26.05
20
49.95
11
26.05
21
64.05
0
LINE
8
0
10
26.05
20
64.05
11
11.95
21
64.05
0
LINE
8
0
10
11.95
20
64.05
11
11.95
21
49.95
0
LINE
8
0
10
30.95
20
-0.05
11
45.05
21
-0.05
0
LINE
8
0
10
45.05
20
-0.05
11
45.05
21
14.05
0
LINE
8
0
10
45.05
20
14.05
11
30.95
21
14.05
0
LINE
8
0
10
30.95
20
14.05
11
30.95
21
-0.05
0
LINE
8
0
10
30.95
20
18.95
11
45.05
21
18.95
0
LINE
8
0
10
45.05
20
18.95
11
45.05
21
33.05
0
LINE
8
0
10
45.05
20
33.05
11
30.95
21
33.05
0
LINE
8
0
10
30.95
20
33.05
11
30.95
21
18.95
0
LINE
8
0
10
30.95
20
37.95
11
45.05
21
37.95
0
LINE
8
0
10
45.05
20
37.95
11
45.05
21
52.05
0
LINE
8
0
10
45.05
20
52.05
11
30.95
21
52.05
0
LINE
8
0
10
30.95
20
52.05
11
30.95
21
37.95
0
LINE
8
0
10
30.95
20
56.95
11
45.05
21
56.95
0
LINE
8
0
10
45.05
20
56.95
11
45.05
21
71.05
0
LINE
8
0
10
45.05
20
71.05
11
30.95
21
71.05
0
LINE
8
0
10
30.95
20
71.05
11
30.95
21
56.95
0
LINE
8
0
10
49.95
20
6.95
11
64.05
21
6.95
0
LINE
8
0
10
64.05
20
6.95
11
64.05
21
21.05
0
LINE
8
0
10
64.05
20
21.05
11
49.95
21
21.05
0
LINE
8
0
10
49.95
20
21.05
11
49.95
21
6.95
0
LINE
8
0
10
49.95
20
25.95
11
64.05
21
25.95
0
LINE
8
0
10
64.05
20
25.95
11
64.05
21
40.05
0
LINE
8
0
10
64.05
20
40.05
11
49.95
21
40.05
0
LINE
8
0
10
49.95
20
40.05
11
49.95
21
25.95
0
LINE
8
0
10
49.95
20
44.95
11
64.05
21
44.95
0
LINE
8
0
10
64.05
20
44.95
11
64.05
21
59.05
0
LINE
8
0
10
64.05
20
59.05
11
49.95
21
59.05
0
LINE
8
0
10
49.95
20
59.05
11
49.95
21
44.95
0
LINE
8
0
10
49.95
20
63.95
11
64.05
21
63.95
0
LINE
8
0
10
64.05
20
63.95
11
64.05
21
78.05
0
LINE
8
0
10
64.05
20
78.05
11
49.95
21
78.05
0
LINE
8
0
10
49.95
20
78.05
11
49.95
21
63.95
0
LINE
8
0
10
68.95
20
-0.05
11
83.05
21
-0.05
0
LINE
8
0
10
83.05
20
-0.05
11
83.05
21
14.05
0
LINE
8
0
10
83.05
20
14.05
11
68.95
21
14.05
0
LINE
8
0
10
68.95
20
14.05
11
68.95
21
-0.05
0
LINE
8
0
10
68.95
20
18.95
11
83.05
21
18.95
0
LINE
8
0
10
83.05
20
18.95
11
83.05
21
33.05
0
LINE
8
0
10
83.05
20
33.05
11
68.95
21
33.05
0
LINE
8
0
10
68.95
20
33.05
11
68.95
21
18.95
0
LINE
8
0
10
68.95
20
37.95
11
83.05
21
37.95
0
LINE
8
0
10
83.05
20
37.95
11
83.05
21
52.05
0
LINE
8
0
10
83.05
20
52.05
11
68.95
21
52.05
0
LINE
8
0
10
68.95
20
52.05
11
68.95
21
37.95
0
LINE
8
0
10
68.95
20
56.95
11
83.05
21
56.95
0
LINE
8
0
10
83.05
20
56.95
11
83.05
21
71.05
0
LINE
8
0
10
83.05
20
71.05
11
68.95
21
71.05
0
LINE
8
0
10
68.95
20
71.05
11
68.95
21
56.95
0
LINE
8
0
10
87.95
20
-7.05
11
102.05
21
-7.05
0
LINE
8
0
10
102.05
20
-7.05
11
102.05
21
7.05
0
LINE
8
0
10
102.05
20
7.05
11
87.95
21
7.05
0
LINE
8
0
10
87.95
20
7.05
11
87.95
21
-7.05
0
LINE
8
0
10
87.95
20
11.95
11
102.05
21
11.95
0
LINE
8
0
10
102.05
20
11.95
11
102.05
21
26.05
0
LINE
8
0
10
102.05
20
26.05
11
87.95
21
26.05
0
LINE
8
0
10
87.95
20
26.05
11
87.95
21
11.95
0
LINE
8
0
10
87.95
20
30.95
11
102.05
21
30.95
0
LINE
8
0
10
102.05
20
30.95
11
102.05
21
45.05
0
LINE
8
0
10
102.05
20
45.05
11
87.95
21
45.05
0
LINE
8
0
10
87.95
20
45.05
11
87.95
21
30.95
0
LINE
8
0
10
87.95
20
49.95
11
102.05
21
49.95
0
LINE
8
0
10
102.05
20
49.95
11
102.05
21
64.05
0
LINE
8
0
10
102.05
20
64.05
11
87.95
21
64.05
0
LINE
8
0
10
87.95
20
64.05
11
87.95
21
49.95
0
LINE
8
0
10
43.95
20
-20.05
11
58.05
21
-20.05
0
LINE
8
0
10
58.05
20
-20.05
11
58.05
21
-5.95
0
LINE
8
0
10
58.05
20
-5.95
11
43.95
21
-5.95
0
LINE
8
0
10
43.95
20
-5.95
11
43.95
21
-20.05
0
LINE
8
0
10
62.95
20
-20.05
11
77.05
21
-20.05
0
LINE
8
0
10
77.05
20
-20.05
11
77.05
21
-5.95
0
LINE
8
0
10
77.05
20
-5.95
11
62.95
21
-5.95
0
LINE
8
0
10
62.95
20
-5.95
11
62.95
21
-20.05
0
LINE
8
0
10
81.95
20
-27.05
11
96.05
21
-27.05
0
LINE
8
0
10
96.05
20
-27.05
11
96.05
21
-12.95
0
LINE
8
0
10
96.05
20
-12.95
11
81.95
21
-12.95
0
LINE
8
0
10
81.95
20
-12.95
11
81.95
21
-27.05
0
LINE
8
0
10
106.95
20
7.95
11
121.05
21
7.95
0
LINE
8
0
10
121.05
20
7.95
11
121.05
21
22.05
0
LINE
8
0
10
121.05
20
22.05
11
106.95
21
22.05
0
LINE
8
0
10
106.95
20
22.05
11
106.95
21
7.95
0
LINE
8
0
10
104.6310714
20
-18.4100112
11
117.4100112
21
-24.3689286
0
LINE
8
0
10
117.4100112
20
-24.3689286
11
123.3689286
21
-11.5899888
0
LINE
8
0
10
123.3689286
20
-11.5899888
11
110.5899888
21
-5.6310714
0
LINE
8
0
10
110.5899888
20
-5.6310714
11
104.6310714
21
-18.4100112
0
LINE
8
0
10
121.893414
20
-27.96018
11
130.9567193
21
-38.7614067
0
LINE
8
0
10
130.9567193
20
-38.7614067
11
141.757946
21
-29.6981014
0
LINE
8
0
10
141.757946
20
-29.6981014
11
132.6946407
21
-18.8968747
0
LINE
8
0
10
132.6946407
20
-18.8968747
11
121.893414
21
-27.96018
0
LINE
8
0
10
105.5
20
25.5
11
141
21
25.5
0
LINE
8
0
10
105.5
20
84.4373686
11
105.5
21
25.5
0
CIRCLE
8
0
10
-12.5
20
66
40
1.5
0
CIRCLE
8
0
10
-12.5
20
-11
40
1.5
0
CIRCLE
8
0
10
40
20
-25.5
40
1.5
0
CIRCLE
8
0
10
78
20
-32.5
40
1.5
0
CIRCLE
8
0
10
131.051014
20
-45.7967538
40
1.5
0
CIRCLE
8
0
10
148.6700362
20
-31.0126387
40
1.5
0
CIRCLE
8
0
10
137
20
22
40
1.5
0
CIRCLE
8
0
10
76
20
85
40
1.5
0
CIRCLE
8
0
10
48
20
85
40
1.5
0
ENDSEC
0
EOF