0
SECTION
2
HEADER
9
$INSUNITS
70
4
0
ENDSEC
0
SECTION
2
TABLES
0
TABLE
2
LTYPE
0
LTYPE
72
65
70
64
2
CONTINUOUS
3
______
73
0
40
0
0
ENDTAB
0
TABLE
2
LAYER
0
ENDTAB
0
ENDSEC
0
SECTION
2
ENTITIES
0
LINE
8
0
10
-7.01
20
-7.01
11
7.01
21
-7.01
0
LINE
8
0
10
7.01
20
-7.01
11
7.01
21
7.01
0
LINE
8
0
10
7.01
20
7.01
11
-7.01
21
7.01
0
LINE
8
0
10
-7.01
20
7.01
11
-7.01
21
-7.01
0
LINE
8
0
10
-7.01
20
11.99
11
7.01
21
11.99
0
LINE
8
0
10
7.01
20
11.99
11
7.01
21
26.01
0
LINE
8
0
10
7.01
20
26.01
11
-7.01
21
26.01
0
LINE
8
0
10
-7.01
20
26.01
11
-7.01
21
11.99
0
LINE
8
0
10
-7.01
20
30.99
11
7.01
21
30.99
0
LINE
8
0
10
7.01
20
30.99
11
7.01
21
45.01
0
LINE
8
0
10
7.01
20
45.01
11
-7.01
21
45.01
0
LINE
8
0
10
-7.01
20
45.01
11
-7.01
21
30.99
0
LINE
8
0
10
-7.01
20
49.99
11
7.01
21
49.99
0
LINE
8
0
10
7.01
20
49.99
11
7.01
21
64.01
0
LINE
8
0
10
7.01
20
64.01
11
-7.01
21
64.01
0
LINE
8
0
10
-7.01
20
64.01
11
-7.01
21
49.99
0
LINE
8
0
10
11.99
20
-7.01
11
26.01
21
-7.01
0
LINE
8
0
10
26.01
20
-7.01
11
26.01
21
7.01
0
LINE
8
0
10
26.01
20
7.01
11
11.99
21
7.01
0
LINE
8
0
10
11.99
20
7.01
11
11.99
21
-7.01
0
LINE
8
0
10
11.99
20
11.99
11
26.01
21
11.99
0
LINE
8
0
10
26.01
20
11.99
11
26.01
21
26.01
0
LINE
8
0
10
26.01
20
26.01
11
11.99
21
26.01
0
LINE
8
0
10
11.99
20
26.01
11
11.99
21
11.99
0
LINE
8
0
10
11.99
20
30.99
11
26.01
21
30.99
0
LINE
8
0
10
26.01
20
30.99
11
26.01
21
45.01
0
LINE
8
0
10
26.01
20
45.01
11
11.99
21
45.01
0
LINE
8
0
10
11.99
20
45.01
11
11.99
21
30.99
0
LINE
8
0
10
11.99
20
49.99
11
26.01
21
49.99
0
LINE
8
0
10
26.01
20
49.99
11
26.01
21
64.01
0
LINE
8
0
10
26.01
20
64.01
11
11.99
21
64.01
0
LINE
8
0
10
11.99
20
64.01
11
11.99
21
49.99
0
LINE
8
0
10
30.99
20
-0.01
11
45.01
21
-0.01
0
LINE
8
0
10
45.01
20
-0.01
11
45.01
21
14.01
0
LINE
8
0
10
45.01
20
14.01
11
30.99
21
14.01
0
LINE
8
0
10
30.99
20
14.01
11
30.99
21
-0.01
0
LINE
8
0
10
30.99
20
18.99
11
45.01
21
18.99
0
LINE
8
0
10
45.01
20
18.99
11
45.01
21
33.01
0
LINE
8
0
10
45.01
20
33.01
11
30.99
21
33.01
0
LINE
8
0
10
30.99
20
33.01
11
30.99
21
18.99
0
LINE
8
0
10
30.99
20
37.99
11
45.01
21
37.99
0
LINE
8
0
10
45.01
20
37.99
11
45.01
21
52.01
0
LINE
8
0
10
45.01
20
52.01
11
30.99
21
52.01
0
LINE
8
0
10
30.99
20
52.01
11
30.99
21
37.99
0
LINE
8
0
10
30.99
20
56.99
11
45.01
21
56.99
0
LINE
8
0
10
45.01
20
56.99
11
45.01
21
71.01
0
LINE
8
0
10
45.01
20
71.01
11
30.99
21
71.01
0
LINE
8
0
10
30.99
20
71.01
11
30.99
21
56.99
0
LINE
8
0
10
49.99
20
6.99
11
64.01
21
6.99
0
LINE
8
0
10
64.01
20
6.99
11
64.01
21
21.01
0
LINE
8
0
10
64.01
20
21.01
11
49.99
21
21.01
0
LINE
8
0
10
49.99
20
21.01
11
49.99
21
6.99
0
LINE
8
0
10
49.99
20
25.99
11
64.01
21
25.99
0
LINE
8
0
10
64.01
20
25.99
11
64.01
21
40.01
0
LINE
8
0
10
64.01
20
40.01
11
49.99
21
40.01
0
LINE
8
0
10
49.99
20
40.01
11
49.99
21
25.99
0
LINE
8
0
10
49.99
20
44.99
11
64.01
21
44.99
0
LINE
8
0
10
64.01
20
44.99
11
64.01
21
59.01
0
LINE
8
0
10
64.01
20
59.01
11
49.99
21
59.01
0
LINE
8
0
10
49.99
20
59.01
11
49.99
21
44.99
0
LINE
8
0
10
49.99
20
63.99
11
64.01
21
63.99
0
LINE
8
0
10
64.01
20
63.99
11
64.01
21
78.01
0
LINE
8
0
10
64.01
20
78.01
11
49.99
21
78.01
0
LINE
8
0
10
49.99
20
78.01
11
49.99
21
63.99
0
LINE
8
0
10
68.99
20
-0.01
11
83.01
21
-0.01
0
LINE
8
0
10
83.01
20
-0.01
11
83.01
21
14.01
0
LINE
8
0
10
83.01
20
14.01
11
68.99
21
14.01
0
LINE
8
0
10
68.99
20
14.01
11
68.99
21
-0.01
0
LINE
8
0
10
68.99
20
18.99
11
83.01
21
18.99
0
LINE
8
0
10
83.01
20
18.99
11
83.01
21
33.01
0
LINE
8
0
10
83.01
20
33.01
11
68.99
21
33.01
0
LINE
8
0
10
68.99
20
33.01
11
68.99
21
18.99
0
LINE
8
0
10
68.99
20
37.99
11
83.01
21
37.99
0
LINE
8
0
10
83.01
20
37.99
11
83.01
21
52.01
0
LINE
8
0
10
83.01
20
52.01
11
68.99
21
52.01
0
LINE
8
0
10
68.99
20
52.01
11
68.99
21
37.99
0
LINE
8
0
10
68.99
20
56.99
11
83.01
21
56.99
0
LINE
8
0
10
83.01
20
56.99
11
83.01
21
71.01
0
LINE
8
0
10
83.01
20
71.01
11
68.99
21
71.01
0
LINE
8
0
10
68.99
20
71.01
11
68.99
21
56.99
0
LINE
8
0
10
87.99
20
-7.01
11
102.01
21
-7.01
0
LINE
8
0
10
102.01
20
-7.01
11
102.01
21
7.01
0
LINE
8
0
10
102.01
20
7.01
11
87.99
21
7.01
0
LINE
8
0
10
87.99
20
7.01
11
87.99
21
-7.01
0
LINE
8
0
10
87.99
20
11.99
11
102.01
21
11.99
0
LINE
8
0
10
102.01
20
11.99
11
102.01
21
26.01
0
LINE
8
0
10
102.01
20
26.01
11
87.99
21
26.01
0
LINE
8
0
10
87.99
20
26.01
11
87.99
21
11.99
0
LINE
8
0
10
87.99
20
30.99
11
102.01
21
30.99
0
LINE
8
0
10
102.01
20
30.99
11
102.01
21
45.01
0
LINE
8
0
10
102.01
20
45.01
11
87.99
21
45.01
0
LINE
8
0
10
87.99
20
45.01
11
87.99
21
30.99
0
LINE
8
0
10
87.99
20
49.99
11
102.01
21
49.99
0
LINE
8
0
10
102.01
20
49.99
11
102.01
21
64.01
0
LINE
8
0
10
102.01
20
64.01
11
87.99
21
64.01
0
LINE
8
0
10
87.99
20
64.01
11
87.99
21
49.99
0
LINE
8
0
10
43.99
20
-20.01
11
58.01
21
-20.01
0
LINE
8
0
10
58.01
20
-20.01
11
58.01
21
-5.99
0
LINE
8
0
10
58.01
20
-5.99
11
43.99
21
-5.99
0
LINE
8
0
10
43.99
20
-5.99
11
43.99
21
-20.01
0
LINE
8
0
10
62.99
20
-20.01
11
77.01
21
-20.01
0
LINE
8
0
10
77.01
20
-20.01
11
77.01
21
-5.99
0
LINE
8
0
10
77.01
20
-5.99
11
62.99
21
-5.99
0
LINE
8
0
10
62.99
20
-5.99
11
62.99
21
-20.01
0
LINE
8
0
10
81.99
20
-27.01
11
96.01
21
-27.01
0
LINE
8
0
10
96.01
20
-27.01
11
96.01
21
-12.99
0
LINE
8
0
10
96.01
20
-12.99
11
81.99
21
-12.99
0
LINE
8
0
10
81.99
20
-12.99
11
81.99
21
-27.01
0
LINE
8
0
10
106.99
20
7.99
11
121.01
21
7.99
0
LINE
8
0
10
121.01
20
7.99
11
121.01
21
22.01
0
LINE
8
0
10
121.01
20
22.01
11
106.99
21
22.01
0
LINE
8
0
10
106.99
20
22.01
11
106.99
21
7.99
0
LINE
8
0
10
104.6842284
20
-18.3906636
11
117.3906636
21
-24.3157716
0
LINE
8
0
10
117.3906636
20
-24.3157716
11
123.3157716
21
-11.6093364
0
LINE
8
0
10
123.3157716
20
-11.6093364
11
110.6093364
21
-5.6842284
0
LINE
8
0
10
110.6093364
20
-5.6842284
11
104.6842284
21
-18.3906636
0
LINE
8
0
10
121.9497673
20
-27.9651103
11
130.9616496
21
-38.7050534
0
LINE
8
0
10
130.9616496
20
-38.7050534
11
141.7015927
21
-29.6931711
0
LINE
8
0
10
141.7015927
20
-29.6931711
11
132.6897104
21
-18.953228
0
LINE
8
0
10
132.6897104
20
-18.953228
11
121.9497673
21
-27.9651103
0
ENDSEC
0
EOF