%TF.GenerationSoftware,KiCad,Pcbnew,(6.0.10)*%
%TF.CreationDate,2023-02-13T20:56:48+01:00*%
%TF.ProjectId,insequor58_Moon60NOi2c,696e7365-7175-46f7-9235-38484d6f6f6e,v1.0.0*%
%TF.SameCoordinates,Original*%
%TF.FileFunction,Soldermask,Top*%
%TF.FilePolarity,Negative*%
%FSLAX46Y46*%
G04 Gerber Fmt 4.6, Leading zero omitted, Abs format (unit mm)*
G04 Created by KiCad (PCBNEW (6.0.10)) date 2023-02-13 20:56:48*
%MOMM*%
%LPD*%
G01*
G04 APERTURE LIST*
G04 Aperture macros list*
%AMRoundRect*
0 Rectangle with rounded corners*
0 $1 Rounding radius*
0 $2 $3 $4 $5 $6 $7 $8 $9 X,Y pos of 4 corners*
0 Add a 4 corners polygon primitive as box body*
4,1,4,$2,$3,$4,$5,$6,$7,$8,$9,$2,$3,0*
0 Add four circle primitives for the rounded corners*
1,1,$1+$1,$2,$3*
1,1,$1+$1,$4,$5*
1,1,$1+$1,$6,$7*
1,1,$1+$1,$8,$9*
0 Add four rect primitives between the rounded corners*
20,1,$1+$1,$2,$3,$4,$5,0*
20,1,$1+$1,$4,$5,$6,$7,0*
20,1,$1+$1,$6,$7,$8,$9,0*
20,1,$1+$1,$8,$9,$2,$3,0*%
G04 Aperture macros list end*
%ADD10RoundRect,0.050000X-0.900000X-0.550000X0.900000X-0.550000X0.900000X0.550000X-0.900000X0.550000X0*%
%ADD11C,4.087800*%
%ADD12C,1.801800*%
%ADD13C,3.100000*%
%ADD14RoundRect,0.050000X1.275000X1.250000X-1.275000X1.250000X-1.275000X-1.250000X1.275000X-1.250000X0*%
%ADD15C,1.497000*%
%ADD16C,3.529000*%
%ADD17RoundRect,0.050000X1.300000X1.300000X-1.300000X1.300000X-1.300000X-1.300000X1.300000X-1.300000X0*%
%ADD18RoundRect,0.050000X0.571500X-0.317500X0.571500X0.317500X-0.571500X0.317500X-0.571500X-0.317500X0*%
%ADD19C,2.005000*%
%ADD20RoundRect,0.050000X0.748881X0.040953X0.170372X0.730393X-0.748881X-0.040953X-0.170372X-0.730393X0*%
%ADD21RoundRect,0.050000X1.252452X-0.109575X0.109575X1.252452X-1.252452X0.109575X-0.109575X-1.252452X0*%
%ADD22C,3.600000*%
%ADD23RoundRect,0.050000X1.727604X0.628796X-0.628796X1.727604X-1.727604X-0.628796X0.628796X-1.727604X0*%
%ADD24RoundRect,0.050000X1.831482X-0.160234X0.160234X1.831482X-1.831482X0.160234X-0.160234X-1.831482X0*%
%ADD25RoundRect,0.050000X0.661409X0.353606X-0.154268X0.733963X-0.661409X-0.353606X0.154268X-0.733963X0*%
%ADD26RoundRect,0.050000X1.181415X0.430000X-0.430000X1.181415X-1.181415X-0.430000X0.430000X-1.181415X0*%
%ADD27C,1.300000*%
%ADD28RoundRect,0.050000X-1.050000X0.600000X-1.050000X-0.600000X1.050000X-0.600000X1.050000X0.600000X0*%
%ADD29RoundRect,0.050000X1.683815X0.594046X-0.627270X1.671723X-1.683815X-0.594046X0.627270X-1.671723X0*%
%ADD30RoundRect,0.050000X-0.876300X0.876300X-0.876300X-0.876300X0.876300X-0.876300X0.876300X0.876300X0*%
%ADD31C,1.852600*%
%ADD32RoundRect,0.050000X1.777110X-0.173222X0.138001X1.780191X-1.777110X0.173222X-0.138001X-1.780191X0*%
%ADD33RoundRect,0.050000X0.450000X0.600000X-0.450000X0.600000X-0.450000X-0.600000X0.450000X-0.600000X0*%
%ADD34RoundRect,0.050000X0.889000X0.889000X-0.889000X0.889000X-0.889000X-0.889000X0.889000X-0.889000X0*%
G04 APERTURE END LIST*
%TO.C,G\u002A\u002A\u002A*%
G36*
X252221333Y-137025709D02*
G01*
X252241128Y-137058483D01*
X252235507Y-137078659D01*
X252226857Y-137138860D01*
X252219619Y-137260985D01*
X252214429Y-137428806D01*
X252211922Y-137626098D01*
X252211788Y-137684351D01*
X252211394Y-137899808D01*
X252208908Y-138049192D01*
X252202375Y-138144586D01*
X252189842Y-138198072D01*
X252169352Y-138221731D01*
X252138951Y-138227645D01*
X252123865Y-138227750D01*
X252072111Y-138211318D01*
X252009565Y-138156193D01*
X251927702Y-138052816D01*
X251817999Y-137891629D01*
X251801480Y-137866288D01*
X251567019Y-137505309D01*
X251555783Y-137866771D01*
X251544547Y-138228232D01*
X251438552Y-138228288D01*
X251332557Y-138228345D01*
X251344237Y-137622596D01*
X251349032Y-137393262D01*
X251354370Y-137230643D01*
X251362098Y-137123311D01*
X251374064Y-137059838D01*
X251392113Y-137028797D01*
X251418093Y-137018759D01*
X251441929Y-137018109D01*
X251491906Y-137035235D01*
X251552605Y-137091517D01*
X251631976Y-137196392D01*
X251737967Y-137359299D01*
X251762403Y-137398614D01*
X251996865Y-137777857D01*
X252008049Y-137397352D01*
X252019233Y-137016848D01*
X252139230Y-137016848D01*
X252221333Y-137025709D01*
G37*
G36*
X253840388Y-137283397D02*
G01*
X253950917Y-137133487D01*
X254025276Y-137074221D01*
X254196609Y-137003336D01*
X254374383Y-136999488D01*
X254539632Y-137057858D01*
X254673389Y-137173628D01*
X254722419Y-137251309D01*
X254773489Y-137412512D01*
X254791558Y-137604158D01*
X254776971Y-137794775D01*
X254730071Y-137952893D01*
X254714430Y-137981878D01*
X254581761Y-138135569D01*
X254417043Y-138223876D01*
X254232435Y-138241614D01*
X254144628Y-138224775D01*
X253987110Y-138143455D01*
X253870088Y-138010421D01*
X253795233Y-137841784D01*
X253764217Y-137653659D01*
X253764880Y-137644904D01*
X253992640Y-137644904D01*
X254019955Y-137809413D01*
X254087831Y-137934586D01*
X254183237Y-138012730D01*
X254293145Y-138036157D01*
X254404527Y-137997173D01*
X254475413Y-137929885D01*
X254535653Y-137808347D01*
X254559659Y-137659787D01*
X254550433Y-137505628D01*
X254510979Y-137367290D01*
X254444297Y-137266195D01*
X254376948Y-137227373D01*
X254230157Y-137223681D01*
X254112524Y-137287049D01*
X254031402Y-137409488D01*
X253994147Y-137583008D01*
X253992640Y-137644904D01*
X253764880Y-137644904D01*
X253778712Y-137462159D01*
X253840388Y-137283397D01*
G37*
G36*
X250871816Y-129411542D02*
G01*
X250848103Y-129436759D01*
X250775098Y-129490801D01*
X250689252Y-129548418D01*
X250411397Y-129772923D01*
X250172657Y-130054862D01*
X249980375Y-130380266D01*
X249841890Y-130735166D01*
X249764545Y-131105593D01*
X249750519Y-131334674D01*
X249772306Y-131596801D01*
X249832711Y-131885848D01*
X249922574Y-132166885D01*
X250029907Y-132400013D01*
X250118361Y-132533013D01*
X250241897Y-132689321D01*
X250377353Y-132840126D01*
X250411479Y-132874694D01*
X250720199Y-133128433D01*
X251059263Y-133315346D01*
X251419470Y-133436019D01*
X251791620Y-133491036D01*
X252166513Y-133480984D01*
X252534947Y-133406447D01*
X252887723Y-133268010D01*
X253215640Y-133066259D01*
X253509496Y-132801779D01*
X253621848Y-132670487D01*
X253710684Y-132566575D01*
X253760952Y-132528815D01*
X253774342Y-132548800D01*
X253757685Y-132646213D01*
X253714032Y-132792646D01*
X253651419Y-132967255D01*
X253577885Y-133149198D01*
X253501465Y-133317633D01*
X253430198Y-133451717D01*
X253419422Y-133469204D01*
X253286952Y-133653761D01*
X253120295Y-133850577D01*
X252940718Y-134036845D01*
X252769491Y-134189757D01*
X252695983Y-134244976D01*
X252535408Y-134355800D01*
X251156830Y-134367477D01*
X249778251Y-134379155D01*
X249637096Y-134286091D01*
X249361265Y-134066725D01*
X249101015Y-133788899D01*
X248871919Y-133472306D01*
X248689551Y-133136640D01*
X248644627Y-133031001D01*
X248518659Y-132612510D01*
X248466045Y-132190482D01*
X248482751Y-131772286D01*
X248564742Y-131365293D01*
X248707984Y-130976872D01*
X248908442Y-130614394D01*
X249162082Y-130285228D01*
X249464869Y-129996746D01*
X249812768Y-129756316D01*
X250201746Y-129571309D01*
X250602639Y-129454228D01*
X250733854Y-129428636D01*
X250830503Y-129413294D01*
X250871777Y-129411505D01*
X250871816Y-129411542D01*
G37*
G36*
X247217568Y-137024141D02*
G01*
X247295120Y-137042357D01*
X247359782Y-137090365D01*
X247430059Y-137184734D01*
X247471091Y-137251150D01*
X247542094Y-137363762D01*
X247600112Y-137445204D01*
X247630175Y-137476053D01*
X247662635Y-137449651D01*
X247718955Y-137370664D01*
X247787157Y-137255960D01*
X247789605Y-137251520D01*
X247861727Y-137126399D01*
X247916387Y-137055866D01*
X247970872Y-137024504D01*
X248042466Y-137016896D01*
X248052741Y-137016848D01*
X248186865Y-137016848D01*
X248186865Y-138228232D01*
X247955137Y-138228232D01*
X247944001Y-137827694D01*
X247932865Y-137427155D01*
X247796845Y-137671386D01*
X247727499Y-137791049D01*
X247671888Y-137878121D01*
X247641127Y-137915307D01*
X247639897Y-137915617D01*
X247610686Y-137884805D01*
X247554232Y-137804034D01*
X247482840Y-137690924D01*
X247346711Y-137466232D01*
X247335527Y-137847232D01*
X247324342Y-138228232D01*
X247092711Y-138228232D01*
X247092711Y-137011896D01*
X247217568Y-137024141D01*
G37*
G36*
X252556614Y-137433657D02*
G01*
X252647494Y-137240766D01*
X252788412Y-137097093D01*
X252970737Y-137010381D01*
X253185839Y-136988372D01*
X253271266Y-136998053D01*
X253370574Y-137021873D01*
X253413867Y-137060679D01*
X253423172Y-137130959D01*
X253419510Y-137192054D01*
X253395723Y-137221985D01*
X253332612Y-137228813D01*
X253210981Y-137220604D01*
X253209942Y-137220518D01*
X253081243Y-137214164D01*
X252998226Y-137228430D01*
X252929190Y-137272978D01*
X252877788Y-137321758D01*
X252799587Y-137410846D01*
X252762443Y-137474970D01*
X252768740Y-137503224D01*
X252820863Y-137484702D01*
X252845713Y-137468448D01*
X252946226Y-137428675D01*
X253090334Y-137408698D01*
X253133462Y-137407617D01*
X253320536Y-137434080D01*
X253450306Y-137513645D01*
X253523058Y-137646578D01*
X253540403Y-137788084D01*
X253529898Y-137911600D01*
X253487084Y-138005103D01*
X253407542Y-138095371D01*
X253312609Y-138174629D01*
X253225429Y-138222153D01*
X253195815Y-138228232D01*
X253103403Y-138234997D01*
X253064907Y-138242284D01*
X252987194Y-138246528D01*
X252918038Y-138238661D01*
X252750881Y-138170679D01*
X252625242Y-138042308D01*
X252547681Y-137863059D01*
X252542633Y-137820761D01*
X252758865Y-137820761D01*
X252793089Y-137915158D01*
X252880226Y-137985042D01*
X252996970Y-138023187D01*
X253120017Y-138022372D01*
X253226062Y-137975372D01*
X253234480Y-137968176D01*
X253290178Y-137876159D01*
X253303506Y-137762508D01*
X253271570Y-137664704D01*
X253259049Y-137649894D01*
X253172191Y-137609914D01*
X253055085Y-137611638D01*
X252932112Y-137646738D01*
X252827651Y-137706886D01*
X252766084Y-137783752D01*
X252758865Y-137820761D01*
X252542633Y-137820761D01*
X252524403Y-137668024D01*
X252556614Y-137433657D01*
G37*
G36*
X249955134Y-137266087D02*
G01*
X250089789Y-137123204D01*
X250259551Y-137026658D01*
X250454223Y-136989055D01*
X250552333Y-136995464D01*
X250753304Y-137060802D01*
X250911562Y-137181435D01*
X251020439Y-137343315D01*
X251073264Y-137532389D01*
X251063369Y-137734609D01*
X250992122Y-137921996D01*
X250857238Y-138089499D01*
X250681828Y-138199158D01*
X250482079Y-138244734D01*
X250274176Y-138219988D01*
X250244467Y-138210246D01*
X250048431Y-138105734D01*
X249913211Y-137955020D01*
X249863772Y-137846699D01*
X249831929Y-137640440D01*
X249836997Y-137610839D01*
X250101634Y-137610839D01*
X250131492Y-137792894D01*
X250213288Y-137927738D01*
X250335357Y-138007637D01*
X250486034Y-138024853D01*
X250649216Y-137973971D01*
X250752929Y-137880686D01*
X250810444Y-137746867D01*
X250822556Y-137594427D01*
X250790065Y-137445277D01*
X250713770Y-137321326D01*
X250623041Y-137255625D01*
X250462182Y-137214222D01*
X250319139Y-137248006D01*
X250215859Y-137326457D01*
X250136443Y-137426419D01*
X250104863Y-137536722D01*
X250101634Y-137610839D01*
X249836997Y-137610839D01*
X249865781Y-137442701D01*
X249955134Y-137266087D01*
G37*
G36*
X252606257Y-135933141D02*
G01*
X252950345Y-135938803D01*
X253279404Y-135948621D01*
X253577858Y-135962332D01*
X253830127Y-135979677D01*
X254020636Y-136000393D01*
X254028015Y-136001476D01*
X254213031Y-136036004D01*
X254321902Y-136071882D01*
X254354269Y-136107279D01*
X254309771Y-136140366D01*
X254188050Y-136169314D01*
X254064169Y-136185373D01*
X253942946Y-136204105D01*
X253894418Y-136225320D01*
X253913328Y-136245879D01*
X253994420Y-136262640D01*
X254132439Y-136272465D01*
X254212174Y-136273788D01*
X254376520Y-136278532D01*
X254466696Y-136290290D01*
X254486122Y-136306735D01*
X254438223Y-136325545D01*
X254326421Y-136344394D01*
X254154138Y-136360958D01*
X254076374Y-136366007D01*
X253898712Y-136373196D01*
X253659150Y-136378493D01*
X253373922Y-136381923D01*
X253059257Y-136383508D01*
X252731388Y-136383272D01*
X252406546Y-136381236D01*
X252100962Y-136377425D01*
X251830868Y-136371862D01*
X251612496Y-136364569D01*
X251567019Y-136362435D01*
X251420213Y-136349547D01*
X251312766Y-136330172D01*
X251253009Y-136308330D01*
X251249272Y-136288043D01*
X251309886Y-136273330D01*
X251373588Y-136269074D01*
X251404017Y-136263741D01*
X251365204Y-136253494D01*
X251265788Y-136239945D01*
X251156776Y-136228599D01*
X250910514Y-136202139D01*
X250735805Y-136175637D01*
X250626060Y-136147627D01*
X250574689Y-136116646D01*
X250568917Y-136097970D01*
X250587486Y-136068772D01*
X250643514Y-136043671D01*
X250745205Y-136021262D01*
X250900766Y-136000141D01*
X251118401Y-135978905D01*
X251391172Y-135957268D01*
X251639598Y-135943697D01*
X251935306Y-135935327D01*
X252262718Y-135931895D01*
X252606257Y-135933141D01*
G37*
G36*
X248548364Y-137266087D02*
G01*
X248683020Y-137123204D01*
X248852782Y-137026658D01*
X249047454Y-136989055D01*
X249145564Y-136995464D01*
X249346535Y-137060802D01*
X249504793Y-137181435D01*
X249613670Y-137343315D01*
X249666495Y-137532389D01*
X249656600Y-137734609D01*
X249585353Y-137921996D01*
X249450468Y-138089499D01*
X249275059Y-138199158D01*
X249075310Y-138244734D01*
X248867407Y-138219988D01*
X248837698Y-138210246D01*
X248641662Y-138105734D01*
X248506442Y-137955020D01*
X248457003Y-137846699D01*
X248425159Y-137640440D01*
X248430227Y-137610839D01*
X248694865Y-137610839D01*
X248724722Y-137792894D01*
X248806519Y-137927738D01*
X248928588Y-138007637D01*
X249079265Y-138024853D01*
X249242446Y-137973971D01*
X249346160Y-137880686D01*
X249403674Y-137746867D01*
X249415787Y-137594427D01*
X249383296Y-137445277D01*
X249307001Y-137321326D01*
X249216271Y-137255625D01*
X249055413Y-137214222D01*
X248912370Y-137248006D01*
X248809090Y-137326457D01*
X248729673Y-137426419D01*
X248698093Y-137536722D01*
X248694865Y-137610839D01*
X248430227Y-137610839D01*
X248459012Y-137442701D01*
X248548364Y-137266087D01*
G37*
G36*
X252592448Y-134444635D02*
G01*
X253116679Y-134450879D01*
X253616954Y-134460722D01*
X254083993Y-134474280D01*
X254185172Y-134477916D01*
X254659654Y-134497587D01*
X255060098Y-134518354D01*
X255386039Y-134540140D01*
X255637012Y-134562865D01*
X255812553Y-134586454D01*
X255912195Y-134610828D01*
X255935475Y-134635909D01*
X255881926Y-134661621D01*
X255751084Y-134687885D01*
X255579191Y-134710535D01*
X255427741Y-134724926D01*
X255220615Y-134740609D01*
X254980239Y-134756082D01*
X254729041Y-134769845D01*
X254606617Y-134775607D01*
X253950711Y-134804562D01*
X254380557Y-134856271D01*
X254689419Y-134899083D01*
X254922323Y-134943752D01*
X255078975Y-134989763D01*
X255159082Y-135036602D01*
X255162349Y-135083754D01*
X255088482Y-135130703D01*
X254937187Y-135176936D01*
X254708170Y-135221937D01*
X254599151Y-135238834D01*
X254386832Y-135266137D01*
X254137909Y-135292616D01*
X253893854Y-135314023D01*
X253800134Y-135320650D01*
X253615544Y-135332868D01*
X253500233Y-135342830D01*
X253445474Y-135353071D01*
X253442541Y-135366131D01*
X253482706Y-135384544D01*
X253526596Y-135400170D01*
X253622846Y-135433059D01*
X253680760Y-135451670D01*
X253686942Y-135453182D01*
X253696507Y-135484038D01*
X253696711Y-135491756D01*
X253658725Y-135536409D01*
X253549081Y-135578734D01*
X253374249Y-135618395D01*
X253140699Y-135655059D01*
X252854902Y-135688389D01*
X252523328Y-135718053D01*
X252152446Y-135743715D01*
X251748728Y-135765040D01*
X251318643Y-135781694D01*
X250868662Y-135793342D01*
X250405254Y-135799650D01*
X249934891Y-135800283D01*
X249464042Y-135794907D01*
X248999177Y-135783186D01*
X248546767Y-135764786D01*
X248481424Y-135761483D01*
X248093700Y-135737420D01*
X247741982Y-135707780D01*
X247432757Y-135673576D01*
X247172511Y-135635817D01*
X246967732Y-135595513D01*
X246824906Y-135553675D01*
X246750520Y-135511314D01*
X246741019Y-135490398D01*
X246778688Y-135450971D01*
X246886106Y-135410995D01*
X247054889Y-135371732D01*
X247276655Y-135334443D01*
X247543017Y-135300389D01*
X247845594Y-135270832D01*
X248176001Y-135247033D01*
X248450634Y-135233156D01*
X248719080Y-135220010D01*
X248912071Y-135205502D01*
X249032301Y-135189132D01*
X249082463Y-135170399D01*
X249065252Y-135148805D01*
X249007480Y-135129833D01*
X248944113Y-135098077D01*
X248929326Y-135072932D01*
X248968276Y-135022912D01*
X249084635Y-134974227D01*
X249277665Y-134927109D01*
X249531348Y-134884015D01*
X249700782Y-134858587D01*
X249842045Y-134836329D01*
X249936705Y-134820204D01*
X249964865Y-134814312D01*
X249939793Y-134809595D01*
X249847408Y-134803178D01*
X249698517Y-134795595D01*
X249503928Y-134787378D01*
X249274451Y-134779061D01*
X249202865Y-134776705D01*
X248875523Y-134764119D01*
X248571333Y-134748490D01*
X248299619Y-134730594D01*
X248069707Y-134711207D01*
X247890922Y-134691106D01*
X247772589Y-134671066D01*
X247725548Y-134653787D01*
X247715993Y-134627554D01*
X247752221Y-134605530D01*
X247843824Y-134584983D01*
X248000398Y-134563181D01*
X248074036Y-134554554D01*
X248327454Y-134531206D01*
X248649711Y-134510293D01*
X249031529Y-134491933D01*
X249463628Y-134476240D01*
X249936727Y-134463332D01*
X250441547Y-134453325D01*
X250968809Y-134446336D01*
X251509233Y-134442480D01*
X252053539Y-134441874D01*
X252592448Y-134444635D01*
G37*
%TD*%
D10*
%TO.C,B1*%
X261060000Y-107370000D03*
X267260000Y-107370000D03*
X261060000Y-111070000D03*
X267260000Y-111070000D03*
%TD*%
D11*
%TO.C,S20*%
X168960000Y-136440000D03*
D12*
X174040000Y-136440000D03*
D13*
X171500000Y-131360000D03*
D12*
X163880000Y-136440000D03*
D13*
X165150000Y-133900000D03*
X172770000Y-133900000D03*
X166420000Y-131360000D03*
D14*
X176045000Y-133900000D03*
X163118000Y-131360000D03*
%TD*%
D15*
%TO.C,J3*%
X243107874Y-127064604D03*
X245647874Y-127064604D03*
X248187874Y-127064604D03*
X250727874Y-127064604D03*
%TD*%
D13*
%TO.C,S30*%
X185420000Y-105360000D03*
X184150000Y-107900000D03*
X190500000Y-105360000D03*
D12*
X182880000Y-110440000D03*
D11*
X187960000Y-110440000D03*
D12*
X193040000Y-110440000D03*
D13*
X191770000Y-107900000D03*
D14*
X195045000Y-107900000D03*
X182118000Y-105360000D03*
%TD*%
D13*
%TO.C,S14*%
X153770000Y-121900000D03*
D12*
X155040000Y-124440000D03*
D13*
X146150000Y-121900000D03*
D11*
X149960000Y-124440000D03*
D12*
X144880000Y-124440000D03*
D13*
X152500000Y-119360000D03*
X147420000Y-119360000D03*
D14*
X157045000Y-121900000D03*
X144118000Y-119360000D03*
%TD*%
D12*
%TO.C,S1*%
X125460000Y-162440000D03*
X136460000Y-162440000D03*
D13*
X130960000Y-168390000D03*
X135960000Y-166190000D03*
X130960000Y-168390000D03*
X125960000Y-166190000D03*
D16*
X130960000Y-162440000D03*
D17*
X127685000Y-168390000D03*
X139235000Y-166190000D03*
%TD*%
D18*
%TO.C,JP6*%
X248108849Y-122269491D03*
X248108849Y-121268731D03*
%TD*%
D13*
%TO.C,S43*%
X220960000Y-147190000D03*
D12*
X231460000Y-143440000D03*
D13*
X225960000Y-149390000D03*
D16*
X225960000Y-143440000D03*
D13*
X225960000Y-149390000D03*
D12*
X220460000Y-143440000D03*
D13*
X230960000Y-147190000D03*
D17*
X222685000Y-149390000D03*
X234235000Y-147190000D03*
%TD*%
D12*
%TO.C,S2*%
X125880000Y-162440000D03*
X136040000Y-162440000D03*
D13*
X127150000Y-159900000D03*
X134770000Y-159900000D03*
X128420000Y-157360000D03*
X133500000Y-157360000D03*
D11*
X130960000Y-162440000D03*
D14*
X138045000Y-159900000D03*
X125118000Y-157360000D03*
%TD*%
D12*
%TO.C,S13*%
X144460000Y-124440000D03*
D13*
X154960000Y-128190000D03*
X149960000Y-130390000D03*
D12*
X155460000Y-124440000D03*
D16*
X149960000Y-124440000D03*
D13*
X149960000Y-130390000D03*
X144960000Y-128190000D03*
D17*
X146685000Y-130390000D03*
X158235000Y-128190000D03*
%TD*%
D13*
%TO.C,S32*%
X184150000Y-88900000D03*
X190500000Y-86360000D03*
D12*
X182880000Y-91440000D03*
X193040000Y-91440000D03*
D13*
X191770000Y-88900000D03*
D11*
X187960000Y-91440000D03*
D13*
X185420000Y-86360000D03*
D14*
X195045000Y-88900000D03*
X182118000Y-86360000D03*
%TD*%
D12*
%TO.C,S10*%
X144880000Y-162440000D03*
D13*
X152500000Y-157360000D03*
X147420000Y-157360000D03*
X146150000Y-159900000D03*
D12*
X155040000Y-162440000D03*
D11*
X149960000Y-162440000D03*
D13*
X153770000Y-159900000D03*
D14*
X157045000Y-159900000D03*
X144118000Y-157360000D03*
%TD*%
D13*
%TO.C,S40*%
X203150000Y-95900000D03*
D11*
X206960000Y-98440000D03*
D13*
X209500000Y-93360000D03*
D12*
X212040000Y-98440000D03*
X201880000Y-98440000D03*
D13*
X210770000Y-95900000D03*
X204420000Y-93360000D03*
D14*
X214045000Y-95900000D03*
X201118000Y-93360000D03*
%TD*%
D12*
%TO.C,S16*%
X155040000Y-105440000D03*
X144880000Y-105440000D03*
D13*
X147420000Y-100360000D03*
D11*
X149960000Y-105440000D03*
D13*
X146150000Y-102900000D03*
X152500000Y-100360000D03*
X153770000Y-102900000D03*
D14*
X157045000Y-102900000D03*
X144118000Y-100360000D03*
%TD*%
D19*
%TO.C,D30*%
X253442259Y-194135600D03*
D20*
X256951880Y-198318202D03*
X254830680Y-195790256D03*
D21*
X258340301Y-199972858D03*
%TD*%
D16*
%TO.C,S31*%
X187960000Y-91440000D03*
D12*
X193460000Y-91440000D03*
D13*
X187960000Y-97390000D03*
X192960000Y-95190000D03*
D12*
X182460000Y-91440000D03*
D13*
X182960000Y-95190000D03*
X187960000Y-97390000D03*
D17*
X184685000Y-97390000D03*
X196235000Y-95190000D03*
%TD*%
D12*
%TO.C,S22*%
X163880000Y-117440000D03*
D13*
X165150000Y-114900000D03*
D12*
X174040000Y-117440000D03*
D13*
X166420000Y-112360000D03*
X171500000Y-112360000D03*
X172770000Y-114900000D03*
D11*
X168960000Y-117440000D03*
D14*
X176045000Y-114900000D03*
X163118000Y-112360000D03*
%TD*%
D12*
%TO.C,S27*%
X193460000Y-129440000D03*
D13*
X182960000Y-133190000D03*
X192960000Y-133190000D03*
D12*
X182460000Y-129440000D03*
D13*
X187960000Y-135390000D03*
X187960000Y-135390000D03*
D16*
X187960000Y-129440000D03*
D17*
X184685000Y-135390000D03*
X196235000Y-133190000D03*
%TD*%
D13*
%TO.C,S34*%
X203150000Y-152900000D03*
X204420000Y-150360000D03*
D11*
X206960000Y-155440000D03*
D12*
X201880000Y-155440000D03*
D13*
X210770000Y-152900000D03*
D12*
X212040000Y-155440000D03*
D13*
X209500000Y-150360000D03*
D14*
X214045000Y-152900000D03*
X201118000Y-150360000D03*
%TD*%
D12*
%TO.C,S29*%
X182460000Y-110440000D03*
D13*
X187960000Y-116390000D03*
X187960000Y-116390000D03*
D12*
X193460000Y-110440000D03*
D16*
X187960000Y-110440000D03*
D13*
X192960000Y-114190000D03*
X182960000Y-114190000D03*
D17*
X184685000Y-116390000D03*
X196235000Y-114190000D03*
%TD*%
D22*
%TO.C,REF\u002A\u002A*%
X264160000Y-134620000D03*
%TD*%
D13*
%TO.C,S55*%
X244960000Y-153390000D03*
D12*
X239460000Y-147440000D03*
D13*
X239960000Y-151190000D03*
X244960000Y-153390000D03*
D12*
X250460000Y-147440000D03*
D16*
X244960000Y-147440000D03*
D13*
X249960000Y-151190000D03*
D17*
X241685000Y-153390000D03*
X253235000Y-151190000D03*
%TD*%
D22*
%TO.C,REF\u002A\u002A*%
X241300000Y-134620000D03*
%TD*%
D13*
%TO.C,S5*%
X125960000Y-128190000D03*
X130960000Y-130390000D03*
D12*
X125460000Y-124440000D03*
D13*
X135960000Y-128190000D03*
D12*
X136460000Y-124440000D03*
D16*
X130960000Y-124440000D03*
D13*
X130960000Y-130390000D03*
D17*
X127685000Y-130390000D03*
X139235000Y-128190000D03*
%TD*%
D13*
%TO.C,S57*%
X242445421Y-182832531D03*
D16*
X244960000Y-177440000D03*
D12*
X239975307Y-175115600D03*
D13*
X238843643Y-178725563D03*
X247906720Y-182951746D03*
D12*
X249944693Y-179764400D03*
D13*
X242445421Y-182832531D03*
D23*
X239477263Y-181448457D03*
X250874878Y-184335820D03*
%TD*%
D13*
%TO.C,S15*%
X144960000Y-109190000D03*
X149960000Y-111390000D03*
X149960000Y-111390000D03*
X154960000Y-109190000D03*
D12*
X155460000Y-105440000D03*
D16*
X149960000Y-105440000D03*
D12*
X144460000Y-105440000D03*
D17*
X146685000Y-111390000D03*
X158235000Y-109190000D03*
%TD*%
D13*
%TO.C,S21*%
X173960000Y-121190000D03*
X168960000Y-123390000D03*
X163960000Y-121190000D03*
D16*
X168960000Y-117440000D03*
D13*
X168960000Y-123390000D03*
D12*
X174460000Y-117440000D03*
X163460000Y-117440000D03*
D17*
X165685000Y-123390000D03*
X177235000Y-121190000D03*
%TD*%
D13*
%TO.C,S47*%
X225960000Y-111390000D03*
D16*
X225960000Y-105440000D03*
D13*
X225960000Y-111390000D03*
X230960000Y-109190000D03*
D12*
X220460000Y-105440000D03*
X231460000Y-105440000D03*
D13*
X220960000Y-109190000D03*
D17*
X222685000Y-111390000D03*
X234235000Y-109190000D03*
%TD*%
D12*
%TO.C,S42*%
X220880000Y-162440000D03*
X231040000Y-162440000D03*
D13*
X228500000Y-157360000D03*
X222150000Y-159900000D03*
X223420000Y-157360000D03*
D11*
X225960000Y-162440000D03*
D13*
X229770000Y-159900000D03*
D14*
X233045000Y-159900000D03*
X220118000Y-157360000D03*
%TD*%
D13*
%TO.C,S6*%
X127150000Y-121900000D03*
X128420000Y-119360000D03*
D12*
X125880000Y-124440000D03*
D13*
X133500000Y-119360000D03*
D11*
X130960000Y-124440000D03*
D12*
X136040000Y-124440000D03*
D13*
X134770000Y-121900000D03*
D14*
X138045000Y-121900000D03*
X125118000Y-119360000D03*
%TD*%
D18*
%TO.C,JP5*%
X250716848Y-122269491D03*
X250716848Y-121268731D03*
%TD*%
D13*
%TO.C,S49*%
X176960000Y-179190000D03*
D12*
X176460000Y-175440000D03*
D13*
X181960000Y-181390000D03*
D16*
X181960000Y-175440000D03*
D13*
X181960000Y-181390000D03*
X186960000Y-179190000D03*
D12*
X187460000Y-175440000D03*
D17*
X178685000Y-181390000D03*
X190235000Y-179190000D03*
%TD*%
D16*
%TO.C,S23*%
X168960000Y-98440000D03*
D13*
X163960000Y-102190000D03*
X173960000Y-102190000D03*
X168960000Y-104390000D03*
D12*
X174460000Y-98440000D03*
D13*
X168960000Y-104390000D03*
D12*
X163460000Y-98440000D03*
D17*
X165685000Y-104390000D03*
X177235000Y-102190000D03*
%TD*%
D12*
%TO.C,S18*%
X174040000Y-155440000D03*
D13*
X172770000Y-152900000D03*
X166420000Y-150360000D03*
X165150000Y-152900000D03*
X171500000Y-150360000D03*
D11*
X168960000Y-155440000D03*
D12*
X163880000Y-155440000D03*
D14*
X176045000Y-152900000D03*
X163118000Y-150360000D03*
%TD*%
D12*
%TO.C,S45*%
X231460000Y-124440000D03*
D13*
X220960000Y-128190000D03*
X230960000Y-128190000D03*
X225960000Y-130390000D03*
X225960000Y-130390000D03*
D12*
X220460000Y-124440000D03*
D16*
X225960000Y-124440000D03*
D17*
X222685000Y-130390000D03*
X234235000Y-128190000D03*
%TD*%
D12*
%TO.C,S33*%
X212460000Y-155440000D03*
X201460000Y-155440000D03*
D13*
X206960000Y-161390000D03*
X206960000Y-161390000D03*
D16*
X206960000Y-155440000D03*
D13*
X201960000Y-159190000D03*
X211960000Y-159190000D03*
D17*
X203685000Y-161390000D03*
X215235000Y-159190000D03*
%TD*%
D13*
%TO.C,S37*%
X206960000Y-123390000D03*
D12*
X201460000Y-117440000D03*
D13*
X211960000Y-121190000D03*
X206960000Y-123390000D03*
X201960000Y-121190000D03*
D16*
X206960000Y-117440000D03*
D12*
X212460000Y-117440000D03*
D17*
X203685000Y-123390000D03*
X215235000Y-121190000D03*
%TD*%
D12*
%TO.C,S7*%
X136460000Y-105440000D03*
D16*
X130960000Y-105440000D03*
D13*
X135960000Y-109190000D03*
X125960000Y-109190000D03*
D12*
X125460000Y-105440000D03*
D13*
X130960000Y-111390000D03*
X130960000Y-111390000D03*
D17*
X127685000Y-111390000D03*
X139235000Y-109190000D03*
%TD*%
D12*
%TO.C,S48*%
X220880000Y-105440000D03*
D13*
X223420000Y-100360000D03*
D11*
X225960000Y-105440000D03*
D13*
X222150000Y-102900000D03*
X228500000Y-100360000D03*
X229770000Y-102900000D03*
D12*
X231040000Y-105440000D03*
D14*
X233045000Y-102900000D03*
X220118000Y-100360000D03*
%TD*%
D13*
%TO.C,S44*%
X222150000Y-140900000D03*
X223420000Y-138360000D03*
X229770000Y-140900000D03*
X228500000Y-138360000D03*
D12*
X220880000Y-143440000D03*
X231040000Y-143440000D03*
D11*
X225960000Y-143440000D03*
D14*
X233045000Y-140900000D03*
X220118000Y-138360000D03*
%TD*%
D13*
%TO.C,S50*%
X178150000Y-172900000D03*
X185770000Y-172900000D03*
D11*
X181960000Y-175440000D03*
D13*
X184500000Y-170360000D03*
X179420000Y-170360000D03*
D12*
X187040000Y-175440000D03*
X176880000Y-175440000D03*
D14*
X189045000Y-172900000D03*
X176118000Y-170360000D03*
%TD*%
D12*
%TO.C,S11*%
X144460000Y-143440000D03*
D13*
X149960000Y-149390000D03*
D12*
X155460000Y-143440000D03*
D13*
X144960000Y-147190000D03*
D16*
X149960000Y-143440000D03*
D13*
X149960000Y-149390000D03*
X154960000Y-147190000D03*
D17*
X146685000Y-149390000D03*
X158235000Y-147190000D03*
%TD*%
D12*
%TO.C,S24*%
X163880000Y-98440000D03*
X174040000Y-98440000D03*
D13*
X172770000Y-95900000D03*
X165150000Y-95900000D03*
D11*
X168960000Y-98440000D03*
D13*
X171500000Y-93360000D03*
X166420000Y-93360000D03*
D14*
X176045000Y-95900000D03*
X163118000Y-93360000D03*
%TD*%
D18*
%TO.C,JP8*%
X243108849Y-122269491D03*
X243108849Y-121268731D03*
%TD*%
D13*
%TO.C,S35*%
X201960000Y-140190000D03*
X211960000Y-140190000D03*
D12*
X212460000Y-136440000D03*
D13*
X206960000Y-142390000D03*
D16*
X206960000Y-136440000D03*
D13*
X206960000Y-142390000D03*
D12*
X201460000Y-136440000D03*
D17*
X203685000Y-142390000D03*
X215235000Y-140190000D03*
%TD*%
D13*
%TO.C,S59*%
X258227716Y-195093727D03*
X263126951Y-197509817D03*
D12*
X259250348Y-187055897D03*
D13*
X258227716Y-195093727D03*
D12*
X266321012Y-195482385D03*
D13*
X256699075Y-189849372D03*
D16*
X262785680Y-191269141D03*
D24*
X256122586Y-192584932D03*
X265232081Y-200018612D03*
%TD*%
D13*
%TO.C,S17*%
X168960000Y-161390000D03*
D16*
X168960000Y-155440000D03*
D13*
X173960000Y-159190000D03*
X163960000Y-159190000D03*
X168960000Y-161390000D03*
D12*
X163460000Y-155440000D03*
X174460000Y-155440000D03*
D17*
X165685000Y-161390000D03*
X177235000Y-159190000D03*
%TD*%
D13*
%TO.C,S38*%
X204420000Y-112360000D03*
D12*
X212040000Y-117440000D03*
D13*
X203150000Y-114900000D03*
D12*
X201880000Y-117440000D03*
D13*
X209500000Y-112360000D03*
X210770000Y-114900000D03*
D11*
X206960000Y-117440000D03*
D14*
X214045000Y-114900000D03*
X201118000Y-112360000D03*
%TD*%
D13*
%TO.C,S19*%
X163960000Y-140190000D03*
D12*
X163460000Y-136440000D03*
D16*
X168960000Y-136440000D03*
D13*
X168960000Y-142390000D03*
X168960000Y-142390000D03*
D12*
X174460000Y-136440000D03*
D13*
X173960000Y-140190000D03*
D17*
X165685000Y-142390000D03*
X177235000Y-140190000D03*
%TD*%
D19*
%TO.C,D29*%
X237703403Y-183986594D03*
D25*
X242651844Y-186294090D03*
X239661028Y-184899450D03*
D26*
X244609469Y-187206946D03*
%TD*%
D13*
%TO.C,S54*%
X223770000Y-179900000D03*
X216150000Y-179900000D03*
D12*
X214880000Y-182440000D03*
D13*
X217420000Y-177360000D03*
D12*
X225040000Y-182440000D03*
D13*
X222500000Y-177360000D03*
D11*
X219960000Y-182440000D03*
D14*
X227045000Y-179900000D03*
X214118000Y-177360000D03*
%TD*%
D13*
%TO.C,S46*%
X223420000Y-119360000D03*
X222150000Y-121900000D03*
D12*
X231040000Y-124440000D03*
D13*
X228500000Y-119360000D03*
D12*
X220880000Y-124440000D03*
D11*
X225960000Y-124440000D03*
D13*
X229770000Y-121900000D03*
D14*
X233045000Y-121900000D03*
X220118000Y-119360000D03*
%TD*%
D27*
%TO.C,J2*%
X270397619Y-100170787D03*
X263397619Y-100170787D03*
X270397619Y-101920787D03*
X263397619Y-101920787D03*
D28*
X261597619Y-104020787D03*
X261597619Y-98070787D03*
X265597619Y-104020787D03*
X265597619Y-98070787D03*
X268597619Y-104020787D03*
X268597619Y-98070787D03*
X260097619Y-99820787D03*
X260097619Y-102270787D03*
%TD*%
D13*
%TO.C,S8*%
X127150000Y-102900000D03*
X133500000Y-100360000D03*
X128420000Y-100360000D03*
D12*
X136040000Y-105440000D03*
X125880000Y-105440000D03*
D11*
X130960000Y-105440000D03*
D13*
X134770000Y-102900000D03*
D14*
X138045000Y-102900000D03*
X125118000Y-100360000D03*
%TD*%
D11*
%TO.C,S28*%
X187960000Y-129440000D03*
D13*
X184150000Y-126900000D03*
X191770000Y-126900000D03*
X185420000Y-124360000D03*
D12*
X193040000Y-129440000D03*
D13*
X190500000Y-124360000D03*
D12*
X182880000Y-129440000D03*
D14*
X195045000Y-126900000D03*
X182118000Y-124360000D03*
%TD*%
D12*
%TO.C,S56*%
X250040000Y-147440000D03*
D11*
X244960000Y-147440000D03*
D12*
X239880000Y-147440000D03*
D13*
X248770000Y-144900000D03*
X247500000Y-142360000D03*
X241150000Y-144900000D03*
X242420000Y-142360000D03*
D14*
X252045000Y-144900000D03*
X239118000Y-142360000D03*
%TD*%
D16*
%TO.C,S41*%
X225960000Y-162440000D03*
D12*
X220460000Y-162440000D03*
D13*
X230960000Y-166190000D03*
X220960000Y-166190000D03*
X225960000Y-168390000D03*
X225960000Y-168390000D03*
D12*
X231460000Y-162440000D03*
D17*
X222685000Y-168390000D03*
X234235000Y-166190000D03*
%TD*%
D13*
%TO.C,S12*%
X152500000Y-138360000D03*
X153770000Y-140900000D03*
D12*
X155040000Y-143440000D03*
X144880000Y-143440000D03*
D11*
X149960000Y-143440000D03*
D13*
X146150000Y-140900000D03*
X147420000Y-138360000D03*
D14*
X157045000Y-140900000D03*
X144118000Y-138360000D03*
%TD*%
D13*
%TO.C,S39*%
X201960000Y-102190000D03*
X206960000Y-104390000D03*
D12*
X201460000Y-98440000D03*
X212460000Y-98440000D03*
D16*
X206960000Y-98440000D03*
D13*
X206960000Y-104390000D03*
X211960000Y-102190000D03*
D17*
X203685000Y-104390000D03*
X215235000Y-102190000D03*
%TD*%
D12*
%TO.C,S36*%
X201880000Y-136440000D03*
D13*
X209500000Y-131360000D03*
X204420000Y-131360000D03*
X203150000Y-133900000D03*
D12*
X212040000Y-136440000D03*
D11*
X206960000Y-136440000D03*
D13*
X210770000Y-133900000D03*
D14*
X214045000Y-133900000D03*
X201118000Y-131360000D03*
%TD*%
D12*
%TO.C,S3*%
X125460000Y-143440000D03*
D16*
X130960000Y-143440000D03*
D13*
X130960000Y-149390000D03*
D12*
X136460000Y-143440000D03*
D13*
X130960000Y-149390000D03*
X135960000Y-147190000D03*
X125960000Y-147190000D03*
D17*
X127685000Y-149390000D03*
X139235000Y-147190000D03*
%TD*%
D13*
%TO.C,S26*%
X191770000Y-145900000D03*
X185420000Y-143360000D03*
X184150000Y-145900000D03*
D12*
X193040000Y-148440000D03*
D13*
X190500000Y-143360000D03*
D12*
X182880000Y-148440000D03*
D11*
X187960000Y-148440000D03*
D14*
X195045000Y-145900000D03*
X182118000Y-143360000D03*
%TD*%
D12*
%TO.C,S58*%
X249564044Y-179586901D03*
X240355956Y-175293099D03*
D13*
X244804879Y-171762506D03*
X249408923Y-173909407D03*
X242580418Y-173527803D03*
X249486483Y-176748154D03*
D11*
X244960000Y-177440000D03*
D29*
X252454641Y-178132229D03*
X241812251Y-170367021D03*
%TD*%
D30*
%TO.C,MCU2*%
X240429495Y-94768135D03*
D31*
X240429495Y-97308135D03*
X240429495Y-99848135D03*
X240429495Y-102388135D03*
X240429495Y-104928135D03*
X240429495Y-107468135D03*
X240429495Y-110008135D03*
X240429495Y-112548135D03*
X240429495Y-115088135D03*
X240429495Y-117628135D03*
X240429495Y-120168135D03*
X240429495Y-122708135D03*
X255669495Y-94768135D03*
X255669495Y-97308135D03*
X255669495Y-99848135D03*
X255669495Y-102388135D03*
X255669495Y-104928135D03*
X255669495Y-107468135D03*
X255669495Y-110008135D03*
X255669495Y-112548135D03*
X255669495Y-115088135D03*
X255669495Y-117628135D03*
X255669495Y-120168135D03*
X255669495Y-122708135D03*
%TD*%
D13*
%TO.C,S25*%
X182960000Y-152190000D03*
D16*
X187960000Y-148440000D03*
D13*
X187960000Y-154390000D03*
D12*
X193460000Y-148440000D03*
D13*
X192960000Y-152190000D03*
D12*
X182460000Y-148440000D03*
D13*
X187960000Y-154390000D03*
D17*
X184685000Y-154390000D03*
X196235000Y-152190000D03*
%TD*%
D16*
%TO.C,S51*%
X200960000Y-175440000D03*
D13*
X205960000Y-179190000D03*
X200960000Y-181390000D03*
X195960000Y-179190000D03*
D12*
X195460000Y-175440000D03*
D13*
X200960000Y-181390000D03*
D12*
X206460000Y-175440000D03*
D17*
X197685000Y-181390000D03*
X209235000Y-179190000D03*
%TD*%
D12*
%TO.C,S53*%
X214460000Y-182440000D03*
D16*
X219960000Y-182440000D03*
D12*
X225460000Y-182440000D03*
D13*
X224960000Y-186190000D03*
X219960000Y-188390000D03*
X219960000Y-188390000D03*
X214960000Y-186190000D03*
D17*
X216685000Y-188390000D03*
X228235000Y-186190000D03*
%TD*%
D30*
%TO.C,MCU1*%
X253580000Y-93470000D03*
D31*
X253580000Y-96010000D03*
X253580000Y-98550000D03*
X253580000Y-101090000D03*
X253580000Y-103630000D03*
X253580000Y-106170000D03*
X253580000Y-108710000D03*
X253580000Y-111250000D03*
X253580000Y-113790000D03*
X253580000Y-116330000D03*
X253580000Y-118870000D03*
X253580000Y-121410000D03*
X238340000Y-93470000D03*
X238340000Y-96010000D03*
X238340000Y-98550000D03*
X238340000Y-101090000D03*
X238340000Y-103630000D03*
X238340000Y-106170000D03*
X238340000Y-108710000D03*
X238340000Y-111250000D03*
X238340000Y-113790000D03*
X238340000Y-116330000D03*
X238340000Y-118870000D03*
X238340000Y-121410000D03*
%TD*%
D12*
%TO.C,S9*%
X144460000Y-162440000D03*
X155460000Y-162440000D03*
D13*
X149960000Y-168390000D03*
X149960000Y-168390000D03*
X144960000Y-166190000D03*
D16*
X149960000Y-162440000D03*
D13*
X154960000Y-166190000D03*
D17*
X146685000Y-168390000D03*
X158235000Y-166190000D03*
%TD*%
D11*
%TO.C,S4*%
X130960000Y-143440000D03*
D13*
X127150000Y-140900000D03*
D12*
X136040000Y-143440000D03*
X125880000Y-143440000D03*
D13*
X134770000Y-140900000D03*
X128420000Y-138360000D03*
X133500000Y-138360000D03*
D14*
X138045000Y-140900000D03*
X125118000Y-138360000D03*
%TD*%
D13*
%TO.C,S52*%
X204770000Y-172900000D03*
X197150000Y-172900000D03*
D12*
X195880000Y-175440000D03*
D13*
X198420000Y-170360000D03*
D12*
X206040000Y-175440000D03*
D11*
X200960000Y-175440000D03*
D13*
X203500000Y-170360000D03*
D14*
X208045000Y-172900000D03*
X195118000Y-170360000D03*
%TD*%
D18*
%TO.C,JP7*%
X245608849Y-122269491D03*
X245608849Y-121268731D03*
%TD*%
D13*
%TO.C,S60*%
X262282412Y-186717831D03*
X267180454Y-192555090D03*
D11*
X262785680Y-191269141D03*
D12*
X266051041Y-195160647D03*
D13*
X268309866Y-189949533D03*
D12*
X259520319Y-187377635D03*
D13*
X265044505Y-186058027D03*
D32*
X269285583Y-195063885D03*
X262922021Y-183528548D03*
%TD*%
D19*
%TO.C,D22*%
X222150000Y-152440000D03*
D33*
X227610000Y-152440000D03*
X224310000Y-152440000D03*
D34*
X229770000Y-152440000D03*
%TD*%
D33*
%TO.C,D18*%
X208610000Y-145440000D03*
D19*
X203150000Y-145440000D03*
D33*
X205310000Y-145440000D03*
D34*
X210770000Y-145440000D03*
%TD*%
D19*
%TO.C,D8*%
X146150000Y-114440000D03*
D33*
X151610000Y-114440000D03*
D34*
X153770000Y-114440000D03*
D33*
X148310000Y-114440000D03*
%TD*%
D19*
%TO.C,D3*%
X127150000Y-133440000D03*
D33*
X132610000Y-133440000D03*
X129310000Y-133440000D03*
D34*
X134770000Y-133440000D03*
%TD*%
D19*
%TO.C,D25*%
X178150000Y-184440000D03*
D33*
X183610000Y-184440000D03*
X180310000Y-184440000D03*
D34*
X185770000Y-184440000D03*
%TD*%
D19*
%TO.C,D17*%
X203150000Y-164440000D03*
D33*
X208610000Y-164440000D03*
D34*
X210770000Y-164440000D03*
D33*
X205310000Y-164440000D03*
%TD*%
D19*
%TO.C,D27*%
X216150000Y-191440000D03*
D33*
X221610000Y-191440000D03*
X218310000Y-191440000D03*
D34*
X223770000Y-191440000D03*
%TD*%
D33*
%TO.C,D2*%
X132610000Y-152440000D03*
D19*
X127150000Y-152440000D03*
D34*
X134770000Y-152440000D03*
D33*
X129310000Y-152440000D03*
%TD*%
D19*
%TO.C,D5*%
X146150000Y-171440000D03*
D33*
X151610000Y-171440000D03*
X148310000Y-171440000D03*
D34*
X153770000Y-171440000D03*
%TD*%
D33*
%TO.C,D20*%
X208610000Y-107440000D03*
D19*
X203150000Y-107440000D03*
D34*
X210770000Y-107440000D03*
D33*
X205310000Y-107440000D03*
%TD*%
%TO.C,D19*%
X208610000Y-126440000D03*
D19*
X203150000Y-126440000D03*
D34*
X210770000Y-126440000D03*
D33*
X205310000Y-126440000D03*
%TD*%
%TO.C,D7*%
X151610000Y-133440000D03*
D19*
X146150000Y-133440000D03*
D33*
X148310000Y-133440000D03*
D34*
X153770000Y-133440000D03*
%TD*%
D33*
%TO.C,D24*%
X227610000Y-114440000D03*
D19*
X222150000Y-114440000D03*
D33*
X224310000Y-114440000D03*
D34*
X229770000Y-114440000D03*
%TD*%
D19*
%TO.C,D6*%
X146150000Y-152440000D03*
D33*
X151610000Y-152440000D03*
X148310000Y-152440000D03*
D34*
X153770000Y-152440000D03*
%TD*%
D19*
%TO.C,D4*%
X127150000Y-114440000D03*
D33*
X132610000Y-114440000D03*
D34*
X134770000Y-114440000D03*
D33*
X129310000Y-114440000D03*
%TD*%
D19*
%TO.C,D23*%
X222150000Y-133440000D03*
D33*
X227610000Y-133440000D03*
X224310000Y-133440000D03*
D34*
X229770000Y-133440000D03*
%TD*%
D19*
%TO.C,D11*%
X165150000Y-126440000D03*
D33*
X170610000Y-126440000D03*
D34*
X172770000Y-126440000D03*
D33*
X167310000Y-126440000D03*
%TD*%
%TO.C,D21*%
X227610000Y-171440000D03*
D19*
X222150000Y-171440000D03*
D33*
X224310000Y-171440000D03*
D34*
X229770000Y-171440000D03*
%TD*%
D33*
%TO.C,D10*%
X170610000Y-145440000D03*
D19*
X165150000Y-145440000D03*
D34*
X172770000Y-145440000D03*
D33*
X167310000Y-145440000D03*
%TD*%
D19*
%TO.C,D1*%
X127150000Y-171440000D03*
D33*
X132610000Y-171440000D03*
X129310000Y-171440000D03*
D34*
X134770000Y-171440000D03*
%TD*%
D33*
%TO.C,D12*%
X170610000Y-107440000D03*
D19*
X165150000Y-107440000D03*
D33*
X167310000Y-107440000D03*
D34*
X172770000Y-107440000D03*
%TD*%
D33*
%TO.C,D9*%
X170610000Y-164440000D03*
D19*
X165150000Y-164440000D03*
D34*
X172770000Y-164440000D03*
D33*
X167310000Y-164440000D03*
%TD*%
D19*
%TO.C,D13*%
X184150000Y-157440000D03*
D33*
X189610000Y-157440000D03*
X186310000Y-157440000D03*
D34*
X191770000Y-157440000D03*
%TD*%
D33*
%TO.C,D26*%
X202610000Y-184440000D03*
D19*
X197150000Y-184440000D03*
D34*
X204770000Y-184440000D03*
D33*
X199310000Y-184440000D03*
%TD*%
%TO.C,D15*%
X189610000Y-119440000D03*
D19*
X184150000Y-119440000D03*
D34*
X191770000Y-119440000D03*
D33*
X186310000Y-119440000D03*
%TD*%
D19*
%TO.C,D28*%
X241150000Y-156440000D03*
D33*
X246610000Y-156440000D03*
D34*
X248770000Y-156440000D03*
D33*
X243310000Y-156440000D03*
%TD*%
D19*
%TO.C,D14*%
X184150000Y-138440000D03*
D33*
X189610000Y-138440000D03*
D34*
X191770000Y-138440000D03*
D33*
X186310000Y-138440000D03*
%TD*%
D19*
%TO.C,D16*%
X184150000Y-100440000D03*
D33*
X189610000Y-100440000D03*
X186310000Y-100440000D03*
D34*
X191770000Y-100440000D03*
%TD*%
M02*
