M48
; DRILL file {KiCad (6.0.10)} date Mon Feb 13 20:56:46 2023
; FORMAT={-:-/ absolute / metric / decimal}
; #@! TF.CreationDate,2023-02-13T20:56:46+01:00
; #@! TF.GenerationSoftware,Kicad,Pcbnew,(6.0.10)
; #@! TF.FileFunction,NonPlated,1,2,NPTH
FMAT,2
METRIC
; #@! TA.AperFunction,NonPlated,NPTH,ComponentDrill
T1C1.200
; #@! TA.AperFunction,NonPlated,NPTH,ComponentDrill
T2C1.702
; #@! TA.AperFunction,NonPlated,NPTH,ComponentDrill
T3C3.000
; #@! TA.AperFunction,NonPlated,NPTH,ComponentDrill
T4C3.429
; #@! TA.AperFunction,NonPlated,NPTH,ComponentDrill
T5C3.988
%
G90
G05
T1
X263.398Y-100.171
X263.398Y-101.921
X270.398Y-100.171
X270.398Y-101.921
T2
X125.46Y-105.44
X125.46Y-124.44
X125.46Y-143.44
X125.46Y-162.44
X125.88Y-105.44
X125.88Y-124.44
X125.88Y-143.44
X125.88Y-162.44
X136.04Y-105.44
X136.04Y-124.44
X136.04Y-143.44
X136.04Y-162.44
X136.46Y-105.44
X136.46Y-124.44
X136.46Y-143.44
X136.46Y-162.44
X144.46Y-105.44
X144.46Y-124.44
X144.46Y-143.44
X144.46Y-162.44
X144.88Y-105.44
X144.88Y-124.44
X144.88Y-143.44
X144.88Y-162.44
X155.04Y-105.44
X155.04Y-124.44
X155.04Y-143.44
X155.04Y-162.44
X155.46Y-105.44
X155.46Y-124.44
X155.46Y-143.44
X155.46Y-162.44
X163.46Y-98.44
X163.46Y-117.44
X163.46Y-136.44
X163.46Y-155.44
X163.88Y-98.44
X163.88Y-117.44
X163.88Y-136.44
X163.88Y-155.44
X174.04Y-98.44
X174.04Y-117.44
X174.04Y-136.44
X174.04Y-155.44
X174.46Y-98.44
X174.46Y-117.44
X174.46Y-136.44
X174.46Y-155.44
X176.46Y-175.44
X176.88Y-175.44
X182.46Y-91.44
X182.46Y-110.44
X182.46Y-129.44
X182.46Y-148.44
X182.88Y-91.44
X182.88Y-110.44
X182.88Y-129.44
X182.88Y-148.44
X187.04Y-175.44
X187.46Y-175.44
X193.04Y-91.44
X193.04Y-110.44
X193.04Y-129.44
X193.04Y-148.44
X193.46Y-91.44
X193.46Y-110.44
X193.46Y-129.44
X193.46Y-148.44
X195.46Y-175.44
X195.88Y-175.44
X201.46Y-98.44
X201.46Y-117.44
X201.46Y-136.44
X201.46Y-155.44
X201.88Y-98.44
X201.88Y-117.44
X201.88Y-136.44
X201.88Y-155.44
X206.04Y-175.44
X206.46Y-175.44
X212.04Y-98.44
X212.04Y-117.44
X212.04Y-136.44
X212.04Y-155.44
X212.46Y-98.44
X212.46Y-117.44
X212.46Y-136.44
X212.46Y-155.44
X214.46Y-182.44
X214.88Y-182.44
X220.46Y-105.44
X220.46Y-124.44
X220.46Y-143.44
X220.46Y-162.44
X220.88Y-105.44
X220.88Y-124.44
X220.88Y-143.44
X220.88Y-162.44
X225.04Y-182.44
X225.46Y-182.44
X231.04Y-105.44
X231.04Y-124.44
X231.04Y-143.44
X231.04Y-162.44
X231.46Y-105.44
X231.46Y-124.44
X231.46Y-143.44
X231.46Y-162.44
X239.46Y-147.44
X239.88Y-147.44
X239.975Y-175.116
X240.356Y-175.293
X249.564Y-179.587
X249.945Y-179.764
X250.04Y-147.44
X250.46Y-147.44
X259.25Y-187.056
X259.52Y-187.378
X266.051Y-195.161
X266.321Y-195.482
T3
X125.96Y-109.19
X125.96Y-128.19
X125.96Y-147.19
X125.96Y-166.19
X127.15Y-102.9
X127.15Y-121.9
X127.15Y-140.9
X127.15Y-159.9
X128.42Y-100.36
X128.42Y-119.36
X128.42Y-138.36
X128.42Y-157.36
X130.96Y-111.39
X130.96Y-111.39
X130.96Y-130.39
X130.96Y-130.39
X130.96Y-149.39
X130.96Y-149.39
X130.96Y-168.39
X130.96Y-168.39
X133.5Y-100.36
X133.5Y-119.36
X133.5Y-138.36
X133.5Y-157.36
X134.77Y-102.9
X134.77Y-121.9
X134.77Y-140.9
X134.77Y-159.9
X135.96Y-109.19
X135.96Y-128.19
X135.96Y-147.19
X135.96Y-166.19
X144.96Y-109.19
X144.96Y-128.19
X144.96Y-147.19
X144.96Y-166.19
X146.15Y-102.9
X146.15Y-121.9
X146.15Y-140.9
X146.15Y-159.9
X147.42Y-100.36
X147.42Y-119.36
X147.42Y-138.36
X147.42Y-157.36
X149.96Y-111.39
X149.96Y-111.39
X149.96Y-130.39
X149.96Y-130.39
X149.96Y-149.39
X149.96Y-149.39
X149.96Y-168.39
X149.96Y-168.39
X152.5Y-100.36
X152.5Y-119.36
X152.5Y-138.36
X152.5Y-157.36
X153.77Y-102.9
X153.77Y-121.9
X153.77Y-140.9
X153.77Y-159.9
X154.96Y-109.19
X154.96Y-128.19
X154.96Y-147.19
X154.96Y-166.19
X163.96Y-102.19
X163.96Y-121.19
X163.96Y-140.19
X163.96Y-159.19
X165.15Y-95.9
X165.15Y-114.9
X165.15Y-133.9
X165.15Y-152.9
X166.42Y-93.36
X166.42Y-112.36
X166.42Y-131.36
X166.42Y-150.36
X168.96Y-104.39
X168.96Y-104.39
X168.96Y-123.39
X168.96Y-123.39
X168.96Y-142.39
X168.96Y-142.39
X168.96Y-161.39
X168.96Y-161.39
X171.5Y-93.36
X171.5Y-112.36
X171.5Y-131.36
X171.5Y-150.36
X172.77Y-95.9
X172.77Y-114.9
X172.77Y-133.9
X172.77Y-152.9
X173.96Y-102.19
X173.96Y-121.19
X173.96Y-140.19
X173.96Y-159.19
X176.96Y-179.19
X178.15Y-172.9
X179.42Y-170.36
X181.96Y-181.39
X181.96Y-181.39
X182.96Y-95.19
X182.96Y-114.19
X182.96Y-133.19
X182.96Y-152.19
X184.15Y-88.9
X184.15Y-107.9
X184.15Y-126.9
X184.15Y-145.9
X184.5Y-170.36
X185.42Y-86.36
X185.42Y-105.36
X185.42Y-124.36
X185.42Y-143.36
X185.77Y-172.9
X186.96Y-179.19
X187.96Y-97.39
X187.96Y-97.39
X187.96Y-116.39
X187.96Y-116.39
X187.96Y-135.39
X187.96Y-135.39
X187.96Y-154.39
X187.96Y-154.39
X190.5Y-86.36
X190.5Y-105.36
X190.5Y-124.36
X190.5Y-143.36
X191.77Y-88.9
X191.77Y-107.9
X191.77Y-126.9
X191.77Y-145.9
X192.96Y-95.19
X192.96Y-114.19
X192.96Y-133.19
X192.96Y-152.19
X195.96Y-179.19
X197.15Y-172.9
X198.42Y-170.36
X200.96Y-181.39
X200.96Y-181.39
X201.96Y-102.19
X201.96Y-121.19
X201.96Y-140.19
X201.96Y-159.19
X203.15Y-95.9
X203.15Y-114.9
X203.15Y-133.9
X203.15Y-152.9
X203.5Y-170.36
X204.42Y-93.36
X204.42Y-112.36
X204.42Y-131.36
X204.42Y-150.36
X204.77Y-172.9
X205.96Y-179.19
X206.96Y-104.39
X206.96Y-104.39
X206.96Y-123.39
X206.96Y-123.39
X206.96Y-142.39
X206.96Y-142.39
X206.96Y-161.39
X206.96Y-161.39
X209.5Y-93.36
X209.5Y-112.36
X209.5Y-131.36
X209.5Y-150.36
X210.77Y-95.9
X210.77Y-114.9
X210.77Y-133.9
X210.77Y-152.9
X211.96Y-102.19
X211.96Y-121.19
X211.96Y-140.19
X211.96Y-159.19
X214.96Y-186.19
X216.15Y-179.9
X217.42Y-177.36
X219.96Y-188.39
X219.96Y-188.39
X220.96Y-109.19
X220.96Y-128.19
X220.96Y-147.19
X220.96Y-166.19
X222.15Y-102.9
X222.15Y-121.9
X222.15Y-140.9
X222.15Y-159.9
X222.5Y-177.36
X223.42Y-100.36
X223.42Y-119.36
X223.42Y-138.36
X223.42Y-157.36
X223.77Y-179.9
X224.96Y-186.19
X225.96Y-111.39
X225.96Y-111.39
X225.96Y-130.39
X225.96Y-130.39
X225.96Y-149.39
X225.96Y-149.39
X225.96Y-168.39
X225.96Y-168.39
X228.5Y-100.36
X228.5Y-119.36
X228.5Y-138.36
X228.5Y-157.36
X229.77Y-102.9
X229.77Y-121.9
X229.77Y-140.9
X229.77Y-159.9
X230.96Y-109.19
X230.96Y-128.19
X230.96Y-147.19
X230.96Y-166.19
X238.844Y-178.726
X239.96Y-151.19
X241.15Y-144.9
X242.42Y-142.36
X242.445Y-182.833
X242.445Y-182.833
X242.58Y-173.528
X244.805Y-171.763
X244.96Y-153.39
X244.96Y-153.39
X247.5Y-142.36
X247.907Y-182.952
X248.77Y-144.9
X249.409Y-173.909
X249.486Y-176.748
X249.96Y-151.19
X256.699Y-189.849
X258.228Y-195.094
X258.228Y-195.094
X262.282Y-186.718
X263.127Y-197.51
X265.045Y-186.058
X267.18Y-192.555
X268.31Y-189.95
T4
X130.96Y-105.44
X130.96Y-124.44
X130.96Y-143.44
X130.96Y-162.44
X149.96Y-105.44
X149.96Y-124.44
X149.96Y-143.44
X149.96Y-162.44
X168.96Y-98.44
X168.96Y-117.44
X168.96Y-136.44
X168.96Y-155.44
X181.96Y-175.44
X187.96Y-91.44
X187.96Y-110.44
X187.96Y-129.44
X187.96Y-148.44
X200.96Y-175.44
X206.96Y-98.44
X206.96Y-117.44
X206.96Y-136.44
X206.96Y-155.44
X219.96Y-182.44
X225.96Y-105.44
X225.96Y-124.44
X225.96Y-143.44
X225.96Y-162.44
X244.96Y-147.44
X244.96Y-177.44
X262.786Y-191.269
T5
X130.96Y-105.44
X130.96Y-124.44
X130.96Y-143.44
X130.96Y-162.44
X149.96Y-105.44
X149.96Y-124.44
X149.96Y-143.44
X149.96Y-162.44
X168.96Y-98.44
X168.96Y-117.44
X168.96Y-136.44
X168.96Y-155.44
X181.96Y-175.44
X187.96Y-91.44
X187.96Y-110.44
X187.96Y-129.44
X187.96Y-148.44
X200.96Y-175.44
X206.96Y-98.44
X206.96Y-117.44
X206.96Y-136.44
X206.96Y-155.44
X219.96Y-182.44
X225.96Y-105.44
X225.96Y-124.44
X225.96Y-143.44
X225.96Y-162.44
X244.96Y-147.44
X244.96Y-177.44
X262.786Y-191.269
T0
M30
