  0
SECTION
  2
HEADER
  9
$ANGBASE
  50
0.0
  9
$ANGDIR
  70
1
  9
$MEASUREMENT
  70
1
  0
ENDSEC
  0
SECTION
  2
TABLES
  0
TABLE
  2
LTYPE
  70
4
  0
LTYPE
  5
40F
  2
CONTINUOUS
  70
0
  3
Solid line
  72
65
  73
0
  40
0.0
  0
LTYPE
  5
410
  2
DASHDOT
 70
0
  3
Dash Dot ____ _ ____ _
 72
65
 73
4
 40
2.0
 49
1.25
 49
-0.25
 49
0.25
 49
-0.25
  0
LTYPE
  5
411
  2
DASHED
 70
0
  3
Dashed __ __ __ __ __
 72
65
 73
2
 40
0.75
 49
0.5
 49
-0.25
  0
LTYPE
  5
43B
  2
DOTTED
 70
0
  3
Dotted .  .  .  .
 72
65
 73
2
 40
0.2
 49
0.0
 49
-0.2
  0
ENDTAB
  0
TABLE
  2
STYLE
  70
4
  0
STYLE
  2
KICAD
  70
0
  40
0
  41
1
  42
1
  50
0
  71
0
  3
isocp.shx
  0
STYLE
  2
KICADB
  70
0
  40
0
  41
1
  42
1
  50
0
  71
0
  3
isocp.shx
  0
STYLE
  2
KICADI
  70
0
  40
0
  41
1
  42
1
  50
15
  71
0
  3
isocp.shx
  0
STYLE
  2
KICADBI
  70
0
  40
0
  41
1
  42
1
  50
15
  71
0
  3
isocp.shx
  0
ENDTAB
  0
TABLE
  2
LAYER
  70
1
  0
LAYER
  2
BLACK
  70
0
  62
7
  6
CONTINUOUS
  0
ENDTAB
  0
ENDSEC
  0
SECTION
  2
ENTITIES
0
LINE
8
BLACK
6
CONTINUOUS
10
78.1681
20
-37.0599
11
77.7081
21
-37.0147
0
LINE
8
BLACK
6
CONTINUOUS
10
77.7081
20
-37.0147
11
77.252
21
-36.9395
0
LINE
8
BLACK
6
CONTINUOUS
10
77.252
20
-36.9395
11
76.8018
21
-36.8347
0
LINE
8
BLACK
6
CONTINUOUS
10
76.8018
20
-36.8347
11
76.3594
21
-36.7007
0
LINE
8
BLACK
6
CONTINUOUS
10
76.3594
20
-36.7007
11
75.9266
21
-36.5381
0
LINE
8
BLACK
6
CONTINUOUS
10
75.9266
20
-36.5381
11
75.5055
21
-36.3476
0
LINE
8
BLACK
6
CONTINUOUS
10
75.5055
20
-36.3476
11
75.0976
21
-36.13
0
LINE
8
BLACK
6
CONTINUOUS
10
75.0976
20
-36.13
11
74.7049
21
-35.8863
0
LINE
8
BLACK
6
CONTINUOUS
10
74.7049
20
-35.8863
11
74.3289
21
-35.6174
0
LINE
8
BLACK
6
CONTINUOUS
10
74.3289
20
-35.6174
11
73.9712
21
-35.3245
0
LINE
8
BLACK
6
CONTINUOUS
10
73.9712
20
-35.3245
11
73.9712
21
-35.3245
0
LINE
8
BLACK
6
CONTINUOUS
10
73.9712
20
-35.3245
11
69.93
21
-31.7884
0
LINE
8
BLACK
6
CONTINUOUS
10
69.93
20
-31.7884
11
69.9164
21
-31.7715
0
LINE
8
BLACK
6
CONTINUOUS
10
69.9164
20
-31.7715
11
69.5467
21
-31.4707
0
LINE
8
BLACK
6
CONTINUOUS
10
69.5467
20
-31.4707
11
69.1388
21
-31.185
0
LINE
8
BLACK
6
CONTINUOUS
10
69.1388
20
-31.185
11
68.7114
21
-30.9294
0
LINE
8
BLACK
6
CONTINUOUS
10
68.7114
20
-30.9294
11
68.2668
21
-30.705
0
LINE
8
BLACK
6
CONTINUOUS
10
68.2668
20
-30.705
11
67.8072
21
-30.5132
0
LINE
8
BLACK
6
CONTINUOUS
10
67.8072
20
-30.5132
11
67.335
21
-30.355
0
LINE
8
BLACK
6
CONTINUOUS
10
67.335
20
-30.355
11
66.8526
21
-30.231
0
LINE
8
BLACK
6
CONTINUOUS
10
66.8526
20
-30.231
11
66.3627
21
-30.142
0
LINE
8
BLACK
6
CONTINUOUS
10
66.3627
20
-30.142
11
65.8675
21
-30.0884
0
LINE
8
BLACK
6
CONTINUOUS
10
65.8675
20
-30.0884
11
65.3824
21
-30.0709
0
LINE
8
BLACK
6
CONTINUOUS
10
65.3824
20
-30.0709
11
65.3699
21
-30.075
0
LINE
8
BLACK
6
CONTINUOUS
10
65.3699
20
-30.075
11
41.0751
21
-30.075
0
LINE
8
BLACK
6
CONTINUOUS
10
41.0751
20
-30.075
11
40.6223
21
-30.0605
0
LINE
8
BLACK
6
CONTINUOUS
10
40.6223
20
-30.0605
11
40.1714
21
-30.017
0
LINE
8
BLACK
6
CONTINUOUS
10
40.1714
20
-30.017
11
39.7241
21
-29.9448
0
LINE
8
BLACK
6
CONTINUOUS
10
39.7241
20
-29.9448
11
39.2825
21
-29.8441
0
LINE
8
BLACK
6
CONTINUOUS
10
39.2825
20
-29.8441
11
38.8481
21
-29.7154
0
LINE
8
BLACK
6
CONTINUOUS
10
38.8481
20
-29.7154
11
38.4229
21
-29.5591
0
LINE
8
BLACK
6
CONTINUOUS
10
38.4229
20
-29.5591
11
38.0086
21
-29.3759
0
LINE
8
BLACK
6
CONTINUOUS
10
38.0086
20
-29.3759
11
37.6068
21
-29.1666
0
LINE
8
BLACK
6
CONTINUOUS
10
37.6068
20
-29.1666
11
37.2193
21
-28.932
0
LINE
8
BLACK
6
CONTINUOUS
10
37.2193
20
-28.932
11
37.2193
21
-28.932
0
LINE
8
BLACK
6
CONTINUOUS
10
37.2193
20
-28.932
11
37.2193
21
-28.932
0
LINE
8
BLACK
6
CONTINUOUS
10
37.2193
20
-28.932
11
20.699
21
-18.1938
0
LINE
8
BLACK
6
CONTINUOUS
10
20.699
20
-18.1938
11
20.6863
21
-18.182
0
LINE
8
BLACK
6
CONTINUOUS
10
20.6863
20
-18.182
11
20.3214
21
-17.9611
0
LINE
8
BLACK
6
CONTINUOUS
10
20.3214
20
-17.9611
11
19.9279
21
-17.7561
0
LINE
8
BLACK
6
CONTINUOUS
10
19.9279
20
-17.7561
11
19.5222
21
-17.5767
0
LINE
8
BLACK
6
CONTINUOUS
10
19.5222
20
-17.5767
11
19.1058
21
-17.4236
0
LINE
8
BLACK
6
CONTINUOUS
10
19.1058
20
-17.4236
11
18.6804
21
-17.2975
0
LINE
8
BLACK
6
CONTINUOUS
10
18.6804
20
-17.2975
11
18.2479
21
-17.1989
0
LINE
8
BLACK
6
CONTINUOUS
10
18.2479
20
-17.1989
11
17.8099
21
-17.1282
0
LINE
8
BLACK
6
CONTINUOUS
10
17.8099
20
-17.1282
11
17.3683
21
-17.0856
0
LINE
8
BLACK
6
CONTINUOUS
10
17.3683
20
-17.0856
11
16.9349
21
-17.0718
0
LINE
8
BLACK
6
CONTINUOUS
10
16.9349
20
-17.0718
11
16.9249
21
-17.075
0
LINE
8
BLACK
6
CONTINUOUS
10
16.9249
20
-17.075
11
-10
21
-17.075
0
LINE
8
BLACK
6
CONTINUOUS
10
-10
20
-17.075
11
-10.5047
21
-17.057
0
LINE
8
BLACK
6
CONTINUOUS
10
-10.5047
20
-17.057
11
-11.0069
21
-17.003
0
LINE
8
BLACK
6
CONTINUOUS
10
-11.0069
20
-17.003
11
-11.5039
21
-16.9133
0
LINE
8
BLACK
6
CONTINUOUS
10
-11.5039
20
-16.9133
11
-11.9933
21
-16.7884
0
LINE
8
BLACK
6
CONTINUOUS
10
-11.9933
20
-16.7884
11
-12.4725
21
-16.6289
0
LINE
8
BLACK
6
CONTINUOUS
10
-12.4725
20
-16.6289
11
-12.9391
21
-16.4356
0
LINE
8
BLACK
6
CONTINUOUS
10
-12.9391
20
-16.4356
11
-13.3907
21
-16.2096
0
LINE
8
BLACK
6
CONTINUOUS
10
-13.3907
20
-16.2096
11
-13.825
21
-15.9519
0
LINE
8
BLACK
6
CONTINUOUS
10
-13.825
20
-15.9519
11
-14.2399
21
-15.6638
0
LINE
8
BLACK
6
CONTINUOUS
10
-14.2399
20
-15.6638
11
-14.6331
21
-15.3469
0
LINE
8
BLACK
6
CONTINUOUS
10
-14.6331
20
-15.3469
11
-15.0028
21
-15.0028
0
LINE
8
BLACK
6
CONTINUOUS
10
-15.0028
20
-15.0028
11
-15.3469
21
-14.6331
0
LINE
8
BLACK
6
CONTINUOUS
10
-15.3469
20
-14.6331
11
-15.6638
21
-14.2399
0
LINE
8
BLACK
6
CONTINUOUS
10
-15.6638
20
-14.2399
11
-15.9519
21
-13.825
0
LINE
8
BLACK
6
CONTINUOUS
10
-15.9519
20
-13.825
11
-16.2096
21
-13.3907
0
LINE
8
BLACK
6
CONTINUOUS
10
-16.2096
20
-13.3907
11
-16.4356
21
-12.9391
0
LINE
8
BLACK
6
CONTINUOUS
10
-16.4356
20
-12.9391
11
-16.6289
21
-12.4725
0
LINE
8
BLACK
6
CONTINUOUS
10
-16.6289
20
-12.4725
11
-16.7884
21
-11.9933
0
LINE
8
BLACK
6
CONTINUOUS
10
-16.7884
20
-11.9933
11
-16.9133
21
-11.5039
0
LINE
8
BLACK
6
CONTINUOUS
10
-16.9133
20
-11.5039
11
-17.003
21
-11.0069
0
LINE
8
BLACK
6
CONTINUOUS
10
-17.003
20
-11.0069
11
-17.057
21
-10.5047
0
LINE
8
BLACK
6
CONTINUOUS
10
-17.057
20
-10.5047
11
-17.075
21
-10
0
LINE
8
BLACK
6
CONTINUOUS
10
-17.075
20
-10
11
-17.075
21
69
0
LINE
8
BLACK
6
CONTINUOUS
10
-17.075
20
69
11
-17.0733
21
69.0097
0
LINE
8
BLACK
6
CONTINUOUS
10
-17.0733
20
69.0097
11
-17.0739
21
69.013
0
LINE
8
BLACK
6
CONTINUOUS
10
-17.0739
20
69.013
11
-17.0722
21
69.0159
0
LINE
8
BLACK
6
CONTINUOUS
10
-17.0722
20
69.0159
11
-17.0705
21
69.0257
0
LINE
8
BLACK
6
CONTINUOUS
10
-17.0705
20
69.0257
11
-17.058
21
69.0406
0
LINE
8
BLACK
6
CONTINUOUS
10
-17.058
20
69.0406
11
-17.0482
21
69.0575
0
LINE
8
BLACK
6
CONTINUOUS
10
-17.0482
20
69.0575
11
-17.0419
21
69.0598
0
LINE
8
BLACK
6
CONTINUOUS
10
-17.0419
20
69.0598
11
-17.0375
21
69.065
0
LINE
8
BLACK
6
CONTINUOUS
10
-17.0375
20
69.065
11
-17.0183
21
69.0683
0
LINE
8
BLACK
6
CONTINUOUS
10
-17.0183
20
69.0683
11
-17
21
69.075
0
LINE
8
BLACK
6
CONTINUOUS
10
-17
20
69.075
11
-16.9943
21
69.075
0
LINE
8
BLACK
6
CONTINUOUS
10
-16.9943
20
69.075
11
-14.9055
21
70.2931
0
LINE
8
BLACK
6
CONTINUOUS
10
-14.9055
20
70.2931
11
-12.7796
21
71.4885
0
LINE
8
BLACK
6
CONTINUOUS
10
-12.7796
20
71.4885
11
-10.6351
21
72.6501
0
LINE
8
BLACK
6
CONTINUOUS
10
-10.6351
20
72.6501
11
-8.47256
21
73.7778
0
LINE
8
BLACK
6
CONTINUOUS
10
-8.47256
20
73.7778
11
-6.29252
21
74.8713
0
LINE
8
BLACK
6
CONTINUOUS
10
-6.29252
20
74.8713
11
-4.09551
21
75.9303
0
LINE
8
BLACK
6
CONTINUOUS
10
-4.09551
20
75.9303
11
-1.88209
21
76.9546
0
LINE
8
BLACK
6
CONTINUOUS
10
-1.88209
20
76.9546
11
0.347196
21
77.9438
0
LINE
8
BLACK
6
CONTINUOUS
10
0.347196
20
77.9438
11
2.5918
21
78.8978
0
LINE
8
BLACK
6
CONTINUOUS
10
2.5918
20
78.8978
11
4.85115
21
79.8163
0
LINE
8
BLACK
6
CONTINUOUS
10
4.85115
20
79.8163
11
7.1247
21
80.699
0
LINE
8
BLACK
6
CONTINUOUS
10
7.1247
20
80.699
11
9.41188
21
81.5459
0
LINE
8
BLACK
6
CONTINUOUS
10
9.41188
20
81.5459
11
11.7121
21
82.3565
0
LINE
8
BLACK
6
CONTINUOUS
10
11.7121
20
82.3565
11
14.0249
21
83.1309
0
LINE
8
BLACK
6
CONTINUOUS
10
14.0249
20
83.1309
11
16.3495
21
83.8687
0
LINE
8
BLACK
6
CONTINUOUS
10
16.3495
20
83.8687
11
18.6855
21
84.5697
0
LINE
8
BLACK
6
CONTINUOUS
10
18.6855
20
84.5697
11
21.0322
21
85.2339
0
LINE
8
BLACK
6
CONTINUOUS
10
21.0322
20
85.2339
11
23.3892
21
85.861
0
LINE
8
BLACK
6
CONTINUOUS
10
23.3892
20
85.861
11
25.7557
21
86.4508
0
LINE
8
BLACK
6
CONTINUOUS
10
25.7557
20
86.4508
11
28.1312
21
87.0034
0
LINE
8
BLACK
6
CONTINUOUS
10
28.1312
20
87.0034
11
30.5151
21
87.5184
0
LINE
8
BLACK
6
CONTINUOUS
10
30.5151
20
87.5184
11
32.9068
21
87.9957
0
LINE
8
BLACK
6
CONTINUOUS
10
32.9068
20
87.9957
11
35.3058
21
88.4353
0
LINE
8
BLACK
6
CONTINUOUS
10
35.3058
20
88.4353
11
37.7114
21
88.8371
0
LINE
8
BLACK
6
CONTINUOUS
10
37.7114
20
88.8371
11
40.123
21
89.2009
0
LINE
8
BLACK
6
CONTINUOUS
10
40.123
20
89.2009
11
42.5401
21
89.5266
0
LINE
8
BLACK
6
CONTINUOUS
10
42.5401
20
89.5266
11
44.962
21
89.8142
0
LINE
8
BLACK
6
CONTINUOUS
10
44.962
20
89.8142
11
47.3881
21
90.0636
0
LINE
8
BLACK
6
CONTINUOUS
10
47.3881
20
90.0636
11
49.8179
21
90.2748
0
LINE
8
BLACK
6
CONTINUOUS
10
49.8179
20
90.2748
11
52.2507
21
90.4476
0
LINE
8
BLACK
6
CONTINUOUS
10
52.2507
20
90.4476
11
54.6859
21
90.5821
0
LINE
8
BLACK
6
CONTINUOUS
10
54.6859
20
90.5821
11
57.1229
21
90.6781
0
LINE
8
BLACK
6
CONTINUOUS
10
57.1229
20
90.6781
11
59.5612
21
90.7358
0
LINE
8
BLACK
6
CONTINUOUS
10
59.5612
20
90.7358
11
62
21
90.755
0
LINE
8
BLACK
6
CONTINUOUS
10
62
20
90.755
11
64.4388
21
90.7358
0
LINE
8
BLACK
6
CONTINUOUS
10
64.4388
20
90.7358
11
66.8771
21
90.6781
0
LINE
8
BLACK
6
CONTINUOUS
10
66.8771
20
90.6781
11
69.3141
21
90.5821
0
LINE
8
BLACK
6
CONTINUOUS
10
69.3141
20
90.5821
11
71.7493
21
90.4476
0
LINE
8
BLACK
6
CONTINUOUS
10
71.7493
20
90.4476
11
74.1821
21
90.2748
0
LINE
8
BLACK
6
CONTINUOUS
10
74.1821
20
90.2748
11
76.6119
21
90.0636
0
LINE
8
BLACK
6
CONTINUOUS
10
76.6119
20
90.0636
11
79.038
21
89.8142
0
LINE
8
BLACK
6
CONTINUOUS
10
79.038
20
89.8142
11
81.4599
21
89.5266
0
LINE
8
BLACK
6
CONTINUOUS
10
81.4599
20
89.5266
11
83.877
21
89.2009
0
LINE
8
BLACK
6
CONTINUOUS
10
83.877
20
89.2009
11
86.2886
21
88.8371
0
LINE
8
BLACK
6
CONTINUOUS
10
86.2886
20
88.8371
11
88.6942
21
88.4353
0
LINE
8
BLACK
6
CONTINUOUS
10
88.6942
20
88.4353
11
91.0932
21
87.9957
0
LINE
8
BLACK
6
CONTINUOUS
10
91.0932
20
87.9957
11
93.4849
21
87.5184
0
LINE
8
BLACK
6
CONTINUOUS
10
93.4849
20
87.5184
11
95.8688
21
87.0034
0
LINE
8
BLACK
6
CONTINUOUS
10
95.8688
20
87.0034
11
98.2443
21
86.4508
0
LINE
8
BLACK
6
CONTINUOUS
10
98.2443
20
86.4508
11
100.611
21
85.861
0
LINE
8
BLACK
6
CONTINUOUS
10
100.611
20
85.861
11
102.968
21
85.2339
0
LINE
8
BLACK
6
CONTINUOUS
10
102.968
20
85.2339
11
105.315
21
84.5697
0
LINE
8
BLACK
6
CONTINUOUS
10
105.315
20
84.5697
11
107.65
21
83.8687
0
LINE
8
BLACK
6
CONTINUOUS
10
107.65
20
83.8687
11
109.975
21
83.1309
0
LINE
8
BLACK
6
CONTINUOUS
10
109.975
20
83.1309
11
112.288
21
82.3565
0
LINE
8
BLACK
6
CONTINUOUS
10
112.288
20
82.3565
11
114.588
21
81.5459
0
LINE
8
BLACK
6
CONTINUOUS
10
114.588
20
81.5459
11
116.875
21
80.699
0
LINE
8
BLACK
6
CONTINUOUS
10
116.875
20
80.699
11
119.149
21
79.8163
0
LINE
8
BLACK
6
CONTINUOUS
10
119.149
20
79.8163
11
121.408
21
78.8978
0
LINE
8
BLACK
6
CONTINUOUS
10
121.408
20
78.8978
11
123.653
21
77.9438
0
LINE
8
BLACK
6
CONTINUOUS
10
123.653
20
77.9438
11
125.882
21
76.9546
0
LINE
8
BLACK
6
CONTINUOUS
10
125.882
20
76.9546
11
128.096
21
75.9303
0
LINE
8
BLACK
6
CONTINUOUS
10
128.096
20
75.9303
11
130.293
21
74.8713
0
LINE
8
BLACK
6
CONTINUOUS
10
130.293
20
74.8713
11
132.473
21
73.7778
0
LINE
8
BLACK
6
CONTINUOUS
10
132.473
20
73.7778
11
134.635
21
72.6501
0
LINE
8
BLACK
6
CONTINUOUS
10
134.635
20
72.6501
11
136.78
21
71.4885
0
LINE
8
BLACK
6
CONTINUOUS
10
136.78
20
71.4885
11
138.906
21
70.2931
0
LINE
8
BLACK
6
CONTINUOUS
10
138.906
20
70.2931
11
140.994
21
69.075
0
LINE
8
BLACK
6
CONTINUOUS
10
140.994
20
69.075
11
141
21
69.075
0
LINE
8
BLACK
6
CONTINUOUS
10
141
20
69.075
11
141.01
21
69.0733
0
LINE
8
BLACK
6
CONTINUOUS
10
141.01
20
69.0733
11
141.013
21
69.0739
0
LINE
8
BLACK
6
CONTINUOUS
10
141.013
20
69.0739
11
141.016
21
69.0722
0
LINE
8
BLACK
6
CONTINUOUS
10
141.016
20
69.0722
11
141.026
21
69.0705
0
LINE
8
BLACK
6
CONTINUOUS
10
141.026
20
69.0705
11
141.041
21
69.058
0
LINE
8
BLACK
6
CONTINUOUS
10
141.041
20
69.058
11
141.057
21
69.0482
0
LINE
8
BLACK
6
CONTINUOUS
10
141.057
20
69.0482
11
141.06
21
69.0418
0
LINE
8
BLACK
6
CONTINUOUS
10
141.06
20
69.0418
11
141.065
21
69.0375
0
LINE
8
BLACK
6
CONTINUOUS
10
141.065
20
69.0375
11
141.068
21
69.0183
0
LINE
8
BLACK
6
CONTINUOUS
10
141.068
20
69.0183
11
141.075
21
69
0
LINE
8
BLACK
6
CONTINUOUS
10
141.075
20
69
11
141.075
21
-8.43399
0
LINE
8
BLACK
6
CONTINUOUS
10
141.075
20
-8.43399
11
141.071
21
-8.45392
0
LINE
8
BLACK
6
CONTINUOUS
10
141.071
20
-8.45392
11
141.088
21
-8.91734
0
LINE
8
BLACK
6
CONTINUOUS
10
141.088
20
-8.91734
11
141.138
21
-9.39835
0
LINE
8
BLACK
6
CONTINUOUS
10
141.138
20
-9.39835
11
141.222
21
-9.87465
0
LINE
8
BLACK
6
CONTINUOUS
10
141.222
20
-9.87465
11
141.339
21
-10.3439
0
LINE
8
BLACK
6
CONTINUOUS
10
141.339
20
-10.3439
11
141.489
21
-10.8039
0
LINE
8
BLACK
6
CONTINUOUS
10
141.489
20
-10.8039
11
141.67
21
-11.2524
0
LINE
8
BLACK
6
CONTINUOUS
10
141.67
20
-11.2524
11
141.882
21
-11.6871
0
LINE
8
BLACK
6
CONTINUOUS
10
141.882
20
-11.6871
11
142.124
21
-12.1059
0
LINE
8
BLACK
6
CONTINUOUS
10
142.124
20
-12.1059
11
142.394
21
-12.5069
0
LINE
8
BLACK
6
CONTINUOUS
10
142.394
20
-12.5069
11
142.685
21
-12.8788
0
LINE
8
BLACK
6
CONTINUOUS
10
142.685
20
-12.8788
11
142.695
21
-12.8853
0
LINE
8
BLACK
6
CONTINUOUS
10
142.695
20
-12.8853
11
154.411
21
-26.8479
0
LINE
8
BLACK
6
CONTINUOUS
10
154.411
20
-26.8479
11
154.722
21
-27.2462
0
LINE
8
BLACK
6
CONTINUOUS
10
154.722
20
-27.2462
11
155.003
21
-27.6655
0
LINE
8
BLACK
6
CONTINUOUS
10
155.003
20
-27.6655
11
155.254
21
-28.1039
0
LINE
8
BLACK
6
CONTINUOUS
10
155.254
20
-28.1039
11
155.473
21
-28.5591
0
LINE
8
BLACK
6
CONTINUOUS
10
155.473
20
-28.5591
11
155.659
21
-29.0287
0
LINE
8
BLACK
6
CONTINUOUS
10
155.659
20
-29.0287
11
155.811
21
-29.5104
0
LINE
8
BLACK
6
CONTINUOUS
10
155.811
20
-29.5104
11
155.928
21
-30.0016
0
LINE
8
BLACK
6
CONTINUOUS
10
155.928
20
-30.0016
11
156.01
21
-30.5
0
LINE
8
BLACK
6
CONTINUOUS
10
156.01
20
-30.5
11
156.056
21
-31.003
0
LINE
8
BLACK
6
CONTINUOUS
10
156.056
20
-31.003
11
156.066
21
-31.5079
0
LINE
8
BLACK
6
CONTINUOUS
10
156.066
20
-31.5079
11
156.04
21
-32.0123
0
LINE
8
BLACK
6
CONTINUOUS
10
156.04
20
-32.0123
11
155.978
21
-32.5135
0
LINE
8
BLACK
6
CONTINUOUS
10
155.978
20
-32.5135
11
155.88
21
-33.0091
0
LINE
8
BLACK
6
CONTINUOUS
10
155.88
20
-33.0091
11
155.747
21
-33.4964
0
LINE
8
BLACK
6
CONTINUOUS
10
155.747
20
-33.4964
11
155.58
21
-33.973
0
LINE
8
BLACK
6
CONTINUOUS
10
155.58
20
-33.973
11
155.38
21
-34.4365
0
LINE
8
BLACK
6
CONTINUOUS
10
155.38
20
-34.4365
11
155.146
21
-34.8844
0
LINE
8
BLACK
6
CONTINUOUS
10
155.146
20
-34.8844
11
154.882
21
-35.3146
0
LINE
8
BLACK
6
CONTINUOUS
10
154.882
20
-35.3146
11
154.587
21
-35.7249
0
LINE
8
BLACK
6
CONTINUOUS
10
154.587
20
-35.7249
11
154.264
21
-36.1131
0
LINE
8
BLACK
6
CONTINUOUS
10
154.264
20
-36.1131
11
153.914
21
-36.4772
0
LINE
8
BLACK
6
CONTINUOUS
10
153.914
20
-36.4772
11
153.539
21
-36.8154
0
LINE
8
BLACK
6
CONTINUOUS
10
153.539
20
-36.8154
11
153.539
21
-36.8154
0
LINE
8
BLACK
6
CONTINUOUS
10
153.539
20
-36.8154
11
136.303
21
-51.2781
0
LINE
8
BLACK
6
CONTINUOUS
10
136.303
20
-51.2781
11
136.303
21
-51.2781
0
LINE
8
BLACK
6
CONTINUOUS
10
136.303
20
-51.2781
11
135.905
21
-51.5888
0
LINE
8
BLACK
6
CONTINUOUS
10
135.905
20
-51.5888
11
135.486
21
-51.8702
0
LINE
8
BLACK
6
CONTINUOUS
10
135.486
20
-51.8702
11
135.047
21
-52.121
0
LINE
8
BLACK
6
CONTINUOUS
10
135.047
20
-52.121
11
134.592
21
-52.3399
0
LINE
8
BLACK
6
CONTINUOUS
10
134.592
20
-52.3399
11
134.122
21
-52.5257
0
LINE
8
BLACK
6
CONTINUOUS
10
134.122
20
-52.5257
11
133.641
21
-52.6776
0
LINE
8
BLACK
6
CONTINUOUS
10
133.641
20
-52.6776
11
133.149
21
-52.7947
0
LINE
8
BLACK
6
CONTINUOUS
10
133.149
20
-52.7947
11
132.651
21
-52.8765
0
LINE
8
BLACK
6
CONTINUOUS
10
132.651
20
-52.8765
11
132.148
21
-52.9225
0
LINE
8
BLACK
6
CONTINUOUS
10
132.148
20
-52.9225
11
131.643
21
-52.9325
0
LINE
8
BLACK
6
CONTINUOUS
10
131.643
20
-52.9325
11
131.139
21
-52.9065
0
LINE
8
BLACK
6
CONTINUOUS
10
131.139
20
-52.9065
11
130.638
21
-52.8445
0
LINE
8
BLACK
6
CONTINUOUS
10
130.638
20
-52.8445
11
130.142
21
-52.747
0
LINE
8
BLACK
6
CONTINUOUS
10
130.142
20
-52.747
11
129.655
21
-52.6143
0
LINE
8
BLACK
6
CONTINUOUS
10
129.655
20
-52.6143
11
129.178
21
-52.4473
0
LINE
8
BLACK
6
CONTINUOUS
10
129.178
20
-52.4473
11
128.715
21
-52.2466
0
LINE
8
BLACK
6
CONTINUOUS
10
128.715
20
-52.2466
11
128.267
21
-52.0134
0
LINE
8
BLACK
6
CONTINUOUS
10
128.267
20
-52.0134
11
127.836
21
-51.7488
0
LINE
8
BLACK
6
CONTINUOUS
10
127.836
20
-51.7488
11
127.426
21
-51.4543
0
LINE
8
BLACK
6
CONTINUOUS
10
127.426
20
-51.4543
11
127.038
21
-51.1312
0
LINE
8
BLACK
6
CONTINUOUS
10
127.038
20
-51.1312
11
126.674
21
-50.7812
0
LINE
8
BLACK
6
CONTINUOUS
10
126.674
20
-50.7812
11
126.336
21
-50.4061
0
LINE
8
BLACK
6
CONTINUOUS
10
126.336
20
-50.4061
11
126.336
21
-50.4061
0
LINE
8
BLACK
6
CONTINUOUS
10
126.336
20
-50.4061
11
126.336
21
-50.4061
0
LINE
8
BLACK
6
CONTINUOUS
10
126.336
20
-50.4061
11
117.225
21
-39.5487
0
LINE
8
BLACK
6
CONTINUOUS
10
117.225
20
-39.5487
11
117.214
21
-39.5295
0
LINE
8
BLACK
6
CONTINUOUS
10
117.214
20
-39.5295
11
116.891
21
-39.1718
0
LINE
8
BLACK
6
CONTINUOUS
10
116.891
20
-39.1718
11
116.527
21
-38.8234
0
LINE
8
BLACK
6
CONTINUOUS
10
116.527
20
-38.8234
11
116.139
21
-38.5023
0
LINE
8
BLACK
6
CONTINUOUS
10
116.139
20
-38.5023
11
115.728
21
-38.2104
0
LINE
8
BLACK
6
CONTINUOUS
10
115.728
20
-38.2104
11
115.298
21
-37.949
0
LINE
8
BLACK
6
CONTINUOUS
10
115.298
20
-37.949
11
114.849
21
-37.7196
0
LINE
8
BLACK
6
CONTINUOUS
10
114.849
20
-37.7196
11
114.385
21
-37.5234
0
LINE
8
BLACK
6
CONTINUOUS
10
114.385
20
-37.5234
11
113.908
21
-37.3615
0
LINE
8
BLACK
6
CONTINUOUS
10
113.908
20
-37.3615
11
113.42
21
-37.2346
0
LINE
8
BLACK
6
CONTINUOUS
10
113.42
20
-37.2346
11
112.925
21
-37.1435
0
LINE
8
BLACK
6
CONTINUOUS
10
112.925
20
-37.1435
11
112.424
21
-37.0887
0
LINE
8
BLACK
6
CONTINUOUS
10
112.424
20
-37.0887
11
111.933
21
-37.0708
0
LINE
8
BLACK
6
CONTINUOUS
10
111.933
20
-37.0708
11
111.92
21
-37.075
0
LINE
8
BLACK
6
CONTINUOUS
10
111.92
20
-37.075
11
78.6301
21
-37.075
0
LINE
8
BLACK
6
CONTINUOUS
10
78.6301
20
-37.075
11
78.1681
21
-37.0599
0
LINE
8
BLACK
6
CONTINUOUS
10
17.8286
20
-16.983
11
18.2759
21
-17.0552
0
LINE
8
BLACK
6
CONTINUOUS
10
18.2759
20
-17.0552
11
18.7175
21
-17.1559
0
LINE
8
BLACK
6
CONTINUOUS
10
18.7175
20
-17.1559
11
19.1519
21
-17.2846
0
LINE
8
BLACK
6
CONTINUOUS
10
19.1519
20
-17.2846
11
19.5771
21
-17.4409
0
LINE
8
BLACK
6
CONTINUOUS
10
19.5771
20
-17.4409
11
19.9914
21
-17.6241
0
LINE
8
BLACK
6
CONTINUOUS
10
19.9914
20
-17.6241
11
20.3932
21
-17.8334
0
LINE
8
BLACK
6
CONTINUOUS
10
20.3932
20
-17.8334
11
20.7807
21
-18.068
0
LINE
8
BLACK
6
CONTINUOUS
10
20.7807
20
-18.068
11
20.7807
21
-18.068
0
LINE
8
BLACK
6
CONTINUOUS
10
20.7807
20
-18.068
11
37.301
21
-28.8062
0
LINE
8
BLACK
6
CONTINUOUS
10
37.301
20
-28.8062
11
37.3137
21
-28.818
0
LINE
8
BLACK
6
CONTINUOUS
10
37.3137
20
-28.818
11
37.6786
21
-29.0389
0
LINE
8
BLACK
6
CONTINUOUS
10
37.6786
20
-29.0389
11
38.0721
21
-29.2439
0
LINE
8
BLACK
6
CONTINUOUS
10
38.0721
20
-29.2439
11
38.4778
21
-29.4233
0
LINE
8
BLACK
6
CONTINUOUS
10
38.4778
20
-29.4233
11
38.8942
21
-29.5764
0
LINE
8
BLACK
6
CONTINUOUS
10
38.8942
20
-29.5764
11
39.3196
21
-29.7025
0
LINE
8
BLACK
6
CONTINUOUS
10
39.3196
20
-29.7025
11
39.7521
21
-29.8011
0
LINE
8
BLACK
6
CONTINUOUS
10
39.7521
20
-29.8011
11
40.1901
21
-29.8718
0
LINE
8
BLACK
6
CONTINUOUS
10
40.1901
20
-29.8718
11
40.6317
21
-29.9144
0
LINE
8
BLACK
6
CONTINUOUS
10
40.6317
20
-29.9144
11
41.0651
21
-29.9282
0
LINE
8
BLACK
6
CONTINUOUS
10
41.0651
20
-29.9282
11
41.0751
21
-29.925
0
LINE
8
BLACK
6
CONTINUOUS
10
41.0751
20
-29.925
11
65.3699
21
-29.925
0
LINE
8
BLACK
6
CONTINUOUS
10
65.3699
20
-29.925
11
65.8319
21
-29.9401
0
LINE
8
BLACK
6
CONTINUOUS
10
65.8319
20
-29.9401
11
66.2919
21
-29.9853
0
LINE
8
BLACK
6
CONTINUOUS
10
66.2919
20
-29.9853
11
66.748
21
-30.0605
0
LINE
8
BLACK
6
CONTINUOUS
10
66.748
20
-30.0605
11
67.1982
21
-30.1653
0
LINE
8
BLACK
6
CONTINUOUS
10
67.1982
20
-30.1653
11
67.6406
21
-30.2993
0
LINE
8
BLACK
6
CONTINUOUS
10
67.6406
20
-30.2993
11
68.0734
21
-30.4619
0
LINE
8
BLACK
6
CONTINUOUS
10
68.0734
20
-30.4619
11
68.4945
21
-30.6524
0
LINE
8
BLACK
6
CONTINUOUS
10
68.4945
20
-30.6524
11
68.9024
21
-30.87
0
LINE
8
BLACK
6
CONTINUOUS
10
68.9024
20
-30.87
11
69.2951
21
-31.1137
0
LINE
8
BLACK
6
CONTINUOUS
10
69.2951
20
-31.1137
11
69.6711
21
-31.3826
0
LINE
8
BLACK
6
CONTINUOUS
10
69.6711
20
-31.3826
11
70.0288
21
-31.6755
0
LINE
8
BLACK
6
CONTINUOUS
10
70.0288
20
-31.6755
11
70.0288
21
-31.6755
0
LINE
8
BLACK
6
CONTINUOUS
10
70.0288
20
-31.6755
11
74.07
21
-35.2116
0
LINE
8
BLACK
6
CONTINUOUS
10
74.07
20
-35.2116
11
74.0836
21
-35.2285
0
LINE
8
BLACK
6
CONTINUOUS
10
74.0836
20
-35.2285
11
74.4533
21
-35.5293
0
LINE
8
BLACK
6
CONTINUOUS
10
74.4533
20
-35.5293
11
74.8612
21
-35.815
0
LINE
8
BLACK
6
CONTINUOUS
10
74.8612
20
-35.815
11
75.2886
21
-36.0706
0
LINE
8
BLACK
6
CONTINUOUS
10
75.2886
20
-36.0706
11
75.7332
21
-36.295
0
LINE
8
BLACK
6
CONTINUOUS
10
75.7332
20
-36.295
11
76.1928
21
-36.4868
0
LINE
8
BLACK
6
CONTINUOUS
10
76.1928
20
-36.4868
11
76.665
21
-36.645
0
LINE
8
BLACK
6
CONTINUOUS
10
76.665
20
-36.645
11
77.1474
21
-36.769
0
LINE
8
BLACK
6
CONTINUOUS
10
77.1474
20
-36.769
11
77.6373
21
-36.858
0
LINE
8
BLACK
6
CONTINUOUS
10
77.6373
20
-36.858
11
78.1325
21
-36.9116
0
LINE
8
BLACK
6
CONTINUOUS
10
78.1325
20
-36.9116
11
78.6176
21
-36.9291
0
LINE
8
BLACK
6
CONTINUOUS
10
78.6176
20
-36.9291
11
78.6301
21
-36.925
0
LINE
8
BLACK
6
CONTINUOUS
10
78.6301
20
-36.925
11
111.92
21
-36.925
0
LINE
8
BLACK
6
CONTINUOUS
10
111.92
20
-36.925
11
112.395
21
-36.9409
0
LINE
8
BLACK
6
CONTINUOUS
10
112.395
20
-36.9409
11
112.867
21
-36.9887
0
LINE
8
BLACK
6
CONTINUOUS
10
112.867
20
-36.9887
11
113.336
21
-37.068
0
LINE
8
BLACK
6
CONTINUOUS
10
113.336
20
-37.068
11
113.797
21
-37.1785
0
LINE
8
BLACK
6
CONTINUOUS
10
113.797
20
-37.1785
11
114.251
21
-37.3198
0
LINE
8
BLACK
6
CONTINUOUS
10
114.251
20
-37.3198
11
114.694
21
-37.4911
0
LINE
8
BLACK
6
CONTINUOUS
10
114.694
20
-37.4911
11
115.124
21
-37.6918
0
LINE
8
BLACK
6
CONTINUOUS
10
115.124
20
-37.6918
11
115.54
21
-37.9209
0
LINE
8
BLACK
6
CONTINUOUS
10
115.54
20
-37.9209
11
115.939
21
-38.1774
0
LINE
8
BLACK
6
CONTINUOUS
10
115.939
20
-38.1774
11
116.321
21
-38.4601
0
LINE
8
BLACK
6
CONTINUOUS
10
116.321
20
-38.4601
11
116.683
21
-38.7677
0
LINE
8
BLACK
6
CONTINUOUS
10
116.683
20
-38.7677
11
117.023
21
-39.099
0
LINE
8
BLACK
6
CONTINUOUS
10
117.023
20
-39.099
11
117.34
21
-39.4523
0
LINE
8
BLACK
6
CONTINUOUS
10
117.34
20
-39.4523
11
117.34
21
-39.4523
0
LINE
8
BLACK
6
CONTINUOUS
10
117.34
20
-39.4523
11
126.451
21
-50.3097
0
LINE
8
BLACK
6
CONTINUOUS
10
126.451
20
-50.3097
11
126.461
21
-50.3282
0
LINE
8
BLACK
6
CONTINUOUS
10
126.461
20
-50.3282
11
126.778
21
-50.6799
0
LINE
8
BLACK
6
CONTINUOUS
10
126.778
20
-50.6799
11
127.135
21
-51.0227
0
LINE
8
BLACK
6
CONTINUOUS
10
127.135
20
-51.0227
11
127.515
21
-51.3391
0
LINE
8
BLACK
6
CONTINUOUS
10
127.515
20
-51.3391
11
127.917
21
-51.6276
0
LINE
8
BLACK
6
CONTINUOUS
10
127.917
20
-51.6276
11
128.338
21
-51.8868
0
LINE
8
BLACK
6
CONTINUOUS
10
128.338
20
-51.8868
11
128.777
21
-52.1152
0
LINE
8
BLACK
6
CONTINUOUS
10
128.777
20
-52.1152
11
129.231
21
-52.3117
0
LINE
8
BLACK
6
CONTINUOUS
10
129.231
20
-52.3117
11
129.698
21
-52.4753
0
LINE
8
BLACK
6
CONTINUOUS
10
129.698
20
-52.4753
11
130.175
21
-52.6052
0
LINE
8
BLACK
6
CONTINUOUS
10
130.175
20
-52.6052
11
130.661
21
-52.7008
0
LINE
8
BLACK
6
CONTINUOUS
10
130.661
20
-52.7008
11
131.151
21
-52.7615
0
LINE
8
BLACK
6
CONTINUOUS
10
131.151
20
-52.7615
11
131.645
21
-52.7869
0
LINE
8
BLACK
6
CONTINUOUS
10
131.645
20
-52.7869
11
132.14
21
-52.7771
0
LINE
8
BLACK
6
CONTINUOUS
10
132.14
20
-52.7771
11
132.633
21
-52.7321
0
LINE
8
BLACK
6
CONTINUOUS
10
132.633
20
-52.7321
11
133.121
21
-52.652
0
LINE
8
BLACK
6
CONTINUOUS
10
133.121
20
-52.652
11
133.602
21
-52.5373
0
LINE
8
BLACK
6
CONTINUOUS
10
133.602
20
-52.5373
11
134.074
21
-52.3885
0
LINE
8
BLACK
6
CONTINUOUS
10
134.074
20
-52.3885
11
134.534
21
-52.2065
0
LINE
8
BLACK
6
CONTINUOUS
10
134.534
20
-52.2065
11
134.979
21
-51.9921
0
LINE
8
BLACK
6
CONTINUOUS
10
134.979
20
-51.9921
11
135.409
21
-51.7465
0
LINE
8
BLACK
6
CONTINUOUS
10
135.409
20
-51.7465
11
135.82
21
-51.4709
0
LINE
8
BLACK
6
CONTINUOUS
10
135.82
20
-51.4709
11
136.2
21
-51.1742
0
LINE
8
BLACK
6
CONTINUOUS
10
136.2
20
-51.1742
11
136.207
21
-51.1632
0
LINE
8
BLACK
6
CONTINUOUS
10
136.207
20
-51.1632
11
153.443
21
-36.7005
0
LINE
8
BLACK
6
CONTINUOUS
10
153.443
20
-36.7005
11
153.461
21
-36.6899
0
LINE
8
BLACK
6
CONTINUOUS
10
153.461
20
-36.6899
11
153.813
21
-36.3726
0
LINE
8
BLACK
6
CONTINUOUS
10
153.813
20
-36.3726
11
154.156
21
-36.016
0
LINE
8
BLACK
6
CONTINUOUS
10
154.156
20
-36.016
11
154.472
21
-35.6358
0
LINE
8
BLACK
6
CONTINUOUS
10
154.472
20
-35.6358
11
154.761
21
-35.234
0
LINE
8
BLACK
6
CONTINUOUS
10
154.761
20
-35.234
11
155.02
21
-34.8127
0
LINE
8
BLACK
6
CONTINUOUS
10
155.02
20
-34.8127
11
155.248
21
-34.3739
0
LINE
8
BLACK
6
CONTINUOUS
10
155.248
20
-34.3739
11
155.445
21
-33.9199
0
LINE
8
BLACK
6
CONTINUOUS
10
155.445
20
-33.9199
11
155.608
21
-33.4531
0
LINE
8
BLACK
6
CONTINUOUS
10
155.608
20
-33.4531
11
155.738
21
-32.9759
0
LINE
8
BLACK
6
CONTINUOUS
10
155.738
20
-32.9759
11
155.834
21
-32.4905
0
LINE
8
BLACK
6
CONTINUOUS
10
155.834
20
-32.4905
11
155.894
21
-31.9996
0
LINE
8
BLACK
6
CONTINUOUS
10
155.894
20
-31.9996
11
155.92
21
-31.5056
0
LINE
8
BLACK
6
CONTINUOUS
10
155.92
20
-31.5056
11
155.91
21
-31.011
0
LINE
8
BLACK
6
CONTINUOUS
10
155.91
20
-31.011
11
155.865
21
-30.5184
0
LINE
8
BLACK
6
CONTINUOUS
10
155.865
20
-30.5184
11
155.785
21
-30.0303
0
LINE
8
BLACK
6
CONTINUOUS
10
155.785
20
-30.0303
11
155.67
21
-29.5492
0
LINE
8
BLACK
6
CONTINUOUS
10
155.67
20
-29.5492
11
155.522
21
-29.0774
0
LINE
8
BLACK
6
CONTINUOUS
10
155.522
20
-29.0774
11
155.34
21
-28.6174
0
LINE
8
BLACK
6
CONTINUOUS
10
155.34
20
-28.6174
11
155.125
21
-28.1717
0
LINE
8
BLACK
6
CONTINUOUS
10
155.125
20
-28.1717
11
154.88
21
-27.7423
0
LINE
8
BLACK
6
CONTINUOUS
10
154.88
20
-27.7423
11
154.604
21
-27.3316
0
LINE
8
BLACK
6
CONTINUOUS
10
154.604
20
-27.3316
11
154.307
21
-26.9512
0
LINE
8
BLACK
6
CONTINUOUS
10
154.307
20
-26.9512
11
154.296
21
-26.9444
0
LINE
8
BLACK
6
CONTINUOUS
10
154.296
20
-26.9444
11
142.58
21
-12.9817
0
LINE
8
BLACK
6
CONTINUOUS
10
142.58
20
-12.9817
11
142.276
21
-12.5926
0
LINE
8
BLACK
6
CONTINUOUS
10
142.276
20
-12.5926
11
142
21
-12.1832
0
LINE
8
BLACK
6
CONTINUOUS
10
142
20
-12.1832
11
141.753
21
-11.7555
0
LINE
8
BLACK
6
CONTINUOUS
10
141.753
20
-11.7555
11
141.537
21
-11.3116
0
LINE
8
BLACK
6
CONTINUOUS
10
141.537
20
-11.3116
11
141.352
21
-10.8538
0
LINE
8
BLACK
6
CONTINUOUS
10
141.352
20
-10.8538
11
141.199
21
-10.3841
0
LINE
8
BLACK
6
CONTINUOUS
10
141.199
20
-10.3841
11
141.08
21
-9.90496
0
LINE
8
BLACK
6
CONTINUOUS
10
141.08
20
-9.90496
11
140.994
21
-9.41864
0
LINE
8
BLACK
6
CONTINUOUS
10
140.994
20
-9.41864
11
140.942
21
-8.92751
0
LINE
8
BLACK
6
CONTINUOUS
10
140.942
20
-8.92751
11
140.925
21
-8.43402
0
LINE
8
BLACK
6
CONTINUOUS
10
140.925
20
-8.43402
11
140.925
21
-8.43399
0
LINE
8
BLACK
6
CONTINUOUS
10
140.925
20
-8.43399
11
140.925
21
68.9473
0
LINE
8
BLACK
6
CONTINUOUS
10
140.925
20
68.9473
11
138.833
21
70.1671
0
LINE
8
BLACK
6
CONTINUOUS
10
138.833
20
70.1671
11
136.709
21
71.3613
0
LINE
8
BLACK
6
CONTINUOUS
10
136.709
20
71.3613
11
134.567
21
72.5219
0
LINE
8
BLACK
6
CONTINUOUS
10
134.567
20
72.5219
11
132.406
21
73.6485
0
LINE
8
BLACK
6
CONTINUOUS
10
132.406
20
73.6485
11
130.228
21
74.741
0
LINE
8
BLACK
6
CONTINUOUS
10
130.228
20
74.741
11
128.033
21
75.799
0
LINE
8
BLACK
6
CONTINUOUS
10
128.033
20
75.799
11
125.822
21
76.8223
0
LINE
8
BLACK
6
CONTINUOUS
10
125.822
20
76.8223
11
123.595
21
77.8106
0
LINE
8
BLACK
6
CONTINUOUS
10
123.595
20
77.8106
11
121.352
21
78.7637
0
LINE
8
BLACK
6
CONTINUOUS
10
121.352
20
78.7637
11
119.095
21
79.6813
0
LINE
8
BLACK
6
CONTINUOUS
10
119.095
20
79.6813
11
116.824
21
80.5633
0
LINE
8
BLACK
6
CONTINUOUS
10
116.824
20
80.5633
11
114.539
21
81.4093
0
LINE
8
BLACK
6
CONTINUOUS
10
114.539
20
81.4093
11
112.241
21
82.2192
0
LINE
8
BLACK
6
CONTINUOUS
10
112.241
20
82.2192
11
109.93
21
82.9928
0
LINE
8
BLACK
6
CONTINUOUS
10
109.93
20
82.9928
11
107.608
21
83.7299
0
LINE
8
BLACK
6
CONTINUOUS
10
107.608
20
83.7299
11
105.274
21
84.4303
0
LINE
8
BLACK
6
CONTINUOUS
10
105.274
20
84.4303
11
102.929
21
85.0939
0
LINE
8
BLACK
6
CONTINUOUS
10
102.929
20
85.0939
11
100.575
21
85.7204
0
LINE
8
BLACK
6
CONTINUOUS
10
100.575
20
85.7204
11
98.2103
21
86.3097
0
LINE
8
BLACK
6
CONTINUOUS
10
98.2103
20
86.3097
11
95.837
21
86.8617
0
LINE
8
BLACK
6
CONTINUOUS
10
95.837
20
86.8617
11
93.4554
21
87.3762
0
LINE
8
BLACK
6
CONTINUOUS
10
93.4554
20
87.3762
11
91.0659
21
87.8531
0
LINE
8
BLACK
6
CONTINUOUS
10
91.0659
20
87.8531
11
88.6691
21
88.2923
0
LINE
8
BLACK
6
CONTINUOUS
10
88.6691
20
88.2923
11
86.2658
21
88.6937
0
LINE
8
BLACK
6
CONTINUOUS
10
86.2658
20
88.6937
11
83.8564
21
89.0571
0
LINE
8
BLACK
6
CONTINUOUS
10
83.8564
20
89.0571
11
81.4416
21
89.3826
0
LINE
8
BLACK
6
CONTINUOUS
10
81.4416
20
89.3826
11
79.022
21
89.6699
0
LINE
8
BLACK
6
CONTINUOUS
10
79.022
20
89.6699
11
76.5981
21
89.9191
0
LINE
8
BLACK
6
CONTINUOUS
10
76.5981
20
89.9191
11
74.1707
21
90.13
0
LINE
8
BLACK
6
CONTINUOUS
10
74.1707
20
90.13
11
71.7402
21
90.3027
0
LINE
8
BLACK
6
CONTINUOUS
10
71.7402
20
90.3027
11
69.3072
21
90.437
0
LINE
8
BLACK
6
CONTINUOUS
10
69.3072
20
90.437
11
66.8725
21
90.533
0
LINE
8
BLACK
6
CONTINUOUS
10
66.8725
20
90.533
11
64.4366
21
90.5906
0
LINE
8
BLACK
6
CONTINUOUS
10
64.4366
20
90.5906
11
62
21
90.6098
0
LINE
8
BLACK
6
CONTINUOUS
10
62
20
90.6098
11
59.5634
21
90.5906
0
LINE
8
BLACK
6
CONTINUOUS
10
59.5634
20
90.5906
11
57.1275
21
90.533
0
LINE
8
BLACK
6
CONTINUOUS
10
57.1275
20
90.533
11
54.6928
21
90.437
0
LINE
8
BLACK
6
CONTINUOUS
10
54.6928
20
90.437
11
52.2598
21
90.3027
0
LINE
8
BLACK
6
CONTINUOUS
10
52.2598
20
90.3027
11
49.8293
21
90.13
0
LINE
8
BLACK
6
CONTINUOUS
10
49.8293
20
90.13
11
47.4019
21
89.9191
0
LINE
8
BLACK
6
CONTINUOUS
10
47.4019
20
89.9191
11
44.978
21
89.6699
0
LINE
8
BLACK
6
CONTINUOUS
10
44.978
20
89.6699
11
42.5584
21
89.3826
0
LINE
8
BLACK
6
CONTINUOUS
10
42.5584
20
89.3826
11
40.1436
21
89.0571
0
LINE
8
BLACK
6
CONTINUOUS
10
40.1436
20
89.0571
11
37.7342
21
88.6937
0
LINE
8
BLACK
6
CONTINUOUS
10
37.7342
20
88.6937
11
35.3309
21
88.2923
0
LINE
8
BLACK
6
CONTINUOUS
10
35.3309
20
88.2923
11
32.9341
21
87.8531
0
LINE
8
BLACK
6
CONTINUOUS
10
32.9341
20
87.8531
11
30.5446
21
87.3762
0
LINE
8
BLACK
6
CONTINUOUS
10
30.5446
20
87.3762
11
28.163
21
86.8617
0
LINE
8
BLACK
6
CONTINUOUS
10
28.163
20
86.8617
11
25.7897
21
86.3097
0
LINE
8
BLACK
6
CONTINUOUS
10
25.7897
20
86.3097
11
23.4254
21
85.7204
0
LINE
8
BLACK
6
CONTINUOUS
10
23.4254
20
85.7204
11
21.0707
21
85.0939
0
LINE
8
BLACK
6
CONTINUOUS
10
21.0707
20
85.0939
11
18.7261
21
84.4303
0
LINE
8
BLACK
6
CONTINUOUS
10
18.7261
20
84.4303
11
16.3923
21
83.7299
0
LINE
8
BLACK
6
CONTINUOUS
10
16.3923
20
83.7299
11
14.0699
21
82.9928
0
LINE
8
BLACK
6
CONTINUOUS
10
14.0699
20
82.9928
11
11.7593
21
82.2192
0
LINE
8
BLACK
6
CONTINUOUS
10
11.7593
20
82.2192
11
9.46123
21
81.4093
0
LINE
8
BLACK
6
CONTINUOUS
10
9.46123
20
81.4093
11
7.17619
21
80.5633
0
LINE
8
BLACK
6
CONTINUOUS
10
7.17619
20
80.5633
11
4.90478
21
79.6813
0
LINE
8
BLACK
6
CONTINUOUS
10
4.90478
20
79.6813
11
2.64754
21
78.7637
0
LINE
8
BLACK
6
CONTINUOUS
10
2.64754
20
78.7637
11
0.405045
21
77.8106
0
LINE
8
BLACK
6
CONTINUOUS
10
0.405045
20
77.8106
11
-1.82215
21
76.8223
0
LINE
8
BLACK
6
CONTINUOUS
10
-1.82215
20
76.8223
11
-4.0335
21
75.799
0
LINE
8
BLACK
6
CONTINUOUS
10
-4.0335
20
75.799
11
-6.22844
21
74.741
0
LINE
8
BLACK
6
CONTINUOUS
10
-6.22844
20
74.741
11
-8.40644
21
73.6485
0
LINE
8
BLACK
6
CONTINUOUS
10
-8.40644
20
73.6485
11
-10.5669
21
72.5219
0
LINE
8
BLACK
6
CONTINUOUS
10
-10.5669
20
72.5219
11
-12.7094
21
71.3613
0
LINE
8
BLACK
6
CONTINUOUS
10
-12.7094
20
71.3613
11
-14.8334
21
70.1671
0
LINE
8
BLACK
6
CONTINUOUS
10
-14.8334
20
70.1671
11
-16.9221
21
68.949
0
LINE
8
BLACK
6
CONTINUOUS
10
-16.9221
20
68.949
11
-16.925
21
68.944
0
LINE
8
BLACK
6
CONTINUOUS
10
-16.925
20
68.944
11
-16.925
21
-10
0
LINE
8
BLACK
6
CONTINUOUS
10
-16.925
20
-10
11
-16.9287
21
-10.0208
0
LINE
8
BLACK
6
CONTINUOUS
10
-16.9287
20
-10.0208
11
-16.9118
21
-10.4943
0
LINE
8
BLACK
6
CONTINUOUS
10
-16.9118
20
-10.4943
11
-16.8589
21
-10.9862
0
LINE
8
BLACK
6
CONTINUOUS
10
-16.8589
20
-10.9862
11
-16.7711
21
-11.473
0
LINE
8
BLACK
6
CONTINUOUS
10
-16.7711
20
-11.473
11
-16.6487
21
-11.9522
0
LINE
8
BLACK
6
CONTINUOUS
10
-16.6487
20
-11.9522
11
-16.4925
21
-12.4216
0
LINE
8
BLACK
6
CONTINUOUS
10
-16.4925
20
-12.4216
11
-16.3032
21
-12.8786
0
LINE
8
BLACK
6
CONTINUOUS
10
-16.3032
20
-12.8786
11
-16.0818
21
-13.3209
0
LINE
8
BLACK
6
CONTINUOUS
10
-16.0818
20
-13.3209
11
-15.8294
21
-13.7463
0
LINE
8
BLACK
6
CONTINUOUS
10
-15.8294
20
-13.7463
11
-15.5473
21
-14.1526
0
LINE
8
BLACK
6
CONTINUOUS
10
-15.5473
20
-14.1526
11
-15.2369
21
-14.5378
0
LINE
8
BLACK
6
CONTINUOUS
10
-15.2369
20
-14.5378
11
-14.8998
21
-14.8998
0
LINE
8
BLACK
6
CONTINUOUS
10
-14.8998
20
-14.8998
11
-14.5378
21
-15.2369
0
LINE
8
BLACK
6
CONTINUOUS
10
-14.5378
20
-15.2369
11
-14.1526
21
-15.5473
0
LINE
8
BLACK
6
CONTINUOUS
10
-14.1526
20
-15.5473
11
-13.7463
21
-15.8294
0
LINE
8
BLACK
6
CONTINUOUS
10
-13.7463
20
-15.8294
11
-13.3209
21
-16.0818
0
LINE
8
BLACK
6
CONTINUOUS
10
-13.3209
20
-16.0818
11
-12.8786
21
-16.3032
0
LINE
8
BLACK
6
CONTINUOUS
10
-12.8786
20
-16.3032
11
-12.4216
21
-16.4925
0
LINE
8
BLACK
6
CONTINUOUS
10
-12.4216
20
-16.4925
11
-11.9522
21
-16.6487
0
LINE
8
BLACK
6
CONTINUOUS
10
-11.9522
20
-16.6487
11
-11.473
21
-16.7711
0
LINE
8
BLACK
6
CONTINUOUS
10
-11.473
20
-16.7711
11
-10.9862
21
-16.8589
0
LINE
8
BLACK
6
CONTINUOUS
10
-10.9862
20
-16.8589
11
-10.4943
21
-16.9118
0
LINE
8
BLACK
6
CONTINUOUS
10
-10.4943
20
-16.9118
11
-10.0122
21
-16.929
0
LINE
8
BLACK
6
CONTINUOUS
10
-10.0122
20
-16.929
11
-10
21
-16.925
0
LINE
8
BLACK
6
CONTINUOUS
10
-10
20
-16.925
11
16.9249
21
-16.925
0
LINE
8
BLACK
6
CONTINUOUS
10
16.9249
20
-16.925
11
17.3777
21
-16.9395
0
LINE
8
BLACK
6
CONTINUOUS
10
17.3777
20
-16.9395
11
17.8286
21
-16.983
  0
ENDSEC
  0
EOF
