0
SECTION
2
HEADER
9
$INSUNITS
70
4
0
ENDSEC
0
SECTION
2
TABLES
0
TABLE
2
LTYPE
0
LTYPE
72
65
70
64
2
CONTINUOUS
3
______
73
0
40
0
0
ENDTAB
0
TABLE
2
LAYER
0
ENDTAB
0
ENDSEC
0
SECTION
2
ENTITIES
0
LINE
8
0
10
-22
20
67.3
11
-22
21
-15
0
LINE
8
0
10
-15
20
-22
11
14.4249195
21
-22
0
LINE
8
0
10
18.2398383
20
-23.1308949
11
34.7601617
21
-33.8691051
0
LINE
8
0
10
38.5750805
20
-35
11
62.8698541
21
-35
0
LINE
8
0
10
67.4793863
20
-36.7319631
11
71.5206137
21
-40.2680369
0
LINE
8
0
10
76.1301459
20
-42
11
109.5888219
21
-42
0
LINE
8
0
10
146
20
-6.6141358
11
146
21
67.3
0
LINE
8
0
10
114.9511329
20
-44.5004866
11
125.7768349
21
-57.4020558
0
LINE
8
0
10
135.6386593
20
-58.2648534
11
160.5351037
21
-37.3742561
0
LINE
8
0
10
161.3979013
20
-27.5124317
11
147.637689
21
-11.1136492
0
ARC
8
0
10
-15
20
67.3
40
7
50
105.9346208
51
180
0
ARC
8
0
10
-15
20
-15
40
7
50
180
51
270
0
ARC
8
0
10
14.4249195
20
-29
40
7
50
56.9761296
51
90
0
ARC
8
0
10
38.5750805
20
-28
40
7
50
236.9761296
51
270
0
ARC
8
0
10
62.8698541
20
-42
40
7
50
48.8140754
51
90
0
ARC
8
0
10
76.1301459
20
-35
40
7
50
228.8140754
51
270
0
ARC
8
0
10
109.5888219
20
-49
40
7
50
40.0000012
51
90
0
ARC
8
0
10
131.1391459
20
-52.9025424
40
7
50
220.0000012
51
310.0000012
0
ARC
8
0
10
156.0355903
20
-32.0119451
40
7
50
310.0000012
51
40.0000012
0
ARC
8
0
10
153
20
-6.6141358
40
7
50
180
51
220.0000012
0
ARC
8
0
10
139
20
67.3
40
7
50
0
51
74.0653792
0
ARC
8
0
10
62
20
-59
40
154.68
50
59.3211048
51
120.6788952
0
LINE
8
0
10
-16.9740616
20
69.5
11
-17.5
21
69.5
0
LINE
8
0
10
-17.5
20
-10.5
11
-17.5
21
69.5
0
LINE
8
0
10
141.5
20
-8.2520019
11
141.5
21
69.5
0
LINE
8
0
10
141.5
20
69.5
11
140.9740616
21
69.5
0
LINE
8
0
10
-10.5
20
-17.5
11
16.6749195
21
-17.5
0
LINE
8
0
10
20.4898383
20
-18.6308949
11
37.0101617
21
-29.3691051
0
LINE
8
0
10
40.8250805
20
-30.5
11
65.1198541
21
-30.5
0
LINE
8
0
10
69.7293863
20
-32.2319631
11
73.7706137
21
-35.7680369
0
LINE
8
0
10
78.3801459
20
-37.5
11
111.6872064
21
-37.5
0
LINE
8
0
10
117.0495174
20
-40.0004866
11
126.3314906
21
-51.0623115
0
LINE
8
0
10
136.193315
20
-51.9251091
11
154.1953595
21
-36.8196004
0
LINE
8
0
10
155.0581571
20
-26.957776
11
143.137689
21
-12.7515153
0
ARC
8
0
10
-10.5
20
-10.5
40
7
50
180
51
270
0
ARC
8
0
10
16.6749195
20
-24.5
40
7
50
56.9761296
51
90
0
ARC
8
0
10
40.8250805
20
-23.5
40
7
50
236.9761296
51
270
0
ARC
8
0
10
65.1198541
20
-37.5
40
7
50
48.8140754
51
90
0
ARC
8
0
10
78.3801459
20
-30.5
40
7
50
228.8140754
51
270
0
ARC
8
0
10
111.6872064
20
-44.5
40
7
50
40.0000012
51
90
0
ARC
8
0
10
131.6938016
20
-46.5627981
40
7
50
220.0000012
51
310.0000012
0
ARC
8
0
10
149.6958461
20
-31.4572894
40
7
50
310.0000012
51
40.0000012
0
ARC
8
0
10
148.5
20
-8.2520019
40
7
50
180
51
220.0000012
0
ARC
8
0
10
62
20
-63.5
40
154.68
50
59.2985857
51
120.7014143
0
ENDSEC
0
EOF