0
SECTION
2
HEADER
9
$INSUNITS
70
4
0
ENDSEC
0
SECTION
2
TABLES
0
TABLE
2
LTYPE
0
LTYPE
72
65
70
64
2
CONTINUOUS
3
______
73
0
40
0
0
ENDTAB
0
TABLE
2
LAYER
0
ENDTAB
0
ENDSEC
0
SECTION
2
ENTITIES
0
LINE
8
0
10
141
20
-8.4339871
11
141
21
69
0
LINE
8
0
10
141
20
69
11
140.9740616
21
69
0
LINE
8
0
10
-16.9740616
20
69
11
-17
21
69
0
LINE
8
0
10
-17
20
-10
11
-17
21
69
0
LINE
8
0
10
-10
20
-17
11
16.9249195
21
-17
0
LINE
8
0
10
20.7398383
20
-18.1308949
11
37.2601617
21
-28.8691051
0
LINE
8
0
10
41.0750805
20
-30
11
65.3698541
21
-30
0
LINE
8
0
10
69.9793863
20
-31.7319631
11
74.0206137
21
-35.2680369
0
LINE
8
0
10
78.6301459
20
-37
11
111.9203603
21
-37
0
LINE
8
0
10
117.2826713
20
-39.5004866
11
126.3931191
21
-50.3578955
0
LINE
8
0
10
136.2549435
20
-51.2206931
11
153.4909434
21
-36.757972
0
LINE
8
0
10
154.353741
20
-26.8961476
11
142.637689
21
-12.9335005
0
ARC
8
0
10
-10
20
-10
40
7
50
180
51
270
0
ARC
8
0
10
16.9249195
20
-24
40
7
50
56.9761296
51
90
0
ARC
8
0
10
41.0750805
20
-23
40
7
50
236.9761296
51
270
0
ARC
8
0
10
65.3698541
20
-37
40
7
50
48.8140754
51
90
0
ARC
8
0
10
78.6301459
20
-30
40
7
50
228.8140754
51
270
0
ARC
8
0
10
111.9203603
20
-44
40
7
50
40.0000012
51
90
0
ARC
8
0
10
131.7554301
20
-45.8583821
40
7
50
220.0000012
51
310.0000012
0
ARC
8
0
10
148.99143
20
-31.395661
40
7
50
310.0000012
51
40.0000012
0
ARC
8
0
10
148
20
-8.4339871
40
7
50
180
51
220.0000012
0
ARC
8
0
10
62
20
-64
40
154.68
50
59.2985857
51
120.7014143
0
LINE
8
0
10
-9
20
-9
11
9
21
-9
0
LINE
8
0
10
9
20
-9
11
9
21
7.0505103
0
LINE
8
0
10
7.0505103
20
9
11
-9
21
9
0
LINE
8
0
10
-9
20
9
11
-9
21
-9
0
LINE
8
0
10
-9
20
10
11
7.0505103
21
10
0
LINE
8
0
10
9
20
11.9494897
11
9
21
28
0
LINE
8
0
10
9
20
28
11
-9
21
28
0
LINE
8
0
10
-9
20
28
11
-9
21
10
0
LINE
8
0
10
-9
20
29
11
9
21
29
0
LINE
8
0
10
9
20
29
11
9
21
45.0505103
0
LINE
8
0
10
7.0505103
20
47
11
-9
21
47
0
LINE
8
0
10
-9
20
47
11
-9
21
29
0
LINE
8
0
10
-9
20
48
11
7.0505103
21
48
0
LINE
8
0
10
9
20
49.9494897
11
9
21
66
0
LINE
8
0
10
9
20
66
11
-9
21
66
0
LINE
8
0
10
-9
20
66
11
-9
21
48
0
LINE
8
0
10
10
20
-9
11
28
21
-9
0
LINE
8
0
10
28
20
-9
11
28
21
9
0
LINE
8
0
10
28
20
9
11
11.9494897
21
9
0
LINE
8
0
10
10
20
7.0505103
11
10
21
-9
0
LINE
8
0
10
11.9494897
20
10
11
28
21
10
0
LINE
8
0
10
28
20
10
11
28
21
28
0
LINE
8
0
10
28
20
28
11
10
21
28
0
LINE
8
0
10
10
20
28
11
10
21
11.9494897
0
LINE
8
0
10
10
20
29
11
28
21
29
0
LINE
8
0
10
28
20
29
11
28
21
47
0
LINE
8
0
10
28
20
47
11
11.9494897
21
47
0
LINE
8
0
10
10
20
45.0505103
11
10
21
29
0
LINE
8
0
10
11.9494897
20
48
11
28
21
48
0
LINE
8
0
10
28
20
48
11
28
21
66
0
LINE
8
0
10
28
20
66
11
10
21
66
0
LINE
8
0
10
10
20
66
11
10
21
49.9494897
0
LINE
8
0
10
29
20
-2
11
47
21
-2
0
LINE
8
0
10
47
20
-2
11
47
21
16
0
LINE
8
0
10
47
20
16
11
29
21
16
0
LINE
8
0
10
29
20
16
11
29
21
-2
0
LINE
8
0
10
29
20
17
11
47
21
17
0
LINE
8
0
10
47
20
17
11
47
21
35
0
LINE
8
0
10
47
20
35
11
29
21
35
0
LINE
8
0
10
29
20
35
11
29
21
17
0
LINE
8
0
10
29
20
36
11
47
21
36
0
LINE
8
0
10
47
20
36
11
47
21
54
0
LINE
8
0
10
47
20
54
11
29
21
54
0
LINE
8
0
10
29
20
54
11
29
21
36
0
LINE
8
0
10
29
20
55
11
47
21
55
0
LINE
8
0
10
47
20
55
11
47
21
73
0
LINE
8
0
10
47
20
73
11
29
21
73
0
LINE
8
0
10
29
20
73
11
29
21
55
0
LINE
8
0
10
48
20
5
11
66
21
5
0
LINE
8
0
10
66
20
5
11
66
21
23
0
LINE
8
0
10
66
20
23
11
48
21
23
0
LINE
8
0
10
48
20
23
11
48
21
5
0
LINE
8
0
10
48
20
24
11
66
21
24
0
LINE
8
0
10
66
20
24
11
66
21
42
0
LINE
8
0
10
66
20
42
11
48
21
42
0
LINE
8
0
10
48
20
42
11
48
21
24
0
LINE
8
0
10
48
20
43
11
66
21
43
0
LINE
8
0
10
66
20
43
11
66
21
61
0
LINE
8
0
10
66
20
61
11
48
21
61
0
LINE
8
0
10
48
20
61
11
48
21
43
0
LINE
8
0
10
48
20
62
11
66
21
62
0
LINE
8
0
10
66
20
62
11
66
21
80
0
LINE
8
0
10
66
20
80
11
48
21
80
0
LINE
8
0
10
48
20
80
11
48
21
62
0
LINE
8
0
10
67
20
-2
11
85
21
-2
0
LINE
8
0
10
85
20
-2
11
85
21
16
0
LINE
8
0
10
85
20
16
11
67
21
16
0
LINE
8
0
10
67
20
16
11
67
21
-2
0
LINE
8
0
10
67
20
17
11
85
21
17
0
LINE
8
0
10
85
20
17
11
85
21
35
0
LINE
8
0
10
85
20
35
11
67
21
35
0
LINE
8
0
10
67
20
35
11
67
21
17
0
LINE
8
0
10
67
20
36
11
85
21
36
0
LINE
8
0
10
85
20
36
11
85
21
54
0
LINE
8
0
10
85
20
54
11
67
21
54
0
LINE
8
0
10
67
20
54
11
67
21
36
0
LINE
8
0
10
67
20
55
11
85
21
55
0
LINE
8
0
10
85
20
55
11
85
21
73
0
LINE
8
0
10
85
20
73
11
67
21
73
0
LINE
8
0
10
67
20
73
11
67
21
55
0
LINE
8
0
10
86
20
-9
11
104
21
-9
0
LINE
8
0
10
104
20
-9
11
104
21
7.2087122
0
LINE
8
0
10
100.5505103
20
9
11
86
21
9
0
LINE
8
0
10
86
20
9
11
86
21
-9
0
LINE
8
0
10
86
20
10
11
100.5505103
21
10
0
LINE
8
0
10
104
20
11.7912878
11
104
21
28
0
LINE
8
0
10
104
20
28
11
86
21
28
0
LINE
8
0
10
86
20
28
11
86
21
10
0
LINE
8
0
10
86
20
29
11
104
21
29
0
LINE
8
0
10
104
20
29
11
104
21
45.2087122
0
LINE
8
0
10
100.5505103
20
47
11
86
21
47
0
LINE
8
0
10
86
20
47
11
86
21
29
0
LINE
8
0
10
86
20
48
11
100.5505103
21
48
0
LINE
8
0
10
104
20
49.7912878
11
104
21
66
0
LINE
8
0
10
104
20
66
11
86
21
66
0
LINE
8
0
10
86
20
66
11
86
21
48
0
LINE
8
0
10
42
20
-22
11
60
21
-22
0
LINE
8
0
10
60
20
-22
11
60
21
-4
0
LINE
8
0
10
60
20
-4
11
42
21
-4
0
LINE
8
0
10
42
20
-4
11
42
21
-22
0
LINE
8
0
10
61
20
-22
11
79
21
-22
0
LINE
8
0
10
79
20
-22
11
79
21
-4
0
LINE
8
0
10
79
20
-4
11
61
21
-4
0
LINE
8
0
10
61
20
-4
11
61
21
-22
0
LINE
8
0
10
80
20
-29
11
98
21
-29
0
LINE
8
0
10
98
20
-29
11
98
21
-11
0
LINE
8
0
10
98
20
-11
11
80
21
-11
0
LINE
8
0
10
80
20
-11
11
80
21
-29
0
LINE
8
0
10
105
20
6
11
123
21
6
0
LINE
8
0
10
123
20
6
11
123
21
24
0
LINE
8
0
10
123
20
24
11
105
21
24
0
LINE
8
0
10
105
20
24
11
105
21
11
0
LINE
8
0
10
105
20
8
11
105
21
6
0
LINE
8
0
10
102.0396656
20
-19.3532057
11
118.3532057
21
-26.9603344
0
LINE
8
0
10
118.3532057
20
-26.9603344
11
125.9603344
21
-10.6467943
0
LINE
8
0
10
125.9603344
20
-10.6467943
11
109.6467943
21
-3.0396656
0
LINE
8
0
10
109.6467943
20
-3.0396656
11
102.0396656
21
-19.3532057
0
LINE
8
0
10
119.1461915
20
-27.7198292
11
130.7163685
21
-41.5086292
0
LINE
8
0
10
130.7163685
20
-41.5086292
11
144.5051685
21
-29.9384522
0
LINE
8
0
10
144.5051685
20
-29.9384522
11
132.9349915
21
-16.1496522
0
LINE
8
0
10
132.9349915
20
-16.1496522
11
119.1461915
21
-27.7198292
0
ARC
8
0
10
9.5
20
47.5
40
2.5
50
258.4630408
51
281.5369592
0
ARC
8
0
10
9.5
20
47.5
40
2.5
50
528.4630408
51
551.5369592
0
ARC
8
0
10
9.5
20
47.5
40
2.5
50
348.4630408
51
371.5369592
0
ARC
8
0
10
9.5
20
47.5
40
2.5
50
438.4630408
51
461.5369592
0
ARC
8
0
10
9.5
20
9.5
40
2.5
50
258.4630408
51
281.5369592
0
ARC
8
0
10
9.5
20
9.5
40
2.5
50
528.4630408
51
551.5369592
0
ARC
8
0
10
9.5
20
9.5
40
2.5
50
348.4630408
51
371.5369592
0
ARC
8
0
10
9.5
20
9.5
40
2.5
50
438.4630408
51
461.5369592
0
ARC
8
0
10
103
20
9.5
40
2.5
50
293.5781789
51
323.1301024
0
ARC
8
0
10
103
20
9.5
40
2.5
50
528.4630408
51
551.5369592
0
ARC
8
0
10
103
20
9.5
40
2.5
50
396.8698976
51
426.4218211
0
ARC
8
0
10
103
20
47.5
40
2.5
50
293.5781789
51
426.4218211
0
ARC
8
0
10
103
20
47.5
40
2.5
50
528.4630408
51
551.5369592
0
CIRCLE
8
0
10
130.2500286
20
-12.0954226
40
2.5
0
ENDSEC
0
EOF