0
SECTION
2
HEADER
9
$INSUNITS
70
4
0
ENDSEC
0
SECTION
2
TABLES
0
TABLE
2
LTYPE
0
LTYPE
72
65
70
64
2
CONTINUOUS
3
______
73
0
40
0
0
ENDTAB
0
TABLE
2
LAYER
0
ENDTAB
0
ENDSEC
0
SECTION
2
ENTITIES
0
LINE
8
0
10
-22
20
67.3
11
-22
21
-15
0
LINE
8
0
10
-15
20
-22
11
14.4249195
21
-22
0
LINE
8
0
10
18.2398383
20
-23.1308949
11
34.7601617
21
-33.8691051
0
LINE
8
0
10
38.5750805
20
-35
11
62.8698541
21
-35
0
LINE
8
0
10
67.4793863
20
-36.7319631
11
71.5206137
21
-40.2680369
0
LINE
8
0
10
76.1301459
20
-42
11
109.5888219
21
-42
0
LINE
8
0
10
146
20
-6.6141358
11
146
21
67.3
0
LINE
8
0
10
114.9511329
20
-44.5004866
11
125.7768349
21
-57.4020558
0
LINE
8
0
10
135.6386593
20
-58.2648534
11
160.5351037
21
-37.3742561
0
LINE
8
0
10
161.3979013
20
-27.5124317
11
147.637689
21
-11.1136492
0
ARC
8
0
10
-15
20
67.3
40
7
50
105.9346208
51
180
0
ARC
8
0
10
-15
20
-15
40
7
50
180
51
270
0
ARC
8
0
10
14.4249195
20
-29
40
7
50
56.9761296
51
90
0
ARC
8
0
10
38.5750805
20
-28
40
7
50
236.9761296
51
270
0
ARC
8
0
10
62.8698541
20
-42
40
7
50
48.8140754
51
90
0
ARC
8
0
10
76.1301459
20
-35
40
7
50
228.8140754
51
270
0
ARC
8
0
10
109.5888219
20
-49
40
7
50
40.0000012
51
90
0
ARC
8
0
10
131.1391459
20
-52.9025424
40
7
50
220.0000012
51
310.0000012
0
ARC
8
0
10
156.0355903
20
-32.0119451
40
7
50
310.0000012
51
40.0000012
0
ARC
8
0
10
153
20
-6.6141358
40
7
50
180
51
220.0000012
0
ARC
8
0
10
139
20
67.3
40
7
50
0
51
74.0653792
0
ARC
8
0
10
62
20
-59
40
154.68
50
59.3211048
51
120.6788952
0
LINE
8
0
10
-10
20
-10
11
29
21
-10
0
LINE
8
0
10
-10
20
-10
11
-10
21
67
0
LINE
8
0
10
-10
20
67
11
28
21
67
0
LINE
8
0
10
29
20
-10
11
29
21
-3
0
LINE
8
0
10
29
20
-3
11
41
21
-3
0
LINE
8
0
10
47
20
74
11
28
21
74
0
LINE
8
0
10
28
20
74
11
28
21
67
0
LINE
8
0
10
67
20
74
11
67
21
81
0
LINE
8
0
10
67
20
81
11
47
21
81
0
LINE
8
0
10
47
20
81
11
47
21
74
0
LINE
8
0
10
86
20
67
11
86
21
74
0
LINE
8
0
10
86
20
74
11
67
21
74
0
LINE
8
0
10
99
20
-10
11
105
21
-10
0
LINE
8
0
10
105
20
-10
11
105
21
5
0
LINE
8
0
10
105
20
25
11
105
21
67
0
LINE
8
0
10
105
20
67
11
86
21
67
0
LINE
8
0
10
41
20
-23
11
79
21
-23
0
LINE
8
0
10
41
20
-3
11
41
21
-23
0
LINE
8
0
10
79
20
-30
11
99
21
-30
0
LINE
8
0
10
99
20
-30
11
99
21
-10
0
LINE
8
0
10
79
20
-23
11
79
21
-30
0
LINE
8
0
10
105
20
5
11
124
21
5
0
LINE
8
0
10
124
20
5
11
124
21
25
0
LINE
8
0
10
124
20
25
11
105
21
25
0
LINE
8
0
10
100.7107395
20
-19.8368953
11
117.9854361
21
-27.8922185
0
LINE
8
0
10
120.0742932
20
-25.6356522
11
127.2892605
21
-10.1631047
0
LINE
8
0
10
127.2892605
20
-10.1631047
11
109.1631047
21
-1.7107395
0
LINE
8
0
10
109.1631047
20
-1.7107395
11
100.7107395
21
-19.8368953
0
LINE
8
0
10
117.9854361
20
-27.8922185
11
130.5931117
21
-42.9174612
0
LINE
8
0
10
130.5931117
20
-42.9174612
11
145.9140005
21
-30.061709
0
LINE
8
0
10
145.9140005
20
-30.061709
11
133.0582483
21
-14.7408202
0
LINE
8
0
10
133.0582483
20
-14.7408202
11
120.0742932
21
-25.6356522
0
LINE
8
0
10
107.5
20
27.75
11
127.5
21
27.75
0
LINE
8
0
10
127.5
20
27.75
11
127.5
21
70.75
0
LINE
8
0
10
127.5
20
70.75
11
107.5
21
70.75
0
LINE
8
0
10
107.5
20
70.75
11
107.5
21
27.75
0
ENDSEC
0
EOF