0
SECTION
2
HEADER
9
$INSUNITS
70
4
0
ENDSEC
0
SECTION
2
TABLES
0
TABLE
2
LTYPE
0
LTYPE
72
65
70
64
2
CONTINUOUS
3
______
73
0
40
0
0
ENDTAB
0
TABLE
2
LAYER
0
ENDTAB
0
ENDSEC
0
SECTION
2
ENTITIES
0
LINE
8
0
10
-9
20
-9
11
9
21
-9
0
LINE
8
0
10
9
20
-9
11
9
21
9
0
LINE
8
0
10
9
20
9
11
-9
21
9
0
LINE
8
0
10
-9
20
9
11
-9
21
-9
0
LINE
8
0
10
-9
20
10
11
9
21
10
0
LINE
8
0
10
9
20
10
11
9
21
28
0
LINE
8
0
10
9
20
28
11
-9
21
28
0
LINE
8
0
10
-9
20
28
11
-9
21
10
0
LINE
8
0
10
-9
20
29
11
9
21
29
0
LINE
8
0
10
9
20
29
11
9
21
47
0
LINE
8
0
10
9
20
47
11
-9
21
47
0
LINE
8
0
10
-9
20
47
11
-9
21
29
0
LINE
8
0
10
-9
20
48
11
9
21
48
0
LINE
8
0
10
9
20
48
11
9
21
66
0
LINE
8
0
10
9
20
66
11
-9
21
66
0
LINE
8
0
10
-9
20
66
11
-9
21
48
0
LINE
8
0
10
10
20
-9
11
28
21
-9
0
LINE
8
0
10
28
20
-9
11
28
21
9
0
LINE
8
0
10
28
20
9
11
10
21
9
0
LINE
8
0
10
10
20
9
11
10
21
-9
0
LINE
8
0
10
10
20
10
11
28
21
10
0
LINE
8
0
10
28
20
10
11
28
21
28
0
LINE
8
0
10
28
20
28
11
10
21
28
0
LINE
8
0
10
10
20
28
11
10
21
10
0
LINE
8
0
10
10
20
29
11
28
21
29
0
LINE
8
0
10
28
20
29
11
28
21
47
0
LINE
8
0
10
28
20
47
11
10
21
47
0
LINE
8
0
10
10
20
47
11
10
21
29
0
LINE
8
0
10
10
20
48
11
28
21
48
0
LINE
8
0
10
28
20
48
11
28
21
66
0
LINE
8
0
10
28
20
66
11
10
21
66
0
LINE
8
0
10
10
20
66
11
10
21
48
0
LINE
8
0
10
29
20
-2
11
47
21
-2
0
LINE
8
0
10
47
20
-2
11
47
21
16
0
LINE
8
0
10
47
20
16
11
29
21
16
0
LINE
8
0
10
29
20
16
11
29
21
-2
0
LINE
8
0
10
29
20
17
11
47
21
17
0
LINE
8
0
10
47
20
17
11
47
21
35
0
LINE
8
0
10
47
20
35
11
29
21
35
0
LINE
8
0
10
29
20
35
11
29
21
17
0
LINE
8
0
10
29
20
36
11
47
21
36
0
LINE
8
0
10
47
20
36
11
47
21
54
0
LINE
8
0
10
47
20
54
11
29
21
54
0
LINE
8
0
10
29
20
54
11
29
21
36
0
LINE
8
0
10
29
20
55
11
47
21
55
0
LINE
8
0
10
47
20
55
11
47
21
73
0
LINE
8
0
10
47
20
73
11
29
21
73
0
LINE
8
0
10
29
20
73
11
29
21
55
0
LINE
8
0
10
48
20
5
11
66
21
5
0
LINE
8
0
10
66
20
5
11
66
21
23
0
LINE
8
0
10
66
20
23
11
48
21
23
0
LINE
8
0
10
48
20
23
11
48
21
5
0
LINE
8
0
10
48
20
24
11
66
21
24
0
LINE
8
0
10
66
20
24
11
66
21
42
0
LINE
8
0
10
66
20
42
11
48
21
42
0
LINE
8
0
10
48
20
42
11
48
21
24
0
LINE
8
0
10
48
20
43
11
66
21
43
0
LINE
8
0
10
66
20
43
11
66
21
61
0
LINE
8
0
10
66
20
61
11
48
21
61
0
LINE
8
0
10
48
20
61
11
48
21
43
0
LINE
8
0
10
48
20
62
11
66
21
62
0
LINE
8
0
10
66
20
62
11
66
21
80
0
LINE
8
0
10
66
20
80
11
48
21
80
0
LINE
8
0
10
48
20
80
11
48
21
62
0
LINE
8
0
10
67
20
-2
11
85
21
-2
0
LINE
8
0
10
85
20
-2
11
85
21
16
0
LINE
8
0
10
85
20
16
11
67
21
16
0
LINE
8
0
10
67
20
16
11
67
21
-2
0
LINE
8
0
10
67
20
17
11
85
21
17
0
LINE
8
0
10
85
20
17
11
85
21
35
0
LINE
8
0
10
85
20
35
11
67
21
35
0
LINE
8
0
10
67
20
35
11
67
21
17
0
LINE
8
0
10
67
20
36
11
85
21
36
0
LINE
8
0
10
85
20
36
11
85
21
54
0
LINE
8
0
10
85
20
54
11
67
21
54
0
LINE
8
0
10
67
20
54
11
67
21
36
0
LINE
8
0
10
67
20
55
11
85
21
55
0
LINE
8
0
10
85
20
55
11
85
21
73
0
LINE
8
0
10
85
20
73
11
67
21
73
0
LINE
8
0
10
67
20
73
11
67
21
55
0
LINE
8
0
10
86
20
-9
11
104
21
-9
0
LINE
8
0
10
104
20
-9
11
104
21
9
0
LINE
8
0
10
104
20
9
11
86
21
9
0
LINE
8
0
10
86
20
9
11
86
21
-9
0
LINE
8
0
10
86
20
10
11
104
21
10
0
LINE
8
0
10
104
20
10
11
104
21
28
0
LINE
8
0
10
104
20
28
11
86
21
28
0
LINE
8
0
10
86
20
28
11
86
21
10
0
LINE
8
0
10
86
20
29
11
104
21
29
0
LINE
8
0
10
104
20
29
11
104
21
47
0
LINE
8
0
10
104
20
47
11
86
21
47
0
LINE
8
0
10
86
20
47
11
86
21
29
0
LINE
8
0
10
86
20
48
11
104
21
48
0
LINE
8
0
10
104
20
48
11
104
21
66
0
LINE
8
0
10
104
20
66
11
86
21
66
0
LINE
8
0
10
86
20
66
11
86
21
48
0
LINE
8
0
10
42
20
-22
11
60
21
-22
0
LINE
8
0
10
60
20
-22
11
60
21
-4
0
LINE
8
0
10
60
20
-4
11
42
21
-4
0
LINE
8
0
10
42
20
-4
11
42
21
-22
0
LINE
8
0
10
61
20
-22
11
79
21
-22
0
LINE
8
0
10
79
20
-22
11
79
21
-4
0
LINE
8
0
10
79
20
-4
11
61
21
-4
0
LINE
8
0
10
61
20
-4
11
61
21
-22
0
LINE
8
0
10
80
20
-29
11
98
21
-29
0
LINE
8
0
10
98
20
-29
11
98
21
-11
0
LINE
8
0
10
98
20
-11
11
80
21
-11
0
LINE
8
0
10
80
20
-11
11
80
21
-29
0
LINE
8
0
10
105
20
6
11
123
21
6
0
LINE
8
0
10
123
20
6
11
123
21
24
0
LINE
8
0
10
123
20
24
11
105
21
24
0
LINE
8
0
10
105
20
24
11
105
21
6
0
LINE
8
0
10
102.0396656
20
-19.3532057
11
118.3532057
21
-26.9603344
0
LINE
8
0
10
118.3532057
20
-26.9603344
11
125.9603344
21
-10.6467943
0
LINE
8
0
10
125.9603344
20
-10.6467943
11
109.6467943
21
-3.0396656
0
LINE
8
0
10
109.6467943
20
-3.0396656
11
102.0396656
21
-19.3532057
0
LINE
8
0
10
119.1461915
20
-27.7198292
11
130.7163685
21
-41.5086292
0
LINE
8
0
10
130.7163685
20
-41.5086292
11
144.5051685
21
-29.9384522
0
LINE
8
0
10
144.5051685
20
-29.9384522
11
132.9349915
21
-16.1496522
0
LINE
8
0
10
132.9349915
20
-16.1496522
11
119.1461915
21
-27.7198292
0
ENDSEC
0
EOF