M48
; DRILL file {KiCad (6.0.10)} date Mon Feb 13 20:56:46 2023
; FORMAT={-:-/ absolute / metric / decimal}
; #@! TF.CreationDate,2023-02-13T20:56:46+01:00
; #@! TF.GenerationSoftware,Kicad,Pcbnew,(6.0.10)
; #@! TF.FileFunction,Plated,1,2,PTH
FMAT,2
METRIC
; #@! TA.AperFunction,Plated,PTH,ViaDrill
T1C0.200
; #@! TA.AperFunction,Plated,PTH,ViaDrill
T2C0.400
; #@! TA.AperFunction,Plated,PTH,ComponentDrill
T3C0.500
; #@! TA.AperFunction,Plated,PTH,ComponentDrill
T4C0.813
; #@! TA.AperFunction,Plated,PTH,ComponentDrill
T5C0.991
; #@! TA.AperFunction,Plated,PTH,ComponentDrill
T6C1.092
; #@! TA.AperFunction,Plated,PTH,ComponentDrill
T7C2.200
%
G90
G05
T1
X131.074Y-108.437
X131.544Y-165.054
X131.805Y-127.083
X131.805Y-146.095
X132.544Y-166.19
X132.597Y-147.387
X132.701Y-128.166
X132.753Y-109.102
X149.511Y-164.95
X149.563Y-126.926
X149.772Y-145.886
X149.96Y-146.788
X149.96Y-165.748
X150.252Y-127.664
X150.269Y-109.063
X150.371Y-108.09
X168.782Y-138.958
X169.096Y-159.406
X169.409Y-121.096
X169.671Y-101.091
X169.978Y-158.482
X170.056Y-139.758
X170.391Y-120.229
X170.638Y-101.856
X173.479Y-170.346
X182.058Y-178.807
X182.88Y-177.8
X186.942Y-131.997
X187.899Y-151.023
X187.96Y-132.863
X188.032Y-113.642
X188.273Y-94.156
X188.45Y-151.666
X189.37Y-112.959
X189.441Y-94.961
X192.635Y-170.111
X200.668Y-179.343
X200.978Y-178.455
X206.88Y-140.263
X207.155Y-120.01
X207.402Y-121.025
X207.468Y-102.304
X207.625Y-158.086
X208.186Y-139.671
X208.264Y-158.866
X208.714Y-101.62
X211.673Y-176.575
X219.706Y-184.984
X220.369Y-185.741
X226.052Y-165.241
X226.06Y-127.0
X226.13Y-145.968
X226.6Y-107.97
X226.753Y-166.231
X226.91Y-127.92
X227.067Y-147.036
X227.674Y-108.828
X237.35Y-141.979
X242.462Y-168.231
X243.052Y-97.308
X243.109Y-120.111
X243.755Y-180.57
X243.993Y-179.891
X244.541Y-151.373
X244.628Y-102.388
X245.283Y-150.486
X245.87Y-106.17
X246.89Y-103.63
X247.002Y-121.247
X248.113Y-120.187
X249.471Y-121.253
X250.127Y-119.635
X250.597Y-93.795
X250.672Y-104.928
X250.672Y-107.468
X250.672Y-110.008
X250.672Y-112.548
X250.672Y-115.088
X250.672Y-117.628
X251.46Y-96.52
X251.46Y-99.06
X251.46Y-101.6
X251.46Y-104.14
X251.46Y-106.68
X251.46Y-109.22
X251.46Y-111.76
X251.46Y-114.3
X251.46Y-116.84
X251.46Y-119.38
X260.443Y-193.615
X260.602Y-192.897
X261.383Y-181.628
X266.932Y-198.28
T2
X235.842Y-170.459
X238.661Y-162.276
X261.06Y-109.161
X267.26Y-109.218
T4
X243.108Y-127.065
X245.648Y-127.065
X248.188Y-127.065
X250.728Y-127.065
T5
X127.15Y-114.44
X127.15Y-133.44
X127.15Y-152.44
X127.15Y-171.44
X134.77Y-114.44
X134.77Y-133.44
X134.77Y-152.44
X134.77Y-171.44
X146.15Y-114.44
X146.15Y-133.44
X146.15Y-152.44
X146.15Y-171.44
X153.77Y-114.44
X153.77Y-133.44
X153.77Y-152.44
X153.77Y-171.44
X165.15Y-107.44
X165.15Y-126.44
X165.15Y-145.44
X165.15Y-164.44
X172.77Y-107.44
X172.77Y-126.44
X172.77Y-145.44
X172.77Y-164.44
X178.15Y-184.44
X184.15Y-100.44
X184.15Y-119.44
X184.15Y-138.44
X184.15Y-157.44
X185.77Y-184.44
X191.77Y-100.44
X191.77Y-119.44
X191.77Y-138.44
X191.77Y-157.44
X197.15Y-184.44
X203.15Y-107.44
X203.15Y-126.44
X203.15Y-145.44
X203.15Y-164.44
X204.77Y-184.44
X210.77Y-107.44
X210.77Y-126.44
X210.77Y-145.44
X210.77Y-164.44
X216.15Y-191.44
X222.15Y-114.44
X222.15Y-133.44
X222.15Y-152.44
X222.15Y-171.44
X223.77Y-191.44
X229.77Y-114.44
X229.77Y-133.44
X229.77Y-152.44
X229.77Y-171.44
X237.703Y-183.987
X241.15Y-156.44
X244.609Y-187.207
X248.77Y-156.44
X253.442Y-194.136
X258.34Y-199.973
T6
X238.34Y-93.47
X238.34Y-96.01
X238.34Y-98.55
X238.34Y-101.09
X238.34Y-103.63
X238.34Y-106.17
X238.34Y-108.71
X238.34Y-111.25
X238.34Y-113.79
X238.34Y-116.33
X238.34Y-118.87
X238.34Y-121.41
X240.429Y-94.768
X240.429Y-97.308
X240.429Y-99.848
X240.429Y-102.388
X240.429Y-104.928
X240.429Y-107.468
X240.429Y-110.008
X240.429Y-112.548
X240.429Y-115.088
X240.429Y-117.628
X240.429Y-120.168
X240.429Y-122.708
X253.58Y-93.47
X253.58Y-96.01
X253.58Y-98.55
X253.58Y-101.09
X253.58Y-103.63
X253.58Y-106.17
X253.58Y-108.71
X253.58Y-111.25
X253.58Y-113.79
X253.58Y-116.33
X253.58Y-118.87
X253.58Y-121.41
X255.669Y-94.768
X255.669Y-97.308
X255.669Y-99.848
X255.669Y-102.388
X255.669Y-104.928
X255.669Y-107.468
X255.669Y-110.008
X255.669Y-112.548
X255.669Y-115.088
X255.669Y-117.628
X255.669Y-120.168
X255.669Y-122.708
T7
X241.3Y-134.62
X264.16Y-134.62
T3
G00X260.648Y-99.821
M15
G01X259.548Y-99.821
M16
G05
G00X260.648Y-102.271
M15
G01X259.548Y-102.271
M16
G05
G00X262.148Y-98.071
M15
G01X261.048Y-98.071
M16
G05
G00X262.148Y-104.021
M15
G01X261.048Y-104.021
M16
G05
G00X266.148Y-98.071
M15
G01X265.048Y-98.071
M16
G05
G00X266.148Y-104.021
M15
G01X265.048Y-104.021
M16
G05
G00X269.148Y-98.071
M15
G01X268.048Y-98.071
M16
G05
G00X269.148Y-104.021
M15
G01X268.048Y-104.021
M16
G05
T0
M30
