  0
SECTION
  2
HEADER
  9
$ANGBASE
  50
0.0
  9
$ANGDIR
  70
1
  9
$MEASUREMENT
  70
0
  0
ENDSEC
  0
SECTION
  2
TABLES
  0
TABLE
  2
LTYPE
  70
4
  0
LTYPE
  5
40F
  2
CONTINUOUS
  70
0
  3
Solid line
  72
65
  73
0
  40
0.0
  0
LTYPE
  5
410
  2
DASHDOT
 70
0
  3
Dash Dot ____ _ ____ _
 72
65
 73
4
 40
2.0
 49
1.25
 49
-0.25
 49
0.25
 49
-0.25
  0
LTYPE
  5
411
  2
DASHED
 70
0
  3
Dashed __ __ __ __ __
 72
65
 73
2
 40
0.75
 49
0.5
 49
-0.25
  0
LTYPE
  5
43B
  2
DOTTED
 70
0
  3
Dotted .  .  .  .
 72
65
 73
2
 40
0.2
 49
0.0
 49
-0.2
  0
ENDTAB
  0
TABLE
  2
STYLE
  70
4
  0
STYLE
  2
KICAD
  70
0
  40
0
  41
1
  42
1
  50
0
  71
0
  3
isocp.shx
  0
STYLE
  2
KICADB
  70
0
  40
0
  41
1
  42
1
  50
0
  71
0
  3
isocp.shx
  0
STYLE
  2
KICADI
  70
0
  40
0
  41
1
  42
1
  50
15
  71
0
  3
isocp.shx
  0
STYLE
  2
KICADBI
  70
0
  40
0
  41
1
  42
1
  50
15
  71
0
  3
isocp.shx
  0
ENDTAB
  0
TABLE
  2
LAYER
  70
1
  0
LAYER
  2
BLACK
  70
0
  62
7
  6
CONTINUOUS
  0
ENDTAB
  0
ENDSEC
  0
SECTION
  2
ENTITIES
0
LINE
8
BLACK
6
CONTINUOUS
10
5.55118
20
-0.332047
11
5.55118
21
2.71654
0
LINE
8
BLACK
6
CONTINUOUS
10
5.55118
20
2.71654
11
5.55016
21
2.71654
0
LINE
8
BLACK
6
CONTINUOUS
10
-0.66827
20
2.71654
11
-0.669291
21
2.71654
0
LINE
8
BLACK
6
CONTINUOUS
10
-0.669291
20
-0.393701
11
-0.669291
21
2.71654
0
LINE
8
BLACK
6
CONTINUOUS
10
-0.393701
20
-0.669291
11
0.666335
21
-0.669291
0
LINE
8
BLACK
6
CONTINUOUS
10
0.816529
20
-0.713815
11
1.46694
21
-1.13658
0
LINE
8
BLACK
6
CONTINUOUS
10
1.61713
20
-1.1811
11
2.57362
21
-1.1811
0
LINE
8
BLACK
6
CONTINUOUS
10
2.75509
20
-1.24929
11
2.9142
21
-1.38851
0
LINE
8
BLACK
6
CONTINUOUS
10
3.09568
20
-1.45669
11
4.40631
21
-1.45669
0
LINE
8
BLACK
6
CONTINUOUS
10
4.61743
20
-1.55514
11
4.97611
21
-1.98259
0
LINE
8
BLACK
6
CONTINUOUS
10
5.36437
20
-2.01656
11
6.04295
21
-1.44716
0
LINE
8
BLACK
6
CONTINUOUS
10
6.07692
20
-1.0589
11
5.61566
21
-0.509193
0
ARC
8
BLACK
10
-0.393701
20
-0.393701
40
0.275591
50
-180
51
-90
0
ARC
8
BLACK
10
0.666335
20
-0.944882
40
0.275591
50
56.9761
51
90
0
ARC
8
BLACK
10
1.61713
20
-0.905512
40
0.275591
50
-123.024
51
-90
0
ARC
8
BLACK
10
2.57362
20
-1.45669
40
0.275591
50
48.8141
51
90
0
ARC
8
BLACK
10
3.09568
20
-1.1811
40
0.275591
50
-131.186
51
-90
0
ARC
8
BLACK
10
4.40631
20
-1.73228
40
0.275591
50
40
51
90
0
ARC
8
BLACK
10
5.18722
20
-1.80545
40
0.275591
50
-140
51
-50
0
ARC
8
BLACK
10
5.8658
20
-1.23605
40
0.275591
50
-50
51
40
0
ARC
8
BLACK
10
5.82677
20
-0.332047
40
0.275591
50
-180
51
-140
0
ARC
8
BLACK
10
2.44094
20
-2.51969
40
6.08976
50
59.2986
51
120.701
0
LINE
8
BLACK
6
CONTINUOUS
10
-0.570819
20
-2.20623
11
-0.570819
21
-2.12749
0
LINE
8
BLACK
6
CONTINUOUS
10
-0.570819
20
-2.12749
11
-0.552072
21
-2.12749
0
LINE
8
BLACK
6
CONTINUOUS
10
-0.552072
20
-2.12749
11
-0.540823
21
-2.13124
0
LINE
8
BLACK
6
CONTINUOUS
10
-0.540823
20
-2.13124
11
-0.533324
21
-2.13873
0
LINE
8
BLACK
6
CONTINUOUS
10
-0.533324
20
-2.13873
11
-0.529574
21
-2.14623
0
LINE
8
BLACK
6
CONTINUOUS
10
-0.529574
20
-2.14623
11
-0.525825
21
-2.16123
0
LINE
8
BLACK
6
CONTINUOUS
10
-0.525825
20
-2.16123
11
-0.525825
21
-2.17248
0
LINE
8
BLACK
6
CONTINUOUS
10
-0.525825
20
-2.17248
11
-0.529574
21
-2.18748
0
LINE
8
BLACK
6
CONTINUOUS
10
-0.529574
20
-2.18748
11
-0.533324
21
-2.19498
0
LINE
8
BLACK
6
CONTINUOUS
10
-0.533324
20
-2.19498
11
-0.540823
21
-2.20248
0
LINE
8
BLACK
6
CONTINUOUS
10
-0.540823
20
-2.20248
11
-0.552072
21
-2.20623
0
LINE
8
BLACK
6
CONTINUOUS
10
-0.552072
20
-2.20623
11
-0.570819
21
-2.20623
0
LINE
8
BLACK
6
CONTINUOUS
10
-0.492079
20
-2.20623
11
-0.492079
21
-2.15373
0
LINE
8
BLACK
6
CONTINUOUS
10
-0.492079
20
-2.16873
11
-0.48833
21
-2.16123
0
LINE
8
BLACK
6
CONTINUOUS
10
-0.48833
20
-2.16123
11
-0.48458
21
-2.15748
0
LINE
8
BLACK
6
CONTINUOUS
10
-0.48458
20
-2.15748
11
-0.477081
21
-2.15373
0
LINE
8
BLACK
6
CONTINUOUS
10
-0.477081
20
-2.15373
11
-0.469582
21
-2.15373
0
LINE
8
BLACK
6
CONTINUOUS
10
-0.443335
20
-2.20623
11
-0.443335
21
-2.15373
0
LINE
8
BLACK
6
CONTINUOUS
10
-0.443335
20
-2.12749
11
-0.447085
21
-2.13124
0
LINE
8
BLACK
6
CONTINUOUS
10
-0.447085
20
-2.13124
11
-0.443335
21
-2.13499
0
LINE
8
BLACK
6
CONTINUOUS
10
-0.443335
20
-2.13499
11
-0.439586
21
-2.13124
0
LINE
8
BLACK
6
CONTINUOUS
10
-0.439586
20
-2.13124
11
-0.443335
21
-2.12749
0
LINE
8
BLACK
6
CONTINUOUS
10
-0.443335
20
-2.12749
11
-0.443335
21
-2.13499
0
LINE
8
BLACK
6
CONTINUOUS
10
-0.394591
20
-2.20623
11
-0.40209
21
-2.20248
0
LINE
8
BLACK
6
CONTINUOUS
10
-0.40209
20
-2.20248
11
-0.40584
21
-2.19498
0
LINE
8
BLACK
6
CONTINUOUS
10
-0.40584
20
-2.19498
11
-0.40584
21
-2.12749
0
LINE
8
BLACK
6
CONTINUOUS
10
-0.353346
20
-2.20623
11
-0.360846
21
-2.20248
0
LINE
8
BLACK
6
CONTINUOUS
10
-0.360846
20
-2.20248
11
-0.364595
21
-2.19498
0
LINE
8
BLACK
6
CONTINUOUS
10
-0.364595
20
-2.19498
11
-0.364595
21
-2.12749
0
LINE
8
BLACK
6
CONTINUOUS
10
-0.263358
20
-2.20623
11
-0.263358
21
-2.12749
0
LINE
8
BLACK
6
CONTINUOUS
10
-0.263358
20
-2.12749
11
-0.237111
21
-2.18373
0
LINE
8
BLACK
6
CONTINUOUS
10
-0.237111
20
-2.18373
11
-0.210864
21
-2.12749
0
LINE
8
BLACK
6
CONTINUOUS
10
-0.210864
20
-2.12749
11
-0.210864
21
-2.20623
0
LINE
8
BLACK
6
CONTINUOUS
10
-0.139623
20
-2.20623
11
-0.139623
21
-2.16498
0
LINE
8
BLACK
6
CONTINUOUS
10
-0.139623
20
-2.16498
11
-0.143373
21
-2.15748
0
LINE
8
BLACK
6
CONTINUOUS
10
-0.143373
20
-2.15748
11
-0.150872
21
-2.15373
0
LINE
8
BLACK
6
CONTINUOUS
10
-0.150872
20
-2.15373
11
-0.16587
21
-2.15373
0
LINE
8
BLACK
6
CONTINUOUS
10
-0.16587
20
-2.15373
11
-0.173369
21
-2.15748
0
LINE
8
BLACK
6
CONTINUOUS
10
-0.139623
20
-2.20248
11
-0.147122
21
-2.20623
0
LINE
8
BLACK
6
CONTINUOUS
10
-0.147122
20
-2.20623
11
-0.16587
21
-2.20623
0
LINE
8
BLACK
6
CONTINUOUS
10
-0.16587
20
-2.20623
11
-0.173369
21
-2.20248
0
LINE
8
BLACK
6
CONTINUOUS
10
-0.173369
20
-2.20248
11
-0.177118
21
-2.19498
0
LINE
8
BLACK
6
CONTINUOUS
10
-0.177118
20
-2.19498
11
-0.177118
21
-2.18748
0
LINE
8
BLACK
6
CONTINUOUS
10
-0.177118
20
-2.18748
11
-0.173369
21
-2.17998
0
LINE
8
BLACK
6
CONTINUOUS
10
-0.173369
20
-2.17998
11
-0.16587
21
-2.17623
0
LINE
8
BLACK
6
CONTINUOUS
10
-0.16587
20
-2.17623
11
-0.147122
21
-2.17623
0
LINE
8
BLACK
6
CONTINUOUS
10
-0.147122
20
-2.17623
11
-0.139623
21
-2.17248
0
LINE
8
BLACK
6
CONTINUOUS
10
-0.102128
20
-2.15373
11
-0.102128
21
-2.23247
0
LINE
8
BLACK
6
CONTINUOUS
10
-0.102128
20
-2.15748
11
-0.0946288
21
-2.15373
0
LINE
8
BLACK
6
CONTINUOUS
10
-0.0946288
20
-2.15373
11
-0.0796307
21
-2.15373
0
LINE
8
BLACK
6
CONTINUOUS
10
-0.0796307
20
-2.15373
11
-0.0721316
21
-2.15748
0
LINE
8
BLACK
6
CONTINUOUS
10
-0.0721316
20
-2.15748
11
-0.068382
21
-2.16123
0
LINE
8
BLACK
6
CONTINUOUS
10
-0.068382
20
-2.16123
11
-0.0646325
21
-2.16873
0
LINE
8
BLACK
6
CONTINUOUS
10
-0.0646325
20
-2.16873
11
-0.0646325
21
-2.19123
0
LINE
8
BLACK
6
CONTINUOUS
10
-0.0646325
20
-2.19123
11
-0.068382
21
-2.19873
0
LINE
8
BLACK
6
CONTINUOUS
10
-0.068382
20
-2.19873
11
-0.0721316
21
-2.20248
0
LINE
8
BLACK
6
CONTINUOUS
10
-0.0721316
20
-2.20248
11
-0.0796307
21
-2.20623
0
LINE
8
BLACK
6
CONTINUOUS
10
-0.0796307
20
-2.20623
11
-0.0946288
21
-2.20623
0
LINE
8
BLACK
6
CONTINUOUS
10
-0.0946288
20
-2.20623
11
-0.102128
21
-2.20248
0
LINE
8
BLACK
6
CONTINUOUS
10
-0.0308867
20
-2.19873
11
-0.0271372
21
-2.20248
0
LINE
8
BLACK
6
CONTINUOUS
10
-0.0271372
20
-2.20248
11
-0.0308867
21
-2.20623
0
LINE
8
BLACK
6
CONTINUOUS
10
-0.0308867
20
-2.20623
11
-0.0346363
21
-2.20248
0
LINE
8
BLACK
6
CONTINUOUS
10
-0.0346363
20
-2.20248
11
-0.0308867
21
-2.19873
0
LINE
8
BLACK
6
CONTINUOUS
10
-0.0308867
20
-2.19873
11
-0.0308867
21
-2.20623
0
LINE
8
BLACK
6
CONTINUOUS
10
-0.0308867
20
-2.15748
11
-0.0271372
21
-2.16123
0
LINE
8
BLACK
6
CONTINUOUS
10
-0.0271372
20
-2.16123
11
-0.0308867
21
-2.16498
0
LINE
8
BLACK
6
CONTINUOUS
10
-0.0308867
20
-2.16498
11
-0.0346363
21
-2.16123
0
LINE
8
BLACK
6
CONTINUOUS
10
-0.0346363
20
-2.16123
11
-0.0308867
21
-2.15748
0
LINE
8
BLACK
6
CONTINUOUS
10
-0.0308867
20
-2.15748
11
-0.0308867
21
-2.16498
  0
ENDSEC
  0
EOF
