M48
; DRILL file {KiCad (6.0.10)} date Wed Feb  8 20:31:41 2023
; FORMAT={-:-/ absolute / inch / decimal}
; #@! TF.CreationDate,2023-02-08T20:31:41+01:00
; #@! TF.GenerationSoftware,Kicad,Pcbnew,(6.0.10)
; #@! TF.FileFunction,NonPlated,1,2,NPTH
FMAT,2
INCH
; #@! TA.AperFunction,NonPlated,NPTH,ComponentDrill
T1C0.0039
; #@! TA.AperFunction,NonPlated,NPTH,ComponentDrill
T2C0.0669
; #@! TA.AperFunction,NonPlated,NPTH,ComponentDrill
T3C0.0748
; #@! TA.AperFunction,NonPlated,NPTH,ComponentDrill
T4C0.1181
; #@! TA.AperFunction,NonPlated,NPTH,ComponentDrill
T5C0.1575
%
G90
G05
T1
X-0.1506Y2.3457
X-0.1506Y1.5976
X-0.1506Y0.8496
X-0.1506Y0.1016
X0.1506Y2.3457
X0.1506Y1.5976
X0.1506Y0.8496
X0.1506Y0.1016
X0.5974Y2.3457
X0.5974Y1.5976
X0.5974Y0.8496
X0.5974Y0.1016
X0.8986Y2.3457
X0.8986Y1.5976
X0.8986Y0.8496
X0.8986Y0.1016
X1.3455Y2.6213
X1.3455Y1.8732
X1.3455Y1.1252
X1.3455Y0.3772
X1.6467Y2.6213
X1.6467Y1.8732
X1.6467Y1.1252
X1.6467Y0.3772
X1.8573Y-0.4102
X2.0935Y2.8969
X2.0935Y2.1488
X2.0935Y1.4008
X2.0935Y0.6528
X2.1585Y-0.4102
X2.3947Y2.8969
X2.3947Y2.1488
X2.3947Y1.4008
X2.3947Y0.6528
X2.6053Y-0.4102
X2.8415Y2.6213
X2.8415Y1.8732
X2.8415Y1.1252
X2.8415Y0.3772
X2.9065Y-0.4102
X3.1427Y2.6213
X3.1427Y1.8732
X3.1427Y1.1252
X3.1427Y0.3772
X3.3533Y-0.6858
X3.5896Y2.3457
X3.5896Y1.5976
X3.5896Y0.8496
X3.5896Y0.1016
X3.6545Y-0.6858
X3.8907Y2.3457
X3.8907Y1.5976
X3.8907Y0.8496
X3.8907Y0.1016
X4.3376Y0.6921
X4.3946Y-0.4349
X4.6388Y0.6921
X4.6676Y-0.5621
X5.171Y-0.9544
X5.3646Y-1.1851
T2
X-0.2Y2.2441
X-0.2Y1.4961
X-0.2Y0.748
X-0.2Y0.0
X0.2Y2.2441
X0.2Y1.4961
X0.2Y0.748
X0.2Y0.0
X0.548Y2.2441
X0.548Y1.4961
X0.548Y0.748
X0.548Y0.0
X0.948Y2.2441
X0.948Y1.4961
X0.948Y0.748
X0.948Y0.0
X1.2961Y2.5197
X1.2961Y1.7717
X1.2961Y1.0236
X1.2961Y0.2756
X1.6961Y2.5197
X1.6961Y1.7717
X1.6961Y1.0236
X1.6961Y0.2756
X1.8079Y-0.5118
X2.0441Y2.7953
X2.0441Y2.0472
X2.0441Y1.2992
X2.0441Y0.5512
X2.2079Y-0.5118
X2.4441Y2.7953
X2.4441Y2.0472
X2.4441Y1.2992
X2.4441Y0.5512
X2.5559Y-0.5118
X2.7921Y2.5197
X2.7921Y1.7717
X2.7921Y1.0236
X2.7921Y0.2756
X2.9559Y-0.5118
X3.1921Y2.5197
X3.1921Y1.7717
X3.1921Y1.0236
X3.1921Y0.2756
X3.3039Y-0.7874
X3.5402Y2.2441
X3.5402Y1.4961
X3.5402Y0.748
X3.5402Y0.0
X3.7039Y-0.7874
X3.9402Y2.2441
X3.9402Y1.4961
X3.9402Y0.748
X3.9402Y0.0
X4.2882Y0.5906
X4.3069Y-0.506
X4.6695Y-0.6751
X4.6882Y0.5906
X5.0614Y-0.9818
X5.3185Y-1.2882
T3
X-0.2165Y2.2441
X-0.2165Y1.4961
X-0.2165Y0.748
X-0.2165Y0.0
X0.2165Y2.2441
X0.2165Y1.4961
X0.2165Y0.748
X0.2165Y0.0
X0.5315Y2.2441
X0.5315Y1.4961
X0.5315Y0.748
X0.5315Y0.0
X0.9646Y2.2441
X0.9646Y1.4961
X0.9646Y0.748
X0.9646Y0.0
X1.2795Y2.5197
X1.2795Y1.7717
X1.2795Y1.0236
X1.2795Y0.2756
X1.7126Y2.5197
X1.7126Y1.7717
X1.7126Y1.0236
X1.7126Y0.2756
X1.7913Y-0.5118
X2.0276Y2.7953
X2.0276Y2.0472
X2.0276Y1.2992
X2.0276Y0.5512
X2.2244Y-0.5118
X2.4606Y2.7953
X2.4606Y2.0472
X2.4606Y1.2992
X2.4606Y0.5512
X2.5394Y-0.5118
X2.7756Y2.5197
X2.7756Y1.7717
X2.7756Y1.0236
X2.7756Y0.2756
X2.9724Y-0.5118
X3.2087Y2.5197
X3.2087Y1.7717
X3.2087Y1.0236
X3.2087Y0.2756
X3.2874Y-0.7874
X3.5236Y2.2441
X3.5236Y1.4961
X3.5236Y0.748
X3.5236Y0.0
X3.7205Y-0.7874
X3.9567Y2.2441
X3.9567Y1.4961
X3.9567Y0.748
X3.9567Y0.0
X4.2717Y0.5906
X4.2919Y-0.499
X4.6844Y-0.6821
X4.7047Y0.5906
X5.0508Y-0.9691
X5.3292Y-1.3009
T4
X-0.1969Y2.0984
X-0.1969Y1.3504
X-0.1969Y0.6024
X-0.1969Y-0.1457
X-0.15Y2.3441
X-0.15Y1.5961
X-0.15Y0.848
X-0.15Y0.1
X-0.1Y2.4441
X-0.1Y1.6961
X-0.1Y0.948
X-0.1Y0.2
X0.0Y2.0118
X0.0Y1.2638
X0.0Y0.5157
X0.0Y-0.2323
X0.1Y2.4441
X0.1Y1.6961
X0.1Y0.948
X0.1Y0.2
X0.15Y2.3441
X0.15Y2.3441
X0.15Y1.5961
X0.15Y1.5961
X0.15Y0.848
X0.15Y0.848
X0.15Y0.1
X0.15Y0.1
X0.1969Y2.0984
X0.1969Y1.3504
X0.1969Y0.6024
X0.1969Y-0.1457
X0.5512Y2.0984
X0.5512Y1.3504
X0.5512Y0.6024
X0.5512Y-0.1457
X0.598Y2.3441
X0.598Y1.5961
X0.598Y0.848
X0.598Y0.1
X0.648Y2.4441
X0.648Y1.6961
X0.648Y0.948
X0.648Y0.2
X0.748Y2.0118
X0.748Y1.2638
X0.748Y0.5157
X0.748Y-0.2323
X0.848Y2.4441
X0.848Y1.6961
X0.848Y0.948
X0.848Y0.2
X0.898Y2.3441
X0.898Y2.3441
X0.898Y1.5961
X0.898Y1.5961
X0.898Y0.848
X0.898Y0.848
X0.898Y0.1
X0.898Y0.1
X0.9449Y2.0984
X0.9449Y1.3504
X0.9449Y0.6024
X0.9449Y-0.1457
X1.2992Y2.374
X1.2992Y1.626
X1.2992Y0.878
X1.2992Y0.1299
X1.3461Y2.6197
X1.3461Y1.8717
X1.3461Y1.1236
X1.3461Y0.3756
X1.3961Y2.7197
X1.3961Y1.9717
X1.3961Y1.2236
X1.3961Y0.4756
X1.4961Y2.2874
X1.4961Y1.5394
X1.4961Y0.7913
X1.4961Y0.0433
X1.5961Y2.7197
X1.5961Y1.9717
X1.5961Y1.2236
X1.5961Y0.4756
X1.6461Y2.6197
X1.6461Y2.6197
X1.6461Y1.8717
X1.6461Y1.8717
X1.6461Y1.1236
X1.6461Y1.1236
X1.6461Y0.3756
X1.6461Y0.3756
X1.6929Y2.374
X1.6929Y1.626
X1.6929Y0.878
X1.6929Y0.1299
X1.811Y-0.6575
X1.8579Y-0.4118
X1.9079Y-0.3118
X2.0079Y-0.7441
X2.0472Y2.6496
X2.0472Y1.9016
X2.0472Y1.1535
X2.0472Y0.4055
X2.0941Y2.8953
X2.0941Y2.1472
X2.0941Y1.3992
X2.0941Y0.6512
X2.1079Y-0.3118
X2.1441Y2.9953
X2.1441Y2.2472
X2.1441Y1.4992
X2.1441Y0.7512
X2.1579Y-0.4118
X2.1579Y-0.4118
X2.2047Y-0.6575
X2.2441Y2.563
X2.2441Y1.815
X2.2441Y1.0669
X2.2441Y0.3189
X2.3441Y2.9953
X2.3441Y2.2472
X2.3441Y1.4992
X2.3441Y0.7512
X2.3941Y2.8953
X2.3941Y2.8953
X2.3941Y2.1472
X2.3941Y2.1472
X2.3941Y1.3992
X2.3941Y1.3992
X2.3941Y0.6512
X2.3941Y0.6512
X2.4409Y2.6496
X2.4409Y1.9016
X2.4409Y1.1535
X2.4409Y0.4055
X2.5591Y-0.6575
X2.6059Y-0.4118
X2.6559Y-0.3118
X2.7559Y-0.7441
X2.7953Y2.374
X2.7953Y1.626
X2.7953Y0.878
X2.7953Y0.1299
X2.8421Y2.6197
X2.8421Y1.8717
X2.8421Y1.1236
X2.8421Y0.3756
X2.8559Y-0.3118
X2.8921Y2.7197
X2.8921Y1.9717
X2.8921Y1.2236
X2.8921Y0.4756
X2.9059Y-0.4118
X2.9059Y-0.4118
X2.9528Y-0.6575
X2.9921Y2.2874
X2.9921Y1.5394
X2.9921Y0.7913
X2.9921Y0.0433
X3.0921Y2.7197
X3.0921Y1.9717
X3.0921Y1.2236
X3.0921Y0.4756
X3.1421Y2.6197
X3.1421Y2.6197
X3.1421Y1.8717
X3.1421Y1.8717
X3.1421Y1.1236
X3.1421Y1.1236
X3.1421Y0.3756
X3.1421Y0.3756
X3.189Y2.374
X3.189Y1.626
X3.189Y0.878
X3.189Y0.1299
X3.3071Y-0.9331
X3.3539Y-0.6874
X3.4039Y-0.5874
X3.5039Y-1.0197
X3.5433Y2.0984
X3.5433Y1.3504
X3.5433Y0.6024
X3.5433Y-0.1457
X3.5902Y2.3441
X3.5902Y1.5961
X3.5902Y0.848
X3.5902Y0.1
X3.6039Y-0.5874
X3.6402Y2.4441
X3.6402Y1.6961
X3.6402Y0.948
X3.6402Y0.2
X3.6539Y-0.6874
X3.6539Y-0.6874
X3.7008Y-0.9331
X3.7402Y2.0118
X3.7402Y1.2638
X3.7402Y0.5157
X3.7402Y-0.2323
X3.8402Y2.4441
X3.8402Y1.6961
X3.8402Y0.948
X3.8402Y0.2
X3.8902Y2.3441
X3.8902Y2.3441
X3.8902Y1.5961
X3.8902Y1.5961
X3.8902Y0.848
X3.8902Y0.848
X3.8902Y0.1
X3.8902Y0.1
X3.937Y2.0984
X3.937Y1.3504
X3.937Y0.6024
X3.937Y-0.1457
X4.2482Y-0.6394
X4.2913Y0.4449
X4.3382Y0.6906
X4.3882Y0.7906
X4.39Y-0.8011
X4.3945Y-0.4365
X4.4821Y-0.367
X4.4882Y0.3583
X4.5882Y0.7906
X4.605Y-0.8058
X4.6382Y0.6906
X4.6382Y0.6906
X4.6633Y-0.4516
X4.6664Y-0.5633
X4.6664Y-0.5633
X4.685Y0.4449
X4.9519Y-1.0778
X5.012Y-1.2843
X5.1702Y-0.9558
X5.2049Y-1.3794
X5.2789Y-0.9298
X5.363Y-1.1856
X5.363Y-1.1856
X5.4075Y-1.0831
T5
X0.0Y2.2441
X0.0Y1.4961
X0.0Y0.748
X0.0Y0.0
X0.748Y2.2441
X0.748Y1.4961
X0.748Y0.748
X0.748Y0.0
X1.4961Y2.5197
X1.4961Y1.7717
X1.4961Y1.0236
X1.4961Y0.2756
X2.0079Y-0.5118
X2.2441Y2.7953
X2.2441Y2.0472
X2.2441Y1.2992
X2.2441Y0.5512
X2.7559Y-0.5118
X2.9921Y2.5197
X2.9921Y1.7717
X2.9921Y1.0236
X2.9921Y0.2756
X3.5039Y-0.7874
X3.7402Y2.2441
X3.7402Y1.4961
X3.7402Y0.748
X3.7402Y0.0
X4.4882Y0.5906
X4.4882Y-0.5906
X5.19Y-1.135
T0
M30
